<svg id="Layer_1" data-name="Layer 1" xmlns="http://www.w3.org/2000/svg" viewBox="0 0 24 24"><title>E1X_ico_font</title><path d="M19.67,12.11A8.05,8.05,0,0,0,19.75,11,8.75,8.75,0,1,0,11,19.75c.2,0,.4,0,.6,0A5.79,5.79,0,0,0,16.25,22,5.62,5.62,0,0,0,22,16.52,5.41,5.41,0,0,0,19.67,12.11ZM3.5,11a7.5,7.5,0,0,1,15,0c0,.15,0,.3,0,.45A6.1,6.1,0,0,0,16.25,11H16v0A5,5,0,1,0,10.55,16a5.44,5.44,0,0,0,0,.57,5.25,5.25,0,0,0,.39,2A7.52,7.52,0,0,1,3.5,11Zm7.34,3.73A3.74,3.74,0,1,1,14.75,11c0,.08,0,.15,0,.23A5.62,5.62,0,0,0,10.84,14.73Zm9.07,4.54-.7.71-2.8-2.8L13.62,20l-.71-.71,2.8-2.79-2.8-2.8.71-.7,2.79,2.79L19.21,13l.7.7-2.79,2.8Z"/></svg>