<svg id="Layer_1" data-name="Layer 1" xmlns="http://www.w3.org/2000/svg" viewBox="0 0 24 24"><title>E1X_ico_font</title><path d="M13.6,18.53l-4.33,1h0V5.73h0l.2,0,5.28-1.18h0V15.43a4.8,4.8,0,0,1,.92-.88V4.71l4.58,1v8.2a5.22,5.22,0,0,1,.92.45V5L14.75,3.57,9.27,4.8,2.83,3.35V19l6.44,1.45,4.42-1a5.27,5.27,0,0,1-.09-.89Zm-5.27.76-4.58-1V4.5l4.58,1Zm10.21-4.92a4.19,4.19,0,1,0,4.19,4.19A4.19,4.19,0,0,0,18.54,14.37Zm2.63,6.28-.53.53-2.1-2.09-2.1,2.09-.52-.53L18,18.56l-2.09-2.1.52-.53,2.1,2.1,2.1-2.1.53.53-2.1,2.1Z"/></svg>