<svg id="Layer_1" data-name="Layer 1" xmlns="http://www.w3.org/2000/svg" viewBox="0 0 24 24"><title>E1X_ico_font</title><g id="SVG-ICON-satilite"><path id="Path_108" data-name="Path 108" d="M21.85,19.17l-5.63-5.63a.54.54,0,0,0-.73,0l-.61.61-.39-.39,2-2a1.38,1.38,0,0,0,0-1.94h0L14.2,7.49a1.36,1.36,0,0,0-1.94,0h0l-2,2-.4-.4.61-.61a.51.51,0,0,0,0-.72h0L4.82,2.15a.51.51,0,0,0-.72,0L2.15,4.09a.52.52,0,0,0,0,.73l5.63,5.63a.52.52,0,0,0,.73,0l.61-.61.39.39L8.45,11.3l-.76.75-.2.2a1.71,1.71,0,0,0-.11.14,1.37,1.37,0,0,0-.29.83h0a1.37,1.37,0,0,0,.4,1l.8.79L8,15.31a5.94,5.94,0,0,0-1.71-1,4.73,4.73,0,0,0-.67-.2,5.59,5.59,0,0,0-2-.13.52.52,0,0,0-.45.57.54.54,0,0,0,.15.3l2.58,2.58L5,18.3A.51.51,0,0,0,5.7,19l.73-.73.11-.11.63.62,1.95,2a.52.52,0,0,0,.73,0,.49.49,0,0,0,.14-.3h0c0-.23,0-.46,0-.7A6,6,0,0,0,9.75,18a5.58,5.58,0,0,0-1-1.84L8.68,16l.17-.17L9,15.71l.48.48.32.31a1.35,1.35,0,0,0,1.93,0h0l.2-.2.76-.75,1.06-1.07.4.4-.61.61a.52.52,0,0,0,0,.73h0l5.63,5.63a.51.51,0,0,0,.72,0l2-2a.51.51,0,0,0,0-.72ZM8.76,8.75h0l-.61.61L3.24,4.46,4.46,3.24l4.9,4.9Zm0,9.48a4.9,4.9,0,0,1,.21.92L7.11,17.29l-2-1.95L4.85,15l.36.06a5.46,5.46,0,0,1,.66.19,4.78,4.78,0,0,1,2.89,3Zm4.64-4.84h0l-1.27,1.26-.73.74-.38.38a.36.36,0,0,1-.49,0l-1-1-.1-.11h0L8.26,13.51l0,0,0,0a.34.34,0,0,1,0-.45l.25-.25.13-.13.74-.73L13,8.21a.36.36,0,0,1,.49,0h0l2.31,2.32a.33.33,0,0,1,0,.48h0Zm6.14,7.37-4.9-4.91,1.22-1.22,4.9,4.91Z"/></g></svg>