<svg id="Layer_1" data-name="Layer 1" xmlns="http://www.w3.org/2000/svg" width="24" height="24" viewBox="0 0 24 24"><path d="M4.125,15.125A.625.625,0,1,0,3.5,14.5.62527.62527,0,0,0,4.125,15.125ZM18.5,10.31677V6.062C18.5,3.271,13.965,2,9.75,2,5.536,2,1,3.271,1,6.062V17.938C1,20.729,5.535,22,9.75,22a20.23068,20.23068,0,0,0,2.97125-.2182A6.49686,6.49686,0,1,0,18.5,10.31677ZM9.75,3.25c4.143,0,7.5,1.259,7.5,2.812,0,1.553-3.357,2.813-7.5,2.813-4.142,0-7.5-1.26-7.5-2.813C2.25,4.509,5.608,3.25,9.75,3.25ZM2.25,14.187V11.853c1.291,1.331,4.406,2.022,7.5,2.022.27313,0,.54535-.01208.8175-.02283A6.46834,6.46834,0,0,0,10,16.5c0,.167.01263.33093.025.49481C9.933,16.996,9.84283,17,9.75,17c-4.142,0-7.5-1.25-7.5-2.793,0-.007.003-.014.003-.02Zm7.5,6.563c-4.142,0-7.5-1.26-7.5-2.812V15.603c1.291,1.331,4.406,2.022,7.5,2.022.11774,0,.23468-.00781.35236-.00983A6.46975,6.46975,0,0,0,11.515,20.6684C10.94806,20.71979,10.35913,20.75,9.75,20.75Zm1.14862-7.53607c-.37543.02154-.757.03607-1.14862.03607-4.142,0-7.5-1.25-7.5-2.793,0-.006.003-.013.003-.02H2.25V8.29c1.638,1.248,4.641,1.835,7.5,1.835s5.862-.587,7.5-1.835v1.75665a6.44582,6.44582,0,0,0-6.35138,3.1673Zm7.08,8.464H15.78577V19.25055h2.19287Zm.83331-5a2.119,2.119,0,0,0-.83331,1.66662v.16077H15.78577v-.2774A3.393,3.393,0,0,1,17.26251,15.566a1.90259,1.90259,0,0,0,.78931-1.49048A.94.94,0,0,0,17.02863,13.066c-.83338,0-1.11133.57025-1.18457,1.27264H13.78278a2.96915,2.96915,0,0,1,3.275-2.881c2.39758,0,3.09937,1.55,3.09937,2.69049A3.14667,3.14667,0,0,1,18.812,16.67792ZM4.125,17.625a.625.625,0,1,0,.625.625A.62523.62523,0,0,0,4.125,17.625Zm0-7.5a.625.625,0,1,0,.625.625A.62523.62523,0,0,0,4.125,10.125Z"/></svg>