<svg id="Layer_1" data-name="Layer 1" xmlns="http://www.w3.org/2000/svg" width="24" height="24" viewBox="0 0 24 24"><path d="M12.33691,9.41968c.015.00024.03009.00024.04511,0a1.326,1.326,0,0,0,1.35126-1.30023c.0003-.01618.00036-.03229.00006-.04847a1.349,1.349,0,0,0-2.698,0A1.32532,1.32532,0,0,0,12.33691,9.41968Zm-5.0249,4.06c0,1.212-.67334,1.67865-1.52734,1.67865s-1.52735-.46668-1.52735-1.67865V7.5343H2v5.97333a3.4306,3.4306,0,0,0,3.78467,3.772,3.43153,3.43153,0,0,0,3.78467-3.772V7.5343H7.312ZM17.23865,7.5343H14.96533a2.83993,2.83993,0,0,1,.05133.53736,2.64853,2.64853,0,0,1-.496,1.55468h2.41266a2.40621,2.40621,0,0,1,2.614,2.72528,2.40623,2.40623,0,0,1-2.614,2.72535h-3.422V10.455a2.69308,2.69308,0,0,1-2.25732,0v6.71337H17.2373A4.48419,4.48419,0,0,0,22,12.35162,4.48373,4.48373,0,0,0,17.23865,7.5343Z"/></svg>