<svg id="Layer_1" data-name="Layer 1" xmlns="http://www.w3.org/2000/svg" viewBox="0 0 24 24"><path d="M15,15.12V15h.13a4.92,4.92,0,0,1,1.5-1H15V10h4v3.67a4.39,4.39,0,0,1,1,.19V4H4V20h9.84a4.39,4.39,0,0,1-.19-1H10V15h4v1.61A5,5,0,0,1,15,15.12ZM15,5h4V9H15ZM9,19H5V15H9Zm0-5H5V10H9Zm1-9h4V9H10Zm0,9V10h4v4Zm7.91,2.13a1.74,1.74,0,1,0,1.74,1.74A1.73,1.73,0,0,0,17.91,16.13Zm.65-1.76a4.19,4.19,0,1,0,4.19,4.19A4.18,4.18,0,0,0,18.56,14.37Zm2.53,7.25-1.44-1.43v-.3l-.1-.11a2.53,2.53,0,1,1,.27-.27l.11.1h.3l1.43,1.44Z"/></svg>