<svg id="Layer_1" data-name="Layer 1" xmlns="http://www.w3.org/2000/svg" width="24" height="24" viewBox="0 0 24 24"><path d="M10.53674,11.61407a.2989.2989,0,0,1-.05291-.29827l.10534-.28095a.28771.28771,0,0,0-.1405-.35126l-.29852-.12286a.264.264,0,0,1-.1756-.24585v-.3161a.27017.27017,0,0,0-.26343-.26343H9.43018a.264.264,0,0,1-.24579-.1756L9.079,9.27881a.26467.26467,0,0,0-.34613-.1427l-.00507.0022-.29852.12286A.29906.29906,0,0,1,8.131,9.20825L7.90277,8.98a.27565.27565,0,0,0-.38635,0l-.21069.21075a.29919.29919,0,0,1-.29834.05292l-.28095-.10534a.28757.28757,0,0,0-.3512.1405l-.08783.29852a.264.264,0,0,1-.24578.1756H5.72552a.27.27,0,0,0-.26342.26343v.28088a.264.264,0,0,1-.1756.24579l-.28107.105a.26477.26477,0,0,0-.1427.34613l.0022.00519.12292.29852a.29907.29907,0,0,1-.05291.29834l-.22821.22821a.27558.27558,0,0,0,0,.38629l.21069.2107a.29908.29908,0,0,1,.05292.29834l-.10535.28094a.28764.28764,0,0,0,.1405.3512l.29853.12292a.264.264,0,0,1,.17559.24579v.31616a.27007.27007,0,0,0,.26343.26337h.281a.26407.26407,0,0,1,.24579.17566l.10534.28094a.26476.26476,0,0,0,.34613.1427l.00507-.00219.29852-.12293a.29919.29919,0,0,1,.29834.05292l.22821.22827a.27565.27565,0,0,0,.38635,0l.2107-.21069a.29894.29894,0,0,1,.29828-.05292l.281.10535a.28764.28764,0,0,0,.3512-.14051l.12292-.29852a.264.264,0,0,1,.24579-.1756h.3161a.27007.27007,0,0,0,.26343-.26342v-.28089a.26411.26411,0,0,1,.1756-.24585l.281-.10535a.26471.26471,0,0,0,.1427-.34606l-.00219-.00513-.12293-.29852a.29894.29894,0,0,1,.05292-.29828l.21069-.21076a.27553.27553,0,0,0,0-.386Zm3.76679-6.89953v6.70984h-.54944l-.26709-.26709a.22429.22429,0,0,1-.07025-.10535.55521.55521,0,0,1-.01758-.47412l.24579-.56189a.50427.50427,0,0,0,0-.42145.57691.57691,0,0,0-.33368-.36877l-.57947-.22833a.53573.53573,0,0,1-.33362-.50928V7.89069a.52559.52559,0,0,0-.50634-.54413q-.01887-.00065-.03772,0h-.66736a.54161.54161,0,0,1-.15808-.01758.47523.47523,0,0,1-.316-.316l-.03516-.10535V2.65808a.3989.3989,0,0,0-.5968-.35144L7.92084,3.44806a.49211.49211,0,0,1-.38636,0l-2.16027-1.141a.40836.40836,0,0,0-.59681.35144V6.87268L4.74225,6.978a.53554.53554,0,0,1-.50922.33362l-.6148.01733a.52554.52554,0,0,0-.54407.50641q-.00074.01885,0,.03772v.59747a.58276.58276,0,0,1-.33362.50922L2.161,9.20807a.63868.63868,0,0,0-.28094.24585.52317.52317,0,0,0-.05268.50921l.24579.59705a.54.54,0,0,1-.10535.597l-.439.439a.59513.59513,0,0,0,0,.80774l.439.439a.50658.50658,0,0,1,.10535.5971l-.246.562a.52317.52317,0,0,0,.05273.50921.63883.63883,0,0,0,.28095.24591l.57947.22821a.53572.53572,0,0,1,.33361.50928l-.01733.61475a.52561.52561,0,0,0,.50641.54413q.01885.00063.03772,0h.59741a.5826.5826,0,0,1,.50928.33361l.07025.14045v4.21417a.39888.39888,0,0,0,.5968.35144L7.5343,20.55194a.49142.49142,0,0,1,.38629,0l2.15985,1.14136a.40838.40838,0,0,0,.59687-.35138V17.12769l.03515-.10535a.68887.68887,0,0,1,.316-.316.43538.43538,0,0,1,.15808-.01758h.6673a.52561.52561,0,0,0,.54413-.50641q.00065-.01886,0-.03772v-.59741a.58245.58245,0,0,1,.33362-.50922l.57947-.22827a.57721.57721,0,0,0,.33368-.36877.50427.50427,0,0,0,0-.42145l-.24585-.56189a.56069.56069,0,0,1,.01763-.47412c.0351-.0351.03516-.07025.07026-.10535l.33081-.33087h.4859v6.71051a.57838.57838,0,0,0,.57513.57514h1.80713V18.70972h-1.2594V12.54724h1.2594v-1.1225h-1.2594V5.26227h1.2594V4.1394H14.87866A.57843.57843,0,0,0,14.30353,4.71454Zm-6.5586,11.6933a4.4076,4.4076,0,0,1-.00006-8.81519h.00006a4.42155,4.42155,0,0,1,4.40747,4.40753h.00013A4.40766,4.40766,0,0,1,7.74493,16.40784Zm13.9065-6.92792H18.57587a.98182.98182,0,0,0-.98578.97784V13.533a.98186.98186,0,0,0,.97784.98578h3.07532a.98177.98177,0,0,0,.986-.9776V10.4657A.98181.98181,0,0,0,21.65143,9.47992Zm-.17237,2.93079h-.95861v.95861h-.8216v-.95861l-.95855-.00055v-.8216h.95855V10.63h.8216v.95856h.95861Zm.17237,4.35473H18.57587a.98182.98182,0,0,0-.98578.97785v3.07537a.98185.98185,0,0,0,.97784.98578h3.07532a.98177.98177,0,0,0,.986-.9776V17.75122A.98181.98181,0,0,0,21.65143,16.76544Zm-.17237,2.93024h-.95861v.95862h-.8216v-.95862l-.95855.00012v-.82159h.95855v-.95856h.8216v.95856h.95861ZM18.56781,7.23438h3.07532a.98179.98179,0,0,0,.98578-.97779V3.18127a.98182.98182,0,0,0-.97785-.98577H18.57587a.98177.98177,0,0,0-.98584.97772V6.24866A.98176.98176,0,0,0,18.56781,7.23438Zm.17249-2.9303h.95855V3.34546l.8216.00012v.95856h.95861v.82147h-.95861v.95862h-.8216V5.12561H18.7403Z"/></svg>