<?xml version="1.0" encoding="UTF-8"?><svg id="Layer_1" xmlns="http://www.w3.org/2000/svg" width="24" height="24" viewBox="0 0 24 24"><path d="M12.3908487,5.2057663l1.133231-.0666519c-.5332895-.4787326-.7272164-.4666006-1.133231,.0666519Zm7.6114525,5.2722725c-.4729255-.2294351-.9585009-.4317581-1.4544328-.6060075-.3999487-.1696629-.7878023-.3575237-1.163524-.5575165-.0969819-.048491-.1454359-.1939268-.1878608-.3090697-.2424178-.6060075-.5151286-1.163524-1.3150259-1.127165-.1212089,.006066-.2606158-.1151429-.3636267-.2121248-.4060147-.3635897-.6726594-.9695972-1.4180368-.7150844-.1394069,.048491-.3575607-.1635969-.5454215-.1635969-.3272307-.036359-.6605644-.3212017-.9999271-.036359-.2363148,.2120878-.4605346,.4302416-.6483955,.6060075-.163264-.084739-.3393257-.14207-.5211945-.1696998-.6726594,.060586-.8362933-.0848499-.7878023-.7514434s-.012132-.7029524-.6726594-.7029524c-.1090769,0-.2121248-.03033-.3514947-.03033l.3151357-1.16959c-.3151357-.1030109-.5454215-.1272379-.7757073,.1878608-.1472483,.2308406-.3847467,.3891852-.6544615,.4363446-.2646474-.04224-.4913824-.2123098-.6060075-.4545056-.1183238-.3942156-.1895253-.8010809-.2121248-1.212015-.0848499-.1030479-.3090697-.3817877-.4242126-.5151286-.1151429-.1333039-.3454287-.3514577-.3757217-.3514577-.4302416,.3090327-.5272236-.1394069-.7575094-.2969747-.1199143-.0794127-.256991-.1292722-.3999487-.1454359-.4302786-.060586-.8605203-.0908789-1.2907989-.1333039l-.5514875-.048491-.1090769,.1575679,1.4302058,2.1573852,.1696629-.1090769-.7514434-1.212015c.1515019,.042425,.2363518,.042425,.2363518,.0727179,.4484396,.5696485,1.2726009,.9271722,1.2726009,1.8180225,.0159047,.0915077,.0713124,.1713273,.1515019,.2181538,.6120735,.3090697,1.127165,.8665863,1.9210334,.6908574,.0969819-.018198,.2302858,.0848499,.3393627,.1454359,.2456357,.1194705,.4807669,.2593582,.7029894,.4181466,.2727108,.2120878,.4605716,.4302786,.7817363,.6969234,.3212017,.2666448,.6484324,.5211576,.9575022,.7696044l.3514947-.4302416c.4726666,.8120293,.4363076,1.0786741-.048491,1.7573995-.1335258,.2641666-.2216307,.5489354-.2605788,.8423593-.0366179,.0903241-.0531514,.187491-.048491,.2848428-.0022932,.2198922,.0304409,.4387858,.0969819,.6483955,.1151429,.2848428,.3272307,.5272605,.4545056,.8120663,.3090327,.6181395,.4908646,1.2847329,1.212015,1.5938026,.2011764,.1221336,.3301158,.3347762,.3453917,.5696485-.1090769,1.163524-.2484468,2.321019-.4181466,3.4724111-.0969449,.6423665-.2726738,1.2483739-.4120807,1.8543814,.1049713,.0047714,.1500224-.0215639,.169145-.0400208-.1096687,.3697667-.2243308,.758693-.3448739,1.1490248-.1387411,.4871658,.0401317,1.0092111,.4484396,1.3089599,.4096025,.3791615,1.0126879,.4615333,1.5089527,.2060588-.5878095-.4787696-.9635312-.6726594,.1030479-1.6907846l-.4242126-.2181538,.8120293-.8605203-.4060147-.1515019c.2325051-.1143662,.4572057-.2439343,.6726594-.3878537,.1280516-.1101496,.2708244-.2019532,.4242126-.2727108,.6605644-.1696629,.7575094-.3635897,.4969306-.9695972,.1939268,0,.5150916,.1030109,.6060075,0,.4751818-.450363,.8472787-.9981887,1.0908061-1.6058976,.0685013-.4833931,.4358638-.8702481,.9150772-.9635682,.5938755-.1272749,.7332824-.5332895,.9090112-.9877952,.2060588-.5454215-.042425-1.199883,.4302786-1.6786526,.1851977-.1788358,.3443191-.3828233,.4726666-.6060075,.1817948-.3332967,.3030037-.7514434-.0969449-.9817292Zm-7.7205294-5.6904192l.05452-.1635969-1.5877367-.6544984-.0727179,.2666448c.6423665-.1393699,.9453702,.7575094,1.6059346,.5514505Z"/></svg>