<?xml version="1.0" encoding="UTF-8"?><svg id="Layer_1" xmlns="http://www.w3.org/2000/svg" width="24" height="24" viewBox="0 0 24 24"><path d="M12,5.8079834c.9411011,0,1.7039795-.7628784,1.7039795-1.7039795s-.7628784-1.7040405-1.7039795-1.7040405-1.7039795,.7629395-1.7039795,1.7040405,.7628784,1.7039795,1.7039795,1.7039795Zm3.59198,3.4240112c0-1.9360352-1.7199707-2.9840088-3.5999756-2.9840088s-3.59198,1.0559692-3.59198,2.9840088v4.2080078c-.0088501,.4196167,.3241577,.7669678,.7438354,.7758179,.0053711,.0001221,.0107422,.0001831,.0161133,.0001831,.4240112,0,.7120361-.3439941,.7120361-.776001v-3.7839966c0-.1360474,.2479858-.1360474,.2479858,0v11.0960083c-.0003662,.4727173,.3826294,.8562622,.8553467,.8566284,.4727783,.0003052,.8563232-.3826294,.8566284-.8554077v-6.5212402c0-.0883789,.0716553-.1600342,.1600342-.1600342s.1599731,.0716553,.1599731,.1600342v6.5200195c-.0003052,.4727173,.3826294,.8562622,.8554077,.8566284,.4727173,.0003052,.8562622-.3826294,.8566284-.8554077V9.6560059c0-.1360474,.2559814-.1360474,.2559814,0v3.7839966c0,.4240112,.2960205,.776001,.7200317,.776001,.4152832-.0042114,.7485352-.3442993,.7443237-.7595825-.000061-.0054932-.0001831-.0109863-.0003662-.0164185l.0079956-4.2080078Z"/></svg>