<svg id="Layer_1" data-name="Layer 1" xmlns="http://www.w3.org/2000/svg" viewBox="0 0 24 24"><title>E1X_ico_font</title><path id="Path_79" data-name="Path 79" d="M6.76,7.55A2.19,2.19,0,0,0,4.57,9.74a2.05,2.05,0,0,0,.64,1.53,2.11,2.11,0,0,0,1.55.64,2.12,2.12,0,0,0,1.56-.64A2.05,2.05,0,0,0,9,9.74H9v0H9A2.17,2.17,0,0,0,6.79,7.55Zm4.66,7.73h6.09V14.06h-6.1Zm6.09-5.54h-6.1v1.17h6.1ZM11.41,13h8V11.82h-8ZM19.8,4.93H4.24a2.1,2.1,0,0,0-1.55.64,2.12,2.12,0,0,0-.64,1.56h0V16.7a2.08,2.08,0,0,0,.64,1.56,2.11,2.11,0,0,0,1.55.64H19.8A2.19,2.19,0,0,0,22,16.71h0V7.13a2.2,2.2,0,0,0-2.19-2.2ZM21,16.7a1.2,1.2,0,0,1-1.2,1.2H4.24a1.19,1.19,0,0,1-.84-.35,1.13,1.13,0,0,1-.35-.85v-.42h8.08V15.19c0-.72-.54-1.26-1.63-1.63A9.15,9.15,0,0,0,6.76,13a6.63,6.63,0,0,0-2,.3,7.56,7.56,0,0,0-1.76.8l0,0v-7a1.15,1.15,0,0,1,.35-.84,1.13,1.13,0,0,1,.84-.35H19.8A1.2,1.2,0,0,1,21,7.13h0Zm-9.59-8h8V7.48h-8Z"/></svg>