<?xml version="1.0" encoding="UTF-8"?><svg id="Layer_1" xmlns="http://www.w3.org/2000/svg" width="24" height="24" viewBox="0 0 24 24"><path d="M7.4249878,10.8710327l.0004883-.0012817-.0003052,.0007935-.0001831,.0004883Zm14.4797363-2.1343384l-3.9786377-3.999939c-.0618286-.0621948-.1467896-.097229-.234436-.0966797-.0876465,.0004883-.1723022,.036499-.2333374,.0993652l-1.0074463,1.0365601h-5.0986328v.000061h-.0008545v-.0001221l-.0068359,.0001221v.0005493c-.3688354,.0018311-.722168,.1491089-.9822388,.4108276l.0006714-.0006714-.2818604,.2817993-2.4573975-1.0262451-1.0848999-1.0848999c-.0619507-.0619507-.1445923-.0961304-.2322388-.0960693-.0875854,.000061-.1702271,.0344238-.2320557,.0965576l-3.9786377,3.9946289c-.1278687,.1282959-.1278076,.3346558,0,.4630127l2.9951172,3.0056152c.3048706,.7271729,.6744385,1.4244995,1.0952759,2.0911865-.3140869,.4937134-.4901123,1.0633545-.4901123,1.651001l.000061,.026123c0,.001709,.0015259,.0030518,.0015259,.0048218-.000061,.0025635-.0015259,.0049438-.0015259,.0075684v.0053711c.0001831,.7072754,.5006104,1.2966309,1.1665649,1.4341431,.1339111,.6724854,.7247314,1.1771851,1.4331055,1.1773682l.0202026-.0001221c.0698853-.0008545,.1350098-.0291748,.1904907-.0709229,.0314941,.0627441,.0634766,.125,.1032715,.1821899,.2625732,.3926392,.7092896,.6513062,1.217041,.6514282,.0689087,0,.1325073-.0272217,.1878662-.0668945,.2380371,.4864502,.7327881,.8240356,1.310791,.8242188,.0018311,0,.003479-.0010376,.0053711-.0010986,.0036621,.000061,.007019,.0010986,.0106201,.0010986,.0325317,0,.0617676-.0126953,.0919189-.0217285,.0065308-.0023193,.0137329-.0020752,.0201416-.0047607,.0111694-.0041504,.0236816-.0026855,.0346069-.0081787,.2988892-.1494751,.6125488-.3016357,.9240723-.4620972l.1386719,.0653687,.1398926,.0313721h.006958c.5787354-.0030518,1.0727539-.343689,1.3081055-.8320923,.0583496,.0458984,.1275635,.0754395,.2026978,.0747681,.5811768-.0056763,1.0765991-.3491821,1.3122559-.8406372,.0582886,.0476685,.128479,.0780029,.2046509,.0780029h.0016479c.7072754-.0037231,1.2949829-.5058594,1.4320068-1.1720581,.6692505-.1378784,1.1715088-.7296143,1.1716919-1.4385376v-.006897c0-.0001221-.000061-.0001831-.000061-.0002441-.0012817-.4328003-.0976562-.8579102-.272522-1.2523193,.3253784-.5621338,.6141357-1.1444702,.8590088-1.7460938l2.9874268-3.0031738c.1270142-.1277466,.1270142-.3348999,0-.4626465Zm-14.8684082,7.6665649c-.3480835-.0544434-.6201782-.3287354-.6720581-.6775513l.6500244-.6546631-.0002441,.0003052,1.1359863-1.1412964,.0020142-.0020142c.0922241-.0940552,.2113647-.1399536,.3335571-.1403198,.1188354,.0003662,.2345581,.0435791,.3261719,.1329956l.0098877,.0098877,.0004883,.0004883c.0942993,.0941162,.1401367,.2145996,.1405029,.3381958-.0003662,.1207886-.0453491,.2380981-.1356201,.331543l-.3845825,.3864136-.0003052,.0003052-.7508545,.7561646-.0061646,.0061646-.0003052,.0003052-.6484985,.6530762Zm1.4058228,.8562622c-.0115967,.0117188-.0172119,.0272827-.0268555,.0404053l-.2288208,.2304688c-.3499146-.0479736-.6271973-.317627-.6846313-.664978l.6484985-.6530151-.0003052,.0003052,1.1360474-1.1413574-.0011597,.0010986,.0023804-.0023804,.0012207-.0011597c.0029907-.0029907,.0049438-.0067139,.0079346-.0097656l.741394-.7449341c.0932617-.088623,.2098389-.1315308,.3291016-.1318359,.1270142,.0003662,.2507324,.0488281,.3452759,.147644,.0886841,.0930786,.1318359,.210083,.1322021,.3297119-.0003052,.1038818-.0396729,.2028198-.1062622,.2887573l-.781189,.7855835-.0001831,.0001221-1.5146484,1.5253296Zm1.244812,1.0317993c-.2194214-.0343018-.4091187-.1548462-.5326538-.328064-.0681152-.102417-.1101074-.2220459-.1256104-.3500977l1.0149536-1.0220947-.0003052,.0003052,1.1360474-1.1413574,.0036621-.0037842c.0217896-.022583,.0377197-.0485229,.057312-.0724487l.1311035-.131897,.0003052-.0003052c.0931396-.0936279,.2126465-.1392822,.335083-.1396484,.1212158,.0003662,.2391968,.0449829,.3320312,.1366577,.0932007,.0973511,.1387939,.2199707,.1391602,.3453979-.0003662,.1256104-.0460205,.2484741-.1394043,.3457642l-.9450073,.9449463-.0007935,.0008545-1.4058838,1.4157715Zm2.9408569-.6574097l-.0189209,.0187988-.0011597,.0012207-.6768799,.6800537-.1039429-.0540161,.0779419,.0801392-.4331055,.4351196-.0010986,.0010986-.2682495,.2720337c-.345459-.06073-.6122437-.3395386-.6582031-.6898193l.2559814-.2559814,.0010986-.0010986,1.1359863-1.1466675,.0031128-.0032349c.0945435-.0977783,.2175293-.1456299,.343689-.1460571,.1203613,.0003662,.2376709,.0437622,.3311768,.133667,.0421753,.0407715,.0707397,.0886841,.0945435,.1380005,.0028076,.0322876,.0061646,.0646973,.0184937,.0951538,.0037842,.0092773,.0115356,.0164185,.0161133,.0253296,.005249,.0286255,.0168457,.0560303,.0169678,.0853271-.0003662,.1200562-.0437622,.2373047-.1335449,.3309326Zm4.3623047-1.6257324l-4.3973999-4.4182739c-.1278687-.128418-.3355103-.1288452-.4638672-.0010376-.128418,.1278076-.1289062,.3354492-.0010986,.4638672l4.3939819,4.4147949c-.0513916,.3498535-.3237915,.6260986-.6727905,.6820068l-4.3913574-4.4172974-.0006714-.0007324-.000061-.000061c-.0025635-.0025635-.0060425-.0033569-.008667-.0057983-.0289307-.0272827-.0615845-.050354-.0980225-.0655518-.0396118-.0164795-.081604-.0249634-.1238403-.0252075-.0003662,0-.0006714-.0002441-.0010376-.0002441h-.000061c-.0425415-.0001831-.0849609,.0083008-.125,.0246582-.0397949,.0162964-.0764771,.0401001-.1072388,.0706787-.0307007,.0305786-.0548096,.0670166-.0713501,.1066895-.0166016,.039917-.0252686,.0823364-.0253906,.124939v.000061c0,.0006714,.0003662,.0012817,.0003662,.0019531,.0001221,.0419312,.0082397,.0837402,.024292,.1231689,.0147095,.0358276,.0373535,.0678711,.0637207,.0965576,.0029297,.0031738,.0038452,.0073853,.006897,.010498l4.0097656,4.0356445c-.0529175,.3490601-.3245239,.6243896-.6726685,.6820068l-.2651367-.2675171c-.0016479-.001709-.0021973-.0041504-.0039062-.0058594l-.7129517-.7177124c-.0571289-.1590576-.1467285-.3088989-.276062-.4334717-.1273193-.1229248-.2781372-.2059937-.4366455-.2575684,.1317139-.1947632,.2003784-.4202881,.2000732-.6453857,.0003662-.2876587-.1080933-.5780029-.3228149-.8008423l-.0047607-.0048218-.0046387-.0046387-.0004883-.0004883c-.2191162-.2177734-.5084229-.3276367-.7944336-.3272705-.0750122-.000061-.1500854,.0081787-.2241821,.0232544-.0366821-.2154541-.1346436-.4233398-.2959595-.5921631-.2218018-.232605-.5220947-.3510742-.8197632-.350647-.2802734-.0003662-.5640259,.1047363-.7825928,.3137207l-.0059204,.0057983-.0324097,.0325317c-.0552979-.1503906-.1405029-.2923584-.2610474-.4121704l.0005493,.0004883-.0122681-.012207-.0024414-.0024414c-.2175903-.2133179-.5031128-.3207397-.7852173-.3203735-.2902832-.0003662-.583374,.1134644-.8024292,.3375244l-.6051636,.6079712c-.0750732-.1077881-.1530762-.2148438-.2250366-.3240967-.4651489-.7109985-.8624878-1.4639282-1.1869507-2.2490845l-.0708008-.1062012-2.8039551-2.8139038,3.5161133-3.5302734,.8982544,.8982544,.1055298,.0707397,2.2722778,.9490356-.7404785,.7404175-.0022583,.0021973c-.128418,.1310425-.2294312,.2862549-.2978516,.4564209l-.0003662-.0001221-1.1146851,2.6932983-.0018921,.0046997-.0004272,.0011597,.0004272-.0010986c-.0284424,.0713501-.0421143,.1462402-.0420532,.2193604-.0003662,.2352295,.1409912,.456543,.37146,.5505981l-.0002441,.0005493,.0106812,.0043945,.0010986,.0004883c.204834,.0837402,.418396,.1238403,.6280518,.1238403,.4404297,.0001831,.8623657-.1795044,1.1734009-.4907837,.1505127-.149292,.2775879-.3267822,.3646851-.5343628l.0007324-.0016479,.0043945-.0106812,.0002441-.0006714,.631897-1.5411987,.4961548-.5098267,1.5905151,1.6040649c.0053711,.0074463,.0079346,.0162354,.013916,.0232544,.012146,.0142212,.0293579,.0230103,.0438232,.0349731l4.3673096,4.4046021c.0001221,.0001221,.0003662,.0001831,.0005493,.0003662,.0001221,.0001831,.0002441,.0004272,.0004272,.0006104l.5800781,.5800781c-.0515137,.3496704-.3239136,.6257324-.6729126,.6815186Zm1.4202271-4.2261963l-.0718994,.1092529c-.2594604,.6470947-.5689087,1.2729492-.9255371,1.8720703-.0495605,.0797119-.1013184,.15448-.151062,.2319946l-3.2155762-3.242981c.109375,.0101929,.2188721,.019104,.328186,.019104,.4102783,.000061,.8170166-.0755615,1.2033691-.2156982-.1401367,.3862305-.2175903,.7958984-.2175903,1.2144775v.0093994c0,.0154419,.0067749,.0287476,.0089111,.0436401,.0039062,.027771,.0059814,.0560303,.0167236,.081665,.0095825,.0228271,.0261841,.0409546,.0404053,.0608521,.0103149,.0144043,.0164795,.031189,.0291748,.0440063,.0003052,.0003052,.0007324,.0003662,.0010986,.0006714,.0297241,.0297852,.0651855,.053772,.1044312,.0704346,.0396729,.0166626,.0825806,.0256958,.12677,.0257568,.0441895,.0001221,.0870972-.0088501,.1268311-.0254517,.0393066-.0164795,.0748291-.0404053,.1046753-.0700684,.0003052-.0003052,.0007324-.0003662,.0010376-.0007324,.0127563-.0127563,.019043-.029541,.0293579-.0439453,.0142822-.0198364,.0308838-.0378418,.0405273-.0606689,.0107422-.0253906,.0128174-.0534058,.0167847-.0810547,.0022583-.0150757,.0091553-.0285034,.0092163-.0442505,.0043945-.7733765,.3165283-1.5133667,.8675537-2.0560913l-.0001831-.0001831c.0011597-.0010986,.0023804-.0020142,.003479-.0031738,.1265259-.1282349,.1258545-.3347778-.0014648-.4622192-.0673828-.0673828-.1566772-.0969238-.2450562-.0933838-.0050659-.0001831-.0098267-.0028076-.0148926-.0027466-.0005493,0-.0009766,.0003052-.0015259,.0003052-.041748,.0003662-.083374,.0085449-.1225586,.0247192-.0348511,.0144043-.0658569,.0370483-.0942383,.0630493-.0039673,.0036011-.0091553,.0048218-.0130005,.008667-.5521851,.5552979-1.2893677,.8468628-2.0375366,.8469849-.4168701,0-.8355103-.0936279-1.2285156-.2799683l-1.8311157-1.8466797c-.0617065-.0622559-.1467896-.0974731-.234436-.0971069-.0876465,.0004272-.1724243,.036438-.2335205,.0992432l-.7786255,.8000488-.0684814,.1043091-.6559448,1.5999756-.0001831,.0003662c-.0517578,.1270142-.1323853,.2303467-.2235107,.3217773-.1880493,.1858521-.4379272,.2979126-.7023315,.2980957-.1112671,0-.2233887-.022644-.3340454-.0618896l1.0811157-2.6195679,.0014648-.00354,.0016479-.0040283c.0362549-.0910034,.09021-.1738281,.1588135-.2437744l1.0643921-1.0643921c.0057983-.0058594,.0078735-.0136719,.0131226-.0197754,.0008545-.0007935,.0020752-.0007324,.0028687-.0015259l.4373779-.4373779,.0006714-.0006714c.1386719-.1395264,.3272095-.2179565,.5238647-.2179565h.0004272l.0004272,.0001221h5.2373047c.0888672,0,.1732788-.0357666,.2352295-.0994263l.87146-.8967896,3.5133057,3.5321045-2.7991943,2.8140259Z"/></svg>