<svg id="Layer_1" data-name="Layer 1" xmlns="http://www.w3.org/2000/svg" viewBox="0 0 24 24"><title>E1X_ico_font</title><path d="M19.75,12.17v-7l-3-3L14,3.57H9.75V2.32H6.37L2.25,6.43V18.2l1.62,1.62H6.73l3.6-1.2.83.41a5.74,5.74,0,0,0,5.09,3A5.62,5.62,0,0,0,22,16.52,5.4,5.4,0,0,0,19.75,12.17ZM3.5,7,6.88,3.57H8.5v6.57l-5,4Zm7,9.57a5.57,5.57,0,0,0,.07.83l-.17-.08-3.9,1.3H4.38l-.88-.89V15.74l2.72-2.17h5.2A5.27,5.27,0,0,0,10.52,16.52Zm.88-4.2H7.78l2-1.58V4.82h4.52L16.5,3.7l2,2v.7ZM18.5,8v3.43A6,6,0,0,0,16.25,11a5.82,5.82,0,0,0-1.62.23Zm1.41,11.24-.7.71-2.8-2.8L13.62,20l-.71-.71,2.8-2.79-2.8-2.8.71-.7,2.79,2.79L19.21,13l.7.7-2.79,2.8Z"/></svg>