<svg id="Layer_1" data-name="Layer 1" xmlns="http://www.w3.org/2000/svg" viewBox="0 0 24 24"><title>E1X_ico_font</title><path d="M13.09,15.27a.22.22,0,0,0,.22-.21V11.89a.22.22,0,0,0-.43,0v3.17A.2.2,0,0,0,13.09,15.27Zm-1.09,0a.23.23,0,0,0,.22-.21V11.89a.22.22,0,0,0-.44,0v3.17A.21.21,0,0,0,12,15.27Zm7.94-8H13.17l-.91-1.82A.29.29,0,0,0,12,5.25H5.05a.3.3,0,0,0-.26.17l-1,2s0,0,0,.06,0,0,0,.06V18.45a.3.3,0,0,0,.29.3H19.94a.3.3,0,0,0,.29-.3V7.53A.29.29,0,0,0,19.94,7.24ZM5.23,5.84h6.59l.69,1.4h-8ZM19.64,18.16H4.35V7.83H19.64Zm-8.55-9a.64.64,0,0,0-.64.65v.33H8.69a.22.22,0,0,0,0,.43h.72V16a.82.82,0,0,0,.79.78h3.6a.82.82,0,0,0,.79-.79v-5.4h.72a.22.22,0,0,0,0-.43H13.55V9.85a.64.64,0,0,0-.64-.65Zm3.07,1.41V16a.39.39,0,0,1-.36.38H10.2A.39.39,0,0,1,9.84,16v-5.4Zm-1.05-.76v.33H10.88V9.85a.22.22,0,0,1,.21-.22h1.8A.22.22,0,0,1,13.11,9.85Zm-2.2,5.42a.22.22,0,0,0,.21-.21V11.89a.22.22,0,0,0-.43,0v3.17A.2.2,0,0,0,10.91,15.27Z"/></svg>