<svg id="Layer_1" data-name="Layer 1" xmlns="http://www.w3.org/2000/svg" viewBox="0 0 24 24"><title>E1X_ico_font</title><path d="M4.12,10.12a.63.63,0,0,0-.62.63.63.63,0,1,0,.62-.63Zm14.38.2V6.06C18.5,3.27,14,2,9.75,2S1,3.27,1,6.06V17.94C1,20.73,5.53,22,9.75,22a19.5,19.5,0,0,0,3-.22A6.5,6.5,0,1,0,18.5,10.32Zm-2.91,2.16V11.2h2v1.28Zm2,1v1.31h-2V13.48ZM9.75,3.25c4.14,0,7.5,1.26,7.5,2.81s-3.36,2.82-7.5,2.82-7.5-1.27-7.5-2.82S5.61,3.25,9.75,3.25ZM2.25,14.19V11.85c1.29,1.33,4.41,2,7.5,2l.82,0A6.53,6.53,0,0,0,10,16.5,3.91,3.91,0,0,0,10,17H9.75c-4.14,0-7.5-1.25-7.5-2.79v0Zm7.5,6.56c-4.14,0-7.5-1.26-7.5-2.81V15.6c1.29,1.33,4.41,2,7.5,2h.35a6.51,6.51,0,0,0,1.42,3.05C11,20.72,10.36,20.75,9.75,20.75Zm1.15-7.54c-.38,0-.76,0-1.15,0-4.14,0-7.5-1.25-7.5-2.79v0h0V8.29c1.64,1.25,4.64,1.83,7.5,1.83s5.86-.58,7.5-1.83v1.76A6.3,6.3,0,0,0,16.5,10,6.49,6.49,0,0,0,10.9,13.21Zm5.69,9-4.45-4.45,1.41-1.42,2,2V15.78h2v2.59l2.07-2.05,1.41,1.41ZM4.12,17.62a.63.63,0,0,0-.62.63.63.63,0,1,0,.62-.63Zm0-2.5a.63.63,0,0,0,.63-.62.63.63,0,1,0-.63.62Z"/></svg>