<svg id="Layer_1" data-name="Layer 1" xmlns="http://www.w3.org/2000/svg" viewBox="0 0 24 24"><title>E1X_ico_font</title><path id="Union_4" data-name="Union 4" d="M11.38,22V19.48a7.53,7.53,0,0,1-6.85-6.85H2V11.38H4.52a7.53,7.53,0,0,1,6.85-6.85V2h1.25V4.53a7.51,7.51,0,0,1,6.85,6.84H22v1.25H19.47a7.51,7.51,0,0,1-6.85,6.85V22Zm2.12-8.5a7.87,7.87,0,0,1,1.64.47,4.67,4.67,0,0,1,1.33.77,1.52,1.52,0,0,1,.53,1,6.25,6.25,0,1,0-10,0,1.47,1.47,0,0,1,.53-1A4.58,4.58,0,0,1,8.87,14a8.43,8.43,0,0,1,1.65-.47,9.3,9.3,0,0,1,1.5-.15A8.27,8.27,0,0,1,13.5,13.5Zm-3.27-2.15A2.39,2.39,0,0,1,9.5,9.58,2.49,2.49,0,0,1,12,7.08a2.49,2.49,0,0,1,2.5,2.5,2.51,2.51,0,0,1-2.5,2.5,2.39,2.39,0,0,1-1.77-.73Z"/></svg>