<svg id="Layer_1" data-name="Layer 1" xmlns="http://www.w3.org/2000/svg" viewBox="0 0 24 24"><title>E1X_ico_font</title><path d="M17.83,12.23a.88.88,0,0,0-.63.27l-.25.24L18.21,14l.26-.25a.88.88,0,0,0,.26-.64.86.86,0,0,0-.26-.63A.93.93,0,0,0,17.83,12.23ZM2,2V22H22V2ZM9.5,3h5V9h-5Zm0,7h5v.06A5.57,5.57,0,0,0,9.63,15H9.5Zm-1,11H3V16H8.5Zm0-6H3V10H8.5Zm6,6h-5V16h.13a5.57,5.57,0,0,0,4.87,4.94Zm-.18-2.3L12,19.38H11.9a.34.34,0,0,1-.24-.1.34.34,0,0,1-.09-.33l.69-2.34a.86.86,0,0,1,.2-.33L16.72,12a1.56,1.56,0,0,1,2.21,2.21L14.66,18.5A.66.66,0,0,1,14.32,18.7ZM21,21H15.5A5.61,5.61,0,0,0,21,16h0Zm0-6h0a5.61,5.61,0,0,0-5.47-5H21Zm0-6H15.5V3H21Zm-7.85,7.54,1.26,1.27,3.32-3.32-1.26-1.27Zm-.76,2,1.42-.42-1-1Z"/></svg>