<svg id="Layer_1" data-name="Layer 1" xmlns="http://www.w3.org/2000/svg" width="24" height="24" viewBox="0 0 24 24"><path d="M12,16.57446a.53218.53218,0,1,0-.53571-.52862v.00073A.53784.53784,0,0,0,12,16.57446Zm8.33331-12.568H3.66669A1.67307,1.67307,0,0,0,2,5.66461V15.98773a1.66958,1.66958,0,0,0,1.66669,1.66669H9.449v1.79419H7.29761a.27246.27246,0,0,0,0,.54492h9.40478a.27249.27249,0,1,0-.00854-.54492H14.551V17.65442h5.78228A1.67307,1.67307,0,0,0,22,15.99622V5.6731A1.66958,1.66958,0,0,0,20.33331,4.00641Zm-6.318,15.4422H9.99323V17.65442h4.02209Zm7.44049-3.45307v.00068a1.12106,1.12106,0,0,1-1.1225,1.11962H14.551v-.00567H9.449v.00567H3.66455a1.12107,1.12107,0,0,1-1.12036-1.11962v-.92615H21.45581Zm0-1.47039H2.54419V5.67029a1.12108,1.12108,0,0,1,1.1225-1.11963V4.54218H20.33618a1.121,1.121,0,0,1,1.11963,1.12243Z"/></svg>