<svg id="Layer_1" data-name="Layer 1" xmlns="http://www.w3.org/2000/svg" viewBox="0 0 24 24"><path d="M11.99546,2.00681A9.97987,9.97987,0,0,0,3.3479,16.99536L2.04681,20.89447a.8327.8327,0,0,0,1.05336,1.05336l3.89911-1.30109A9.99237,9.99237,0,1,0,11.99546,2.00681Zm0,18.31934a8.29367,8.29367,0,0,1-4.44452-1.29484.83264.83264,0,0,0-.44549-.12907.81581.81581,0,0,0-.2623.04372l-2.6917.89723.89724-2.69169a.83271.83271,0,0,0-.08536-.7078,8.327,8.327,0,1,1,7.03213,3.88245Z"/><circle cx="11.94012" cy="12" r="1.19768"/><circle cx="7.14941" cy="12" r="1.19768"/><circle cx="16.73082" cy="12" r="1.31744"/></svg>