<svg id="Layer_1" data-name="Layer 1" xmlns="http://www.w3.org/2000/svg" xmlns:xlink="http://www.w3.org/1999/xlink" viewBox="0 0 24 24"><defs><style>.cls-1{fill:none;}.cls-2{clip-path:url(#clip-path);}</style><clipPath id="clip-path"><rect class="cls-1" width="24" height="24"/></clipPath></defs><title>E1X_ico_font</title><g id="ico_view_0"><g class="cls-2"><g class="cls-2"><path d="M22,12v0h0v0h0a.75.75,0,0,0-.21-.41,15.24,15.24,0,0,0-2.17-2A13.89,13.89,0,0,0,14,6.55,9.45,9.45,0,0,0,10.3,6.5,11.52,11.52,0,0,0,7.12,7.62a17.24,17.24,0,0,0-4.24,3.14c-.23.23-.46.46-.67.71a.77.77,0,0,0,0,1.05,15.2,15.2,0,0,0,2.17,2A13.92,13.92,0,0,0,10,17.45a9.45,9.45,0,0,0,3.65,0,11.54,11.54,0,0,0,3.18-1.12,17.28,17.28,0,0,0,4.24-3.14c.23-.23.46-.46.67-.71a.76.76,0,0,0,.21-.41h0v0h0V12s0,0,0,0M12,15.85A3.85,3.85,0,1,1,15.85,12,3.85,3.85,0,0,1,12,15.85m0-5.12A1.27,1.27,0,1,0,13.27,12,1.27,1.27,0,0,0,12,10.73"/></g></g></g></svg>