<svg id="Layer_1" data-name="Layer 1" xmlns="http://www.w3.org/2000/svg" viewBox="0 0 24 24"><title>E1X_ico_font</title><g id="ico_map_tools_theme"><path d="M20,16H16.61l3.46-1.75A2,2,0,0,0,21,11.57l-.9-1.79a2,2,0,0,0-1.79-1.1,1.89,1.89,0,0,0-.89.22l-3.9,2L16,7.31a2,2,0,0,0-.47-2.79L13.9,3.36A2,2,0,0,0,12.75,3a2,2,0,0,0-1.64.84L8,8.2V4A2,2,0,0,0,6,2H4A2,2,0,0,0,2,4V22H20a2,2,0,0,0,2-2V18a2,2,0,0,0-2-2M3,4A1,1,0,0,1,4,3H6A1,1,0,0,1,7,4V9.61L3,15.23Zm.63,12L11.9,4.39A1,1,0,0,1,12.75,4a1.09,1.09,0,0,1,.6.19L15,5.3a1,1,0,0,1,.25,1.45l-3.59,5-7.2,3.63a2,2,0,0,0-.68.58ZM9,21H4V17H9Zm6,0H10V17h5Zm-.53-5h-9L17.8,9.76a.92.92,0,0,1,.46-.11,1,1,0,0,1,.93.57L20.1,12a1.05,1.05,0,0,1-.46,1.4ZM21,20a1,1,0,0,1-1,1H16V17h4a1,1,0,0,1,1,1Z"/></g></svg>