<svg id="Layer_1" data-name="Layer 1" xmlns="http://www.w3.org/2000/svg" viewBox="0 0 24 24"><title>E1X_ico_font-220</title><path d="M19.75,12.17v-7l-3-3L14,3.57H9.75V2.32H6.37L2.25,6.43V18.2l1.62,1.62H6.73l3.6-1.2.83.41a5.74,5.74,0,0,0,5.09,3A5.62,5.62,0,0,0,22,16.52,5.4,5.4,0,0,0,19.75,12.17ZM3.5,7,6.88,3.57H8.5v6.57l-5,4Zm7,9.57a5.57,5.57,0,0,0,.07.83l-.17-.08-3.9,1.3H4.38l-.88-.89V15.74l2.72-2.17h5.2A5.27,5.27,0,0,0,10.52,16.52Zm.88-4.2H7.78l2-1.58V4.82h4.52L16.5,3.7l2,2v.7ZM18.5,8v3.43A6,6,0,0,0,16.25,11a5.82,5.82,0,0,0-1.62.23ZM16.27,19.81a.66.66,0,0,1-.34.2l-2.33.68h-.09a.34.34,0,0,1-.24-.1.34.34,0,0,1-.09-.33l.69-2.34a.86.86,0,0,1,.2-.33l4.26-4.27a1.55,1.55,0,0,1,2.21,0,1.56,1.56,0,0,1,0,2.21ZM14,19.87l1.42-.42-1-1Zm.76-2L16,19.12l3.32-3.32-1.26-1.27Zm4.68-4.31a.86.86,0,0,0-.63.27l-.25.24,1.26,1.27.26-.25a.88.88,0,0,0,.26-.64.9.9,0,0,0-.26-.64A1,1,0,0,0,19.44,13.54Z"/></svg>