<svg id="Layer_1" data-name="Layer 1" xmlns="http://www.w3.org/2000/svg" viewBox="0 0 24 24"><title>E1X_ico_font</title><path d="M16.33,20.77l1.06-.31-.75-.76ZM9.27,19.5h0V5.73h0l.2,0,5.28-1.18h0V15.34a5,5,0,0,1,.92-.86V4.71l4.58,1V13.9a4.65,4.65,0,0,1,.92.46V5L14.75,3.57,9.27,4.8,2.83,3.35V19l6.44,1.45,4.4-1a4.63,4.63,0,0,1-.1-.92Zm-.94-.21-4.58-1V4.5l4.58,1Zm8.57,0,1,.94,2.48-2.49-.94-.94Zm1.61-4.94a4.19,4.19,0,1,0,4.19,4.19A4.19,4.19,0,0,0,18.51,14.32Zm2.72,3.2L18,20.72a.47.47,0,0,1-.25.15L16,21.39H16a.26.26,0,0,1-.18-.07.26.26,0,0,1-.06-.25l.51-1.75a.61.61,0,0,1,.15-.26l3.19-3.2a1.17,1.17,0,0,1,1.66,1.66ZM20.41,16a.69.69,0,0,0-.48.2l-.18.19.95.94.19-.18a.69.69,0,0,0,.19-.48.71.71,0,0,0-.19-.48A.75.75,0,0,0,20.41,16Z"/></svg>