<svg id="Layer_1" data-name="Layer 1" xmlns="http://www.w3.org/2000/svg" width="24" height="24" viewBox="0 0 24 24"><path d="M12.00638,11.42026h.01049A2.67147,2.67147,0,1,0,9.34541,8.73754v.012a2.67,2.67,0,0,0,2.66022,2.67h.00075Zm0-4.6312h0a1.95,1.95,0,1,1-1.95,1.95h0a1.94992,1.94992,0,0,1,1.95-1.95Zm8.26714,11.37511a1.72079,1.72079,0,0,0-1.68373,1.37023l-.00225.01125H13.69235V19.5254a1.75052,1.75052,0,0,0-1.329-1.33873l-.01125-.00225V16.64094a.366.366,0,1,0-.732,0h0v1.54348a1.75053,1.75053,0,0,0-1.33873,1.329l-.00225.01125H5.42446a1.7347,1.7347,0,0,0-3.02471-.75449l-.00225.003a1.752,1.752,0,0,0-.36375,1.45348l-.0015-.01124A1.69122,1.69122,0,0,0,3.383,21.57513l.0105.0015a1.68293,1.68293,0,0,0,.32175.0405h.003a1.75346,1.75346,0,0,0,1.33873-.627l.00225-.003A1.72041,1.72041,0,0,0,5.423,20.2469l.00225-.01125H10.3204a1.71956,1.71956,0,0,0,3.3697.01125l.00225-.01125h4.89519a1.724,1.724,0,1,0,1.68823-2.07223h-.003ZM4.511,20.54089a1.01692,1.01692,0,1,1-.783-1.66573h.01125l.03375-.00075a.66681.66681,0,0,1,.174.0225l-.0045-.00075a1.02779,1.02779,0,0,1,.79124.78525l.0015.00675a1.0089,1.0089,0,0,1-.22425.855l.00075-.0015Zm7.49541.36525a1.01549,1.01549,0,1,1,1.01548-1.01549h0v.00975a1.00537,1.00537,0,0,1-1.00573,1.00574h-.00975Zm8.26714-.02025a1.022,1.022,0,0,1-1.01548-.95174v-.1245a1.03661,1.03661,0,0,1,1.01473-.95474h.00375a1.01549,1.01549,0,0,1,0,2.031ZM6.38,10.05977h.60974a5.4453,5.4453,0,0,0,.56249,1.36649L7.53793,11.4l-.447.447a.75995.75995,0,0,0,.00075,1.056l.77174.77174a.75994.75994,0,0,0,1.056-.00075h0l.447-.46725a5.36518,5.36518,0,0,0,1.302.54l.03825.009v.60974a.76307.76307,0,0,0,.75074.75149h1.077a.76307.76307,0,0,0,.75149-.75074v-.60974a5.44524,5.44524,0,0,0,1.36648-.5625l-.02625.01425.447.447a.75995.75995,0,0,0,1.056-.00075l.77174-.77174a.76.76,0,0,0-.00075-1.056h0l-.42675-.447a5.36484,5.36484,0,0,0,.54-1.302l.009-.03825h.60975a.76306.76306,0,0,0,.75149-.75074V8.2118a.76306.76306,0,0,0-.75074-.75149h-.60974a5.44531,5.44531,0,0,0-.5625-1.36649l.01425.02625.447-.447a.76.76,0,0,0-.00075-1.056h0l-.792-.75149a.75995.75995,0,0,0-1.056.00075l-.426.42675a5.36518,5.36518,0,0,0-1.302-.54l-.03825-.009V3.13436a.76307.76307,0,0,0-.75074-.75149h-1.077a.76307.76307,0,0,0-.75149.75074v.60974a5.44524,5.44524,0,0,0-1.36648.5625l.02625-.01425-.447-.42675a.78618.78618,0,0,0-1.077.00075h.00075l-.77174.77174a.75995.75995,0,0,0,.00075,1.056l.44624.447a5.36524,5.36524,0,0,0-.54,1.302l-.009.03825H6.3807a.763.763,0,0,0-.75149.75074v1.077a.763.763,0,0,0,.75074.75149h0Zm-.0405-1.869A.04355.04355,0,0,1,6.38,8.1503h.89623a.34875.34875,0,0,0,.34275-.282V7.86605a4.49843,4.49843,0,0,1,.68024-1.62073l-.00975.01575a.34132.34132,0,0,0-.03975-.447l-.63-.63a.03838.03838,0,0,1-.015-.03075.03949.03949,0,0,1,.015-.03075h0l.77174-.77174a.03838.03838,0,0,1,.03075-.015.03949.03949,0,0,1,.03075.015h0l.63.65025a.34141.34141,0,0,0,.44775.0405l-.00075.00074a4.57265,4.57265,0,0,1,1.57423-.66449l.03075-.00525a.36645.36645,0,0,0,.28424-.345v-.915a.04355.04355,0,0,1,.0405-.0405h1.077a.04355.04355,0,0,1,.0405.0405v.89624a.34935.34935,0,0,0,.282.34274h.00225a4.49838,4.49838,0,0,1,1.62072.68024l-.01574-.00975a.34038.34038,0,0,0,.447-.04049l.63-.63a.03838.03838,0,0,1,.03075-.015.03949.03949,0,0,1,.03075.015h0l.77174.77174a.03838.03838,0,0,1,.015.03075.03949.03949,0,0,1-.015.03075h0l-.63.63a.34137.34137,0,0,0-.0405.44774l-.00075-.00075a4.57254,4.57254,0,0,1,.66449,1.57423l.00525.03075a.36646.36646,0,0,0,.345.28425h.89473a.04354.04354,0,0,1,.0405.04049v1.077a.04355.04355,0,0,1-.0405.0405h-.89623a.34875.34875,0,0,0-.34275.282v.00225a4.63722,4.63722,0,0,1-.681,1.62148l.0105-.01725a.34037.34037,0,0,0,.0405.447l.63.63a.03839.03839,0,0,1,.015.03075.03949.03949,0,0,1-.015.03075h0l-.77174.77174a.03838.03838,0,0,1-.03075.015.03946.03946,0,0,1-.03075-.015h0l-.63-.63a.34138.34138,0,0,0-.44775-.0405l.00075-.00075a4.57227,4.57227,0,0,1-1.57423.66449l-.03075.00525a.36646.36646,0,0,0-.28424.345V14.346a.04355.04355,0,0,1-.0405.0405h-1.077a.04355.04355,0,0,1-.0405-.0405v-.89624a.34875.34875,0,0,0-.282-.34275h-.00225a4.63687,4.63687,0,0,1-1.62148-.681l.01725.0105a.34041.34041,0,0,0-.19575-.06075h-.0105a.33577.33577,0,0,0-.24075.10125l-.63.63a.03838.03838,0,0,1-.03075.015.03949.03949,0,0,1-.03075-.015h0l-.77174-.77174a.03838.03838,0,0,1-.015-.03075.03949.03949,0,0,1,.015-.03075h0l.63-.63a.34137.34137,0,0,0,.0405-.44774l.00075.00075a4.57262,4.57262,0,0,1-.66449-1.57423l-.00525-.03075a.36729.36729,0,0,0-.345-.28425H6.38144A.04354.04354,0,0,1,6.341,9.267h0Z"/></svg>