<svg id="Layer_1" data-name="Layer 1" xmlns="http://www.w3.org/2000/svg" viewBox="0 0 24 24"><title>E1X_ico_font</title><path d="M3.08,2H20.93l.14,6.5H19.33l-.14-1.86a3.19,3.19,0,0,0-.94-2.25,4.09,4.09,0,0,0-2.59-.66,2.48,2.48,0,0,0-1.75.46,2.74,2.74,0,0,0-.47,1.9l0,11.86a2.62,2.62,0,0,0,.47,1.87,2.64,2.64,0,0,0,1.83.46H17V22H7V20.28H8.5a2.22,2.22,0,0,0,1.63-.48A2.7,2.7,0,0,0,10.59,18V6.05a2.68,2.68,0,0,0-.47-1.85,2.55,2.55,0,0,0-1.77-.47,4,4,0,0,0-2.58.66,3.15,3.15,0,0,0-.94,2.25L4.68,8.5H2.93Z"/></svg>