<svg id="Layer_1" data-name="Layer 1" xmlns="http://www.w3.org/2000/svg" viewBox="0 0 24 24"><defs><style>.cls-1{fill:#231f20;}</style></defs><path class="cls-1" d="M4.58,6A1.49,1.49,0,1,0,3.09,4.54,1.49,1.49,0,0,0,4.58,6Zm3,2.23c0-1-2-1.49-3-1.49s-3,.5-3,1.49V9H7.55ZM6.39,15.37v1.32H17V15.37c0-1.76-3.52-2.65-5.29-2.65S6.39,13.61,6.39,15.37Zm8-6.62a2.65,2.65,0,1,0-2.65,2.64A2.65,2.65,0,0,0,14.34,8.75ZM12,2A9.87,9.87,0,0,0,6.81,3.47a2.47,2.47,0,0,1,.25,1A8.9,8.9,0,0,1,12,3a9,9,0,1,1-9,9,8.76,8.76,0,0,1,.23-2h-1A10.2,10.2,0,0,0,2,12,10,10,0,1,0,12,2Z"/></svg>