<svg id="Layer_1" data-name="Layer 1" xmlns="http://www.w3.org/2000/svg" viewBox="0 0 24 24"><defs><style>.cls-1{fill:none;}</style></defs><title>E1X_ico_font</title><rect class="cls-1" width="24" height="24"/><path id="ico-variable" d="M11.26,5.81,8.35,14.41,6,9.56H2.94v1.7H5.11l3.33,6.93L12.22,7.51h8.84V5.81Z"/><path d="M17.08,17h0Zm-5.59-4.55h0ZM14.92,17h0Zm1.66.54h0Zm3.93-3.94h0ZM12.43,11h0Zm3,6.57h0Zm1.16-9h0ZM16,11.61A1.39,1.39,0,1,0,17.39,13,1.39,1.39,0,0,0,16,11.61Zm0,2.16a.77.77,0,1,1,.77-.77A.77.77,0,0,1,16,13.77Zm-.49,2.64h0Zm5-4h0a.59.59,0,0,0-.54-.5h0l-.52,0h0l-.21-.5h0v0h0l.35-.39h0a.57.57,0,0,0,0-.74h0l-.78-.78h0a.57.57,0,0,0-.74,0h0l-.39.35h0l-.5-.21h0v0h0l0-.53a.59.59,0,0,0-.5-.54,4.15,4.15,0,0,0-1.16,0,.59.59,0,0,0-.5.54h0l0,.53h0v0h0l-.5.21h0L14,9.42h0a.57.57,0,0,0-.74,0h0l-.78.78h0a.58.58,0,0,0,0,.74l.35.39h0v0h0l-.21.5h0l-.52,0h0a.59.59,0,0,0-.54.5h0a4.16,4.16,0,0,0,0,1.16h0a.59.59,0,0,0,.54.5h0l.53,0h0l.2.5h0v0h0l-.35.39a.58.58,0,0,0,0,.74h0l.78.78h0a.57.57,0,0,0,.74,0h0l.39-.35h0l.5.21h0v0h0l0,.53a.59.59,0,0,0,.5.54,4.15,4.15,0,0,0,1.16,0,.59.59,0,0,0,.5-.54l0-.53v0h0l.5-.21h0l.39.35h0a.57.57,0,0,0,.74,0h0l.78-.78h0a.58.58,0,0,0,0-.74l-.35-.39h0v0h0l.21-.5h0l.53,0h0a.59.59,0,0,0,.54-.5,4.16,4.16,0,0,0,0-1.16Zm-.6.92v.12h0l-.49,0h0a.63.63,0,0,0-.35.13.64.64,0,0,0-.21.28h0l-.2.48h0a.63.63,0,0,0-.06.26.65.65,0,0,0,.16.43h0l.32.36-.65.65-.36-.32h0a.65.65,0,0,0-.43-.16.62.62,0,0,0-.26.06h0l-.48.2h0a.65.65,0,0,0-.41.56l0,.5h0a4.26,4.26,0,0,1-.46,0l-.34,0h-.12l0-.5a.65.65,0,0,0-.41-.56h0l-.48-.2h0a.62.62,0,0,0-.26-.06.64.64,0,0,0-.43.16h0l-.36.32-.65-.65.32-.36h0a.65.65,0,0,0,.16-.43.63.63,0,0,0-.06-.26h0l-.2-.48h0a.64.64,0,0,0-.21-.28.63.63,0,0,0-.35-.13h0l-.49,0h0a4.25,4.25,0,0,1,0-.46c0-.11,0-.24,0-.34v-.12h0l.49,0a.64.64,0,0,0,.35-.13.64.64,0,0,0,.21-.28h0l.2-.48h0a.63.63,0,0,0,.06-.26.65.65,0,0,0-.16-.43l-.32-.36.65-.65.36.32h0a.64.64,0,0,0,.43.16.63.63,0,0,0,.26-.06h0l.48-.2h0a.65.65,0,0,0,.41-.56h0l0-.5h0a4.24,4.24,0,0,1,.45,0l.34,0h.12l0,.5a.65.65,0,0,0,.41.56h0l.48.2h0a.62.62,0,0,0,.26.06.65.65,0,0,0,.43-.16l.35-.32.65.65-.32.36h0a.65.65,0,0,0-.16.43.63.63,0,0,0,.06.26h0l.2.48h0a.65.65,0,0,0,.56.41l.49,0h0a4.27,4.27,0,0,1,0,.46C19.93,13.11,19.92,13.24,19.91,13.34ZM15.42,8.48h0Zm1.07,1.11h0ZM17.08,9h0Z"/></svg>