<svg id="Layer_1" data-name="Layer 1" xmlns="http://www.w3.org/2000/svg" width="24" height="24" viewBox="0 0 24 24"><path d="M21.98871,11.76239c-.00592-.25055-.014-.501-.0387-.75067-.00525-.05328-.01452-.10516-.02063-.1582-.01483-.12677-.03723-.25318-.05707-.38013-.022-.143-.03814-.28644-.06634-.42847-.02911-.1466-.06964-.28863-.105-.43292-.01636-.06641-.02185-.13294-.03968-.19934-.01263-.04712-.03015-.09149-.04339-.13825-.01685-.05963-.0318-.11944-.04974-.17877-.02759-.09112-.06092-.17932-.091-.26929-.048-.14349-.09808-.28533-.152-.42529-.02935-.07623-.056-.153-.08734-.22864-.027-.06506-.057-.12829-.08532-.19268-.06629-.15119-.13758-.29871-.2107-.44526-.0415-.08306-.07983-.167-.12378-.24908-.01934-.03619-.03918-.072-.059-.10791-.10083-.18329-.20984-.36-.3211-.53522-.039-.06128-.0744-.124-.11481-.18463a9.92073,9.92073,0,0,0-.59918-.80859c-.01538-.01862-.03235-.03583-.04779-.05432q-.26432-.31605-.55231-.60761l-.01038-.01141c-.01489-.01508-.02728-.0318-.04229-.04682-.01435-.01434-.03022-.02612-.04462-.04034-.025-.02466-.05255-.04633-.07776-.07068-.154-.14868-.3114-.29285-.47424-.431-.0459-.03906-.08875-.0813-.13538-.11957-.04883-.0401-.1001-.0755-.14953-.11456-.1344-.10571-.2721-.2063-.4115-.30493-.07563-.05371-.148-.11139-.22516-.163-.0434-.029-.08746-.05652-.13117-.08477-.12841-.08277-.26165-.15729-.39367-.23414-.10511-.06134-.2071-.12689-.31458-.18444-.12762-.06824-.25885-.126-.38873-.18836-.12317-.05914-.24408-.1228-.36963-.17694-.04279-.01849-.08575-.0365-.12891-.05444-.11206-.04639-.22638-.084-.33972-.126-.12506-.04663-.24945-.09436-.37646-.136-.06909-.02258-.13715-.04693-.20685-.068-.0835-.02521-.168-.04444-.25208-.06751q-.21945-.0606-.44171-.1109c-.08545-.01935-.16931-.04223-.25555-.05932-.053-.0105-.10626-.01776-.15943-.02741-.18981-.03473-.38153-.06079-.574-.08453-.07819-.00952-.15454-.02429-.23328-.032-.02453-.00238-.04919-.00409-.07379-.00629-.29986-.02753-.60174-.04456-.906-.04456-.01185,0-.02387.00226-.03571.00232q-.48.00138-.9585.04846c-.06878.00672-.13562.01941-.204.02753-.09033.01093-.18042.02759-.27087.04108-.16412.02417-.32874.043-.49176.07532-.16821.03332-.33136.07952-.49646.12121l-.0022.00055c-.04553.01154-.09106.01495-.13659.02716-.03009.00806-.05835.01941-.08832.02771-.07526.02088-.151.03845-.22583.061-.11463.03473-.22534.07739-.3382.11609-.10241.035-.204.0708-.30462.10882-.09339.0354-.18763.0669-.28009.10516-.08173.03388-.16065.07251-.24122.10846-.11364.05048-.22448.1048-.33551.15918-.10351.05079-.20825.09742-.31036.152-.0481.02576-.09485.05322-.14246.07977-.14093.07813-.27612.16364-.41223.248-.0946.05878-.1911.11285-.28412.17505-.01922.01288-.039.025-.05816.038q-.35789.24243-.69116.51282c-.01252.01013-.02436.0213-.03681.03149-.05328.04371-.10235.09205-.15466.13685-.17218.1474-.3407.29809-.50177.45611-.02466.02411-.05225.04517-.0766.06958l-.00006.00006c-.05158.05164-.0968.10932-.14728.162-.12921.13525-.25561.27258-.37683.41455-.04559.05328-.09473.10315-.13916.15735-.04419.05383-.08276.11047-.12567.165-.095.121-.18537.245-.27454.37017-.05993.08387-.12408.16425-.18146.25007-.03125.04669-.06024.09417-.09063.14123-.07355.11432-.13916.23322-.208.35034-.0683.116-.14087.22888-.20453.34778-.07135.13342-.13165.27063-.19653.4065-.056.11712-.117.23187-.16846.35113-.01855.043-.03662.08618-.05457.12946-.046.11132-.08343.225-.1253.33758-.04749.12708-.09595.25354-.13831.38263-.02209.06769-.04583.13452-.06652.20288-.02442.08075-.043.16248-.06537.24372q-.06381.23-.1164.46307c-.01819.08118-.03967.16083-.05591.24268-.0097.04895-.0166.0982-.02557.14727-.0379.20514-.06665.4123-.09161.62055-.00788.06671-.02008.13189-.02668.199l-.00555.05933c-.02856.30566-.04669.61328-.04669.92352,0,.0437.00806.08826.0086.132.00367.28632.01557.57251.04364.85779.00611.06244.01734.12329.0246.18542.01312.11023.033.22022.04987.33057.02276.15033.03979.30121.06939.45062.03034.15308.07245.30133.10968.45185.0141.05957.01972.11956.03553.179l.0011.0083.00036.0008.00165.0039c.006.02228.01489.043.02112.06519.005.01812.01166.03534.01678.0534.01746.06214.03253.12451.05127.18634.02973.098.06562.19306.09821.2898.04571.13623.09338.271.14447.404.02948.0766.05609.15381.08752.2298.02814.06781.05933.1336.08887.20062.06671.15222.13867.30066.21228.44824.03973.07929.07629.15949.11823.23786.0194.03631.039.0722.05889.10827.10724.19538.223.384.34211.57025.03033.04731.05755.09583.08874.14271a9.93735,9.93735,0,0,0,1.22675,1.5028c.03436.03473.07037.06751.10528.10175q.27091.26523.55963.50867c.03388.02856.06586.05908.1001.08721.03565.0293.07276.05561.10877.08436.16851.13409.34155.26153.51812.38439.05347.0373.10474.07715.15894.11341.0318.0213.06341.04266.0954.06354.19024.1239.386.23858.5841.3493.04438.02484.0868.05249.1316.07666.02716.01465.05365.03027.08087.04468.02472.013.05035.02331.07513.03613.221.1142.44544.22168.67456.31928.02783.01184.0567.02142.0846.033.071.02941.143.05462.2146.08227.18676.07257.37451.142.56573.20331.04761.0152.09522.03009.14319.04462.05322.01611.10687.02984.16034.045q.31228.08945.63061.15839c.05268.01129.1048.02362.15778.03411l.08514.01667q.40916.07818.8263.12243l.02685.00336a9.8983,9.8983,0,0,0,1.01026.05756c.11316,0,.22809-.01844.34167-.02234.217-.00727.43415-.01251.65039-.03382.04761-.00463.09412-.01263.14154-.018.146-.01679.29163-.04224.43787-.06561.12915-.02045.25885-.03485.38733-.06031.13464-.02667.26507-.06384.3977-.09588.0799-.01935.15985-.02625.23969-.04767.05884-.01575.11432-.03748.17261-.0542.04657-.01337.09314-.026.13958-.04.07441-.02252.14685-.04883.22052-.07306.178-.05841.35334-.12067.52588-.18811.059-.02307.118-.0448.17664-.069.05115-.02124.10144-.04364.15216-.06567.1911-.08265.37726-.17188.561-.26532.05793-.02954.11615-.0578.17359-.08857.02435-.013.04944-.02471.07361-.038q.35833-.195.6958-.41669l.02527-.01568a9.94171,9.94171,0,0,0,1.54736-1.263l.0119-.01075.00366-.00329.00012-.00012.00013-.00013c.01019-.01019.01855-.02148.02868-.03173q.29682-.29993.566-.62281c.022-.02624.04529-.05114.067-.07763.02441-.02967.04688-.06037.07086-.09021q.21964-.27475.4184-.56409c.03052-.04407.06293-.08649.09271-.131.01923-.02869.03918-.057.05811-.08588.134-.20538.25872-.41626.37732-.6308.01635-.02954.03485-.05768.0509-.08734.01672-.03094.0343-.06128.05072-.09241.009-.01709.016-.03485.0249-.05194.11829-.228.22882-.4599.32941-.69653.01135-.02673.02057-.05457.03168-.08142.0296-.07159.05517-.14423.08306-.21643.072-.18555.14087-.37213.20185-.56207.01544-.04828.03076-.09644.04547-.145.01691-.056.03125-.11249.04718-.16876q.08652-.30351.15381-.61286c.01208-.05585.02557-.111.03668-.16723.00641-.03229.01239-.06446.01849-.09681q.07371-.38846.116-.78405c.0025-.02381.00647-.04712.00885-.071a9.90516,9.90516,0,0,0,.05554-.9942C22.00482,11.92725,21.99072,11.84424,21.98871,11.76239Zm-.45368-.39032a6.81975,6.81975,0,0,1-.49816,2.26727,9.26467,9.26467,0,0,0-.11237-1.10119A5.1006,5.1006,0,0,0,21.535,11.37207Zm-.21844-1.91791c.01111.04059.02093.08173.03149.12256l.0066.051a1.57838,1.57838,0,0,1-.62641,1.00451c-.06647.06183-.158.12677-.23425.18988A11.247,11.247,0,0,0,19.59338,8.866c-.01367-.05182-.03039-.10181-.04467-.15326a5.21859,5.21859,0,0,1,.96051.179C20.98126,9.03522,21.2373,9.23871,21.31659,9.45416ZM19.99994,12c0-.13116-.0116-.25854-.01563-.38849.1186-.07739.23-.1543.33753-.2312a9.72366,9.72366,0,0,1,.25274,1.08008,7.2238,7.2238,0,0,1-.64038.76184C19.97339,12.8208,19.99988,12.41461,19.99994,12Zm-.14948-1.91095q.211.47388.37122.95386c-.07806.05755-.16791.116-.25324.17419C19.9447,10.83508,19.90753,10.458,19.85046,10.08905ZM6.73535,13.53473A15.474,15.474,0,0,1,5.654,11.853q.48423-.24124,1.0293-.47913c-.00684.20813-.0166.4148-.01666.62616C6.66669,12.52325,6.69434,13.03314,6.73535,13.53473Zm-.04223-2.53107c-.42627.18292-.83075.36823-1.20551.55524a11.96036,11.96036,0,0,1-.66333-1.49024l.01886-.01678a13.056,13.056,0,0,1,2.134-1.39862A17.67044,17.67044,0,0,0,6.69312,11.00366Zm.80413,6.35779a10.71787,10.71787,0,0,1-1.13958-.18256,12.08,12.08,0,0,1-1.23023-1.51074c.13922.00458.27655.01019.42407.01026.45514-.00007.95063-.02277,1.47669-.06617A14.74005,14.74005,0,0,0,7.49725,17.36145Zm-.30133-2.71692c.162.19068.3385.37683.51154.56458-.1388.01568-.27448.02911-.4093.042C7.261,15.05145,7.22638,14.8501,7.19592,14.64453Zm.426,3.07007c.11914.32129.24926.626.38727.9184a12.07934,12.07934,0,0,1-1.23658-1.03492C7.04913,17.64429,7.32861,17.6875,7.62189,17.7146Zm-.2605-2.13483c.20624-.02.41315-.04065.628-.067.08221.08539.15527.1737.23968.25824a18.58149,18.58149,0,0,0,1.85651,1.616c-.41.03223-.81384.05262-1.20459.05262-.35193.00006-.69037-.0188-1.02307-.04407A14.3219,14.3219,0,0,1,7.36139,15.57977Zm1.10333-.04443c-.02539-.02533-.04681-.052-.072-.07745a35.32922,35.32922,0,0,0,4.29791-.87989,35.2442,35.2442,0,0,0,4.27082-1.42987,17.15389,17.15389,0,0,1-.32025,2.41767A17.63692,17.63692,0,0,1,13.295,16.832a17.95288,17.95288,0,0,1-2.73059.50592A17.922,17.922,0,0,1,8.46472,15.53534ZM12.60431,14.256a34.61115,34.61115,0,0,1-4.4892.90326q-.539-.56909-1.00586-1.15582A18.3257,18.3257,0,0,1,6.99994,12c-.00006-.25952.00989-.51434.02032-.76874A34.17345,34.17345,0,0,1,11.39563,9.748a34.60464,34.60464,0,0,1,4.49322-.90387q.5366.56679,1.00165,1.15118A18.31615,18.31615,0,0,1,17,12c.00006.26086-.00989.517-.02045.77264A34.17672,34.17672,0,0,1,12.60431,14.256Zm4.035-5.83185c-.2052.0199-.41089.04035-.62463.06647-.08338-.08661-.15747-.17621-.24317-.262a18.58385,18.58385,0,0,0-1.852-1.61231c.40827-.03192.81025-.05206,1.19935-.05206.35241-.00006.69134.01874,1.02447.04413A14.32089,14.32089,0,0,1,16.63928,8.42413Zm-.64813-3.05639a12.096,12.096,0,0,1,1.24066,1.03869c-.2774-.04644-.55786-.08966-.85211-.11688C16.26031,5.967,16.12964,5.66125,15.99115,5.36774Zm.71136,3.38495c.03687.198.07117.39776.10132.6015-.16064-.18909-.33569-.37366-.5072-.55982C16.43427,8.77887,16.56885,8.7655,16.70251,8.75269Zm-1.16668-.2884c.02661.02662.04913.05457.0755.08124a36.72455,36.72455,0,0,0-8.57318,2.3103,17.16132,17.16132,0,0,1,.3197-2.41735A17.64,17.64,0,0,1,10.705,7.172a17.95746,17.95746,0,0,1,2.73639-.50659A17.928,17.928,0,0,1,15.53583,8.46429Zm1.43664-.07263a14.74177,14.74177,0,0,0-.4685-1.749,10.73145,10.73145,0,0,1,1.14239.18335,12.0845,12.0845,0,0,1,1.22815,1.50977c-.13983-.00464-.27789-.01026-.42615-.01032C17.99341,8.32556,17.49823,8.34833,16.97247,8.39166Zm.29206,2.07245a15.473,15.473,0,0,1,1.08374,1.68567q-.48523.24189-1.03174.48022c.007-.20935.01672-.41729.01678-.63C17.33325,11.47632,17.3056,10.96606,17.26453,10.46411Zm.04217,2.53613c.42719-.18335.83246-.36908,1.20789-.55651a11.9344,11.9344,0,0,1,.66253,1.49l-.02056.01831A13.06068,13.06068,0,0,1,17.022,15.351,17.661,17.661,0,0,0,17.3067,13.00024ZM17.20856,9.861c-.045-.38965-.10437-.76831-.17267-1.13952.50372-.04071.97851-.06269,1.41247-.06263.22284-.00012.43433.00586.636.01661.06842.10864.13763.217.20184.32684a11.88885,11.88885,0,0,1,.35755,2.42731c-.30139.18927-.62787.38-.99616.57165A16.23282,16.23282,0,0,0,17.20856,9.861Zm1.019-2.89148c.12567.03614.24585.07563.36548.1164q.16644.354.30829.72693Q18.58634,7.38165,18.2276,6.96954Zm-.40332-.44244c-.05792-.06024-.10815-.12433-.16754-.18378A12.36619,12.36619,0,0,0,15.66547,4.735c-.054-.09589-.10773-.1919-.16394-.2837a9.57084,9.57084,0,0,1,1.82434.605c.02673.0326.05639.06128.08276.09436A9.62015,9.62015,0,0,1,18.39032,6.667C18.20929,6.61328,18.016,6.571,17.82428,6.5271ZM15.5058,5.12427a10.79429,10.79429,0,0,1,.50812,1.1452c-.294-.01892-.58771-.03857-.89508-.03864-.51337,0-1.04841.03638-1.59162.09083a14.07945,14.07945,0,0,0-3.24707-1.778,11.95911,11.95911,0,0,1,2.8291-.36066c.3263.00013.64673.01917.964.0467a11.29784,11.29784,0,0,1,1.34558.7442C15.4472,5.02551,15.478,5.07141,15.5058,5.12427Zm-2.39655-1.2746a12.29179,12.29179,0,0,0-3.1806.425c-.07886.02118-.15381.04846-.23181.071-.20947-.06451-.41419-.11615-.61823-.16345A5.846,5.846,0,0,1,9.86053,3.283c.04908-.00092.097-.00623.14637-.00623a9.41161,9.41161,0,0,1,3.14129.57422Zm-4.00592.67767c-.11505.03943-.22516.08576-.33813.12818.03576-.0589.0697-.12177.10626-.17865C8.94867,4.49341,9.025,4.50806,9.10333,4.52734Zm.58869.16809a13.02631,13.02631,0,0,1,3.32061,1.67908,18.52337,18.52337,0,0,0-2.394.47547A18.08,18.08,0,0,0,7.44781,8.02783,12.36988,12.36988,0,0,1,8.49414,5.12427l.00592-.0102A12.17925,12.17925,0,0,1,9.692,4.69543ZM7.05957,8.22449a13.58043,13.58043,0,0,0-2.34845,1.512c-.03119-.09582-.07092-.1944-.09845-.289a11.03548,11.03548,0,0,1,.84692-2.47046A11.139,11.139,0,0,1,8.02875,5.32593,13.25648,13.25648,0,0,0,7.05957,8.22449Zm-2.6131.50464c-.0423-.21729-.07239-.42792-.09259-.63489q.23-.273.48444-.53284A11.4133,11.4133,0,0,0,4.44647,8.72913Zm.00006,1.67566c.03473-.03217.072-.06373.10755-.09571a12.39644,12.39644,0,0,0,.63665,1.4029c-.079.04119-.1632.08221-.23938.12341-.21569.11676-.418.23352-.61059.3501-.00092-.06238-.00745-.12287-.00745-.18549A12.12878,12.12878,0,0,1,4.44653,10.40479Zm.908,1.59649A16.23559,16.23559,0,0,0,6.7912,14.13763c.04516.39142.1048.77185.17358,1.14478-.50409.04077-.97906.06274-1.41327.06268-.222.00006-.4328-.00586-.63379-.01648-.06909-.10955-.13885-.21881-.20361-.32959a11.88942,11.88942,0,0,1-.35773-2.425C4.65839,12.3844,4.98541,12.1933,5.35455,12.00128Zm.42176,5.03412c-.1261-.03619-.247-.07556-.367-.11645q-.16744-.35578-.31018-.73047Q5.41553,16.62161,5.77631,17.0354Zm.40344.44244c.05646.05872.10541.12128.16333.1792A12.36228,12.36228,0,0,0,8.335,19.26587c.05493.09753.10968.19537.16687.28863A9.57833,9.57833,0,0,1,6.68127,18.952c-.02911-.03541-.06127-.06659-.09-.1026a9.61981,9.61981,0,0,1-.97949-1.51185C5.79352,17.39142,5.98737,17.4339,6.17975,17.47784Zm2.31439,1.39783a10.78322,10.78322,0,0,1-.50653-1.14117c.29352.01886.58661.03851.89337.03857.5152,0,1.05225-.03656,1.5976-.09137a14.0596,14.0596,0,0,0,3.25256,1.77789,11.95877,11.95877,0,0,1-2.83923.36261c-.3227-.00012-.63959-.01873-.95349-.04565a11.30476,11.30476,0,0,1-1.35688-.74969C8.553,18.975,8.52209,18.92883,8.49414,18.87567Zm2.39777,1.27991a12.2929,12.2929,0,0,0,3.18072-.42493c.08167-.02191.15936-.05011.24018-.07355.20636.0633.40777.11371.60882.16028a5.84484,5.84484,0,0,1-.78265.9c-.049.00091-.09693.00622-.14612.00622a9.40474,9.40474,0,0,1-3.12744-.56891Zm4.01654-.68085c.10962-.03772.21423-.0824.322-.1228-.03418.05627-.06665.11633-.10163.17071C15.05542,19.5069,14.98279,19.49292,14.90845,19.47473Zm-.59082-.16742a13.013,13.013,0,0,1-3.32447-1.67846,18.5471,18.5471,0,0,0,2.38819-.47486A18.08251,18.08251,0,0,0,16.551,15.9765a12.36708,12.36708,0,0,1-1.04523,2.89917l-.01019.0177A12.1604,12.1604,0,0,1,14.31763,19.30731Zm1.40759-.14569A11.73593,11.73593,0,0,0,18.132,17.7829a9.48346,9.48346,0,0,1-.72333,1.06647,8.57836,8.57836,0,0,1-.76269.82617c-.06257.00238-.11945.01373-.18342.01379a6.04221,6.04221,0,0,1-.98925-.09173C15.56018,19.4577,15.64355,19.31116,15.72522,19.16162Zm.24237-.48a13.245,13.245,0,0,0,.97192-2.90185,13.57807,13.57807,0,0,0,2.35083-1.51368c.03077.09461.07007.19184.09717.28522a11.03688,11.03688,0,0,1-.85248,2.48261A11.14381,11.14381,0,0,1,15.96759,18.68164Zm3.58624-3.41193c.04285.21961.073.43244.09314.64154q-.23226.27576-.48944.538A11.40769,11.40769,0,0,0,19.55383,15.26971Zm-.00091-1.67034c-.03406.03155-.07074.06256-.10565.09393a12.37883,12.37883,0,0,0-.63581-1.40265c.07807-.04071.1615-.08136.23688-.12213.21582-.11688.41827-.23364.611-.35034.00092.06109.00733.12042.00733.18182A12.12642,12.12642,0,0,1,19.55292,13.59937Zm1.40332-4.89362a2.863,2.863,0,0,0-.34967-.13287,5.85333,5.85333,0,0,0-1.15766-.20252,11.29022,11.29022,0,0,0-.40313-1.1109c.0758.03186.16241.05615.235.09009A4.01136,4.01136,0,0,1,20.95624,8.70575Zm-.344-.8761a4.99667,4.99667,0,0,0-1.19043-.78216c-.18243-.08509-.38726-.15259-.58618-.22474a10.22542,10.22542,0,0,0-.83655-1.42431A7.17291,7.17291,0,0,1,20.61224,7.82965ZM15.44836,2.97784c.10431.04.20972.077.3125.12043.11878.05011.23487.10821.35193.16333.14447.06817.29084.13281.43134.20776.05993.03192.1167.06934.1759.10254.0741.0415.14673.08636.22.13.119.071.23938.13977.355.2157.07947.052.156.1084.234.16272.083.05811.16419.11963.24573.18061.08118.06066.16418.11889.24335.182.07019.05579.13916.113.20788.17078q.25443.21488.49744.44958c.05414.05231.10943.10321.16235.15686.20746.2107.40473.42756.589.65174.09522.116.18006.24035.26984.36078q.03973.05328.07861.10693a8.23138,8.23138,0,0,0-2.292-1.55432,8.20716,8.20716,0,0,0-2.11884-1.82056Zm1.37555,1.51368a10.21889,10.21889,0,0,0-1.58667-.43909,5.61849,5.61849,0,0,0-1.37579-1.41992A7.17158,7.17158,0,0,1,16.82391,4.49152Zm-4.824-2.15821h.00018a3.61062,3.61062,0,0,1,2.77588,1.642c-.20136-.02991-.40527-.05267-.61078-.07165a10.089,10.089,0,0,0-3.91077-.94642A2.94875,2.94875,0,0,1,11.99988,2.33331Zm-1.86133.2992a4.52043,4.52043,0,0,0-.41333.32281c-.15265.005-.30573.00781-.45648.02112A6.50458,6.50458,0,0,1,10.13855,2.63251Zm-2.01129.51776q.19243-.084.39014-.15991c.02319-.009.04693-.01691.07025-.0257-.08869.05243-.17786.10376-.26465.16-.09119.01954-.1825.03846-.27252.06122C8.07617,3.17438,8.10144,3.16156,8.12726,3.15027Zm.32086.2876a7.52454,7.52454,0,0,1,.91156-.13367,6.73451,6.73451,0,0,0-.6344.80145,6.74763,6.74763,0,0,0-1.0155-.11517A7.5329,7.5329,0,0,1,8.44812,3.43787Zm.0788.96411c-.08857.14239-.17347.29138-.25653.44385A11.73071,11.73071,0,0,0,5.86121,6.22839a9.4815,9.4815,0,0,1,.7301-1.07776A8.58033,8.58033,0,0,1,7.35449,4.324c.0625-.00238.11933-.01374.18329-.0138A6.04647,6.04647,0,0,1,8.52692,4.402Zm-.9646-.72107c-.12085.10083-.235.21191-.351.32055a4.56785,4.56785,0,0,0-.53363.05829A6.50357,6.50357,0,0,1,7.56232,3.68091ZM5.124,5.21619c.02686-.02729.05249-.05548.07965-.0824a2.96078,2.96078,0,0,1,1.63532-.771c-.17542.18543-.34656.377-.5083.58014A10.06374,10.06374,0,0,0,5.18945,6.77075a10.34291,10.34291,0,0,0-.87237.84894c-.00037-.02649-.00647-.056-.00641-.08228A3.26465,3.26465,0,0,1,5.124,5.21619ZM4.06055,6.67609a4.69628,4.69628,0,0,0-.08319.86132c.00024.14344.02386.29731.03509.44574a9.33194,9.33194,0,0,0-.64758.88062A6.83122,6.83122,0,0,1,4.06055,6.67609Zm-.76911,2.9768A8.59716,8.59716,0,0,1,4.05035,8.465a8.19571,8.19571,0,0,0,.21814,1.00311c-.0531.25409-.10022.51056-.13739.772a8.24529,8.24529,0,0,0-.77954.8515,8.723,8.723,0,0,1-.07513-1.08441C3.27649,9.88788,3.28632,9.771,3.29144,9.65289Zm.72437,2.73926c-.11847.07721-.22986.15411-.33716.2309a9.72532,9.72532,0,0,1-.25311-1.0802,7.22956,7.22956,0,0,1,.63971-.76093C4.02631,11.182,4.00006,11.58685,4,12,4,12.13239,4.01172,12.261,4.01581,12.39215Zm.01587.39441c.0238.38123.06091.75739.11792,1.12549q-.21066-.47288-.37055-.95184C3.85687,12.90283,3.94659,12.84467,4.03168,12.78656ZM2.381,11.06482c.00354-.0365.00958-.07233.01355-.1087.01245-.11506.03308-.22931.04962-.34394.01972-.137.03717-.27459.06256-.4096.015-.07892.03223-.15717.0492-.2356.02441-.11389.05438-.22662.08294-.33978.0221-.08728.04279-.175.0672-.26129.02784-.09772.0553-.19538.08619-.292.0365-.11529.079-.22888.12-.343.02136-.05945.04254-.1189.06506-.1778.04-.10437.077-.21.12049-.3128.02685-.06366.05926-.12549.08758-.18873a7.84142,7.84142,0,0,0-.22387,1.52021A7.82967,7.82967,0,0,0,2.381,11.06482Zm.08539,1.56287a6.82046,6.82046,0,0,1,.49689-2.259,9.27583,9.27583,0,0,0,.11236,1.09656A5.10606,5.10606,0,0,0,2.46637,12.62769Zm.68823-.68055c.06317.29609.14514.59211.23645.88764-.12433.098-.24157.19562-.34607.2923a3.27271,3.27271,0,0,0-.45862.52282A3.76238,3.76238,0,0,1,3.1546,11.94714Zm-.469,2.60743c-.01239-.04517-.02332-.09076-.035-.13617l-.00549-.04224a1.57844,1.57844,0,0,1,.6264-1.00452c.06678-.06207.15857-.12732.23523-.19067A11.24051,11.24051,0,0,0,4.407,15.13556c.01392.05267.03089.10345.04547.15576a5.219,5.219,0,0,1-.96185-.17908C3.022,14.96979,2.76691,14.76819,2.68561,14.55457Zm.35809.74371a2.8747,2.8747,0,0,0,.34949.13275,5.85713,5.85713,0,0,0,1.15906.20258A11.3065,11.3065,0,0,0,4.956,16.74524c-.07641-.03211-.16381-.05664-.23706-.09088A4.01143,4.01143,0,0,1,3.0437,15.29828Zm.345.87695a4.99651,4.99651,0,0,0,1.18921.78119c.18323.08551.38886.15332.58875.22571a10.22021,10.22021,0,0,0,.84008,1.42755A7.17524,7.17524,0,0,1,3.38867,16.17523Zm4.93549,4.76361-.02875-.011c-.13977-.05793-.27563-.127-.41309-.19178-.14691-.06933-.296-.13488-.43866-.2113-.13189-.07056-.259-.15234-.38824-.22943-.13135-.07849-.26477-.15369-.392-.2381-.03345-.02216-.06567-.0462-.09887-.06879-.11805-.0805-.23212-.169-.34729-.25537-.09369-.07019-.19-.13672-.281-.21014-.04-.03229-.07971-.06507-.11926-.098-.20252-.169-.40021-.34662-.59162-.53479-.029-.02857-.05914-.056-.08789-.085q-.32547-.32832-.61352-.67872c-.08966-.10925-.16925-.22662-.25409-.33978-.02741-.03656-.05426-.07342-.08106-.11029a8.23956,8.23956,0,0,0,2.287,1.54651,8.2047,8.2047,0,0,0,2.11176,1.81238C8.50024,21.0022,8.41034,20.9743,8.32416,20.93884ZM7.18488,19.51678a10.23473,10.23473,0,0,0,1.58184.43653,5.61242,5.61242,0,0,0,1.37171,1.41412A7.16764,7.16764,0,0,1,7.18488,19.51678Zm4.81518,2.14985h-.00018a3.60717,3.60717,0,0,1-2.77179-1.63617c.20392.03021.41034.05322.61847.0722a10.08628,10.08628,0,0,0,3.89844.94049A2.94837,2.94837,0,0,1,12.00006,21.66663Zm1.86145-.2992a4.528,4.528,0,0,0,.41284-.32239c.15241-.005.3053-.00769.45581-.021A6.50745,6.50745,0,0,1,13.86151,21.36743Zm1.89484-.46362c-.04193.01764-.08417.03473-.12641.05182-.07122.02893-.14514.05224-.21728.07953.08832-.05219.177-.10334.26349-.15937.09106-.01947.18231-.03839.27221-.06109C15.884,20.84351,15.82117,20.87646,15.75635,20.90381Zm-.20551-.34119a7.527,7.527,0,0,1-.91089.13355,6.73179,6.73179,0,0,0,.635-.80231,6.75122,6.75122,0,0,0,1.01569.11523A7.52585,7.52585,0,0,1,15.55084,20.56262Zm.88617-.243c.12122-.10113.23572-.21252.352-.32153a4.57354,4.57354,0,0,0,.535-.05866A6.50517,6.50517,0,0,1,16.437,20.31964Zm2.40656-1.49444-.01538.01593a2.95353,2.95353,0,0,1-1.66687.79571c.17529-.1853.34637-.37671.508-.57977a10.06245,10.06245,0,0,0,1.13593-1.8169,10.35617,10.35617,0,0,0,.8786-.85449c.0003.0246.006.05206.00592.07648A3.24824,3.24824,0,0,1,18.84357,18.8252Zm1.09662-1.50293a4.69666,4.69666,0,0,0,.08288-.86011c-.00024-.14154-.02368-.29346-.03461-.43988a9.3086,9.3086,0,0,0,.64508-.87628A6.82972,6.82972,0,0,1,19.94019,17.32227Zm.76763-2.966a8.6,8.6,0,0,1-.75732,1.18427,8.192,8.192,0,0,0-.21881-1.00977c.05267-.25238.09967-.507.13666-.76666a8.25869,8.25869,0,0,0,.78027-.8523,8.71754,8.71754,0,0,1,.07459,1.0813C20.72314,14.11542,20.71326,14.23529,20.70782,14.35626Zm-.09844-3.18774c.124-.09784.24108-.19519.34539-.29169a3.26774,3.26774,0,0,0,.45868-.52295,3.76213,3.76213,0,0,1-.56793,1.70215C20.78247,11.76,20.70056,11.464,20.60938,11.16852Zm1.009,1.78674c-.01355.13721-.03974.27313-.05915.40979-.02349.16583-.04382.33258-.07562.49561-.005.02551-.01068.0509-.01593.07635-.02881.14166-.06775.28137-.103.42182-.03193.12713-.06092.25537-.09784.38043-.01148.03869-.02234.07763-.03431.11615-.04181.13568-.093.26886-.14093.403-.05041.14057-.09716.2829-.1538.42035l-.01032.02673c-.03424.08271-.07678.16266-.11353.24457a7.8323,7.8323,0,0,0,.22382-1.51263,7.83463,7.83463,0,0,0,.58112-1.49231Z"/></svg>