<svg id="Layer_1" data-name="Layer 1" xmlns="http://www.w3.org/2000/svg" viewBox="0 0 24 24"><title>E1X_ico_font</title><path d="M4.19,18A1.2,1.2,0,0,1,3,16.81v-.42h8.12v-1.1c0-1.46-2.92-2.19-4.39-2.19A7.09,7.09,0,0,0,3,14.19v-7A1.2,1.2,0,0,1,4.19,6H19.81A1.2,1.2,0,0,1,21,7.19V14.3A5.18,5.18,0,0,1,22,15V7.19A2.19,2.19,0,0,0,19.81,5H4.19A2.19,2.19,0,0,0,2,7.19v9.62A2.19,2.19,0,0,0,4.19,19h9.45c0-.15,0-.29,0-.44a3.55,3.55,0,0,1,.06-.56Zm7.2-2.63H14.8a4.92,4.92,0,0,1,1.54-1.21H11.39Zm8-3.47h-8v1.21h8Zm0-4.35h-8V8.76h8Zm-8,2.26V11H17.5V9.81Zm7.17,4.56a4.19,4.19,0,1,0,4.19,4.19A4.18,4.18,0,0,0,18.56,14.37Zm2.72,3.2-3.21,3.2a.44.44,0,0,1-.25.15l-1.75.51H16a.23.23,0,0,1-.17-.07.27.27,0,0,1-.07-.25l.51-1.76a1,1,0,0,1,.15-.25l3.2-3.2a1.17,1.17,0,0,1,1.66,1.66ZM4.54,9.81a2.2,2.2,0,1,0,2.19-2.2A2.19,2.19,0,0,0,4.54,9.81Zm15.92,6.26a.67.67,0,0,0-.48.2l-.19.18.95.95.19-.18a.67.67,0,0,0,.2-.48.66.66,0,0,0-.2-.48A.72.72,0,0,0,20.46,16.07ZM16.94,19.3l.95.95,2.49-2.49-.95-1Zm-.57,1.51,1.07-.31-.76-.75Z"/></svg>