<svg id="Layer_1" data-name="Layer 1" xmlns="http://www.w3.org/2000/svg" viewBox="0 0 24 24"><path d="M2.74921,3.5l6,7v10l5-3v-7l5.5-7Zm10.214,6.382-.214.272v6.78l-3,1.799V10.13l-.24-.28L4.92322,4.5h12.268Zm8.5202,5.66937a4.19083,4.19083,0,0,0-7.15418,2.96332v.00006a4.19083,4.19083,0,0,0,8.38166,0v-.00006A4.17765,4.17765,0,0,0,21.4834,15.55133Zm-2.12946-.10663.00006.00031h-.00006Zm0,6.14v-.00031l.00006-.00006Zm2.65-2.641-.00245.02v-.00012c-.00152.011-.00762.01923-.00988.02985a.42242.42242,0,0,1-.34387.34051.39858.39858,0,0,1-.06415.01569l-.40479.02246-.00244.00122-.00476.004-.0058.004-.00183.00213-.00018.00049-.00067.00189-.15876.38483-.00128.00256-.00018.00281v.00025l.00012.00085.0014.01111.00074.00232.00018.001.00006.00019.27088.30359-.00135-.00147a.44306.44306,0,0,1,.01148.57245l-.007.00848-.60272.60346-.00019.00018-.00818.00684a.42768.42768,0,0,1-.13543.07611.4507.4507,0,0,1-.14435.0238.44357.44357,0,0,1-.22211-.0683.40213.40213,0,0,1-.071-.04254l-.03858-.0346-.26251-.23554-.00055-.00018-.00244-.0008-.01153-.00146-.00043-.00006-.00232.00018-.00281.0014-.38385.1587-.00207.00067-.00238.00213-.00354.00513-.00452.00543-.00147.003-.00964.174-.01282.23175a.42371.42371,0,0,1-.02923.12017c-.00379.01044-.00354.0232-.00806.03321a.46482.46482,0,0,1-.0816.12341.44407.44407,0,0,1-.26715.14154h-.00007l-.042.00525a3.14868,3.14868,0,0,1-.81146,0l-.04212-.00525-.00024-.00006-.00018-.00006.0003.00006a.45364.45364,0,0,1-.38592-.41791v.00006l-.00006-.00024v-.00018l-.00055-.00959-.02149-.39587-.00091-.00183-.00067-.00086-.00031-.00067-.00238-.0028-.007-.0091-.0003-.00024-.00074-.00025-.0003-.00036-.00183-.00061-.38373-.1587-.00287-.0014-.00244-.00018-.01141.00146-.00251.00074-.00061.00012-.26861.241-.03284.02936a.39632.39632,0,0,1-.05768.03461.44206.44206,0,0,1-.23541.07623l-.00323-.00055a.44208.44208,0,0,1-.212-.063.40425.40425,0,0,1-.06439-.03613l-.00818-.00683-.60352-.60444-.00732-.009a.44386.44386,0,0,1,.01184-.57086l-.00073.00079.00073-.00085v.00006l.26977-.30206.00013-.00037.00006-.00006.00006-.00012.00006-.00043.00085-.00262.00159-.01233v-.00025l-.00024-.003-.00135-.00274-.15814-.38422-.00073-.00214-.00238-.00274-.0061-.00428-.004-.00335-.003-.00147-.00012-.00012-.40442-.02246a.401.401,0,0,1-.06385-.01563.455.455,0,0,1-.21313-.10406.44578.44578,0,0,1-.141-.26587l-.00013-.00085-.00018-.0011.00012.00067-.00164-.01312c-.00165-.01288-.005-.04291-.00971-.08771l-.00452-.043c-.00738-.07935-.01422-.1828-.01507-.28754l-.00049-.01672.00049-.01666c.00085-.10474.00769-.2082.01507-.28754l.00452-.043c.0047-.0448.00806-.07483.00971-.08771l.00164-.01312-.00012.00067.00018-.0011.00013-.00085a.44575.44575,0,0,1,.141-.26587.45417.45417,0,0,1,.21924-.10559.396.396,0,0,1,.05774-.0141l.40442-.02246.00012-.00012.003-.00147.004-.00336.0061-.00427.00238-.00275.00073-.00213.15814-.38422.00135-.00274.00024-.003V17.253l-.00159-.01233-.00085-.00262-.00006-.00043-.00006-.00012-.00006-.00006-.00013-.00037-.26977-.30206v.00006L15.764,16.9342l.00073.0008a.44386.44386,0,0,1-.01184-.57086l.00732-.009.60352-.60443.00818-.00683a.40509.40509,0,0,1,.06439-.03614.44217.44217,0,0,1,.212-.063l.00323-.00055a.44206.44206,0,0,1,.23541.07623.39632.39632,0,0,1,.05768.03461l.03284.02935.26861.241.00061.00012.00251.00074.01141.00146.00244-.00018.00287-.00141.38373-.15869.00183-.00061.0003-.00036.00074-.00025.0003-.00024.007-.0091.00238-.00281.00031-.00067.00067-.00085.00091-.00183.02149-.39588.00055-.00958v-.00018l.00006-.00025v.00007a.45364.45364,0,0,1,.38592-.41791l-.0003.00006L18.072,15.027l.00024-.00006c.00562-.00067.13056-.01783.28577-.02655.0517-.00287.10687-.00489.162-.005.05517.00006.11029.00208.162.005.15533.00872.28027.02588.28582.02655h.00007a.44407.44407,0,0,1,.26715.14154.46482.46482,0,0,1,.0816.12341c.00452.01.00427.02277.00806.0332a.42386.42386,0,0,1,.02923.12018l.01282.23175.00964.174.00147.003.00452.00544.00354.00512.00238.00214.00207.00067.38385.15869.00281.00141.00232.00018.00043-.00006.01153-.00147.00244-.00079.00055-.00018.26251-.23554.03858-.0346a.40159.40159,0,0,1,.071-.04255.44366.44366,0,0,1,.22211-.06829c.01214.00006.02435.00506.03662.006a.42548.42548,0,0,1,.24316.09387l.00818.00684.00019.00018.60272.60345.007.00849a.44306.44306,0,0,1-.01148.57245l.00135-.00147-.27088.30359-.00006.00018-.00018.001-.00074.00232-.0014.01111-.00012.00085v.00025l.00018.0028.00128.00257.15876.38482.00067.0019.00018.00049.00183.00213.0058.004.00476.004.00244.00122.40479.02246a.39856.39856,0,0,1,.06415.01568.42245.42245,0,0,1,.34387.34052c.00226.01062.00836.0188.00988.02985v-.00013l.00245.02a3.182,3.182,0,0,1,0,.858Zm-3.93183,3.05872.00012.00006h.00013Zm.00012-6.97546-.00012.00006.00025-.00006Zm3.46589,3.24438-.00092-.01776c-.00348-.037-.00684-.06812-.00946-.08984l-.00006-.00074-.00006-.00036-.00031-.00305h-.00006v-.00007l-.38037-.02111a.48842.48842,0,0,1-.2688-.103.49482.49482,0,0,1-.1618-.2168l-.00214.00092-.152-.36835.00159-.00067a.44155.44155,0,0,1-.02039-.09326.518.518,0,0,1-.02264-.104.60319.60319,0,0,1,.016-.09716.48516.48516,0,0,1,.01233-.07465.47956.47956,0,0,1,.09406-.16168l.24517-.27442-.0003-.0003L20.888,16.645l-.50214-.50269H20.3858l-.27282.24451a.498.498,0,0,1-.33319.123.48271.48271,0,0,1-.19739-.04358l-.00012.0003-.00037-.00006-.00049.00128-.36774-.15185.0008-.00183.00012-.00037a.47763.47763,0,0,1-.19135-.14319c-.00671-.00775-.01928-.01105-.02551-.01916a.49112.49112,0,0,1-.10242-.26831l-.02111-.382-.00312-.00037c-.02185-.00256-.05328-.006-.09051-.00952l-.01746-.00091c-.07159-.00641-.15356-.01221-.23681-.01246l-.00635-.0003c-.08582-.00006-.17157.00622-.24536.01294l-.01514.00079c-.03723.00348-.06866.0069-.09045.00946l-.00312.00037-.02111.382a.49185.49185,0,0,1-.10242.26825c-.01727.0224-.04938.0332-.0705.05291a.45416.45416,0,0,1-.1463.10944l.00012.00031-.00006.00006.0008.00183-.36762.152-.00067-.00165a.48289.48289,0,0,1-.19788.04358L17.26,16.50977a.4968.4968,0,0,1-.333-.1233l.00134.00129-.22686-.20313-.04731-.04248-.50213.50275.00012.00012-.0003.0003.24609.27509-.00006-.00012.00012.00018-.00006-.00006a.50087.50087,0,0,1,.1214.3327.52129.52129,0,0,1-.02258.10382.43893.43893,0,0,1-.02033.09339l.00159.00061-.15161.36841-.002-.00086a.498.498,0,0,1-.16266.2171.4896.4896,0,0,1-.26861.10285l-.38031.021-.00043.00348c-.00256.02185-.006.05335-.00946.0907l-.00085.01587c-.00666.07367-.01294.15924-.01282.245v.0003c-.00012.08576.00616.17133.01282.245l.00085.01587c.00342.03735.0069.06884.00946.09069l.00043.00348.38031.02106a.48959.48959,0,0,1,.26861.10284.49813.49813,0,0,1,.16266.21711l.002-.00086.15161.36841-.00159.00061a.43884.43884,0,0,1,.02033.09338.52123.52123,0,0,1,.02258.10383.50087.50087,0,0,1-.1214.3327l.00006-.00006-.00012.00018L16.398,20.109l-.24609.27508.0003.00031-.00012.00012.50213.50275.04731-.04248.22686-.20313-.00134.00128a.86554.86554,0,0,1,.53113-.07977l.36829.15033-.0008.00183.00006.00006-.00012.00031a.93592.93592,0,0,1,.2168.16235.49185.49185,0,0,1,.10242.26825l.02111.382.00312.00037c.02179.00256.05322.006.09045.00946l.01514.00079c.07379.00671.15954.013.24536.01294l.00635-.00031c.08325-.00024.16522-.006.23681-.01245l.01746-.00091c.03723-.00348.06866-.007.09051-.00952l.00312-.00037.02111-.382a.49112.49112,0,0,1,.10242-.26831c.00623-.00812.0188-.01141.02551-.01916a.47763.47763,0,0,1,.19135-.14319l-.00012-.00037-.0008-.00183.36774-.15186.00049.00129.00037-.00006.00012.0003a.48271.48271,0,0,1,.19739-.04358.498.498,0,0,1,.33319.123l.27282.2445h.00006l.50214-.50268-.00006-.00006.0003-.00031-.24517-.27441a.48.48,0,0,1-.09412-.16174.49088.49088,0,0,1-.00964-.0586.58893.58893,0,0,1-.01862-.11316.51809.51809,0,0,1,.02264-.104.44155.44155,0,0,1,.02039-.09326l-.00159-.00067.152-.36835.00214.00091a.49485.49485,0,0,1,.1618-.21679.48842.48842,0,0,1,.2688-.103l.38037-.02112v-.00006h.00006l.00031-.00305.00006-.00037.00006-.00073c.00262-.02173.006-.05285.00946-.08984l.00092-.01776c.00653-.073.01269-.15723.01269-.24182l.00006-.00141v-.0003l-.00006-.00141C21.55078,18.42853,21.54462,18.3443,21.53809,18.2713ZM18.52,19.58789a1.07321,1.07321,0,1,1,1.07239-1.07324A1.07277,1.07277,0,0,1,18.52,19.58789Zm0-1.66486a.59172.59172,0,0,0-.58972.59144l.00006.00018-.00006.00024a.59.59,0,1,0,1.18,0l-.00006-.00024.00006-.00018A.59211.59211,0,0,0,18.52,17.923Z"/></svg>