<svg id="Layer_1" data-name="Layer 1" xmlns="http://www.w3.org/2000/svg" width="24" height="24" viewBox="0 0 24 24"><path d="M3.875,11.68763H3.56223a.31275.31275,0,1,0,0,.62549H3.875a.31275.31275,0,0,0,0-.62549ZM8.56242,6.68819H5.75a.31275.31275,0,0,0,0,.62549H8.56242a.31275.31275,0,0,0,0-.62549Zm-4.68744,0H3.56223a.31275.31275,0,1,0,0,.62549H3.875a.31275.31275,0,0,0,0-.62549ZM3.56223,17.31256H3.875a.31275.31275,0,0,0,0-.62549H3.56223a.31275.31275,0,1,0,0,.62549Zm4.0627-5.62493H5.75a.31275.31275,0,0,0,0,.62549h1.875a.31275.31275,0,1,0,0-.62549Zm8.43739-.312h5.62493A.313.313,0,0,0,22,11.06289h0V5.438c0-.00675-.00375-.012-.00375-.01875a.353.353,0,0,0-.01725-.0855l.00075.00225c-.00375-.00975-.006-.0195-.0105-.02925a.29723.29723,0,0,0-.06-.0885h0l-.0015-.0015L20.032,3.34173a.31516.31516,0,0,0-.08624-.05925l-.00225-.00075a.19823.19823,0,0,0-.02775-.00975l-.00226-.00075a.27241.27241,0,0,0-.081-.0165h-.00075a.17859.17859,0,0,0-.0195-.00375h-3.75a.31256.31256,0,0,0-.31274.31275h0v2.544a1.24275,1.24275,0,0,0-.83924,1.689l-.003-.00825-4.3192,3.23921a1.23223,1.23223,0,0,0-.45449-.23175l-.009-.00225v-.35625a.6248.6248,0,0,0-.62474-.62474h0V9.18791a.62528.62528,0,0,0,.62474-.62474V5.438a.6248.6248,0,0,0-.62474-.62474H2.62474A.6248.6248,0,0,0,2,5.438V8.56317a.62528.62528,0,0,0,.62474.62474h0v.62474A.6248.6248,0,0,0,2,10.43739V13.5626a.62528.62528,0,0,0,.62474.62475h0v.62474A.62479.62479,0,0,0,2,15.43683V18.562a.62527.62527,0,0,0,.62474.62474H9.49991a.62479.62479,0,0,0,.62474-.62474V15.43683a.6248.6248,0,0,0-.62474-.62474h0v-.62474a.6248.6248,0,0,0,.62474-.62475v-.357a1.23724,1.23724,0,0,0,.46574-.2355l-.00225.0015,4.3192,3.23921a1.22716,1.22716,0,0,0-.09525.477,1.24285,1.24285,0,0,0,.92849,1.20223l.009.00225v2.544h0a.31256.31256,0,0,0,.31274.31275h5.62493A.31256.31256,0,0,0,22,20.43627h0V14.81134c0-.00675-.00375-.012-.00375-.01875a.353.353,0,0,0-.01725-.0855l.00075.00225c-.00375-.00975-.006-.0195-.0105-.02925a.30712.30712,0,0,0-.06-.0885h0l-.0015-.0015-1.87573-1.875a.31516.31516,0,0,0-.08624-.05925l-.00225-.00075a.19823.19823,0,0,0-.02775-.00975l-.00226-.00075a.27241.27241,0,0,0-.081-.0165h-.00075a.17859.17859,0,0,0-.0195-.00375h-3.75a.31256.31256,0,0,0-.31274.31274h0v2.544a1.23728,1.23728,0,0,0-.46575.2355l.00225-.0015-4.31919-3.24a1.21682,1.21682,0,0,0,.09525-.47549,1.236,1.236,0,0,0-.09825-.48375l.003.00825,4.31919-3.23921a1.23227,1.23227,0,0,0,.4545.23175l.009.00225v2.54472a.31175.31175,0,0,0,.312.312h.00075ZM2.62474,5.438H9.49991V8.56317H2.62474Zm6.24967,3.75v.62474H3.24948V9.18791Zm.6255,9.37488H2.62474V15.43758H9.49991ZM3.24948,14.81284V14.1881H8.87441v.62474Zm6.25043-1.25023H2.62474V10.43739H9.49991v.357a1.244,1.244,0,0,0-.009,2.409l.009.00225Zm.312-.93749a.62475.62475,0,1,1,.62474-.62475h0a.62527.62527,0,0,1-.62474.62475Zm10.31237,1.06723.80774.80849h-.80774Zm-3.74995-.44174h3.12521v1.56223h0a.31256.31256,0,0,0,.31275.31275h1.56223v5.00018H16.37432v-2.232a1.24448,1.24448,0,0,0,.009-2.40972l-.009-.00225Zm-.312,2.81246a.62475.62475,0,1,1-.62474.62475h0a.6248.6248,0,0,1,.62474-.62475Zm4.06195-11.7456L20.932,5.126h-.80774Zm-3.74995-.44174h3.12521V5.438h0a.31256.31256,0,0,0,.31275.31274h1.56223v5.00019H16.37432v-2.232a1.244,1.244,0,0,0,.009-2.409l-.009-.00225Zm-.93749,3.4372a.62475.62475,0,1,1,.62474.62475h0a.6248.6248,0,0,1-.62474-.62475ZM5.75,17.31256H8.56242a.31275.31275,0,0,0,0-.62549H5.75a.31275.31275,0,0,0,0,.62549Z"/></svg>