<svg id="Layer_1" data-name="Layer 1" xmlns="http://www.w3.org/2000/svg" viewBox="0 0 24 24"><title>E1X_ico_font</title><path d="M19.94,17.77a2.5,2.5,0,1,0,2.5,2.5A2.5,2.5,0,0,0,19.94,17.77Zm0,4a1.5,1.5,0,1,1,1.5-1.5A1.5,1.5,0,0,1,19.94,21.77ZM13.38,6.86a2.5,2.5,0,1,0-2.5-2.5A2.51,2.51,0,0,0,13.38,6.86Zm0-4a1.5,1.5,0,1,1-1.5,1.5A1.5,1.5,0,0,1,13.38,2.86ZM5.42,17a2.5,2.5,0,1,0,2.5,2.5A2.5,2.5,0,0,0,5.42,17Zm0,4a1.5,1.5,0,1,1,1.5-1.5A1.5,1.5,0,0,1,5.42,21ZM15.55,7.44a2.5,2.5,0,1,0,2.5,2.5A2.5,2.5,0,0,0,15.55,7.44Zm0,4a1.5,1.5,0,1,1,1.5-1.5A1.5,1.5,0,0,1,15.55,11.44ZM13.42,18a2.5,2.5,0,1,0,2.5,2.5A2.5,2.5,0,0,0,13.42,18Zm0,4a1.5,1.5,0,1,1,1.5-1.5A1.5,1.5,0,0,1,13.42,22Zm5.81-14.8a2.5,2.5,0,1,0-2.5-2.5A2.5,2.5,0,0,0,19.23,7.24Zm0-4a1.5,1.5,0,1,1-1.5,1.5A1.5,1.5,0,0,1,19.23,3.24ZM10,11.61a2.5,2.5,0,1,0-2.5-2.5A2.5,2.5,0,0,0,10,11.61Zm0-4a1.5,1.5,0,1,1-1.5,1.5A1.5,1.5,0,0,1,10,7.61Zm2.95,7.93a2.5,2.5,0,1,0-2.5,2.5A2.5,2.5,0,0,0,12.92,15.54ZM10.42,17a1.5,1.5,0,1,1,1.5-1.5A1.5,1.5,0,0,1,10.42,17ZM6.6,13.74a2.5,2.5,0,1,0-2.5,2.5A2.5,2.5,0,0,0,6.6,13.74Zm-4,0a1.5,1.5,0,1,1,1.5,1.5A1.5,1.5,0,0,1,2.6,13.74Zm17.3,2.63a2.5,2.5,0,1,0-2.5-2.5A2.5,2.5,0,0,0,19.9,16.37Zm0-4a1.5,1.5,0,1,1-1.5,1.5A1.5,1.5,0,0,1,19.9,12.37Zm-15-3.44a2.5,2.5,0,1,0-2.5-2.5A2.5,2.5,0,0,0,4.88,8.93Zm0-4a1.5,1.5,0,1,1-1.5,1.5A1.5,1.5,0,0,1,4.88,4.93Z"/></svg>