<svg id="Layer_1" data-name="Layer 1" xmlns="http://www.w3.org/2000/svg" viewBox="0 0 24 24"><path d="M8.78967,11.08923a3.10532,3.10532,0,0,0,3.10388,3.04157l.06226-.00055.10193.0014a3.7286,3.7286,0,0,0,1.72241-.42212l.12512-.0653-.19641-.55585-.06238-.17621-.16577.08612a2.9169,2.9169,0,0,1-1.34387.32813L12.07,13.32574l-.005-.00012-.00427.00025-.07715.00152-.18335-.00793a2.30622,2.30622,0,0,1-2.11694-2.29584l.00793-.19018.00086-.01-.0044-.09742-.00183-.09887a2.92254,2.92254,0,0,1,2.82544-2.91889l.00476-.00018.12073-.00385.18445.00837a2.10173,2.10173,0,0,1,1.92016,2.09216l-.00781.18585-.00061.00684v.00647a2.27292,2.27292,0,0,1-.31482,1.23809.75481.75481,0,0,1-.57739.40308h-.006l-.1377-.069a.61788.61788,0,0,1-.06555-.32855,2.75179,2.75179,0,0,1,.05823-.51239l.35693-1.91529-.11926-.0512a2.76512,2.76512,0,0,0-1.09253-.22437l-.0282.00031V8.54449h-.02148a2.494,2.494,0,0,0-2.48511,2.49341l.00024.00489-.0083.10455-.00024.002-.00012.00525-.00086.03778a1.26911,1.26911,0,0,0,1.23279,1.26691l.00159.00006h.00317a1.70034,1.70034,0,0,0,1.30945-.62555.88467.88467,0,0,0,.83972.62555h.00842a1.73111,1.73111,0,0,0,1.35242-.68243,2.89037,2.89037,0,0,0,.56848-1.83161v-.2442l-.00024-.00574a2.91588,2.91588,0,0,0-2.91089-2.77716l-.13989.00348-.01575.0008-.01587.004a3.86516,3.86516,0,0,0-3.73328,3.85932l.00159.09906-.00293.19861Zm4.02222-.70221a1.84325,1.84325,0,0,1-.44678.82331,1.02584,1.02584,0,0,1-.60241.38788.4392.4392,0,0,1-.36316-.15351.67916.67916,0,0,1-.12769-.434l-.00024-.0083-.0022-.07739A1.53349,1.53349,0,0,1,12.6936,9.39679h.001a1.5436,1.5436,0,0,1,.29028.04132Zm7.46289-2.80035V4.0611H14.98657L12.06775,2.11865,9.1095,4.061,3.7251,4.0611V7.59186l-2.208,1.45025V21.89685h20.9657V9.05145Zm0,1.1452.93945.62451-.93945.795ZM12.06641,3.267l1.20337.80383H10.83655ZM4.67419,5.0199H19.32556v5.88159L12.0874,17.06934,8.47205,14.06122l-.03113-.02594-.00012-.00006-.00391.0047L8.436,14.03918l-3.76185-3.1416Zm-.94909,3.719v1.37982l-.93531-.772ZM2.46619,20.939V10.31055l5.36926,4.46478,1.53918,1.2793,2.64783,2.20361.07129.06256,9.43982-7.99554L21.53369,20.939Z"/></svg>