<svg id="Layer_1" data-name="Layer 1" xmlns="http://www.w3.org/2000/svg" width="24" height="24" viewBox="0 0 24 24"><path d="M3.54417,6.37491H4.83336a.31274.31274,0,0,0,0-.62547H3.54417a.31274.31274,0,0,0,0,.62547Zm0-1.25019H4.83336a.31274.31274,0,0,0,0-.62547H3.54417a.31274.31274,0,0,0,0,.62547Zm15.1185-1.0702.0135-.0225a1.37115,1.37115,0,0,1,.50472-.50547l.00675-.00375a.31321.31321,0,0,0-.156-.585.30932.30932,0,0,0-.15749.04275l.0015-.00075a2.00757,2.00757,0,0,0-.73422.73121l-.00525.00975a.30875.30875,0,0,0-.04874.168.313.313,0,0,0,.576.16949l.00075-.0015Zm-1.0912,1.69567a3.08218,3.08218,0,0,1,.57522,1.18044l.0045.021c.00975.072.036.28873.05025.52047a.31364.31364,0,0,0,.0255.62622l.024-.00075h1.87415l.0255.00075a.31338.31338,0,0,0,.0285-.62547h-.0015a3.89322,3.89322,0,0,1,.07275-.606l-.0045.02475a3.01262,3.01262,0,0,1,.573-1.08444l-.00375.00524.156-.21373a2.27938,2.27938,0,0,0,.40348-1.30119v-.009c.0015-.0285.00225-.06225.00225-.096a2.18914,2.18914,0,0,0-4.37828,0q0,.05061.00225.10124v-.0045a2.19186,2.19186,0,0,0,.36448,1.14744L17.36,5.42845c.0675.1065.13874.216.21224.32474Zm1.61542-3.1251a1.6169,1.6169,0,0,1,1.56292,1.61542c0,.01575,0,.03225-.00075.048v.00225a1.67054,1.67054,0,0,1-.30223.9607l.00375-.00525-.1455.20624a3.48979,3.48979,0,0,0-.666,1.28619l-.006.02475a4.46923,4.46923,0,0,0-.0825.69821v.009h-.72371c-.01425-.255-.042-.49347-.05625-.597A3.59424,3.59424,0,0,0,18.08519,5.4l.006.0075c-.07049-.105-.13724-.20774-.19874-.31274a1.54171,1.54171,0,0,1-.26848-.80621V4.28476c-.00075-.0135-.00075-.02925-.00075-.04575A1.6165,1.6165,0,0,1,19.18389,2.6236h.003ZM16.42928,15.74344a.55588.55588,0,0,0,0-.78146l-.20024-.20024a4.99186,4.99186,0,0,0,.70646-1.68517l.006-.033h.28274a.55676.55676,0,0,0,.55647-.55422v-.177h1.09345v4.06255a.31273.31273,0,0,0,.62546,0V9.03127a.31273.31273,0,0,0-.62546,0h0v2.65637H17.78071V11.5144a.55627.55627,0,0,0-.55647-.55647H16.943a5.04777,5.04777,0,0,0-.72446-1.73767l.012.01875.20024-.20024a.55588.55588,0,0,0,0-.78146h0l-.681-.68921a.55588.55588,0,0,0-.78146,0l-.19949.20024a4.99188,4.99188,0,0,0-1.68517-.70647l-.033-.006V6.77464a.55628.55628,0,0,0-.55648-.55648H11.514a.55628.55628,0,0,0-.55647.55648v.28123a5.04766,5.04766,0,0,0-1.73766.72447l.01875-.012L9.0384,7.5681a.55586.55586,0,0,0-.78146,0h0l-.68922.681a.55588.55588,0,0,0,0,.78146l.20024.20024a4.99186,4.99186,0,0,0-.70646,1.68517l-.006.033H6.77426a.55627.55627,0,0,0-.55647.55647h0v.18149H4.34288V8.24981a.31274.31274,0,0,0-.62547,0h0V15.4367a.31274.31274,0,1,0,.62547,0h0V12.31161H6.21779v.17324a.55628.55628,0,0,0,.55647.55647H7.0555A5.04777,5.04777,0,0,0,7.78,14.779l-.012-.01875-.20024.20024a.55588.55588,0,0,0,0,.78146l.68772.68771a.55586.55586,0,0,0,.78146,0l.20024-.20024a4.98537,4.98537,0,0,0,1.68516.70647l.033.006v.28273a.55629.55629,0,0,0,.55422.55648h.97495a.55628.55628,0,0,0,.55648-.55648v-.28123a5.04782,5.04782,0,0,0,1.73766-.72447l-.01875.012.20024.20024a.55586.55586,0,0,0,.78146,0h0Zm-1.41218-.1395a.31269.31269,0,0,0-.40723-.03l.00075-.00075a4.38117,4.38117,0,0,1-1.90416.798l-.02549.00375a.31234.31234,0,0,0-.264.309v.00375h0v.46873h-.83471v-.47248a.31219.31219,0,0,0-.26249-.30823h-.0015a4.423,4.423,0,0,1-1.94165-.80846l.012.00825a.313.313,0,0,0-.40648.03075h0l-.33448.33448L8.059,15.352l.33448-.33448a.31267.31267,0,0,0,.03-.40723l.00075.00075a4.379,4.379,0,0,1-.79646-1.90416l-.003-.0255a.31234.31234,0,0,0-.309-.264H6.84326v-.834h.47248a.3122.3122,0,0,0,.30823-.26249v-.0015a4.41415,4.41415,0,0,1,.80846-1.94165l-.00825.012a.313.313,0,0,0-.03075-.40648h0L8.059,8.6488l.58872-.58873.33448.33449a.3127.3127,0,0,0,.40723.03l-.00075.00075a4.379,4.379,0,0,1,1.90416-.79646l.0255-.003a.31235.31235,0,0,0,.264-.309V7.31311h0V6.84439h.83246v.47247a.3122.3122,0,0,0,.26249.30824h.0015a4.41415,4.41415,0,0,1,1.94165.80846l-.012-.00825a.31306.31306,0,0,0,.40648-.03075h0l.33448-.33448.58872.58872-.333.336a.3127.3127,0,0,0-.03.40723l-.00075-.00075a4.382,4.382,0,0,1,.79646,1.90265l.00375.0255a.31235.31235,0,0,0,.309.264H17.156v.83246h-.47247a.3122.3122,0,0,0-.30824.26249v.0015a4.41413,4.41413,0,0,1-.80845,1.94165l.00824-.012a.31306.31306,0,0,0,.03075.40648h0l.33449.33448-.58872.58872ZM12,10.43745h0a.313.313,0,0,0-.31273.31274h0v.93745h-.93746a.31274.31274,0,0,0,0,.62547H12a.313.313,0,0,0,.31273-.31274h0V10.75019h0A.313.313,0,0,0,12,10.43745Zm0-1.8749h0a3.43708,3.43708,0,1,0,3.43708,3.43708h0A3.4372,3.4372,0,0,0,12,8.56255Zm2.49962,3.74981h.294a2.79137,2.79137,0,0,1-.60222,1.44593l.0045-.00525-.20624-.20624a.31288.31288,0,0,0-.44248.44248h0l.20624.19874a2.78154,2.78154,0,0,1-1.42718.60521l-.0135.0015v-.294a.31273.31273,0,0,0-.62546,0h0v.294a2.78934,2.78934,0,0,1-1.44593-.61046l.00525.00375.20624-.20624a.31288.31288,0,0,0-.44248-.44248l-.20624.20624a2.77112,2.77112,0,0,1-.597-1.41968l-.0015-.0135h.294a.31274.31274,0,0,0,0-.62547h-.294A2.79137,2.79137,0,0,1,9.80786,10.241l-.0045.00525.20624.20624a.31288.31288,0,0,0,.44248-.44247h0l-.20624-.19874A2.78147,2.78147,0,0,1,11.673,9.206l.0135-.0015v.294a.31274.31274,0,1,0,.62547,0h0v-.294a2.78927,2.78927,0,0,1,1.44592.61047l-.00525-.00375-.20624.19874a.31288.31288,0,0,0,.44248.44247l.20624-.20624a2.77686,2.77686,0,0,1,.597,1.42793l.0015.01275h-.294a.31274.31274,0,1,0,0,.62547Zm7.42913,9.17729-.86695-1.053V17.62434h0a.313.313,0,0,0-.31274-.31273H16.68652a.313.313,0,0,0-.31274.31273h0V20.4367l-.867,1.05745a.30981.30981,0,0,0-.066.192.31305.31305,0,0,0,.30823.31273h5.939a.31164.31164,0,0,0,.24073-.51l.00075.00075Zm-4.9295-3.55257h3.43708v2.18764H16.99925ZM16.409,21.37416l.51222-.62472h3.59382l.51223.62472ZM5.64407,19.488a1.02692,1.02692,0,0,0-.94421-.10649l.00675-.00225a1.85529,1.85529,0,0,1-.66821.12224,1.88454,1.88454,0,0,1-.681-.12674l.01275.0045a1.00813,1.00813,0,0,0-.363-.066A1.02759,1.02759,0,0,0,2.429,19.491l.00375-.00225A.94906.94906,0,0,0,2,20.28071v1.40618a.313.313,0,0,0,.31273.31273H5.74981a.313.313,0,0,0,.31274-.31273h0V20.26946h0a.9355.9355,0,0,0-.41548-.77846l-.00375-.00225Zm-.20624.79271v1.09345H2.62547V20.271h0a.32223.32223,0,0,1,.144-.26924L2.771,20.001a.397.397,0,0,1,.22349-.0675.38685.38685,0,0,1,.14774.0285l-.003-.00075a2.4662,2.4662,0,0,0,.89171.16349,2.49667,2.49667,0,0,0,.9082-.16949l-.01725.006a.39265.39265,0,0,1,.1455-.027.40081.40081,0,0,1,.225.069l-.0015-.00075a.324.324,0,0,1,.14549.27h.31273ZM4.03165,18.87378a1.25019,1.25019,0,1,0-1.25019-1.25019h0a1.25034,1.25034,0,0,0,1.25019,1.25019Zm0-1.87416a.62472.62472,0,1,1-.62472.62472h0a.62478.62478,0,0,1,.62472-.62472ZM2.78146,7.78109H5.59382a.78145.78145,0,0,0,.78146-.78146h0V3.56255a.78144.78144,0,0,0-.78146-.78146H5.12509v-.156a.62476.62476,0,0,0-.62472-.62471H3.87566a.62476.62476,0,0,0-.62472.62471h0v.156H2.78221a.78144.78144,0,0,0-.78146.78146h0V6.99963a.78145.78145,0,0,0,.78146.78146H2.78146Zm1.0942-5.156h.62471v.62472H3.87566Zm-1.25019.93746a.15586.15586,0,0,1,.156-.156h.46873v.156h0a.313.313,0,0,0,.31273.31273H4.81311a.313.313,0,0,0,.31273-.31273h0v-.156h.46873a.15586.15586,0,0,1,.156.156h0V6.99963h0a.15587.15587,0,0,1-.156.156H2.78221a.15587.15587,0,0,1-.156-.156h0Z"/></svg>