<svg id="Layer_1" data-name="Layer 1" xmlns="http://www.w3.org/2000/svg" xmlns:xlink="http://www.w3.org/1999/xlink" viewBox="0 0 24 24"><defs><style>.cls-1{fill:none;}.cls-2{clip-path:url(#clip-path);}</style><clipPath id="clip-path"><rect class="cls-1" width="24" height="24"/></clipPath></defs><title>E1X_ico_font</title><g id="ico_flow_connection_0"><g class="cls-2"><g class="cls-2"><path d="M19.5,14.5a2.53,2.53,0,0,0-2.18,1.25H17c-2,0-2.95-.95-4.18-2.15A15.91,15.91,0,0,0,11,12a12.51,12.51,0,0,0,1.9-1.65C14.13,9.2,15.07,8.25,17,8.25h.32A2.5,2.5,0,1,0,19.5,4.5a2.53,2.53,0,0,0-2.18,1.25H17c-2.95,0-4.48,1.5-5.82,2.85C9.95,9.8,9,10.75,7,10.75H6.68A2.5,2.5,0,1,0,4.5,14.5a2.53,2.53,0,0,0,2.18-1.25H7c1.93,0,2.88.95,4.07,2.13S14,18.25,17,18.25h.32A2.5,2.5,0,1,0,19.5,14.5m0-9A1.5,1.5,0,1,1,18,7a1.5,1.5,0,0,1,1.5-1.5m-15,8A1.5,1.5,0,1,1,6,12a1.5,1.5,0,0,1-1.5,1.5m15,5A1.5,1.5,0,1,1,21,17a1.5,1.5,0,0,1-1.5,1.5"/></g></g></g></svg>