<svg id="Layer_1" data-name="Layer 1" xmlns="http://www.w3.org/2000/svg" xmlns:xlink="http://www.w3.org/1999/xlink" viewBox="0 0 24 24"><defs><style>.cls-1{fill:none;}.cls-2{clip-path:url(#clip-path);}</style><clipPath id="clip-path"><rect class="cls-1" width="24" height="24"/></clipPath></defs><title>E1X_ico_font</title><g id="ico_edit_pencil_0"><g class="cls-2"><g class="cls-2"><path d="M2.87,22a.55.55,0,0,0,.23,0l6-1.74a1.78,1.78,0,0,0,.86-.51L20.81,8.82a4,4,0,0,0-5.65-5.65L4.3,14.07a2.37,2.37,0,0,0-.51.86L2,20.89a.88.88,0,0,0,.23.86.87.87,0,0,0,.6.26M14.54,6.26l3.22,3.22L9.29,18,6.07,14.73ZM18,3.72a2.41,2.41,0,0,1,1.63.66A2.26,2.26,0,0,1,20.3,6a2.26,2.26,0,0,1-.66,1.63L19,8.25,15.76,5l.63-.63A2.26,2.26,0,0,1,18,3.72M5.18,16.24l2.57,2.57L4.13,19.86Z"/></g></g></g></svg>