<svg id="Layer_1" data-name="Layer 1" xmlns="http://www.w3.org/2000/svg" viewBox="0 0 24 24"><title>E1X_ico_font</title><path d="M16.76,9.66,11.35,7.44c-.36-.14-.57,0-.41.38s.47,1.14.9,2c0,0-3.14.93-3.81,3.44-.74,3.3,2.7,5.15,3,4.77s-1.73-1.72-.62-2.89a10.48,10.48,0,0,1,3-1.67c.41,1,.71,1.82,1,2.44.16.42.39.49.56.07l2.25-5.5C17.32,10.07,17.22,9.84,16.76,9.66ZM18,3.6H3.6V20.4H20.4V6Zm1.2,15.6H18V12h-.66l-.54,1.31V19.2H7.2v-6h.08s0-.07,0-.11A9.92,9.92,0,0,1,7.74,12H6v7.2H4.8V4.8H7.2V9.6h3.22l.39-.19-.44-1h-2V4.8h7.2V8.37l1.2.49V4.8h.7l1.7,1.7Z"/></svg>