<svg id="Layer_1" data-name="Layer 1" xmlns="http://www.w3.org/2000/svg" xmlns:xlink="http://www.w3.org/1999/xlink" viewBox="0 0 24 24"><defs><style>.cls-1{fill:none;}.cls-2{clip-path:url(#clip-path);}</style><clipPath id="clip-path"><rect class="cls-1" width="24" height="24"/></clipPath></defs><title>E1X_ico_font</title><g id="ico_map_tools_location"><g class="cls-2"><g class="cls-2"><path d="M12,3.7a6,6,0,0,0-6,6c0,3,4.69,9,5.22,9.63l.78,1,.78-1c.53-.67,5.22-6.6,5.22-9.63A6,6,0,0,0,12,3.7Zm0,15s-5-6.24-5-9a5,5,0,1,1,10,0C17,12.46,12,18.7,12,18.7Zm0-12a3,3,0,1,0,3,3A3,3,0,0,0,12,6.7Zm0,5a2,2,0,1,1,2-2A2,2,0,0,1,12,11.7Z"/></g></g></g></svg>