<svg id="Layer_1" data-name="Layer 1" xmlns="http://www.w3.org/2000/svg" viewBox="0 0 24 24"><title>E1X_ico_font</title><path d="M17.24,11.6v-.85A2,2,0,0,0,18.5,10,2.22,2.22,0,0,0,19,8.56l-.09-.33L15.3,3.43a.35.35,0,0,0-.17-.15.57.57,0,0,0-.25-.06H5a.44.44,0,0,0-.25.08,1,1,0,0,0-.21.21L1.09,8.85a1.91,1.91,0,0,0,.5,1.2,2.46,2.46,0,0,0,1.13.74V17a1.71,1.71,0,0,0,.53,1.28,1.71,1.71,0,0,0,1.28.53H12a5.22,5.22,0,1,0,5.29-7.18ZM2.66,9.44a1.09,1.09,0,0,1-.36-.71L5.37,4.4h9.34L18,8.82a1,1,0,0,1-.36.65,1.06,1.06,0,0,1-.74.27,1,1,0,0,1-.77-.33,1.16,1.16,0,0,1-.32-.8.49.49,0,0,0-.17-.38.55.55,0,0,0-.42-.17.52.52,0,0,0-.38.17.56.56,0,0,0-.17.37v.17a1.08,1.08,0,0,1-.31.8,1.09,1.09,0,0,1-.82.34,1,1,0,0,1-.78-.34,1.12,1.12,0,0,1-.31-.8V8.6a.56.56,0,0,0-.17-.38.6.6,0,0,0-.38-.17.59.59,0,0,0-.42.17.52.52,0,0,0-.17.38,1.06,1.06,0,0,1-.34.82,1.13,1.13,0,0,1-.8.32,1.1,1.1,0,0,1-.8-.34A1.14,1.14,0,0,1,9,8.6a.51.51,0,0,0-.17-.4.66.66,0,0,0-.42-.15A.58.58,0,0,0,8,8.2a.51.51,0,0,0-.17.4v.13a1.1,1.1,0,0,1-.32.8,1,1,0,0,1-.77.33,1.09,1.09,0,0,1-.82-.33,1.16,1.16,0,0,1-.32-.8V8.6a.53.53,0,0,0-.19-.33A.57.57,0,0,0,5,8.14a.53.53,0,0,0-.36.13.57.57,0,0,0-.18.33,1.13,1.13,0,0,1-.32.8,1,1,0,0,1-.78.34h0A1,1,0,0,1,2.66,9.44ZM8.23,17.6H5.88V12.85H8.23Zm3.32-.82a5.56,5.56,0,0,0,.08.82H9.28V12.18a.5.5,0,0,0-.17-.38.48.48,0,0,0-.37-.17H5.33A.52.52,0,0,0,5,11.8a.5.5,0,0,0-.17.38V17.6H4.61l0,0a.55.55,0,0,1-.44-.18A.64.64,0,0,1,4,17V10.75a2.2,2.2,0,0,0,.61-.26,2.65,2.65,0,0,0,.53-.42,1.8,1.8,0,0,0,.71.57,2.28,2.28,0,0,0,.93.19h0a2.17,2.17,0,0,0,.9-.19,1.77,1.77,0,0,0,.73-.57h0a1.8,1.8,0,0,0,.71.57,2.28,2.28,0,0,0,.93.19,2.36,2.36,0,0,0,.94-.19,1.8,1.8,0,0,0,.74-.57,2.17,2.17,0,0,0,1.68.76,2.37,2.37,0,0,0,1-.19,1.77,1.77,0,0,0,.73-.57,1.69,1.69,0,0,0,.42.38,2.13,2.13,0,0,0,.5.25v.92A5.22,5.22,0,0,0,11.55,16.78Zm7.18,2a1.25,1.25,0,0,1-.28.52,1.72,1.72,0,0,1-.51.39,4.24,4.24,0,0,1-.76.32v1h-.72v-.93A3.14,3.14,0,0,1,16,20a5.52,5.52,0,0,1-.54-.16,2.45,2.45,0,0,1-.49-.23,1.68,1.68,0,0,1-.38-.26l.63-1.18a2.2,2.2,0,0,0,1.42.65.82.82,0,0,0,.51-.16.48.48,0,0,0,.21-.4q0-.35-.51-.51l-.44-.14a4,4,0,0,1-.68-.27,1.83,1.83,0,0,1-.46-.34,1.5,1.5,0,0,1-.26-.44,1.66,1.66,0,0,1-.09-.57,2.31,2.31,0,0,1,.1-.64,1.77,1.77,0,0,1,.3-.56,1.65,1.65,0,0,1,.49-.41,1.85,1.85,0,0,1,.7-.21v-.94h.72v.94a3.26,3.26,0,0,1,1.41.45L18,15.75a1.64,1.64,0,0,0-1-.38.84.84,0,0,0-.49.14.38.38,0,0,0-.18.31.4.4,0,0,0,.15.29.94.94,0,0,0,.38.23l.46.15a2.71,2.71,0,0,1,1.12.65,1.49,1.49,0,0,1,.34,1A2.19,2.19,0,0,1,18.73,18.8Z"/></svg>