<svg id="Layer_1" data-name="Layer 1" xmlns="http://www.w3.org/2000/svg" width="24" height="24" viewBox="0 0 24 24"><path d="M5.88885,8.46814c3.45586,0,4.59588.00146,10.3632,0a.20828.20828,0,0,0,0-.41655h-.9756V6.829h0a.20865.20865,0,0,0-.20827-.20828H13.70674a.20865.20865,0,0,0-.20828.20828h0V8.05159h-.54881V5.08316h0a.20865.20865,0,0,0-.20827-.20827H11.37993a.20865.20865,0,0,0-.20827.20827h0V8.05159h-.54882V5.62394h0a.20865.20865,0,0,0-.20827-.20827H9.05313a.20865.20865,0,0,0-.20828.20827h0V8.05159H8.296V4.30415h0a.20865.20865,0,0,0-.20827-.20827H6.72632a.20865.20865,0,0,0-.20827.20827h0V8.05159H5.88958a.20828.20828,0,0,0,0,.41655H5.88885Zm8.02689-1.4316h.9449V8.05086h-.9449Zm-2.3268-1.74511h.9449V8.05159h-.9449ZM9.2614,5.83221h.9449V8.05159H9.2614ZM6.93386,4.51169h.9449V8.05086h-.9449ZM16.25278,10.165H14.51717a.20827.20827,0,0,0,0,.41654h1.73707a.20827.20827,0,0,0,0-.41654Zm3.76132,4.04852a.19033.19033,0,0,0-.05919.08916v.00146l-.372,1.22406L19.20878,14.31a.18064.18064,0,0,0-.068-.09647h-.00073a.19121.19121,0,0,0-.11254-.0358.19575.19575,0,0,0-.11327.03653l.00073-.00073a.175.175,0,0,0-.068.095V14.31l-.37416,1.21894-.3727-1.22406A.1821.1821,0,0,0,18.041,14.215h0a.16943.16943,0,0,0-.22289.00949h0a.14841.14841,0,0,0-.04458.1067V14.34a.20745.20745,0,0,0,.011.06065l-.00073-.00146.49328,1.51491a.22679.22679,0,0,0,.07673.10816l.00073.00073a.20705.20705,0,0,0,.31789-.10962l.00073-.00146.35443-1.12321.35443,1.12248a.20765.20765,0,0,0,.07454.10815l.00073.00073a.19761.19761,0,0,0,.12277.04166h.00292a.1954.1954,0,0,0,.11839-.03947H19.7006a.23242.23242,0,0,0,.07746-.10888l.00073-.00147.49328-1.5149a.20364.20364,0,0,0,.0095-.05335v-.011a.15482.15482,0,0,0-.04458-.10889h0a.16989.16989,0,0,0-.11619-.04677.167.167,0,0,0-.106.03727h0Zm-4.11648.53786V14.7375a.50682.50682,0,0,0-.18927-.39535l-.00073-.00073a.84139.84139,0,0,0-.48744-.15492q-.03069,0-.06138.00219h-.58463a.15933.15933,0,0,0-.11619.04969h0a.16594.16594,0,0,0-.0475.1162v.00219h0V15.898a.16009.16009,0,0,0,.04823.11474h0a.17063.17063,0,0,0,.11839.04677.16883.16883,0,0,0,.11765-.04677h0a.1606.1606,0,0,0,.0497-.1162v-.00219h0v-.53055h.46769l.02631-.00146a.30688.30688,0,0,1,.19585.07016l-.00073-.00073a.32212.32212,0,0,1,.09354.16223l.00073.00219a1.03,1.03,0,0,1,.02119.21339v.08769a.16013.16013,0,0,0,.04677.114h0a.16533.16533,0,0,0,.1162.04676h.008a.16415.16415,0,0,0,.11546-.0475l.00073-.00073a.1635.1635,0,0,0,.04823-.11546v-.00219h0v-.11547a1.05129,1.05129,0,0,0-.07235-.37343l.0022.00731a.40339.40339,0,0,0-.16516-.20754l-.00146-.00073a.49868.49868,0,0,0,.15785-.14689l.00073-.00146a.52727.52727,0,0,0,.09281-.30181V14.7492h0Zm-.437.21558a.55614.55614,0,0,1-.28354.07746l-.03143-.00073h-.40119v-.53347h.39023c.01608-.00146.03508-.00219.05335-.00219a.61013.61013,0,0,1,.29158.07381l-.00292-.00146a.21762.21762,0,0,1,.08842.17538l-.00073.01389v.00877a.22422.22422,0,0,1-.103.18854l-.00073.00073Zm1.63183-.65624a.25247.25247,0,0,0-.07161-.09354H17.0201a.19173.19173,0,0,0-.11693-.0402h-.03362a.19223.19223,0,0,0-.11765.0402h.00073A.25419.25419,0,0,0,16.681,14.31l-.00073.00146-.64089,1.51345a.18008.18008,0,0,0-.01681.07015h0V15.898a.1657.1657,0,0,0,.046.11474h0a.17048.17048,0,0,0,.2755-.05262l.00073-.00146.14981-.35955h.78413l.15054.36174a.16889.16889,0,0,0,.06212.07308l.00073.00073a.16068.16068,0,0,0,.09135.02777h.00584a.16416.16416,0,0,0,.1162-.049h0a.1626.1626,0,0,0,.046-.114v-.00292h0a.18128.18128,0,0,0-.01753-.07161l.00073.00146Zm-.467.97413.26089-.62774.26089.62774Zm-5.04823,2.13022H5.88885a.20828.20828,0,0,0,0,.41655h5.68839a.20828.20828,0,1,0,0-.41655Zm9.54034-5.0095h-3.328V5.26293a.2169.2169,0,0,0-.05189-.13738h0L15.07988,2.07162A.23545.23545,0,0,0,14.92349,2H5.397A1.047,1.047,0,0,0,4.35129,3.04575v.00146H4.34983A1.04761,1.04761,0,0,0,3.30335,4.093v.00073H3.30262A1.04776,1.04776,0,0,0,2.25614,5.14016V20.95352A1.04761,1.04761,0,0,0,3.30189,22H14.648a1.047,1.047,0,0,0,1.04575-1.04575v-.00073h.00146a1.04761,1.04761,0,0,0,1.04648-1.04574v-.00073h.00073a1.04776,1.04776,0,0,0,1.04648-1.04648V17.83236h3.328a.62735.62735,0,0,0,.627-.627v-4.172a.62735.62735,0,0,0-.627-.627h0ZM15.13176,2.76586l1.99211,2.2888H15.13176ZM15.27865,20.955a.63016.63016,0,0,1-.62921.62921H3.30335a.62969.62969,0,0,1-.6292-.62921V5.14163a.62969.62969,0,0,1,.6292-.62921h.00073V19.90777a1.04761,1.04761,0,0,0,1.04575,1.04648H15.27792Zm1.0472-1.04721a.63016.63016,0,0,1-.6292.62921H4.35055a.62969.62969,0,0,1-.6292-.62921V4.09442a.62969.62969,0,0,1,.6292-.62921H4.352V18.86057A1.0476,1.0476,0,0,0,5.39776,19.907H16.32585Zm1.04721-1.0472a.62968.62968,0,0,1-.6292.6292H5.39776a.62968.62968,0,0,1-.6292-.6292V3.04721a.63015.63015,0,0,1,.6292-.6292h9.31746V5.26366h0a.20865.20865,0,0,0,.20827.20828h2.44957v6.93437H13.57447a.62735.62735,0,0,0-.627.627v4.172a.62735.62735,0,0,0,.627.627h3.79859Zm3.955-1.656a.21052.21052,0,0,1-.21047.21046H13.57447a.21052.21052,0,0,1-.21047-.21046h0v-4.172a.21052.21052,0,0,1,.21047-.21046h7.54311a.21052.21052,0,0,1,.21047.21046h0Zm-8.18547-6.83134h0a.20865.20865,0,0,0-.20828-.20827H5.88739a.20827.20827,0,1,0,0,.41654H12.9343a.20865.20865,0,0,0,.20828-.20827Zm-1.56534,4.79611H5.88739a.20828.20828,0,1,0,0,.41655H11.5787a.20828.20828,0,1,0,0-.41655Zm0-2.24495H5.88885a.20827.20827,0,1,0,0,.41654h5.68839a.20827.20827,0,1,0,0-.41654Z"/></svg>