<svg id="Layer_1" data-name="Layer 1" xmlns="http://www.w3.org/2000/svg" viewBox="0 0 24 24"><path d="M12,7.56a1.28,1.28,0,1,0-1.28-1.28A1.28,1.28,0,0,0,12,7.56Zm4.66,1.37-3.59.5H10.93l-3.59-.5a.65.65,0,0,0-.68.61.65.65,0,0,0,.48.78l3.72.53v2.34L8.85,18a.71.71,0,0,0,.38.92.73.73,0,0,0,.93-.39L12,14.12l1.84,4.44a.72.72,0,0,0,.92.39.71.71,0,0,0,.38-.92l-2-4.84V10.85l3.72-.53a.66.66,0,0,0,.48-.78A.65.65,0,0,0,16.66,8.93ZM12,2A10,10,0,1,0,22,12,10,10,0,0,0,12,2Zm0,19a9,9,0,1,1,9-9A9,9,0,0,1,12,21Z"/></svg>