<?xml version="1.0" encoding="UTF-8"?><svg id="Layer_1" xmlns="http://www.w3.org/2000/svg" width="24" height="24" viewBox="0 0 24 24"><path d="M16.7215,13.71948c.78101,0,1.25-.6925,1.25-1.85345-.00952-1.16101-.48047-1.82703-1.29297-1.82703-.79303,0-1.2655,.6825-1.2655,1.82703,0,.89648,.34351,1.85345,1.30847,1.85345ZM0,0V24H24V0H0ZM23.5,23.5H.5V.5H23.5V23.5Zm-1.5-21.5H2V22H22V2Zm-10,2c-1.49188,0-2.88348,.41589-4.07892,1.12695,.71313-1.54578,2.26776-2.62695,4.07892-2.62695s3.36578,1.08118,4.07892,2.62695c-1.19543-.71106-2.58704-1.12695-4.07892-1.12695Zm4.4599,4.74988c.07831-.00854,.15686-.01385,.2356-.01587,1.62201,0,2.71899,1.25,2.72852,3.10449,0,1.93549-1.07404,3.18549-2.73749,3.18549-1.65704,0-2.72754-1.24048-2.72754-3.15796-.16986-1.55115,.94983-2.94629,2.50092-3.11615Zm-2.80542,2.13263c0,1.34198-.96198,2.17603-2.50897,2.17603-.1355,0-.2215-.00354-.29999-.00653v1.83099l-.26154,.06152h-1.08698l-.06049-.26202v-5.78998l.25299-.0705c.43549-.01154,.98047-.02649,1.51746-.02649,1.8045,0,2.44751,1.07794,2.44751,2.08698Zm-4.88849,.40649l.06152,.26147v.9895l-.26154,.06152h-1.89996v2.2735l-.27051,.0705h-1.09552l-.05249-.27051v-5.79999l.26147-.06049h3.19452c.14136-.00848,.26404,.0965,.27753,.23749l.08795,.87799-.06,.11652-.05945,.07251-.15002,.01648h-2.13348v1.1535h2.09998ZM2.5,2.5h7.35645c-1.27539,.60913-2.25452,1.7356-2.65601,3.11053-.60223,.45306-1.13684,.98767-1.5899,1.5899-1.37506,.40149-2.50146,1.38068-3.11053,2.65601V2.5Zm2.62695,5.42108c-.71106,1.19543-1.12695,2.58704-1.12695,4.07892s.41589,2.88348,1.12695,4.07892c-1.54578-.71313-2.62695-2.26776-2.62695-4.07892s1.08118-3.36578,2.62695-4.07892Zm-2.62695,13.57892v-7.35645c.60907,1.27533,1.73547,2.25452,3.11053,2.65601,.45306,.60223,.98767,1.13684,1.5899,1.5899,.40149,1.37494,1.38062,2.5014,2.65601,3.11053H2.5Zm5.42108-2.62695c1.19543,.71106,2.58704,1.12695,4.07892,1.12695s2.88348-.41589,4.07892-1.12695c-.71313,1.54578-2.26776,2.62695-4.07892,2.62695s-3.36578-1.08118-4.07892-2.62695Zm13.57892,2.62695h-7.35645c1.27539-.60913,2.25452-1.7356,2.65601-3.11053,.60223-.45306,1.13684-.98767,1.5899-1.5899,1.37506-.40149,2.50146-1.38068,3.11053-2.65601v7.35645Zm-2.62695-5.42108c.71106-1.19543,1.12695-2.58704,1.12695-4.07892s-.41589-2.88348-1.12695-4.07892c1.54578,.71313,2.62695,2.26776,2.62695,4.07892s-1.08118,3.36578-2.62695,4.07892Zm2.62695-6.22247c-.60907-1.27533-1.73547-2.25452-3.11053-2.65601-.45306-.60223-.98767-1.13684-1.5899-1.5899-.40149-1.37494-1.38062-2.5014-2.65601-3.11053h7.35645v7.35645Zm-10.65448,1.89655h.29999c1.09998,0,1.09998-.64252,1.09998-.85352-.00049-.66846-.54547-.80896-1.00348-.80896-.15002,0-.289,.00299-.39648,.00696v1.65552Z"/></svg>