<svg id="Layer_1" data-name="Layer 1" xmlns="http://www.w3.org/2000/svg" xmlns:xlink="http://www.w3.org/1999/xlink" viewBox="0 0 24 24"><defs><style>.cls-1{fill:none;}.cls-2{clip-path:url(#clip-path);}</style><clipPath id="clip-path"><rect class="cls-1" width="24" height="24"/></clipPath></defs><title>E1X_ico_font</title><g id="ico_dn_flow_0"><g class="cls-2"><g class="cls-2"><path d="M17.45,15.75H17c-1.6,0-2.55-1.62-3.87-4.3S10.27,5.75,7,5.75H6.67A2.5,2.5,0,1,0,4.5,9.5,2.53,2.53,0,0,0,6.67,8.25H7c1.6,0,2.55,1.63,3.87,4.3s2.85,5.7,6.12,5.7h.45v1.38L22,17l-4.55-2.62ZM4.5,8.5A1.5,1.5,0,1,1,6,7,1.5,1.5,0,0,1,4.5,8.5m7.4-.25h5.55V9.62L22,7,17.45,4.37V5.75H9.22a6.93,6.93,0,0,1,2.68,2.5"/></g></g></g></svg>