<?xml version="1.0" encoding="UTF-8"?><svg id="Layer_1" xmlns="http://www.w3.org/2000/svg" width="24" height="24" viewBox="0 0 24 24"><path d="M14.5677847,12.7350543h2.6592677c-1.3409795-.8670546-2.4707187-2.0235527-3.3061091-3.3845117h2.0124264c-2.0854054-1.6490467-3.4714883-4.0245337-3.8810881-6.6514195-.0452231-.2311002-.0779639-.4645135-.0980232-.6991231-.1639835,2.9047245-1.5828471,5.5946195-3.8875884,7.3701233h2.0189267c-.8440442,1.351069-1.9749798,2.4998305-3.3126493,3.364931h2.6592677s-1.7118565,2.8421938-4.2535203,3.7896051c1.7616258,.4682621,3.6001787,.5727457,5.4034783,.3071101v5.1682306h2.8356935v-5.1486499c1.8032996,.2656755,3.6418525,.161152,5.4034384-.3070702-2.5351236-.9474112-4.2535203-3.8092257-4.2535203-3.8092257Zm-3.240747,8.4939603v-4.5736709c.234809-.0580243,.4565376-.1599955,.6533816-.3005699l-.0980232-.0979833h.1960065l-.0979833,.0979833c.1974023,.1396172,.4188916,.2415486,.6533816,.3005699l.0392013,4.5736709h-1.3459644Z"/></svg>