<svg id="Layer_1" data-name="Layer 1" xmlns="http://www.w3.org/2000/svg" viewBox="0 0 24 24"><title>E1X_ico_font</title><path d="M14.45,17Zm.5-8.5ZM12,11Zm4.15-2.47Zm4.48-2.67h-9.8l-2.91,8.6L5.55,9.56H2.47v1.7H4.64L8,18.19,11.75,7.51h8.84ZM19.1,13.05a.3.3,0,0,0,0-.6.3.3,0,0,0,0,.6ZM11,12.42Zm8.08,2.44a.31.31,0,0,0,0-.61.31.31,0,0,0,0,.61ZM16.4,8.54c-2,0-4.22.61-4.22,2v5.72c0,1.34,2.19,2,4.22,2s4.21-.62,4.21-2V10.49C20.61,9.15,18.42,8.54,16.4,8.54ZM20,16.21c0,.75-1.62,1.35-3.61,1.35s-3.62-.6-3.62-1.35V15.09a5.63,5.63,0,0,0,3.62,1,5.58,5.58,0,0,0,3.61-1Zm0-1.81h0c0,.75-1.62,1.35-3.61,1.35s-3.62-.6-3.62-1.35h0V13.28a5.63,5.63,0,0,0,3.62,1,5.58,5.58,0,0,0,3.61-1Zm0-1.8h0C20,13.35,18.39,14,16.4,14s-3.62-.6-3.62-1.34h0v-1a6.41,6.41,0,0,0,3.62.89A6.4,6.4,0,0,0,20,11.56Zm-3.61-.75c-2,0-3.62-.61-3.62-1.36S14.4,9.14,16.4,9.14,20,9.74,20,10.49,18.39,11.85,16.4,11.85ZM16.61,17Zm-.5.54Zm3-.86a.3.3,0,1,0,0-.6.3.3,0,0,0,0,.6Z"/></svg>