<svg id="Layer_1" data-name="Layer 1" xmlns="http://www.w3.org/2000/svg" viewBox="0 0 24 24"><title>E1X_ico_font</title><path d="M15,2.25,9,3.65,2,2v8.49L3,10V3.31L8,4.49v3L9,7V4.65h.23L15,3.31v16h-.2L9,20.6V17.43l-.66,1.33a1.29,1.29,0,0,1-.34.43v1.25L3,19.26V13.49l-1-.11V20.1l7,1.68,6-1.43L22,22V3.9Zm6,18.44-5-1.18V3.56l5,1.18ZM4.13,12.61l2,.23a.64.64,0,0,1,.53.53l.22,2,.11.95.22,2c0,.14.06.22.11.22s.1-.06.16-.17l2.77-5.59c.12-.24.31-.62.42-.86l2.77-5.59c.09-.17.06-.27,0-.27a.45.45,0,0,0-.17,0L7.61,8.82l-.85.43L1.16,12c-.23.11-.21.23.05.26l2,.23Z"/></svg>