<svg id="Layer_1" data-name="Layer 1" xmlns="http://www.w3.org/2000/svg" viewBox="0 0 24 24"><path d="M21.86914,9.61226,12.39478,2.03277a.63162.63162,0,0,0-.78953,0L2.13089,9.61226a.63162.63162,0,0,0,.3916,1.12429H3.78574V21.47417a.63163.63163,0,0,0,.63163.63162h15.159a.63163.63163,0,0,0,.63162-.63162V10.73655h1.26325a.63162.63162,0,0,0,.39792-1.12429Zm-2.29279-.13895a.63162.63162,0,0,0-.63163.63162V20.84254H5.049V10.10493a.63162.63162,0,0,0-.63162-.63162H4.32262l7.67424-6.13939,7.67423,6.13939Z"/></svg>