<svg id="Layer_1" data-name="Layer 1" xmlns="http://www.w3.org/2000/svg" xmlns:xlink="http://www.w3.org/1999/xlink" viewBox="0 0 24 24"><defs><style>.cls-1{fill:none;}.cls-2{clip-path:url(#clip-path);}</style><clipPath id="clip-path"><rect class="cls-1" width="24" height="24"/></clipPath></defs><title>E1X_ico_font</title><g id="ico_map_tools_layers"><g class="cls-2"><g class="cls-2"><path d="M3.36,11.65a.44.44,0,0,0-.42-.78,1.31,1.31,0,0,0,0,2.31l8,4.5a1.94,1.94,0,0,0,2.17,0l8-4.5A1.33,1.33,0,0,0,21.77,12a1.43,1.43,0,0,0-.71-1.15.44.44,0,1,0-.42.78.41.41,0,0,1,0,.75l-8,4.52s0,0,0,0a1.07,1.07,0,0,1-1.2,0s0,0,0,0l-8-4.52a.41.41,0,0,1,0-.75ZM2.92,9.05l8,4.5a1.94,1.94,0,0,0,2.17,0l8-4.5a1.31,1.31,0,0,0,0-2.31l-8-4.41a1.94,1.94,0,0,0-2.17,0l-8,4.41a1.31,1.31,0,0,0,0,2.31Zm.44-1.51,8-4.41s0,0,0,0a1.07,1.07,0,0,1,1.2,0s0,0,0,0l8,4.41a.41.41,0,0,1,0,.75l-8,4.5s0,0,0,0a1.07,1.07,0,0,1-1.2,0s0,0,0,0l-8-4.52a.43.43,0,0,1-.24-.38A.4.4,0,0,1,3.36,7.54Zm17.69,7.32a.44.44,0,1,0-.42.78.41.41,0,0,1,0,.75l-8,4.52s0,0,0,0a1.07,1.07,0,0,1-1.2,0s0,0,0,0l-8-4.52a.41.41,0,0,1,0-.75.44.44,0,0,0,.18-.6.46.46,0,0,0-.6-.18,1.31,1.31,0,0,0,0,2.31l8,4.5a1.94,1.94,0,0,0,2.17,0l8-4.5A1.32,1.32,0,0,0,21.77,16,1.43,1.43,0,0,0,21.06,14.86Z"/></g></g></g></svg>