<svg id="Layer_1" data-name="Layer 1" xmlns="http://www.w3.org/2000/svg" viewBox="0 0 24 24"><title>E1X_ico_font</title><path d="M13.6,12.89a1,1,0,0,0-.33-.22,2.39,2.39,0,0,0-.48-.12l-.52-.08a.64.64,0,0,1-.22-.06.49.49,0,0,1-.16-.1.33.33,0,0,1-.1-.14.88.88,0,0,1,0-.16.56.56,0,0,1,.15-.39.73.73,0,0,1,.5-.16,1.72,1.72,0,0,1,.44.06.81.81,0,0,1,.43.24l.53-.52a1.63,1.63,0,0,0-.6-.39,2.57,2.57,0,0,0-.78-.11,1.72,1.72,0,0,0-.62.1,1.33,1.33,0,0,0-.47.26,1.21,1.21,0,0,0-.3.41A1.51,1.51,0,0,0,11,12a1.14,1.14,0,0,0,.31.84,1.11,1.11,0,0,0,.34.22,1.82,1.82,0,0,0,.49.13l.51.08.24,0a.67.67,0,0,1,.14.09.49.49,0,0,1,.14.36.48.48,0,0,1-.2.4,1,1,0,0,1-.57.13,1.77,1.77,0,0,1-.56-.08,1,1,0,0,1-.46-.28l-.54.54a1.51,1.51,0,0,0,.69.44,2.57,2.57,0,0,0,.87.13A2.06,2.06,0,0,0,13,15a1.52,1.52,0,0,0,.51-.25,1.19,1.19,0,0,0,.45-1,1.46,1.46,0,0,0-.08-.52A.82.82,0,0,0,13.6,12.89Zm2.51-4.41ZM15,8.48Zm5.64-1V5.81h-9.8l-2.91,8.6L5.55,9.56H2.47v1.7H4.64L8,18.19,11.75,7.51ZM16.61,9ZM20,13.58Zm-3.93,3.94Zm3.31-3.21V10.78h-.84v4.27h2.77v-.74Zm-1.8-.18a1.87,1.87,0,0,0,.08-.34c0-.12,0-.26,0-.4v-1a3.06,3.06,0,0,0-.06-.45,1.14,1.14,0,0,0-.13-.38,1.25,1.25,0,0,0-.24-.34,1.36,1.36,0,0,0-.5-.33,1.6,1.6,0,0,0-.65-.12,1.64,1.64,0,0,0-.65.12,1.33,1.33,0,0,0-.49.33,1.29,1.29,0,0,0-.25.34,1.42,1.42,0,0,0-.13.38c0,.14,0,.29-.05.45s0,.35,0,.56,0,.38,0,.55,0,.31.05.45a1.42,1.42,0,0,0,.13.38,1.29,1.29,0,0,0,.25.34,1.54,1.54,0,0,0,1.14.45,1.75,1.75,0,0,0,.48-.06,1.46,1.46,0,0,0,.38-.17l.39.37.44-.44-.37-.36A1.4,1.4,0,0,0,17.62,14.13Zm-.74-.69a1.39,1.39,0,0,1-.06.34l-.32-.32-.44.44.37.37a.51.51,0,0,1-.28.07.73.73,0,0,1-.3-.06.86.86,0,0,1-.24-.17.38.38,0,0,1-.09-.15.73.73,0,0,1-.07-.21q0-.12,0-.33c0-.13,0-.3,0-.5s0-.38,0-.51,0-.25,0-.34a1,1,0,0,1,.07-.21.6.6,0,0,1,.09-.15.84.84,0,0,1,.24-.16.73.73,0,0,1,.3-.06.75.75,0,0,1,.31.06.79.79,0,0,1,.23.16l.1.15a1.05,1.05,0,0,1,.06.21,2.45,2.45,0,0,1,0,.34c0,.13,0,.3,0,.51S16.89,13.31,16.88,13.44ZM16.61,17ZM15,17.52Zm-.5-.54Z"/></svg>