<svg id="Layer_1" data-name="Layer 1" xmlns="http://www.w3.org/2000/svg" viewBox="0 0 24 24"><title>E1X_ico_font</title><path d="M20.32,12.88a1.66,1.66,0,0,0-.21-.51,3.41,3.41,0,0,0-.92-.85,6.86,6.86,0,0,0-6.31-9.58A6.88,6.88,0,0,0,6,8.81a7,7,0,0,0,.43,2.39L1.62,14.08v3.48h2.5a2.5,2.5,0,1,0,5,0h2.4A5.63,5.63,0,0,0,17.25,23,5.62,5.62,0,0,0,23,17.52,5.46,5.46,0,0,0,20.32,12.88ZM12.88,3.19A5.62,5.62,0,0,1,18.5,8.81a5.5,5.5,0,0,1-.41,2.07,12.77,12.77,0,0,0-1.31-.57,4.19,4.19,0,1,0-8.1-1.5,4,4,0,0,0,.21,1.25H8.33l-.78.47a5.4,5.4,0,0,1-.3-1.72A5.63,5.63,0,0,1,12.88,3.19Zm2.94,5.62a2.91,2.91,0,0,1-.29,1.25H10.22a2.91,2.91,0,0,1-.29-1.25,2.95,2.95,0,0,1,5.89,0Zm-9.2,10a1.25,1.25,0,1,1,1.26-1.25A1.25,1.25,0,0,1,6.62,18.81Zm2.16-2.5a2.48,2.48,0,0,0-4.31,0H2.88V14.79l5.79-3.48H15.9l0,0a16,16,0,0,1,1.66.71l-.36,0a5.7,5.7,0,0,0-5.59,4.29ZM17.91,18v3.95h-1V18H13V17h3.95V13h1v4h3.95v1Z"/></svg>