<svg id="Layer_1" data-name="Layer 1" xmlns="http://www.w3.org/2000/svg" width="24" height="24" viewBox="0 0 24 24"><path d="M12.00037,6.06277A2.03082,2.03082,0,1,0,9.96955,4.032h0a2.0309,2.0309,0,0,0,2.03082,2.03082Zm0-3.437A1.40613,1.40613,0,1,1,10.59425,4.032h0a1.40616,1.40616,0,0,1,1.40612-1.40613ZM19.6872,5.28209h.0045a.43294.43294,0,0,1,.43271.426v2.855a2.03765,2.03765,0,0,1,.62545.41321l-.00075-.00075V5.7088A1.05781,1.05781,0,0,0,19.6917,4.65739h-.0015a2.05987,2.05987,0,0,1-.80243.6202l-.0135.00525Zm-1.7496,5.1558a1.40613,1.40613,0,1,0,1.40613-1.40613h0a1.40568,1.40568,0,0,0-1.40613,1.40613Zm2.18681,0a.78143.78143,0,1,1-.78143-.78143h0a.78141.78141,0,0,1,.78143.78143ZM18.09359,4.81338a1.40613,1.40613,0,1,0-1.40613-1.40613h0a1.40569,1.40569,0,0,0,1.40613,1.40613Zm0-2.18756a.78143.78143,0,1,1-.78143.78143h0a.78141.78141,0,0,1,.78143-.78143Zm-3.54344,3.125h-.528a2.67858,2.67858,0,0,1-.76719.61794l-.01424.00675h1.30338a.8968.8968,0,0,1,.89392.89692v.003h0v6.61967a.29276.29276,0,0,1-.28722.29248h-.80618V12.31272a.31273.31273,0,0,0-.62545,0h0V21.0922a.28257.28257,0,0,1-.26547.282h-1.1414V16.99981a.31273.31273,0,0,0-.62545,0h0v4.37437H10.54625a.28321.28321,0,0,1-.26622-.282V12.31272a.31273.31273,0,0,0-.62545,0h0v2.18756H8.8484a.29226.29226,0,0,1-.28722-.29247v-.00375h0V7.27241a.89685.89685,0,0,1,.88717-.89692h1.30039A2.69263,2.69263,0,0,1,9.9703,5.7538l-.003-.00375h-.519A1.52221,1.52221,0,0,0,7.93573,7.27166v.00675h0v6.92865a.91746.91746,0,0,0,.91192.91717h.80618v5.96722a.9079.9079,0,0,0,.88942.90742H13.45a.90818.90818,0,0,0,.89092-.90742v-6.2792h.80618a.91761.91761,0,0,0,.91267-.91717v-.003h0V7.27241A1.52157,1.52157,0,0,0,14.5479,5.7508h.00225ZM16.497,4.65664a1.06266,1.06266,0,0,0-.99291.68919l-.00225.0075a2.16163,2.16163,0,0,1,.561.405h0V5.70655a.43328.43328,0,0,1,.43271-.42521h.81743a2.05679,2.05679,0,0,1-.81218-.6202l-.003-.0045ZM7.938,5.7583a2.1475,2.1475,0,0,1,.54895-.40047l.012-.006a1.06447,1.06447,0,0,0-.99516-.69519h0a2.05987,2.05987,0,0,1-.80243.6202l-.0135.00525h.81668a.43294.43294,0,0,1,.43271.426h0Zm13.00236,5.929a2.05985,2.05985,0,0,1-.80243.62019l-.0135.00525h.81818a.433.433,0,0,1,.43271.426v4.01589a.05929.05929,0,0,1-.05924.05625h-.411V15.74967a.31272.31272,0,1,0-.62544,0h0v5.55251c0,.0435-.02625.072-.0435.072H19.655V19.03063a.31272.31272,0,0,0-.62544,0h0v2.34355h-.5812c-.01725,0-.0435-.0285-.0435-.072V15.74967a.31272.31272,0,1,0-.62544,0h0v1.25014H17.3699a.0593.0593,0,0,1-.05924-.05624V12.73868a.43309.43309,0,0,1,.43271-.42671h.81743a2.05656,2.05656,0,0,1-.81368-.62094l-.003-.0045h0a1.05732,1.05732,0,0,0-1.05741,1.0514v4.20489a.68639.68639,0,0,0,.68619.68094h.408v3.69042a.68384.68384,0,0,0,.66819.68394H20.2369a.685.685,0,0,0,.66894-.68394V17.43477h.408A.68638.68638,0,0,0,22,16.75383V12.73794a1.05781,1.05781,0,0,0-1.05741-1.05141h-.0015ZM4.657,11.844a1.40613,1.40613,0,1,0-1.40613-1.40612h0A1.40568,1.40568,0,0,0,4.657,11.844Zm0-2.18755a.78143.78143,0,1,1-.78143.78143h0A.78141.78141,0,0,1,4.657,9.65646Zm1.59661,2.03082a2.05985,2.05985,0,0,1-.80243.62019l-.0135.00525h.81668a.433.433,0,0,1,.43271.426v4.01589a.0593.0593,0,0,1-.05925.05625H6.21838V15.74967a.31272.31272,0,0,0-.62544,0h0v5.55251c0,.0435-.02625.072-.0435.072h-.5812V19.03063a.31273.31273,0,0,0-.62545,0h0v2.34355H3.7616c-.01725,0-.0435-.0285-.0435-.072V15.74967a.31273.31273,0,0,0-.62545,0h0v1.25014H2.68319a.05929.05929,0,0,1-.05924-.05624V12.73868a.43309.43309,0,0,1,.43271-.42671h.81743a2.05649,2.05649,0,0,1-.81368-.62094l-.003-.0045h0A1.05732,1.05732,0,0,0,2,12.73793v4.20489a.68639.68639,0,0,0,.68619.68094h.408v3.69042a.68385.68385,0,0,0,.6682.68394H5.55019a.685.685,0,0,0,.66894-.68394V17.43477h.408a.68621.68621,0,0,0,.68619-.68244V12.73869a1.0578,1.0578,0,0,0-1.0574-1.05141H6.25363ZM3.87634,5.70805a.43309.43309,0,0,1,.43271-.42671h.81743a2.0617,2.0617,0,0,1-.81368-.6202l-.003-.0045h0A1.05732,1.05732,0,0,0,3.25239,5.70805V8.97551a2.03065,2.03065,0,0,1,.61195-.40721l.0135-.00525Zm2.03082-.89467A1.40613,1.40613,0,1,0,4.501,3.40725h0A1.40569,1.40569,0,0,0,5.90716,4.81338Zm0-2.18756a.78143.78143,0,1,1-.78143.78143h0a.78141.78141,0,0,1,.78143-.78143Z"/></svg>