<svg id="Layer_1" data-name="Layer 1" xmlns="http://www.w3.org/2000/svg" viewBox="0 0 24 24"><defs><style>.cls-1{fill:none;}</style></defs><path d="M20.93,8.55c-.13.33-.31.28-.44-.05-.19-.48-.43-1.13-.74-1.88a7.8,7.8,0,0,0-2.32,1.29c-.85.9.69,1.93.48,2.23S15.06,9,15.63,6.46c.51-1.94,2.94-2.66,2.94-2.66-.33-.66-.52-1.14-.69-1.53s0-.41.31-.3l4.18,1.71c.35.15.43.32.3.63Z"/><path d="M21.29,14.67v0h0v0h0a.77.77,0,0,0-.21-.41,15.58,15.58,0,0,0-2.17-2,14,14,0,0,0-5.66-2.88,9.74,9.74,0,0,0-3.65,0,11.58,11.58,0,0,0-3.18,1.12,17.22,17.22,0,0,0-4.24,3.14c-.23.23-.46.47-.67.72a.76.76,0,0,0,0,1.05,14,14,0,0,0,2.17,2,13.85,13.85,0,0,0,5.66,2.88,9.34,9.34,0,0,0,3.65.05,11.58,11.58,0,0,0,3.18-1.12A17.35,17.35,0,0,0,20.4,16c.23-.23.46-.46.67-.71a.81.81,0,0,0,.21-.41h0v0h0v-.12m-10,3.89a3.85,3.85,0,1,1,3.85-3.85,3.85,3.85,0,0,1-3.85,3.85m0-5.12a1.28,1.28,0,1,0,1.27,1.27,1.27,1.27,0,0,0-1.27-1.27"/><rect class="cls-1" width="24" height="24"/></svg>