<svg id="Layer_1" data-name="Layer 1" xmlns="http://www.w3.org/2000/svg" xmlns:xlink="http://www.w3.org/1999/xlink" viewBox="0 0 24 24"><defs><style>.cls-1{fill:none;}.cls-2{clip-path:url(#clip-path);}</style><clipPath id="clip-path"><rect class="cls-1" width="24" height="24"/></clipPath></defs><title>E1X_ico_font</title><g id="ico_cd_data_0"><g class="cls-2"><g class="cls-2"><path d="M12,2C7.78,2,3.25,3.27,3.25,6.06V17.94C3.25,20.73,7.78,22,12,22s8.75-1.27,8.75-4.06V6.06C20.75,3.27,16.21,2,12,2m7.5,15.94c0,1.55-3.36,2.81-7.5,2.81s-7.5-1.26-7.5-2.81V15.6c1.29,1.33,4.41,2,7.5,2s6.21-.69,7.5-2Zm0-3.75h0v0C19.5,15.75,16.14,17,12,17s-7.5-1.25-7.5-2.79v0h0V11.85c1.29,1.33,4.41,2,7.5,2s6.21-.69,7.5-2Zm0-3.75h0v0c0,1.54-3.36,2.79-7.5,2.79S4.5,12,4.5,10.46v0h0V8.29c1.64,1.25,4.64,1.83,7.5,1.83s5.86-.59,7.5-1.83ZM12,8.88c-4.14,0-7.5-1.26-7.5-2.81S7.86,3.25,12,3.25s7.5,1.26,7.5,2.81S16.14,8.88,12,8.88"/><path d="M17.63,17.63a.63.63,0,1,1-.62.63.63.63,0,0,1,.63-.62"/><path d="M17.63,13.88a.63.63,0,1,1-.62.63.63.63,0,0,1,.63-.62"/><path d="M17.63,10.13a.63.63,0,1,1-.62.63.63.63,0,0,1,.63-.62"/></g></g></g></svg>