<?xml version="1.0" encoding="UTF-8"?><svg id="Layer_1" xmlns="http://www.w3.org/2000/svg" width="24" height="24" viewBox="0 0 24 24"><path d="M19.1779785,14.7883301c-.0153809-2.8203735-1.6587524-5.2469482-4.03302-6.4093018,.6569214-1.369751,1.2782593-2.8544312,1.2782593-3.5794678,0-1.5461426-1.253418-2.7995605-2.7995605-2.7995605s-2.7995605,1.253418-2.7995605,2.7995605c0,.5982056,.4237061,1.7146606,.9405518,2.8562012-3.8544312,.1252441-6.942749,3.281311-6.942688,7.1662598,.000061,3.9642944,3.2138062,7.1779785,7.1781006,7.1779785,3.9643555-.000061,7.1780396-3.2138062,7.1779785-7.1781616l-.000061-.0335083Zm-7.8051758-6.5005493l.4143677-.0280151v3.1691284c-.9182129-.0217896-1.826416-.1959229-2.687561-.5151367,.5388794-1.0430908,1.3180542-1.9431763,2.2731934-2.6259766Zm.4143677,6.7133179v2.7659912c-.9783936,.0250854-1.9455566,.2143555-2.861145,.5598755-.4833984-1.0378418-.74646-2.1644897-.7727051-3.309082l3.6338501-.0167847Zm-3.6338501-.4255371c.0219116-1.1312256,.2753296-2.2459717,.7446899-3.2754517,.9213867,.3457642,1.894104,.5350342,2.8779907,.5598755v2.7155762h-3.6226807Zm2.3516235-6.1478271c-.7372437,.6585083-1.3482056,1.4459229-1.8029175,2.3236694-.4294434-.1853027-.8416138-.4083252-1.2317505-.6663208,.8453369-.8135986,1.8932495-1.3858643,3.034668-1.6573486Zm-3.3446655,1.9799805c.4193115,.2843628,.8639526,.5291748,1.3290405,.7299805-.4949951,1.0800781-.7636719,2.250061-.7894897,3.4378662h-2.2396851c.0560303-1.5467529,.6587524-3.0231934,1.7001343-4.1678467Zm-1.6889038,4.5933838h2.2340698c.0280762,1.1983643,.3024902,2.3781128,.8062134,3.4658203-.4691772,.2034302-.9189453,.4489136-1.34375,.7335205-1.0459595-1.1541138-1.6473389-2.6425781-1.6965332-4.1993408Zm2.0213013,4.5128784h-.0056152c.3876953-.2636719,.8002319-.4887085,1.2318115-.671875,.449707,.8681641,1.0551147,1.6463013,1.7860718,2.2955933-1.1304932-.2640381-2.1702881-.8244629-3.0122681-1.6237183Zm4.3000488,1.8029175l-.4255371-.0223999c-.9393311-.6790161-1.7064209-1.5688477-2.239624-2.5980225,.8539429-.31604,1.7548828-.4863281,2.6651611-.5039062v3.1243286Zm4.7498169-11.2182617c-.3884888,.2611694-.8015747,.4837036-1.2335205,.6639404-.2144165-.4229736-.46698-.8240356-.7507324-1.2015991,.102478-.1998291,.208252-.4098511,.3156738-.6262817,.6097412,.3011475,1.177063,.6854858,1.6685791,1.1639404Zm-1.6254883,.8319092c-.4159546,.1513672-.8429565,.2670898-1.2761841,.3500366,.0544434-.097229,.3303223-.5933228,.6949463-1.2901001,.213562,.2999268,.413208,.6100464,.5812378,.9400635Zm-1.2821655-7.6091309c.7337646,.0030518,1.3269653,.5988159,1.3269653,1.3325195-.0152588,.7281494-.6099243,1.3103638-1.3381958,1.3102417v.0223389c-.7359619-.0030518-1.3300781-.6021729-1.3269653-1.3381348s.6022339-1.3300781,1.3381958-1.3269653Zm-.0245361,7.9661255c-.4547729,.0852661-.916626,.1331177-1.3808594,.1413574l-.0098877-2.8051147c.6643677,1.3634033,1.3224487,2.5419312,1.3907471,2.6637573Zm-1.3920898,.5724487c.9841309-.0222778,1.9572754-.2116089,2.8779907-.5598755,.4626465,1.0252686,.7122192,2.1339722,.7334595,3.258667h-3.6114502v-2.6987915Zm3.6114502,3.1411133c-.0317993,1.1348267-.2947388,2.2512817-.7727051,3.2810669-.8984375-.3261108-1.8439941-.5038452-2.7994995-.5263062l-.0392456-2.7547607h3.6114502Zm-3.3034668,6.2990112l-.3135376-.0056152v-3.1019287c.8956909,.0213013,1.7822266,.18573,2.6259766,.4871216-.5524292,1.0443115-1.3449707,1.9424438-2.312439,2.6204224Zm.8510742-.1288452l.0111694-.0223389c.7563477-.6480103,1.3865356-1.4300537,1.8588867-2.3068237,.4419556,.1837158,.8656616,.4086914,1.2654419,.671875-.8727417,.8304443-1.9577026,1.4039307-3.135498,1.6572876Zm3.4378662-1.9708252l-.0056152-.0223999c-.4342651-.291687-.8955078-.5410767-1.3773804-.7446899,.5077515-1.0828857,.7860718-2.2590332,.8174438-3.4546509h2.2788696c-.0410767,1.5682983-.6499023,3.0683594-1.7133179,4.2217407Zm-.5599365-4.6248779c-.0230103-1.1797485-.2819214-2.3429565-.7614746-3.4210815,.4734497-.1928711,.9272461-.4310303,1.3549805-.7110596,1.0288696,1.1366577,1.6237183,2.5999756,1.6797485,4.1321411h-2.2732544Z"/></svg>