<svg id="Layer_1" data-name="Layer 1" xmlns="http://www.w3.org/2000/svg" viewBox="0 0 24 24"><title>E1X_ico_font-220</title><path d="M14,19.87l1.42-.42-1-1Zm.76-2L16,19.12l3.32-3.32-1.26-1.27Zm5-5.27v0a4.39,4.39,0,0,0-.79-2.5,4.37,4.37,0,0,0-3.58-6.87,4.21,4.21,0,0,0-.63.06,4.36,4.36,0,0,0-6.47.27,4.37,4.37,0,0,0-4.72,7.16h0a4.38,4.38,0,0,0,3.06,7.5,4.41,4.41,0,0,0,.74-.08,4.3,4.3,0,0,0,4.73,1.8A5.76,5.76,0,0,0,17.25,23,5.62,5.62,0,0,0,23,17.52,5.48,5.48,0,0,0,19.75,12.58Zm-1.25-5a3.08,3.08,0,0,1-.44,1.57,4.38,4.38,0,0,0-2.12-.89,5.12,5.12,0,0,0-.14-.68A4.3,4.3,0,0,0,16,6.31a4.26,4.26,0,0,0-.43-1.85A3.12,3.12,0,0,1,18.5,7.56ZM11.62,3.19a3.13,3.13,0,0,1,3.07,2.5,4.38,4.38,0,0,0-6.13,0A3.13,3.13,0,0,1,11.62,3.19ZM3.5,7.56A3.09,3.09,0,0,1,7.6,4.61a4.2,4.2,0,0,0-.35,1.7A3.73,3.73,0,0,0,7.32,7,4.37,4.37,0,0,0,4,9.28,3.06,3.06,0,0,1,3.5,7.56Zm3.12,9.38A3.13,3.13,0,0,1,3.5,13.81a3,3,0,0,1,.23-1.16,4.35,4.35,0,0,0,2.91,2.84c0,.07,0,.13,0,.2a4.59,4.59,0,0,0,.2,1.23Zm.26-2.68a3.11,3.11,0,0,1,.43-6,3.68,3.68,0,0,0-.06.57A4.35,4.35,0,0,0,8.65,12,4.36,4.36,0,0,0,6.88,14.26Zm4.78,4.47a2.84,2.84,0,0,1-.66.08,3.13,3.13,0,0,1,0-6.25,4.32,4.32,0,0,0,1,2.76,5.24,5.24,0,0,0-.48,2.2A5.34,5.34,0,0,0,11.66,18.73Zm-.46-7.4-.2,0a4.49,4.49,0,0,0-1,.14,3.12,3.12,0,1,1,4.73-3.19A4.34,4.34,0,0,0,11.2,11.33Zm1.51,2.84a3.05,3.05,0,0,1-.46-1.61,3.12,3.12,0,0,1,6.21-.41A6,6,0,0,0,17.25,12,5.82,5.82,0,0,0,12.71,14.17Zm7.83,1.37-4.27,4.27a.66.66,0,0,1-.34.2l-2.33.68h-.09a.34.34,0,0,1-.24-.1.34.34,0,0,1-.09-.33l.69-2.34a.86.86,0,0,1,.2-.33l4.26-4.27a1.55,1.55,0,0,1,2.21,0A1.56,1.56,0,0,1,20.54,15.54Zm-1.1-2a.86.86,0,0,0-.63.27l-.25.24,1.26,1.27.26-.25a.88.88,0,0,0,.26-.64.9.9,0,0,0-.26-.64A1,1,0,0,0,19.44,13.54Z"/></svg>