<svg id="Layer_1" data-name="Layer 1" xmlns="http://www.w3.org/2000/svg" xmlns:xlink="http://www.w3.org/1999/xlink" viewBox="0 0 24 24"><defs><style>.cls-1{fill:none;}.cls-2{clip-path:url(#clip-path);}</style><clipPath id="clip-path"><rect class="cls-1" width="24" height="24"/></clipPath></defs><title>E1X_ico_font</title><g id="ico_help_0"><g class="cls-2"><g class="cls-2"><path d="M11,18h2V16H11ZM12,2A10,10,0,1,0,22,12,10,10,0,0,0,12,2m0,18a8,8,0,1,1,8-8,8,8,0,0,1-8,8M12,6a4,4,0,0,0-4,4h2a2,2,0,0,1,4,0c0,2-3,1.75-3,5h2c0-2.25,3-2.5,3-5a4,4,0,0,0-4-4"/></g></g></g></svg>