<svg id="Layer_1" data-name="Layer 1" xmlns="http://www.w3.org/2000/svg" viewBox="0 0 24 24"><title>E1X_ico_font</title><path d="M19.42,11.9h-8v1.21h8ZM4.19,18A1.2,1.2,0,0,1,3,16.81v-.42h8.12v-1.1c0-1.46-2.92-2.19-4.39-2.19A7.09,7.09,0,0,0,3,14.19v-7A1.2,1.2,0,0,1,4.19,6H19.81A1.2,1.2,0,0,1,21,7.19V14.3A5.18,5.18,0,0,1,22,15V7.19A2.19,2.19,0,0,0,19.81,5H4.19A2.19,2.19,0,0,0,2,7.19v9.62A2.19,2.19,0,0,0,4.19,19h9.45c0-.15,0-.29,0-.44a3.55,3.55,0,0,1,.06-.56Zm7.2-2.63H14.8a4.92,4.92,0,0,1,1.54-1.21H11.39Zm0-5.56V11H17.5V9.81Zm-6.85,0a2.2,2.2,0,1,0,2.19-2.2A2.19,2.19,0,0,0,4.54,9.81Zm17,5.78a4.19,4.19,0,1,0,0,5.93A4.19,4.19,0,0,0,21.5,15.59Zm-2.59,3.34v3h-.74v-3h-3v-.75h3v-3h.74v3h3v.75Zm.51-11.38h-8V8.76h8Z"/></svg>