<svg id="Layer_1" data-name="Layer 1" xmlns="http://www.w3.org/2000/svg" viewBox="0 0 24 24"><title>E1X_ico_font</title><path d="M18.56,14.37a4.19,4.19,0,1,0,4.19,4.19A4.18,4.18,0,0,0,18.56,14.37Zm2.62,6.28-.53.53-2.09-2.09-2.1,2.09-.53-.53L18,18.56l-2.1-2.1.53-.53,2.1,2.1,2.09-2.1.53.53-2.09,2.1ZM15,15.12V15h.13a4.92,4.92,0,0,1,1.5-1H15V10h4v3.67a4.39,4.39,0,0,1,1,.19V4H4V20h9.84a4.39,4.39,0,0,1-.19-1H10V15h4v1.61A5,5,0,0,1,15,15.12ZM15,5h4V9H15ZM9,19H5V15H9Zm0-5H5V10H9Zm1-9h4V9H10Zm0,9V10h4v4Z"/></svg>