<svg id="Layer_1" data-name="Layer 1" xmlns="http://www.w3.org/2000/svg" viewBox="0 0 24 24"><title>E1X_ico_font-220</title><path d="M14,19.87l1.42-.42-1-1Zm.76-2L16,19.12l3.32-3.32-1.26-1.27Zm3.14-6.6a1,1,0,0,1,0-.25A5.42,5.42,0,0,1,19.3,7.51h0a3.62,3.62,0,0,0,.75-1.16A3.65,3.65,0,0,0,20.38,5V4.75a3.14,3.14,0,0,0-3.13-3.13H17a3.55,3.55,0,0,0-1.34.32,3.56,3.56,0,0,0-1.17.75h0l0,0-.19.16a5.59,5.59,0,0,1-.73.5A4.94,4.94,0,0,1,11,4.12,5.42,5.42,0,0,1,7.51,2.7h0a3.56,3.56,0,0,0-1.17-.75A3.55,3.55,0,0,0,5,1.62H4.75A3.14,3.14,0,0,0,1.62,4.75V5a3.65,3.65,0,0,0,.32,1.35A3.62,3.62,0,0,0,2.69,7.5h0l0,0,.16.19a5.59,5.59,0,0,1,.5.73A4.94,4.94,0,0,1,4.12,11,5.42,5.42,0,0,1,2.7,14.49h0a3.56,3.56,0,0,0-.75,1.17A3.55,3.55,0,0,0,1.62,17v.24a3.14,3.14,0,0,0,3.13,3.13H5a3.55,3.55,0,0,0,1.34-.32,3.56,3.56,0,0,0,1.17-.75h0l0,0,.19-.16a5.59,5.59,0,0,1,.73-.5,5.24,5.24,0,0,1,2.24-.7A5.69,5.69,0,0,0,16.25,22,5.62,5.62,0,0,0,22,16.52,5.55,5.55,0,0,0,17.9,11.25Zm-7.38,5.27c0,.05,0,.1,0,.14a6.56,6.56,0,0,0-2.69.86,6.27,6.27,0,0,0-1.22.9,2.56,2.56,0,0,1-.78.5,2.28,2.28,0,0,1-.85.2H4.75a1.86,1.86,0,0,1-1.87-1.87V17a2.28,2.28,0,0,1,.2-.85,2.56,2.56,0,0,1,.5-.78,6.68,6.68,0,0,0,.9-1.22A6.43,6.43,0,0,0,5.38,11a6.43,6.43,0,0,0-.9-3.16,6.27,6.27,0,0,0-.9-1.22h0a2.56,2.56,0,0,1-.5-.78A2.28,2.28,0,0,1,2.88,5V4.75A1.87,1.87,0,0,1,4.75,2.88H5a2.28,2.28,0,0,1,.85.2,2.56,2.56,0,0,1,.78.5h0a6.27,6.27,0,0,0,1.22.9,6.43,6.43,0,0,0,3.16.9,6.43,6.43,0,0,0,3.16-.9,6.27,6.27,0,0,0,1.22-.9h0a2.56,2.56,0,0,1,.78-.5,2.28,2.28,0,0,1,.85-.2h.24a1.87,1.87,0,0,1,1.87,1.87V5a2.28,2.28,0,0,1-.2.85,2.56,2.56,0,0,1-.5.78h0a6.27,6.27,0,0,0-.9,1.22,6.43,6.43,0,0,0-.9,3.16v0l-.38,0A5.62,5.62,0,0,0,10.52,16.52Zm5.75,3.29a.66.66,0,0,1-.34.2l-2.33.68h-.09a.34.34,0,0,1-.24-.1.34.34,0,0,1-.09-.33l.69-2.34a.86.86,0,0,1,.2-.33l4.26-4.27a1.55,1.55,0,0,1,2.21,0,1.56,1.56,0,0,1,0,2.21Zm3.17-6.27a.86.86,0,0,0-.63.27l-.25.24,1.26,1.27.26-.25a.88.88,0,0,0,.26-.64.9.9,0,0,0-.26-.64A1,1,0,0,0,19.44,13.54Z"/></svg>