<svg id="Layer_1" data-name="Layer 1" xmlns="http://www.w3.org/2000/svg" xmlns:xlink="http://www.w3.org/1999/xlink" viewBox="0 0 24 24"><defs><style>.cls-1{fill:none;}.cls-2{clip-path:url(#clip-path);}</style><clipPath id="clip-path"><rect class="cls-1" width="24" height="24"/></clipPath></defs><title>E1X_ico_font</title><g id="ico_add_message_0"><g class="cls-2"><g class="cls-2"><path d="M12,2.47h0C6.53,2.47,2,6.1,2,10.7a7.48,7.48,0,0,0,3.62,6.1L3.9,20.89a.47.47,0,0,0,.65.59l5-2.73a16.84,16.84,0,0,0,2.46.19c5.47,0,10-3.64,10-8.24S17.47,2.47,12,2.47M12,18a16.29,16.29,0,0,1-2.47-.19.47.47,0,0,0-.31,0L5.27,20l1.34-3.19a.46.46,0,0,0-.18-.57C4.29,14.89,2.93,13,2.93,10.7c0-4,4-7.3,9.07-7.3s9.07,3.32,9.07,7.3S17.06,18,12,18M13,6.63H11v3H8v2h3v3h2v-3h3v-2H13Z"/></g></g></g></svg>