<svg id="Layer_1" data-name="Layer 1" xmlns="http://www.w3.org/2000/svg" viewBox="0 0 24 24"><title>E1X_ico_font</title><path d="M22.42,12v0h0a.5.5,0,0,0-.14-.27,9.87,9.87,0,0,0-1.41-1.33,9,9,0,0,0-3.68-1.87,5.91,5.91,0,0,0-2.37,0,7.28,7.28,0,0,0-2.07.72,11.07,11.07,0,0,0-2.76,2c-.15.14-.29.3-.43.46a.5.5,0,0,0,0,.68A9.87,9.87,0,0,0,11,13.67a9.06,9.06,0,0,0,3.68,1.87,5.91,5.91,0,0,0,2.37,0,7.28,7.28,0,0,0,2.07-.72,11.07,11.07,0,0,0,2.76-2,4.68,4.68,0,0,0,.43-.46.5.5,0,0,0,.14-.27h0V12m-6.5,2.52a2.5,2.5,0,1,1,2.5-2.5,2.5,2.5,0,0,1-2.5,2.5m0-3.33a.83.83,0,1,0,.83.83.83.83,0,0,0-.83-.83"/><path d="M7.2,8.9H4.7a1.22,1.22,0,0,0-1.2,1.2v5H4.7v5H7.2v-5H8.4v-5A1.15,1.15,0,0,0,7.2,8.9ZM6,7.7A1.9,1.9,0,1,0,4.1,5.8,1.9,1.9,0,0,0,6,7.7ZM21.72,5.47l-3,3a9.15,9.15,0,0,1,.94.47l2.75-2.74ZM9.33,17.87l.7.71,3-3a9.15,9.15,0,0,1-.94-.47Z"/></svg>