<svg id="Layer_1" data-name="Layer 1" xmlns="http://www.w3.org/2000/svg" xmlns:xlink="http://www.w3.org/1999/xlink" viewBox="0 0 24 24"><defs><style>.cls-1{fill:none;}.cls-2{clip-path:url(#clip-path);}</style><clipPath id="clip-path"><rect class="cls-1" width="24" height="24"/></clipPath></defs><title>E1X_ico_font</title><g id="ico_dn_reports_0"><g class="cls-2"><g class="cls-2"><path d="M10.77,21.14h1.72a.25.25,0,0,0,.25-.25v-13a.25.25,0,0,0-.25-.25H10.77a.25.25,0,0,0-.25.25v13a.25.25,0,0,0,.25.25m.24-13h1.23V20.65H11Zm5.15,13h1.72a.24.24,0,0,0,.25-.25V18.2a.24.24,0,0,0-.25-.25H16.17a.25.25,0,0,0-.25.25v2.7a.25.25,0,0,0,.25.25m.24-2.7h1.23v2.21H16.42Zm2.21,2.7h1.72a.25.25,0,0,0,.25-.25v-1a.25.25,0,0,0-.25-.24H18.63a.25.25,0,0,0-.25.24v1a.25.25,0,0,0,.25.25m.25-1H20.1v.49H18.87Zm-5.4,1h1.72a.24.24,0,0,0,.24-.25V12.06a.24.24,0,0,0-.24-.25H13.47a.25.25,0,0,0-.25.25V20.9a.25.25,0,0,0,.25.25m.24-8.83h1.23v8.34H13.72ZM8.07,21.14H9.79A.25.25,0,0,0,10,20.9V11.32a.25.25,0,0,0-.25-.24H8.07a.25.25,0,0,0-.24.24V20.9a.25.25,0,0,0,.24.25m.24-9.57H9.55v9.08H8.32ZM5.37,21.14H7.09a.25.25,0,0,0,.25-.25V17.21A.24.24,0,0,0,7.09,17H5.37a.24.24,0,0,0-.24.24V20.9a.24.24,0,0,0,.24.25m.25-3.68H6.85v3.19H5.62Zm16.07,4H2.55V2.25a.25.25,0,1,0-.49,0V22H21.69a.25.25,0,0,0,0-.49"/></g></g></g></svg>