<svg id="Layer_1" data-name="Layer 1" xmlns="http://www.w3.org/2000/svg" viewBox="0 0 24 24"><title>E1X_ico_font-220</title><path d="M14.76,17.85,16,19.12l3.32-3.32-1.26-1.27Zm5.56-5a1.66,1.66,0,0,0-.21-.51,3.41,3.41,0,0,0-.92-.85,6.86,6.86,0,0,0-6.31-9.58A6.88,6.88,0,0,0,6,8.81a7,7,0,0,0,.43,2.39L1.62,14.08v3.48h2.5a2.5,2.5,0,1,0,5,0h2.4A5.63,5.63,0,0,0,17.25,23,5.62,5.62,0,0,0,23,17.52,5.46,5.46,0,0,0,20.32,12.88ZM12.88,3.19A5.62,5.62,0,0,1,18.5,8.81a5.5,5.5,0,0,1-.41,2.07,12.77,12.77,0,0,0-1.31-.57,4.19,4.19,0,1,0-8.1-1.5,4,4,0,0,0,.21,1.25H8.33l-.78.47a5.4,5.4,0,0,1-.3-1.72A5.63,5.63,0,0,1,12.88,3.19Zm2.94,5.62a2.91,2.91,0,0,1-.29,1.25H10.22a2.91,2.91,0,0,1-.29-1.25,2.95,2.95,0,0,1,5.89,0Zm-9.2,10a1.25,1.25,0,1,1,1.26-1.25A1.25,1.25,0,0,1,6.62,18.81Zm5-2.5H8.78a2.48,2.48,0,0,0-4.31,0H2.88V14.79l5.79-3.48H15.9l0,0a16,16,0,0,1,1.66.71l-.36,0A5.7,5.7,0,0,0,11.66,16.31Zm8.88-.77-4.27,4.27a.66.66,0,0,1-.34.2l-2.33.68h-.09a.34.34,0,0,1-.24-.1.34.34,0,0,1-.09-.33l.69-2.34a.86.86,0,0,1,.2-.33l4.26-4.27a1.55,1.55,0,0,1,2.21,0A1.56,1.56,0,0,1,20.54,15.54Zm-1.1-2a.86.86,0,0,0-.63.27l-.25.24,1.26,1.27.26-.25a.88.88,0,0,0,.26-.64.9.9,0,0,0-.26-.64A1,1,0,0,0,19.44,13.54ZM14,19.87l1.42-.42-1-1Z"/></svg>