<svg id="Layer_1" data-name="Layer 1" xmlns="http://www.w3.org/2000/svg" viewBox="0 0 24 24"><title>E1X_ico_font</title><path d="M10,11.61a2.5,2.5,0,1,0-2.5-2.5A2.5,2.5,0,0,0,10,11.61ZM6.6,13.74a2.5,2.5,0,1,0-2.5,2.5A2.5,2.5,0,0,0,6.6,13.74ZM4.88,8.93a2.5,2.5,0,1,0-2.5-2.5A2.5,2.5,0,0,0,4.88,8.93ZM19.23,7.24a2.5,2.5,0,1,0-2.5-2.5A2.5,2.5,0,0,0,19.23,7.24Zm-5.85-.38a2.5,2.5,0,1,0-2.5-2.5A2.51,2.51,0,0,0,13.38,6.86Zm6.56,10.91a2.5,2.5,0,1,0,2.5,2.5A2.5,2.5,0,0,0,19.94,17.77Zm0-1.4a2.5,2.5,0,1,0-2.5-2.5A2.5,2.5,0,0,0,19.9,16.37ZM5.42,17a2.5,2.5,0,1,0,2.5,2.5A2.5,2.5,0,0,0,5.42,17Zm10.13-9.6a2.5,2.5,0,1,0,2.5,2.5A2.5,2.5,0,0,0,15.55,7.44ZM13.42,18a2.5,2.5,0,1,0,2.5,2.5A2.5,2.5,0,0,0,13.42,18Zm-.5-2.5a2.5,2.5,0,1,0-2.5,2.5A2.5,2.5,0,0,0,12.92,15.54Z"/></svg>