<?xml version="1.0" encoding="UTF-8"?><svg id="Layer_1" xmlns="http://www.w3.org/2000/svg" width="24" height="24" viewBox="0 0 24 24"><path d="M12.8743347,13.5507141v1.0821496h4.5891086l.0135448-.2444289,.0313493-.5646227,.0151242-.273098h-4.649127Zm2.6975246-2.3211414v-1.0821017h-1.2624919v1.0821017h1.2624919Zm1.9678275,1.4991193l-.0313493-.5645748-.0135927-.2444289h-4.6204101v1.0821017h4.6805242l-.0151721-.273098Zm-.0626986,3.2280698l.0313493-.5646227,.0151242-.273098h-4.649127v1.0821496h4.5891086l.0135448-.2444289Zm-9.0958954,1.584983v1.9687847c.0001436,.7693265-.6201899,1.3962649-1.3904736,1.403492l-.0061263,.0000479-.0061263,.0003829-.072941,.002058c-.6419669,.0001436-1.1817016-.501589-1.2196558-1.1511659l-.0022495-.0784451V4.7680725h12.8132538v12.7348087h1.0821496V3.6545736h-2.2583949v-1.6545736H2.20188V20.3102003h2.5314929c.271375,.9788165,1.153559,1.6776429,2.1870812,1.6859708h12.940757l.1114217,.0038289c.951679-.0001436,1.752977-.7361584,1.8209882-1.6991806l.000335-.004499,.0040204-.1185052,.0001436-.0044511v-2.6152506l-13.4170272-.0163686ZM4.6327679,3.6859708v15.5420799h-.0391986V3.8741624h-1.066451v15.3538883h-.2666367V3.0821496h12.9700482v.6038213H4.6327679ZM20.7787169,20.1926044c-.0007179,.3983038-.3231133,.7206992-.7214649,.7214171H9.0621147c.1381763-.1992476,.2402171-.4060574,.304878-.6188977,.11616-.3797814,.1344431-.7679385,.134826-1.1709806-.0000479-.1614849-.0025845-.3316327-.0047383-.499866h11.2816365v1.5683271Zm-3.7091262-9.7863461v-.2587874h-1.2624919v1.0821017h1.2624919v-.8233143Zm-3.0268599,.8233143v-1.0821017h-1.2624919v1.0821017h1.2624919Zm-5.7556381-.8305414l-.0156986,.5645748-.0074664,.2659666h1.2698625v-1.0821017h-1.2397098l-.0069878,.2515603Zm2.9247712-4.019652l.0037811-.2625206H6.5696768v1.0586017h4.6307003l.0036375-.2550063,.0078493-.5410748Zm-4.8753207,9.8218115h5.8320251v-4.2815025H6.3008864l.0356569,4.2815025Zm1.0769326-3.1994008h3.6807922v2.1172512h-3.7059674l.0251752-2.1172512Zm10.1262109-3.4097523l-.0313493-.5645748-.0135927-.2444289h-4.6204101v1.0821017h4.6805242l-.0151721-.273098Zm-4.9633381,1.6375349v-1.0821017h-1.2624919v1.0821017h1.2624919Zm-6.0066719-2.8699698v.2587395h4.6308439l.0034939-.2551978,.0078493-.572472,.0035896-.2623291H6.5696768v.8312593Zm10.9700578-.014167l-.0313972-.572472-.0134012-.2446204h-4.6206015v1.0899989h4.6803327l-.0149328-.2729065Zm-6.2733564,1.3382567l.0313972-.5567734,.0153636-.2733373H6.6637726v1.0743003h4.5888693l.0137363-.2441896Zm-1.4816499,1.2871406v.2587395h1.2624919v-1.0821017h-1.2624919v.8233622Zm-2.9955106-.5645748v.8233143h1.2624919v-1.0821017h-1.2624919v.2587874Z"/></svg>