<svg id="Layer_1" data-name="Layer 1" xmlns="http://www.w3.org/2000/svg" viewBox="0 0 24 24"><g id="Group_4215" data-name="Group 4215"><g id="SVG-ICON-verify"><path id="verify" d="M21.1968,9.9459l-.4119-.279a1.2768,1.2768,0,0,1-.4992-1.4016l.1344-.48a1.296,1.296,0,0,0-.9024-1.5936l-.1344-.03-.4992-.0864a1.2672,1.2672,0,0,1-1.056-1.0368l-.0864-.4992a1.27679,1.27679,0,0,0-1.47061-1.04773l-.00779.00133-.144.0384-.48.1536a1.296,1.296,0,0,1-1.41-.48l-.3072-.432a1.2768,1.2768,0,0,0-1.776-.2976l-.1248.096-.3648.3456a1.27681,1.27681,0,0,1-1.488.1728l-.432-.24a1.296,1.296,0,0,0-1.75912.51451L7.9701,3.3777l-.0576.1152-.192.48a1.23839,1.23839,0,0,1-1.2576.7968l-.4992-.0192a1.26721,1.26721,0,0,0-1.344,1.3632l.048.4992a1.296,1.296,0,0,1-.7776,1.2768l-.45.192a1.296,1.296,0,0,0-.69,1.6896l.0576.1248.2592.432a1.2768,1.2768,0,0,1-.1536,1.488l-.3168.384A1.2576,1.2576,0,0,0,2.67327,13.977l.00963.00874.1536.1248.4128.2784a1.27681,1.27681,0,0,1,.4956,1.4034l-.192.4992a1.296,1.296,0,0,0,.9024,1.5936l.1344.03.4992.0864a1.2672,1.2672,0,0,1,1.056,1.0368l.0855.4986A1.27679,1.27679,0,0,0,7.701,20.58463l.00779-.00133.144-.0384.48-.1536a1.296,1.296,0,0,1,1.4016.48l.3072.4128a1.2768,1.2768,0,0,0,1.776.2976l.1248-.096.3648-.3456a1.27679,1.27679,0,0,1,1.4877-.1734l.432.24a1.296,1.296,0,0,0,1.75572-.526l.00108-.002.0576-.1152.192-.48a1.23839,1.23839,0,0,1,1.2576-.7968l.4992.0192a1.26721,1.26721,0,0,0,1.344-1.3632l-.0192-.4992a1.296,1.296,0,0,1,.7776-1.2768l.45-.192a1.296,1.296,0,0,0,.69-1.6896l-.0576-.1248-.2592-.432a1.2768,1.2768,0,0,1,.1536-1.488l.3264-.3648a1.25759,1.25759,0,0,0-.048-1.776Zm-8.6319,4.0896-1.776,1.7472L9.0432,14.0169l-1.6896-1.71,1.776-1.7568,1.6896,1.71,4.0416-4.023,1.7472,1.776Z"/></g></g></svg>