<svg id="Layer_1" data-name="Layer 1" xmlns="http://www.w3.org/2000/svg" viewBox="0 0 60.9 16"><title>E1X_ico_font</title><path d="M16.85,9.62a.65.65,0,0,0,.23.52,1.09,1.09,0,0,0,.72.19,2.41,2.41,0,0,0,.5-.05.92.92,0,0,0,.42-.25.67.67,0,0,0,.19-.3A1.72,1.72,0,0,0,19,9.24V8.9H17.78Q16.85,8.9,16.85,9.62Zm31-2.5a.89.89,0,0,0-.31-.36A1,1,0,0,0,47,6.62a1,1,0,0,0-.55.14.89.89,0,0,0-.31.36,1.59,1.59,0,0,0-.13.52,5.88,5.88,0,0,0,0,.6,6.08,6.08,0,0,0,0,.61,1.59,1.59,0,0,0,.13.52.86.86,0,0,0,.31.37,1,1,0,0,0,.55.14,1,1,0,0,0,.55-.14.86.86,0,0,0,.31-.37A1.37,1.37,0,0,0,48,8.85a6.08,6.08,0,0,0,0-.61,5.88,5.88,0,0,0,0-.6A1.37,1.37,0,0,0,47.89,7.12ZM0,0V16H60.94V0ZM12.92,11.54h-1.4L10,6.36,8.38,11.54H7L4.71,3H6.45L7.77,8.39,9.33,3h1.25l1.55,5.39L13.47,3h1.74Zm7.6,0H19V11a2.14,2.14,0,0,1-.66.46,2.19,2.19,0,0,1-.88.14,2.13,2.13,0,0,1-1.59-.55,1.72,1.72,0,0,1-.39-.62,2.2,2.2,0,0,1-.13-.78,1.82,1.82,0,0,1,.13-.7,1.55,1.55,0,0,1,.4-.58A2,2,0,0,1,16.55,8a2.78,2.78,0,0,1,1-.14H19V7.52a1,1,0,0,0-.27-.75,1.4,1.4,0,0,0-.89-.23,1.47,1.47,0,0,0-.68.13,1.59,1.59,0,0,0-.52.41l-1-1a2.46,2.46,0,0,1,1-.7,3.56,3.56,0,0,1,1.28-.19c1.77,0,2.66.74,2.66,2.21ZM25.57,7a1.76,1.76,0,0,0-.36-.28,1.06,1.06,0,0,0-.47-.09,1.13,1.13,0,0,0-.36.06,1,1,0,0,0-.32.21,1.13,1.13,0,0,0-.24.36,1.38,1.38,0,0,0-.09.52v3.77H22.17V5.25H23.7v.6a1.81,1.81,0,0,1,.64-.47,2.18,2.18,0,0,1,.93-.2,2.44,2.44,0,0,1,.8.13,1.88,1.88,0,0,1,.67.46Zm7.29,4.58H31.3V7.76a1.45,1.45,0,0,0-.09-.54A.87.87,0,0,0,31,6.88a.9.9,0,0,0-.34-.2,1.13,1.13,0,0,0-.36-.06,1.19,1.19,0,0,0-.37.06,1,1,0,0,0-.34.2.87.87,0,0,0-.24.34,1.27,1.27,0,0,0-.1.54v3.78H27.66V5.29h1.53v.58a1.89,1.89,0,0,1,.72-.49,2.2,2.2,0,0,1,.84-.16,2.47,2.47,0,0,1,.84.14,2,2,0,0,1,.63.41,1.87,1.87,0,0,1,.51.82,3.28,3.28,0,0,1,.13,1Zm3.24,0H34.54V5.47H36.1Zm0-7.32h-1.6V3h1.6ZM43,11.54H41.47V7.76a1.45,1.45,0,0,0-.09-.54.87.87,0,0,0-.24-.34.94.94,0,0,0-.33-.2,1.24,1.24,0,0,0-.37-.06,1.13,1.13,0,0,0-.36.06.9.9,0,0,0-.34.2,1,1,0,0,0-.25.34,1.45,1.45,0,0,0-.09.54v3.78H37.84V5.29h1.52v.58a2.05,2.05,0,0,1,.72-.49,2.2,2.2,0,0,1,.84-.16,2.47,2.47,0,0,1,.84.14,2,2,0,0,1,.64.41,2.07,2.07,0,0,1,.51.82,3.66,3.66,0,0,1,.12,1Zm6.59-.22a2.66,2.66,0,0,1-.19,1,2.46,2.46,0,0,1-.55.83,2.56,2.56,0,0,1-.87.54,3.39,3.39,0,0,1-1.13.19,3.84,3.84,0,0,1-1.25-.18,2.57,2.57,0,0,1-1-.64l1-1a1.59,1.59,0,0,0,.54.36,1.76,1.76,0,0,0,.68.12,1.29,1.29,0,0,0,.59-.12,1.05,1.05,0,0,0,.39-.29,1.25,1.25,0,0,0,.22-.41,2,2,0,0,0,.06-.48v-.63a1.74,1.74,0,0,1-.67.48,2.29,2.29,0,0,1-.81.14,2.47,2.47,0,0,1-.84-.14,1.85,1.85,0,0,1-.65-.41,2,2,0,0,1-.35-.48,2.25,2.25,0,0,1-.19-.57A4.55,4.55,0,0,1,44.47,9c0-.24,0-.49,0-.77s0-.52,0-.76a4.58,4.58,0,0,1,.08-.66,2.25,2.25,0,0,1,.19-.57,2,2,0,0,1,.35-.48,1.85,1.85,0,0,1,.65-.41,2.57,2.57,0,0,1,.85-.14,2.15,2.15,0,0,1,.85.15,2,2,0,0,1,.67.51V5.29h1.51Zm4.08.22H51.91V9.77H53.7Zm-.32-2.67H52.23L51.84,3h1.93Z"/></svg>