<svg id="Layer_1" data-name="Layer 1" xmlns="http://www.w3.org/2000/svg" width="24" height="24" viewBox="0 0 24 24"><path d="M11.9985,7.16144h0a2.58072,2.58072,0,1,0,2.58072,2.58071h0A2.58352,2.58352,0,0,0,11.9985,7.16144Zm0,4.51569A1.93573,1.93573,0,1,1,13.93423,9.7414h0a1.93792,1.93792,0,0,1-1.935,1.93573H11.9985Z"/><path d="M11.9985,8.45142a1.29,1.29,0,1,0,1.29,1.29h0a1.29135,1.29135,0,0,0-1.29-1.29Zm0,1.93573a.645.645,0,1,1,.645-.645h0a.64544.64544,0,0,1-.645.645Z"/><path d="M20.3849,8.12892a1.61738,1.61738,0,0,0-1.57873,1.27949l-.00225.0105h-.693a6.0983,6.0983,0,0,0-1.563-3.783l.0045.00525.59925-.59924a1.26242,1.26242,0,0,0,.651.183h0a1.29,1.29,0,1,0-1.29-1.29h0a1.27012,1.27012,0,0,0,.186.657l-.003-.00525-.60074.60074a6.05423,6.05423,0,0,0-2.85221-1.446l-.039-.00675a1.257,1.257,0,0,0,.084-.444V3.29a1.29,1.29,0,0,0-2.58,0h0a1.27739,1.27739,0,0,0,.087.453l-.003-.009A6.1,6.1,0,0,0,7.8953,5.19121l.00525-.0045L7.29981,4.586a1.25991,1.25991,0,0,0,.18225-.651h0a1.29,1.29,0,1,0-1.29,1.29h0a1.27007,1.27007,0,0,0,.657-.186l-.00525.003.59925.59924a6.07934,6.07934,0,0,0-1.557,3.762l-.00075.015h-.693a1.61158,1.61158,0,1,0-.0015.657l.0015-.0105h.693a6.09009,6.09009,0,0,0,1.56448,3.7807l-.0045-.00525-.60075.60074a1.26251,1.26251,0,0,0-.651-.183h0a1.29,1.29,0,1,0,1.29,1.29h0a1.2701,1.2701,0,0,0-.186-.657l.003.00525.579-.579.75224.81974A2.97432,2.97432,0,0,1,9.399,16.82657l.0015.0135a.96251.96251,0,0,0-.69674,1.61172L8.703,18.45105a.96411.96411,0,0,0,.71249,1.61322h.03A2.26272,2.26272,0,0,0,11.6775,22h.645A2.26015,2.26015,0,0,0,14.553,20.077l.0015-.01275h.03a.96407.96407,0,0,0,.71174-1.614l.00075.00075a.96258.96258,0,0,0-.69674-1.611h-.00075a2.97831,2.97831,0,0,1,.77024-1.70472l-.00225.00225.75224-.81974.579.579a1.26037,1.26037,0,0,0-.183.651h0a1.29,1.29,0,1,0,1.29-1.29h0a1.27007,1.27007,0,0,0-.657.186l.00525-.003-.60075-.60074a6.0799,6.0799,0,0,0,1.55923-3.76045l.00075-.015h.693A1.61311,1.61311,0,1,0,20.3864,8.12817h0ZM3.61135,10.70964h0a.96749.96749,0,1,1,.96749-.96749h0a.96888.96888,0,0,1-.96749.96749ZM17.46668,9.41891h-1.275V8.54517L15.603,8.33742q-.03-.07575-.063-.15225l.27-.564-.61724-.618.90674-.90674a5.446,5.446,0,0,1,1.368,3.30746l.00075.015Zm-2.41947,1.36873a3.06725,3.06725,0,0,1-.162.38775l.00825-.018-.069.14024.20624.4305-1.04548,1.04549-.4305-.2055-.141.069a2.89273,2.89273,0,0,1-.348.147l-.02175.00675-.14775.051-.15825.44849H11.259l-.15825-.44924-.14774-.051a3.06722,3.06722,0,0,1-.38775-.162l.018.00825-.141-.069-.43049.2055L8.96629,11.72738l.20625-.43049-.069-.14025a2.93158,2.93158,0,0,1-.147-.34725l-.00675-.0225-.05025-.14775L8.4503,10.4809v-1.479l.44924-.15824.05025-.14775a3.06722,3.06722,0,0,1,.162-.38775l-.00825.018.069-.14025-.20625-.43049,1.04549-1.04549.43049.2055.141-.069a2.93158,2.93158,0,0,1,.34725-.147l.02175-.00675.14774-.051.15825-.44849h1.479l.15825.44924.14775.051a3.06722,3.06722,0,0,1,.38775.162l-.018-.00825.141.069.4305-.2055L15.03,7.75618l-.20625.43049.069.14025a2.92994,2.92994,0,0,1,.147.34725l.00676.0225.05024.14775.44925.15824v1.479l-.44924.15824ZM11.9985,18.12855a.645.645,0,1,1,.645-.645h0a.645.645,0,0,1-.645.645ZM17.80493,3.29a.645.645,0,1,1-.645.645h0a.645.645,0,0,1,.645-.645ZM14.73522,6.54869l-.61725-.618-.564.27c-.05025-.0225-.10125-.0435-.15225-.063L13.194,5.549h-.87374V4.53572a1.28945,1.28945,0,0,0,.45449-.2205l-.003.00225a5.43916,5.43916,0,0,1,2.87247,1.33274l-.00525-.0045ZM11.9985,2.645a.645.645,0,1,1-.645.645h0a.64544.64544,0,0,1,.645-.645Zm-.774,1.67173a1.2649,1.2649,0,0,0,.44174.216l.009.00225V5.54821h-.87373l-.20775.58874q-.0765.03-.15225.063l-.564-.27-.61725.618L8.35655,5.6442a5.4201,5.4201,0,0,1,2.838-1.32448l.02925-.00375Zm-5.03244.264a.645.645,0,1,1,.645-.645h0a.64544.64544,0,0,1-.645.645ZM7.8983,6.098l.90674.90674-.61724.618.27.564c-.0225.051-.0435.10125-.063.15225l-.5895.20775v.87374h-1.275a5.45889,5.45889,0,0,1,1.37323-3.327l-.0045.00525Zm-1.36873,3.966h1.275v.87374l.58875.20775q.03.07575.063.15224l-.27.564.61724.618-.903.903a5.43656,5.43656,0,0,1-1.371-3.303l-.00075-.015Zm-.3375,6.12892a.645.645,0,1,1,.645-.645h0a.64543.64543,0,0,1-.645.645Zm2.14348-2.33247.92548-.92548.61725.618.564-.27c.05025.0225.10125.0435.15225.063l.20775.58874H11.676v2.304a1.29721,1.29721,0,0,0-.78525.59325l-.003.006h-.84a3.62427,3.62427,0,0,0-.94424-2.13973l.00225.00225Zm1.08223,3.62321h1.29a1.27856,1.27856,0,0,0,.18224.651l-.003-.006H9.41553a.3225.3225,0,0,1,0-.645Zm2.90322,3.8707h-.645a1.61738,1.61738,0,0,1-1.57874-1.27948l-.0015-.0105h3.80546a1.618,1.618,0,0,1-1.58023,1.29Zm2.25822-1.93573H9.41778a.3225.3225,0,0,1,0-.645h5.16144a.3225.3225,0,0,1,0,.645Zm.32249-1.61248a.323.323,0,0,1-.32249.3225h-1.47a1.26182,1.26182,0,0,0,.17924-.645v-.00075h1.29a.323.323,0,0,1,.32249.32249h0Zm-.01124-3.105A3.61792,3.61792,0,0,0,13.95,16.82431l-.00075.01425h-.84a1.2913,1.2913,0,0,0-.77924-.597l-.009-.00225v-2.304h.87374l.20774-.58874q.0765-.03.15225-.063l.564.27.61724-.618.92549.92549Zm2.91446.20175a.645.645,0,1,1-.645.645h0a.645.645,0,0,1,.645-.645Zm-1.71-1.521-.903-.903.61724-.618-.27-.564c.0225-.051.0435-.10124.063-.15224l.5895-.20775v-.87374h1.275a5.44853,5.44853,0,0,1-1.377,3.32321l.0045-.00525Zm4.28995-2.67222a.96749.96749,0,1,1,.96748-.96749h0a.96887.96887,0,0,1-.96748.96749Z"/></svg>