<svg id="Layer_1" data-name="Layer 1" xmlns="http://www.w3.org/2000/svg" xmlns:xlink="http://www.w3.org/1999/xlink" viewBox="0 0 24 24"><defs><style>.cls-1{fill:none;}.cls-2{clip-path:url(#clip-path);}</style><clipPath id="clip-path"><rect class="cls-1" width="24" height="24"/></clipPath></defs><title>E1X_ico_font</title><g id="ico_chart_3_0"><g class="cls-2"><g class="cls-2"><path d="M20,9.66a2,2,0,0,0-2,2.42l-1.49,1a2,2,0,0,0-2.94-.51L10.94,10a2,2,0,1,0-3.28.27L4.84,13a2,2,0,1,0,.65.48l2.8-2.72a2,2,0,0,0,2.13-.18l2.68,2.56a2,2,0,0,0-.25,1,2,2,0,1,0,4,0,1.93,1.93,0,0,0,0-.3l1.53-1A2,2,0,1,0,20,9.66M4,16a1.21,1.21,0,1,1,1.21-1.21A1.21,1.21,0,0,1,4,16m5.21-5.83A1.21,1.21,0,1,1,10.42,9a1.21,1.21,0,0,1-1.21,1.21m5.64,5.11a1.21,1.21,0,1,1,1.21-1.21,1.21,1.21,0,0,1-1.21,1.21M20,12.87a1.21,1.21,0,1,1,1.21-1.21A1.21,1.21,0,0,1,20,12.87"/></g></g></g></svg>