<svg id="Layer_1" data-name="Layer 1" xmlns="http://www.w3.org/2000/svg" viewBox="0 0 24 24"><path d="M3.36,11.65a.44.44,0,0,0-.42-.78A1.28,1.28,0,0,0,2.25,12a1.31,1.31,0,0,0,.69,1.16l8,4.5a2,2,0,0,0,2.18,0l.68-.39a5.4,5.4,0,0,1,.58-1.35l-1.73,1s0,0,0,0a1.05,1.05,0,0,1-1.2,0s0,0,0,0l-8-4.52A.44.44,0,0,1,3.12,12,.43.43,0,0,1,3.36,11.65Z"/><path d="M20.64,12.4l-2.17,1.22h.07a5.16,5.16,0,0,1,1.37.21l1.17-.65A1.35,1.35,0,0,0,21.77,12a1.44,1.44,0,0,0-.71-1.15.44.44,0,0,0-.6.18.44.44,0,0,0,.18.6.43.43,0,0,1,.24.37A.44.44,0,0,1,20.64,12.4Z"/><path d="M2.92,9.05l8,4.5a1.92,1.92,0,0,0,2.18,0l8-4.5a1.32,1.32,0,0,0,.69-1.15,1.35,1.35,0,0,0-.69-1.16l-8-4.41a2,2,0,0,0-2.18,0l-8,4.41A1.31,1.31,0,0,0,2.23,7.9,1.28,1.28,0,0,0,2.92,9.05Zm.44-1.51,8-4.41s0,0,0,0a1.05,1.05,0,0,1,1.2,0s0,0,0,0l8,4.41a.44.44,0,0,1,.25.38.43.43,0,0,1-.25.38l-8,4.5,0,0a1.09,1.09,0,0,1-1.2,0l0,0-8-4.53a.4.4,0,0,1,0-.73Z"/><path d="M12.63,20.91s0,0,0,0a1.09,1.09,0,0,1-1.2,0s0,0,0,0l-8-4.52A.44.44,0,0,1,3.12,16a.43.43,0,0,1,.24-.37.45.45,0,0,0,.18-.6.47.47,0,0,0-.6-.18A1.29,1.29,0,0,0,2.25,16a1.31,1.31,0,0,0,.69,1.16l8,4.5a2,2,0,0,0,2.18,0L14.27,21a5.3,5.3,0,0,1-.37-.8Z"/><path d="M21.54,18.27v0a.28.28,0,0,1,0-.09h0l-.38,0a.55.55,0,0,1-.27-.1.5.5,0,0,1-.16-.22h0l-.15-.37h0s0-.06,0-.09,0-.07,0-.11a.29.29,0,0,1,0-.09.22.22,0,0,1,0-.08.65.65,0,0,1,.09-.16l.25-.27h0l-.5-.5h0l-.28.25a.47.47,0,0,1-.33.12.51.51,0,0,1-.2,0h0l-.37-.15h0a.45.45,0,0,1-.19-.14s0,0,0,0a.41.41,0,0,1-.1-.27l0-.38h-.7l0,.38a.41.41,0,0,1-.1.27s-.05,0-.07.05a.38.38,0,0,1-.14.11h0l-.37.15h0a.51.51,0,0,1-.2,0h0a.47.47,0,0,1-.33-.12h0l-.23-.21-.05,0-.5.5h0l.25.27h0a.48.48,0,0,1,.12.33s0,.07,0,.11,0,.06,0,.09h0l-.15.37h0a.5.5,0,0,1-.16.22.55.55,0,0,1-.27.1l-.38,0h0a.31.31,0,0,1,0,.09v0c0,.07,0,.16,0,.24h0c0,.09,0,.18,0,.25v0a.28.28,0,0,1,0,.09h0l.38,0a.55.55,0,0,1,.27.1.5.5,0,0,1,.16.22h0l.15.37h0s0,.06,0,.09,0,.07,0,.11a.48.48,0,0,1-.12.33h0l-.25.27h0l.5.51.05-.05.23-.2h0a.86.86,0,0,1,.53-.08l.37.15h0a.76.76,0,0,1,.21.16.41.41,0,0,1,.1.27l0,.38h.7l0-.38a.41.41,0,0,1,.1-.27s0,0,0,0a.45.45,0,0,1,.19-.14h0l.37-.15h0a.51.51,0,0,1,.2,0,.47.47,0,0,1,.33.12l.28.25h0l.5-.51h0l-.25-.27a.65.65,0,0,1-.09-.16.13.13,0,0,1,0-.06.52.52,0,0,1,0-.11s0-.07,0-.11,0-.06,0-.09h0l.15-.37h0a.5.5,0,0,1,.16-.22.55.55,0,0,1,.27-.1l.38,0h0a.28.28,0,0,1,0-.09v0c0-.07,0-.16,0-.24h0C21.55,18.43,21.54,18.34,21.54,18.27Zm-3,1.32a1.08,1.08,0,1,1,1.07-1.08A1.07,1.07,0,0,1,18.52,19.59Z"/><path d="M21.48,15.55a4.19,4.19,0,0,0-7.15,3h0a4.19,4.19,0,1,0,8.38,0h0A4.18,4.18,0,0,0,21.48,15.55Zm-2.13-.11h0Zm0,6.14ZM22,18.94v0h0v0a.47.47,0,0,1-.13.24.41.41,0,0,1-.21.1l-.07,0-.4,0h0l-.16.38h0l.27.31h0a.44.44,0,0,1,0,.58h0l-.6.61h0a.37.37,0,0,1-.14.07.32.32,0,0,1-.14,0,.57.57,0,0,1-.22-.07l-.07-.05,0,0L19.79,21h0l-.38.16h0v.17l0,.23a.21.21,0,0,1,0,.12v0a.5.5,0,0,1-.08.12A.44.44,0,0,1,19,22h0l-.41,0-.41,0h0a.44.44,0,0,1-.27-.14.42.42,0,0,1-.11-.28h0l0-.39h0L17.27,21h0l-.27.24,0,0a.1.1,0,0,1-.05,0,.57.57,0,0,1-.24.08h0a.39.39,0,0,1-.21-.06l-.07,0h0l-.6-.61h0a.46.46,0,0,1-.1-.28.5.5,0,0,1,.11-.3h0l.27-.3h0l-.16-.38h0l-.4,0-.07,0a.41.41,0,0,1-.21-.1A.44.44,0,0,1,15,19h0a.55.55,0,0,1,0-.09v0c0-.08,0-.18,0-.29v0h0c0-.11,0-.21,0-.29v0a.55.55,0,0,1,0-.09h0a.42.42,0,0,1,.14-.27.51.51,0,0,1,.22-.11h.06l.4,0h0l.16-.38h0l-.27-.31h0a.44.44,0,0,1,0-.57h0l.6-.61h0l.07,0a.52.52,0,0,1,.21-.07h0a.46.46,0,0,1,.24.08.1.1,0,0,1,.05,0l0,0,.27.25h0l.38-.16h0l0-.4h0a.41.41,0,0,1,.11-.27.44.44,0,0,1,.27-.14h0l.29,0h.32L19,15h0a.44.44,0,0,1,.27.14.5.5,0,0,1,.08.12v0a.21.21,0,0,1,0,.12l0,.23v.17h0l.38.16h0l.27-.24,0,0,.07,0a.44.44,0,0,1,.22-.07h0a.48.48,0,0,1,.24.09h0l.6.6h0a.44.44,0,0,1,0,.58h0l-.27.31h0l.16.38h0l.4,0,.07,0a.41.41,0,0,1,.21.1A.47.47,0,0,1,22,18s0,0,0,0h0v0a2.66,2.66,0,0,1,0,.42A2.71,2.71,0,0,1,22,18.94Z"/><polygon points="18.07 22 18.07 22 18.07 22 18.07 22"/><path d="M18.52,17.92a.59.59,0,0,0-.59.59h0a.59.59,0,1,0,1.18,0h0A.59.59,0,0,0,18.52,17.92Z"/><polygon points="18.07 15.03 18.07 15.03 18.07 15.03 18.07 15.03"/></svg>