<svg id="Layer_1" data-name="Layer 1" xmlns="http://www.w3.org/2000/svg" xmlns:xlink="http://www.w3.org/1999/xlink" viewBox="0 0 24 24"><defs><style>.cls-1{fill:none;}.cls-2{clip-path:url(#clip-path);}</style><clipPath id="clip-path"><rect class="cls-1" width="24" height="24"/></clipPath></defs><title>E1X_ico_font</title><g id="ico_chart_4_0"><g class="cls-2"><g class="cls-2"><path d="M2.91,17.91a.91.91,0,1,0,.91.91.91.91,0,0,0-.91-.91m3.64-1.82a.91.91,0,1,0,.91.91.91.91,0,0,0-.91-.91m10.91-10a.91.91,0,1,0-.91-.91.91.91,0,0,0,.91.91M6.09,11.55a1.36,1.36,0,1,0,1.36,1.36,1.36,1.36,0,0,0-1.36-1.36M17.45,9.73a2.73,2.73,0,1,0,2.73,2.73,2.73,2.73,0,0,0-2.73-2.73m-6.36,3.64a1.82,1.82,0,1,0,1.82,1.82,1.82,1.82,0,0,0-1.82-1.82M13.36,5.3a1.25,1.25,0,1,0,1.25,1.25A1.25,1.25,0,0,0,13.36,5.3m7.27,1.25A1.36,1.36,0,1,0,22,7.91a1.37,1.37,0,0,0-1.36-1.36M12,9.73a.91.91,0,1,0,.91.91A.91.91,0,0,0,12,9.73"/></g></g></g></svg>