<svg id="Layer_1" data-name="Layer 1" xmlns="http://www.w3.org/2000/svg" viewBox="0 0 24 24"><title>E1X_ico_font</title><path d="M21.34,11.7a.67.67,0,0,0-.66.66v4.88a9,9,0,0,1,0,.9,4.15,4.15,0,0,1-.11.48c0,.09-.06.18-.09.27L20.4,19a3.77,3.77,0,0,1-.28.48l0,0L20,19.6a1.45,1.45,0,0,1-.21.22,1.8,1.8,0,0,1-.2.19l-.08.07,0,0a4.57,4.57,0,0,1-.47.29l-.11.05,0,0-.25.08a4.21,4.21,0,0,1-.48.12,8,8,0,0,1-.85,0H6.52c-.22,0-.44,0-.66,0a4.15,4.15,0,0,1-.48-.11c-.09,0-.18-.06-.27-.09L5,20.4a3.77,3.77,0,0,1-.48-.28l0,0L4.4,20a1.45,1.45,0,0,1-.22-.21,1.8,1.8,0,0,1-.19-.2l-.07-.08,0,0A4.57,4.57,0,0,1,3.61,19l0-.11,0,0c0-.09-.06-.17-.08-.25a4.21,4.21,0,0,1-.12-.48,8,8,0,0,1,0-.85V6.52c0-.22,0-.44,0-.66a4.15,4.15,0,0,1,.11-.48c0-.09.06-.18.09-.27L3.6,5a3.77,3.77,0,0,1,.28-.48l0,0L4,4.4a1.45,1.45,0,0,1,.21-.22A1.8,1.8,0,0,1,4.38,4l.08-.07,0,0A4.57,4.57,0,0,1,5,3.61l.11,0,0,0,.25-.08a2.8,2.8,0,0,1,.5-.12c.4,0,.82,0,1.23,0h4.56a.66.66,0,0,0,0-1.32H6.05A4.24,4.24,0,0,0,2.14,5.15,5.5,5.5,0,0,0,2,6.55v11A5,5,0,0,0,2.2,19a4.24,4.24,0,0,0,2.24,2.56,4.57,4.57,0,0,0,2,.41H17.33a7.74,7.74,0,0,0,1.08-.06,4.25,4.25,0,0,0,2.88-1.84A4.32,4.32,0,0,0,22,17.63V12.36A.67.67,0,0,0,21.34,11.7ZM16.56,6.51,13.42,9.65l-1.8,1.8-.07.07a.66.66,0,0,0,.93.93l1.33-1.33,3-3L19.94,5l.74-.74V7.88a.66.66,0,0,0,1.32,0V2.66A.7.7,0,0,0,22,2.41h0a.41.41,0,0,0-.05-.09l0-.06,0,0,0,0,0,0,0,0-.06,0-.09-.05h0a.7.7,0,0,0-.25,0H16.12a.66.66,0,0,0,0,1.32h3.63l-.2.2Z"/></svg>