<?xml version="1.0" encoding="UTF-8"?><svg id="Layer_1" xmlns="http://www.w3.org/2000/svg" width="24" height="24" viewBox="0 0 24 24"><path d="M9.2999878,8.5012207c0-.000061,.000061-.000061,.000061-.0001221l.0016479-.0038452-.001709,.0039673Zm9.357666,4.8647461l-.0025024-.0024414c-.163269-.1629028-.3811035-.2460327-.5946655-.2454834-.213501-.0005493-.4313354,.0825806-.5946655,.2454834l-5.4443359,5.4510498-5.0181885-5.0182495-.0006714-.0006714c-.1633911-.1629639-.3811646-.2460327-.5947266-.2455444-.2136841-.0004883-.4313354,.0826416-.5945435,.2454224l-.0066528,.0065308-.0062256,.0063477-.0012207,.0012207-.0048828,.0050659c-.1533203,.1594849-.230957,.3687134-.2304688,.5734253-.0005493,.2133179,.0855713,.4293213,.2498169,.590332l-.0014038,.0013428,5.6148682,5.6219482,.0055542,.005188c.1588135,.149292,.368103,.2329102,.5858154,.234436h.0048218l.0094604,.000061c.2195435,0,.4314575-.0834961,.592041-.2345581l.0061646-.0057983,6.0280151-6.0493164,.0031738-.0032349c.1571655-.1634521,.2374878-.3779907,.2369995-.5889282,.0004272-.2109375-.0797729-.4255981-.2371826-.5890503l-.0043945-.0045776Zm1.8856812-2.9162598h-5.8692627c-.2985229,.0026855-.5732422,.1629639-.7225342,.4215088l-1.3474731,2.3279419-1.7512207-4.6700439-.0012207,.0004272c-.1088257-.2980347-.378479-.4971924-.689209-.531189l.0009766-.0046997-.0869141-.0087891c-.0007935,0-.0014038-.0003662-.0021973-.0003662-.0003662,0-.0003662,.000061-.0006714,.000061l-.0005493-.000061-.0005493,.000061c-.0004883,0-.0008545,.0001831-.0013428,.0001831-.0658569,.0016479-.0882568,.0102539-.0894165,.0093994l.0008545,.0039062c-.3006592,.0332031-.5650024,.2190552-.6825562,.5030518l-1.1793213,2.7773438H3.6514893l-.000061,.0039062c-.0010376,0-.0016479,.0002441-.0027466,.0002441v-.0042725c-.0419922,.0006714-.071228,.0061646-.0958252,.0117188-.0040894,.0009155-.0090942,.0006104-.0127563,.0015869-.0258179,.0064697-.0413818,.0132446-.0482788,.0151367l-.0037842,.0014648,.0009155,.0023804c-.3825684,.0769043-.6758423,.3988037-.6760254,.803772,.0003052,.4656982,.3772583,.8425903,.8430176,.8428955h5.0263062c.3347778-.0030518,.6360474-.2038574,.7676392-.5118408l.5809937-1.3773193,1.6589966,4.3648682,.0012207,.0032349c.1174927,.3002319,.3947144,.5082397,.7159424,.5369263l.0328369,.0028687,.0323486-.0018311c.2660522-.0152588,.5087891-.1564941,.6536255-.3800049l.0060425-.0093994,2.0015259-3.4492188h5.4099121c.4656982-.0002441,.8426514-.3772583,.8429565-.8428955-.0003052-.4657593-.3772583-.8427124-.8429565-.8429565Zm-.1088867-5.6296387c-1.0444336-1.0464478-2.418396-1.5720825-3.7885742-1.5715942-1.3679199-.0004883-2.7402344,.5222778-3.7848511,1.5655518l-.8190918,.8190308-.8248291-.8197632-.0003662,.0003662c-1.0274658-1.0757446-2.4325562-1.6552124-3.868103-1.6550903-.6118164-.000061-1.2294922,.1051636-1.8251343,.3215942-2.1731567,.789856-3.5239258,2.8406982-3.5234985,5.0269775-.000061,.6035767,.1033936,1.2177124,.3198242,1.8166504l-.0003052,.000061c.0001831,.0005493,.0006104,.0010376,.0007935,.0015869,.0009155,.0025024,.0014648,.0049438,.0023804,.0074463l.0012817-.0004883c.1168213,.3314819,.4260864,.5568848,.7783203,.5634766l.0018921,.000061h.0784912l.1633301-.0270386,.0361938-.0060425,.0345459-.0117188c.350647-.1199341,.5723877-.4462891,.5720215-.7981567,.000061-.0901489-.0146484-.1821899-.0448608-.2709961-.1333008-.3902588-.197876-.7911987-.197876-1.1890869,.000061-.9587402,.3751831-1.897644,1.0751953-2.5983887,.7189331-.7197876,1.6575928-1.078125,2.6003418-1.0786133,.9419556,.0004883,1.8798218,.3573608,2.598877,1.0751953l1.420166,1.420105,.0026855,.0026245c.1635132,.1572876,.3780518,.2374878,.5890503,.2370605,.2108154,.0004883,.4254761-.0796509,.5889893-.2370605l.0025024-.0024414,1.4205933-1.4205322c.6949463-.6959839,1.6332397-1.0787354,2.6013184-1.0787964,.1862183,0,.3735352,.0141602,.5606079,.0430298,1.8167725,.2792358,3.1165771,1.8470459,3.1165771,3.6282959,0,.1864624-.0142212,.3753052-.0435791,.5657349l-.0003662,.0023804-.0097656,.1272583c.0001221,.4076538,.2959595,.7614746,.7094727,.8257446l.0065308,.0009766,.0025635,.0003662,.1140747,.0075684c.4102173-.000061,.7672119-.2946777,.8378296-.7088623l.0006104-.0037231,.0006714-.0043945c.0395508-.2645264,.059021-.52948,.059021-.7929688,0-1.407959-.5557251-2.7719727-1.5655518-3.7833862Z"/></svg>