<svg id="Layer_1" data-name="Layer 1" xmlns="http://www.w3.org/2000/svg" viewBox="0 0 24 24"><path d="M20,9Zm1.29-4.75Zm-.69,3.48Zm0-3.49ZM9.44,16.11l7.06-3.44-7-3.44Zm8.87-8.92A1.18,1.18,0,1,0,17.14,6,1.17,1.17,0,0,0,18.31,7.19Zm0-1.83a.65.65,0,1,1-.65.65A.66.66,0,0,1,18.31,5.36ZM19.4,10.9a4.62,4.62,0,0,0-.3-1.23.58.58,0,0,0,.12-.3l0-.44v0h0l.42-.18h0L20,9a.51.51,0,0,0,.32.12A.45.45,0,0,0,20.66,9h0l.66-.66h0a.48.48,0,0,0,0-.62L21,7.41h0L21.2,7h0l.44,0h0a.42.42,0,0,0,.3-.13.49.49,0,0,0,.16-.29h0a4.75,4.75,0,0,0,0-.49c0-.24,0-.48,0-.49h0A.49.49,0,0,0,22,5.23a.52.52,0,0,0-.3-.13h0l-.44,0h0L21,4.64h0l.29-.33a.48.48,0,0,0,0-.62h0L20.67,3h0a.45.45,0,0,0-.31-.11A.51.51,0,0,0,20,3h0l-.33.3h0l-.42-.17h0v0h0l0-.45a.52.52,0,0,0-.13-.3.43.43,0,0,0-.29-.15h0a3,3,0,0,0-1,0,.43.43,0,0,0-.29.15.46.46,0,0,0-.13.3l0,.45h0l-.42.17h0L16.59,3h0a.51.51,0,0,0-.32-.12A.45.45,0,0,0,16,3h0l-.66.66h0a.49.49,0,0,0-.1.3.44.44,0,0,0,.12.32l.29.33h0l-.17.42h0L15,5.1h0a.51.51,0,0,0-.46.42h0s0,.25,0,.49a4.75,4.75,0,0,0,0,.49h0a.49.49,0,0,0,.16.29.4.4,0,0,0,.3.13h0l.44,0h0l.17.43h0a3.77,3.77,0,0,0-1,.19A5.26,5.26,0,0,0,10.08,5a5.35,5.35,0,0,0-5.3,5.05A4.55,4.55,0,0,0,6.24,19H17.76a4.25,4.25,0,0,0,4.56-4.08A4.12,4.12,0,0,0,19.4,10.9Zm-4-4.48L15,6.4h0A3.1,3.1,0,0,1,15,6a2.46,2.46,0,0,1,0-.28s0-.08,0-.1h0l.42,0a.57.57,0,0,0,.29-.11.55.55,0,0,0,.18-.24h0l.17-.4h0a.47.47,0,0,0,.05-.22A.52.52,0,0,0,16,4.27L15.72,4l.55-.55.3.27h0a.51.51,0,0,0,.36.14.63.63,0,0,0,.22,0h0l.4-.16h0a.61.61,0,0,0,.24-.17.57.57,0,0,0,.11-.3h0l0-.41h0a2.91,2.91,0,0,1,.38,0h.28l.1,0h0l0,.41a.57.57,0,0,0,.11.3.61.61,0,0,0,.24.17h0l.4.16h0a.59.59,0,0,0,.22,0,.57.57,0,0,0,.36-.13l.3-.27L20.9,4l-.27.3a.52.52,0,0,0-.13.36.6.6,0,0,0,0,.22h0l.17.4h0a.55.55,0,0,0,.18.24.54.54,0,0,0,.29.11l.42,0h0a3.47,3.47,0,0,1,0,.38,2.62,2.62,0,0,1,0,.29s0,.07,0,.1h0l-.42,0a.54.54,0,0,0-.29.12.47.47,0,0,0-.18.23h0l-.17.4h0a.52.52,0,0,0,0,.21.54.54,0,0,0,.13.37l.27.3-.55.55-.3-.27h0a.52.52,0,0,0-.58-.09h0l-.4.17h0a.55.55,0,0,0-.24.18.54.54,0,0,0-.11.29v0a3.45,3.45,0,0,0-1.07-1,3.67,3.67,0,0,0-1.53-.49.39.39,0,0,0-.05-.2h0l-.17-.4h0a.47.47,0,0,0-.18-.23A.58.58,0,0,0,15.44,6.42ZM17.76,18H6.24a3.6,3.6,0,0,1-.89-7.09.48.48,0,0,0,.37-.47A4.4,4.4,0,0,1,10.08,6h0A4.3,4.3,0,0,1,14,8.37a.48.48,0,0,0,.65.22h0a2.64,2.64,0,0,1,2.53.09,2.87,2.87,0,0,1,1.33,2.6.48.48,0,0,0,.4.47,3.18,3.18,0,0,1,2.48,3.13C21.36,16.62,20,18,17.76,18Z"/></svg>