<svg id="Layer_1" data-name="Layer 1" xmlns="http://www.w3.org/2000/svg" viewBox="0 0 24 24"><path d="M2.75,3.5l6,7v10l5-3v-7l5.5-7ZM13,9.88l-.21.27v6.78l-3,1.8v-8.6l-.24-.28L4.92,4.5H17.19Zm3.38,10.89,1.06-.31-.75-.75Zm.57-1.51.94.95,2.49-2.49-.94-.95Zm1.61-4.94a4.2,4.2,0,1,0,4.19,4.19A4.2,4.2,0,0,0,18.52,14.32Zm2.72,3.21L18,20.73a.54.54,0,0,1-.25.15L16,21.39H16a.23.23,0,0,1-.18-.08.25.25,0,0,1-.07-.25l.52-1.75a.64.64,0,0,1,.15-.25l3.19-3.2a1.17,1.17,0,0,1,1.66,1.66ZM20.42,16a.65.65,0,0,0-.48.2l-.18.18.94.95.2-.19a.69.69,0,0,0,0-1A.7.7,0,0,0,20.42,16Z"/></svg>