<svg id="Layer_1" data-name="Layer 1" xmlns="http://www.w3.org/2000/svg" xmlns:xlink="http://www.w3.org/1999/xlink" viewBox="0 0 24 24"><defs><style>.cls-1{fill:none;}.cls-2{clip-path:url(#clip-path);}</style><clipPath id="clip-path"><rect class="cls-1" width="24" height="24"/></clipPath></defs><title>E1X_ico_font</title><g id="ico_duplicate_0"><g class="cls-2"><g class="cls-2"><path d="M13.11,2a1.93,1.93,0,0,0-1.36.52,2,2,0,0,0-.4.59h-.46a.56.56,0,0,0-.36.13L8.74,4.78H6.95a.55.55,0,0,0-.5.56V19.22a.56.56,0,0,0,.56.56H19.22a.56.56,0,0,0,.56-.56V5.33a.56.56,0,0,0-.56-.56H17.48L15.7,3.24a.56.56,0,0,0-.36-.13h-.46a2,2,0,0,0-.4-.59A1.93,1.93,0,0,0,13.11,2m0,1.11a.72.72,0,0,1,.58.21,1.13,1.13,0,0,1,.27.49.56.56,0,0,0,.54.41h.63l.64.56H10.45l.64-.56h.63a.56.56,0,0,0,.54-.41,1.14,1.14,0,0,1,.27-.49.72.72,0,0,1,.58-.21M7.56,5.89H18.67V18.67H7.56Zm-2.84.55a.56.56,0,0,0-.5.56V21.45a.56.56,0,0,0,.56.55H18.11a.56.56,0,1,0,0-1.11H5.33V7a.56.56,0,0,0-.54-.57H4.72"/></g></g></g></svg>