<?xml version="1.0" encoding="UTF-8"?><svg id="Layer_1" xmlns="http://www.w3.org/2000/svg" width="24" height="24" viewBox="0 0 24 24"><path d="M8.6160278,9.7119751c0-.6715698-.5444336-1.2160034-1.2160034-1.2160034-.6716309,0-1.2160034,.5444336-1.2160034,1.2160034s.5443726,1.2160034,1.2160034,1.2160034c.6715698,0,1.2160034-.5444336,1.2160034-1.2160034Zm1.3599854,6.6719971v-3c0-1.3839722-1.2319946-2.1359863-2.5679932-2.1359863s-2.5679932,.7520142-2.5679932,2.1359863v3.0079956c-.0044556,.300415,.2355347,.5475464,.5358887,.5519409,.0026855,.000061,.0053711,.000061,.0080566,.000061,.3040161,0,.5120239-.2479858,.5120239-.552002v-2.7119751c0-.0960083,.1760254-.0960083,.1760254,0v7.9279785c-.0002441,.3358154,.2717896,.6081543,.607605,.6083984,.3358154,.0001831,.6081543-.2718506,.6083984-.607666v-4.6567383c-.0169678-.0640259,.0211792-.1297607,.0852661-.1467285,.0640259-.0169678,.1297607,.0212402,.1467285,.0853271,.0053101,.0200806,.0053101,.0412598,0,.0614014v4.6560059c-.0002441,.3358154,.2718506,.6081543,.607605,.6083984,.3358154,.0001831,.6081543-.2718506,.6083984-.607666v-7.9287109c0-.0960083,.18396-.0960083,.18396,0v2.7039795c-.0132446,.2913208,.2120972,.538208,.503418,.5515137,.0055542,.0002441,.0110474,.0004272,.0166016,.0004883,.2960205,.0001221,.5361328-.2397461,.5362549-.5357666,0-.0053711-.0001221-.0108032-.0002441-.0162354Zm2.4959717,.4800415c-.0799561-.1600342-.3200073-.2640381-.4959717-.2640381h-.8480225c-.1759644,0-.4160156,.1040039-.4959717,.2640381-.3439941,.6719971-.6640015,2.18396-.6640015,2.18396-.0470581,.1226807,.0142822,.2603149,.1370239,.307312,.1226807,.0470581,.2602539-.0143433,.307312-.1370239,.0012817-.003418,.0025024-.0068359,.0036621-.0102539l.447998-1.4559937v.4959717l-.6799927,2.1680298h.7439575v1.5039673c-.000061,.1560059,.1240845,.2836914,.2800293,.2880249,.1546631,.000061,.2800293-.1252441,.2800903-.2799072,0-.0026855,0-.0054321-.0001221-.0081177v-1.4240112c0-.0353394,.0286865-.0639648,.0640259-.0639648s.0640259,.0286255,.0640259,.0639648v1.4240112c-.000061,.1560059,.1240234,.2836914,.2799683,.2880249,.1546631,.000061,.2800293-.1252441,.2801514-.2799072,0-.0026855-.000061-.0054321-.0001221-.0081177v-1.5040283h.7439575l-.6799927-2.1679688v-.4959717l.4400024,1.4559937c.0275269,.1296387,.1549683,.2124023,.2846069,.1848755,.1296997-.0275269,.2124634-.1549683,.1849365-.2846069-.0044556-.0209961-.0117188-.0412598-.0215454-.0603027,.0159912,.0079956-.3120117-1.5039673-.6560059-2.18396ZM22.3759766,7.9760132l-2.5359497-1.552002V3h-2.2080078v2.0799561L12.4559937,1.9119873c-.281189-.1768188-.6387939-.1768188-.9199829,0L1.6160278,7.9760132c-.4241943,.2371826-.5758057,.7733765-.338562,1.1975708,.2371826,.4241333,.7733765,.5757446,1.1975708,.338501,.0180054-.0100708,.0357056-.020752,.0529785-.0321045L12,3.6959839l9.4559937,5.7839966c.4153442,.2540283,.9579468,.1233521,1.2120361-.2919922,.2540283-.4153442,.123291-.9579468-.2920532-1.2119751Zm-6.3905029,3.4082031c.663208,.1057129,1.286499-.3462524,1.3922119-1.0094604s-.3462524-1.286499-1.0094604-1.3922119-1.286499,.3462524-1.3922119,1.0094604c-.1056519,.6625977,.345459,1.2855835,1.0079956,1.3919678,.0004883,.000061,.0009766,.0001831,.0014648,.0002441Zm-3.7774658,4.3997803c0-.3579102-.2901001-.6480103-.6480103-.6480103-.3578491,0-.6480103,.2901001-.6480103,.6480103,0,.3578491,.2901611,.6480103,.6480103,.6480103,.3579102,0,.6480103-.2901611,.6480103-.6480103Zm5.6799927-3.5679932c-.1439819-.2960205-.59198-.4880371-.9199829-.4880371h-1.5840454c-.3279419,0-.776001,.2000122-.9199829,.4880371-.6400146,1.2639771-1.2479858,4.0879517-1.2479858,4.0879517-.0839233,.2297974,.0342407,.4840698,.2639771,.5680542,.2297974,.0839233,.4840698-.0343018,.5679932-.2640381l.8320312-2.7199707v.9199829l-1.2800293,4.0560303h1.3840332v2.815979c-.0001831,.291626,.2360229,.5281372,.5276489,.5283203s.5281372-.2360229,.5283203-.5276489v-2.6726685c-.005127-.0740356,.046814-.1398315,.1199951-.1520386,.074707,.0083008,.128479,.0755005,.1202393,.1501465-.000061,.0006104-.0001221,.0012817-.0001831,.0018921v2.6719971c-.0002441,.291626,.2360229,.5281372,.5276489,.5283203,.2915649,.0001831,.5281372-.2360229,.5283203-.5276489v-2.8166504h1.3839722l-1.2719727-4.0560303v-.9279785l.8239746,2.7199707c.0839844,.2297363,.3382568,.3479614,.5680542,.2640381,.2297363-.0839844,.3479004-.3382568,.2639771-.5680542,.0319824,.0079956-.5759888-2.815979-1.2160034-4.0799561Z"/></svg>