<svg id="Layer_1" data-name="Layer 1" xmlns="http://www.w3.org/2000/svg" xmlns:xlink="http://www.w3.org/1999/xlink" viewBox="0 0 24 24"><defs><style>.cls-1{fill:none;}.cls-2{clip-path:url(#clip-path);}</style><clipPath id="clip-path"><rect class="cls-1" width="24" height="24"/></clipPath></defs><title>E1X_ico_font</title><g id="ico_trash_delete_0"><g class="cls-2"><g class="cls-2"><path d="M20.71,4.58H16.09V3.7A1.7,1.7,0,0,0,14.39,2H9.61a1.7,1.7,0,0,0-1.7,1.7v.87H3.29a.57.57,0,1,0,0,1.14H5.18V20a2.12,2.12,0,0,0,2.08,2h9.47a2.13,2.13,0,0,0,2.08-2.08V5.71h1.89a.57.57,0,1,0,0-1.14M9,3.7a.58.58,0,0,1,.57-.57h4.73a.58.58,0,0,1,.57.57v.87H9Zm8.64,16.17a1,1,0,0,1-.95,1H7.26a1,1,0,0,1-.95-.95V5.71H17.68Z"/><path d="M12,18a.58.58,0,0,0,.57-.57V9.08a.57.57,0,0,0-1.14,0v8.33A.56.56,0,0,0,12,18"/><path d="M14.88,18a.58.58,0,0,0,.57-.57V9.08a.57.57,0,0,0-1.14,0v8.33a.56.56,0,0,0,.57.57"/><path d="M9.12,18a.58.58,0,0,0,.57-.57V9.08a.57.57,0,0,0-1.14,0v8.33a.54.54,0,0,0,.57.57"/></g></g></g></svg>