<svg id="Layer_1" data-name="Layer 1" xmlns="http://www.w3.org/2000/svg" width="24" height="24" viewBox="0 0 24 24"><path d="M17.53739,10.29821a.69289.69289,0,0,0-.678-.55577h0l-.02025-.00075V6.83912a4.83912,4.83912,0,0,0-9.67824,0h0V9.74169l-.02325.00075a.69311.69311,0,0,0-.675.54452l-.00075.0045a61.42627,61.42627,0,0,0-1.209,7.21443l-.027.30076c0,1.35228,2.94307,2.88157,5.41214,3.92559A3.35829,3.35829,0,0,0,11.964,22a3.40333,3.40333,0,0,0,1.48429-.33826l-.02025.009c3.54758-1.68,5.34613-2.97982,5.34613-3.8641,0-1.13928-.94727-6.0354-1.23753-7.50918Zm-9.73-3.45909a4.19335,4.19335,0,1,1,8.3867,0h0V9.71694a9.56614,9.56614,0,0,1-1.353-.19425l.063.01125V6.83837a2.90332,2.90332,0,0,0-5.80664,0h0V9.53394a8.97722,8.97722,0,0,1-1.25854.18075l-.0315.00225Zm6.45166,0V9.37343a9.46444,9.46444,0,0,1-2.14356-.903l.04575.024-.15975-.0915-.15975.0915a9.21463,9.21463,0,0,1-2.031.86177l-.06676.0165V6.83837a2.25831,2.25831,0,0,1,4.51662,0h0ZM13.15278,21.08873a2.74493,2.74493,0,0,1-1.188.26625,2.77605,2.77605,0,0,1-1.09278-.22275l.018.00675c-3.04882-1.29-5.01837-2.59807-5.01837-3.33158a61.93815,61.93815,0,0,1,1.30578-7.80395l-.08325.41851a.04424.04424,0,0,1,.0435-.0345h.00375a10.0825,10.0825,0,0,0,4.91037-1.26978L12,9.14393a10.02156,10.02156,0,0,0,4.85862,1.24353h.0015a.04346.04346,0,0,1,.04275.03525h0c.59252,3.00683,1.22553,6.52517,1.22553,7.38394,0,.44551-1.55778,1.662-4.97712,3.28133Zm3.25958-9.8215-.04725-.243-.24676-.01725a10.69186,10.69186,0,0,1-4.03885-1.092l.06225.02775-.141-.069-.141.069a10.52422,10.52422,0,0,1-3.95185,1.062l-.03375.0015-.24526.0165-.04875.2415a56.94259,56.94259,0,0,0-1.032,6.10815l-.02775.29551-.0045.10875.06226.08926c.36975.528,1.92379,1.56,4.56386,2.67681a2.08747,2.08747,0,0,0,.82352.16576,2.1156,2.1156,0,0,0,.924-.21076l-.01275.00525a17.93462,17.93462,0,0,0,4.54437-2.72032l-.03076.02476.09451-.10351-.01125-.1395c-.08026-1.026-.60077-3.92635-1.06128-6.29941Zm-4.76562,8.76022a1.40471,1.40471,0,0,1-.26326-.0795l.00975.00375a14.92586,14.92586,0,0,1-4.25035-2.39631l.0285.0225c.0735-1.08828.564-3.79735.99377-5.94465a11.3457,11.3457,0,0,0,3.58584-.92552l-.07275.0285v2.23355c-.021-.00075-.04575-.00075-.0705-.00075a2.61706,2.61706,0,0,0-2.28531,1.34029l-.00675.0135a1.61027,1.61027,0,0,0,.42451,3.16358h1.93505Zm-1.9043-3.18758H9.74019a.96538.96538,0,0,1-.153-1.91855l.00525-.00075.1815-.0285.06826-.171a1.93975,1.93975,0,0,1,1.75054-1.10928q.045,0,.09.00225h-.0045c.02475-.0015.05325-.0015.0825-.0015a1.93619,1.93619,0,0,1,1.767,1.143l.00525.012.108.30151.30226-.10576a.9408.9408,0,0,1,.315-.0585h.00075a.96753.96753,0,1,1,0,1.93505H9.74244Zm2.85832,3.08258a1.39735,1.39735,0,0,1-.2985.10275l-.00975.00225.02775-2.54256H14.2628a1.61329,1.61329,0,0,0,0-3.22658h-.0045a1.47818,1.47818,0,0,0-.246.02025l.009-.0015a2.51422,2.51422,0,0,0-1.6823-1.23153l-.0165-.003V10.734a11.07413,11.07413,0,0,0,3.45684.89327l.045.00375c.40651,2.1113.882,4.76037.99153,5.8389A19.40735,19.40735,0,0,1,12.726,19.873l-.12675.04875Z"/></svg>