<svg id="Layer_1" data-name="Layer 1" xmlns="http://www.w3.org/2000/svg" viewBox="0 0 24 24"><title>E1X_ico_font</title><path d="M22,16.73h0a.53.53,0,0,1-.11.21,4.17,4.17,0,0,1-.36.37A9,9,0,0,1,19.31,19a6.09,6.09,0,0,1-1.66.59,5.11,5.11,0,0,1-1.91,0,7.42,7.42,0,0,1-3-1.51A7.62,7.62,0,0,1,11.64,17a.4.4,0,0,1-.09-.21v0a5.56,5.56,0,0,0,.08.82H9.28V12.18a.5.5,0,0,0-.17-.38.48.48,0,0,0-.37-.17H5.33A.52.52,0,0,0,5,11.8a.5.5,0,0,0-.17.38V17.6H4.61l0,0a.55.55,0,0,1-.44-.18A.64.64,0,0,1,4,17V10.75a2.2,2.2,0,0,0,.61-.26,2.65,2.65,0,0,0,.53-.42,1.8,1.8,0,0,0,.71.57,2.28,2.28,0,0,0,.93.19h0a2.17,2.17,0,0,0,.9-.19,1.77,1.77,0,0,0,.73-.57h0a1.8,1.8,0,0,0,.71.57,2.28,2.28,0,0,0,.93.19,2.36,2.36,0,0,0,.94-.19,1.8,1.8,0,0,0,.74-.57,2.17,2.17,0,0,0,1.68.76,2.37,2.37,0,0,0,1-.19,1.77,1.77,0,0,0,.73-.57,1.69,1.69,0,0,0,.42.38,2.13,2.13,0,0,0,.5.25v.92a5.22,5.22,0,0,0-4.48,4.94.37.37,0,0,1,.07-.16c.11-.13.23-.25.35-.37a9,9,0,0,1,2.22-1.65,6.07,6.07,0,0,1,1.66-.58,5,5,0,0,1,1.92,0,7.44,7.44,0,0,1,3,1.51,8.22,8.22,0,0,1,1.14,1.07.34.34,0,0,1,.09.19,5.19,5.19,0,0,0-4.74-5v-.85A2,2,0,0,0,18.5,10,2.22,2.22,0,0,0,19,8.56l-.09-.33L15.3,3.43a.35.35,0,0,0-.17-.15.57.57,0,0,0-.25-.06H5a.44.44,0,0,0-.25.08,1,1,0,0,0-.21.21L1.09,8.85a1.91,1.91,0,0,0,.5,1.2,2.46,2.46,0,0,0,1.13.74V17a1.71,1.71,0,0,0,.53,1.28,1.71,1.71,0,0,0,1.28.53H12a5.23,5.23,0,0,0,10.05-2ZM2.66,9.44a1.09,1.09,0,0,1-.36-.71L5.37,4.4h9.34L18,8.82a1,1,0,0,1-.36.65,1.06,1.06,0,0,1-.74.27,1,1,0,0,1-.77-.33,1.16,1.16,0,0,1-.32-.8.49.49,0,0,0-.17-.38.55.55,0,0,0-.42-.17.52.52,0,0,0-.38.17.56.56,0,0,0-.17.37v.17a1.08,1.08,0,0,1-.31.8,1.09,1.09,0,0,1-.82.34,1,1,0,0,1-.78-.34,1.12,1.12,0,0,1-.31-.8V8.6a.56.56,0,0,0-.17-.38.6.6,0,0,0-.38-.17.59.59,0,0,0-.42.17.52.52,0,0,0-.17.38,1.06,1.06,0,0,1-.34.82,1.13,1.13,0,0,1-.8.32,1.1,1.1,0,0,1-.8-.34A1.14,1.14,0,0,1,9,8.6a.51.51,0,0,0-.17-.4.66.66,0,0,0-.42-.15A.58.58,0,0,0,8,8.2a.51.51,0,0,0-.17.4v.13a1.1,1.1,0,0,1-.32.8,1,1,0,0,1-.77.33,1.09,1.09,0,0,1-.82-.33,1.16,1.16,0,0,1-.32-.8V8.6a.53.53,0,0,0-.19-.33A.57.57,0,0,0,5,8.14a.53.53,0,0,0-.36.13.57.57,0,0,0-.18.33,1.13,1.13,0,0,1-.32.8,1,1,0,0,1-.78.34h0A1,1,0,0,1,2.66,9.44ZM8.23,17.6H5.88V12.85H8.23Zm6.52-.92a2,2,0,1,0,2-2A2,2,0,0,0,14.75,16.68Zm2.68,0a.67.67,0,0,1-.67.66.67.67,0,0,1,0-1.33A.67.67,0,0,1,17.43,16.68Z"/></svg>