<svg id="Layer_1" data-name="Layer 1" xmlns="http://www.w3.org/2000/svg" width="24" height="24" viewBox="0 0 24 24"><path d="M21.45819,6.10181a.42861.42861,0,0,0-.37622-.35608A83.17314,83.17314,0,0,0,8.18134,5.33789l.8822-2.80859A.429.429,0,0,0,8.24512,2.272l-.9776,3.11225-.303.0188L6.2254,2.25244a.429.429,0,0,0-.8352.19623l.70752,3.0108q-1.59109.11289-3.17877.28626a.42863.42863,0,0,0-.37629.35608,40.44385,40.44385,0,0,0,.18073,14.21826.42868.42868,0,0,0,.37427.346q.62219.0672,1.24438.12634l.11084.83655a.42944.42944,0,0,0,.293.35138,1.94049,1.94049,0,0,0,.56909.09741.86576.86576,0,0,0,.508-.14038.42952.42952,0,0,0,.17065-.26209l.15253-.73437q2.9208.2103,5.853.21167,2.93226.00127,5.853-.21167l.1532.73437a.42878.42878,0,0,0,.17065.26142.86546.86546,0,0,0,.50794.14038A1.92812,1.92812,0,0,0,19.253,21.979a.42937.42937,0,0,0,.293-.352l.1109-.83654q.62283-.05842,1.245-.12635a.42934.42934,0,0,0,.37426-.346A40.44671,40.44671,0,0,0,21.45819,6.10181ZM5.2464,21.06519,5.22021,20.869l.0672.006Zm13.51007,0-.03961-.19013.06714-.006Zm1.73688-1.21747-.00067-.002a80.61,80.61,0,0,1-16.98249,0A39.57686,39.57686,0,0,1,3.33954,6.5614a82.23141,82.23141,0,0,1,17.32312,0A39.57911,39.57911,0,0,1,20.49335,19.84772ZM19.98608,6.89a81.84835,81.84835,0,0,0-15.96789,0,.42874.42874,0,0,0-.383.36689A39.14811,39.14811,0,0,0,3.79108,19.163a.42861.42861,0,0,0,.381.35615c2.59759.25531,5.21332.383,7.829.383,2.61578,0,5.23285-.12768,7.83044-.383a.42873.42873,0,0,0,.381-.35615,39.14431,39.14431,0,0,0,.15589-11.90618A.42875.42875,0,0,0,19.98608,6.89Zm-.62555,11.74634a79.33357,79.33357,0,0,1-14.72082,0,38.21993,38.21993,0,0,1-.1438-10.86407,80.98987,80.98987,0,0,1,15.00842,0A38.21481,38.21481,0,0,1,19.36053,18.63629Z"/></svg>