<?xml version="1.0" encoding="UTF-8"?><svg id="Layer_1" xmlns="http://www.w3.org/2000/svg" width="24" height="24" viewBox="0 0 24 24"><path d="M7.9746859,10.1197249c-.0001401-.0001401-.0002802-.0003152-.0004203-.0004553-.0002101-.0002101-.0003852-.0003502-.0005954-.0005603l.0010156,.0010156Zm4.4790886-2.6654596l-.0002802-.0002802c-.0001751-.0001751-.0004203-.0003152-.0005954-.0004903l.0008755,.0007705ZM7.3143535,3.5034076c.0001051-.0001051,.0001751-.0001401,.0002802-.0002452,.00007-.00007,.0001751-.0002101,.0002452-.0002802l-.0005253,.0005253Zm5.2441356,14.6526907c.00007-.0001051,.0001751-.0001751,.0002452-.0002802s.00007-.0002452,.0001401-.0003502l-.0003852,.0006304Zm8.384068-3.8408198c-.2341895-.1568968-.508864-.2400731-.7889668-.2400731l-.1075163,.0042026c-.1283192,.0092107-.2524007,.0406951-.3726649,.0838417-.1627804-.1418375-.3447877-.2557628-.5391927-.3485701-.0062338-.1316812-.0260211-.262557-.0667162-.3887399l-.0005603-.0017161c-.1939847-.5904293-.743929-.9834068-1.3570173-.9834418l-.1175675,.004903c-.7371698,.0610427-1.2948889,.6702435-1.3091427,1.3952609-.3923471-.4714959-.8750849-.8611813-1.4284964-1.1325638-.4711107-.2307574-.9688728-.4021181-1.4820094-.5101948l-.160399-.0337959-.1285993,.1015276c-.5175493,.408492-1.1566587,.6293033-1.8129636,.6293033-.0515518,0-.1033838-.0013658-.1553909-.0040625l-.0093858-.0004903h-.0513767l-.0090706,.0004203-.1465304,.0036072c-.653188,0-1.2896007-.2170289-1.8078504-.619077l-.1278989-.0992162-.1584027,.0332005c-.5120509,.1072362-1.0085173,.278842-1.4774916,.5106851-.9799396,.4827028-1.7473681,1.3099833-2.1551247,2.3234736l-.0039574,.0098411-.0435319,.1305956-.006409,.0191918-1.027569,4.9171039H14.968326c.0706736,.058381,.141032,.1171823,.2175893,.1680687l-.0001751,.0002802c.0007004,.0004553,.0014709,.0008055,.0021713,.0012608,.0008405,.0005603,.001576,.0012958,.0024165,.0018561l.0002452-.0003502c.1983274,.1350783,.4160567,.2378668,.6444676,.311167l.4261079,.8909147,.0009456-.0004553c.1438688,.3106417,.4528994,.5067277,.7904727,.5067627l.082581-.0045528,.000035,.0004903c.0015059-.0001051,.0029768-.0006304,.0044828-.0007355l.0091406-.0004903-.0001051-.0009456c.1226457-.0102613,.2427348-.0406601,.3545588-.0919667l.0087904-.0040625,.0079149-.0041676c.1142405-.059957,.2121959-.145935,.2891034-.2493188l.0011557,.0009106c.0013308-.001681,.001681-.0037823,.0029768-.0054634,.0019262-.0026616,.0046579-.0045878,.0065841-.0072495l-.0018912-.0013658c.0946634-.1261128,.1450245-.2762154,.1448494-.426178,.0001751-.1449194-.0489602-.2893135-.13774-.4128347l.003292-.0021363-.2213366-.3391493c.0802695-.0403099,.163726-.0746661,.2371663-.1267432l.0007355,.0010857c.0017511-.0011907,.0030819-.0028718,.004833-.0040625,.0014009-.0010156,.0031519-.0014359,.0045528-.0024515l-.0006304-.0008755c.0618832-.042061,.1145907-.0953288,.1709755-.1443941,.1547255,.1772093,.3765874,.2837451,.6149094,.2837801l.1026483-.006514c.0921068-.0110318,.1822174-.0357921,.2669697-.0736855l.0434968-.019472,.168629-.1392459,.0326401-.0269666,.0254957-.0342862c.0887097-.1194237,.1336425-.2621367,.1335024-.4036941,.0001401-.1243267-.04059-.2470774-.1092324-.3567301l.0040275-.0021363c-.1025433-.1936345-.1817972-.3465038-.2962828-.5697315-.1076214-.2098145-.2169939-.4219403-.3312694-.635362,.6560948-.1737072,1.218857-.6268167,1.5205682-1.267362,.1271284-.0068292,.2534864-.0260561,.3755717-.0650001l.0001051,.0002802c.0006304-.0002101,.0012258-.0005603,.0018561-.0007705,.0007004-.0002101,.0014359-.0002802,.0021363-.0004903l-.0001051-.0003152c.3081201-.0962744,.5747046-.2937262,.7560815-.560801l.0031169-.0046579,.0019962-.0030119c.1599437-.2411588,.2374115-.5158333,.2372014-.7854997,.0005253-.4596236-.2240332-.9128732-.6360975-1.186392Zm-8.3838228,3.8405396c-.1007572,.1674383-.1599087,.356485-.1741274,.5513452l-.0008055-.00007-.0002452,.0055684c-.000035,.0005253-.0002452,.0009806-.0002802,.0015059h.0002101l-.0046229,.1072011c0,.1451295,.0248653,.2892785,.0717943,.4270885l-.0008405,.0002452c.0004903,.001576,.001541,.0028368,.0020313,.0044127,.0009106,.0026266,.0011907,.0054283,.0021013,.008055l.0014009-.0004903c.0182813,.056805,.0484349,.106921,.0740357,.1597686H4.9522161l.8430402-4.0342091,.0283675-.0850325c.3437721-.8516905,.9891503-1.5472196,1.8132788-1.95305l.0004903-.0002452c.3758169-.1858247,.7734172-.3214283,1.1812088-.4173175,.6118625,.4261429,1.3345334,.6641498,2.0803886,.6641498,.0545286,0,.1091624-.001576,.1639011-.0040275h.0342862c.0577506,.0027317,.1156414,.0045528,.1735671,.0045528,.7502679,0,1.4768262-.2423145,2.0892491-.6757419,.4093676,.0966596,.8086489,.2322983,1.1866722,.4174576,.4889367,.2397579,.9117876,.589939,1.249571,1.014646l-.0327452,.0491353-.003187,.004798-.0024515,.0039574c-.2596502,.4159516-.4009624,.8899341-.426318,1.3751585l-.2672499-.0236746-.0018211-.0001401c-.1820773-.0140437-.4029936-.0574354-.6544838-.0585912v.000035c-.0380335-.0040275-.076242-.0088955-.113435-.0088955-.3919969,0-.758568,.2126162-.9510118,.5638129l-.0012258,.0022064-.0006654,.0012608c-.076207,.1430633-.1212098,.3006605-.1321015,.4624253l-.0001051,.0014009-.0001401,.0021713-.0020663,.0749462c0,.1212098,.016285,.2419993,.0484699,.3590766,.0461585,.17017,.1309808,.3239849,.2411588,.4563666-.3788988,.0056735-.7367496,.2031603-.9381238,.5387374Zm4.7013357,3.0565109l-.0046929,.0059187-.004833,.0067942-.0495206,.0431466-.115116,.0294532-.0073195,.0004903-.0063039,.0007355-.0197172,.0010857c-.066471,.000035-.1288795-.0392592-.1566517-.1013175l-.0013658-.0030119-.5141873-1.0751284h.2383921l-.0498357,.0204526,.6817656,1.0447996,.0096309,.0121875,.0024165,.0069693-.0026616,.0074246Zm3.4980633-5.3121476l-.0010156,.0015059c-.0928773,.1367944-.2295666,.2378668-.3875141,.2867219l-.0039925,.0012608c-.0792539,.0255658-.1618699,.0384537-.244801,.0384537l-.1024732-.006549-.2688609-.0345313-.1551107,.3878293c-.2626971,.6117925-.8635278,.9965399-1.5119529,.9965399-.0897254,0-.1806064-.0073545-.2719428-.0225189l.0012258,.0002101c-.0601671-.0101563-.1175325-.0156547-.1741274-.0156897-.092317,.0011557-.1820073,.011312-.283605,.0623735-.0501159,.0261962-.1047847,.0653853-.1510832,.1281791-.0464387,.061603-.0786235,.1504178-.0776429,.2362908-.0001051,.0908811,.0312743,.1692945,.068012,.2249788,.0564899,.0844371,.1218402,.1304555,.1857896,.1655121,.0645798,.0342862,.1310859,.0558595,.2020397,.0702533l.0264063,.0052883-.0260211-.0052182c.1440789,.0287177,.2905743,.0399246,.4371747,.0431466l.0333055,.0342862c.1145557,.2134217,.2251889,.4284193,.3365577,.6455883,.115046,.2243484,.1964362,.3813503,.3004854,.5778565l.0102964,.019402-.0057085,.0047279-.0349165,.0096309-.0030819,.0003502-.00007,.000035-.0160049,.0009806-.1063956-.0641596-.0021713-.0040975-.1339226-.2387423-.233314-.4158816-.5096344,.541399c-.059957,.063214-.1267432,.1196338-.1990978,.1681387l-.0051132,.0033971-.0042726,.0031169c-.0774328,.0556844-.1619049,.1008272-.25121,.1342728l-.0068642,.0025566-.2270451,.0932275-.2991896,.1227507-.322584-.069763-.0461235-.0964145h-.244801c-.165372-.0531978-.3232144-.1275137-.4666629-.2257143l-.0044477-.0030469-.0001401-.00007c-.158823-.1050298-.301396-.2328237-.4230961-.379284l-.0576456-.0692027-.0982356-.1179178-1.3048001-.0652102-.0060587-.0001401c-.076137-.001576-.1425029-.051902-.165372-.1244318l-.0154445-.1078666,.0006304-.0220636,.0001751-.0030469,.0001051-.0027667,.0169855-.0551941,.0017511-.0028718,.0013308-.0022414,.0147791-.0084752,.0033971,.0003852,.014604,.0040625,1.2270521,.2294966v-.6682123c0-.1914982,.0390491-.3803697,.1147308-.5554777l.1079016-.2441006,.1938796-.4388908-.7451548-.0791488c-.0508164-.0057085-.0915815-.0406951-.110213-.0876241l.0018211-.0185264,.0039574-.0198573,.001611-.0201724,.0007705-.0026967,.6574957,.0592566,.7548207,.0647199c.0022764,.0045178,.0050081,.0121175,.0071094,.016285,.0309241,.0569451,.0521122,.0910912,.0533729,.0957841l.0029068,.0063039,.0027317,.0053933c.0475593,.0925971,.0927722,.1664577,.1553559,.2354503,.0318697,.0343212,.0686424,.0683272,.1207895,.0993213,.0514117,.0303287,.123206,.0588013,.2112503,.0589764,.0867485,.0013658,.1796258-.0335157,.239863-.0817404,.092317-.0736504,.1251672-.1516786,.145865-.2125812,.0196121-.0625136,.0251455-.1168321,.0254257-.170135-.0010156-.0952938-.0181412-.188066-.0691677-.2890333l-.0006304-.0012608-.0010156-.0018912c-.077818-.1462502-.1314711-.3041276-.1589281-.4674334l-.0010156-.0060237-.0011557-.0057085c-.0223088-.1096176-.0332005-.2199007-.0332005-.3293432,.000035-.4208897,.1611694-.8306425,.4574522-1.140934l.098901-.0936828,.2022498-.1916382-.1413472-.2400381c-.058346-.0990761-.0931575-.2102347-.1017728-.3248955l-.000035-.0005253-.0001751-.0018912-.0025216-.0609026c-.0001401-.3743109,.2884029-.6944085,.6690878-.7250524l.0602372-.0025216c.3115522-.000035,.5926707,.2000784,.6914666,.500809,.0253206,.0790438,.0383136,.1612395,.0383487,.2438555l-.0066191,.1024382-.0362824,.2820991,.2687208,.0932275c.2161534,.0749813,.4125896,.1958058,.5813237,.350041l.1001618,.105415,.1937395,.2039308,.2408436-.1453047c.0955039-.0576456,.2033355-.0918267,.3145991-.0997766l.0022414-.0001401,.055124-.0021713c.1419776,0,.2811885,.042096,.3997016,.1216651l.0017161,.0011207c.2104799,.1395261,.3231094,.3681471,.3236347,.6036324-.0002101,.1374598-.0384537,.2744293-.1205094,.3985109Zm-3.0554252,2.340424l-.0067942-.0011207h.00007l.0067241,.0011207Zm2.3414747-4.1611274l.0018912-.00007c.0001051,0,.0002452-.00007,.0003502-.00007l-.0022414,.0001401Zm-1.299757,6.3709909l-.0022764,.0001401c-.0003152,.000035-.0005603,.0002101-.0008755,.0002452l.0031519-.0003852ZM7.3271714,12.7203595c.00007-.000035,.0001051-.000035,.0001751-.00007,.0001051-.000035,.0002101-.0001401,.0003152-.0001751l-.0004903,.0002452Zm-2.6373022-7.056714l.0020663-.0006304,.0024165-.0007355c.1007572-.0313443,.2053317-.0471391,.3101514-.0471391,.0541784,0,.1081817,.0042726,.1614846,.0126778,.1570369,.0255308,.3074197,.082651,.4417626,.1679286l-.0026266-.0017161,.0975352,.063144,.0118723,.0076697,.0120474,.006514,.2231577,.1205094c-.0829662,.3672366-.1302454,.743999-.1302454,1.126435v.0083001c.0043427,2.8234421,2.2946858,5.1096877,5.1180578,5.1099328l.0071444,.000035h.0005253c2.8242826-.0044828,5.1105282-2.2947909,5.1107383-5.1181629v-.0070043c-.0005954-.3878293-.0480496-.7640314-.1302804-1.1270304l.2401432-.129685,.0269666-.0224489,.0769075-.0640895c.1381953-.0841919,.291765-.1402265,.452164-.162115l.0025916-.0003852,.0049731-.0007355c.053478-.0085103,.1076914-.0127128,.16215-.0127128,.1039091,0,.2075381,.0158648,.3074897,.0467538,.1536748,.0512716,.294987,.1344129,.4140605,.2444858l.0009106-.0009806c.2898038,.3383087,.6360625,.62391,1.0273239,.8373667l.3627888,.1979071,.1354986-.3904209c.1861048-.5362509,.2804881-1.0985578,.2804881-1.6634213,0-.1954206-.011277-.3911213-.033971-.5861216l-.003292-.0282624-.0078098-.0273519c-.1829879-.6413157-.6635544-1.1552928-1.2911416-1.380902l-.0122926-.0044477-.0126428-.0035022c-.1781199-.0493454-.359777-.0733703-.5399632-.0733703-.4713208-.000035-.9337811,.1655471-1.303084,.4760837l-.0005253-.0006304c-.0018211,.0014359-.0033621,.003187-.0051832,.0046579-.0011207,.0009456-.0024165,.001576-.0035372,.0025216l.0003502,.0003852c-.3932927,.3153346-.7084871,.7135302-.9354272,1.1617718-.9052736-1.4427852-2.5054809-2.4045486-4.3337139-2.4047237l-.0076697,.00007-.0007705-.000035h-.0013308c-.0003852,0-.0008055,.00007-.0011907,.00007h-.0013308v.00007c-1.3555814,.0007004-2.6551632,.5415391-3.610973,1.5029873-.2775462,.2781416-.5151679,.5874525-.7192738,.9158501-.2279206-.4451947-.5430451-.8402384-.935112-1.1531215l.0003502-.0004203c-.0011907-.0010156-.0025566-.001646-.0037473-.0026616-.0019962-.001576-.0036422-.0034671-.0056385-.0050431l-.0005253,.0006654c-.3691628-.3100813-.8313079-.4755934-1.3024186-.4755584-.1801862,0-.3619133,.0240248-.5400332,.0734403l-.0126428,.0035022-.0121875,.0043777c-.6227192,.2238581-1.0990831,.7324419-1.285223,1.3667533l-.0014009-.0004553c-.0007004,.0022064-.0006304,.0047629-.0013308,.0069693-.0007705,.0026967-.0024515,.0049731-.003222,.0076697l.001646,.0004553c-.0586612,.1941598-.0702884,.4058304-.0725298,.6578809,.0002802,.3327753,.0314494,.7097129,.0863283,1.0299855,.0279122,.1607492,.0606924,.3058437,.1055901,.434408,.0230442,.064755,.0482598,.1255525,.0868186,.1889416,.0402398,.0610777,.0894102,.1373547,.2144373,.197802l.0005603,.0002452c.0651752,.0295232,.136199,.0425863,.1995181,.0423061,.1940197-.0059887,.3074197-.0855228,.4097878-.1566867,.1504879-.1124894,.2790172-.2521906,.4046397-.3886698,.1224005-.134553,.2391275-.265814,.3228292-.3430016,.1260428-.1131548,.275585-.1969615,.4380153-.2451513Zm11.0755836-.669438l.04868-.11347c.1841786-.42947,.4718812-.8066527,.8374017-1.0977873l.0035022-.0028017,.0052182-.0043777c.2425947-.2063473,.547808-.3157548,.8587649-.3157898,.1138903,0,.2281658,.01625,.3405851,.0462635,.4014877,.149052,.7086272,.4768542,.8331641,.8862218,.0170555,.1569318,.0273519,.3142139,.0273519,.4714259-.000035,.3318297-.0516569,.6597371-.126498,.9831616-.1723413-.1323817-.3343513-.2775813-.4742976-.4450196l-.014534-.0174057-.0164251-.0151293c-.1933543-.1788203-.4228509-.3141438-.6730102-.3967248l-.001576-.0005253-.0041325-.0012958c-.1682088-.0523573-.3428966-.0787986-.5180747-.0787986-.0879743,0-.1764038,.0072145-.2644131,.0208028l-.00007-.0005253c-.0010506,.0001401-.0020663,.0006304-.0031169,.0007705-.0015059,.0002452-.0029768,.0001051-.0044828,.0003502l.0001051,.0007355c-.2603156,.0367026-.5102298,.1268132-.7331423,.2661992l-.0203125,.0126428-.0945934,.0789037-.0539333,.029103c-.0297333-.0781332-.058311-.1566867-.0916866-.2329637l.1395261-.0739656Zm-8.9175171,.4550007l.0137285,.0231143-.0143238,.0560696-.0239548,.0406601-.0223438,.011277c.016145-.0434968,.0293481-.0881494,.0468939-.1311209Zm-.2484783,.8412891c.0462635,.008125,.0921769,.0217834,.1385105,.0217134,.2475677,.0004553,.494365-.115011,.6524175-.3300436l.0104014-.0141838,.0559645-.0949786,.0034671-.0058836,.0030819-.0057085c.0663659-.1228908,.0985158-.257619,.0983757-.3890901,.0004903-.2686157-.1379851-.5255693-.374346-.6808901,.176649-.2847607,.382471-.5529912,.6230344-.7940099l.0004903-.0005253c.8241985-.8292767,1.94482-1.2957295,3.1137362-1.29664l.011347-.0001751,.0019612-.000035c1.5832919-.0001751,2.9687467,.8359308,3.748818,2.0883735-.2117056,.1589281-.3318648,.4022582-.3314795,.6528378-.0001401,.1354286,.0358621,.2733437,.1058003,.3985809l-.001541,.0008055,.0039574,.0075296,.0014009,.0026616,.0001401,.0002802c.0004903,.0009106,.0012608,.0015059,.0017511,.0024165,.0001751,.0003152,.0002452,.0006654,.0004203,.0009806l.0002101-.0001401c.1464604,.2692111,.4243918,.4238315,.7109386,.4233762,.0310642,.000035,.0622684-.0077748,.0935427-.011417,.053513,.273834,.0837016,.5561081,.0840869,.8455617v.006514c.0002452,2.4369086-1.9739579,4.4146839-4.411742,4.418116l-.0066541-.000035c-2.4369086,.0002452-4.4147189-1.974028-4.4180109-4.411707l-.000035-.006479c0-.2799277,.0282274-.5567385,.0799543-.8278058Zm-2.8170331-.9012811l-.0034321,.0031519c-.1675084,.1560213-.3318998,.3557145-.4817222,.51051-.0235345,.0245852-.0450028,.0448627-.0670664,.0662959-.0634592-.2773711-.1098978-.7172776-.1088121-1.0657075-.0023114-.2166437,.022624-.4113988,.0394694-.4516036l.0025916-.0078098,.0019262-.0068292c.1198439-.4201192,.4334274-.7562916,.8424448-.9080403,.1123143-.0299785,.2265548-.0462635,.3404451-.0462635,.3109218,.000035,.6162052,.1094425,.8587999,.3158249l.0050431,.0042726,.0043427,.0034321c.3610378,.2860565,.646744,.6558847,.8323235,1.0774048l.0489952,.1112286,.1512583,.0801645c-.0333756,.0765923-.0634241,.1542702-.0930174,.2324034l-.0849274-.0458783-.0855578-.0553692-.0026616-.0017511,.000035,.000035c-.2145424-.136164-.4545104-.2273253-.7053352-.2680204l-.0010857-.0001751c-.0905309-.0143939-.181482-.0213982-.2719778-.0213982-.1736371,0-.3467139,.0262662-.5135569,.077748l-.0001051-.0003152c-.0005954,.0001751-.0011557,.0005603-.0017511,.0007355-.0009106,.0002802-.0018211,.0003502-.0027317,.0006304l.0001401,.0004553c-.260981,.0780632-.5015445,.2126162-.7040744,.3948686Zm15.5197557,9.9832597l-.0661558-.0433217-.0201724-.0132382-.0217134-.0102613c-.0749813-.035617-.1562664-.0532328-.2357655-.0531628-.2056819-.0004903-.4036941,.116622-.4980073,.3151945-.0355119,.0748062-.0530577,.1559162-.0529877,.2356254,0,.0102613,.0058136,.0196121,.0063739,.0298384-.0157597-.0230092-.0237797-.0495206-.0427964-.0707086l-.0134483-.0150593-.068012-.0602722-.0221687-.0196471-.0250054-.0155846c-.0516919-.0322549-.107026-.0558595-.163621-.0722846,.0917216-.0381385,.1763688-.093998,.2376566-.1803613l.0019612-.0028017,.004868-.0071094,.0011907-.0017511c.0633541-.0935077,.0946634-.202635,.0944533-.3082952,.0004903-.1755283-.0853477-.3505663-.2426647-.4567168l-.0060587-.0039925-.0208028-.0137985-.0224138-.0106115c-.0749813-.035617-.1562664-.0532328-.2358005-.0531628-.2056469-.0004903-.4036941,.116622-.4979722,.3152295-.0354769,.0747011-.0530577,.1558111-.0530227,.2355904-.0001751,.1551107,.0660858,.307945,.1884163,.414936l.0132732,.0115922,.0094208,.0066891-.1705202-.0497307-.1656872-.0483648-.225329,.1652319-.0167754,.0122576-.0149892,.0140086c-.1624652,.1514685-.2483732,.3604074-.2481631,.5708172-.0001051,.1261829,.0329203,.2537316,.0958191,.3701084l-.001646,.0008405c.0012958,.0025566,.0034671,.0043077,.0047629,.0068292,.0015059,.0027317,.0019262,.0058136,.0034671,.0085103l.0017511-.0010156c.1151861,.2147525,.3223389,.3506363,.5532363,.3858331,.0592916,.0996015,.1335374,.1893969,.2315979,.2550274l.0025566,.001681,.0029068,.0018912c.1259727,.0809349,.2715576,.1228908,.4187534,.1228908,.0509915,0,.1018078-.006514,.1518537-.0164952l.0002101,.0012608c.0024865-.0004203,.0047279-.001611,.0072145-.0020663,.0024165-.0004903,.004903-.0002802,.0073195-.0008055l-.0002802-.0012258c.2050165-.0401348,.3846423-.1631307,.4938047-.3418109l.0101913-.0167053,.0484699-.1038391,.0328152-.0703934v-.1751431c-.0001401-.1720261-.1001618-.3164202-.2422795-.3914015,.0003152-.0084752,.0052532-.0164251,.0052182-.0249004,.00007-.0261962-.0108917-.0516919-.0140787-.0778881,.0239198,.0329904,.0407652,.0701833,.0723546,.0978154,.1039441,.0909161,.2352401,.1363041,.3623686,.1359539,.1526242,.0003852,.3066842-.0646149,.4147259-.1881361l.0004553-.0005253c.0904608-.1034188,.1360589-.2345397,.1357438-.3620534,.0004553-.152309-.0644748-.3069994-.1888015-.4152512l-.0180711-.0157597Zm-1.4905197-.3313394l-.0662609-.046999,.0665761,.0472091-.0003152-.0002101Zm.1300352-.0562447v-.000035l.0193669-.0273519-.0193669,.0273869Zm.9955943,.8003138l-.0915115-.0798142,.0004553-.0005253,.0913364,.0799543-.0002802,.0003852Zm.0811801-.0507113l-.059992,.0688175h-.0001051v-.0001051l.0979204-.1122092-.0378233,.0434968ZM7.9742657,10.1192696c.8125363,.8211517,1.8859837,1.2338463,2.9565942,1.233461,1.0561116,.0003852,2.1157954-.4012075,2.9258452-1.2027821l.0014359-.0014709,.0285426-.0285776-.0001751-.0001751c.4879911-.478115,.8523909-1.0676337,1.0612948-1.7181251l.1467055-.457032h-.4494673c-.6362726-.2198657-1.2233048-.5625871-1.7247792-1.0122295l-.0008755-.0007705c-.3511266-.312778-.6561649-.6737807-.905974-1.0721865l-.2802079-.4469107-.3028669,.4318865c-.0404149,.0596068-.1719911,.2049465-.3369079,.3611428-.2490036,.2377617-.5841604,.5215068-.8829998,.73745-.0807248,.0584861-.1576673,.1104582-.2298468,.1565816,.0279122-.2293915,.0545987-.4599038,.0557894-.6086756l-.0013658-.0480847-.0588363-.9591718-.5718328,.7722965c-.1599437,.2160483-.3384488,.4177377-.5334491,.6028269l-.0039224,.0037123-.0040275,.0040625c-.4848041,.4903726-1.0686143,.8716878-1.7124866,1.1184851l-.3078399,.1179528,.0993913,.314424c.2029152,.641736,.5569486,1.2253711,1.0322619,1.7019101Zm1.2498862-2.6363917c-.0034321,.0245501-.0054984,.0391542-.0054984,.0392592l-.0160399,.1122092,.0528476,.1003719c.0396795,.0784834,.1145907,.1508731,.192864,.1877859,.0784484,.0382786,.152344,.0476294,.2134567,.0478045,.134448-.0024165,.2298468-.0383487,.3308491-.0799193,.338659-.1492621,.7421429-.4511484,1.1277308-.771526,.1905526-.1597686,.371194-.3227591,.5230827-.4713908,.0171956-.0169505,.0297333-.0311692,.0461235-.0475944,.2288662,.3070344,.4773795,.5989045,.7639263,.854107,.5016145,.4496775,1.0805567,.8005239,1.7043266,1.0504031-.1803263,.4173875-.4367895,.7984927-.763436,1.1178897l-.0314494,.0314494,.0014359-.0014709c-.6753917,.6679321-1.5530332,1.000042-2.4335115,1.0004273-.8928059-.0003852-1.7820045-.3418459-2.4596026-1.0263433l-.0010156-.0010156c-.3230043-.3237748-.5744244-.7088374-.7496375-1.1290967,.5534815-.2533113,1.0608746-.5944568,1.5035477-1.0133502Zm11.7176348,6.8317352c.0002802,.0002101,.0004903,.0004553,.0007705,.0006654s.0006654,.0002452,.0009456,.0004553l-.0017161-.0011207Z"/></svg>