<?xml version="1.0" encoding="UTF-8"?><svg id="Layer_1" xmlns="http://www.w3.org/2000/svg" width="24" height="24" viewBox="0 0 24 24"><path d="M12.41564,2.03498c-.7258-.12269-1.46879,.08076-2.03082,.55605-.56203,.47546-.88613,1.17425-.8856,1.91038v.56876c-.99641,.47252-1.83837,1.21806-2.42825,2.14972-.59005,.93183-.90364,2.01155-.90483,3.11437v1.93114c.00069,.41307-.1531,.81135-.43129,1.11654l-1.50398,1.66656c-.3763,.41685-.57615,.96359-.55723,1.52496s.25499,1.09331,.65863,1.48388c.40363,.39057,.94314,.60914,1.50486,.60962h2.8288c0,1.19074,.6354,2.29114,1.66656,2.88651,1.03129,.59537,2.30196,.59537,3.33307,0,1.03129-.59537,1.66656-1.69577,1.66656-2.88651h2.82893c.56221,0,1.10242-.21857,1.5064-.60932,.40414-.3909,.64042-.92356,.65893-1.48546,.01873-.56185-.18196-1.10897-.55913-1.52584l-1.50398-1.66656h-.00017c-.2775-.30482-.43128-.70226-.43111-1.11447v-1.72273c.00498-1.12907-.30396-2.23734-.89264-3.2008-.58869-.96342-1.43356-1.7442-2.44043-2.25507v-.49587c.0079-.60276-.1964-1.18903-.57734-1.6564-.38077-.46719-.91393-.78575-1.50587-.8995l-.00007,.00004Zm-.41668,18.2984c-.44194,0-.86585-.17561-1.17838-.48818-.31255-.31256-.48817-.73644-.48817-1.17838h3.33307c0,.44194-.17561,.86585-.488,1.17838-.31255,.31256-.73644,.48818-1.17856,.48818h.00004Zm4.16646-9.79076v1.72273c-.00017,.82596,.30654,1.62257,.86035,2.23527l1.50605,1.66656c.13128,.14674,.16427,.35671,.0842,.53643-.08007,.1799-.25808,.29606-.45501,.29674H5.83701c-.19691-.00069-.37492-.11684-.45501-.29674-.08007-.17973-.04708-.3897,.0842-.53643l1.50605-1.66656c.5538-.61275,.86035-1.40932,.86035-2.23527v-1.93114c.00103-.86049,.26857-1.69955,.76582-2.40194,.49728-.70244,1.19967-1.23354,2.01107-1.52048,.16255-.05739,.30327-.16375,.40293-.30431,.09966-.14073,.1531-.30877,.15327-.48114v-1.12494c0-.22097,.0878-.43283,.244-.58921,.15636-.15619,.36822-.244,.58921-.244,.04897,0,.09777,.00412,.14588,.01237,.20172,.04966,.38025,.16736,.50533,.33317,.12526,.16581,.18952,.3696,.18213,.57716v1.04163c0,.17028,.05206,.33626,.14932,.47595,.09725,.13952,.23489,.24623,.39434,.30534,1.64162,.61033,2.78943,2.30816,2.78943,4.12881h.00009Z"/></svg>