<svg id="Layer_1" data-name="Layer 1" xmlns="http://www.w3.org/2000/svg" xmlns:xlink="http://www.w3.org/1999/xlink" viewBox="0 0 24 24"><defs><style>.cls-1{fill:none;}.cls-2{clip-path:url(#clip-path);}</style><clipPath id="clip-path"><rect class="cls-1" width="24" height="24"/></clipPath></defs><title>E1X_ico_font</title><g id="ico_move_0"><g class="cls-2"><g class="cls-2"><path d="M21.82,11.58,19,8.79l-.85.85,1.75,1.76H12.61V4.06l1.74,1.75L15.21,5,12.43,2.17A.57.57,0,0,0,12,2a.61.61,0,0,0-.43.17L8.79,5l.86.86L11.4,4.06V11.4H4.06L5.82,9.65,5,8.79,2.17,11.57A.61.61,0,0,0,2,12a.57.57,0,0,0,.18.42L5,15.21l.86-.87L4.06,12.61H11.4v7.34L9.64,18.2l-.85.86,2.79,2.77a.59.59,0,0,0,.85,0L15.21,19l-.87-.85-1.73,1.74V12.61h7.33l-1.74,1.73.85.87,2.78-2.78a.58.58,0,0,0,0-.85"/></g></g></g></svg>