<svg id="Layer_1" data-name="Layer 1" xmlns="http://www.w3.org/2000/svg" viewBox="0 0 24 24"><title>E1X_ico_font</title><path d="M13.72,16Zm6.22-8.78H13.17l-.91-1.82A.29.29,0,0,0,12,5.25H5.05a.3.3,0,0,0-.26.17l-1,2s0,0,0,.06,0,0,0,.06V18.45a.3.3,0,0,0,.29.3H19.94a.3.3,0,0,0,.29-.3V7.53A.29.29,0,0,0,19.94,7.24ZM5.23,5.84h6.59l.69,1.4h-8ZM19.64,18.16H4.35V7.83H19.64ZM15,11.27Zm-3.92,5.09Zm3.23-1.62ZM13,10.1h0l0-.45a.52.52,0,0,0-.13-.3.43.43,0,0,0-.29-.15h0a3,3,0,0,0-1,0,.43.43,0,0,0-.29.15.46.46,0,0,0-.13.3l0,.45h0l-.42.18h0l-.33-.3h0A.51.51,0,0,0,10,9.86a.45.45,0,0,0-.31.11h0L9,10.64H9a.49.49,0,0,0-.1.3.44.44,0,0,0,.12.32l.29.33h0l-.17.42h0l-.44,0h0a.44.44,0,0,0-.3.13.49.49,0,0,0-.16.29h0s0,.25,0,.49a4.75,4.75,0,0,0,0,.49h0a.49.49,0,0,0,.16.29.44.44,0,0,0,.3.13h0l.44,0h0l.17.42h0v0h0L9,14.73a.44.44,0,0,0-.12.32.49.49,0,0,0,.1.3H9l.66.66h0a.45.45,0,0,0,.31.11.51.51,0,0,0,.32-.12h0l.33-.3h0l.42.18h0l0,.45a.46.46,0,0,0,.13.3.43.43,0,0,0,.29.15,3,3,0,0,0,1,0h0a.43.43,0,0,0,.29-.15.52.52,0,0,0,.13-.3l0-.45h0l.42-.18h0l.33.3a.51.51,0,0,0,.32.12.45.45,0,0,0,.31-.11h0l.66-.66h0a.49.49,0,0,0,.1-.3.44.44,0,0,0-.12-.32l-.29-.33h0l.17-.42h0l.44,0h0a.44.44,0,0,0,.3-.13.49.49,0,0,0,.16-.29h0s0-.25,0-.49a4.75,4.75,0,0,0,0-.49h0a.49.49,0,0,0-.16-.29.44.44,0,0,0-.3-.13h0l-.44,0h0l-.17-.42h0v0h0l.29-.33a.44.44,0,0,0,.12-.32.49.49,0,0,0-.1-.3h0L14.36,10h0A.45.45,0,0,0,14,9.86a.51.51,0,0,0-.32.12h0l-.33.3h0L13,10.1Zm.21.66a.59.59,0,0,0,.22.05.53.53,0,0,0,.36-.14l.3-.26.55.55-.27.3a.5.5,0,0,0-.13.36.6.6,0,0,0,0,.22h0l.17.4h0a.55.55,0,0,0,.18.24.54.54,0,0,0,.29.11l.42,0h0a3.32,3.32,0,0,1,0,.38,2.71,2.71,0,0,1,0,.29s0,.07,0,.09h0l-.42,0a.54.54,0,0,0-.29.11.55.55,0,0,0-.18.24h0l-.17.4h0a.6.6,0,0,0,0,.22.5.5,0,0,0,.13.36l.27.3-.55.55-.3-.26h0a.53.53,0,0,0-.36-.14.59.59,0,0,0-.22.05h0l-.4.16h0a.61.61,0,0,0-.24.17.6.6,0,0,0-.11.3l0,.42h0l-.38,0h-.39l0-.42a.6.6,0,0,0-.11-.3.61.61,0,0,0-.24-.17h0l-.4-.16h0a.59.59,0,0,0-.22-.05.53.53,0,0,0-.36.14h0l-.3.26L9.41,15l.27-.3h0a.5.5,0,0,0,.13-.36.47.47,0,0,0-.05-.22h0l-.17-.4h0a.55.55,0,0,0-.18-.24.54.54,0,0,0-.29-.11l-.42,0h0a2,2,0,0,1,0-.38,2.71,2.71,0,0,1,0-.29s0-.07,0-.09h0l.42,0a.54.54,0,0,0,.29-.11.55.55,0,0,0,.18-.24h0l.17-.4h0a.47.47,0,0,0,.05-.22.5.5,0,0,0-.13-.36L9.41,11l.55-.55.3.26h0a.53.53,0,0,0,.36.14.59.59,0,0,0,.22-.05h0l.4-.16h0a.61.61,0,0,0,.24-.17.57.57,0,0,0,.11-.3h0l0-.42h0l.38,0h.39l0,.42a.6.6,0,0,0,.11.3.61.61,0,0,0,.24.17h0l.4.16Zm1.16.5ZM10.83,13A1.17,1.17,0,1,0,12,11.83,1.17,1.17,0,0,0,10.83,13Zm1.82,0a.65.65,0,1,1-.65-.65A.66.66,0,0,1,12.65,13Z"/></svg>