<svg id="Layer_1" data-name="Layer 1" xmlns="http://www.w3.org/2000/svg" viewBox="0 0 24 24"><path d="M19.81,4.2,18.62,5.4v.38L20.09,4.3Zm.59.24L18.62,6.22V6.6l2-2Zm-1.26-.39-.52.53V5l.84-.85Zm1.78.68L18.62,7v.38l2.53-2.53A1.88,1.88,0,0,0,20.92,4.73Zm-2.3,2.69Zm2.77-2.34L18.62,7.86v.38l3-3ZM8.82,4.91H2.13V6.22H8.82ZM21,10l2-2c0-.11,0-.22-.06-.33L20.73,9.84Zm-.47-.35,2.35-2.34L22.74,7,20.26,9.49ZM19.53,9l2.8-2.79a1.88,1.88,0,0,0-.16-.23L19.31,8.8Zm.48.35,2.6-2.61-.12-.26L19.78,9.15Zm-1-.69L22,5.69l-.18-.21-3,3ZM16.93,19.3l.94.95,2.49-2.49-.94-1Zm5.23-8.42.13.1a4.49,4.49,0,0,0,.29-.53Zm-1.72,5.19a.69.69,0,0,0-.48.2l-.18.18.94.95.2-.18a.71.71,0,0,0,.19-.48.69.69,0,0,0-.19-.48A.75.75,0,0,0,20.44,16.07Zm-1.9-1.7a4.19,4.19,0,1,0,4.19,4.19A4.19,4.19,0,0,0,18.54,14.37Zm2.72,3.2-3.2,3.2a.47.47,0,0,1-.25.15l-1.76.51H16a.26.26,0,0,1-.18-.07.27.27,0,0,1-.07-.25l.52-1.76a.64.64,0,0,1,.15-.25l3.19-3.2a1.17,1.17,0,0,1,1.66,1.66ZM23,8.39l-1.79,1.8.22.16L23,8.78a1.93,1.93,0,0,0,0-.24Zm-1.1,2.3.93-.93a3.88,3.88,0,0,0,.11-.49l-1.26,1.26ZM2.13,10.36h8.09V9.05H2.13ZM8.26,6.94H2.12v1.3H8.26Zm0,4.14H2.12v1.3H8.26Zm8.1,9.73,1.06-.31-.75-.75ZM5.76,18.44l-3.22-.6L1,20H12.75V16.47L9,15.39Zm12.69-5.37a4.54,4.54,0,0,0,3.63-1.81h0l-3.8-2.77h0V4a4.54,4.54,0,0,0,.17,9.08Z"/></svg>