<svg id="Layer_1" data-name="Layer 1" xmlns="http://www.w3.org/2000/svg" xmlns:xlink="http://www.w3.org/1999/xlink" viewBox="0 0 24 24"><defs><style>.cls-1{fill:none;}.cls-2{clip-path:url(#clip-path);}</style><clipPath id="clip-path"><rect class="cls-1" width="24" height="24"/></clipPath></defs><title>E1X_ico_font</title><g id="ico_temporary_icon"><g class="cls-2"><g class="cls-2"><path d="M11,7a1,1,0,0,0,1,1,1,1,0,0,0,1-1V3a1,1,0,0,0-1-1,1,1,0,0,0-1,1c0,.7,0,1.37,0,2ZM6.9,13a1,1,0,1,0,0-2H3.06A1,1,0,0,0,2,12a1,1,0,0,0,1.1,1c.61,0,1.24,0,1.86,0Zm.79-3.86A1,1,0,1,0,9.08,7.73L7.71,6.36,6.34,5A1,1,0,1,0,4.94,6.4c.9.92,1.82,1.84,2.74,2.74m0,5.75c-.92.9-1.84,1.82-2.74,2.74A1,1,0,1,0,6.38,19c.45-.43.9-.88,1.35-1.33L9.1,16.31a1,1,0,0,0,0-1.46,1,1,0,0,0-1.44,0M20.94,11c-.67,0-1.33,0-2,0H17.06A1,1,0,0,0,16,12a1,1,0,0,0,1.06,1h3.89A1,1,0,0,0,22,12a1,1,0,0,0-1.06-1m-3.37,5.24L16.2,14.9a1,1,0,1,0-1.39,1.41c.9.92,1.82,1.84,2.74,2.74a1,1,0,0,0,1.46,0,1,1,0,0,0-.07-1.44c-.45-.47-.9-.92-1.37-1.37M13,17.1A1,1,0,0,0,12,16a1,1,0,0,0-1,1.06V21a1,1,0,1,0,2,0c0-.67,0-1.32,0-2Z"/></g></g></g></svg>