<svg id="Layer_1" data-name="Layer 1" xmlns="http://www.w3.org/2000/svg" viewBox="0 0 24 24"><path d="M21.94,10.29h-2.1V5.75A1.72,1.72,0,0,0,18.13,4H2.67A1.72,1.72,0,0,0,1,5.75v9.89a1.72,1.72,0,0,0,1.72,1.72H8.47v1.76h-2v.8h7.93v-.8h-2V17.35h4.29v1.52a.82.82,0,0,0,0,.22,1,1,0,0,0,1,.82h4.27l.17,0,.06,0,.1,0,.08,0,.07,0,.08-.05.07-.05.06-.06.06-.06.06-.06.05-.07,0-.05-.23-.12.25.08,0-.06,0-.06v0l0,0v-.08a1.23,1.23,0,0,0,0-.19V11.33a1.48,1.48,0,0,0,0-.21h0A1,1,0,0,0,21.94,10.29Zm-10.4,8.82H9.26V17.35h2.28Zm5.08-2.56H2.68a.92.92,0,0,1-.92-.92v-.48H16.63Zm.43-6.06h0l-.06.05-.07.08,0,0-.07.09,0,.06-.05.1,0,0v0l0,.11,0,0v.06a1.1,1.1,0,0,0,0,.18v3H1.76V5.75a.92.92,0,0,1,.92-.92H18.13a.92.92,0,0,1,.92.92v4.54H17.68l-.17,0h-.06l-.1,0-.07,0-.09,0-.06,0Zm5.13,8.38v0l0,.06v0l0,0,0,0,0,0,0,0-.09,0H17.67l-.09,0a.24.24,0,0,1-.15-.13v0a.11.11,0,0,0,0-.05v-.13h4.76Zm0-.93H17.42V12.26h4.76Zm0-6.46v0H17.42v-.16l-.25-.1.26.06,0-.05a.27.27,0,0,1,.16-.1h4.31l.09,0a.24.24,0,0,1,.16.18.09.09,0,0,1,0,0ZM12,15.51H8.84v.8H12Z"/></svg>