<svg id="Layer_1" data-name="Layer 1" xmlns="http://www.w3.org/2000/svg" viewBox="0 0 24 24"><title>E1X_ico_font</title><g id="ico_flow_one_to_one_0"><path d="M22,7.5,16.94,4.58V6.11H7.19A2.75,2.75,0,0,0,4.78,4.72,2.78,2.78,0,1,0,7.19,8.89H17v1.52ZM4.78,9.16A1.67,1.67,0,1,1,6.44,7.5,1.67,1.67,0,0,1,4.78,9.16"/></g><g id="ico_flow_one_to_one_0-2" data-name="ico_flow_one_to_one_0"><path d="M22,16.5l-5.06-2.91v1.52H7.19a2.78,2.78,0,1,0,0,2.78H17v1.53ZM4.78,18.17A1.67,1.67,0,1,1,6.44,16.5a1.67,1.67,0,0,1-1.66,1.67"/></g></svg>