<svg id="Layer_1" data-name="Layer 1" xmlns="http://www.w3.org/2000/svg" viewBox="0 0 24 24"><path d="M8.28809,11.33984l2.35351.48047c.11231-.8164.4961-1.34472,1.28028-1.34472a1.08942,1.08942,0,0,1,1.10449,1.15234,2.86869,2.86869,0,0,1-.752,1.74512L8.17676,18.38281v1.18457h7.57031V17.32617H12.002l2.22461-2.80078a4.67948,4.67948,0,0,0,1.28125-2.97754,3.24679,3.24679,0,0,0-3.58593-3.31347A3.46279,3.46279,0,0,0,8.28809,11.33984Zm13.58105-1.7276L12.39478,2.03278a.63164.63164,0,0,0-.78956,0L2.13086,9.61224a.63161.63161,0,0,0,.39166,1.12427H3.78577V21.47412a.6316.6316,0,0,0,.63159.63165H19.57642a.63164.63164,0,0,0,.63159-.63165V10.73651h1.26318a.63163.63163,0,0,0,.398-1.12427Zm-2.29272-.139a.63171.63171,0,0,0-.63172.63165V20.84253H5.049V10.10492a.6317.6317,0,0,0-.63165-.63165H4.32263l7.6742-6.13935,7.67431,6.13935Z"/></svg>