<svg id="Layer_1" data-name="Layer 1" xmlns="http://www.w3.org/2000/svg" viewBox="0 0 24 24"><g id="Group_4218" data-name="Group 4218"><path id="Path_2057" data-name="Path 2057" d="M21.89038,19.29656,12.65967,3.912a.76921.76921,0,0,0-1.31922,0L2.10974,19.29656a.76922.76922,0,0,0,.65961,1.165H21.23077a.76923.76923,0,0,0,.65961-1.165ZM4.1278,18.9231,12.00006,5.8028l7.87225,13.1203Z"/><path id="Path_2058" data-name="Path 2058" d="M11.23083,9.69239v3.84613a.76923.76923,0,0,0,1.53845,0V9.69239a.76923.76923,0,1,0-1.53845,0Z"/><path id="Path_2059" data-name="Path 2059" d="M12.00006,15.077a.76923.76923,0,0,0-.76923.76922v.76923a.76923.76923,0,0,0,1.53845,0v-.76923A.76922.76922,0,0,0,12.00006,15.077Z"/></g></svg>