<svg id="Layer_1" data-name="Layer 1" xmlns="http://www.w3.org/2000/svg" viewBox="0 0 24 24"><title>E1X_ico_font</title><path d="M12,11Zm8.63-3.44V5.81h-9.8l-2.91,8.6L5.55,9.56H2.47v1.7H4.64L8,18.19,11.75,7.51ZM11,12.42Zm10.59.4-1.86-2.67a.3.3,0,0,0-.26-.13H14a.3.3,0,0,0-.25.12l-2,2.67-.06.18a1.25,1.25,0,0,0,1,1.23v3.46a1,1,0,0,0,1,1h6.07a1,1,0,0,0,1-1V14.2a1.24,1.24,0,0,0,.93-1.08A.27.27,0,0,0,21.61,12.82ZM19,18h-1.3V15.37H19Zm1.06-.34a.35.35,0,0,1-.35.34h-.09v-3a.31.31,0,0,0-.31-.32H17.42a.31.31,0,0,0-.31.32v3H13.67a.34.34,0,0,1-.34-.34V14.17a1.23,1.23,0,0,0,.52-.35,1.25,1.25,0,0,0,1.87,0,1.25,1.25,0,0,0,.94.42,1.23,1.23,0,0,0,.93-.42,1.25,1.25,0,0,0,.94.42,1.22,1.22,0,0,0,.93-.42,1.28,1.28,0,0,0,.63.38Zm.31-4.06a.63.63,0,0,1-.62-.63.32.32,0,0,0-.63,0,.63.63,0,1,1-1.25,0,.31.31,0,0,0-.31-.31.31.31,0,0,0-.31.31A.63.63,0,1,1,16,13a.31.31,0,0,0-.62,0,.63.63,0,1,1-1.25,0,.31.31,0,0,0-.62,0,.63.63,0,0,1-.62.63.62.62,0,0,1-.62-.53l1.81-2.45h5.22L21,13.06A.63.63,0,0,1,20.4,13.62Z"/></svg>