<svg id="Layer_1" data-name="Layer 1" xmlns="http://www.w3.org/2000/svg" viewBox="0 0 24 24"><path d="M13.08,8h-2V9.32h2Zm0,4.9V10.31h-2V12.9l-2-2L7.63,12.28l4.45,4.45,4.47-4.47-1.41-1.41Zm6.32-2a3.81,3.81,0,0,0-1.75-3,3.62,3.62,0,0,0-3.06-.29A5.26,5.26,0,0,0,10.08,5a5.35,5.35,0,0,0-5.3,5.05A4.55,4.55,0,0,0,6.24,19H17.76a4.25,4.25,0,0,0,4.56-4.08A4.12,4.12,0,0,0,19.4,10.9ZM17.76,18H6.24a3.6,3.6,0,0,1-.89-7.09.48.48,0,0,0,.37-.47A4.4,4.4,0,0,1,10.08,6h0A4.3,4.3,0,0,1,14,8.37a.48.48,0,0,0,.65.22h0a2.64,2.64,0,0,1,2.53.09,2.87,2.87,0,0,1,1.33,2.6.48.48,0,0,0,.4.47,3.18,3.18,0,0,1,2.48,3.13C21.36,16.62,20,18,17.76,18Z"/></svg>