<svg id="Layer_1" data-name="Layer 1" xmlns="http://www.w3.org/2000/svg" viewBox="0 0 24 24"><path d="M8.06,15.94h2.88V8.06H8.06ZM21.22,8.11a10.12,10.12,0,0,0-5.33-5.33,10.09,10.09,0,0,0-7.78,0A10.12,10.12,0,0,0,2.78,8.11a10.09,10.09,0,0,0,0,7.78,10.12,10.12,0,0,0,5.33,5.33,10.09,10.09,0,0,0,7.78,0,10.12,10.12,0,0,0,5.33-5.33,10.09,10.09,0,0,0,0-7.78Zm-1.85,7a7.94,7.94,0,0,1-4.26,4.26,8.11,8.11,0,0,1-6.22,0,7.94,7.94,0,0,1-4.26-4.26,8.11,8.11,0,0,1,0-6.22A7.94,7.94,0,0,1,8.89,4.63a8.11,8.11,0,0,1,6.22,0,7.94,7.94,0,0,1,4.26,4.26,8.11,8.11,0,0,1,0,6.22Zm-6.31.83h2.88V8.06H13.06Z"/></svg>