<svg id="Layer_1" data-name="Layer 1" xmlns="http://www.w3.org/2000/svg" xmlns:xlink="http://www.w3.org/1999/xlink" viewBox="0 0 24 24"><defs><style>.cls-1{fill:none;}.cls-2{clip-path:url(#clip-path);}</style><clipPath id="clip-path"><rect class="cls-1" width="24" height="24"/></clipPath></defs><title>E1X_ico_font</title><g id="ico_print_0"><g class="cls-2"><g class="cls-2"><path d="M3.41,17.38H5.61V21H18.39V17.38h2.19A1.42,1.42,0,0,0,22,16V9.08a1.42,1.42,0,0,0-1.42-1.42H18.39V3H5.61V7.66H3.41A1.42,1.42,0,0,0,2,9.08V16a1.42,1.42,0,0,0,1.41,1.41m-.47-8.3a.47.47,0,0,1,.47-.47H20.58a.47.47,0,0,1,.47.47v.47a.47.47,0,0,1-.47.47H3.41a.47.47,0,0,1-.47-.47ZM6.55,4h10.9V7.66H6.55ZM3.41,11H20.58a1.07,1.07,0,0,0,.47-.09v5.07a.47.47,0,0,1-.47.47H18.39V15.3h.68a.47.47,0,1,0,0-.94H4.92a.47.47,0,0,0,0,.94h.68v1.13H3.41A.47.47,0,0,1,2.94,16V10.89a1.56,1.56,0,0,0,.47.07M6.55,15.3h10.9V20H6.55Z"/></g></g></g></svg>