<svg id="Layer_1" data-name="Layer 1" xmlns="http://www.w3.org/2000/svg" viewBox="0 0 24 24"><defs><style>.cls-1{fill:#231f20;}</style></defs><path class="cls-1" d="M11.45074,7.44265A1.49219,1.49219,0,1,0,9.95856,5.95046,1.49256,1.49256,0,0,0,11.45074,7.44265Zm6.31145,6.295-3.8137,3.55445a.80365.80365,0,0,0-.18428.28348L13.1014,19.572a.2985.2985,0,0,0,.06661.29265.29477.29477,0,0,0,.19963.09443.18565.18565,0,0,0,.07755-.007l2.03978-.5154a.60193.60193,0,0,0,.29582-.16312l3.82352-3.55408a1.35285,1.35285,0,1,0-1.84212-1.98178ZM13.819,19.25033l.402-1.21329.83739.90053Zm1.77136-.5832L14.539,17.53605l2.97248-2.763,1.0514,1.13076Zm3.633-3.3678-.22987.20453-1.05138-1.13111.22037-.2045a.7668.7668,0,0,1,.55865-.21184.81741.81741,0,0,1,.54242.2422.79344.79344,0,0,1-.04019,1.10072Zm2.15191.04614h0a5.24547,5.24547,0,0,0-3.41572-3.58368l-1.935-9.3443L15.93813,2l-.41749.08611L2.85012,4.70021l-.41749.08611.08583.41749L5.66561,20.54872l.08583.418.418-.08583,5.79715-1.19106a5.24965,5.24965,0,0,0,9.40861-4.3444ZM3.43983,5.45047l7.51092-1.54163,4.32546-.91859.86,4.07768.23333,1.13775-.65-.13416a5.23558,5.23558,0,0,0-1.0547-.10833,5.093,5.093,0,0,0-1.74968.30888,5.16306,5.16306,0,0,0-1.55524.90248l-.27194.22833-1.74-.81776a5.12309,5.12309,0,0,0-2.195-.49332A5.18119,5.18119,0,0,0,4.8259,8.651l-.66054.33416ZM6.45836,19.94679l-.04166.00833L5.07256,13.40806a14.71333,14.71333,0,0,1,4.7135-1.04081,33.086,33.086,0,0,0,3.44631-.52193,14.1795,14.1795,0,0,0,3.618-1.29442l-.00027-.00166.20572,1.00245a5.241,5.241,0,0,0-5.95362,4.59224,1.76273,1.76273,0,0,1-1.7972,1.2507A2.18615,2.18615,0,0,0,7.1164,18.98709,1.87245,1.87245,0,0,1,6.45836,19.94679Zm11.14553,1.44993a4.82492,4.82492,0,1,1,3.3602-5.93729l0,0a4.81823,4.81823,0,0,1-3.36022,5.93727Z"/></svg>