<svg id="Layer_1" data-name="Layer 1" xmlns="http://www.w3.org/2000/svg" viewBox="0 0 24 24"><path d="M21.39,5.08,18.62,7.86v.38l3-3ZM18.62,7.42Zm.52-3.37-.52.53V5l.84-.85Zm1.26.39L18.62,6.22V6.6l2-2Zm.52.29L18.62,7v.38l2.53-2.53A1.88,1.88,0,0,0,20.92,4.73ZM19.53,9l2.8-2.79a1.88,1.88,0,0,0-.16-.23L19.31,8.8Zm-.47-.34L22,5.69l-.18-.21-3,3ZM21,10l2-2c0-.11,0-.22-.06-.33L20.73,9.84Zm-.47-.35,2.35-2.34L22.74,7,20.26,9.49ZM20,9.31l2.6-2.61-.12-.26L19.78,9.15Zm-.2-5.11L18.62,5.4v.38L20.09,4.3ZM18.54,14.37a4.19,4.19,0,1,0,4.19,4.19A4.19,4.19,0,0,0,18.54,14.37Zm2.63,6.28-.53.53-2.1-2.09-2.1,2.09-.52-.53L18,18.56l-2.09-2.1.52-.53,2.1,2.1,2.1-2.1.53.53-2.1,2.1Zm1-9.77.13.1a4.49,4.49,0,0,0,.29-.53ZM23,8.39l-1.79,1.8.22.16L23,8.78a1.93,1.93,0,0,0,0-.24Zm-1.1,2.3.93-.93a3.88,3.88,0,0,0,.11-.49l-1.26,1.26Zm-3.45,2.38a4.54,4.54,0,0,0,3.63-1.81h0l-3.8-2.77h0V4a4.54,4.54,0,0,0,.17,9.08ZM8.26,6.94H2.12v1.3H8.26ZM2.13,10.36h8.09V9.05H2.13Zm3.63,8.08-3.22-.6L1,20H12.75V16.47L9,15.39ZM8.82,4.91H2.13V6.22H8.82Zm-.56,6.17H2.12v1.3H8.26Z"/></svg>