<svg id="Layer_1" data-name="Layer 1" xmlns="http://www.w3.org/2000/svg" viewBox="0 0 24 24"><title>E1X_ico_font</title><path d="M21.55,4.73H20.18V3.37a.46.46,0,0,0-.45-.46H19.5A12.22,12.22,0,0,0,12,5.52,12.22,12.22,0,0,0,4.5,2.91H4.27a.46.46,0,0,0-.45.46V4.73H2.45A.46.46,0,0,0,2,5.19V19.73a.46.46,0,0,0,.45.46H8.73a5.92,5.92,0,0,1,2.16.41l.91.45a.43.43,0,0,0,.35,0l.9-.45a6.24,6.24,0,0,1,2.22-.41h6.28a.46.46,0,0,0,.45-.46V5.19A.46.46,0,0,0,21.55,4.73ZM2.91,19.28V5.64h.91V17.91a.46.46,0,0,0,.45.46h.2a11.26,11.26,0,0,1,4.43.91Zm8.64.43a12.37,12.37,0,0,0-6.82-2.25V3.82a11.38,11.38,0,0,1,6.82,2.49Zm.9,0V6.31a11.32,11.32,0,0,1,6.82-2.49V17.46A12.37,12.37,0,0,0,12.45,19.71Zm8.64-.43h-6a11.26,11.26,0,0,1,4.43-.91h.2a.46.46,0,0,0,.45-.46V5.64h.91Z"/></svg>