<svg id="Layer_1" data-name="Layer 1" xmlns="http://www.w3.org/2000/svg" xmlns:xlink="http://www.w3.org/1999/xlink" viewBox="0 0 24 24"><defs><style>.cls-1{fill:none;}.cls-2{clip-path:url(#clip-path);}</style><clipPath id="clip-path"><rect class="cls-1" width="24" height="24"/></clipPath></defs><title>E1X_ico_font</title><g id="ico_target_audience"><g class="cls-2"><path d="M12,2A10,10,0,1,0,22,12,10,10,0,0,0,12,2Zm0,3A3.25,3.25,0,1,1,8.75,8.25,3.25,3.25,0,0,1,12,5Zm0,14a7,7,0,0,1-6.14-3.64c1.08-1.48,4.35-2.23,6.14-2.23s5.07.75,6.14,2.23A7,7,0,0,1,12,19Z"/></g></g></svg>