<?xml version="1.0" encoding="UTF-8"?><svg id="Layer_1" xmlns="http://www.w3.org/2000/svg" width="24" height="24" viewBox="0 0 24 24"><path d="M22,15.8591309V2.4072266H2V15.8591309H11.560791v.9800415l-5.6987305,3.8838501c-.1957397,.1447754-.237854,.4204102-.0943604,.6170654,.1490479,.1897583,.4212646,.2282104,.6170654,.0870972l5.1760254-3.4700317v3.1361084c-.03125,.2425537,.1400757,.4645386,.3826294,.4957886s.4645386-.1400757,.4957886-.3826294c.0048218-.0375366,.0048218-.0755615,0-.1131592v-3.1361084l5.1760254,3.4918213c.2005005,.1443481,.4799805,.0988159,.6243286-.1016235s.0988159-.4799805-.1016235-.6243286l-5.6987305-3.8838501v-.9800415h9.560791Zm-19.0199585-.9727783V3.3800049H21.0199585V14.8863525H2.9800415Zm.7259521-.3702393H20.3012695V3.9462891H3.7059937V14.5161133Zm.3121338-10.2431641h15.9710083V14.1894531h-1.4519043V6.1313477h-1.2196045V14.1894531h-.8493652V7.3509521h-1.1760864v6.838501h-.8566284v-5.1325073h-1.1760254v5.1325073h-.8566284v-3.9129028h-1.1760254v3.9129028h-.8493652V7.8373413h-1.1832886v6.3521118h-.8203735v-5.1325073h-1.2050781v5.1325073h-.8566284v-4.319397h-1.1760254v4.319397h-1.117981V4.2729492Z"/></svg>