<svg id="Layer_1" data-name="Layer 1" xmlns="http://www.w3.org/2000/svg" viewBox="0 0 24 24"><title>E1X_ico_font</title><path d="M20.35,18.09a.32.32,0,0,0-.08-.2L13.4,11a5.16,5.16,0,1,0-2.23,2.35h0l1.2,1.2v1.86a.31.31,0,0,0,.29.3l1.7.11a.31.31,0,0,1,.29.3l0,1.59A.3.3,0,0,0,15,19l2,.12,1,1a.37.37,0,0,0,.2.09l2.23.07s0,0,0,0S20.35,18.57,20.35,18.09Zm-9-6.39H9.88V8a1.39,1.39,0,0,0-.22-.86,1,1,0,0,0-.81-.31,1.18,1.18,0,0,0-1.08.79,3.88,3.88,0,0,0-.2,1.48V11.7H6.13V5.61H7.44v.83l0-.05a2,2,0,0,1,1.79-.94,2,2,0,0,1,2.06,2.18Z"/></svg>