<svg id="Layer_1" data-name="Layer 1" xmlns="http://www.w3.org/2000/svg" viewBox="0 0 24 24"><title>E1X_ico_font</title><path d="M21.28,5.36h-2a1.18,1.18,0,0,0-1.09.86L15.58,17.3a22.58,22.58,0,0,1,3.48,1.35L22,6.21a.67.67,0,0,0-.46-.83A.6.6,0,0,0,21.28,5.36ZM15.81,8.82h-2a1.19,1.19,0,0,0-1.1.87L11.15,16.3a31.92,31.92,0,0,1,3.62.77L16.5,9.69A.69.69,0,0,0,16,8.85a.58.58,0,0,0-.23,0ZM5.54,13.11h-2A1.19,1.19,0,0,0,2.43,14L2,15.81c.31,0,.64,0,1-.05,1,0,1.92,0,2.82,0L6.22,14a.66.66,0,0,0-.45-.84A.45.45,0,0,0,5.54,13.11Zm5.26-2.3h-2a1.19,1.19,0,0,0-1.1.86l-1,4.16c1.34.08,2.57.2,3.71.36l1.06-4.52a.68.68,0,0,0-.46-.84A.58.58,0,0,0,10.8,10.81Z"/></svg>