<svg id="Layer_1" data-name="Layer 1" xmlns="http://www.w3.org/2000/svg" viewBox="0 0 24 24"><title>E1X_ico_font</title><path d="M10.38,12.13l.59.48c4.32,3.45,8.62,5.23,9.6,4l-7.9-6.3Z"/><path d="M5.57,2a3.57,3.57,0,0,0,0,7.14A3.53,3.53,0,0,0,7,8.85c.14.16.28.33.44.49C8,8.75,8.62,8.16,9.26,7.6l-.52-.41A3.55,3.55,0,0,0,5.57,2Zm0,6.43A2.86,2.86,0,1,1,8.43,5.57,2.87,2.87,0,0,1,5.57,8.43Z"/><path d="M8.74,12.53,20.57,3.11c-1-1.24-5.28.55-9.6,4a29.86,29.86,0,0,0-4,3.77,3.18,3.18,0,0,0-.74-.23,3.82,3.82,0,0,0-.68-.07,3.57,3.57,0,1,0,3.57,3.57A3.39,3.39,0,0,0,9,13.23,3.91,3.91,0,0,0,8.74,12.53ZM5.57,17a2.86,2.86,0,1,1,2.86-2.86A2.87,2.87,0,0,1,5.57,17Z"/><rect x="14.86" y="9.14" width="1.43" height="0.71"/><rect x="17.71" y="9.14" width="1.43" height="0.71"/><rect x="20.57" y="9.14" width="1.43" height="0.71"/><rect x="10.57" y="14.86" width="0.71" height="1.43"/><rect x="10.57" y="17.71" width="0.71" height="1.43"/><rect x="10.57" y="20.57" width="0.71" height="1.43"/></svg>