<svg id="Layer_1" data-name="Layer 1" xmlns="http://www.w3.org/2000/svg" viewBox="0 0 24 24"><title>E1X_ico_font</title><path d="M4.39,19.5h9.82v.6a1.35,1.35,0,0,0,1.35,1.35h2.7a1.34,1.34,0,0,0,1.35-1.35V17.4a1.34,1.34,0,0,0-1.35-1.35h-2.7a1.35,1.35,0,0,0-1.35,1.35v.75H5.74V12.88h5.47v.65a1.35,1.35,0,0,0,1.35,1.35h2.7a1.34,1.34,0,0,0,1.35-1.35v-2.7a1.34,1.34,0,0,0-1.35-1.35h-2.7a1.36,1.36,0,0,0-1.35,1.35v.7H5.74V6.2H8.21v.4A1.35,1.35,0,0,0,9.56,8h2.7A1.34,1.34,0,0,0,13.61,6.6V3.9a1.34,1.34,0,0,0-1.35-1.35H9.56A1.35,1.35,0,0,0,8.21,3.9v.95H4.39Zm11.17-2.1h2.7v2.7h-2.7Zm-6-13.5h2.7V6.6H9.56Zm3,6.93h2.7v2.7h-2.7Z"/></svg>