<svg id="Layer_1" data-name="Layer 1" xmlns="http://www.w3.org/2000/svg" viewBox="0 0 24 24"><defs><style>.cls-1{fill:none;}</style></defs><title>E1X_ico_font</title><rect class="cls-1" x="1.44" y="1.44" width="21.12" height="21.12"/><path d="M17.06,18.16h.72v-.23l-.17-.16A4.51,4.51,0,0,1,17.06,18.16ZM3.2,4.08V18.16h9.88a3.94,3.94,0,0,1-1-.85H9.8V13.76h1.49a3.4,3.4,0,0,1,.36-.88H9.8V9.36h4.4V11a4,4,0,0,1,.86-.1l.24,0V9.36h4.43v3.52H18.47a4.28,4.28,0,0,1,.36.88h.9v3.55H18.06l0,0,.17.17h.48l.65.65H20.8V4.08Zm1.1.85H8.7V8.48H4.3ZM8.7,17.31H4.26V13.76H8.7Zm0-4.43H4.26V9.36H8.7Zm5.5-4.4H9.8V4.93h4.4Zm5.53,0H15.3V4.93h4.43Z"/></svg>