<svg id="Layer_1" data-name="Layer 1" xmlns="http://www.w3.org/2000/svg" viewBox="0 0 24 24"><title>E1X_ico_font</title><circle cx="19.62" cy="4.86" r="0.48"/><path d="M20.57,3H3.43A1.4,1.4,0,0,0,2,4.38V19.62a1.4,1.4,0,0,0,1.43,1.43H20.57A1.4,1.4,0,0,0,22,19.62V4.38A1.4,1.4,0,0,0,20.57,3ZM3.43,3.9H20.57a.46.46,0,0,1,.48.48V5.81H3V4.38A.46.46,0,0,1,3.43,3.9ZM20.57,20.1H3.43A.46.46,0,0,1,3,19.62V6.76h18.1V19.62A.46.46,0,0,1,20.57,20.1ZM17.24,4.86a.48.48,0,1,1,1,0,.48.48,0,0,1-1,0Zm-1.91,0a.48.48,0,1,1,1,0,.48.48,0,0,1-1,0ZM16.76,13h-1a3.79,3.79,0,0,0-3.28-3.28v-1a.48.48,0,0,0-1,0v1A3.78,3.78,0,0,0,8.24,13h-1a.48.48,0,1,0,0,1h1a3.79,3.79,0,0,0,3.28,3.29v1a.48.48,0,0,0,1,0v-1a3.79,3.79,0,0,0,3.28-3.29h1a.48.48,0,1,0,0-1Zm-2,0h-1a2,2,0,0,0-1.38-1.38v-1A2.93,2.93,0,0,1,14.81,13ZM12,14.38a1,1,0,1,1,.95-1A1,1,0,0,1,12,14.38Zm-.48-3.76v1A2,2,0,0,0,10.14,13h-1A2.93,2.93,0,0,1,11.52,10.62ZM9.19,13.9h1a2,2,0,0,0,1.38,1.39v1A2.93,2.93,0,0,1,9.19,13.9Zm3.29,2.34v-1a2,2,0,0,0,1.38-1.38h1A2.93,2.93,0,0,1,12.48,16.24Z"/></svg>