<?xml version="1.0" encoding="UTF-8"?><svg id="Layer_1" xmlns="http://www.w3.org/2000/svg" width="24" height="24" viewBox="0 0 24 24"><path d="m19.6190186,4.3809204c-.2629395,0-.4761353.2131958-.4761353.4761963s.2131958.4761963.4761353.4761963c.2630005,0,.4761963-.2131958.4761963-.4761963s-.2131958-.4761963-.4761963-.4761963Zm.9523926-1.4285278H3.4285889c-.8095703,0-1.4285889.6190186-1.4285889,1.4285278v15.2380981c0,.8095093.6190186,1.4285889,1.4285889,1.4285889h17.1428223c.8095703,0,1.4285889-.6190796,1.4285889-1.4285889V4.3809204c0-.8095093-.6190186-1.4285278-1.4285889-1.4285278Zm.4761963,16.666626c0,.2857056-.1904907.4761963-.4761963.4761963H3.4285889c-.2857056,0-.4761963-.1904907-.4761963-.4761963V6.7619019h18.0952148v12.8571167Zm0-13.8095093H2.9523926v-1.4285889c0-.2857056.1904907-.4761963.4761963-.4761963h17.1428223c.2857056,0,.4761963.1904907.4761963.4761963v1.4285889Zm-9.0493164,7.8208008c.005188.000061.010437.000061.015625,0,1.0362549,0,1.8763428-.8400269,1.8763428-1.8762817s-.8400879-1.8762817-1.8763428-1.8762817c-1.0361938,0-1.8762817.8400269-1.8762817,1.8762817-.0043335,1.0319214.8287354,1.8720093,1.8606567,1.8762817Zm.0062866-3.0020752c.0031128-.000061.0062256-.000061.0093384,0,.6217651,0,1.1258545.5040283,1.1258545,1.1257935s-.5040894,1.1258545-1.1258545,1.1258545-1.1257935-.5040894-1.1257935-1.1258545c-.0026245-.6192017.4972534-1.12323,1.1164551-1.1257935Zm5.7097168-6.2473145c-.2857056,0-.4761963.1904907-.4761963.4761963s.1904907.4761963.4761963.4761963.4761963-.1904907.4761963-.4761963-.1904907-.4761963-.4761963-.4761963Zm-1.9047852,0c-.2857056,0-.4761963.1904907-.4761963.4761963s.1904907.4761963.4761963.4761963.4761963-.1904907.4761963-.4761963-.1904907-.4761963-.4761963-.4761963Zm-3.8092651,14.3502197l3.1272583-5.2954102c.5576782-1.1392212.4840088-2.4863281-.1945801-3.5579834-.6114502-1.0292358-1.7216797-1.6583862-2.9188843-1.6539917-1.2028809.001709-2.3186035.6279297-2.9466553,1.6538696-.6790161,1.0715332-.7526855,2.4188232-.1945801,3.5579834l3.1274414,5.2955322Zm-2.293396-8.4504395c.7802124-1.274231,2.4456787-1.6747437,3.7199097-.8945312.3646851.2233276.6712036.5298462.8944702.8945312.5310059.8410034.5939331,1.8954468.166748,2.7936401l-2.473938,4.1695557-2.460144-4.1556396c-.4319458-.9005737-.3742676-1.9592896.1529541-2.8075562Z"/></svg>