<?xml version="1.0" encoding="UTF-8"?><svg id="Layer_1" xmlns="http://www.w3.org/2000/svg" width="24" height="24" viewBox="0 0 24 24"><path d="M19.8535767,1.6511841c-.0931396-.0931396-.2219238-.1464233-.3535767-.1464233H4.5c-.1316528,0-.260437,.0532837-.3535767,.1464233-.0930786,.0930786-.1464233,.2218628-.1464233,.3535767V21.0047607c0,.175354,.0924072,.338562,.2428589,.428772,.1503906,.09021,.3378906,.0948486,.4925537,.0122681l7.2645264-3.8775024,7.2646484,3.8775024c.1546631,.0825806,.3421631,.0779419,.4925537-.0122681,.1504517-.09021,.2428589-.253418,.2428589-.428772V2.0047607c0-.1317139-.0533447-.260498-.1464233-.3535767Zm-.8535767,18.5199585l-6.7645874-3.6106567c-.1474609-.0787354-.3233643-.0787354-.4708252,0l-6.7645874,3.6105957V5.0055542h14v15.1655884Z"/></svg>