<?xml version="1.0" encoding="UTF-8"?><svg id="Layer_1" xmlns="http://www.w3.org/2000/svg" width="24" height="24" viewBox="0 0 24 24"><path d="M8.9176636,9.758606l.21698-.9265137c-1.6043701-.364502-2.6094971-1.9606323-2.2449951-3.5650024,.364502-1.6043091,1.9606323-2.609436,3.5649414-2.2449341,1.3060913,.2967529,2.25354,1.4285889,2.3157959,2.7664185l.9500122-.046875c-.1035156-2.1674805-1.944458-3.8406372-4.1118774-3.7371826-2.1674805,.1035156-3.8406372,1.944458-3.7371826,4.1118774,.0840454,1.7597656,1.3291626,3.2484131,3.0463257,3.6422119Zm.8795776-4.8320312c.5031738,.000061,.925415,.3793335,.9793091,.8795776l.9441528-.1055298c-.1143188-1.0626221-1.0684814-1.8313599-2.1311035-1.717041-1.0626221,.1143799-1.8313599,1.0684814-1.71698,2.1311035,.06427,.5977783,.402771,1.1317139,.9160156,1.4448853l.4984741-.8034058c-.2866211-.1829224-.4609985-.4985962-.4633179-.838562-.000061-.5405273,.4330444-.9814453,.9734497-.9910278Zm5.5388184,6.7452393c.0003052,.000061,.0005493,.0002441,.0009155,.0003052,.0005493,.000061,.0010986,0,.001709,.0001221l-.0026245-.0004272Zm2.7967529,2.3822632c-.0134277-.3233643-.0549927-.6449585-.1235962-.9612427h.0002441c-.0001221-.0008545-.0005493-.0015259-.0006714-.0023804-.0004883-.0021362-.0006714-.0042725-.0010986-.0064087l-.0007324,.0001221c-.1209717-.6062622-.6469116-1.0474243-1.2658081-1.059021l-.0031738-.000061h-.0943604l-.013916,.0011597c-.1789551,.0144653-.3393555,.0847778-.480835,.1810913-.0374146-.0558472-.0671997-.1182251-.1123657-.1676636-.1815186-.2012329-.4333496-.3273315-.6995239-.3675537-.0723267-.0119629-.1449585-.0180664-.2171631-.0180664-.2520752-.000061-.4923706,.0789185-.7022095,.2108154-.081665-.1169434-.1890259-.241394-.3348999-.347168-.1368408-.0996094-.3133545-.1757812-.5136108-.206543l.0007935-.0031128c-.0083008-.0020142-.0166626-.0011597-.0249634-.0030518-.0067139-.0008545-.012085-.0040283-.0187988-.0047607l-.0003052,.0025024c-.0935059-.0195923-.1875-.0338135-.2805176-.0338135-.2043457-.000061-.3972778,.0585327-.5775146,.1435547v-3.6397705c-.0001831-.7961426-.6113892-1.4588013-1.4054565-1.522644l-.0041504-.0003662-.003418-.0001831-.0863647-.0025635c-.7700806,.0001831-1.4136963,.6001587-1.4595947,1.3779907l-.0003662,.0057983-.0019531,.078064-.0001221,.0045166v6.4503174l-1.0467529-1.1647339-.0012207,.0010986c-.2683716-.3228149-.6571045-.4934692-1.0473022-.493042-.300354-.0002441-.6057739,.1000977-.8571167,.303772-.3322754,.2687378-.5062256,.6643677-.5057373,1.0603638-.0003052,.300415,.0999756,.6056519,.3035278,.8570557l.0076904,.0094604,.0967407,.1037598,4.078125,5.0214844,.1307373,2.137146h7.1882935l.079834-7.9368896-.0003662-.0090332Zm-.7819214,7.2363281h-5.8183594l-.1038818-1.6981201-4.2373047-5.2174072-.0896606-.0961914c-.0971069-.121582-.1436157-.2636108-.1439209-.4075928,.0004883-.1918945,.0822754-.3789673,.2426147-.5088501l.0001221-.000061c.1220093-.0986938,.2652588-.1453247,.4105835-.1456299,.1917725,.0004883,.3789673,.0822754,.5088501,.2426758l.0057373,.0070801,2.2902832,2.5483398V7.7224121l.0014038-.0569458c.0232544-.4001465,.3562012-.7091064,.7510376-.7089233l.0385132,.0011597c.4243164,.0344849,.7514038,.3892822,.7512817,.8150024v6.1969604l.6809692-1.5909424c.1053467-.2471924,.3477173-.4001465,.6061401-.4002686l.1564331,.0189819,.0216064,.005249,.0222168,.0025024c.0880737,.0105591,.1557007,.0406494,.2212524,.0874023,.097229,.0690918,.1812134,.1838989,.2340698,.2838135l.0576782,.1245117,.0122681,.0333862,.0020752,.0063477,.2128296,.7214966,.4212036-.6254883c.1160278-.1724854,.3095703-.2730103,.5128784-.2730713l.1019897,.0084839,.0025635,.0004272c.1380615,.0244141,.2114258,.0653076,.2891846,.1467285,.076355,.0823364,.1546021,.2265015,.2155151,.4563599l.364502,1.3666992,.3236694-1.3768921c.0296631-.1266479,.1376343-.2189941,.2669067-.2307129h.0441284c.286438,.0054321,.5303955,.2106934,.5844116,.4921265l.0009155,.0048218,.0009155,.0039673c.0606079,.2772827,.0969238,.5592651,.1089478,.8428955l-.0725708,7.2119141ZM6.7538452,12.810791c.000061-.000061,.000061,0,.0001221-.000061l.000061-.000061-.0001831,.0001221Z"/></svg>