<svg id="Layer_1" data-name="Layer 1" xmlns="http://www.w3.org/2000/svg" viewBox="0 0 24 24"><title>E1X_ico_font</title><path d="M11.28,21.64H2.15V2.37a.25.25,0,0,0-.49,0V22.13h9.62a.25.25,0,1,0,0-.49ZM3.45,11.58H2.83v9.2h.62Zm5.39,1H8.23v8.22h.61Zm5.77,6.19a.46.46,0,0,0-.45.46.46.46,0,0,0,.91,0A.46.46,0,0,0,14.61,18.75Zm-4.54-4.47H9.46v6.5h.61ZM7.49,6.43H6.88V20.78h.61ZM6.14,2.26H5.53V20.78h.61ZM4.79,5.69H4.18V20.78h.61Zm8,14a.46.46,0,0,0-.46.46.46.46,0,0,0,.91,0A.46.46,0,0,0,12.8,19.66Zm7.27-4.09a1.37,1.37,0,1,0,1.36,1.37A1.36,1.36,0,0,0,20.07,15.57ZM18,13.36a.63.63,0,1,0,.63.62A.62.62,0,0,0,18,13.36Zm3.64.62a.68.68,0,1,0,.68.68A.68.68,0,0,0,21.66,14Zm-4.32,1.59a.46.46,0,0,0-.45.46.45.45,0,0,0,.45.45A.46.46,0,0,0,17.8,16,.47.47,0,0,0,17.34,15.57Zm4.41-9.21a3.9,3.9,0,1,0-3.9,3.9A3.91,3.91,0,0,0,21.75,6.36Zm-6.8,0a2.9,2.9,0,0,1,2.9-2.9h0A2.9,2.9,0,1,1,15,6.36Zm-.56,10.12a.68.68,0,1,0,.68.68A.68.68,0,0,0,14.39,16.48Zm5.22-3.18a.46.46,0,0,0,.46.45.45.45,0,0,0,.45-.45.46.46,0,0,0-.45-.46A.47.47,0,0,0,19.61,13.3Zm-2.72,4.09a.91.91,0,1,0,.91.91A.91.91,0,0,0,16.89,17.39Z"/></svg>