<svg id="Layer_1" data-name="Layer 1" xmlns="http://www.w3.org/2000/svg" width="24" height="24" viewBox="0 0 24 24"><path d="M12.012,19.296h-.008a.996.996,0,1,0,.008,0Zm-.00262,1.60736H12.004a.59735.59735,0,1,1,.00537,0ZM13.004,3h-2v.4h2ZM7.5,19h9V4h-9ZM7.9,4.4h8.2V18.6H7.9ZM16.512,2H7.5a.996.996,0,0,0-1,.992V21a.996.996,0,0,0,.992,1H16.5a.996.996,0,0,0,1-.992V3A.994.994,0,0,0,16.512,2ZM17.1,21a.6.6,0,0,1-.59467.6H7.5a.6.6,0,0,1-.6-.59467V3a.6.6,0,0,1,.59467-.6H16.5a.6.6,0,0,1,.6.59467Z"/></svg>