<svg id="Layer_1" data-name="Layer 1" xmlns="http://www.w3.org/2000/svg" width="24" height="24" viewBox="0 0 24 24"><path d="M15.32025,11.631a.369.369,0,0,0-.00006-.73779A.369.369,0,0,0,15.32025,11.631Zm5.99817-6.57892L12.31866,2.05225a.99935.99935,0,0,0-.64,0L2.67889,5.05212a1,1,0,0,0-.67865.94867V9.78168A12.4188,12.4188,0,0,0,11.8,22.00037h.42A12.41866,12.41866,0,0,0,21.99969,9.78168V6.00079A.99993.99993,0,0,0,21.31842,5.05212Zm-.31873,4.73627a11.47071,11.47071,0,0,1-8.88952,11.212h-.2013A11.47,11.47,0,0,1,3.00024,9.78168L2.99512,6.00079l8.99975-2.99987,9.00482,2.99987ZM6.83521,8.495v7.00994c0,1.64746,2.67681,2.39771,5.16479,2.39771s5.16479-.75025,5.16479-2.39771V8.495C17.09827,5.27991,6.90149,5.28058,6.83521,8.495Zm9.59179,0c-.06207,2.17584-8.79425,2.17437-8.854-.00013C7.63434,6.31989,16.36737,6.32129,16.427,8.495ZM7.573,9.81012c1.97137,1.45062,6.88257,1.45062,8.854,0v1.26727h-.00177c-.02179,2.17639-8.82965,2.17462-8.851,0H7.573Zm0,2.10309c1.53277,1.587,7.32129,1.587,8.854,0v1.37768h-.00177c-.02191,2.1764-8.82953,2.17469-8.851,0H7.573Zm0,2.2135c1.53271,1.58691,7.32129,1.58691,8.854,0v1.37823c-.064,2.17566-8.79321,2.17334-8.854-.00012ZM15.32025,16.058a.36906.36906,0,0,0-.00006-.73785A.36906.36906,0,0,0,15.32025,16.058Zm0-2.2135a.369.369,0,0,0-.00006-.73779A.369.369,0,0,0,15.32025,13.84454Z"/></svg>