<svg id="Layer_1" data-name="Layer 1" xmlns="http://www.w3.org/2000/svg" width="24" height="24" viewBox="0 0 24 24"><path d="M18.78357,3.81854a.90827.90827,0,1,0-.90826-.90826A.9083.9083,0,0,0,18.78357,3.81854Zm0,5.6388a.90827.90827,0,1,0-.90826-.90827A.9083.9083,0,0,0,18.78357,9.45734Zm-2.22009-.603a2.23637,2.23637,0,1,0,0-.7H15.35077V3.35h1.21271a2.23637,2.23637,0,1,0,0-.7H14.65076v9H11.4043V8.98529c-.05719-2.76453-8.82495-2.764-8.8819,0v6.02747c0,1.41656,2.30164,2.0617,4.44092,2.0617s4.441-.64514,4.441-2.0617V12.35h3.24646v9h1.91272a2.23637,2.23637,0,1,0,0-.7H15.35077V15.84558h1.21271a2.23637,2.23637,0,1,0,0-.7H15.35077V8.85437ZM18.7644,6.793A1.71137,1.71137,0,1,1,17.053,8.50439,1.71307,1.71307,0,0,1,18.7644,6.793Zm0-5.50439A1.71136,1.71136,0,1,1,17.053,3,1.713,1.713,0,0,1,18.7644,1.28864ZM10.7699,15.01276c-.05506,1.87078-7.56085,1.86877-7.6131-.00006v-1.185c1.31787,1.36456,6.29517,1.3645,7.6131,0Zm0-1.90375h-.00153c-.0188,1.8714-7.5921,1.86993-7.61053,0h-.001V11.92444c1.31793,1.36456,6.29517,1.36456,7.6131,0Zm0-1.90326h-.00153c-.01874,1.87134-7.59222,1.86987-7.61053,0h-.001V10.11609c1.69507,1.24731,5.918,1.24731,7.6131,0ZM3.1568,8.98517c.05273-1.87018,7.56183-1.869,7.6131.00012C10.71649,10.85614,3.20813,10.85492,3.1568,8.98517ZM18.7644,19.28864A1.71136,1.71136,0,1,1,17.053,21,1.713,1.713,0,0,1,18.7644,19.28864Zm0-5.5044A1.71137,1.71137,0,1,1,17.053,15.49561,1.713,1.713,0,0,1,18.7644,13.78424ZM9.81824,11.68182a.31732.31732,0,0,0,0-.6344A.31732.31732,0,0,0,9.81824,11.68182Zm0,3.80652a.31732.31732,0,0,0,0-.6344A.31732.31732,0,0,0,9.81824,15.48834Zm0-1.90326a.31732.31732,0,0,0,0-.6344A.31732.31732,0,0,0,9.81824,13.58508Z"/></svg>