<svg id="Layer_1" data-name="Layer 1" xmlns="http://www.w3.org/2000/svg" xmlns:xlink="http://www.w3.org/1999/xlink" viewBox="0 0 24 24"><defs><style>.cls-1{fill:none;}.cls-2{clip-path:url(#clip-path);}</style><clipPath id="clip-path"><rect class="cls-1" width="24" height="24"/></clipPath></defs><title>E1X_ico_font</title><g id="ico_flag_0"><g class="cls-2"><g class="cls-2"><path d="M12,3.2l0,0a9.48,9.48,0,0,0-5-.39l-.65.13V2.65a.65.65,0,1,0-1.3,0V21.35a.65.65,0,1,0,1.3,0v-9l.91-.17a8.12,8.12,0,0,1,4.33.33l0,0a9.13,9.13,0,0,0,3.22.56A8.86,8.86,0,0,0,17,12.83l1.5-.37a.65.65,0,0,0,.5-.63V3.72a.65.65,0,0,0-.26-.52.66.66,0,0,0-.56-.11l-1.5.37A7.88,7.88,0,0,1,12,3.2"/></g></g></g></svg>