<?xml version="1.0" encoding="UTF-8"?><svg id="Layer_1" xmlns="http://www.w3.org/2000/svg" width="24" height="24" viewBox="0 0 24 24"><path d="M19.75,12.16895V5.18396l-3.00171-3.00171-2.771,1.3855h-4.22729v-1.25h-3.38379L2.25,6.43396v11.76758l1.61621,1.61621h2.86011l3.60046-1.19995,.82996,.41486c.95154,1.77386,2.87494,2.9895,5.0979,2.9895,3.16693,0,5.73425-2.46246,5.73425-5.5,0-1.77411-.87946-3.34747-2.23889-4.35321ZM3.5,6.95154l3.38379-3.38379h1.61621v6.57471l-5,3.99957V6.95154Zm7.02045,9.57062c0,.28302,.0293,.55884,.07227,.83032l-.16949-.08478-3.89954,1.30005h-2.13989l-.88379-.88379v-1.94049l2.71942-2.17572h5.20386c-.56885,.854-.90283,1.86584-.90283,2.95441Zm.87811-4.20441h-3.61676l1.9682-1.57471V4.81775h4.52271l2.229-1.1145,1.99829,1.99829v.698l-7.10144,5.91821Zm4.85608-1.29559c-.56305,0-1.10577,.08112-1.61987,.2262l3.86523-3.22083v3.43298c-.68964-.2818-1.44836-.43835-2.24536-.43835Zm2.02747,4.56299c0,1.12018-.90729,2.02747-2.02747,2.02747s-2.02753-.90729-2.02753-2.02747c0-1.12024,.90735-2.02753,2.02753-2.02753s2.02747,.90729,2.02747,2.02753Zm-2.02747,5.43701c-1.31885,0-2.49371-.57739-3.31677-1.48132,.89899-.60754,2.40936-.91443,3.31677-.91443s2.41779,.30688,3.31671,.91449c-.82306,.90387-1.99792,1.48126-3.31671,1.48126Z"/></svg>