<svg id="Layer_1" data-name="Layer 1" xmlns="http://www.w3.org/2000/svg" viewBox="0 0 24 24"><defs><style>.cls-1{fill-rule:evenodd;}</style></defs><title>E1X_ico_font</title><path class="cls-1" d="M21.59,5.84H14.82L13.92,4a.3.3,0,0,0-.27-.16H6.7A.29.29,0,0,0,6.44,4L5.82,5.25H5.05a.3.3,0,0,0-.26.17l-1,2s0,0,0,.06,0,0,0,.06V18.45a.3.3,0,0,0,.29.3H19.94a.3.3,0,0,0,.29-.3V17.34h1.36a.3.3,0,0,0,.3-.29V6.13A.3.3,0,0,0,21.59,5.84Zm-16.36,0h6.59l.69,1.4h-8ZM19.64,18.16H4.35V7.83H19.64Zm1.65-1.41H20.23V7.53a.29.29,0,0,0-.29-.29H13.17l-.91-1.82A.29.29,0,0,0,12,5.25H6.48l.41-.81h6.58l1,2h6.82Z"/></svg>