<svg id="Layer_1" data-name="Layer 1" xmlns="http://www.w3.org/2000/svg" viewBox="0 0 24 24"><g id="Group_4774" data-name="Group 4774"><path id="Path_2060" data-name="Path 2060" d="M21.3184,5.05215,12.31864,2.05223a.99994.99994,0,0,0-.64,0L2.6789,5.05215a1,1,0,0,0-.67864.94864V9.78168A12.41865,12.41865,0,0,0,11.8,22.00035h.42A12.41866,12.41866,0,0,0,21.99972,9.78168V6.00079A1,1,0,0,0,21.3184,5.05215ZM19.99977,9.78168A10.41874,10.41874,0,0,1,12,20.00041,10.42872,10.42872,0,0,1,4.0002,9.78168V6.7221L12,4.05251,19.99977,6.7221Z"/><path id="Path_2061" data-name="Path 2061" d="M10.70935,9.2917a1.00406,1.00406,0,1,0-1.42,1.42h0l1.3,1.29-1.3,1.29a1.00406,1.00406,0,1,0,1.42,1.42l1.29-1.3,1.29,1.3a1.00407,1.00407,0,1,0,1.42-1.42l-1.3-1.29,1.3-1.29a1.00407,1.00407,0,1,0-1.42-1.42h0l-1.29,1.3Z"/></g></svg>