<?xml version="1.0" encoding="UTF-8"?><svg id="Layer_1" xmlns="http://www.w3.org/2000/svg" width="24" height="24" viewBox="0 0 24 24"><path d="M16.8334351,10.8536377c.3626099-1.4867554,.0869751-3.1176147-.8955078-4.4431763l-.3588867,.2667236c.6296387,.8394775,.9699707,1.8605347,.9699707,2.9098511-.0012817,.5032959-.0888672,.9983521-.2406616,1.4736328,.1767578-.0655518,.3519897-.1342773,.5250854-.2070312Zm-1.618103-7.5227661h-.446167v.446167h.446167v-.446167Zm-.2085571,3.0795898l1.3094482-2.0078125c.3330078-.5145874,.3330078-1.1767578,0-1.6914673-.4671021-.7218018-1.4309082-.9283447-2.152771-.4612427-.7218018,.4671021-.9283447,1.4309082-.4612427,2.15271l1.3045654,2.0078125Zm-.9311523-3.4711304c.3371582-.515625,1.0284424-.6602783,1.5440674-.3231812,.515564,.3371582,.6602173,1.0284424,.3231201,1.5440063l-.9360352,1.4549561-.9311523-1.4549561c-.2424927-.3707886-.2424927-.8500366,0-1.2208252ZM6.9876099,11.0240479c-.3955688-1.2753296-.276001-2.7051392,.458374-3.9443359l-.3782349-.2279053c-.4951782,.8291626-.7559814,1.7772217-.7546387,2.742981,.0006714,.4195557,.0546265,.8257446,.1467896,1.2172852,.1738281,.074707,.3500977,.1445923,.52771,.2119751Zm.8851929-4.036438l1.0426636-1.4888916c.19104-.236084,.2954712-.5304565,.2958374-.8341675,.0009155-.3040161-.1017456-.5992432-.2909546-.8371582-.4602051-.5785522-1.3022461-.6744995-1.8807983-.2142944s-.6744995,1.3022461-.2142944,1.8807373l1.0475464,1.4937744Zm-.0043335-3.210083c.2075195-.0002441,.4086914,.0718384,.5682983,.2045898,.3768921,.3134155,.4284058,.8729858,.1149902,1.2498779l-.6886597,.9699707-.6838379-.9699707c-.1293335-.1592407-.1998291-.3582153-.199646-.5634155,.0004272-.491333,.3980713-.8890991,.888855-.8910522Zm10.7213135,10.8890991l-2.6430664-2.6576538c-.0462036-.0463867-.1079102-.0720825-.1733398-.0722046-.0654297-.000061-.1272583,.0254517-.1735229,.0717163l-.6799927,.6799927h-3.3757935l-.0076294,.0001221c-.2461548,.0076294-.4797363,.1104126-.6519165,.286499-.0001831,.0002441-.0005493,.0003662-.0007324,.0006104l-.1693115,.1721191-1.611145-.6738892-.7124634-.7171021c-.0461426-.0463867-.1084595-.0723267-.1738892-.0722656s-.1278076,.026001-.1738281,.0725098l-2.6334229,2.6576538c-.0947266,.0955811-.0945435,.2498169,.0003662,.3451538l1.9830933,1.9926758c.2111206,.5044556,.4666748,.9888306,.762207,1.4489746-.1546631,.2553711-.2495728,.5401611-.2789917,.8372192l-.0252075,.0249023c-.0472412,.0465698-.0734253,.1096191-.072937,.1759644,.0031738,.4718018,.3342285,.8633423,.7758179,.963623,.0982056,.4506226,.4977417,.7878418,.977356,.7879639,.0449219,0,.0858154-.0158691,.1234131-.0383301,.1668091,.3210449,.4984131,.5426636,.8853149,.5427246,.043457,0,.0839233-.0153809,.1210938-.0369873,.1673584,.3186646,.4967041,.5388794,.8812866,.5413818l.0996704-.0205078c.2022095-.088501,.4181519-.18927,.6271362-.2945557l.0906982,.0385132,.0957642,.0194702c.3796997-.000061,.7058716-.2136841,.8756714-.5250244,.039856,.0264893,.0844116,.0449219,.1330566,.0449219h.001709c.380249-.0026855,.7055664-.2190552,.8731079-.5322876,.0394897,.0250854,.0834351,.0427246,.1307373,.0424805,.4778442-.0032959,.8743896-.3394165,.9742432-.7872314,.4472656-.1002808,.7820435-.4980469,.7821655-.975647,0-.0626221-.0236206-.1221924-.0664673-.1677856l-.0310669-.03302c-.0167236-.1946411-.0614014-.385376-.1347046-.5663452,.242981-.3960571,.4539795-.81073,.6328125-1.239563l1.963501-1.9921265c.0944214-.0958252,.0941162-.2492676-.0007935-.3446655Zm-9.8068237,5.0750122c-.0028076-.0001221-.0053101-.0016479-.0081177-.0016479-.2478638,.0001221-.4451904-.1815796-.4888916-.4171143l.5880737-.5796509c.0536499-.0529175,.0744629-.1244507,.0684814-.1947632l.4370117-.4370117,.0014038-.0014648c.0722046-.0737915,.1663818-.1102295,.262085-.1104126,.0927124,.0001831,.1838989,.0342407,.2554932,.1040039l.0078735,.0078735,.0003052,.0003052c.0732422,.072876,.1091919,.1671753,.109375,.2630005-.0001221,.0673218-.0245972,.1311035-.0606079,.1901245l-.2867432,.2866821-.8857422,.8900757Zm-.4707031-1.1325073c.0144653-.0358276,.0281982-.0720215,.045166-.1068726,.0085449,.0123291,.0171509,.0245972,.0257568,.0369873l-.0709229,.0698853Zm1.4705811,1.6494141c-.0634766,.0002441-.1257935,.0157471-.1724243,.0623779l-.1633301,.1633911c-.2406616-.0419922-.4268799-.2420044-.4273071-.4945068v-.0006104l.3597412-.3598022,.0004272-.0003662,.7565308-.7614136,.0021362-.0021973c.0209351-.0209961,.02948-.0484009,.0471191-.0713501l.4692993-.4692383,.0006714-.0006714c.0720215-.0727539,.1654053-.1085815,.2603149-.1087646,.0936279,.0002441,.1856079,.0349121,.2574463,.105896l.003418,.003418,.0004272,.0004272c.0731812,.072876,.1091919,.1671753,.109375,.2630005-.0001831,.0950928-.0356445,.1887817-.1079712,.2617188l-.0019531,.0019531-.0005493,.0004883-.751709,.7614136,.0004883-.0004272-.6421509,.6452637Zm1.0185547,.5059814c-.0693359-.0039673-.1384888,.0112305-.1887207,.0625l-.1582642,.161377c-.2399292-.0425415-.4254761-.2421875-.4259033-.4942627,0-.0018311-.0015259-.0032349-.0015869-.005127l.8760376-.8843994,.6303101-.6352539c.0728149-.0731201,.1671753-.1091919,.2630005-.109314,.0951538,.0001831,.1887207,.0355835,.2614746,.1079102l.0009766,.0009155c.072998,.0744629,.1088867,.1699219,.1090698,.2667236-.0001831,.0968628-.0360718,.1923218-.1091919,.2669067l-.3610229,.3665161c-.0049438,.0047607-.0116577,.0061646-.0165405,.0110474l-.7565918,.7614746-.1230469,.1229858Zm1.2578735,.255249l-.1557617-.0718384-.3981323-.1837158,.3973389,.4121704-.2213135,.2213135-.0482178,.0482178c-.0418091,.0189209-.0838013,.0383911-.124939,.0565186-.262207-.0213013-.4700317-.2330933-.4746704-.4996948l.6259155-.631897,.2687988-.2728882c.0705566-.0634766,.1569824-.0980835,.2462158-.0982056,.0951538,.0001831,.1887207,.0355835,.2615356,.1078491l.0009155,.0009155c.0090332,.0092773,.0123901,.0212402,.0203247,.0310669-.0362549,.0883789-.0188599,.1932373,.0527344,.2653198l.0254517,.0255737c-.0114136,.0769653-.0397339,.1516113-.0985107,.2116699l-.3776855,.3776245Zm.4302979,.2265015l-.131958-.0560913c-.0025024-.0010376-.005249-.0004272-.0077515-.0014038l.0946655-.0946655c.161377-.0844727,.2915649-.2180176,.369812-.3830566l.1322632,.1331177c-.046814,.2201538-.2270508,.3859253-.4570312,.4020996Zm2.8202515-1.7417603l-2.8984985-2.9172974c-.0953979-.0959473-.2504272-.0964355-.3463745-.0010986s-.0964355,.2503662-.0010986,.3463135l2.8994141,2.9182129c-.036377,.2133179-.1976929,.3761597-.4105835,.4147339l-.12677-.1276245c-.0108032-.019043-.020752-.0386963-.036499-.0544434l-2.7352295-2.7352295c-.0062256-.0062866-.0144653-.008728-.0212402-.0141602-.0184937-.0149536-.0370483-.0300903-.0587158-.0390625-.0593872-.0244751-.1262207-.0245972-.1856689-.0003662-.0297241,.012146-.0570679,.0299683-.0804443,.0532837s-.0413208,.0505371-.0535278,.0802002c-.0122681,.0297852-.0184326,.0613403-.0184937,.0930176v.000061c0,.0013428,.0007324,.0025635,.0007935,.0039062,.0004272,.0302124,.0058594,.0603638,.0174561,.0887451,.0094604,.0231934,.0251465,.043335,.0415649,.0629272,.0045166,.0053711,.0062866,.012146,.0113525,.0172119l.0004883,.0004883q.000061,.000061,.000061,.0001221l.0040283,.0040283,2.6405029,2.6576538c-.039856,.2053223-.1968994,.3612671-.4035645,.3990479l-.1159668-.1166382c-.0126343-.0269775-.0287476-.0524902-.0505371-.0734253l-.5285645-.5092163c-.0311279-.0300293-.0686646-.0465088-.107605-.0568848-.0256348-.0397339-.0430908-.083374-.0774536-.1182861l-.0007324-.0007935-.0021362-.0021362-.0004883-.0004883c-.1004028-.0999756-.2262573-.1503906-.3557739-.1763306,.1182251-.1332397,.1834106-.2985229,.1832275-.4653931,.0001831-.1781006-.067749-.357666-.2023315-.4945679l-.0015869-.0015869-.0021362-.0021362c-.1350708-.1345215-.3135986-.2023926-.4904175-.2022095-.0637207-.000061-.1258545,.0192261-.1878052,.0367432-.0039673-.1727295-.0698242-.3457642-.2020264-.4771118l-.0037231-.0037231-.0007324-.0007324c-.1342773-.1330566-.3109741-.2000122-.4859619-.1997681-.1776733-.0001831-.3566284,.0688477-.491394,.2052002l-.1156006,.1155396c-.0293579-.1203003-.0792236-.2365723-.1732178-.3299561l-.008728-.008667-.0013428-.0013428c-.1339722-.1310425-.3092651-.1968384-.4827271-.1966553-.1785278-.0001831-.3580933,.0698853-.4929199,.2073364l-.0003052-.0003052-.3701782,.3701782c-.0576782-.0825195-.1158447-.1627808-.1735229-.2492065-.307312-.4696045-.5695801-.9672852-.7832642-1.4863281l-.0528564-.0795288-1.8411255-1.8500366,2.2885132-2.3095703,.572937,.5766602,.0792236,.0533447,1.4720459,.6156616-.4595947,.4595337-.0025024,.0026245c-.0866089,.0891724-.1546021,.1946411-.2007446,.3101807l-.0003052-.0001221-.0008545,.0021362v-.000061l-.0004272,.0010986-.000061,.000061-.7358398,1.7863159-.0029297,.0071411-.00177,.0043335c-.0192871,.0495605-.0284424,.1013184-.0284424,.1516724-.0002441,.1668091,.1005859,.3230591,.2639771,.388855l-.0003052,.0006714,.0108032,.0043945,.0015869,.0006714c.137207,.0551147,.2801514,.081665,.4204712,.081604,.0025635,0,.0049438-.0010986,.0075684-.0011597,.0039062,.000061,.0078735,.0011597,.0117798,.0011597,.4411621,.0003052,.8598022-.2608032,1.0407715-.6930542l.0006714-.0016479,.0043945-.0108032,.4177856-1.0119019,.2967529-.2995605,3.9654541,3.9886475,.3706665,.3942871c-.0352783,.2141724-.1972046,.3772583-.4106445,.4146118Zm.9386597-2.8147583l-.0521851,.0789795c-.1762695,.4298096-.3874512,.8444824-.6316528,1.2397461l-.0023193,.0038452c-.0247192,.041748-.0525513,.0812378-.078186,.1226196l-2.0629883-2.0847778c.0471802,.0028076,.0942383,.0081177,.1412964,.0081177,.265564,.000061,.5272827-.0531616,.7783813-.1405029-.0869751,.2495117-.1415405,.5110474-.1415405,.7802124v.0109863c.0001221,.0101318,.0047607,.0186768,.0060425,.0285034,.0028687,.0222778,.005127,.0447388,.0137939,.0651245,.0252686,.0591431,.0728149,.1062012,.1323242,.1304932,.0296631,.012146,.0617065,.0185547,.0946655,.0182495,.032959-.0002441,.0648193-.0071411,.0942993-.0197144,.0297241-.0126343,.0563354-.0308838,.0785522-.0535278,0-.000061,.000061-.0001221,.000061-.0001831,.0220337-.0224609,.0396729-.0491943,.0517578-.0787964,.0083008-.0203857,.0100098-.0426636,.0126343-.0647583,.0011597-.0100098,.0057373-.0188599,.0056763-.0291748v-.0072021c0-.1252441,.0124512-.2492676,.0366821-.3703613,.0241699-.1210938,.0601807-.2392578,.1072388-.3527832,.0941162-.2271729,.232605-.4359131,.4099121-.6130981,.000061,0,.000061-.000061,.000061-.000061,.000061-.000061,.0001221-.000061,.0001831-.0001221,.0026245-.0026245,.003418-.0062256,.0059204-.0089722,.0196533-.0214844,.0365601-.0450439,.0473633-.0714111,.012146-.0297241,.0183716-.0611572,.0183105-.0927734,0-.0313721-.0060425-.0626831-.0180054-.0921631-.000061-.0001221-.0002441-.0003052-.0003052-.0004883-.012146-.0297241-.0300903-.0570679-.0534668-.0804443-.0233765-.0234375-.0507202-.0413208-.0804443-.0534668-.0593872-.024292-.1261597-.024231-.1855469,.0001221-.0200806,.0081787-.0369263,.022522-.0543823,.0359497-.005188,.0040283-.0112305,.0064087-.0161743,.0108643-.0029297,.0026855-.0068359,.0036011-.0097046,.0064697l-.0001221,.0001221s-.000061,0-.000061,.000061c-.2019043,.2022095-.4429932,.3447266-.7000732,.4367065-.2039795,.072937-.4174194,.116272-.6340332,.116333-.2492676-.000061-.4976196-.0595093-.7352905-.1607666-.0214844-.0091553-.0438843-.0136719-.0651855-.0236816l-1.1941528-1.2067871c-.0460205-.0465088-.1085815-.0726318-.1740112-.0726318-.003418,0-.0064697,.00177-.0098267,.0019531-.003418-.0001831-.0064697-.0019531-.0098877-.0019531-.0654297,.000061-.1277466,.026062-.1737671,.0725098l-.5140381,.5189819-.0524292,.0788574-.4364624,1.057251-.0008545,.0020142c-.0983276,.2451782-.3324585,.3934937-.5808716,.3982544-.0576172-.0007935-.1152344-.0176392-.1726685-.03479l.6890869-1.7180176,.0005493-.0013428c.0223389-.0567017,.0557861-.1083374,.0981445-.1520386l.715332-.7153931c.0003052-.0002441,.0004272-.0007324,.0006714-.0010376,.0002441-.0001831,.0006104-.0001831,.0007935-.0003662l.2861328-.2910156,.0007324-.0007324c.0835571-.0856934,.1970215-.1355591,.3167114-.1394653h3.4701538c.0654297,0,.1269531-.0254517,.1732178-.0717163l.5780029-.578064,2.2990112,2.3115845-1.8230591,1.8496704ZM8.0958862,4.4414673h-.4413452v.446167h.4413452v-.446167Zm.7420044,2.0078125l-.1358032,.4267578c.2039185,.0655518,.4105225,.1206665,.6179199,.1723022-.3079224,.7199707-.4916382,1.4927979-.5358887,2.2913818h-1.5757446v.446167h1.5739136c.0373535,.6394653,.1641846,1.2620239,.3724976,1.8544922,.1643677,.0317993,.3289795,.0627441,.4954224,.0884399-.241272-.6146851-.3811646-1.2701416-.4217529-1.9429321h2.2040405v2.012146c-.2501831,.0057373-.4998779,.0203857-.7491455,.0455933,.3341064,.0252075,.6704712,.0422363,1.0110474,.0422363,.3242188,0,.6445312-.0157471,.9629517-.0385742-.2590942-.0270386-.5186157-.0432739-.7786865-.0492554v-2.012146h2.2081909c-.0435181,.6779785-.1890869,1.3374634-.4364014,1.9553223,.1696167-.0250854,.3374634-.0554199,.5050049-.086853,.2116089-.5964966,.34021-1.223938,.3781738-1.8684692h1.5740356v-.446167h-1.5775757c-.0507202-.7996826-.2410278-1.5725098-.5549316-2.291748,.2062378-.0515747,.4118042-.1065674,.614563-.171936l-.1358032-.4267578c-.2199097,.0706787-.4419556,.1318359-.6653442,.1854858-.3748779-.7233887-.8831787-1.3756104-1.4987183-1.928772,.2783203,.036438,.5545654,.0969238,.8255005,.1816406l.1309814-.4267578c-1.1866455-.3632812-2.4619751-.3084717-3.6130981,.1552124l.1697388,.4122314c.3745728-.1531372,.7643433-.2557373,1.1594238-.3121948-.6009521,.552063-1.0932007,1.2024536-1.4579468,1.9190063-.2238159-.0537109-.4462891-.1150513-.6665649-.1858521Zm3.0407715-1.5062256c.5921021,.5078125,1.0827637,1.111145,1.4492798,1.7843018-.4794922,.0894775-.963623,.1407471-1.4492798,.1531372v-1.937439Zm0,2.3850708c.555603-.0128174,1.1074829-.0750732,1.6513672-.1837769,.3113403,.6865845,.5013428,1.4274292,.5534058,2.1953735h-2.2047729v-2.0115967Zm-.446167-2.4227295v1.9758301c-.4916382-.0114136-.9817505-.0631104-1.4672241-.1535645,.3676758-.6881714,.8652954-1.3042603,1.4672241-1.8222656Zm0,2.4230347v2.0112915h-2.201416c.0470581-.7667236,.2315674-1.5073242,.5370483-2.1947632,.5482178,.1091309,1.1044922,.1712646,1.6643677,.1834717Z"/></svg>