<?xml version="1.0" encoding="UTF-8"?><svg id="Layer_1" xmlns="http://www.w3.org/2000/svg" width="24" height="24" viewBox="0 0 24 24"><path d="M4.125,15.125c.34497,0,.625-.28003,.625-.625,0-.34503-.28003-.625-.625-.625s-.625,.27997-.625,.625c0,.34497,.28003,.625,.625,.625Zm0,2.5c-.34497,0-.625,.27997-.625,.625,0,.34497,.28003,.625,.625,.625s.625-.28003,.625-.625c0-.34503-.28003-.625-.625-.625Zm0-7.5c-.34497,0-.625,.27997-.625,.625,0,.34497,.28003,.625,.625,.625,.34503,0,.625-.28003,.625-.625,0-.34503-.27997-.625-.625-.625Zm14.375,.19177V6.06201c0-2.79102-4.53497-4.06201-8.75-4.06201C5.53601,2,1,3.271,1,6.06201v11.87598c0,2.79102,4.53497,4.06201,8.75,4.06201,.99438,0,2.005-.07343,2.97125-.2182,1.06555,.76373,2.36774,1.2182,3.77875,1.2182,3.58984,0,6.5-2.91016,6.5-6.5,0-2.89154-1.8894-5.33923-4.5-6.18323ZM9.75,3.25c4.14301,0,7.5,1.25897,7.5,2.81201s-3.35699,2.81299-7.5,2.81299c-4.14203,0-7.5-1.26001-7.5-2.81299s3.35797-2.81201,7.5-2.81201ZM2.25,14.18701v-2.33405c1.29102,1.33099,4.40601,2.02203,7.5,2.02203,.27313,0,.54535-.01208,.8175-.02283-.36188,.80939-.5675,1.70386-.5675,2.64783,0,.16705,.01263,.33093,.02502,.49481-.09204,.00122-.18219,.00519-.27502,.00519-4.14203,0-7.5-1.25-7.5-2.79303,0-.00696,.00299-.01398,.00299-.01996h-.00299Zm7.5,6.56299c-4.14203,0-7.5-1.26001-7.5-2.81201v-2.33502c1.29102,1.33099,4.40601,2.02203,7.5,2.02203,.11774,0,.23468-.00781,.35236-.00983,.1991,1.14905,.6947,2.19556,1.41266,3.05322-.56696,.05139-1.15588,.0816-1.76501,.0816Zm1.14862-7.53607c-.37543,.02155-.75702,.03607-1.14862,.03607-4.14203,0-7.5-1.25-7.5-2.79303,0-.00598,.00299-.013,.00299-.01996h-.00299v-2.14703c1.638,1.24799,4.64099,1.83502,7.5,1.83502s5.862-.58704,7.5-1.83502v1.75665c-.24646-.02838-.49597-.04663-.75-.04663-2.3894,0-4.47192,1.29309-5.60138,3.21393Zm8.42737,5.59198c-.07947,.26691-.20856,.50397-.38855,.71289-.17993,.20813-.41528,.3916-.70685,.54968-.29102,.15802-.64526,.302-1.06238,.43195v1.33728h-.99249v-1.28369c-.22308,0-.46051-.02722-.7121-.08075-.25201-.05359-.50006-.12561-.74463-.216-.24445-.0896-.47321-.19403-.68524-.31256-.21204-.11859-.38678-.24323-.52332-.37231l.87408-1.62964c.67603,.59802,1.33411,.89563,1.97461,.89563,.26562,0,.49786-.07111,.69586-.21509,.19757-.14398,.29633-.33105,.29633-.5611,0-.31689-.23352-.55048-.70105-.70148l-.61511-.19403c-.36652-.11505-.67957-.24152-.9386-.37756-.25897-.13702-.47101-.29498-.63647-.47504-.16553-.17999-.2876-.38281-.36664-.60931-.07941-.22656-.11896-.4873-.11896-.78229,0-.30908,.0448-.6076,.13477-.89563,.08997-.28796,.22693-.54523,.41003-.77173,.18353-.22656,.41174-.41711,.6853-.57159,.27307-.1546,.59705-.24939,.97113-.28632v-1.30463h.99249v1.30463c.77661,.07996,1.43121,.28809,1.96368,.6261l-.79852,1.55402c-.46051-.35291-.91357-.52936-1.35956-.52936-.27356,0-.49609,.06323-.66858,.18958-.17303,.12567-.25903,.26788-.25903,.4259,0,.14398,.06805,.28003,.20502,.41003,.13654,.12903,.31647,.23346,.53949,.31256l.63654,.21594c.7121,.245,1.2262,.54535,1.54272,.90088,.31653,.35645,.47455,.8183,.47455,1.38641,0,.34503-.03955,.65149-.11853,.91663Z"/></svg>