<?xml version="1.0" encoding="UTF-8"?><svg id="Layer_1" xmlns="http://www.w3.org/2000/svg" width="24" height="24" viewBox="0 0 24 24"><path d="M21.1698608,10.2330322l-.0211182-.0285645-.0263672-.0236816-1.0492554-.9430542h1.3997803l.1002808-.0917358c.2410889-.2205811,.3920898-.522583,.4238892-.8477783l.0016479-.0170288v-.9906616h-1.5916748c-.5378418,.0002441-.9734497,.43573-.9736328,.9736328v.2734985h-.0524902c-.149231-.3074341-.4608154-.9219971-.8603516-1.5499878-.2811279-.4408569-.6022949-.8856812-.9521484-1.2364502-.1755371-.175354-.3585205-.328064-.5565796-.4432983-.1974487-.1142578-.4153442-.1938477-.6524658-.1943359H7.640564c-.2370605,.0004883-.4549561,.0800781-.6524048,.1943359-.3453979,.2022705-.6503906,.5162964-.937439,.8724365-.6643066,.831604-1.2164917,1.9138794-1.4315796,2.3572998h-.0525513v-.2734985c-.0001831-.5345459-.430603-.96875-.9650879-.9736328h-1.6002197v.9906616l.0016479,.0170288c.0317993,.3251953,.1828003,.6271973,.4238892,.8477783l.1003418,.0917358h1.3997192l-1.0756226,.9666748-.0211182,.0286255c-.5397339,.7301636-.8301392,1.6135254-.8301392,2.5196533l.0012817,.1017456v5.0933228l.0003662,.0076904c.0214233,.4848633,.3955688,.8690796,.8674316,.9205933l.0198975,.010376h2.2738037c.5378418-.0001831,.9734497-.435791,.9736328-.9736328v-.5853271h11.7380981v.5853271c.0002441,.531189,.425415,.9638672,.9563599,.9735718l.0029297,.000061h2.1912842c.5378418-.0001831,.9733887-.435791,.9736328-.9736328v-5.0583496l.0012817-.1017456c0-.9061279-.2904053-1.7895508-.8301392-2.5196533Zm-1.0363159-1.9688721c.0002441-.1509399,.1225586-.2732544,.2734985-.2734985h.8915405v.2452393c-.012085,.1121216-.0618286,.2125244-.1287231,.3017578h-1.0363159v-.2734985Zm-16.2670898,.2734375l-1.0363159,.000061c-.0668945-.0892334-.1166382-.1896362-.1287231-.3017578v-.2453003l.2734985,.000061h.6204834c.1499634,.0010986,.2713013,.1234131,.2710571,.2734985v.2734375Zm17.432251,4.3066406l-.0001221,.0045166v5.0640259c-.0002441,.1509399-.1225586,.2732544-.2734985,.2734985h-2.1817627c-.1490479-.0025024-.2689209-.1245728-.2686768-.2734985v-1.2854004H5.4362793v1.2854004c-.0002441,.1509399-.1225586,.2732544-.2734985,.2734985H2.9749146v.0001831h-.0006104v-.0002441c-.145752,.0001831-.2659912-.1146851-.2728882-.2600708v-5.0774536l-.0001221-.0044556-.0011597-.0915527c0-.7478638,.2387085-1.4762573,.6795044-2.0817871l1.7488403-1.5717163,.0302124-.0664673c.000061-.0001221,.0223999-.0492554,.0662231-.1403809,.1529541-.3184204,.5595703-1.1266479,1.0493164-1.8375244,.2439575-.3550415,.5100098-.6853027,.7608032-.9119873,.1248779-.1135254,.2454224-.2004395,.3501587-.2543945,.1052856-.0545654,.190918-.0750122,.2553711-.0747681h8.718811c.0733643-.0004883,.1757202,.0269165,.3012085,.0999146,.2196655,.1254272,.4876709,.3848267,.7423096,.7045898,.3847046,.4793701,.7490234,1.0880737,1.0122681,1.5727539,.1318359,.2424316,.2390747,.4542847,.3129272,.6047974,.0369263,.0752563,.0654907,.1351318,.0847168,.1759033l.0285034,.0610962,.0302124,.0664062,1.7488403,1.5717773c.4407349,.6054688,.6795044,1.3338623,.6795044,2.0817871l-.0011597,.0915527Zm-2.8594971-4.1130981c-.3121338-.6239624-.6748047-1.225769-1.0148926-1.6984253-.1704712-.2365723-.3345947-.4406128-.4902954-.6028442-.1604614-.1613159-.2927856-.2860718-.4924316-.3615112l-.0559082-.0194702H7.6142578l-.0558472,.0194702c-.199646,.0754395-.3320312,.2001953-.4924316,.3615723-.4608765,.4832153-1.0333862,1.3640747-1.5003052,2.3023071l-.2505493,.5054932h13.3775024l-.253418-.5065918Zm-11.9796753-.1934814c.2246094-.4056396,.4631958-.7873535,.6852417-1.0961914,.1560059-.2173462,.3040771-.3995972,.4261475-.5265503,.060791-.0633545,.1151733-.1127319,.15625-.1444702l.0307617-.0214233h8.4858398c.0458984,.0323486,.1303101,.1033325,.2203979,.203125,.2994385,.3215332,.7092896,.9205933,1.0800171,1.5855103H6.4595337Zm.6030884,5.017395c-.1104736-.2188721-.2554321-.4476318-.4627686-.6364136-.2044067-.1879272-.4903564-.3347778-.8244629-.333374h-1.9143677v1.2799683c.0001831,.5377808,.43573,.9733276,.9736328,.9735107h2.6151733l-.0841064-.4189453c-.0042114-.0171509-.0845947-.4269409-.3031006-.8647461Zm-2.2279663,.5836182c-.1509399-.0003052-.2732544-.1226196-.2734985-.2734375v-.579834h1.2142334c.133606,.0014038,.2373657,.0487671,.3544922,.1520996,.1727905,.152771,.3258057,.4382324,.4176025,.6844482,.0022583,.0059204,.0036011,.0108643,.0057983,.0167236h-1.7186279Zm8.4124146-.2352295v-.7000732h-2.4942017v.7000732h2.4942017Zm-4.6711426,.9353027h6.8481445v-.7000732h-6.8481445v.7000732Zm9.6486816-2.253479c-.3341064-.0014648-.6200562,.1455078-.8240356,.3337402-.3088379,.2844238-.4833984,.654541-.5988159,.9544678-.1133423,.3004761-.1596069,.5349121-.1622925,.5475464l-.0823975,.4177246h2.6137695c.5378418-.0001831,.9733887-.43573,.9736328-.9735107v-1.2799683h-1.9198608Zm1.2197266,1.2799683c-.0002441,.1508179-.1225586,.2731323-.2734985,.2734375h-1.7184448c.039856-.1081543,.0861816-.222168,.1464844-.3334351,.0835571-.156189,.1870117-.2973022,.2938232-.3867798,.1091309-.0901489,.2060547-.1317139,.3319092-.1330566h1.2197266v.579834Z"/></svg>