<svg id="Layer_1" data-name="Layer 1" xmlns="http://www.w3.org/2000/svg" viewBox="0 0 24 24"><path d="M10.09,10.72A1.28,1.28,0,1,0,11.38,12,1.28,1.28,0,0,0,10.09,10.72Zm0,3.92a1.29,1.29,0,0,0,0,2.57,1.29,1.29,0,1,0,0-2.57Zm0,3.92a1.29,1.29,0,1,0,1.29,1.28A1.28,1.28,0,0,0,10.09,18.56Zm0-11.77a1.29,1.29,0,1,0,1.29,1.29A1.28,1.28,0,0,0,10.09,6.79Zm3.82-1.35a1.29,1.29,0,1,0-1.29-1.28A1.28,1.28,0,0,0,13.91,5.44Zm0,1.35a1.29,1.29,0,1,0,0,2.57,1.29,1.29,0,0,0,0-2.57Zm0,3.93A1.28,1.28,0,1,0,15.19,12,1.28,1.28,0,0,0,13.91,10.72ZM10.09,2.87a1.29,1.29,0,1,0,1.29,1.29A1.28,1.28,0,0,0,10.09,2.87Zm3.82,15.69a1.29,1.29,0,1,0,1.28,1.28A1.29,1.29,0,0,0,13.91,18.56Zm0-3.92a1.29,1.29,0,1,0,1.28,1.28A1.28,1.28,0,0,0,13.91,14.64Z"/></svg>