<svg id="Layer_1" data-name="Layer 1" xmlns="http://www.w3.org/2000/svg" width="24" height="24" viewBox="0 0 24 24"><path d="M18.16971,10.32727H16.0309V8.98114h2.13881a.40647.40647,0,0,0,0-.81293H16.0309V6.82208h2.13881a.40647.40647,0,0,0,0-.81293H16.0309V5.56744a1.02418,1.02418,0,0,0-1.02216-1.02366H14.567V2.40646a.40647.40647,0,0,0-.81292,0V4.54378H12.408V2.40646a.40647.40647,0,0,0-.81293,0V4.54378H10.24815V2.40646a.40647.40647,0,0,0-.81293,0h0V4.54378H8.99351A1.02386,1.02386,0,0,0,7.9706,5.56744v.44171H5.83029a.40647.40647,0,0,0,0,.81293H7.9706V8.16821H5.83254a.40647.40647,0,0,0,0,.81293H7.9706v1.34613H5.83254a.40647.40647,0,0,0,0,.81293H7.9706v.441a1.02482,1.02482,0,0,0,1.02291,1.02366h.44171v2.13806a.40647.40647,0,1,0,.81293,0h0V12.60482H11.595V16.773H7.52364a.40678.40678,0,0,0-.40646.40646h0v2.09082a1.39487,1.39487,0,1,0,.82267.003l-.00974-.003V17.58589h3.66418v1.68435a1.39411,1.39411,0,1,0,.82267.003l-.00975-.003V17.58589h3.66343v1.68435a1.39486,1.39486,0,1,0,.82268.003l-.00975-.003V17.17942a.40678.40678,0,0,0-.40646-.40646h-4.0699V12.60482h1.34613v2.13806a.40647.40647,0,0,0,.81293,0V12.60482H15.008a1.0237,1.0237,0,0,0,1.02216-1.02366v-.441H18.169a.40647.40647,0,0,0,0-.81293h.00075ZM8.10634,20.60437h0a.58195.58195,0,1,1-.58195-.58195h0a.58347.58347,0,0,1,.58195.58195Zm8.37227-.58195a.58195.58195,0,1,1-.58195.58195h0a.58346.58346,0,0,1,.58195-.58195Zm-3.89591.58195h0a.582.582,0,1,1-.582-.58195h0a.582.582,0,0,1,.582.58195ZM15.218,11.58116v.00075a.20947.20947,0,0,1-.20923.21H8.995a.2114.2114,0,0,1-.21073-.21073h0v-6.013a.21124.21124,0,0,1,.21-.21073H15.008a.21044.21044,0,0,1,.20923.21h0Z"/></svg>