<svg id="Layer_1" data-name="Layer 1" xmlns="http://www.w3.org/2000/svg" viewBox="0 0 24 24"><path d="M19.81,4.2,18.62,5.4v.38L20.09,4.3Zm-.67-.15-.52.53V5l.84-.85Zm-.52,3.37Zm2.3-2.69L18.62,7v.38l2.53-2.53A1.88,1.88,0,0,0,20.92,4.73Zm-.52-.29L18.62,6.22V6.6l2-2Zm.08,5.21,2.35-2.34L22.74,7,20.26,9.49ZM21,10l2-2c0-.11,0-.22-.06-.33L20.73,9.84ZM19.53,9l2.8-2.79a1.88,1.88,0,0,0-.16-.23L19.31,8.8Zm-.47-.34L22,5.69l-.18-.21-3,3Zm1,.69,2.6-2.61-.12-.26L19.78,9.15Zm1.38-4.23L18.62,7.86v.38l3-3ZM15.58,15.59a4.19,4.19,0,1,0,5.92,0A4.19,4.19,0,0,0,15.58,15.59Zm6.3,3.34h-3v3h-.74v-3h-3v-.75h3v-3h.74v3h3Zm.28-8,.13.1a4.49,4.49,0,0,0,.29-.53Zm-3.71,2.19a4.54,4.54,0,0,0,3.63-1.81h0l-3.8-2.77h0V4a4.54,4.54,0,0,0,.17,9.08Zm3.45-2.38.93-.93a3.88,3.88,0,0,0,.11-.49l-1.26,1.26ZM23,8.39l-1.79,1.8.22.16L23,8.78a1.93,1.93,0,0,0,0-.24Zm-20.87,2h8.09V9.05H2.13ZM8.82,4.91H2.13V6.22H8.82ZM5.76,18.44l-3.22-.6L1,20H12.75V16.47L9,15.39Zm2.5-11.5H2.12v1.3H8.26Zm0,4.14H2.12v1.3H8.26Z"/></svg>