<svg id="Layer_1" data-name="Layer 1" xmlns="http://www.w3.org/2000/svg" xmlns:xlink="http://www.w3.org/1999/xlink"
    viewBox="0 0 24 24">
    <defs>
        <style>
            .cls-1 {
                fill: none;
            }

            .cls-2 {
                clip-path: url(#clip-path);
            }
        </style>
        <clipPath id="clip-path">
            <rect class="cls-1" width="24" height="24" />
        </clipPath>
    </defs>
    <g id="ico_settings_1">
        <g class="cls-2">
            <g class="cls-2">
                <path
                    d="M14.16174,19.95715l-.00006.00019-.00006.00146ZM2.9726,10.84857l.00146-.01025.00031-.00269ZM9.83789,19.9588l-.00006-.00146-.00006-.00019Zm3.32465,1.08289-.00177.00024-.00031.00006Zm7.86255-7.8772.00012-.00067-.00006.00018ZM4.85669,7.90491V7.90485l-.002-.00214ZM10.83905,21.042l-.00024-.00006-.00183-.00024ZM13.16046,2.958l.00018.00006.0019.00024Zm-1.16095,6.2583a2.783,2.783,0,1,0,2.78028,2.7832A2.78154,2.78154,0,0,0,11.99951,9.21631Zm0,4.31592a1.533,1.533,0,1,1,1.53028-1.53272A1.53339,1.53339,0,0,1,11.99951,13.53223Zm-.97265,5.28967v.00037l.00006.00018Zm9.99829-7.98627.00006.00067a1.177,1.177,0,0,0-1.08368-1.001l.00177.00006-1.05-.05823-.03455-.0238-.00482-.00556-.002-.006-.41138-.99713L18.437,8.73761l-.00061-.00806.00629-.03967.00018-.00043.70221-.78705-.00342.00379a1.14931,1.14931,0,0,0,.02979-1.48456l-.01825-.022L17.59009,4.83508l-.021-.01758a1.147,1.147,0,0,0-1.48388.0271l.00128-.00122-.78327.70288-.00769.00245-.02991.00378-.00512-.00037-.00727-.00372-.999-.4126-.0039-.00128-.02662-.032-.00378-.00787-.05823-1.05262a1.17648,1.17648,0,0,0-1.001-1.084,9.85008,9.85008,0,0,0-1.1612-.08161,9.84708,9.84708,0,0,0-1.1607.08161,1.17659,1.17659,0,0,0-1.001,1.08411l.00006-.00092-.00006.00092L9.78064,5.09381l-.00232.00476-.02673.03473L9.75073,5.134l-.00555.00183-.99726.4123-.00762.0039-.00641.00043-.03675-.00586L7.9129,4.84326l.00135.00128A1.14778,1.14778,0,0,0,6.43048,4.817L6.40906,4.835,4.845,6.40106l-.019.0232a1.15146,1.15146,0,0,0,.03076,1.48059l.6994.783.003.00933.004.032-.00061.00842L5.559,8.74469l-.4101.99634-.00146.00445-.03253.02765-.0083.00409-1.04938.05817.00189-.00006a1.17752,1.17752,0,0,0-1.08459.99975l-.00043.00324a9.89957,9.89957,0,0,0-.08148,1.16217,9.89812,9.89812,0,0,0,.08185,1.164l.00006.00055a1.17964,1.17964,0,0,0,1.08081.99939l.00079.00006,1.05054.05829.03436.02392.00623.00715.00183.00549.41.99615.00354.007.00055.00781-.00641.04047-.00012.00037-.7016.78436a1.153,1.153,0,0,0-.029,1.4798l.019.02313,1.56458,1.56708.02221.01849a1.14675,1.14675,0,0,0,1.48383-.02978l-.003.00274.78576-.70367.00678-.00214.02966-.00372.00635.00043.00732.00372.99488.41125.0047.00159.02771.03314.00384.00794.05823,1.05182a1.17665,1.17665,0,0,0,1.001,1.08459,9.86176,9.86176,0,0,0,1.1607.08161,9.86475,9.86475,0,0,0,1.1612-.08161,1.17665,1.17665,0,0,0,1.001-1.08459l.05817-1.0514.02466-.03576.00622-.00549.00537-.00177.99506-.41138.00726-.00366.00605-.00043.03735.00592.785.70349-.00293-.00269a1.14605,1.14605,0,0,0,1.48511.02845l.02118-.01776,1.563-1.565.01825-.02191a1.1507,1.1507,0,0,0-.028-1.48364l-.70031-.784-.00275-.00866-.004-.03168.00049-.00733.00336-.00659.41156-.99762.00164-.00494.03266-.02759.00629-.003,1.0509-.05829.00091-.00006.0011-.00006A1.179,1.179,0,0,0,21.02515,13.164a9.911,9.911,0,0,0,.08178-1.16351A9.94615,9.94615,0,0,0,21.02515,10.83563Zm-1.20362,1.84143c-.009.09662-.01794.17816-.02459.23468l-.0011.009-.98767.05474.00177-.00006a1.2681,1.2681,0,0,0-.69733.267,1.28708,1.28708,0,0,0-.41931.56189l-.00543-.00226-.394.95508.004.00165a1.25278,1.25278,0,0,0-.11145.51111,1.29485,1.29485,0,0,0,.31732.865l-.00207-.00232.63751.71368-1.30243,1.30408-.71014-.63635.0028.00256a1.29044,1.29044,0,0,0-.86492-.31915,1.24835,1.24835,0,0,0-.51178.11236l-.00171-.00408-.95313.394L13.8,17.705a1.30437,1.30437,0,0,0-.82739,1.11749l-.05475.99011-.00806.001a8.52681,8.52681,0,0,1-.91028.06c-.228.00012-.48254-.0174-.67523-.03541-.09656-.009-.178-.01794-.23456-.02459l-.008-.001-.05481-.99029a1.30425,1.30425,0,0,0-.82734-1.11731l.00214-.00519-.95312-.394-.00165.00408a1.24986,1.24986,0,0,0-.51209-.11236,1.28811,1.28811,0,0,0-.865.31982l.00373-.00335-.71094.63665L5.86041,16.84631l.63813-.71331-.00043.00042a1.297,1.297,0,0,0,.315-.8631,1.25273,1.25273,0,0,0-.11133-.51092l.00409-.00165-.39306-.95508-.00507.00208a1.28972,1.28972,0,0,0-.42035-.56226,1.2681,1.2681,0,0,0-.69794-.267l.0019.00006-.98768-.0548-.00109-.009a8.49594,8.49594,0,0,1-.06-.91125c-.00012-.22888.01739-.484.0354-.67713.009-.0968.01794-.17846.0246-.235l.00116-.00916.98761-.05475a1.27156,1.27156,0,0,0,.69451-.266,1.28667,1.28667,0,0,0,.42176-.56317l.00519.00214.39306-.95508L6.702,9.2406a1.25758,1.25758,0,0,0,.11114-.51141,1.29744,1.29744,0,0,0-.31451-.86261l-.63776-.71381,1.3017-1.3034.71069.63739-.00208-.0019a1.289,1.289,0,0,0,.86274.31763,1.25114,1.25114,0,0,0,.51294-.11285l.00171.00415.95312-.394-.00232-.00561a1.30347,1.30347,0,0,0,.82837-1.11292l.00018-.00274.05384-.991.008-.001a8.49127,8.49127,0,0,1,.90979-.06c.22833-.00012.48291.0174.67566.03541.09662.009.1781.01794.23462.02459l.00806.001.05481.99152a1.30064,1.30064,0,0,0,.82769,1.11523L13.798,6.2998l.95411.39405.00177-.00434a1.24778,1.24778,0,0,0,.51171.113,1.29146,1.29146,0,0,0,.86249-.317l.70868-.63592,1.30188,1.30322-.63727.7143.00183-.002a1.29568,1.29568,0,0,0-.31683.86444,1.25385,1.25385,0,0,0,.11139.51154l-.004.00165.39405.95507.00549-.00225a1.29985,1.29985,0,0,0,1.11529.82885l.98713.05475.00116.00916a8.54132,8.54132,0,0,1,.06.91217C19.85706,12.22937,19.83954,12.48413,19.82153,12.67706ZM10.837,2.95831l.00183-.00024.00024-.00006ZM12.97266,5.179V5.179l-.00006-.00025Zm1.189-1.13831.00006.00134.00006.00019Z" />
            </g>
        </g>
    </g>
</svg>