<svg id="Layer_1" data-name="Layer 1" xmlns="http://www.w3.org/2000/svg" viewBox="0 0 24 24"><path d="M6.21,15.73H5.3a.93.93,0,0,1-.94-.93V14A.2.2,0,1,0,4,14v.83A1.34,1.34,0,0,0,5.3,16.13h.91a.19.19,0,0,0,.2-.18h0A.2.2,0,0,0,6.21,15.73Zm0-5a.25.25,0,0,0-.26.24v.65a.26.26,0,0,0,.25.26.25.25,0,0,0,.26-.24V11A.26.26,0,0,0,6.25,10.7Zm-2.07-.39a.2.2,0,0,0,.2-.2v-1a.93.93,0,0,1,.93-.94h.91a.2.2,0,1,0,0-.4H5.31A1.34,1.34,0,0,0,4,9.14v1A.21.21,0,0,0,4.18,10.31Zm3.45,2.77h0a.74.74,0,0,0,.74-.72h0V11A.2.2,0,0,0,8,11v1.38a.34.34,0,0,1-.34.33h0a.2.2,0,0,0-.2.2A.2.2,0,0,0,7.63,13.08Zm2.25-1.23h0a.26.26,0,0,0,.26-.25V11a.25.25,0,0,0-.24-.25h0a.25.25,0,0,0-.26.24v.65A.26.26,0,0,0,9.88,11.85Zm-.44,1.8,0,0h0a1.73,1.73,0,0,1-1.21.51H8.09a1.69,1.69,0,0,1-1.2-.51.21.21,0,0,0-.28.06.22.22,0,0,0,0,.22,2.09,2.09,0,0,0,1.5.63h.07A2,2,0,0,0,9.68,14a.2.2,0,0,0-.24-.32Zm10.7-8.87H4A2.29,2.29,0,0,0,1.69,7.05v10A2.27,2.27,0,0,0,4,19.31H20.14a2.27,2.27,0,0,0,2.27-2.26v-10A2.29,2.29,0,0,0,20.14,4.78ZM21.7,7v10a1.55,1.55,0,0,1-1.55,1.54H4A1.54,1.54,0,0,1,2.4,17.06h0v-10A1.54,1.54,0,0,1,4,5.5H20.14A1.56,1.56,0,0,1,21.7,7Zm-9.59,6.72h0a.2.2,0,0,0-.2.2v.83a.94.94,0,0,1-.93.94h-.92a.2.2,0,0,0-.2.21.2.2,0,0,0,.2.2H11A1.34,1.34,0,0,0,12.3,14.8V14A.19.19,0,0,0,12.11,13.76Zm1.58-1.35h6.12v-.72H13.69Zm0-2.38h6.12V9.31H13.69Zm0,4.76h6.12v-.72H13.69ZM11,7.81h-.91a.2.2,0,1,0,0,.4H11a.93.93,0,0,1,.94.93v1a.2.2,0,0,0,.21.2.2.2,0,0,0,.2-.2v-1A1.35,1.35,0,0,0,11,7.81Z"/></svg>