<?xml version="1.0" encoding="UTF-8"?><svg id="Layer_1" xmlns="http://www.w3.org/2000/svg" width="24" height="24" viewBox="0 0 24 24"><path d="M18.7368164,6.5h2c.5527344-.0019531,.9980469-.4453125,1-1V3.5c-.0029297-.5537109-.4462891-.9970703-1-1h-2c-.5546875,.0019531-.9980469,.4472656-1,1v.4423828h-2.8339844V12.2460938h-2.0664062c-.1730957-2.8482056-2.5303345-5.1057739-5.421936-5.1060791-3.0039673,.0003052-5.4385376,2.4348145-5.4388428,5.4388428,.0003052,3.0039062,2.4348755,5.4384766,5.4388428,5.4387817,2.7775269-.0003052,5.0639038-2.0831299,5.3936768-4.7715454h2.0946655v6.7050171h2.8339844v.5488892c.0009766,.5527344,.4472656,.9990234,1,1h2c.5527344-.0019531,.9980469-.4453125,1-1v-2c-.0029297-.5537109-.4462891-.9970703-1-1h-2c-.5546875,.0019531-.9980469,.4472656-1,1v.4512329l-1.8339844-.000061v-4.1533203h1.8339844v.7021484c.0009766,.5527344,.4472656,.9990234,1,1h2c.5527344-.0019531,.9980469-.4453125,1-1v-2c-.0029297-.5537109-.4462891-.9970703-1-1h-2c-.5546875,.0019531-.9980469,.4472656-1,1v.2978516h-1.8339844v-3.6464844h1.8339844v.3486328c.0009766,.5527344,.4472656,.9990234,1,1h2c.5527344-.0019531,.9980469-.4453125,1-1v-2c-.0029297-.5537109-.4462891-.9970703-1-1h-2c-.5546875,.0019531-.9980469,.4472656-1,1v.6513672h-1.8339844V4.9422607l1.8339844,.000061v.5576782c.0009766,.5527344,.4472656,.9990234,1,1Zm0-3h2v2h-2V3.5ZM10.6397095,15.8040771c-.8267822,.8261108-1.9643555,1.3356934-3.2252197,1.3359375-1.2609253-.0002441-2.3984985-.5098267-3.2252808-1.3359375-.8261108-.8267822-1.3356934-1.9643555-1.3359375-3.2252197,.0002441-1.2609863,.5098267-2.3984985,1.3359375-3.2252808,.8267822-.8261108,1.9642944-1.3356934,3.2252808-1.3359375,1.2608643,.0002441,2.3984375,.5098267,3.2252197,1.3359375,.8261108,.8267822,1.3356934,1.9642944,1.3359375,3.2252808-.0002441,1.2608643-.5098267,2.3984375-1.3359375,3.2252197Zm8.0971069,2.6959229h2v2h-2v-2Zm0-5h2v2h-2v-2Zm0-5h2v2h-2v-2Zm-11.3223267,1.0788574c-1.6568604,0-3,1.3431396-3,3,0,1.6567993,1.3431396,3,3,3s3-1.3432007,3-3c0-1.6568604-1.3431396-3-3-3Z"/></svg>