<svg id="Layer_1" data-name="Layer 1" xmlns="http://www.w3.org/2000/svg" viewBox="0 0 24 24"><path d="M19.4,10.9a3.81,3.81,0,0,0-1.75-3,3.62,3.62,0,0,0-3.06-.29A5.26,5.26,0,0,0,10.08,5a5.35,5.35,0,0,0-5.3,5.05A4.55,4.55,0,0,0,6.24,19H17.76a4.25,4.25,0,0,0,4.56-4.08A4.12,4.12,0,0,0,19.4,10.9ZM17.76,18H6.24a3.6,3.6,0,0,1-.89-7.09.48.48,0,0,0,.37-.47A4.4,4.4,0,0,1,10.08,6h0A4.3,4.3,0,0,1,14,8.37a.48.48,0,0,0,.65.22h0a2.64,2.64,0,0,1,2.53.09,2.87,2.87,0,0,1,1.33,2.6.48.48,0,0,0,.4.47,3.18,3.18,0,0,1,2.48,3.13C21.36,16.62,20,18,17.76,18Z"/><path d="M13.07,15.83Zm1.29-4.74Zm-3.93,5.08Zm3.23-1.61ZM12.29,9.92v0h0l0-.44a.42.42,0,0,0-.13-.31A.54.54,0,0,0,11.83,9h0l-.49,0-.49,0a.54.54,0,0,0-.29.15.52.52,0,0,0-.13.31l0,.44h0l0,0h0l-.42.17h0l-.33-.3h0a.47.47,0,0,0-.32-.13A.53.53,0,0,0,9,9.78H9l-.66.66h0a.49.49,0,0,0,0,.63l.29.33h0l-.18.42h0L8,11.9H8a.52.52,0,0,0-.3.13.43.43,0,0,0-.15.29h0s0,.25,0,.48a2.52,2.52,0,0,0,0,.5h0a.46.46,0,0,0,.15.29.52.52,0,0,0,.3.13H8l.44,0h0l.18.42h0v0h0l-.29.33a.46.46,0,0,0-.12.32.47.47,0,0,0,.11.31h0l.66.66H9A.47.47,0,0,0,9.3,16a.44.44,0,0,0,.32-.12h0l.33-.29h0l.42.17h0l0,.44a.52.52,0,0,0,.13.3.49.49,0,0,0,.29.16s.25,0,.49,0,.48,0,.49,0h0a.49.49,0,0,0,.29-.16.42.42,0,0,0,.13-.3l0-.44v0h0l.42-.17h0l.33.29a.48.48,0,0,0,.62,0h0l.66-.66h0a.53.53,0,0,0,.11-.31.51.51,0,0,0-.12-.32l-.3-.33h0v0h0l.17-.42h0l.44,0h0A.52.52,0,0,0,15,13.6a.57.57,0,0,0,.15-.3h0a4.5,4.5,0,0,0,0-.49c0-.24,0-.48,0-.49h0A.54.54,0,0,0,15,12a.52.52,0,0,0-.31-.13h0l-.44,0h0l-.17-.42h0l.3-.33a.49.49,0,0,0,0-.63h0l-.66-.66h0a.5.5,0,0,0-.3-.11.45.45,0,0,0-.32.13h0l-.33.3h0l-.43-.17Zm.21.65a.47.47,0,0,0,.22,0,.55.55,0,0,0,.36-.13l.3-.27.55.55-.27.3a.57.57,0,0,0-.13.36.59.59,0,0,0,.05.22h0l.16.4h0a.63.63,0,0,0,.18.24.57.57,0,0,0,.3.11l.41,0h0a3.07,3.07,0,0,1,0,.38,2.48,2.48,0,0,1,0,.29s0,.07,0,.1h0l-.41,0a.5.5,0,0,0-.3.11.56.56,0,0,0-.18.24h0l-.16.41h0a.54.54,0,0,0-.05.21.58.58,0,0,0,.13.37l.27.3-.55.55-.3-.27h0a.5.5,0,0,0-.36-.13.6.6,0,0,0-.22,0h0l-.4.17h0a.47.47,0,0,0-.23.18.54.54,0,0,0-.12.29l0,.42h0a3.1,3.1,0,0,1-.39,0l-.28,0H11l0-.42a.54.54,0,0,0-.11-.29.49.49,0,0,0-.24-.18h0l-.4-.17h0a.58.58,0,0,0-.58.09h0l-.3.27-.55-.55.27-.3H9A.58.58,0,0,0,9.11,14h0l-.17-.41h0a.49.49,0,0,0-.18-.24.47.47,0,0,0-.29-.11l-.42,0h0a3.53,3.53,0,0,1,0-.39c0-.09,0-.2,0-.28a.41.41,0,0,0,0-.1h0l.42,0a.54.54,0,0,0,.29-.11.55.55,0,0,0,.18-.24h0l.17-.4h0a.57.57,0,0,0,0-.22A.52.52,0,0,0,9,11.07l-.27-.3.55-.55.3.27h0a.58.58,0,0,0,.37.13.41.41,0,0,0,.21,0h0l.4-.17h0a.55.55,0,0,0,.35-.47h0l0-.42h0a3.07,3.07,0,0,1,.38,0l.29,0h.1l0,.42a.58.58,0,0,0,.12.29.53.53,0,0,0,.23.18h0l.4.17Zm1.16.5Zm-3.49,1.74a1.18,1.18,0,1,0,1.17-1.17A1.17,1.17,0,0,0,10.17,12.81Zm1.82,0a.65.65,0,1,1-.65-.64A.65.65,0,0,1,12,12.81Z"/></svg>