<?xml version="1.0" encoding="UTF-8"?><svg id="Layer_1" xmlns="http://www.w3.org/2000/svg" width="24" height="24" viewBox="0 0 24 24"><path d="M21.9123867,15.2807251c.000031,.0000931,.000031,.0001552,.0000621,.0002484l.0001552,.0004347-.0002173-.000683Zm.0876131,.4973021c.000031-.1653224-.0284075-.3337804-.087551-.4970537l-.0009314-.002701-.0000931-.0002173c-.2181634-.5927699-.7781172-.9609187-1.3753888-.9605462-.1648567-.000031-.3326627,.0289974-.4953772,.087551l-.0002173-.000683-3.0884389,1.0440922c.0072959-.0591745,.0180069-.1173866,.018038-.1785481l-.000031-.0017386c-.0039739-.8037616-.6561047-1.4528187-1.4598352-1.4530671h-1.3382883l.2315755-.2298679,4.1710286-4.14051,.0000621-.0000621,.0134431-.01335,.0118908-.0144676,.0000931-.0001242,.1627765-.1983868,.0066129-.0081031,.0058988-.008041c.4006234-.5470385,.6162721-1.2071792,.6162721-1.8844885l-.0002794-.0394911v-.007327c-.0002484-1.7715416-1.4333215-3.209489-3.2059187-3.2145806h-.000031l-.0087861-.0000621c-.7572229,0-1.486473,.2671858-2.0622295,.7487473-.5612888-.4031692-1.2141025-.615558-1.8685928-.6152786-.8839856-.0004657-1.7676297,.3637402-2.4028401,1.0755112-.5442443,.6094108-.8182603,1.3777173-.8180119,2.1445026-.0002484,.7395575,.254643,1.4819403,.7645189,2.0828443l.0099038,.0116735,.0103385,.0103385,.0003415,.0003726,4.0693205,4.0693205c.000031,.000031,.0000621,.000031,.0000931,.0000621l.2307683,.2307683h-3.9250476l-.8077666-.6633695,.0009935,.0008383c-.4086334-.3379717-.9222348-.5227291-1.4522599-.5227291l-.0059299,.0000621h-.8945104v-.900316H2v6.9483821H7.0256133v-.8393098h.5725587l5.7287533,2.0136418,.0002484-.0007451c.1626524,.060789,.3333768,.0921769,.5043806,.0921769,.1742327,0,.3485585-.0316363,.5140671-.094878l.0021733-.0008383,6.7032393-2.7026557-.0002794-.0007141c.5853498-.2194984,.9495868-.7740191,.9492452-1.3666337Zm-15.7170487,2.1572627H2.7426622v-5.4630267h3.5402889v5.4630267Zm4.0684512-8.9291767c-.3896951-.4624369-.5836733-1.0284447-.5838906-1.5963775,.0002484-.5913418,.209874-1.1799514,.6293426-1.6499016,.4901924-.5488392,1.166322-.8269843,1.8488472-.82745,.588175,.0003415,1.1753255,.2068625,1.648846,.6294047l.2649504,.2365429,.2480611-.2541463c.4652621-.4766562,1.1030804-.7452701,1.7689647-.7452701l.0032288,.000031,.0034772,.000031c1.3628461,.0034151,2.4656471,1.1099417,2.4653987,2.4719185v.0102764l.000031,.0025148,.0002173,.0340269c0,.5181342-.1647635,1.0230427-.47054,1.4420766l-.14033,.1710039-3.895212,3.8667113-3.7913926-3.7913926Zm10.4337188,7.4459636l-.0058678,.0021112-6.6989859,2.7010102c-.0800998,.0306118-.164391,.0458867-.2487131,.0458867-.0843843,0-.1687685-.0153059-.2489925-.0459487l-.0044396-.0017076-5.8533117-2.0574173h-.6584952v-3.723432h.8593037l.0008383-.000031c.3572205,.0001242,.7032021,.1245894,.9785531,.3523151l.0009935,.0008383,.9105303,.7477227,.047439-.0577774v.1421307h5.6462008c.3943831-.0002484,.7149998,.3187229,.7171109,.7130128-.0005899,.1897249-.0758465,.3609771-.1963999,.4890747l-.6548938,.2213922,.001987,.0058678h-4.9137839v.7426932l5.0459797-.000031c.3373507-.0000931,.6439965-.1191252,.8911263-.3112096l3.8800923-1.3117436,.0059299-.0021112c.0830182-.0304255,.16644-.0445206,.2487131-.0445517,.2939168,.0003726,.5712237,.1810319,.6781166,.4736447,.0294941,.0814659,.0431546,.1633354,.0431856,.2442114-.0003415,.2925818-.1807214,.5684916-.4722165,.6740495Z"/></svg>