<svg id="Layer_1" data-name="Layer 1" xmlns="http://www.w3.org/2000/svg" viewBox="0 0 63 16"><title>E1X_ico_font</title><path d="M19.23,6.74a1,1,0,0,0-1.33,0,1.08,1.08,0,0,0-.27.59,5.43,5.43,0,0,0,0,1.61,1.11,1.11,0,0,0,.27.59,1,1,0,0,0,1.33,0,1.05,1.05,0,0,0,.28-.59,5,5,0,0,0,0-.81,5,5,0,0,0,0-.8A1,1,0,0,0,19.23,6.74ZM7.87,4.53H6.44V6.68H7.87a1.16,1.16,0,0,0,.83-.29A1.06,1.06,0,0,0,9,5.61a1.06,1.06,0,0,0-.3-.78A1.13,1.13,0,0,0,7.87,4.53ZM0,0V16H63V0ZM10.36,6.55A2.32,2.32,0,0,1,9,7.86,2.94,2.94,0,0,1,8,8.05H6.44V11H4.91V3.17H8A2.94,2.94,0,0,1,9,3.36a2.42,2.42,0,0,1,.81.53,2.29,2.29,0,0,1,.51.78,2.68,2.68,0,0,1,0,1.88Zm4.46.28a1.44,1.44,0,0,0-.33-.25.89.89,0,0,0-.43-.09,1,1,0,0,0-.33.06.91.91,0,0,0-.29.19,1.12,1.12,0,0,0-.22.33,1.38,1.38,0,0,0-.08.48V11H11.71V5.27h1.4v.55a1.86,1.86,0,0,1,.59-.44,2,2,0,0,1,.85-.18,2.13,2.13,0,0,1,.74.12,1.76,1.76,0,0,1,.61.42Zm6.05,2.6a2.05,2.05,0,0,1-.52.93,2.57,2.57,0,0,1-.71.5,2.48,2.48,0,0,1-1.08.21,2.38,2.38,0,0,1-1.06-.21,2.57,2.57,0,0,1-.71-.5,2.14,2.14,0,0,1-.51-.93,5.27,5.27,0,0,1-.14-1.3,5.13,5.13,0,0,1,.14-1.29,2.14,2.14,0,0,1,.51-.93,2.57,2.57,0,0,1,.71-.5,2.38,2.38,0,0,1,1.06-.21,2.48,2.48,0,0,1,1.08.21,2.57,2.57,0,0,1,.71.5,2.14,2.14,0,0,1,.51.93A5.13,5.13,0,0,1,21,8.13,5.86,5.86,0,0,1,20.87,9.43Zm2.95,0a1,1,0,0,0,.82.37,1.07,1.07,0,0,0,.49-.11,1.56,1.56,0,0,0,.43-.34l1,1a2.54,2.54,0,0,1-.84.58,2.69,2.69,0,0,1-1.05.2,3.11,3.11,0,0,1-.89-.14,2,2,0,0,1-.82-.46,2.7,2.7,0,0,1-.62-.91,3.64,3.64,0,0,1-.24-1.43,3.73,3.73,0,0,1,.24-1.44,2.61,2.61,0,0,1,.62-.89,2.11,2.11,0,0,1,.82-.47,3.48,3.48,0,0,1,.89-.13,2.89,2.89,0,0,1,1.05.19,2.54,2.54,0,0,1,.84.58l-1,1a1.61,1.61,0,0,0-.43-.35,1.07,1.07,0,0,0-.49-.1,1,1,0,0,0-.82.37,1.34,1.34,0,0,0-.24.51,3.16,3.16,0,0,0-.08.76A2.07,2.07,0,0,0,23.82,9.41Zm8.53-.83H28.76a1.36,1.36,0,0,0,.32.92,1.18,1.18,0,0,0,.94.36,1.68,1.68,0,0,0,.74-.14,2.19,2.19,0,0,0,.55-.4l.87.84a3.16,3.16,0,0,1-.44.39,1.92,1.92,0,0,1-.48.29,2.44,2.44,0,0,1-.56.17,3.73,3.73,0,0,1-.7.06,3.63,3.63,0,0,1-1-.14,2,2,0,0,1-.85-.46,2.52,2.52,0,0,1-.59-.91,3.85,3.85,0,0,1-.23-1.43,3.69,3.69,0,0,1,.19-1.25A2.64,2.64,0,0,1,28.05,6a2,2,0,0,1,.78-.56,2.61,2.61,0,0,1,1-.2,2.54,2.54,0,0,1,1.06.21A2.06,2.06,0,0,1,31.7,6a2.49,2.49,0,0,1,.48.88A3.59,3.59,0,0,1,32.35,8ZM37.79,10a1.59,1.59,0,0,1-.51.58,2.41,2.41,0,0,1-.78.35,3.69,3.69,0,0,1-1,.12q-.34,0-.66,0a3.09,3.09,0,0,1-.62-.12,3.41,3.41,0,0,1-.6-.24,2.77,2.77,0,0,1-.56-.44L34,9.31a1.9,1.9,0,0,0,.37.28,2.31,2.31,0,0,0,.41.16,1.8,1.8,0,0,0,.39.08h.36a2.31,2.31,0,0,0,.37,0,1.34,1.34,0,0,0,.32-.1.62.62,0,0,0,.23-.18.45.45,0,0,0,.09-.28.54.54,0,0,0-.12-.36A.83.83,0,0,0,36,8.72l-.93-.09a2.16,2.16,0,0,1-1.2-.44A1.42,1.42,0,0,1,33.4,7a1.65,1.65,0,0,1,.18-.79,1.81,1.81,0,0,1,.49-.57,2,2,0,0,1,.7-.35,2.94,2.94,0,0,1,.84-.12,4.6,4.6,0,0,1,1.23.15,2.26,2.26,0,0,1,1,.52l-.88.89a1.54,1.54,0,0,0-.6-.3,3.4,3.4,0,0,0-.73-.08,1,1,0,0,0-.62.16.51.51,0,0,0-.19.39.4.4,0,0,0,.14.34.79.79,0,0,0,.45.15l.9.09A2,2,0,0,1,37.55,8,1.58,1.58,0,0,1,38,9.2,1.66,1.66,0,0,1,37.79,10Zm5.51,0a1.5,1.5,0,0,1-.51.58A2.32,2.32,0,0,1,42,11a3.64,3.64,0,0,1-.95.12q-.35,0-.66,0a3.24,3.24,0,0,1-.62-.12,3.75,3.75,0,0,1-.6-.24,2.77,2.77,0,0,1-.56-.44l.93-.93a1.69,1.69,0,0,0,.38.28,2,2,0,0,0,.4.16,1.8,1.8,0,0,0,.39.08h.36a2.22,2.22,0,0,0,.37,0,1.34,1.34,0,0,0,.32-.1A.62.62,0,0,0,42,9.53a.45.45,0,0,0,.09-.28A.54.54,0,0,0,42,8.89a.83.83,0,0,0-.48-.17l-.93-.09a2.16,2.16,0,0,1-1.2-.44A1.42,1.42,0,0,1,38.91,7a1.54,1.54,0,0,1,.19-.79,1.66,1.66,0,0,1,.48-.57,2.09,2.09,0,0,1,.7-.35,2.94,2.94,0,0,1,.84-.12,4.6,4.6,0,0,1,1.23.15,2.2,2.2,0,0,1,1,.52l-.88.89a1.54,1.54,0,0,0-.6-.3,3.4,3.4,0,0,0-.73-.08,1,1,0,0,0-.62.16.51.51,0,0,0-.19.39.4.4,0,0,0,.14.34.79.79,0,0,0,.45.15l.91.09A2,2,0,0,1,43.07,8a1.61,1.61,0,0,1,.42,1.17A1.66,1.66,0,0,1,43.3,10Zm2.82,1H44.69V5.43h1.43Zm0-6.71H44.67V3.12h1.46ZM52.48,11H51.05V7.54A1.21,1.21,0,0,0,51,7a.74.74,0,0,0-.22-.32.92.92,0,0,0-.3-.18,1.18,1.18,0,0,0-.68,0,.92.92,0,0,0-.3.18,1,1,0,0,0-.23.32,1.21,1.21,0,0,0-.09.5V11H47.71V5.27h1.4V5.8a1.85,1.85,0,0,1,.66-.45,2.07,2.07,0,0,1,.77-.15,2.3,2.3,0,0,1,.77.13,1.67,1.67,0,0,1,.58.38,1.75,1.75,0,0,1,.47.75,3.07,3.07,0,0,1,.12.88Zm6-.21a2.44,2.44,0,0,1-.18,1,2.31,2.31,0,0,1-.51.76A2.35,2.35,0,0,1,57,13a2.91,2.91,0,0,1-1,.18A3.89,3.89,0,0,1,54.85,13a2.51,2.51,0,0,1-.93-.59l.89-.9a1.67,1.67,0,0,0,.5.33,1.64,1.64,0,0,0,.62.11,1.27,1.27,0,0,0,.54-.11,1.1,1.1,0,0,0,.36-.27,1.15,1.15,0,0,0,.2-.38,2,2,0,0,0,.06-.43v-.58a1.66,1.66,0,0,1-.62.44,2,2,0,0,1-.75.13,2.39,2.39,0,0,1-.77-.13A1.69,1.69,0,0,1,54,9.81a2.13,2.13,0,0,1-.18-.52,5.39,5.39,0,0,1-.07-.61c0-.22,0-.46,0-.71s0-.48,0-.69a5.39,5.39,0,0,1,.07-.61A2.13,2.13,0,0,1,54,6.15a1.71,1.71,0,0,1,.32-.44,1.67,1.67,0,0,1,.6-.38,2.39,2.39,0,0,1,.77-.13,2,2,0,0,1,.78.14,1.76,1.76,0,0,1,.62.47V5.27h1.39ZM30.81,7a1.07,1.07,0,0,0-.36-.43,1.14,1.14,0,0,0-1.2,0,1.07,1.07,0,0,0-.36.43,1.11,1.11,0,0,0-.1.29c0,.09,0,.2,0,.32h2.18c0-.12,0-.23,0-.32A1.11,1.11,0,0,0,30.81,7ZM56.93,7a.75.75,0,0,0-.28-.33,1.07,1.07,0,0,0-1,0,.83.83,0,0,0-.28.33,1.54,1.54,0,0,0-.12.47,5,5,0,0,0,0,.55,5.06,5.06,0,0,0,0,.56,1.69,1.69,0,0,0,.12.48.83.83,0,0,0,.28.33,1.07,1.07,0,0,0,1,0A.75.75,0,0,0,56.93,9a1.41,1.41,0,0,0,.13-.48,5,5,0,0,0,0-.56,4.93,4.93,0,0,0,0-.55A1.3,1.3,0,0,0,56.93,7Z"/></svg>