<svg id="Layer_1" data-name="Layer 1" xmlns="http://www.w3.org/2000/svg" viewBox="0 0 24 24"><title>E1X_ico_font</title><path d="M12,14.19a1.64,1.64,0,1,0,1.64,1.64A1.64,1.64,0,0,0,12,14.19Zm0,2.18a.55.55,0,0,1-.55-.54.55.55,0,1,1,1.1,0A.55.55,0,0,1,12,16.37Zm6.4-4.76-1.48-1.48V7.08a1.65,1.65,0,0,0-1.64-1.64.55.55,0,1,0,0,1.09.55.55,0,0,1,.55.55v3.28a.54.54,0,0,0,.16.39L17.24,12,16,13.25a.53.53,0,0,0-.16.39v3.28a.55.55,0,0,1-.55.55.55.55,0,1,0,0,1.09,1.65,1.65,0,0,0,1.64-1.64V13.87l1.48-1.48A.56.56,0,0,0,18.4,11.61ZM8.17,10.36V7.08a.55.55,0,0,1,.55-.55.55.55,0,1,0,0-1.09A1.65,1.65,0,0,0,7.08,7.08v3.05L5.6,11.61a.56.56,0,0,0,0,.78l1.48,1.48v3.05a1.65,1.65,0,0,0,1.64,1.64.55.55,0,1,0,0-1.09.55.55,0,0,1-.55-.55V13.64A.53.53,0,0,0,8,13.25L6.76,12,8,10.75A.54.54,0,0,0,8.17,10.36ZM12,2A10,10,0,1,0,22,12,10,10,0,0,0,12,2Zm0,19a9,9,0,1,1,9-9A9,9,0,0,1,12,21Zm0-10.64A1.64,1.64,0,1,0,13.64,12,1.65,1.65,0,0,0,12,10.36Zm0,2.19a.55.55,0,1,1,.55-.55A.55.55,0,0,1,12,12.55Zm0-6a1.64,1.64,0,1,0,1.64,1.64A1.65,1.65,0,0,0,12,6.53Zm0,2.19a.55.55,0,0,1-.55-.55.55.55,0,0,1,1.1,0A.55.55,0,0,1,12,8.72Z"/></svg>