<svg id="Layer_1" data-name="Layer 1" xmlns="http://www.w3.org/2000/svg" viewBox="0 0 24 24"><path d="M9.55273,13.06836l2.04883-1.21582v7.71484h2.59375V8.36328h-1.4248L9.55273,10.21973ZM21.86914,9.61224,12.39478,2.03278a.63164.63164,0,0,0-.78956,0L2.13086,9.61224a.63161.63161,0,0,0,.39166,1.12427H3.78577V21.47412a.6316.6316,0,0,0,.63159.63165h15.159a.63161.63161,0,0,0,.6316-.63165V10.73651h1.26324a.6316.6316,0,0,0,.398-1.12427Zm-2.29279-.139a.6317.6317,0,0,0-.63165.63165V20.84253H5.049V10.10492a.6317.6317,0,0,0-.63165-.63165H4.32263l7.6742-6.13935,7.67425,6.13935Z"/></svg>