<svg id="Layer_1" data-name="Layer 1" xmlns="http://www.w3.org/2000/svg" viewBox="0 0 24 24"><title>E1X_ico_font</title><path d="M17,22a.83.83,0,0,1-.83-.83.84.84,0,0,1,.83-.84.83.83,0,0,0,.83-.83v-5a.83.83,0,0,1,.25-.59L20,12l-1.91-1.91a.83.83,0,0,1-.25-.59v-5A.83.83,0,0,0,17,3.67a.84.84,0,0,1-.83-.84A.83.83,0,0,1,17,2a2.5,2.5,0,0,1,2.5,2.5V9.16l2.26,2.25a.85.85,0,0,1,0,1.18L19.5,14.84V19.5A2.5,2.5,0,0,1,17,22ZM7,22a2.5,2.5,0,0,1-2.5-2.5V14.84L2.24,12.59a.85.85,0,0,1,0-1.18L4.5,9.16V4.5A2.5,2.5,0,0,1,7,2a.83.83,0,0,1,.83.83A.84.84,0,0,1,7,3.67a.83.83,0,0,0-.83.83v5a.83.83,0,0,1-.25.59L4,12l1.91,1.91a.83.83,0,0,1,.25.59v5a.83.83,0,0,0,.83.83.84.84,0,0,1,.83.84A.83.83,0,0,1,7,22Zm5-7.5A2.5,2.5,0,1,1,14.5,12,2.5,2.5,0,0,1,12,14.5Zm0-3.33a.83.83,0,1,0,.83.83A.83.83,0,0,0,12,11.17Zm0,9.16a2.5,2.5,0,1,1,2.5-2.5A2.5,2.5,0,0,1,12,20.33ZM12,17a.83.83,0,0,0-.83.83.83.83,0,1,0,1.66,0A.83.83,0,0,0,12,17Zm0-8.33a2.5,2.5,0,1,1,2.5-2.5A2.5,2.5,0,0,1,12,8.67Zm0-3.34a.84.84,0,0,0-.83.84.83.83,0,1,0,1.66,0A.84.84,0,0,0,12,5.33Z"/></svg>