<?xml version="1.0" encoding="UTF-8"?><svg id="Layer_1" xmlns="http://www.w3.org/2000/svg" width="24" height="24" viewBox="0 0 24 24"><path d="M18.2633057,13.3797607h-.0001831c-.2775269-.3048096-.4312744-.7022705-.4311523-1.1144409v-1.7227783c.0050049-1.1290283-.3039551-2.2373047-.8926392-3.2007446s-1.4335327-1.7442017-2.4404297-2.2550659v-.4959106c.0079346-.6027832-.1963501-1.1890259-.5773315-1.6563721-.3807373-.4672241-.9139404-.7857666-1.5058594-.8995361l-.000061,.000061c-.7258301-.1226807-1.468811,.0807495-2.0308228,.5560303-.5620117,.4754639-.8861084,1.1742554-.8856201,1.9104004v.5687256c-.9963989,.4725342-1.8383789,1.2180786-2.4282227,2.1497192-.5900879,.9318848-.9036255,2.0115967-.9048462,3.1143799v1.9311523c.0006714,.4130859-.1530762,.8113403-.4312744,1.1165161l-1.5039673,1.6665649c-.3763428,.4168701-.5761719,.963623-.557251,1.5249634,.0189209,.5614014,.2550049,1.0933228,.6586304,1.4838867s.9431152,.6091309,1.5048828,.6096191h2.8287964c0,1.1907349,.635376,2.2911377,1.6665039,2.8865356,1.031311,.5953369,2.302002,.5953369,3.3331299,0,1.03125-.5953979,1.6665039-1.6958008,1.6665039-2.8865356h2.8289795c.5621948,0,1.102417-.2185669,1.5063477-.609314,.4041748-.3908691,.6404419-.9235229,.6589355-1.4854736,.0187378-.5618286-.1819458-1.1089478-.559082-1.5258179l-1.5039673-1.6665649Zm-5.0858154,6.4654541c-.312561,.312561-.7363892,.4881592-1.1785278,.4881592-.4419556,0-.8658447-.1755981-1.1784058-.4881592s-.4881592-.7364502-.4881592-1.1784058h3.3330688c0,.4419556-.1755981,.8658447-.4879761,1.1784058Z"/></svg>