<svg id="Layer_1" data-name="Layer 1" xmlns="http://www.w3.org/2000/svg" width="24" height="24" viewBox="0 0 24 24"><path d="M14.25754,15.22812h-.64479v.51134l-1.2896-1.2896v-1.495a5.48063,5.48063,0,1,0-.66055-.00075l.015.00075v1.495l-1.2896,1.2896v-.51134H9.7432v1.28959h0a.32238.32238,0,0,0,.3224.3224h1.2896v-.6448h-.51134L12,15.03918l1.15614,1.15613H12.6448v.6448h1.2896a.32238.32238,0,0,0,.3224-.3224h0Zm-7.095-7.73984A4.83749,4.83749,0,1,1,12,12.32577h0A4.84343,4.84343,0,0,1,7.16251,7.489h0Zm-.45136,9.18164a.9405.9405,0,0,0,.129-.47385h0a.9672.9672,0,1,0-1.93439,0h0a.94684.94684,0,0,0,.132.4791l-.00224-.0045a.9664.9664,0,0,0-.45211.81574v1.2911a.3176.3176,0,0,0,.09447.22718h0l.22793.22793v1.47854h0a.32238.32238,0,0,0,.3224.3224H6.51771a.32238.32238,0,0,0,.3224-.3224h0V19.23262l.22793-.22793a.32022.32022,0,0,0,.09447-.22718v-.00075h0v-1.2896a.966.966,0,0,0-.44761-.81349l-.00375-.00225Zm-.83824-.797a.3224.3224,0,1,1-.32239.3224h0a.32238.32238,0,0,1,.32239-.3224Zm.6448,2.76889-.22793.22793a.32022.32022,0,0,0-.09447.22718v.00075h0v1.28959h-.6448V19.09691a.31756.31756,0,0,0-.09447-.22718h0l-.22793-.22793V17.48566a.32239.32239,0,0,1,.3224-.3224h.6448a.32238.32238,0,0,1,.3224.3224h0Zm11.60938-4.38088a3.86954,3.86954,0,1,0,3.86954,3.86954h0a3.87372,3.87372,0,0,0-3.86954-3.86954Zm0,7.09428a3.22474,3.22474,0,1,1,3.22474-3.22474h0a3.229,3.229,0,0,1-3.22474,3.22474ZM5.87291,14.26092a3.86954,3.86954,0,1,0,3.86955,3.86954h0a3.87372,3.87372,0,0,0-3.86955-3.86954Zm0,7.09428a3.22474,3.22474,0,1,1,3.22475-3.22474h0A3.229,3.229,0,0,1,5.87291,21.3552ZM13.06842,4.98557a1.28958,1.28958,0,1,0-2.13384.00449l-.003-.00449a1.29034,1.29034,0,0,0-.86673,1.21237V8.45548h0a.3231.3231,0,0,0,.1762.28791l.0015.00075.46635.23318v2.70291h0a.32238.32238,0,0,0,.3224.32239h1.93515a.32238.32238,0,0,0,.3224-.32239h0V8.97732l.46635-.23318a.32271.32271,0,0,0,.17844-.28791h0V6.19869a1.28833,1.28833,0,0,0-.85773-1.21012l-.009-.003ZM12,3.61874a.6448.6448,0,1,1-.6448.6448h0A.64525.64525,0,0,1,12,3.61874Zm1.2896,4.63805L12.82324,8.49a.32273.32273,0,0,0-.17844.28791h0v2.58H11.3552v-2.58A.32241.32241,0,0,0,11.17826,8.49l-.0015-.00075L10.7104,8.256V6.19794a.64477.64477,0,0,1,.6448-.6448h1.2896a.64477.64477,0,0,1,.6448.6448h0Zm5.67572,8.41313a.9486.9486,0,0,0,.12971-.47385h0a.9672.9672,0,1,0-1.93439,0h0a.94675.94675,0,0,0,.132.4791l-.00225-.0045a.9664.9664,0,0,0-.45211.81574v1.2911a.3176.3176,0,0,0,.09447.22718h0l.22793.22793v1.47854h0a.32238.32238,0,0,0,.3224.3224h1.28959a.32238.32238,0,0,0,.3224-.3224h0V19.23262l.22793-.22793a.32022.32022,0,0,0,.09447-.22718v-.00075h0v-1.2896a.966.966,0,0,0-.44761-.81349l-.00375-.00225Zm-.83823-.797a.3224.3224,0,1,1-.3224.3224h0a.32238.32238,0,0,1,.3224-.3224Zm.64479,2.76889-.22793.22793a.32022.32022,0,0,0-.09447.22718v.00075h0v1.28959h-.64479V19.09691a.3176.3176,0,0,0-.09447-.22718h0l-.22793-.22793V17.48566a.32238.32238,0,0,1,.3224-.3224h.64479a.32238.32238,0,0,1,.3224.3224h0Z"/></svg>