<svg id="Layer_1" data-name="Layer 1" xmlns="http://www.w3.org/2000/svg" viewBox="0 0 24 24"><title>E1X_ico_font</title><path d="M13.74,9.16A.53.53,0,0,1,14.18,9a1.06,1.06,0,0,1,.24,0l.25,0a.58.58,0,0,0,.46-.16.72.72,0,0,0,.16-.5l0-.23V8H13.88c.53-1.27,1-2.48,1.54-3.59a3.05,3.05,0,0,1,1.11-.94h0l.12,0a3.77,3.77,0,0,1,.41,0A2.63,2.63,0,0,0,17,4h0c0,.12,0,.27.06.41a.65.65,0,0,0,.21.39h0a1,1,0,0,0,.45.11.92.92,0,0,0,.42-.1h0l.05,0h0a.89.89,0,0,0,.44-.78.87.87,0,0,0-.11-.44h0a1.5,1.5,0,0,0-1.37-.9h-.1a4,4,0,0,0-3.4,2.17h0a17,17,0,0,0-1,1.93h0A1.93,1.93,0,0,1,11.12,8h-.93L10,8.86,10,9h1.85a2.7,2.7,0,0,1-.07.35c-.52,1.83-1,3.67-1.58,5.5-.45,1.45-.9,2.91-1.42,4.34a2.13,2.13,0,0,1-1.53,1.32l-.33,0H6.71v0l.14-.21,0,0v0A4.44,4.44,0,0,0,7,19.68a.42.42,0,0,0-.08-.28h0a1,1,0,0,0-.64-.23l-.2,0H6a1.09,1.09,0,0,0-.32.17.91.91,0,0,0-.14,1.3,1.81,1.81,0,0,0,1.23.65h0a4.71,4.71,0,0,0,2-.73h0a6.46,6.46,0,0,0,2.37-3.37h0c.85-2.47,1.61-5,2.34-7.47A1.52,1.52,0,0,1,13.74,9.16Zm7-2a4.34,4.34,0,0,1-.8.61h0A9,9,0,0,1,13,20.93,8.69,8.69,0,0,1,12.2,22,10,10,0,0,0,22,12,9.9,9.9,0,0,0,20.73,7.13Zm-9.93-4h0A6.88,6.88,0,0,1,11.57,2,10,10,0,0,0,3.33,17a2.34,2.34,0,0,1,.22-.23h0a5.79,5.79,0,0,1,.58-.38A8.89,8.89,0,0,1,3,12,9,9,0,0,1,10.8,3.09Z"/></svg>