<svg id="Layer_1" data-name="Layer 1" xmlns="http://www.w3.org/2000/svg" viewBox="0 0 24 24"><title>E1X_ico_font</title><path d="M20.59,5.81h-9.8l-2.91,8.6L5.55,9.56H2.47v1.7H4.64L8,18.19,11.75,7.51h8.84Z"/><path id="Path_79" data-name="Path 79" d="M13.73,12.17A1,1,0,0,0,13,14a1.06,1.06,0,0,0,.75.31,1,1,0,0,0,.74-.31,1,1,0,0,0,.31-.74h0a1,1,0,0,0-1-1ZM16,15.88h2.93V15.3H16Zm2.93-2.66H16v.56h2.93ZM16,14.79h3.83v-.57H16Zm4-3.88H12.51a1,1,0,0,0-.74.31,1.06,1.06,0,0,0-.31.75h0v4.6a1,1,0,0,0,.31.75,1,1,0,0,0,.74.3H20a1,1,0,0,0,.74-.3,1,1,0,0,0,.31-.75h0V12A1.06,1.06,0,0,0,20,10.91Zm.57,5.66a.58.58,0,0,1-.57.57H12.51a.56.56,0,0,1-.4-.17.54.54,0,0,1-.17-.4v-.2h3.88v-.53q0-.52-.78-.78a4.19,4.19,0,0,0-1.31-.27,3.41,3.41,0,0,0-1,.14,4.36,4.36,0,0,0-.85.39h0V12a.57.57,0,0,1,.17-.41.56.56,0,0,1,.4-.17H20a.54.54,0,0,1,.4.17.57.57,0,0,1,.17.41h0ZM16,12.74h3.83v-.61H16Z"/></svg>