<svg id="Layer_1" data-name="Layer 1" xmlns="http://www.w3.org/2000/svg" viewBox="0 0 24 24"><title>E1X_ico_font</title><path d="M6.86,7A3.21,3.21,0,0,0,4,8.5l0,.08V7.25H1.85V17H4.16V12.77a6.08,6.08,0,0,1,.32-2.37A1.87,1.87,0,0,1,6.2,9.14a1.56,1.56,0,0,1,1.3.5A2.21,2.21,0,0,1,7.84,11v6h2.31V10.48A3.18,3.18,0,0,0,6.86,7Zm11.46-.58h2a1,1,0,0,0,1-1v-2a1,1,0,0,0-1-1h-2a1,1,0,0,0-1,1v.44H14.49v8.31h-3.4v1h3.4v6.7h2.83v.55a1,1,0,0,0,1,1h2a1,1,0,0,0,1-1v-2a1,1,0,0,0-1-1h-2a1,1,0,0,0-1,1v.45H15.49V14.72h1.83v.7a1,1,0,0,0,1,1h2a1,1,0,0,0,1-1v-2a1,1,0,0,0-1-1h-2a1,1,0,0,0-1,1v.3H15.49V10.07h1.83v.35a1,1,0,0,0,1,1h2a1,1,0,0,0,1-1v-2a1,1,0,0,0-1-1h-2a1,1,0,0,0-1,1v.65H15.49V4.86h1.83v.56A1,1,0,0,0,18.32,6.42Zm0-3h2v2h-2Zm0,15h2v2h-2Zm0-5h2v2h-2Zm0-5h2v2h-2Z"/></svg>