<svg id="Layer_1" data-name="Layer 1" xmlns="http://www.w3.org/2000/svg" viewBox="0 0 24 24"><path d="M17,1H2V23H22V7ZM16,2h.67l4,5H16Zm5,20H3V2H15V8h6ZM12,8A5.86,5.86,0,0,0,8.38,9.19L7,7.78s-.09-.07-.13,0,0,.06,0,.13v3.78a.24.24,0,0,0,.25.25h3.78c.08,0,.13,0,.14-.05a.13.13,0,0,0-.05-.13L9.52,10.32a4.39,4.39,0,0,1,4.71-.2,4.44,4.44,0,0,1,1.63,1.62,4.49,4.49,0,0,1,.58,2h0v0H18v0h0a5.93,5.93,0,0,0-.46-2.07,5.83,5.83,0,0,0-3.21-3.21A5.81,5.81,0,0,0,12,8Zm5,7.86H13.18c-.08,0-.13,0-.14.05a.12.12,0,0,0,.05.13l1.39,1.39a4.39,4.39,0,0,1-4.71.2A4.44,4.44,0,0,1,8.14,16a4.39,4.39,0,0,1-.59-2.24v0H6v0a5.68,5.68,0,0,0,.47,2.33,5.83,5.83,0,0,0,3.21,3.21,6,6,0,0,0,5.95-.75L17,19.94s.09.07.13,0,.05-.06.05-.13V16.08a.22.22,0,0,0-.07-.18A.24.24,0,0,0,17,15.83Z"/></svg>