<svg id="Layer_1" data-name="Layer 1" xmlns="http://www.w3.org/2000/svg" viewBox="0 0 24 24"><title>E1X_ico_font</title><g id="ico_flow_one_to_one_0"><path d="M10.41,17H8.89V7.2a2.81,2.81,0,0,0,1.38-2.42A2.78,2.78,0,1,0,6.11,7.2v9.74H4.58L7.5,22ZM9.16,4.78A1.67,1.67,0,1,1,7.5,3.11,1.67,1.67,0,0,1,9.16,4.78"/></g><g id="ico_flow_one_to_one_0-2" data-name="ico_flow_one_to_one_0"><path d="M13.59,7h1.52V16.8a2.81,2.81,0,0,0-1.38,2.42,2.78,2.78,0,1,0,4.16-2.42V7.06h1.53L16.5,2Zm1.25,12.19a1.67,1.67,0,1,1,1.66,1.67,1.67,1.67,0,0,1-1.66-1.67"/></g></svg>