<svg id="Layer_1" data-name="Layer 1" xmlns="http://www.w3.org/2000/svg" viewBox="0 0 24 24"><title>E1X_ico_font</title><path d="M20.93,14.08a.57.57,0,0,0-.27-.28l-8.31-2.91a.93.93,0,0,0-1.11.49.74.74,0,0,0,0,.55h0l2.91,8.31a.44.44,0,0,0,.41.35h0a.53.53,0,0,0,.49-.28l1.24-2.42,1.46,1.45a.79.79,0,0,0,1.18,0h0l.76-.76a.81.81,0,0,0,0-1.18L18.23,16l2.43-1.32C21,14.63,21.07,14.35,20.93,14.08Zm-3.74,1.38a.48.48,0,0,0-.2.69h0l.07.14,1.8,1.8-.42.56-1.8-1.8a.46.46,0,0,0-.69,0h0l-.07.14-1,2-2.42-6.92,6.92,2.42Zm-10,.42a1.39,1.39,0,0,1-1.38-1.39V7.57A1.39,1.39,0,0,1,7.15,6.18h6.93a1.39,1.39,0,0,1,1.38,1.39v4l.7.21V7.57a1.89,1.89,0,0,0-.63-1.46,2.32,2.32,0,0,0-1.45-.62H14a2.77,2.77,0,0,0-2.7-2.08H5.77A2.78,2.78,0,0,0,3,6.18v5.54a2.81,2.81,0,0,0,2.08,2.7v.07A1.88,1.88,0,0,0,5.7,16a2.35,2.35,0,0,0,1.45.62h5.2l-.21-.69ZM5.08,7.57v6.09a2,2,0,0,1-1.39-1.94V6.18A2,2,0,0,1,5.77,4.11h5.54a2,2,0,0,1,1.94,1.38H7.15a1.9,1.9,0,0,0-1.45.62A2.3,2.3,0,0,0,5.08,7.57Z"/></svg>