<svg id="Layer_1" data-name="Layer 1" xmlns="http://www.w3.org/2000/svg" viewBox="0 0 24 24"><title>E1X_ico_font</title><path d="M20.16,16.42l-.42,0a.47.47,0,0,1-.29-.11.49.49,0,0,1-.18-.24h0l-.17-.41h0a.58.58,0,0,1,.09-.58h0l.27-.3-.55-.55-.3.27a.52.52,0,0,1-.36.13.57.57,0,0,1-.22,0h0l-.4-.17h0a.55.55,0,0,1-.24-.18.54.54,0,0,1-.11-.29l0-.42h-.11l-.28,0a3.27,3.27,0,0,0-.39,0h0l0,.42h0a.54.54,0,0,1-.11.29.55.55,0,0,1-.24.18h0l-.4.17h0a.6.6,0,0,1-.22,0,.5.5,0,0,1-.36-.13h0l-.3-.27-.55.55.27.3a.58.58,0,0,1,.13.37.41.41,0,0,1,0,.21h0l-.16.41h0a.56.56,0,0,1-.18.24.49.49,0,0,1-.29.11l-.42,0h0s0,.06,0,.1a2.48,2.48,0,0,0,0,.29,3.07,3.07,0,0,0,0,.38h0l.42,0a.57.57,0,0,1,.29.11.63.63,0,0,1,.18.24h0l.16.4h0a.44.44,0,0,1,0,.22.57.57,0,0,1-.13.36l-.27.3.55.55.3-.27h0a.55.55,0,0,1,.36-.13.47.47,0,0,1,.22.05h0l.4.17h0a.63.63,0,0,1,.24.18.57.57,0,0,1,.11.29l0,.42h.1l.29,0a3.07,3.07,0,0,0,.38,0h0l0-.42a.57.57,0,0,1,.11-.29.63.63,0,0,1,.24-.18h0L18,19h0a.44.44,0,0,1,.22-.05.57.57,0,0,1,.36.13h0l.3.27.55-.55-.27-.3h0a.52.52,0,0,1-.13-.36.57.57,0,0,1,0-.22h0l.17-.4h0a.55.55,0,0,1,.18-.24.54.54,0,0,1,.29-.11l.42,0h0a.41.41,0,0,1,0-.1,2.53,2.53,0,0,0,0-.28,3.53,3.53,0,0,0,0-.39ZM16.87,18A1.18,1.18,0,1,1,18,16.81,1.17,1.17,0,0,1,16.87,18Zm.37-6.38v-.85A2,2,0,0,0,18.5,10,2.22,2.22,0,0,0,19,8.56l-.09-.33L15.3,3.43a.35.35,0,0,0-.17-.15.57.57,0,0,0-.25-.06H5a.44.44,0,0,0-.25.08,1,1,0,0,0-.21.21L1.09,8.85a1.91,1.91,0,0,0,.5,1.2,2.46,2.46,0,0,0,1.13.74V17a1.71,1.71,0,0,0,.53,1.28,1.71,1.71,0,0,0,1.28.53H12a5.22,5.22,0,1,0,5.29-7.18ZM2.66,9.44a1.09,1.09,0,0,1-.36-.71L5.37,4.4h9.34L18,8.82a1,1,0,0,1-.36.65,1.06,1.06,0,0,1-.74.27,1,1,0,0,1-.77-.33,1.16,1.16,0,0,1-.32-.8.49.49,0,0,0-.17-.38.55.55,0,0,0-.42-.17.52.52,0,0,0-.38.17.56.56,0,0,0-.17.37v.17a1.08,1.08,0,0,1-.31.8,1.09,1.09,0,0,1-.82.34,1,1,0,0,1-.78-.34,1.12,1.12,0,0,1-.31-.8V8.6a.56.56,0,0,0-.17-.38.6.6,0,0,0-.38-.17.59.59,0,0,0-.42.17.52.52,0,0,0-.17.38,1.06,1.06,0,0,1-.34.82,1.13,1.13,0,0,1-.8.32,1.1,1.1,0,0,1-.8-.34A1.14,1.14,0,0,1,9,8.6a.51.51,0,0,0-.17-.4.66.66,0,0,0-.42-.15A.58.58,0,0,0,8,8.2a.51.51,0,0,0-.17.4v.13a1.1,1.1,0,0,1-.32.8,1,1,0,0,1-.77.33,1.09,1.09,0,0,1-.82-.33,1.16,1.16,0,0,1-.32-.8V8.6a.53.53,0,0,0-.19-.33A.57.57,0,0,0,5,8.14a.53.53,0,0,0-.36.13.57.57,0,0,0-.18.33,1.13,1.13,0,0,1-.32.8,1,1,0,0,1-.78.34h0A1,1,0,0,1,2.66,9.44ZM8.23,17.6H5.88V12.85H8.23Zm3.32-.82a5.56,5.56,0,0,0,.08.82H9.28V12.18a.5.5,0,0,0-.17-.38.48.48,0,0,0-.37-.17H5.33A.52.52,0,0,0,5,11.8a.5.5,0,0,0-.17.38V17.6H4.61l0,0a.55.55,0,0,1-.44-.18A.64.64,0,0,1,4,17V10.75a2.2,2.2,0,0,0,.61-.26,2.65,2.65,0,0,0,.53-.42,1.8,1.8,0,0,0,.71.57,2.28,2.28,0,0,0,.93.19h0a2.17,2.17,0,0,0,.9-.19,1.77,1.77,0,0,0,.73-.57h0a1.8,1.8,0,0,0,.71.57,2.28,2.28,0,0,0,.93.19,2.36,2.36,0,0,0,.94-.19,1.8,1.8,0,0,0,.74-.57,2.17,2.17,0,0,0,1.68.76,2.37,2.37,0,0,0,1-.19,1.77,1.77,0,0,0,.73-.57,1.69,1.69,0,0,0,.42.38,2.13,2.13,0,0,0,.5.25v.92A5.22,5.22,0,0,0,11.55,16.78Zm9.13.52a.49.49,0,0,1-.16.29.52.52,0,0,1-.3.13h0l-.44,0h0l-.17.42h0l.29.33a.49.49,0,0,1,0,.63h0l-.66.66h0a.51.51,0,0,1-.31.11.47.47,0,0,1-.32-.13h0l-.33-.29h0l-.42.17h0l0,0,0,.44a.52.52,0,0,1-.13.31.54.54,0,0,1-.29.15h0l-.49,0-.49,0a.54.54,0,0,1-.29-.15.42.42,0,0,1-.13-.31h0l0-.44h0v0h0l-.42-.17h0l-.34.3h0a.47.47,0,0,1-.32.13.51.51,0,0,1-.31-.11h0l-.66-.66h0a.49.49,0,0,1,0-.63l.3-.33h0L14,17.76h0l-.44,0h0a.54.54,0,0,1-.31-.13.54.54,0,0,1-.15-.29h0s0-.25,0-.49,0-.48,0-.49h0a.58.58,0,0,1,.15-.29.54.54,0,0,1,.31-.13h0l.44,0h0l.17-.42h0v0h0l-.3-.33a.51.51,0,0,1-.12-.32.53.53,0,0,1,.11-.31h0l.66-.66h0a.45.45,0,0,1,.3-.11.43.43,0,0,1,.32.12h0l.33.29h0l.42-.17h0v0h0l0-.44a.4.4,0,0,1,.13-.3.49.49,0,0,1,.29-.16s.25,0,.49,0,.48,0,.49,0h0a.51.51,0,0,1,.42.46l0,.44h0l.42.17h0l.33-.29h0a.49.49,0,0,1,.63,0h0l.66.66h0a.47.47,0,0,1,.11.31.46.46,0,0,1-.12.32h0l-.29.33h0v0h0l.17.42h0l.44,0h0a.51.51,0,0,1,.46.43h0a4.5,4.5,0,0,1,0,.49c0,.24,0,.48,0,.49Zm-6.13,1.25Zm2.32-2.39a.65.65,0,1,0,.64.65A.65.65,0,0,0,16.87,16.16Z"/></svg>