<svg id="Layer_1" data-name="Layer 1" xmlns="http://www.w3.org/2000/svg" viewBox="0 0 24 24"><path d="M9.2384,11.4017a2.64777,2.64777,0,1,0,2.64783-2.64776A2.6471,2.6471,0,0,0,9.2384,11.4017Zm7.94324,6.61945c0-1.7608-3.52808-2.64777-5.29541-2.64777-1.76746,0-5.29565.887-5.29565,2.64777V19.345H17.18164Z"/><path d="M7.101,6.53555V5.6821A1.02723,1.02723,0,0,0,6.07361,4.655H3.02686A1.02642,1.02642,0,0,0,2,5.6821V8.72916a1.02735,1.02735,0,0,0,1.02747,1.0274H6.07386A1.02715,1.02715,0,0,0,7.1012,8.72916V7.94278ZM3.1836,5.83884H5.91712V8.57211H3.1836Z"/><path d="M19.5,5.655a1.5,1.5,0,1,1-1.5,1.5,1.50164,1.50164,0,0,1,1.5-1.5m0-1a2.5,2.5,0,1,0,2.5,2.5A2.49981,2.49981,0,0,0,19.5,4.655Z"/><path d="M19.9187,11.13132a.39239.39239,0,0,0-.55469,0l.00025.00018-1.56909,1.569.55493.55457.89917-.8993v.22986a5.03268,5.03268,0,0,1-1.74781,3.80054,2.72812,2.72812,0,0,1,.43555.65375,5.807,5.807,0,0,0,2.09668-4.45441v-.2298l.89942.89929.55468-.55462ZM5.07593,12.35574l.89941.8993.55493-.55457-1.56909-1.569.00025-.00018a.39239.39239,0,0,0-.55469,0l-1.56909,1.569.55468.55462.89917-.89929v.2298A5.7954,5.7954,0,0,0,6.011,16.69138a3.23131,3.23131,0,0,1,.52026-.58063A5.02552,5.02552,0,0,1,5.07593,12.5856Z"/></svg>