<svg id="Layer_1" data-name="Layer 1" xmlns="http://www.w3.org/2000/svg" width="24" height="24" viewBox="0 0 24 24"><path d="M5.04346,9.9129A.5842.5842,0,0,1,5.688,9.29834c.46667,0,.78937.30731,1.12671,1.02533L8.748,9.04962A3.1247,3.1247,0,0,0,5.6,7.133,2.8233,2.8233,0,0,0,2.59119,9.75775q-.00678.0998-.00653.19989c0,3.26666,4.054,2.91266,4.054,4.62537,0,.586-.37933.804-.87732.804-.952,0-1.478-.892-1.74133-1.91729L2,14.74365a3.60927,3.60927,0,0,0,3.71735,2.86664c2.1513,0,3.48266-1.22864,3.48266-3.29266C9.2,11.21606,5.04468,11.37573,5.04346,9.9129ZM16.93335,7.255h-2.414a3.01668,3.01668,0,0,1,.05462.57129,2.8166,2.8166,0,0,1-.52728,1.65339h2.56665a2.55845,2.55845,0,0,1,2.78,2.89794,2.55848,2.55848,0,0,1-2.78,2.898h-3.64V10.36029a2.86666,2.86666,0,0,1-2.4,0v7.13336h6.36005a4.765,4.765,0,0,0,5.06329-5.122A4.75936,4.75936,0,0,0,16.93335,7.255ZM11.72559,9.25494c.01568.00025.03137.00031.04705.00006A1.41009,1.41009,0,0,0,13.208,7.87073c.00024-.01654.0003-.03314,0-.04975a1.43468,1.43468,0,0,0-2.8667-.12365q-.00266.0618,0,.12365A1.40939,1.40939,0,0,0,11.72559,9.25494Z"/></svg>