<svg id="Layer_1" data-name="Layer 1" xmlns="http://www.w3.org/2000/svg" viewBox="0 0 24 24"><title>E1X_ico_font</title><path d="M5.7,8.86a2.56,2.56,0,0,0,0-5.11,2.56,2.56,0,0,0,0,5.11ZM7,14.59a5.41,5.41,0,0,0,3-2,5.09,5.09,0,0,0,2.32.56,5.25,5.25,0,0,0,1.92-.37h0a5.21,5.21,0,0,0,1.65,1.33,2.36,2.36,0,0,0,.28.12,4.9,4.9,0,0,1,2.41-.65,4.82,4.82,0,0,1,2.17.52A5.17,5.17,0,0,0,23,11.9c-.77-1.18-3.36-1.77-4.71-1.77a8.43,8.43,0,0,0-1.32.13c-.81-1.13-3.34-1.7-4.66-1.7s-3.95.59-4.72,1.77l0,.06a8.87,8.87,0,0,0-1.91-.26c-1.35,0-3.95.59-4.72,1.77A5.49,5.49,0,0,0,4.4,14.56a5.59,5.59,0,0,0,1.3.19A5.39,5.39,0,0,0,7,14.59Zm8.73-.06-.35-.33-2.08,2.21-.55-.07V13.67H11.8v2.68a4.87,4.87,0,0,0-.55.06L8.9,14.18l-.63.66,2,1.87-.24.12c-.52.28-.85.65-.85,1.06,0,.87,1.41,1.57,3.14,1.57a6,6,0,0,0,1.39-.16,6.17,6.17,0,0,1-.07-.74A4.91,4.91,0,0,1,15.7,14.53ZM12.28,7.29a2.58,2.58,0,0,0,2.51-2.56,2.58,2.58,0,0,0-2.51-2.55,2.56,2.56,0,0,0,0,5.11Zm6,1.57a2.51,2.51,0,1,0-2.5-2.56A2.57,2.57,0,0,0,18.27,8.86Zm2.19,7.21a.67.67,0,0,0-.48.2l-.19.18.95.95.19-.18a.67.67,0,0,0,.2-.48.66.66,0,0,0-.2-.48A.72.72,0,0,0,20.46,16.07ZM12.28,20.9a12.1,12.1,0,0,1-5-1,4.52,4.52,0,0,1-1.44-1,1.4,1.4,0,0,1,0-2.09,5.51,5.51,0,0,1,2.38-1.36l-.87-.64L6.86,15a5.45,5.45,0,0,0-1.73,1.22,2.31,2.31,0,0,0,0,3.31A6.6,6.6,0,0,0,8,21.21a14.33,14.33,0,0,0,4.27.61,15.59,15.59,0,0,0,2.42-.2,5.28,5.28,0,0,1-.55-.84A12.51,12.51,0,0,1,12.28,20.9Zm4.66-1.6.95.95,2.49-2.49-.95-1Zm1.62-4.93a4.19,4.19,0,1,0,4.19,4.19A4.18,4.18,0,0,0,18.56,14.37Zm2.72,3.2-3.21,3.2a.44.44,0,0,1-.25.15l-1.75.51H16a.23.23,0,0,1-.17-.07.27.27,0,0,1-.07-.25l.51-1.76a1,1,0,0,1,.15-.25l3.2-3.2a1.17,1.17,0,0,1,1.66,1.66Zm-4.91,3.24,1.07-.31-.76-.75Z"/></svg>