<?xml version="1.0" encoding="UTF-8"?><svg id="Layer_1" xmlns="http://www.w3.org/2000/svg" width="24" height="24" viewBox="0 0 24 24"><path d="M4.5,9.5h5V4.5H4.5v5Zm-2,12H11.5V12.5H2.5v9Zm1-8h7v7H3.5v-7Zm-1-2H11.5V2.5H2.5V11.5ZM3.5,3.5h7v7H3.5V3.5Zm1,16h5v-5H4.5v5Zm9,1h2.333313v-2.333374h-2.333313v2.333374ZM12.5,2.5V11.5h9V2.5H12.5Zm8,8h-7V3.5h7v7Zm-1-6h-5v5h5V4.5Zm-1.333313,11.333313h2.333313v-2.333313h-2.333313v2.333313Zm-4.666687-2.333313v2.333313h2.333313v-2.333313h-2.333313Zm2.333313,4.666626h2.333374v-2.333313h-2.333374v2.333313Z"/></svg>