<svg id="Layer_1" data-name="Layer 1" xmlns="http://www.w3.org/2000/svg" width="24" height="24" viewBox="0 0 24 24"><path d="M12.79041,10.978l-1.20116,1.30668-.46361-.50584a.492.492,0,1,0-.71653.67446l.82188.88517a.46249.46249,0,0,0,.35826.14758.55011.55011,0,0,0,.35827-.14758l1.55962-1.686a.49673.49673,0,0,0-.021-.6955.47851.47851,0,0,0-.69568.021Z"/><path d="M20.04,10.02967a1.96639,1.96639,0,0,0-1.89666,1.47528H15.65652A3.4348,3.4348,0,0,0,14.919,9.75568L16.66824,8.0064a1.90311,1.90311,0,0,0,.99049.274,1.96187,1.96187,0,0,0,1.391-.56894,1.92634,1.92634,0,0,0,.56894-1.391,2.01609,2.01609,0,0,0-.56894-1.391,1.92638,1.92638,0,0,0-1.391-.56894,2.01609,2.01609,0,0,0-1.391.56894,1.92637,1.92637,0,0,0-.56894,1.391,1.99591,1.99591,0,0,0,.274.9905L14.24452,9.03914a3.93537,3.93537,0,0,0-1.74927-.73756V5.8568a1.95994,1.95994,0,1,0-.96932,0V8.32258a3.4348,3.4348,0,0,0-1.74927.73756L7.98515,7.29a1.99585,1.99585,0,0,0,.274-.9905,2.016,2.016,0,0,0-.569-1.391,1.9263,1.9263,0,0,0-1.391-.56894,2.016,2.016,0,0,0-1.391.56894,1.92635,1.92635,0,0,0-.56894,1.391,2.01608,2.01608,0,0,0,.56894,1.391,1.96151,1.96151,0,0,0,1.391.56894,2.05854,2.05854,0,0,0,.9905-.274L9.03893,9.7348a3.93546,3.93546,0,0,0-.73755,1.74928L5.8566,11.48391a1.95994,1.95994,0,1,0,0,.96931H8.32238a3.4348,3.4348,0,0,0,.73756,1.74927l-1.7701,1.79133a1.947,1.947,0,0,0-2.3815.295,1.98433,1.98433,0,0,0,0,2.78183,1.96034,1.96034,0,0,0,3.077-2.3815l1.74928-1.74928a3.93537,3.93537,0,0,0,1.74927.73756V18.1432a1.95995,1.95995,0,1,0,.96931,0V15.65672a3.43482,3.43482,0,0,0,1.74928-.73755l1.74928,1.74928a1.96225,1.96225,0,0,0,3.077,2.38149,1.98432,1.98432,0,0,0,0-2.78182,1.95045,1.95045,0,0,0-2.3815-.295l-1.70718-1.72841a3.93549,3.93549,0,0,0,.73756-1.74927H18.1434a1.96135,1.96135,0,1,0,1.89666-2.46583ZM3.93879,12.9801a.9905.9905,0,1,1,.99049-.99049A.98938.98938,0,0,1,3.93879,12.9801Zm13.04491-7.376a.96739.96739,0,1,1-.295.6955A.99173.99173,0,0,1,16.9837,5.60412ZM10.99837,3.93917a.9905.9905,0,1,1,.99049.9905A.98938.98938,0,0,1,10.99837,3.93917ZM5.60355,6.99494a.99054.99054,0,1,1,1.391,0A.99173.99173,0,0,1,5.60355,6.99494ZM6.99438,18.37509a.98359.98359,0,1,1,0-1.391A.99244.99244,0,0,1,6.99438,18.37509Zm5.98533,1.665a.9905.9905,0,1,1-.99049-.99049A.98938.98938,0,0,1,12.97971,20.04ZM11.98922,14.708a2.71872,2.71872,0,1,1,2.71872-2.71872A2.72536,2.72536,0,0,1,11.98922,14.708Zm6.38584,2.276a.98359.98359,0,1,1-1.391,0,.99244.99244,0,0,1,1.391,0ZM20.04,12.97979a.9905.9905,0,1,1,.99049-.9905A1.003,1.003,0,0,1,20.04,12.97979Z"/></svg>