<svg id="Layer_1" data-name="Layer 1" xmlns="http://www.w3.org/2000/svg" viewBox="0 0 24 24"><title>E1X_ico_font</title><path d="M12,2A10,10,0,1,0,22,12,10,10,0,0,0,12,2Zm3.85,11.09a9.93,9.93,0,0,0,.47,1.16,1.49,1.49,0,0,0,.33.49h0l.15-.07a.85.85,0,0,0,.18-.33l.11-.3.27.18a.48.48,0,0,1,.25.39,1.16,1.16,0,0,1-.47.79,1.31,1.31,0,0,1-.83.42,1,1,0,0,1-.77-.52A5.41,5.41,0,0,1,15,14.14a5.44,5.44,0,0,1-.88,1.18,1.62,1.62,0,0,1-1.09.51,1.19,1.19,0,0,1-.72-.23l-.23-.17.94-1,.18.19.16.07a.65.65,0,0,0,.41-.22,3.71,3.71,0,0,0,.6-.8l.25-.42,0-.06-.11-.3-.18-.46-.23-.54a1.08,1.08,0,0,0-.25-.42l-.1.07a1.25,1.25,0,0,0-.19.41l-.08.26-.25-.1-.2-.13a.39.39,0,0,1-.1-.26,1.4,1.4,0,0,1,.41-.88,1.15,1.15,0,0,1,.81-.49,1,1,0,0,1,.76.51A5.28,5.28,0,0,1,15.44,12a6.38,6.38,0,0,1,.83-1.08,1.44,1.44,0,0,1,1-.5,1.31,1.31,0,0,1,.53.13l.31.14-.91,1-.14,0-.12,0a.66.66,0,0,0-.39.24,4.51,4.51,0,0,0-.64.9l-.08.14ZM12.18,8.41,9.15,17,6.49,11.41H4.75V10H7.22l1.86,3.88L11.41,7h7.84V8.41Z"/></svg>