<svg id="Layer_1" data-name="Layer 1" xmlns="http://www.w3.org/2000/svg" xmlns:xlink="http://www.w3.org/1999/xlink" viewBox="0 0 24 24"><defs><style>.cls-1{fill:none;}.cls-2{clip-path:url(#clip-path);}</style><clipPath id="clip-path"><rect class="cls-1" width="24" height="24"/></clipPath></defs><title>E1X_ico_font</title><g id="ico_group_items_0"><g class="cls-2"><g class="cls-2"><path d="M4.91,2.06A2.91,2.91,0,1,0,7.82,5,2.91,2.91,0,0,0,4.91,2.06m0,14.06A2.91,2.91,0,1,0,7.82,19a2.91,2.91,0,0,0-2.91-2.91m0-7A2.91,2.91,0,1,0,7.82,12,2.91,2.91,0,0,0,4.91,9.09m14.18,0A2.91,2.91,0,1,0,22,12a2.91,2.91,0,0,0-2.91-2.91m0-1.21A2.91,2.91,0,1,0,16.18,5a2.91,2.91,0,0,0,2.91,2.91m-7-5.82A2.91,2.91,0,1,0,15,5a2.91,2.91,0,0,0-2.91-2.91m0,14.06A2.91,2.91,0,1,0,15,19a2.91,2.91,0,0,0-2.91-2.91m7,0A2.91,2.91,0,1,0,22,19a2.91,2.91,0,0,0-2.91-2.91m-7-7A2.91,2.91,0,1,0,15,12a2.91,2.91,0,0,0-2.91-2.91"/></g></g></g></svg>