<?xml version="1.0" encoding="UTF-8"?><svg id="Layer_1" xmlns="http://www.w3.org/2000/svg" width="24" height="24" viewBox="0 0 24 24"><path d="M20.8334163,19.161839c-.3214579-.35513-.7778901-.5579848-1.2569135-.5586282h-.0468264l-.2049995-.4861009h1.9268169v-.9663038H7.1314047v-.9663396l1.9502301-1.4992669h12.1698591v-5.8565168L7.6175056,5.9648376l-.4861009-2.0146432-1.9677811-.655927v-.0761376c0-.6727631-.5453667-1.2181298-1.2181655-1.2181298-.6727631,0-1.2181298,.5453667-1.2181298,1.2181298s.5453667,1.2181655,1.2181298,1.2181655c.2706995,.0135475,.5376814-.0671655,.7555135-.2284127l1.4641292,.7320646,1.9326434,9.224014-1.9502301,1.4699914v2.453882l.890202,1.1068903c-.2557937,.3070167-.3929485,.6956044-.3865501,1.0951658,.0032528,.9379935,.7662729,1.695759,1.7042664,1.6925062,.9379935-.0032171,1.695759-.7662371,1.6925062-1.7042307-.0032171-.9357058-.7626626-1.6925062-1.6983684-1.6925419-.1360468-.0000715-.2716646,.0156565-.4041011,.0468621l-.3279635-.5270651h10.2313534l.5856517,.9370284c-.6954256,.6294755-.7488649,1.7035158-.1193894,2.3989056,.6294755,.6954256,1.7035158,.7488649,2.3989056,.1193894,.6954256-.6294755,.7488649-1.7035158,.1193894-2.3989056Zm-11.7517815-5.4429789v-.0116887l-.614248-2.8750336,2.8748549,.2337388,.5856517,2.6529835h-2.8462586Zm3.4026348-.0116887l-.5856517-2.6061571,2.8228454,.2166883,.2225505,2.3894689h-2.4597442Zm5.3587272,0h-2.4304688l-.2225505-2.3426067,2.6530193,.2049638v2.1376429Zm.4919274-4.761351l1.9502301,.3748257-.0058622,1.9497297-1.9443679-.157637v-2.1669184Zm0,2.6705702l1.9443679,.1518105v1.9389703h-1.9443679v-2.0907808ZM7.6175056,6.884315l10.2313534,1.9677811v2.2137805l-2.6998814-.2166883-.2342392-2.541744-.4802387-.0936885,.2459637,2.6237081-2.8813963-.2342392-.6735137-3.0102582-.5856517-.1112752,.6852382,3.0746713-2.8872942-.234275-.7203401-3.4377725Zm.7203044,12.6735109h.0117602c.4043156,0,.7320646,.327749,.7320646,.7320646s-.327749,.7320646-.7320646,.7320646-.7320646-.327749-.7320646-.7320646c-.0032528-.4010627,.3192416-.7288118,.7203044-.7320646Zm11.2035552,1.4640935c-.4019921-.0032171-.7261666-.3300367-.7262024-.7320289-.0032886-.4010627,.3191702-.7288475,.7202329-.7321361l.0176939,.0000715c.4042798,.0032171,.7294194,.3336113,.7262024,.7378911-.0032528,.4042798-.3336113,.7294194-.7379268,.7262024Z"/></svg>