<?xml version="1.0" encoding="UTF-8"?><svg id="Layer_1" xmlns="http://www.w3.org/2000/svg" width="24" height="24" viewBox="0 0 24 24"><path d="M8.3827515,7.6633301c.0001221,0,.0002441,.000061,.0003662,.000061l.0009766,.000061-.0013428-.0001221Zm-4.3689575,1.524231l-.071228,.0042114c-.3100586,.036438-.538269,.2988281-.5383301,.6043701l.0028076,.0474243v1.4174805h-.8568115l-.0117188,.0013428c-.3103027,.036499-.5384521,.2988281-.5385132,.6043701l.0041504,.0712891c.0366211,.3099976,.2987671,.538208,.6043701,.538269l.0476074-.0026855h.7509155v1.6359863c.0001221,.3364258,.272583,.6088867,.6090088,.6090088h.0029297c.3330078-.0048828,.6005249-.2758179,.600647-.6090088v-4.3718262l-.0014038-.0118408c-.0366211-.3101196-.2988281-.5383911-.6044312-.5383911Zm2.1489258-.7340698c-.3364258,.000061-.6089478,.272583-.6090698,.6090088v5.8336182c.0001221,.3364258,.272583,.6088867,.6090698,.6090088,.3364868-.0001221,.6088867-.272583,.6090088-.6090088v-5.8336182c-.0001221-.3364258-.272583-.6089478-.6090088-.6090088Zm9.6322021-.7901611c.0001831,0,.0002441,.000061,.0003662,.000061l.0009766,.000061-.0013428-.0001221Zm5.5964966,3.8162231h-.762085v-1.6365967c-.0004272-.3365479-.2730103-.6087036-.609375-.6087036-.3364868,.0002441-.6086426,.2729492-.6086426,.609314v4.2660522c.000061,.3364258,.272522,.6088867,.6090088,.6090088,.3364258-.0001831,.6088867-.272644,.6090088-.6090088v-1.4120483h.7620239v-.2047729l.0001221,.2047729c.3360596-.0003662,.6080933-.2724609,.6085205-.6084595-.000061-.3366089-.2722168-.609314-.6085815-.6095581Zm-5.060791-3.2702637l-.0014038-.0117798c-.0328369-.2802124-.2537231-.5010986-.5339355-.5341187l-.0715332-.0042725c-.305542,0-.567749,.2282715-.6043701,.5384521l-.0014038,.0117798v2.986145h-6.199585v-2.986145l-.0014038-.0118408c-.0327759-.2802124-.2536621-.5010986-.5338745-.5341187l-.0715332-.0042725c-.305603,0-.5678101,.2282715-.6044312,.5384521l-.0014038,.0117798v7.522522c.0001831,.3331909,.2675781,.6043701,.6008301,.6090088h.0028076c.3364258-.0001221,.6088867-.272583,.6090088-.6090088v-3.3183594h6.199585v3.3183594c.0001221,.3331909,.2675781,.6043701,.6008301,.6090088h.0027466c.3364258-.0001221,.6088867-.272583,.6090698-.6090088v-3.9261475c0-.0005493,.0003052-.0009766,.0003052-.0015259s-.0003052-.0009155-.0003052-.0014648v-3.5934448Zm1.5407715,.1972046l-.071228,.0041504c-.3100586,.036438-.538269,.2988281-.5383301,.6043701l.0028076,.0479126v5.833252c.0001221,.3364258,.272583,.6088867,.6090088,.6089478h.0029297c.3330078-.0048218,.6004639-.2757568,.600647-.6090088v-5.9394531l-.0014038-.0118408c-.0366821-.3100586-.2988892-.5383301-.6044312-.5383301Z"/></svg>