<svg id="Layer_1" data-name="Layer 1" xmlns="http://www.w3.org/2000/svg" viewBox="0 0 24 24"><title>E1X_ico_font</title><path d="M19.22,4.78H17.48L15.7,3.24a.59.59,0,0,0-.37-.13h-.46a1.92,1.92,0,0,0-3.52,0h-.46a.64.64,0,0,0-.37.13L8.74,4.78H7a.55.55,0,0,0-.51.55V19.22a.56.56,0,0,0,.56.56H19.22a.56.56,0,0,0,.56-.56V5.33A.56.56,0,0,0,19.22,4.78Zm-8.13-.56h.63a.56.56,0,0,0,.54-.41,1.11,1.11,0,0,1,.27-.49.71.71,0,0,1,.58-.21.71.71,0,0,1,.58.21,1,1,0,0,1,.27.49.56.56,0,0,0,.54.41h.63l.65.56H10.45Zm7.58,14.45H7.56V5.89H18.67Zm-.54,2.22H5.33V7a.55.55,0,0,0-.54-.57H4.72a.56.56,0,0,0-.5.56V21.45a.56.56,0,0,0,.56.55H18.11a.55.55,0,0,0,.56-.55A.54.54,0,0,0,18.13,20.89ZM12,16.25c.21-.3-1.34-1.33-.48-2.23a7.68,7.68,0,0,1,2.32-1.29c.31.75.54,1.4.74,1.88s.3.38.44.05l1.74-4.24c.12-.31,0-.48-.31-.63L12.24,8.08c-.27-.11-.43,0-.31.3s.36.87.7,1.53c0,0-2.43.72-3,2.66C9.11,15.11,11.77,16.54,12,16.25Z"/></svg>