<svg id="Layer_1" data-name="Layer 1" xmlns="http://www.w3.org/2000/svg" width="24" height="24" viewBox="0 0 24 24"><path d="M2.84021,11.86536A7.32951,7.32951,0,0,1,5.011,12.5377a.37224.37224,0,0,0,.1042.03721,1.9862,1.9862,0,0,1,.65.36966c-.01984.05459-.03721.10669-.05706.1563h0a1.02037,1.02037,0,0,0,.24314,1.06185l.00992.00992c-.91051.52844-2.59755,1.9798-2.84316,5.56476a.95639.95639,0,0,0,.258.71947,1.07016,1.07016,0,0,0,.76661.34237h.05954a7.169,7.169,0,0,0,5.50521-2.88037l.19848.19847a1.02981,1.02981,0,0,0,.72692.30268,1.052,1.052,0,0,0,.37958-.072c.11412-.04466.22329-.09179.33245-.13645.14141.46641.2084.80134.2084.8063l.00744.03474a18.97239,18.97239,0,0,1,.44657,2.06911,1.027,1.027,0,0,0,.717.83111A1.003,1.003,0,0,0,13.02945,22a1.01913,1.01913,0,0,0,.74428-.325,11.4435,11.4435,0,0,0,2.87293-6.63653,15.38839,15.38839,0,0,0,4.106-5.31666,12.16378,12.16378,0,0,0,1.18093-6.75065,1.02215,1.02215,0,0,0-.82368-.7939c-5.36628-.9378-9.4251,1.99716-12.06483,5.21246a11.29939,11.29939,0,0,0-6.72832,2.69431,1.02352,1.02352,0,0,0,.52348,1.78131Zm1.35708,7.94151H4.15511c-.02729,0-.04714-.01489-.04962-.00249.23321-3.36912,1.83094-4.51779,2.50824-4.8552a.46944.46944,0,0,0,.07442-.04714l2.29736,2.29735A6.09492,6.09492,0,0,1,4.19729,19.80687Zm8.84952,1.18589a.02452.02452,0,0,1-.02977.00992.03363.03363,0,0,1-.02729-.03473,19.961,19.961,0,0,0-.46393-2.16339c-.01737-.09179-.1042-.48626-.26546-.99982a20.3389,20.3389,0,0,0,3.255-1.89048A10.20426,10.20426,0,0,1,13.04681,20.99276ZM20.93622,3.15229a.04077.04077,0,0,1,.02481.02481,9.59383,9.59383,0,0,1-.38455,4.15062L16.43826,3.34084A10.12751,10.12751,0,0,1,20.93622,3.15229Zm-5.5598.54581L20.182,8.33c.01488.01488.03225.02481.04714.03721-1.166,3.08878-3.8405,6.76306-9.58637,9.05793a.03449.03449,0,0,1-.03721-.00993L6.65342,13.46309a.03073.03073,0,0,1-.00744-.03473C6.67823,13.33408,9.50155,6.03515,15.37642,3.6981ZM2.96922,10.82585A10.2002,10.2002,0,0,1,8.21145,8.46647a21.30217,21.30217,0,0,0-2.05918,3.53286,2.8908,2.8908,0,0,0-.7418-.37214,8.333,8.333,0,0,0-2.4214-.74428.03281.03281,0,0,1-.02977-.02729A.02451.02451,0,0,1,2.96922,10.82585Z"/></svg>