<svg id="Layer_1" data-name="Layer 1" xmlns="http://www.w3.org/2000/svg" viewBox="0 0 24 24"><defs><style>.cls-1{fill:none;}</style></defs><title>E1X_ico_font</title><rect class="cls-1" width="24" height="24"/><path d="M13.66,8.36V3.56a.13.13,0,0,0-.13-.13h-3l-.4-.81A.12.12,0,0,0,10,2.55H7a.12.12,0,0,0-.11.07l-.44.88s0,0,0,0,0,0,0,0v4.8a.13.13,0,0,0,.13.13h7A.13.13,0,0,0,13.66,8.36ZM13,7.79H7.11V4.13H13ZM10.42,15l.05,0h7a.13.13,0,0,0,.13-.13V10a.18.18,0,0,0,0-.1l-.09,0h-3l-.2-.4-.2-.41h0A.14.14,0,0,0,14,9H10.91a.14.14,0,0,0-.12.07l-.44.88v0s0,0,0,0v2H9V8.49H8.07v11h2.27v1.82a.13.13,0,0,0,.13.13h7a.13.13,0,0,0,.13-.13V16.51a.13.13,0,0,0-.13-.13h-3l-.4-.8a.14.14,0,0,0-.12-.07H10.91a.14.14,0,0,0-.12.07l-.44.88v0s0,0,0,0v2.11H9V12.88h1.39v2C10.34,14.89,10.37,14.92,10.42,15ZM11,10.61h5.84v.91h0v2.75H11Zm0,6.47h5.84v2.15h0v1.52H11Z"/></svg>