<svg id="Layer_1" data-name="Layer 1" xmlns="http://www.w3.org/2000/svg" viewBox="0 0 24 24"><title>E1X_ico_font</title><path d="M15.55,22a.54.54,0,0,1-.43-.22L11.68,17,8.58,21.6a.52.52,0,0,1-.53.23.55.55,0,0,1-.43-.4L3.29,2.65a.53.53,0,0,1,.8-.57L20.47,12.22a.54.54,0,0,1,.25.53.55.55,0,0,1-.39.44L15,14.63l3.44,4.8a.53.53,0,0,1-.12.74L15.86,21.9A.5.5,0,0,1,15.55,22Zm-3.88-6.48a.53.53,0,0,1,.43.22l3.57,5,1.55-1.11-3.57-5a.53.53,0,0,1-.07-.49.52.52,0,0,1,.36-.33l4.93-1.33L4.61,3.65,8.38,20l2.85-4.25a.51.51,0,0,1,.43-.23Z"/></svg>