<?xml version="1.0" encoding="UTF-8"?><svg id="Layer_1" xmlns="http://www.w3.org/2000/svg" width="24" height="24" viewBox="0 0 24 24"><path d="M5.8397217,13.0458984L3.3383789,7.7713623c2.8190918-.0084839,5.545166-1.0095825,7.699707-2.8275757l.4567871,1.8052979,1.0114136-.2664185-.6743164-2.5883789c-.0919189-.2858887-.3981934-.4430542-.684082-.3511353-.0614624,.0197144-.1188354,.050293-.1696167,.0901489-2.2872925,2.1260986-5.3365479,3.2379761-8.4555664,3.0831909-.3001099,.0115967-.5339355,.2642822-.5222778,.5643921,.0023804,.0618896,.0153809,.1229858,.0383301,.180542l2.8547363,6.0303955c.7667847,1.6117554,2.3912964,2.6397705,4.1762085,2.6427002h.0488892v-1.0440063c-1.3986206,.0179443-2.6795044-.7807617-3.2788696-2.0446167Zm3.8505859-1.7537842c.1636353-.0236206,.3297119-.0263062,.4940796-.0079956l.1141968-1.0386353c-1.6446533-.182373-3.1257935,1.0029297-3.3082275,2.647583-.0280762,.253479-.0237427,.5095215,.0130005,.7618408l1.0331421-.1522217c-.1537476-1.0671387,.5866699-2.0568237,1.6538086-2.2105713Zm-4.2366943-2.1124268l.1740112,1.027771c.9078979-.1721191,1.6556396-.81427,1.9630127-1.6856689l-.9896851-.3262939c-.1891479,.5025635-.6218262,.8737183-1.1473389,.9841919Zm16.4598389,1.6693726c-.1013184-.1498413-.2704468-.239502-.451355-.2392578-1.647522,.015564-3.2874146-.2247925-4.8612671-.7123413-1.5178223-.6394653-2.9281616-1.5087891-4.1815796-2.5774536-.1369019-.1155396-.3220215-.15625-.494812-.1087036-.413269,.1196289-.2392578-.1468506-2.1750488,7.242981-.5261841,2.2092285,.5366821,4.4902344,2.5667114,5.5083618,2.4160156,1.211731,5.3568115,.2354736,6.5685425-2.180542h.0217896c3.2625732-6.9003906,3.2299805-6.5904541,3.007019-6.9330444Zm-6.7046509,1.0332031l-.5437622,.9026489c-.5100708-.2706909-1.1212158-.2706909-1.6312866,0l-.5437622-.8863525c.8382568-.4907227,1.8746948-.4969482,2.718811-.0162964Zm2.0992432,4.3023682c-.5859375,1.4281006-2.2186279,2.1107788-3.6467285,1.5248413-1.4280396-.5859375-2.1107178-2.2186279-1.5248413-3.6467285,.8156738,1.4301147,3.5889282,2.4578247,5.2473755,1.9140625-.022522,.0702515-.0477905,.1395874-.0758057,.2078247Zm.1791382-1.8119507c-.2163086-.5415039-.6940918-.9351807-1.2669678-1.0440063l.1467896-1.0331421c.9591675,.1571045,1.7614746,.8143311,2.1043701,1.7236938l-.9841919,.3534546Zm-7.2212524-6.9656372c-.4667358,.2417603-1.0213623,.2437744-1.4899292,.0054321l-.5437622,.9026489c.8025513,.4492798,1.7827148,.440979,2.5774536-.0217285l-.5437622-.8863525Z"/></svg>