<svg id="Layer_1" data-name="Layer 1" xmlns="http://www.w3.org/2000/svg" xmlns:xlink="http://www.w3.org/1999/xlink" viewBox="0 0 24 24"><defs><style>.cls-1{fill:none;}.cls-2{clip-path:url(#clip-path);}</style><clipPath id="clip-path"><rect class="cls-1" width="24" height="24"/></clipPath></defs><title>E1X_ico_font</title><g id="ico_test_0"><g class="cls-2"><g class="cls-2"><path d="M19.5,9.5A2.5,2.5,0,1,0,22,12a2.5,2.5,0,0,0-2.5-2.5m0,4A1.5,1.5,0,1,1,21,12a1.5,1.5,0,0,1-1.5,1.5M8.82,10.75H6.67A2.5,2.5,0,1,0,4.5,14.5a2.53,2.53,0,0,0,2.17-1.25H8.82L10.06,12ZM4.52,13.5A1.5,1.5,0,1,1,6,12a1.5,1.5,0,0,1-1.5,1.5m9.36-4.62L12,10.78,10.14,8.9,8.89,10.15,10.76,12,8.89,13.9l1.25,1.22L12,13.25l1.87,1.87,1.22-1.22L13.24,12l1.87-1.87Z"/></g></g></g></svg>