<svg id="Layer_1" data-name="Layer 1" xmlns="http://www.w3.org/2000/svg" viewBox="0 0 24 24"><g id="SVG-ICON-bilboard"><g id="SVG-ICON-bilboard-2"><g id="Group_4100" data-name="Group 4100"><g id="SVG-ICON-bilboard-3"><path id="billboard" d="M7.61,6.59a1.82,1.82,0,1,0-1.82,1.8h0A1.79,1.79,0,0,0,7.61,6.63S7.62,6.6,7.61,6.59ZM5.8,7.68A1.1,1.1,0,1,1,6.89,6.59h0a1.05,1.05,0,0,1-1,1.09h0Zm17,6.53V1.88H1.09V14.2H3.26V20a3.43,3.43,0,0,0-2.17,1.2v1a3.75,3.75,0,0,1,2.54-1.45,3.26,3.26,0,0,1,1,.18l.53.23-.06-.58v-.18a1.8,1.8,0,0,1,3.43-.76l.18.4.37-.26a2.61,2.61,0,0,1,1.45-.47,2.47,2.47,0,0,1,2,1l.37.48.26-.54a1.06,1.06,0,0,1,1.4-.51l.08,0L15,20l.18-.33a2.17,2.17,0,0,1,4.06,1.08V21.8l.65-.86A1.47,1.47,0,0,1,21,20.36a1.76,1.76,0,0,1,.4.07l.3.06.14-.3a1.1,1.1,0,0,1,1-.61v-.67a1.77,1.77,0,0,0-1.45.76,2.24,2.24,0,0,0-.73,0V14.2h2.17Zm-17.4,4a2.67,2.67,0,0,0-1.1,1.81A1.11,1.11,0,0,0,4,20V14.19H5.42v4.06Zm12.33-.35a2.32,2.32,0,0,0-.69-.07A2.85,2.85,0,0,0,14.75,19a1.81,1.81,0,0,0-1.89.52A3.25,3.25,0,0,0,9,19a2.56,2.56,0,0,0-2.1-1.12,2.52,2.52,0,0,0-.73.1V14.22H17.76v3.69h0ZM19.93,20s0,0-.07,0a3,3,0,0,0-1.37-1.81v-4h1.44V20ZM1.81,13.48V2.6H22.12V13.48Zm.72-.73H21.39V3.32H2.53ZM7.28,12l3.59-4.5L14.13,12ZM15,12l-1.11-1.55,2.75-4.28L20,12Zm-11.77-8H20.65v7.6l-4-6.85-3.22,5L10.88,6.36,6.35,12H3.26Z"/></g></g></g></g></svg>