<svg id="Layer_1" data-name="Layer 1" xmlns="http://www.w3.org/2000/svg" viewBox="0 0 24 24"><defs><style>.cls-1{fill:none;}</style></defs><path class="cls-1" d="M21.3,15.91a1.17,1.17,0,0,0-1.66,0l-3.19,3.2a.64.64,0,0,0-.15.25l-.51,1.76a.26.26,0,0,0,.06.25.26.26,0,0,0,.18.07h.07l1.75-.51a.47.47,0,0,0,.25-.15l3.2-3.2A1.15,1.15,0,0,0,21.3,15.91Zm-4.9,4.9.31-1.06.75.75Zm1.52-.56-1-.95,2.49-2.49.95,1Zm3-3-.19.18-.95-.95.18-.18a.71.71,0,0,1,.48-.2.73.73,0,0,1,.48.19.65.65,0,0,1,.19.48A.66.66,0,0,1,21,17.22Z"/><path d="M21.3,15.91a1.17,1.17,0,0,0-1.66,0l-3.19,3.2a.64.64,0,0,0-.15.25l-.51,1.76a.26.26,0,0,0,.06.25.26.26,0,0,0,.18.07h.07l1.75-.51a.47.47,0,0,0,.25-.15l3.2-3.2A1.15,1.15,0,0,0,21.3,15.91Zm-4.9,4.9.31-1.06.75.75Zm1.52-.56-1-.95,2.49-2.49.95,1Zm3-3-.19.18-.95-.95.18-.18a.71.71,0,0,1,.48-.2.73.73,0,0,1,.48.19.65.65,0,0,1,.19.48A.66.66,0,0,1,21,17.22Z"/></svg>