<svg id="Layer_1" data-name="Layer 1" xmlns="http://www.w3.org/2000/svg" viewBox="0 0 24 24"><title>masked_icons_fonts</title><path d="M16.29,11.45a2.16,2.16,0,0,1,0,.35c-.43,0-.59-.65-.86-1.24a7,7,0,0,1-2.69,1.12l0-.2a.65.65,0,0,0-.33.69.75.75,0,0,0,.49.62,1.81,1.81,0,0,0,1,1.47v.64l-.29.07a1,1,0,0,0,1.93,0l-.29-.07v-.65a1.93,1.93,0,0,0,1-1.46.73.73,0,0,0,.5-.62.65.65,0,0,0-.39-.72m4.17-1.33c0,.11,0,.23,0,.35-.43,0-.59-.65-.85-1.24a7.21,7.21,0,0,1-2.7,1.12l0-.2a.65.65,0,0,0-.32.69.71.71,0,0,0,.48.61h0v-.28l.09.5c.09.27.25.58.53.58s.62-.29,1-.29h0c.41,0,.67.29,1,.29s.44-.31.53-.58l.09-.5v.28a.74.74,0,0,0,.49-.62.62.62,0,0,0-.38-.72M19.38,13a2.15,2.15,0,0,1-.68.18h0A2.15,2.15,0,0,1,18,13v.57l-.28.07a1,1,0,0,0,1.92,0l-.28-.07Z"/><polyline points="16.72 15.41 16.85 15.47 16.72 15.41"/><polyline points="12.51 15.34 12.63 15.28 12.51 15.34"/><polyline points="12.83 15.21 12.93 15.17 12.83 15.21"/><polyline points="12.23 15.47 12.35 15.41 12.23 15.47"/><polyline points="16.43 15.28 16.56 15.34 16.43 15.28"/><polyline points="14.1 9.68 14.3 9.63 14.1 9.68"/><polyline points="13.22 15.08 13.23 15.07 13.22 15.08"/><polyline points="16.14 15.17 16.24 15.21 16.14 15.17"/><polyline points="17.21 15.71 17.28 15.77 17.21 15.71"/><polyline points="15.84 15.07 15.86 15.08 15.84 15.07"/><polyline points="11.79 15.77 11.86 15.72 11.79 15.77"/><polyline points="11.98 15.62 12.08 15.55 11.98 15.62"/><polyline points="16.98 15.55 17.09 15.62 16.98 15.55"/><polyline points="20.3 13.84 20.41 13.88 20.3 13.84"/><polyline points="20.6 13.95 20.73 14.01 20.6 13.95"/><polyline points="20 13.74 20.02 13.75 20 13.74"/><polyline points="20.89 14.08 21.01 14.14 20.89 14.08"/><polyline points="17.39 13.74 17.39 13.74 17.39 13.74"/><polyline points="21.15 14.22 21.25 14.29 21.15 14.22"/><polyline points="17 13.88 17.1 13.84 17 13.88"/><polyline points="15.96 14.44 16.02 14.38 15.96 14.44"/><polyline points="16.39 14.14 16.51 14.08 16.39 14.14"/><polyline points="16.68 14 16.8 13.95 16.68 14"/><polyline points="16.15 14.29 16.25 14.22 16.15 14.29"/></svg>