<svg id="Layer_1" data-name="Layer 1" xmlns="http://www.w3.org/2000/svg" viewBox="0 0 24 24"><title>masked_icons_fonts</title><g id="SVG-ICON-satilite"><path id="Path_108" data-name="Path 108" d="M21.85,19.17l-5.63-5.63a.54.54,0,0,0-.73,0l-.61.61-.39-.39,2-2a1.38,1.38,0,0,0,0-1.94h0L14.2,7.49a1.36,1.36,0,0,0-1.94,0h0l-2,2-.4-.4.61-.61a.51.51,0,0,0,0-.72h0L4.82,2.15a.51.51,0,0,0-.72,0L2.15,4.09a.52.52,0,0,0,0,.73l5.63,5.63a.52.52,0,0,0,.73,0l.61-.61.39.39L8.45,11.3l-.76.75-.2.2a1.71,1.71,0,0,0-.11.14,1.37,1.37,0,0,0-.29.83h0a1.37,1.37,0,0,0,.4,1l.8.79L8,15.31a5.94,5.94,0,0,0-1.71-1,4.73,4.73,0,0,0-.67-.2,5.59,5.59,0,0,0-2-.13.52.52,0,0,0-.45.57.54.54,0,0,0,.15.3l2.58,2.58L5,18.3A.51.51,0,0,0,5.7,19l.73-.73.11-.11.63.62,1.95,2a.52.52,0,0,0,.73,0,.49.49,0,0,0,.14-.3h0c0-.23,0-.46,0-.7A6,6,0,0,0,9.75,18a5.58,5.58,0,0,0-1-1.84L8.68,16l.17-.17L9,15.71l.48.48.32.31a1.35,1.35,0,0,0,1.93,0h0l.2-.2.76-.75,1.06-1.07.4.4-.61.61a.52.52,0,0,0,0,.73h0l5.63,5.63a.51.51,0,0,0,.72,0l2-2a.51.51,0,0,0,0-.72Z"/></g></svg>