<svg id="Layer_1" data-name="Layer 1" xmlns="http://www.w3.org/2000/svg" viewBox="0 0 24 24"><title>masked_icons_fonts</title><path d="M4.6,13.54a.6.6,0,0,0,.62.62.62.62,0,0,0,.61-.62v-.95H4.6Zm6.7,0a.62.62,0,0,0,.62.62.65.65,0,0,0,.62-.62v-.95H11.3Zm-1.69,0a.58.58,0,0,0,.62.62.62.62,0,0,0,.61-.62v-.95H9.61Zm-3.29,0a.62.62,0,0,0,.62.62.64.64,0,0,0,.62-.62v-.94H6.32Zm1.69,0a.62.62,0,0,0,.62.62.62.62,0,0,0,.62-.62v-.94H8Zm10.51-1v1h0a.69.69,0,0,0,.68.69.68.68,0,0,0,.69-.69v-1Zm-6.5-7A1.85,1.85,0,1,0,13.86,7.4,1.85,1.85,0,0,0,12,5.55ZM16.7,13.6h0a.69.69,0,0,0,.68.69A.7.7,0,0,0,18,13.6v-1H16.7Zm-1.85,0a.67.67,0,0,0,.65.72.69.69,0,0,0,.68-.69v-1H14.85Z"/></svg>