<svg id="Layer_1" data-name="Layer 1" xmlns="http://www.w3.org/2000/svg" viewBox="0 0 24 24"><title>masked_icons_fonts</title><g id="SVG-ICON-satilite"><path id="Path_108" data-name="Path 108" d="M8.76,18.23a4.9,4.9,0,0,1,.21.92L7.11,17.29l-2-1.95L4.85,15l.36.06a5.46,5.46,0,0,1,.66.19,4.78,4.78,0,0,1,2.89,3Zm4.64-4.84h0l-1.27,1.26-.73.74-.38.38a.36.36,0,0,1-.49,0l-1-1-.1-.11h0L8.26,13.51l0,0,0,0a.34.34,0,0,1,0-.45l.25-.25.13-.13.74-.73L13,8.21a.36.36,0,0,1,.49,0h0l2.31,2.32a.33.33,0,0,1,0,.48h0Z"/></g></svg>