<svg id="Layer_1" data-name="Layer 1" xmlns="http://www.w3.org/2000/svg" viewBox="0 0 24 24"><title>masked_icons_fonts</title><path d="M9.25,13a2.12,2.12,0,0,0-.19-.57,2.08,2.08,0,0,0-.37-.5,2.15,2.15,0,0,0-.74-.5,2.43,2.43,0,0,0-1-.18,2.45,2.45,0,0,0-1,.18,2.06,2.06,0,0,0-.74.5,1.84,1.84,0,0,0-.37.5A2.12,2.12,0,0,0,4.7,13a4.67,4.67,0,0,0-.08.69c0,.24,0,.52,0,.82s0,.58,0,.83A4.7,4.7,0,0,0,4.7,16a2,2,0,0,0,.19.57,1.7,1.7,0,0,0,.37.5,2.2,2.2,0,0,0,.74.5,2.45,2.45,0,0,0,1,.18,2.43,2.43,0,0,0,1-.18,2.15,2.15,0,0,0,.74-.5,2.08,2.08,0,0,0,.37-.5A2,2,0,0,0,9.25,16a3.62,3.62,0,0,0,.08-.68c0-.25,0-.52,0-.83s0-.58,0-.82A3.63,3.63,0,0,0,9.25,13ZM8.07,15.25a3.11,3.11,0,0,1-.05.5,1,1,0,0,1-.09.31,1.07,1.07,0,0,1-.15.22,1.11,1.11,0,0,1-.34.25,1,1,0,0,1-.46.1,1,1,0,0,1-.47-.1,1.25,1.25,0,0,1-.34-.25A1.07,1.07,0,0,1,6,16.06a1,1,0,0,1-.09-.31,3.11,3.11,0,0,1,0-.5c0-.2,0-.45,0-.76s0-.56,0-.76a3.11,3.11,0,0,1,0-.5A1.12,1.12,0,0,1,6,12.91a1.07,1.07,0,0,1,.15-.22,1.25,1.25,0,0,1,.34-.25A1.16,1.16,0,0,1,7,12.35a1,1,0,0,1,.8.34,1.07,1.07,0,0,1,.15.22,1.12,1.12,0,0,1,.09.32,3.11,3.11,0,0,1,.05.5c0,.2,0,.46,0,.76S8.09,15.05,8.07,15.25Zm6.79-2.09a3.33,3.33,0,0,0-.12-.5,1.85,1.85,0,0,0-.23-.44,2.17,2.17,0,0,0-.81-.71,2.59,2.59,0,0,0-1.13-.22H10.26v6.4h2.31a2.59,2.59,0,0,0,1.13-.22,2.17,2.17,0,0,0,.81-.71,2,2,0,0,0,.22-.44,2.44,2.44,0,0,0,.13-.5,5.51,5.51,0,0,0,0-.61c0-.21,0-.46,0-.72s0-.51,0-.73A5.32,5.32,0,0,0,14.86,13.16Zm-1.21,2c0,.19,0,.34,0,.47a2,2,0,0,1-.08.33.72.72,0,0,1-.14.24,1.1,1.1,0,0,1-.93.4h-1V12.4h1a1.1,1.1,0,0,1,.93.4.72.72,0,0,1,.14.24,2,2,0,0,1,.08.33c0,.13,0,.28,0,.47s0,.4,0,.65S13.66,15,13.65,15.14Zm6.2-.11a1.43,1.43,0,0,0-.38-.58,1.49,1.49,0,0,0-.49-.32,3.11,3.11,0,0,0-.73-.18l-.77-.12a1.39,1.39,0,0,1-.34-.09l-.24-.15a.74.74,0,0,1-.14-.22.93.93,0,0,1,0-.24.78.78,0,0,1,.24-.57,1,1,0,0,1,.74-.24,2.72,2.72,0,0,1,.67.08,1.34,1.34,0,0,1,.64.36L19.8,12a2.44,2.44,0,0,0-.9-.58,3.68,3.68,0,0,0-1.16-.17,2.77,2.77,0,0,0-.94.15,1.79,1.79,0,0,0-.7.4,1.68,1.68,0,0,0-.44.61,1.86,1.86,0,0,0-.16.79A1.71,1.71,0,0,0,16,14.44a1.65,1.65,0,0,0,.52.33,2.59,2.59,0,0,0,.72.19l.77.12a2.55,2.55,0,0,1,.36.08,1,1,0,0,1,.21.14.69.69,0,0,1,.21.53.67.67,0,0,1-.29.59,1.48,1.48,0,0,1-.86.21,2.82,2.82,0,0,1-.83-.12,1.62,1.62,0,0,1-.71-.42l-.81.81a2.49,2.49,0,0,0,1,.66,4.34,4.34,0,0,0,1.3.19,3.5,3.5,0,0,0,.94-.13,2.46,2.46,0,0,0,.76-.38A1.75,1.75,0,0,0,20,15.8,2.35,2.35,0,0,0,19.85,15Z"/></svg>