<svg id="Layer_1" data-name="Layer 1" xmlns="http://www.w3.org/2000/svg" viewBox="0 0 24 24"><title>masked_icons_fonts</title><path d="M21,10.14a3.62,3.62,0,0,0,1-2.83.51.51,0,0,0-.33-.43.54.54,0,0,0-.57.11L19.85,8.22,18.05,8l-.23-1.83,1.23-1.23a.5.5,0,0,0,.13-.54A.52.52,0,0,0,18.71,4a3.69,3.69,0,0,0-2.83,1,3.64,3.64,0,0,0-1,3.33L13.27,10,10.2,7.1a6.18,6.18,0,0,1,2.33-1.42L14.42,5a.67.67,0,0,0,.47-.67.68.68,0,0,0-.51-.64l-2.27-.59A7,7,0,0,0,10.4,2.9a6.9,6.9,0,0,0-4.87,2L3.7,6.73A.34.34,0,0,0,3.61,7l0,.33H3.3a.32.32,0,0,0-.25.1l-.95.94a.37.37,0,0,0-.1.24.35.35,0,0,0,.1.24l3,2.94a.35.35,0,0,0,.47,0l.93-.91a.33.33,0,0,0,.1-.23v-.3l.34,0a.36.36,0,0,0,.22-.09l.91-.92h0l.11-.11,2.94,3.08-2,1.95A3.5,3.5,0,0,0,6,20.07a3.5,3.5,0,0,0,5.9-3.19L13.74,15l4.73,4.94a1.74,1.74,0,0,0,1.26.52A1.77,1.77,0,0,0,21,19.94a1.72,1.72,0,0,0,.53-1.23A1.83,1.83,0,0,0,21,17.42L16,12.68l1.62-1.6A3.63,3.63,0,0,0,21,10.14ZM5.32,11,2.81,8.55l.61-.61h.33l2.16,2.16v.34ZM6.75,9.61l-.38,0L4.24,7.5l0-.38L6,5.37a6.2,6.2,0,0,1,4.39-1.8,6.28,6.28,0,0,1,1.55.2l2.26.62-1.9.66A6.84,6.84,0,0,0,9.72,6.64l-.23.23L7.93,8.43h0Zm4.49,6.93a.36.36,0,0,0-.09.33,2.79,2.79,0,0,1-.73,2.73,2.83,2.83,0,1,1-4-4,2.79,2.79,0,0,1,2.73-.73.39.39,0,0,0,.33-.09l2.08-2.08,1.72,1.8Zm9.61,2.16a1,1,0,0,1-.33.76,1.16,1.16,0,0,1-1.58,0L8.63,8.67l1.1-1.1L13,10.74h0l7.48,7.16A1.08,1.08,0,0,1,20.85,18.7Zm-5.29-6.48-1.81-1.73,1.6-1.6a.71.71,0,0,0,.22-.69,2.87,2.87,0,0,1,.78-2.66,3,3,0,0,1,2-.85l-1.05,1a.59.59,0,0,0-.15.45l.24,2a.55.55,0,0,0,.46.5l2,.26h0a.6.6,0,0,0,.41-.16l1-1a2.9,2.9,0,0,1-3.55,2.74.73.73,0,0,0-.64.2Z"/><path d="M9.43,16.36,8.17,16a.35.35,0,0,0-.32.08L6.93,17a.36.36,0,0,0-.09.33l.34,1.26a.33.33,0,0,0,.24.23l1.25.34h.09a.33.33,0,0,0,.24-.1l.92-.92a.34.34,0,0,0,.09-.32l-.34-1.26A.33.33,0,0,0,9.43,16.36Zm-.77,2.12-.88-.23-.24-.89.65-.65.88.24.24.89Z"/></svg>