<svg id="Layer_1" data-name="Layer 1" xmlns="http://www.w3.org/2000/svg" viewBox="0 0 24 24"><title>masked_icons_fonts</title><path id="ico-variable" d="M16.51,11.84a.68.68,0,0,1,.39-.24l.12,0,.14,0,.92-1-.32-.14a1.33,1.33,0,0,0-.53-.13,1.42,1.42,0,0,0-1,.49A6.82,6.82,0,0,0,15.44,12a5.68,5.68,0,0,0-.51-1.07,1,1,0,0,0-.76-.51,1.13,1.13,0,0,0-.81.48,1.42,1.42,0,0,0-.41.88.4.4,0,0,0,.1.26l.2.14.26.09.07-.26a1.21,1.21,0,0,1,.19-.41l.1-.07a1,1,0,0,1,.26.42l.23.54s.07.17.17.46l.11.3,0,.06-.25.42a3.82,3.82,0,0,1-.61.81.71.71,0,0,1-.41.22l-.15-.08L13,14.47l-.94,1,.23.17a1.18,1.18,0,0,0,.72.22,1.64,1.64,0,0,0,1.09-.5A5.4,5.4,0,0,0,15,14.14a6.13,6.13,0,0,0,.56,1.17,1,1,0,0,0,.77.51,1.29,1.29,0,0,0,.84-.41,1.18,1.18,0,0,0,.46-.79.48.48,0,0,0-.24-.4l-.27-.17-.11.3a.75.75,0,0,1-.18.33l-.15.06h0a1.23,1.23,0,0,1-.33-.48,9.85,9.85,0,0,1-.48-1.16l-.07-.2.08-.14A4.41,4.41,0,0,1,16.51,11.84Z"/></svg>