<svg id="Layer_1" data-name="Layer 1" xmlns="http://www.w3.org/2000/svg" viewBox="0 0 24 24"><title>masked_icons_fonts</title><path d="M4.3,9.73,7.37,5.4h9.34L20,9.82a1,1,0,0,1-.36.65,1.06,1.06,0,0,1-.74.27,1,1,0,0,1-.77-.33,1.16,1.16,0,0,1-.32-.8.49.49,0,0,0-.17-.38.55.55,0,0,0-.42-.17.52.52,0,0,0-.38.17.56.56,0,0,0-.17.37v.17a1.08,1.08,0,0,1-.31.8,1.09,1.09,0,0,1-.82.34,1,1,0,0,1-.78-.34,1.12,1.12,0,0,1-.31-.8V9.6a.56.56,0,0,0-.17-.38.6.6,0,0,0-.38-.17.59.59,0,0,0-.42.17.52.52,0,0,0-.17.38,1.06,1.06,0,0,1-.34.82,1.13,1.13,0,0,1-.8.32,1.1,1.1,0,0,1-.8-.34A1.14,1.14,0,0,1,11,9.6a.51.51,0,0,0-.17-.4.66.66,0,0,0-.42-.15A.58.58,0,0,0,10,9.2a.51.51,0,0,0-.17.4v.13a1.1,1.1,0,0,1-.32.8,1,1,0,0,1-.77.33,1.09,1.09,0,0,1-.82-.33,1.16,1.16,0,0,1-.32-.8V9.6a.53.53,0,0,0-.19-.33A.57.57,0,0,0,7,9.14a.53.53,0,0,0-.36.13.57.57,0,0,0-.18.33,1.13,1.13,0,0,1-.32.8,1,1,0,0,1-.78.34h0a1,1,0,0,1-.73-.3A1.09,1.09,0,0,1,4.3,9.73Z"/></svg>