<svg id="Layer_1" data-name="Layer 1" xmlns="http://www.w3.org/2000/svg" viewBox="0 0 24 24"><defs><style>.cls-1{fill:#231f20;}</style></defs><title>masked_icons_fonts</title><path class="cls-1" d="M6.73,7.61a2.2,2.2,0,1,0,2.2,2.2A2.19,2.19,0,0,0,6.73,7.61Zm4.66,7.76H17.5V14.16H11.39ZM17.5,9.81H11.39V11H17.5Zm-6.11,3.3h8V11.9h-8ZM19.81,5H4.19A2.19,2.19,0,0,0,2,7.19v9.62A2.19,2.19,0,0,0,4.19,19H19.81A2.19,2.19,0,0,0,22,16.81V7.19A2.19,2.19,0,0,0,19.81,5ZM21,16.81A1.2,1.2,0,0,1,19.81,18H4.19A1.2,1.2,0,0,1,3,16.81v-.42h8.12v-1.1c0-1.46-2.92-2.19-4.39-2.19A7.09,7.09,0,0,0,3,14.19v-7A1.2,1.2,0,0,1,4.19,6H19.81A1.2,1.2,0,0,1,21,7.19Zm-9.61-8h8V7.55h-8Z"/></svg>