<svg id="Layer_1" data-name="Layer 1" xmlns="http://www.w3.org/2000/svg" viewBox="0 0 24 24"><title>masked_icons_fonts</title><path d="M20.07,10.44H18.79v-.23a1.14,1.14,0,0,0-1.14-1.14H16a1.14,1.14,0,0,0-1.14,1.14v.23H13.6a1.14,1.14,0,0,0-1.14,1.14v4.34a1.14,1.14,0,0,0,1.14,1.13h6.47a1.14,1.14,0,0,0,1.14-1.13V11.58a1.14,1.14,0,0,0-1.14-1.14m-4.43-.23A.38.38,0,0,1,16,9.83h1.63a.38.38,0,0,1,.38.38v.23H15.64Zm4.81,5.71a.38.38,0,0,1-.38.38H13.6a.38.38,0,0,1-.38-.38V13.25H16a.93.93,0,0,0,1.71,0h2.76Zm-4-3.05a.39.39,0,1,1,.77,0,.39.39,0,1,1-.77,0m4-.38H17.69a.93.93,0,0,0-1.71,0H13.22v-.91a.38.38,0,0,1,.38-.38h6.47a.38.38,0,0,1,.38.38Z"/></svg>