<svg id="Layer_1" data-name="Layer 1" xmlns="http://www.w3.org/2000/svg" viewBox="0 0 24 24"><title>masked_icons_fonts</title><path d="M5,15.81l-.63-.36a.35.35,0,0,0-.48.12.36.36,0,0,0,.13.49l.63.36A.35.35,0,1,0,5,15.81ZM6.87,16.9l-.62-.37a.36.36,0,0,0-.36.62l.63.36a.37.37,0,0,0,.18,0,.35.35,0,0,0,.17-.66Zm-2.2-3.64h0L4,13.63a.35.35,0,0,0-.13.48.35.35,0,0,0,.48.13L5,13.88a.36.36,0,0,0-.35-.62ZM3.24,14.5a.36.36,0,0,0-.49-.13h0l-.3.18a.35.35,0,0,0-.13.48.33.33,0,0,0,.13.13l.3.17a.31.31,0,0,0,.18.05.94.94,0,0,0,.31-.88ZM17.4,13l.31.17a.35.35,0,0,0,.47-.15.35.35,0,0,0-.12-.46l-.3-.18a.36.36,0,0,0-.36.62ZM8.76,18l-.63-.37a.36.36,0,0,0-.35.62l.62.36A.35.35,0,1,0,8.76,18Zm-2.64-4.8a.41.41,0,0,0,.18,0L6.6,13a.36.36,0,0,0-.35-.62l-.31.18a.36.36,0,0,0-.13.48A.37.37,0,0,0,6.12,13.19Zm11.65,3.38-.62.36a.35.35,0,0,0,.35.61l.63-.36a.35.35,0,1,0-.36-.61Zm1.88-1.08-.63.36a.35.35,0,1,0,.36.61L20,16.1a.35.35,0,1,0-.35-.61ZM19,13.92l.64.37a.41.41,0,0,0,.18.05.36.36,0,0,0,.35-.36.34.34,0,0,0-.17-.3l-.64-.37a.35.35,0,0,0-.48.15.34.34,0,0,0,.12.46Zm2.7.8a.33.33,0,0,0-.13-.13h0l-.3-.17a.51.51,0,1,0-.25,1h.07a.39.39,0,0,0,.18,0l.3-.18A.35.35,0,0,0,21.68,14.72Zm-9.52,5.09-.13.07-.13-.07a.35.35,0,0,0-.48.13.35.35,0,0,0,.12.48l.31.18a.36.36,0,0,0,.35,0l.31-.18a.35.35,0,0,0-.35-.61Zm-1.52-.73L10,18.71a.36.36,0,0,0-.48.13.35.35,0,0,0,.13.48l.63.37a.35.35,0,0,0,.35-.61ZM14,18.73l-.63.36a.35.35,0,0,0,.18.66.41.41,0,0,0,.18-.05l.62-.36a.35.35,0,0,0,.12-.48A.34.34,0,0,0,14,18.73Zm1.87-1.08h0l-.62.36a.35.35,0,0,0,.17.66.35.35,0,0,0,.18-.05l.62-.36a.35.35,0,1,0-.35-.61Z"/></svg>