<svg id="Layer_1" data-name="Layer 1" xmlns="http://www.w3.org/2000/svg" viewBox="0 0 24 24"><title>masked_icons_fonts</title><path d="M20.75,8.56a4.37,4.37,0,0,0-4.37-4.37,4.21,4.21,0,0,0-.63.06,4.36,4.36,0,0,0-6.47.27,4.37,4.37,0,0,0-4.72,7.16h0a4.38,4.38,0,0,0,3.06,7.5,4.41,4.41,0,0,0,.74-.08,4.36,4.36,0,0,0,7.82-1.19l.2,0A4.37,4.37,0,0,0,20,11.06,4.39,4.39,0,0,0,20.75,8.56ZM12.62,4.19a3.13,3.13,0,0,1,3.07,2.5,4.38,4.38,0,0,0-6.13,0A3.13,3.13,0,0,1,12.62,4.19Zm0,2.5a3.12,3.12,0,0,1,3.07,2.57,4.34,4.34,0,0,0-3.49,3.07l-.2,0a4.49,4.49,0,0,0-1,.14,3.12,3.12,0,0,1,1.66-5.76ZM4.5,8.56A3.09,3.09,0,0,1,8.6,5.61a4.2,4.2,0,0,0-.35,1.7A3.73,3.73,0,0,0,8.32,8,4.37,4.37,0,0,0,5,10.28,3.06,3.06,0,0,1,4.5,8.56Zm3.12,9.38A3.13,3.13,0,0,1,4.5,14.81a3,3,0,0,1,.23-1.16,4.35,4.35,0,0,0,2.91,2.84c0,.07,0,.13,0,.2a4.59,4.59,0,0,0,.2,1.23Zm.26-2.68a3.11,3.11,0,0,1,.43-6,3.68,3.68,0,0,0-.06.57A4.35,4.35,0,0,0,9.65,13,4.36,4.36,0,0,0,7.88,15.26ZM12,19.81a3.13,3.13,0,0,1,0-6.25A4.36,4.36,0,0,0,15,17.68,3.13,3.13,0,0,1,12,19.81Zm4.38-3.12a3.13,3.13,0,1,1,3.12-3.13A3.13,3.13,0,0,1,16.38,16.69Zm2.68-6.56a4.38,4.38,0,0,0-2.12-.89,5.12,5.12,0,0,0-.14-.68,4.12,4.12,0,0,0-.23-3.1,3.12,3.12,0,0,1,2.93,3.1A3.08,3.08,0,0,1,19.06,10.13Z"/></svg>