<svg id="Layer_1" data-name="Layer 1" xmlns="http://www.w3.org/2000/svg" viewBox="0 0 24 24"><title>masked_icons_fonts</title><path d="M17.08,17Zm-5.59-4.56ZM14.92,17Zm1.66.54Zm3.93-3.94ZM12.43,11Zm3,6.57Zm1.16-9ZM16,11.61A1.39,1.39,0,1,0,17.39,13,1.39,1.39,0,0,0,16,11.61Zm0,2.16a.77.77,0,1,1,.76-.77A.77.77,0,0,1,16,13.77Zm-.49,2.64Zm5-4h0a.57.57,0,0,0-.54-.5h0l-.52,0h0l-.21-.5h0v0h0l.35-.39h0a.59.59,0,0,0,0-.74h0l-.78-.78h0a.53.53,0,0,0-.36-.13.56.56,0,0,0-.38.14h0l-.39.35h0l-.5-.2h0l0,0h0l0-.53a.65.65,0,0,0-.15-.36.62.62,0,0,0-.35-.18,4.22,4.22,0,0,0-1.16,0,.59.59,0,0,0-.35.18.65.65,0,0,0-.15.36h0l0,.53h0v0h0l-.5.2h0L14,9.42h0a.56.56,0,0,0-.38-.14.53.53,0,0,0-.36.13h0l-.78.78h0a.59.59,0,0,0,0,.74l.35.39h0l-.21.5h0v0h0l-.52,0h0a.57.57,0,0,0-.54.5h0a4.22,4.22,0,0,0,0,1.16h0a.57.57,0,0,0,.54.5h0l.52,0h0l.21.5h0v0h0l-.35.39a.59.59,0,0,0,0,.74h0l.78.78h0a.53.53,0,0,0,.36.13.56.56,0,0,0,.38-.14h0l.39-.35h0l.5.2h0l0,0h0l0,.53a.65.65,0,0,0,.15.36.59.59,0,0,0,.35.18,4.23,4.23,0,0,0,1.16,0,.62.62,0,0,0,.35-.18.65.65,0,0,0,.15-.36l0-.53h0l.5-.2h0l.39.35h0a.56.56,0,0,0,.38.14.53.53,0,0,0,.36-.13h0l.78-.78h0a.59.59,0,0,0,0-.74l-.35-.39h0v0h0l.21-.5h0v0h0l.52,0h0a.57.57,0,0,0,.54-.5,4.22,4.22,0,0,0,0-1.16Zm-.6.92c0,.05,0,.09,0,.12h0l-.5,0h0a.61.61,0,0,0-.34.13.6.6,0,0,0-.21.28h0l-.19.48h0a.61.61,0,0,0-.06.25.74.74,0,0,0,.16.44h0l.32.35-.65.66-.36-.32h0a.61.61,0,0,0-.43-.16.74.74,0,0,0-.25.05h0l-.48.2h0a.64.64,0,0,0-.41.56l0,.5h0a4.16,4.16,0,0,1-.45,0l-.34,0h-.12l0-.5a.64.64,0,0,0-.41-.56h0l-.48-.2h0a.74.74,0,0,0-.25-.05.65.65,0,0,0-.44.16h0l-.36.32-.65-.66.32-.35h0a.74.74,0,0,0,.16-.43.62.62,0,0,0-.06-.26h0l-.19-.48h0a.6.6,0,0,0-.21-.28.61.61,0,0,0-.35-.13h0l-.5,0h0a4.59,4.59,0,0,1,0-.46c0-.11,0-.24,0-.34s0-.09,0-.12h0l.5,0a.64.64,0,0,0,.34-.13.6.6,0,0,0,.21-.28h0l.19-.48h0a.62.62,0,0,0,.06-.26.74.74,0,0,0-.16-.43l-.32-.35.65-.66.36.32h0a.61.61,0,0,0,.43.16.57.57,0,0,0,.25-.06h0l.48-.2h0a.64.64,0,0,0,.41-.56h0l0-.5h0a4.59,4.59,0,0,1,.46,0l.34,0h.12l0,.5a.64.64,0,0,0,.41.56h0l.48.2h0a.57.57,0,0,0,.25.06.61.61,0,0,0,.43-.16l.36-.32.65.66-.32.35h0a.74.74,0,0,0-.16.43.62.62,0,0,0,.06.26h0l.19.48h0a.6.6,0,0,0,.21.28.61.61,0,0,0,.34.13l.5,0h0a4.59,4.59,0,0,1,0,.46C19.93,13.11,19.92,13.24,19.91,13.34ZM15.42,8.48Zm1.07,1.11ZM17.08,9Z"/></svg>