<svg id="Layer_1" data-name="Layer 1" xmlns="http://www.w3.org/2000/svg" viewBox="0 0 24 24"><title>masked_icons_fonts</title><polyline points="16.72 15.41 16.85 15.47 16.72 15.41"/><polyline points="12.51 15.34 12.63 15.28 12.51 15.34"/><polyline points="12.83 15.21 12.93 15.17 12.83 15.21"/><polyline points="12.23 15.47 12.35 15.41 12.23 15.47"/><polyline points="16.43 15.28 16.56 15.34 16.43 15.28"/><polyline points="14.1 9.68 14.3 9.63 14.1 9.68"/><polyline points="13.22 15.08 13.23 15.07 13.22 15.08"/><polyline points="16.14 15.17 16.24 15.21 16.14 15.17"/><polyline points="17.21 15.71 17.28 15.77 17.21 15.71"/><polyline points="15.84 15.07 15.86 15.08 15.84 15.07"/><polyline points="11.79 15.77 11.86 15.72 11.79 15.77"/><polyline points="11.98 15.62 12.08 15.55 11.98 15.62"/><polyline points="16.98 15.55 17.09 15.62 16.98 15.55"/><polyline points="20.3 13.84 20.41 13.88 20.3 13.84"/><polyline points="20.6 13.95 20.73 14.01 20.6 13.95"/><polyline points="20 13.74 20.02 13.75 20 13.74"/><polyline points="20.89 14.08 21.01 14.14 20.89 14.08"/><polyline points="17.39 13.74 17.39 13.74 17.39 13.74"/><polyline points="21.15 14.22 21.25 14.29 21.15 14.22"/><polyline points="17 13.88 17.1 13.84 17 13.88"/><polyline points="15.96 14.44 16.02 14.38 15.96 14.44"/><polyline points="16.39 14.14 16.51 14.08 16.39 14.14"/><polyline points="16.68 14 16.8 13.95 16.68 14"/><polyline points="16.15 14.29 16.25 14.22 16.15 14.29"/><path d="M14.78,9.59a3.58,3.58,0,0,0-.48,0l-.2,0a1.81,1.81,0,0,0-1.37,1.8l0,.2a7,7,0,0,0,2.69-1.12c.27.59.43,1.24.86,1.24a2.16,2.16,0,0,0,0-.35,1.57,1.57,0,0,0-1.51-1.86m5,2.67c-.36,0-.62-.29-1-.29h0c-.41,0-.67.29-1,.29s-.44-.31-.53-.58l-.09-.5v.6s.14.72.4.89A2.53,2.53,0,0,0,18,13a2.15,2.15,0,0,0,.68.18h0a2.15,2.15,0,0,0,.68-.18,2.53,2.53,0,0,0,.57-.33c.26-.17.4-.89.4-.89v-.6l-.08.5c-.1.27-.26.58-.54.58m-.79-4a3.88,3.88,0,0,0-.48,0l-.2,0a1.81,1.81,0,0,0-1.37,1.8l0,.2a7.21,7.21,0,0,0,2.7-1.12c.26.59.42,1.24.85,1.24,0-.12,0-.24,0-.35a1.58,1.58,0,0,0-1.52-1.86"/></svg>