<svg id="Layer_1" data-name="Layer 1" xmlns="http://www.w3.org/2000/svg" viewBox="0 0 24 24"><title>masked_icons_fonts</title><path d="M7,12h3.78c.08,0,.13,0,.14,0a.12.12,0,0,0-.05-.13L9.52,10.46A4.33,4.33,0,0,1,12,9.67a4.42,4.42,0,0,1,2.24.59,4.4,4.4,0,0,1,2.2,3.6h0v0H18v0h0a5.93,5.93,0,0,0-.46-2.07,5.83,5.83,0,0,0-3.21-3.21,6,6,0,0,0-5.95.75L7,7.92s-.09-.07-.13,0,0,.06,0,.13v3.78a.22.22,0,0,0,.07.18A.24.24,0,0,0,7,12ZM17,16H13.18c-.08,0-.13,0-.14,0a.12.12,0,0,0,.05.13l1.39,1.39a4.33,4.33,0,0,1-2.48.79,4.42,4.42,0,0,1-2.24-.59,4.49,4.49,0,0,1-1.62-1.62,4.39,4.39,0,0,1-.59-2.24v0H6v0a5.68,5.68,0,0,0,.47,2.33,5.83,5.83,0,0,0,3.21,3.21,6,6,0,0,0,5.95-.75L17,20.08c0,.05.09.07.13.05s.05-.06.05-.13V16.22a.22.22,0,0,0-.07-.18A.24.24,0,0,0,17,16Z"/></svg>