<svg id="Layer_1" data-name="Layer 1" xmlns="http://www.w3.org/2000/svg" viewBox="0 0 24 24"><title>masked_icons_fonts</title><path d="M21.69,10.65s-2.58-1.05-5.17-2L14,7.75,12.77,6.4c.12-1.29,1.78-2.22,1.78-2.22a.44.44,0,0,0,.25-.49.54.54,0,0,0-.43-.37H7.91A3.44,3.44,0,0,0,5.32,4.8L5.14,5,2.25,6.65A.5.5,0,0,0,2,7.08a.62.62,0,0,0,.25.43L5,8.92a8.75,8.75,0,0,0-.37,2.46,5.38,5.38,0,0,0,3.26,5.17v3.63a.48.48,0,0,0,.43.5h2a.43.43,0,0,0,.43-.43l.12-3.2a3.11,3.11,0,0,0,2.52-1h6.9a.52.52,0,0,0,.43-.24.51.51,0,0,0-.06-.5l-2.22-2.58c1.61-.62,2.92-1.16,3.26-1.29A.47.47,0,0,0,22,11C22,10.83,21.88,10.77,21.69,10.65Z"/></svg>