<svg id="Layer_1" data-name="Layer 1" xmlns="http://www.w3.org/2000/svg" viewBox="0 0 24 24"><defs><style>.cls-1{fill:none;}</style></defs><title>masked_icons_fonts</title><path class="cls-1" d="M14.6,8.68l.41,0a6.64,6.64,0,0,1,5.16,2.07,4.61,4.61,0,0,0,.33-2,5.23,5.23,0,0,0-9-3.67,4.31,4.31,0,0,0-.39.48A6.69,6.69,0,0,1,14.6,8.68Z"/><path class="cls-1" d="M15.12,10.07a6.3,6.3,0,0,1,.21,1.64,6.44,6.44,0,0,1-.38,2.2A5.2,5.2,0,0,0,19,12.38h0a3.43,3.43,0,0,0,.33-.33,4.63,4.63,0,0,0-.4-.48A5.18,5.18,0,0,0,15.12,10.07Z"/><path class="cls-1" d="M10.82,18a5.05,5.05,0,0,0,.78,1A5.23,5.23,0,0,0,19,19h0a4.6,4.6,0,0,0,1.5-3.67,5.32,5.32,0,0,0-.38-1.94,6.67,6.67,0,0,1-4.44,2,7.22,7.22,0,0,1-1.4-.08A6.64,6.64,0,0,1,10.82,18Z"/><path d="M22,8.37A6.66,6.66,0,0,0,9.72,5.13a6.7,6.7,0,0,1,1.43.39A4.31,4.31,0,0,1,11.54,5a5.23,5.23,0,0,1,9,3.67A4.58,4.58,0,0,1,19.33,12a3.43,3.43,0,0,1-.33.33h0A5.2,5.2,0,0,1,15,13.91a6.29,6.29,0,0,1-.67,1.38,7.22,7.22,0,0,0,1.4.08A6.65,6.65,0,0,0,22,9Z"/></svg>