<svg id="Layer_1" data-name="Layer 1" xmlns="http://www.w3.org/2000/svg" viewBox="0 0 24 24"><title>masked_icons_fonts</title><path d="M8.32,8a3.73,3.73,0,0,1-.07-.68,4.2,4.2,0,0,1,.35-1.7,3.09,3.09,0,0,0-4.1,3A3.06,3.06,0,0,0,5,10.28,4.37,4.37,0,0,1,8.32,8ZM11,12.45a4.49,4.49,0,0,1,1-.14l.2,0a4.34,4.34,0,0,1,3.49-3.07A3.12,3.12,0,1,0,11,12.45ZM16.8,8.56a5.12,5.12,0,0,1,.14.68,4.38,4.38,0,0,1,2.12.89,3.08,3.08,0,0,0,.44-1.57,3.12,3.12,0,0,0-2.93-3.1,4.12,4.12,0,0,1,.23,3.1ZM15.69,6.69a3.13,3.13,0,0,0-6.13,0,4.38,4.38,0,0,1,6.13,0Zm.69,3.75a3.13,3.13,0,1,0,3.12,3.12A3.13,3.13,0,0,0,16.38,10.44ZM12,13.56A3.13,3.13,0,1,0,15,17.68,4.36,4.36,0,0,1,12,13.56ZM7.64,16.49a4.35,4.35,0,0,1-2.91-2.84,3,3,0,0,0-.23,1.16,3.13,3.13,0,0,0,3.12,3.13l.2,0a4.59,4.59,0,0,1-.2-1.23C7.62,16.62,7.64,16.56,7.64,16.49Zm2-3.48a4.35,4.35,0,0,1-1.4-3.2,3.68,3.68,0,0,1,.06-.57,3.11,3.11,0,0,0-.43,6A4.36,4.36,0,0,1,9.65,13Z"/></svg>