<svg id="Layer_1" data-name="Layer 1" xmlns="http://www.w3.org/2000/svg" viewBox="0 0 24 24"><title>masked_icons_fonts</title><path d="M16.89,8.25a4.06,4.06,0,0,1,1.63.33,4.17,4.17,0,0,1,2.21,2.21,4.17,4.17,0,0,1,0,3.25,4.17,4.17,0,0,1-2.21,2.21,4.05,4.05,0,0,1-3.25,0A4.17,4.17,0,0,1,13.06,14a4.05,4.05,0,0,1,0-3.25,4.17,4.17,0,0,1,2.21-2.21A4,4,0,0,1,16.89,8.25Zm0,7.09a3,3,0,0,0,.8-.11,3.39,3.39,0,0,0,.7-.31,2.75,2.75,0,0,0,.6-.48,2.55,2.55,0,0,0,.46-.63,1.5,1.5,0,0,0-.48-.4,3.76,3.76,0,0,0-.68-.29,5,5,0,0,0-.74-.18,3.61,3.61,0,0,0-1.31,0,5,5,0,0,0-.74.18,3.76,3.76,0,0,0-.68.29,1.5,1.5,0,0,0-.48.4v0a3.32,3.32,0,0,0,.44.62,3.42,3.42,0,0,0,.61.47,3.17,3.17,0,0,0,.7.31A3,3,0,0,0,16.89,15.34Zm0-5.84a1.37,1.37,0,0,0-1.35,1.35,1.31,1.31,0,0,0,.4,1,1.27,1.27,0,0,0,1,.4,1.29,1.29,0,0,0,1-.4,1.31,1.31,0,0,0,.4-1,1.27,1.27,0,0,0-.4-.95A1.29,1.29,0,0,0,16.89,9.5Z"/></svg>