<svg id="Layer_1" data-name="Layer 1" xmlns="http://www.w3.org/2000/svg" viewBox="0 0 24 24"><title>masked_icons_fonts</title><path d="M19.42,7.62h0a2.56,2.56,0,0,0,.5-.78,2.28,2.28,0,0,0,.2-.85V5.75a1.87,1.87,0,0,0-1.87-1.87H18a2.28,2.28,0,0,0-.85.2,2.56,2.56,0,0,0-.78.5h0a6.27,6.27,0,0,1-1.22.9,6.43,6.43,0,0,1-3.16.9,6.43,6.43,0,0,1-3.16-.9,6.27,6.27,0,0,1-1.22-.9h0a2.56,2.56,0,0,0-.78-.5A2.28,2.28,0,0,0,6,3.88H5.75A1.87,1.87,0,0,0,3.88,5.75V6a2.28,2.28,0,0,0,.2.85,2.56,2.56,0,0,0,.5.78h0a6.27,6.27,0,0,1,.9,1.22A6.43,6.43,0,0,1,6.38,12a6.43,6.43,0,0,1-.9,3.16,6.68,6.68,0,0,1-.9,1.22,2.56,2.56,0,0,0-.5.78,2.28,2.28,0,0,0-.2.85v.24a1.88,1.88,0,0,0,1.87,1.88H6a2.76,2.76,0,0,0,1.63-.71,6.27,6.27,0,0,1,1.22-.9A6.33,6.33,0,0,1,12,17.63a6.33,6.33,0,0,1,3.16.89,6.27,6.27,0,0,1,1.22.9,2.76,2.76,0,0,0,1.63.71h.24a1.88,1.88,0,0,0,1.87-1.88V18a2.28,2.28,0,0,0-.2-.85,2.56,2.56,0,0,0-.5-.78,6.68,6.68,0,0,1-.9-1.22,6.43,6.43,0,0,1-.9-3.16,6.43,6.43,0,0,1,.9-3.16A6.27,6.27,0,0,1,19.42,7.62Z"/></svg>