<svg id="Layer_1" data-name="Layer 1" xmlns="http://www.w3.org/2000/svg" viewBox="0 0 24 24"><title>masked_icons_fonts</title><path d="M21.61,10.82,19.75,8.15A.3.3,0,0,0,19.49,8H14a.3.3,0,0,0-.25.12l-2,2.67-.06.18a1.25,1.25,0,0,0,1,1.23v3.46a1,1,0,0,0,1,1h6.07a1,1,0,0,0,1-1V12.2a1.24,1.24,0,0,0,.93-1.08.27.27,0,0,0,0-.3M19,16h-1.3V13.37H19Zm.71,0h-.09v-3a.31.31,0,0,0-.31-.32H17.42a.31.31,0,0,0-.31.32v3H13.67a.34.34,0,0,1-.34-.34V12.17a1.23,1.23,0,0,0,.52-.35,1.25,1.25,0,0,0,1.87,0,1.25,1.25,0,0,0,.94.42,1.23,1.23,0,0,0,.93-.42,1.25,1.25,0,0,0,.94.42,1.22,1.22,0,0,0,.93-.42,1.28,1.28,0,0,0,.63.38v3.48a.35.35,0,0,1-.35.34m.66-4.4a.63.63,0,0,1-.62-.63.32.32,0,0,0-.63,0,.63.63,0,1,1-1.25,0,.31.31,0,0,0-.31-.31.31.31,0,0,0-.31.31A.63.63,0,1,1,16,11a.31.31,0,0,0-.62,0,.63.63,0,1,1-1.25,0,.31.31,0,0,0-.62,0,.63.63,0,0,1-.62.63.62.62,0,0,1-.62-.53l1.81-2.45h5.22L21,11.06a.63.63,0,0,1-.62.56"/></svg>