<svg id="Layer_1" data-name="Layer 1" xmlns="http://www.w3.org/2000/svg" viewBox="0 0 24 24"><title>masked_icons_fonts</title><path d="M14.28,15.29A6.29,6.29,0,0,0,15,13.91a6.44,6.44,0,0,0,.38-2.2,6.3,6.3,0,0,0-.21-1.64,6.42,6.42,0,0,0-.52-1.39A6.59,6.59,0,0,0,9.72,5.13,7.19,7.19,0,0,0,8.67,5a6.67,6.67,0,1,0,0,13.33A6.47,6.47,0,0,0,10.82,18,6.64,6.64,0,0,0,14.28,15.29ZM8.67,7a2.17,2.17,0,0,1,0,4.34A2.21,2.21,0,0,1,6.5,9.21,2.17,2.17,0,0,1,8.67,7Zm0,9.33A4.77,4.77,0,0,1,4.58,14c.67-1,2.92-1.5,4.09-1.5s3.41.5,4.08,1.5A4.65,4.65,0,0,1,8.67,16.37Z"/></svg>