<svg id="Layer_1" data-name="Layer 1" xmlns="http://www.w3.org/2000/svg" viewBox="0 0 24 24"><title>masked_icons_fonts</title><path d="M16.57,12.2A7,7,0,0,0,17,9.81a6.88,6.88,0,0,0-13.75,0,6.81,6.81,0,0,0,.56,2.71,3.41,3.41,0,0,0-.92.85,1.49,1.49,0,0,0-.27.82v4.37h2.5a2.5,2.5,0,1,0,5,0h3.76a2.5,2.5,0,0,0,5,0h2.5V15.08Zm-6.45-8a5.63,5.63,0,0,1,5.63,5.62,5.4,5.4,0,0,1-.3,1.72l-.78-.47h-.56a4,4,0,0,0,.21-1.25,4.2,4.2,0,1,0-8.1,1.5,12.77,12.77,0,0,0-1.31.57A5.5,5.5,0,0,1,4.5,9.81,5.62,5.62,0,0,1,10.12,4.19Zm3,5.62a2.91,2.91,0,0,1-.29,1.25H7.47a2.91,2.91,0,0,1-.29-1.25,2.95,2.95,0,0,1,5.89,0Zm-5.45,10a1.25,1.25,0,1,1,1.26-1.25A1.25,1.25,0,0,1,7.62,19.81Zm8.76,0a1.25,1.25,0,1,1,1.24-1.25A1.26,1.26,0,0,1,16.38,19.81Zm3.74-2.5H18.53a2.48,2.48,0,0,0-4.31,0H9.78a2.48,2.48,0,0,0-4.31,0H3.88V14.19l0-.09.23-.26a4.28,4.28,0,0,1,.93-.64,15.68,15.68,0,0,1,2-.87l0,0h7.23l5.79,3.48Z"/></svg>