<svg id="Layer_1" data-name="Layer 1" xmlns="http://www.w3.org/2000/svg" viewBox="0 0 24 24"><title>masked_icons_fonts</title><path d="M21.38,6V5.75a3.14,3.14,0,0,0-3.13-3.13H18a3.55,3.55,0,0,0-1.34.32,3.56,3.56,0,0,0-1.17.75h0l0,0-.19.16a5.59,5.59,0,0,1-.73.5A4.94,4.94,0,0,1,12,5.12,5.42,5.42,0,0,1,8.51,3.7h0a3.56,3.56,0,0,0-1.17-.75A3.55,3.55,0,0,0,6,2.62H5.75A3.14,3.14,0,0,0,2.62,5.75V6a3.65,3.65,0,0,0,.32,1.35A3.62,3.62,0,0,0,3.69,8.5h0l0,0,.16.19a5.59,5.59,0,0,1,.5.73A4.94,4.94,0,0,1,5.12,12,5.42,5.42,0,0,1,3.7,15.49h0a3.56,3.56,0,0,0-.75,1.17A3.55,3.55,0,0,0,2.62,18v.24a3.14,3.14,0,0,0,3.13,3.13H6a3.55,3.55,0,0,0,1.34-.32,3.56,3.56,0,0,0,1.17-.75h0l0,0,.19-.16a5.59,5.59,0,0,1,.73-.5A4.94,4.94,0,0,1,12,18.88a5.42,5.42,0,0,1,3.49,1.42h0a3.56,3.56,0,0,0,1.17.75,3.55,3.55,0,0,0,1.34.32h.24a3.14,3.14,0,0,0,3.13-3.13V18a3.55,3.55,0,0,0-.32-1.34,3.56,3.56,0,0,0-.75-1.17h0l0,0-.16-.19a5.59,5.59,0,0,1-.5-.73A4.94,4.94,0,0,1,18.88,12,5.42,5.42,0,0,1,20.3,8.51h0a3.62,3.62,0,0,0,.75-1.16A3.65,3.65,0,0,0,21.38,6ZM20.12,6a2.28,2.28,0,0,1-.2.85,2.56,2.56,0,0,1-.5.78h0a6.27,6.27,0,0,0-.9,1.22,6.43,6.43,0,0,0-.9,3.16,6.43,6.43,0,0,0,.9,3.16,6.68,6.68,0,0,0,.9,1.22,2.56,2.56,0,0,1,.5.78,2.28,2.28,0,0,1,.2.85v.24a1.86,1.86,0,0,1-1.87,1.87H18a2.28,2.28,0,0,1-.85-.2,2.56,2.56,0,0,1-.78-.5,6.27,6.27,0,0,0-1.22-.9,6.43,6.43,0,0,0-3.16-.9,6.43,6.43,0,0,0-3.16.9,6.27,6.27,0,0,0-1.22.9,2.56,2.56,0,0,1-.78.5,2.28,2.28,0,0,1-.85.2H5.75a1.86,1.86,0,0,1-1.87-1.87V18a2.28,2.28,0,0,1,.2-.85,2.56,2.56,0,0,1,.5-.78,6.68,6.68,0,0,0,.9-1.22A6.43,6.43,0,0,0,6.38,12a6.43,6.43,0,0,0-.9-3.16,6.27,6.27,0,0,0-.9-1.22h0a2.56,2.56,0,0,1-.5-.78A2.28,2.28,0,0,1,3.88,6V5.75A1.87,1.87,0,0,1,5.75,3.88H6a2.28,2.28,0,0,1,.85.2,2.56,2.56,0,0,1,.78.5h0a6.27,6.27,0,0,0,1.22.9,6.43,6.43,0,0,0,3.16.9,6.43,6.43,0,0,0,3.16-.9,6.27,6.27,0,0,0,1.22-.9h0a2.56,2.56,0,0,1,.78-.5,2.28,2.28,0,0,1,.85-.2h.24a1.87,1.87,0,0,1,1.87,1.87Z"/></svg>