<svg id="Layer_1" data-name="Layer 1" xmlns="http://www.w3.org/2000/svg" viewBox="0 0 24 24"><title>masked_icons_fonts</title><path d="M14.46,11.88a1.86,1.86,0,0,0-.67-.44,2.48,2.48,0,0,0-.89-.15H10.42v6.4h1.25V15.28H12.9a2.28,2.28,0,0,0,.89-.16,1.84,1.84,0,0,0,.67-.43,1.72,1.72,0,0,0,.41-.64,2,2,0,0,0,.15-.77,2,2,0,0,0-.15-.77A1.76,1.76,0,0,0,14.46,11.88Zm-.94,2a.94.94,0,0,1-.68.24H11.67V12.4h1.17a.94.94,0,0,1,.68.24.9.9,0,0,1,.25.64A.88.88,0,0,1,13.52,13.92Zm-4.35-2a2,2,0,0,0-.67-.44,2.48,2.48,0,0,0-.89-.15H5.13v6.4H6.38V15.28H7.61a2.28,2.28,0,0,0,.89-.16,1.93,1.93,0,0,0,.67-.43,1.72,1.72,0,0,0,.41-.64,2,2,0,0,0,.15-.77,2,2,0,0,0-.15-.77A1.76,1.76,0,0,0,9.17,11.88Zm-.94,2a1,1,0,0,1-.68.24H6.38V12.4H7.55a1,1,0,0,1,.68.24.89.89,0,0,1,.24.64A.88.88,0,0,1,8.23,13.92Zm7-2.63V12.4H16.9v5.29h1.26V12.4h1.67V11.29Z"/></svg>