<svg id="Layer_1" data-name="Layer 1" xmlns="http://www.w3.org/2000/svg" viewBox="0 0 24 24"><path d="M6.21149,15.735h-.912a.94051.94051,0,0,1-.94049-.93152V13.968a.20175.20175,0,0,0-.4035-.001v.83655A1.344,1.344,0,0,0,5.2995,16.128h.912a.19208.19208,0,0,0,.20153-.182l.00025-.01v-.00976A.20176.20176,0,0,0,6.21149,15.735ZM9.879,11.84772l.0097.009a.25957.25957,0,0,0,.25952-.24976v-.65252a.24973.24973,0,0,0-.23962-.25946h-.0199a.25945.25945,0,0,0-.25946.24975v.6435A.25945.25945,0,0,0,9.879,11.84772ZM7.63275,13.0755h.048a.72977.72977,0,0,0,.73944-.72l.00006-.00977V10.9635a.20176.20176,0,1,0-.40351,0V12.336a.336.336,0,0,1-.336.336h-.048a.20175.20175,0,1,0,0,.4035ZM6.25049,10.695a.2594.2594,0,0,0-.25946.24975v.6435a.25944.25944,0,0,0,.24969.25946.24971.24971,0,0,0,.25952-.23957v-.65289A.25952.25952,0,0,0,6.25049,10.695Zm-2.07373-.384a.20174.20174,0,0,0,.20172-.20172V9.13947A.94052.94052,0,0,1,5.31,8.199h.915a.20175.20175,0,1,0,0-.4035H5.30927A1.34405,1.34405,0,0,0,3.975,9.13947v.96978A.20175.20175,0,0,0,4.17676,10.311Zm15.963-5.53051H3.95551a2.27551,2.27551,0,0,0-2.26575,2.2658V17.049a2.2755,2.2755,0,0,0,2.26575,2.26575H20.13977A2.27558,2.27558,0,0,0,22.40552,17.049V7.04626A2.27559,2.27559,0,0,0,20.13977,4.78046Zm1.55548,2.256V17.049a1.54578,1.54578,0,0,1-1.54577,1.54572H3.95551A1.54569,1.54569,0,0,1,2.4,17.05878V7.04626A1.54574,1.54574,0,0,1,3.94574,5.50049h16.194a1.54575,1.54575,0,0,1,1.55548,1.53595ZM14.14337,9.2627H17.285l-2.74609,6.74023h2.00293l3.0459-7.53223V7.60742H14.14337ZM9.439,13.64563A.20135.20135,0,0,0,9.4035,13.68h-.024a1.71825,1.71825,0,0,1-1.20978.50849h-.075A1.69954,1.69954,0,0,1,6.885,13.68a.20176.20176,0,0,0-.27826.27826,2.0926,2.0926,0,0,0,1.5.63373h.075a2.08348,2.08348,0,0,0,1.5-.624.20175.20175,0,0,0-.24273-.32233Zm2.67.11182-.01-.00025.00073.00006a.20175.20175,0,0,0-.20172.20172v.83551a.94052.94052,0,0,1-.93152.9405h-.912a.20175.20175,0,1,0-.00183.4035h.91382a1.34406,1.34406,0,0,0,1.33429-1.33429v-.83545A.20178.20178,0,0,0,12.109,13.75745ZM10.9635,7.80524h-.912a.20175.20175,0,1,0,0,.4035h.912a.94051.94051,0,0,1,.94049.93152V10.11a.20176.20176,0,0,0,.40351,0V9.13947A1.344,1.344,0,0,0,10.9635,7.80524Z"/></svg>