<svg id="Layer_1" data-name="Layer 1" xmlns="http://www.w3.org/2000/svg" viewBox="0 0 24 24"><title>masked_icons_fonts</title><path d="M21.11,12v0c0,.1,0,.19,0,.28s0,.19,0,.3h0l0,.31q0,.15-.06.27a.57.57,0,0,1-.16.33.55.55,0,0,1-.35.14l-.48,0-.2.48.33.36a.51.51,0,0,1,.09.16.62.62,0,0,1,0,.38.51.51,0,0,1-.09.16l-.73.73-.16.1-.18,0a.6.6,0,0,1-.2,0,.56.56,0,0,1-.15-.1l-.37-.32h0l-.46.18,0,.5a.51.51,0,0,1-.15.33.53.53,0,0,1-.33.17h0l-.28.05-.3,0h-.28l-.25,0h0a.48.48,0,0,1-.32-.17.53.53,0,0,1-.15-.34l-.05-.58-.47-.19h0l-.37.33a.38.38,0,0,1-.15.09.62.62,0,0,1-.38,0,.42.42,0,0,1-.16-.09l-.73-.73a1,1,0,0,1-.1-.17.57.57,0,0,1,0-.18.58.58,0,0,1,0-.19.86.86,0,0,1,.1-.16l.32-.37-.18-.46-.5,0a.51.51,0,0,1-.33-.15.48.48,0,0,1-.17-.33v0c0-.1,0-.19,0-.28s0-.19,0-.29,0-.22,0-.32a2.26,2.26,0,0,1,0-.29h0a.59.59,0,0,1,.17-.32.61.61,0,0,1,.33-.14l.48,0,.18-.48-.32-.36a.56.56,0,0,1-.1-.15.58.58,0,0,1,0-.19.48.48,0,0,1,.13-.35l.75-.75a.78.78,0,0,1,.15-.1.63.63,0,0,1,.19,0,.58.58,0,0,1,.19,0,.49.49,0,0,1,.16.1l.37.33h0l.46-.19,0-.51h0A.55.55,0,0,1,16,8.44a.48.48,0,0,1,.32-.15h0l.28,0,.29,0h.55a.51.51,0,0,1,.32.17.53.53,0,0,1,.15.34l.07.53.47.18.37-.31a.39.39,0,0,1,.16-.1.41.41,0,0,1,.19,0,.43.43,0,0,1,.19,0,.47.47,0,0,1,.16.1l.76.76a1.4,1.4,0,0,1,.09.17.58.58,0,0,1,0,.19.57.57,0,0,1,0,.18.83.83,0,0,1-.09.16L20,11l.19.47.47,0a.57.57,0,0,1,.33.16.56.56,0,0,1,.17.32Zm-.55.85s0-.09,0-.15l0-.19c0-.07,0-.14,0-.22l0-.2-.47,0a.54.54,0,0,1-.32-.11.52.52,0,0,1-.19-.27l-.19-.47h0a.56.56,0,0,1,0-.12.68.68,0,0,1,0-.14v0a.54.54,0,0,1,.05-.21.54.54,0,0,1,.11-.18l.29-.33-.6-.62-.34.3h0a.76.76,0,0,1-.19.12.72.72,0,0,1-.22,0l-.12,0a.28.28,0,0,1-.12,0l-.47-.18a.6.6,0,0,1-.27-.2.66.66,0,0,1-.12-.32l0-.48h-.67l-.21,0,0,.47a.55.55,0,0,1-.11.31.71.71,0,0,1-.27.21l-.46.18h0l-.12.05h-.13a.78.78,0,0,1-.22,0,.54.54,0,0,1-.18-.11l-.33-.3-.62.61.31.33a.53.53,0,0,1,.14.4h0a.49.49,0,0,1,0,.12.28.28,0,0,1,0,.12l-.18.46h0a.64.64,0,0,1-.08.14.38.38,0,0,1-.11.11.6.6,0,0,1-.15.09l-.18.05-.47,0v.43c0,.08,0,.16,0,.23a.78.78,0,0,0,0,.22l.46,0,.18,0,.15.09.11.11a.75.75,0,0,1,.09.15l.18.47a.36.36,0,0,1,0,.11s0,.08,0,.13a.78.78,0,0,1,0,.22.87.87,0,0,1-.11.18l-.3.33.61.61.33-.3a.78.78,0,0,1,.18-.11.59.59,0,0,1,.23,0h.12l.12,0,.46.19h0a.73.73,0,0,1,.27.2.6.6,0,0,1,.12.33l0,.46h.85l0-.48a.5.5,0,0,1,.1-.31.64.64,0,0,1,.25-.21l.47-.18h0a.28.28,0,0,1,.12,0l.13,0h0a.78.78,0,0,1,.22,0,.57.57,0,0,1,.18.12l.34.3.6-.62-.29-.33a.44.44,0,0,1-.12-.18.78.78,0,0,1,0-.21v0s0-.08,0-.12a.37.37,0,0,1,.05-.11l.17-.47a.67.67,0,0,1,.09-.14.43.43,0,0,1,.11-.12A.46.46,0,0,1,19.9,13l.18,0,.47,0v-.1ZM16.89,11.2a1.31,1.31,0,0,1,.93,2.23,1.32,1.32,0,0,1-1.85,0,1.31,1.31,0,0,1,.92-2.23Zm0,2a.71.71,0,1,0-.71-.71.73.73,0,0,0,.21.51.69.69,0,0,0,.5.21Z"/></svg>