<svg id="Layer_1" data-name="Layer 1" xmlns="http://www.w3.org/2000/svg" viewBox="0 0 24 24"><title>masked_icons_fonts</title><path d="M15.16,7.71a.68.68,0,0,0-.36-.42l-1.21-.62-.22-1.35a.7.7,0,0,0-.28-.46.65.65,0,0,0-.54-.12L11.2,5l-1-1h0a.72.72,0,0,0-.5-.22A.67.67,0,0,0,9.23,4l-1,1L6.92,4.74a.75.75,0,0,0-.54.12.67.67,0,0,0-.28.46L5.88,6.67l-1.21.62a.68.68,0,0,0-.36.42.74.74,0,0,0,0,.55L5,9.46l-.62,1.21a.73.73,0,0,0,0,.54.68.68,0,0,0,.36.42l1.21.62L6.1,13.6a.7.7,0,0,0,.28.46.65.65,0,0,0,.54.12L8.27,14l1,1a.74.74,0,0,0,.51.22.65.65,0,0,0,.5-.22l1-1,1.35.22a.73.73,0,0,0,.54-.12.67.67,0,0,0,.28-.46l.22-1.35,1.21-.62a.68.68,0,0,0,.36-.42.72.72,0,0,0,0-.54L14.5,9.46l.62-1.2A.74.74,0,0,0,15.16,7.71ZM13.81,9.8,14.42,11l-1.21.6a.73.73,0,0,0-.38.52l-.2,1.33-1.33-.22a.72.72,0,0,0-.62.2l-.94.94-1-.94a.72.72,0,0,0-.5-.22H8.17l-1.33.22-.2-1.33a.73.73,0,0,0-.38-.52L5.06,11l.6-1.21a.76.76,0,0,0,0-.66l-.6-1.21,1.2-.6a.73.73,0,0,0,.38-.52l.2-1.33,1.33.23a.72.72,0,0,0,.62-.21l1-.94.94.94a.72.72,0,0,0,.62.21l1.33-.23.2,1.33a.73.73,0,0,0,.38.52l1.21.6-.61,1.21A.81.81,0,0,0,13.81,9.8ZM8.19,15.19V18l1.55.8,1.54-.8V15.19a.39.39,0,0,1,.77,0v3a.41.41,0,0,1-.2.34l-1.93,1a.42.42,0,0,1-.36,0l-1.93-1a.39.39,0,0,1-.2-.34v-3a.38.38,0,1,1,.76,0Z"/></svg>