<svg id="Layer_1" data-name="Layer 1" xmlns="http://www.w3.org/2000/svg" viewBox="0 0 24 24"><title>masked_icons_fonts</title><path d="M18.8,21.7Zm-5.59-4.56Zm3.43,4.56Zm1.66.54Zm3.94-3.94Zm-8.09-2.63Zm3,6.57Zm1.16-9Zm-.58,3.13a1.39,1.39,0,1,0,1.39,1.39A1.39,1.39,0,0,0,17.72,16.33Zm0,2.16a.77.77,0,1,1,.77-.77A.77.77,0,0,1,17.72,18.49Zm-.48,2.64Zm5-4h0a.55.55,0,0,0-.19-.35.59.59,0,0,0-.36-.15h0l-.52,0h0l-.21-.5h0v0h0l.36-.39h0a.56.56,0,0,0,0-.74h0l-.78-.78h0a.57.57,0,0,0-.36-.13.54.54,0,0,0-.38.14h0l-.4.35h0l-.5-.2h0v0h0l0-.53a.56.56,0,0,0-.15-.36.59.59,0,0,0-.35-.18,5.09,5.09,0,0,0-.58,0,5.34,5.34,0,0,0-.58,0,.56.56,0,0,0-.34.18.57.57,0,0,0-.16.36h0l0,.53h0v0h0l-.5.2h0l-.39-.35h0A.56.56,0,0,0,15.3,14a.57.57,0,0,0-.36.13h0l-.78.78h0a.57.57,0,0,0-.13.36.56.56,0,0,0,.14.38l.35.39h0l-.2.5h0l0,0h0l-.53,0h0a.65.65,0,0,0-.36.15.59.59,0,0,0-.18.35h0a4.22,4.22,0,0,0,0,1.16h0a.62.62,0,0,0,.18.35.65.65,0,0,0,.36.15h0l.53,0h0l.2.5h0v0h0l-.35.4a.54.54,0,0,0-.14.38.57.57,0,0,0,.13.36h0l.78.78h0a.57.57,0,0,0,.36.13.56.56,0,0,0,.38-.14h0l.39-.35h0l.49.21h0v0h0l0,.53a.6.6,0,0,0,.16.36.56.56,0,0,0,.34.18,5.34,5.34,0,0,0,.58,0,5.09,5.09,0,0,0,.58,0,.59.59,0,0,0,.35-.18.58.58,0,0,0,.15-.36l0-.53,0,0h0l.5-.21h0l.4.35h0a.54.54,0,0,0,.37.14.58.58,0,0,0,.37-.13h0l.78-.78h0a.57.57,0,0,0,.13-.36.55.55,0,0,0-.15-.38l-.35-.4h0v0h0l.21-.5h0l0,0h0l.52,0h0a.59.59,0,0,0,.35-.15.58.58,0,0,0,.19-.35,5.09,5.09,0,0,0,0-.58A4.87,4.87,0,0,0,22.24,17.14Zm-.61.92a.31.31,0,0,1,0,.11h0l-.49,0h0a.64.64,0,0,0-.35.13.67.67,0,0,0-.21.28h0l-.2.48h0a.56.56,0,0,0-.05.25.65.65,0,0,0,.16.44h0l.32.35-.65.65-.35-.31h0a.61.61,0,0,0-.43-.16.8.8,0,0,0-.26.05h0l-.48.2h0a.64.64,0,0,0-.41.56l0,.5h0a4.59,4.59,0,0,1-.46,0l-.33,0h-.13l0-.5a.67.67,0,0,0-.42-.56h0l-.47-.2h0a.85.85,0,0,0-.26-.05.61.61,0,0,0-.43.16h0l-.36.31-.65-.65.32-.35h0a.65.65,0,0,0,.16-.44.61.61,0,0,0-.06-.25h0l-.2-.48h0a.64.64,0,0,0-.56-.41h0l-.49,0h0a4.16,4.16,0,0,1,0-.45c0-.12,0-.24,0-.34a.57.57,0,0,0,0-.12h0l.49,0a.64.64,0,0,0,.56-.41h0l.2-.48h0a.62.62,0,0,0,.06-.26.63.63,0,0,0-.16-.43l-.32-.35.65-.66.36.32h0a.61.61,0,0,0,.43.16.65.65,0,0,0,.26-.06h0l.47-.2h0a.69.69,0,0,0,.28-.21.61.61,0,0,0,.14-.35h0l0-.5h0a4.16,4.16,0,0,1,.45,0l.34,0h.12l0,.5a.67.67,0,0,0,.13.35.76.76,0,0,0,.28.21h0l.48.2h0a.62.62,0,0,0,.26.06.61.61,0,0,0,.43-.16l.35-.32.65.66-.32.35h0a.65.65,0,0,0-.15.43.6.6,0,0,0,.05.26h0l.2.48h0a.64.64,0,0,0,.56.41l.49,0h0a4.59,4.59,0,0,1,0,.46C21.65,17.83,21.64,18,21.63,18.06ZM17.14,13.2Zm1.07,1.11Zm.59-.57Z"/></svg>