<svg id="Layer_1" data-name="Layer 1" xmlns="http://www.w3.org/2000/svg" viewBox="0 0 24 24"><title>masked_icons_fonts</title><path d="M6.22,11.31a4.19,4.19,0,1,1,8.1-1.5,4,4,0,0,1-.21,1.25h.56l.78.47a5.4,5.4,0,0,0,.3-1.72,5.63,5.63,0,0,0-11.25,0,5.5,5.5,0,0,0,.41,2.07A12.77,12.77,0,0,1,6.22,11.31Zm1.4,6a1.25,1.25,0,1,0,1.26,1.25A1.25,1.25,0,0,0,7.62,17.31Zm8.76,0a1.25,1.25,0,1,0,1.24,1.25A1.26,1.26,0,0,0,16.38,17.31Zm-2-5H7.1l0,0a15.68,15.68,0,0,0-2,.87,4.28,4.28,0,0,0-.93.64l-.23.26,0,.09v3.12H5.47a2.48,2.48,0,0,1,4.31,0h4.44a2.48,2.48,0,0,1,4.31,0h1.59V15.79Z"/></svg>