<svg id="Layer_1" data-name="Layer 1" xmlns="http://www.w3.org/2000/svg" viewBox="0 0 24 24"><defs><style>.cls-1{fill:#231f20;}</style></defs><title>masked_icons_fonts</title><path class="cls-1" d="M13.47,13.15h-1v1.56h1a.84.84,0,0,0,.6-.21.74.74,0,0,0,.22-.57.77.77,0,0,0-.22-.57A.84.84,0,0,0,13.47,13.15Zm-2-2.3v-1h2v-2h-2v-2h2v-2h-2v-2h-3v2h2v2h-2v2h2v2h-2v1h-7v9h16v-9ZM7.89,13,5.45,16.86H7.89v1H4.15V17l2.43-3.81H4.25v-1H7.89ZM10,17.85H8.87V12.16H10Zm5.28-3.23a1.58,1.58,0,0,1-.36.56,1.56,1.56,0,0,1-.6.39,2.18,2.18,0,0,1-.79.14H12.43v2.14H11.31V12.16h2.21a2,2,0,0,1,.79.14,1.67,1.67,0,0,1,.6.38,1.54,1.54,0,0,1,.36.57,1.72,1.72,0,0,1,.13.68A1.8,1.8,0,0,1,15.27,14.62Z"/></svg>