<svg id="Layer_1" data-name="Layer 1" xmlns="http://www.w3.org/2000/svg" viewBox="0 0 24 24"><defs><style>.cls-1{fill:#555;}</style></defs><title>masked_icons_fonts</title><path class="cls-1" d="M19.74,16h-.09v-3a.31.31,0,0,0-.31-.32H17.42a.31.31,0,0,0-.31.32v3H13.67a.34.34,0,0,1-.34-.34V12.17a1.23,1.23,0,0,0,.52-.35,1.25,1.25,0,0,0,1.87,0,1.25,1.25,0,0,0,.94.42,1.23,1.23,0,0,0,.93-.42,1.25,1.25,0,0,0,.94.42,1.22,1.22,0,0,0,.93-.42,1.28,1.28,0,0,0,.63.38v3.48a.35.35,0,0,1-.35.34"/><path d="M19.74,16h-.09v-3a.31.31,0,0,0-.31-.32H17.42a.31.31,0,0,0-.31.32v3H13.67a.34.34,0,0,1-.34-.34V12.17a1.23,1.23,0,0,0,.52-.35,1.25,1.25,0,0,0,1.87,0,1.25,1.25,0,0,0,.94.42,1.22,1.22,0,0,0,.93-.42,1.26,1.26,0,0,0,1.88,0,1.21,1.21,0,0,0,.62.38v3.48a.35.35,0,0,1-.35.34"/></svg>