<svg id="Layer_1" data-name="Layer 1" xmlns="http://www.w3.org/2000/svg" viewBox="0 0 24 24"><title>masked_icons_fonts</title><polyline points="16.72 15.41 16.85 15.47 16.72 15.41"/><polyline points="12.51 15.34 12.63 15.28 12.51 15.34"/><polyline points="12.83 15.21 12.93 15.17 12.83 15.21"/><polyline points="12.23 15.47 12.35 15.41 12.23 15.47"/><polyline points="16.43 15.28 16.56 15.34 16.43 15.28"/><polyline points="14.1 9.68 14.3 9.63 14.1 9.68"/><polyline points="13.22 15.08 13.23 15.07 13.22 15.08"/><polyline points="16.14 15.17 16.24 15.21 16.14 15.17"/><polyline points="17.21 15.71 17.28 15.77 17.21 15.71"/><polyline points="15.84 15.07 15.86 15.08 15.84 15.07"/><polyline points="11.79 15.77 11.86 15.72 11.79 15.77"/><polyline points="11.98 15.62 12.08 15.55 11.98 15.62"/><polyline points="16.98 15.55 17.09 15.62 16.98 15.55"/><polyline points="20.3 13.84 20.41 13.88 20.3 13.84"/><polyline points="20.6 13.95 20.73 14.01 20.6 13.95"/><polyline points="20 13.74 20.02 13.75 20 13.74"/><polyline points="20.89 14.08 21.01 14.14 20.89 14.08"/><polyline points="17.39 13.74 17.39 13.74 17.39 13.74"/><polyline points="21.15 14.22 21.25 14.29 21.15 14.22"/><polyline points="17 13.88 17.1 13.84 17 13.88"/><polyline points="15.96 14.44 16.02 14.38 15.96 14.44"/><polyline points="16.39 14.14 16.51 14.08 16.39 14.14"/><polyline points="16.68 14 16.8 13.95 16.68 14"/><polyline points="16.15 14.29 16.25 14.22 16.15 14.29"/><path d="M17.21,15.71l-.12-.09L17,15.55l-.13-.08-.13-.06-.16-.07-.13-.06-.19-.07-.1,0-.28-.09h0L15.5,15h0a1,1,0,0,1-1.93,0h0l-.34.1h0l-.29.09-.1,0-.2.07-.12.06-.16.07-.12.06-.15.08-.1.07-.12.1-.07,0,0,.06a4.13,4.13,0,0,0,5.59,0l0-.06-.07-.06m4.23-1.27-.07-.06-.12-.09-.1-.07L21,14.14l-.13-.06L20.73,14,20.6,14l-.19-.07-.11,0L20,13.75h0l-.34-.1h0a1,1,0,0,1-1.92,0h0l-.34.1h0l-.29.1-.1,0-.2.07-.13.05-.16.08-.12.06-.14.08-.1.06-.13.1-.06.06-.05.06a4.12,4.12,0,0,0,5.58,0l0-.06"/></svg>