<svg id="Layer_1" data-name="Layer 1" xmlns="http://www.w3.org/2000/svg" viewBox="0 0 24 24"><title>masked_icons_fonts</title><path d="M3.09,9.81v0a1.91,1.91,0,0,0,.5,1.2,2.46,2.46,0,0,0,1.13.74V18a1.81,1.81,0,0,0,1.81,1.81H17.42a1.75,1.75,0,0,0,1.29-.53A1.79,1.79,0,0,0,19.24,18V11.75A2,2,0,0,0,20.5,11,2.22,2.22,0,0,0,21,9.56h0L17.3,4.43a.35.35,0,0,0-.17-.15.57.57,0,0,0-.25-.06H7a.44.44,0,0,0-.25.08,1,1,0,0,0-.21.21L3.21,9.31A2.44,2.44,0,0,0,3.09,9.81Zm4.79,4h2.35V18.6H7.88ZM6,11.75a2.2,2.2,0,0,0,.61-.26,2.65,2.65,0,0,0,.53-.42,1.8,1.8,0,0,0,.71.57,2.28,2.28,0,0,0,.93.19h0a2.17,2.17,0,0,0,.9-.19,1.77,1.77,0,0,0,.73-.57h0a1.8,1.8,0,0,0,.71.57,2.28,2.28,0,0,0,.93.19,2.36,2.36,0,0,0,.94-.19,1.8,1.8,0,0,0,.74-.57,2.17,2.17,0,0,0,1.68.76,2.37,2.37,0,0,0,.95-.19,1.77,1.77,0,0,0,.73-.57,1.69,1.69,0,0,0,.42.38,2.13,2.13,0,0,0,.5.25V18a.6.6,0,0,1-.16.44.51.51,0,0,1-.43.19H11.28V13.18a.5.5,0,0,0-.17-.38.48.48,0,0,0-.37-.17H7.33A.52.52,0,0,0,7,12.8a.5.5,0,0,0-.17.38V18.6H6.61l0,0a.55.55,0,0,1-.44-.18A.64.64,0,0,1,6,18Zm-1.65-2L7.37,5.4h9.34L20,9.82a1,1,0,0,1-.36.65,1.06,1.06,0,0,1-.74.27,1,1,0,0,1-.77-.33,1.16,1.16,0,0,1-.32-.8.49.49,0,0,0-.17-.38.55.55,0,0,0-.42-.17.52.52,0,0,0-.38.17.56.56,0,0,0-.17.37v.17a1.08,1.08,0,0,1-.31.8,1.09,1.09,0,0,1-.82.34,1,1,0,0,1-.78-.34,1.12,1.12,0,0,1-.31-.8V9.6a.56.56,0,0,0-.17-.38.6.6,0,0,0-.38-.17.59.59,0,0,0-.42.17.52.52,0,0,0-.17.38,1.06,1.06,0,0,1-.34.82,1.13,1.13,0,0,1-.8.32,1.1,1.1,0,0,1-.8-.34A1.14,1.14,0,0,1,11,9.6a.51.51,0,0,0-.17-.4.66.66,0,0,0-.42-.15A.58.58,0,0,0,10,9.2a.51.51,0,0,0-.17.4v.13a1.1,1.1,0,0,1-.32.8,1,1,0,0,1-.77.33,1.09,1.09,0,0,1-.82-.33,1.16,1.16,0,0,1-.32-.8V9.6a.53.53,0,0,0-.19-.33A.57.57,0,0,0,7,9.14a.53.53,0,0,0-.36.13.57.57,0,0,0-.18.33,1.13,1.13,0,0,1-.32.8,1,1,0,0,1-.78.34h0a1,1,0,0,1-.73-.3A1.09,1.09,0,0,1,4.3,9.73Z"/></svg>