<svg id="Layer_1" data-name="Layer 1" xmlns="http://www.w3.org/2000/svg" viewBox="0 0 24 24"><title>masked_icons_fonts</title><path d="M20.75,8.25V7H18.26V3.25H17V7h-2.5V3.25H13.26V7h-2.5V3.25H9.51V7H7V3.25H5.75V7H2V8.25H5.75V9.5H2v1.25H5.75V12H2v1.25H5.75V14.5H2v1.25H5.75V17H2v1.25H5.75v2.49H7V18.26H9.51v2.49h1.25V18.26h2.5v2.49h1.25V18.26H17v2.49h1.25V18.26h2.49V17H18.26V15.75h2.49V14.5H18.26V13.25h2.49V12H18.26V10.75h2.49V9.5H18.26V8.25ZM9.51,17H7V15.75H9.51Zm0-2.51H7V13.25H9.51Zm0-2.5H7V10.75H9.51Zm0-2.5H7V8.25H9.51ZM13.26,17h-2.5V15.75h2.5Zm0-2.51h-2.5V13.25h2.5Zm0-2.5h-2.5V10.75h2.5Zm0-2.5h-2.5V8.25h2.5ZM17,17h-2.5V15.75H17Zm0-2.51h-2.5V13.25H17ZM17,12h-2.5V10.75H17Zm0-2.5h-2.5V8.25H17Z"/></svg>