<svg id="Layer_1" data-name="Layer 1" xmlns="http://www.w3.org/2000/svg" viewBox="0 0 24 24"><title>masked_icons_fonts</title><path d="M10.33,11.78a4.85,4.85,0,0,0,1-1.29,2.88,2.88,0,0,0,.32-1.37,3.23,3.23,0,0,0-.26-1.29,3.16,3.16,0,0,0-.73-1,3.47,3.47,0,0,0-1.11-.67,4,4,0,0,0-1.4-.24,3.8,3.8,0,0,0-1.41.25,3.23,3.23,0,0,0-1.11.72A3.29,3.29,0,0,0,4.91,8a3.89,3.89,0,0,0-.26,1.44H7.22a3.65,3.65,0,0,1,0-.38,1.17,1.17,0,0,1,.27-.79,1,1,0,0,1,.75-.31A.94.94,0,0,1,8.64,8,.87.87,0,0,1,9,8.27a1,1,0,0,1,.2.34,1.4,1.4,0,0,1,.07.4,2.31,2.31,0,0,1-.06.47,3.2,3.2,0,0,1-.31.72,7.73,7.73,0,0,1-.75,1.09c-.34.42-.8.94-1.39,1.56L4.47,15.18h7.29v-2H8.83ZM12,2A10,10,0,1,0,22,12,10,10,0,0,0,12,2Zm0,19a9,9,0,1,1,9-9A9,9,0,0,1,12,21Z"/></svg>