<svg id="Layer_1" data-name="Layer 1" xmlns="http://www.w3.org/2000/svg" viewBox="0 0 24 24"><path d="M13.21,18.4,13,18.21l-.22-.14-.28-.16-.26-.13-.32-.14-.27-.12-.39-.15L11,17.29l-.57-.18,0,0-.7-.2h0a2,2,0,0,1-3.95,0h0l-.7.2H5l-.59.2-.2.07-.42.16-.25.1-.33.16L3,17.91l-.29.17-.21.13-.25.2-.14.12-.1.12a8.44,8.44,0,0,0,11.45,0l-.09-.12-.15-.13m8.69-2.6-.14-.13-.25-.19-.22-.14L21,15.18l-.26-.13-.32-.15-.27-.11-.4-.15-.21-.08L19,14.37h0l-.7-.21h0a2,2,0,0,1-3.95,0h0l-.7.21h0l-.6.2-.2.07-.41.15-.25.11-.34.16-.24.12-.3.17-.2.13-.26.2-.13.12-.1.11a8.41,8.41,0,0,0,11.45,0l-.1-.11"/></svg>