<svg id="Layer_1" data-name="Layer 1" xmlns="http://www.w3.org/2000/svg" viewBox="0 0 24 24"><title>masked_icons_fonts</title><path d="M10.2,7.1a6.18,6.18,0,0,1,2.33-1.42L14.42,5a.67.67,0,0,0,.47-.67.68.68,0,0,0-.51-.64l-2.27-.59A7,7,0,0,0,10.4,2.9a6.9,6.9,0,0,0-4.87,2L3.7,6.73A.34.34,0,0,0,3.61,7l0,.33H3.3a.32.32,0,0,0-.25.1l-.95.94a.37.37,0,0,0-.1.24.35.35,0,0,0,.1.24l3,2.94a.35.35,0,0,0,.47,0l.93-.91a.33.33,0,0,0,.1-.23v-.3l.34,0a.36.36,0,0,0,.22-.09l.91-.92h0l.11-.11,5.54,5.8,0,.05,4.73,4.94a1.74,1.74,0,0,0,1.26.52A1.77,1.77,0,0,0,21,19.94a1.72,1.72,0,0,0,.53-1.23A1.83,1.83,0,0,0,21,17.42Z"/></svg>