<svg id="Layer_1" data-name="Layer 1" xmlns="http://www.w3.org/2000/svg" viewBox="0 0 24 24"><title>module-app-icon</title><path d="M4.8,8H8.53V7.47H4.8Zm0,2.13H8.53V9.6H4.8ZM11.2,16h3.2v-.53H11.2Zm0,1.6h3.2v-.53H11.2Zm0-3.73h3.2v-.54H11.2Zm-6.4-8H8.53V5.33H4.8Zm0,5.86H8.53V11.2H4.8ZM4.8,16H8.53v-.53H4.8Zm0,1.6H8.53v-.53H4.8Zm0-3.73H8.53v-.54H4.8Zm11.73,0h3.2v-.54h-3.2Zm0,2.13h3.2v-.53h-3.2Zm0-5.87h3.2V9.6h-3.2Zm0,1.6h3.2V11.2h-3.2Zm0-6.4v.54h3.2V5.33Zm0,2.67h3.2V7.47h-3.2ZM11.2,11.73h3.2V11.2H11.2Zm5.33,5.87h3.2v-.53h-3.2ZM11.2,10.13h3.2V9.6H11.2ZM11.2,8h3.2V7.47H11.2Zm0-2.13h3.2V5.33H11.2Z"/></svg>