<svg id="Layer_1" data-name="Layer 1" xmlns="http://www.w3.org/2000/svg" xmlns:xlink="http://www.w3.org/1999/xlink" viewBox="0 0 24 24"><defs><style>.cls-1{fill:none;}.cls-2{clip-path:url(#clip-path);}</style><clipPath id="clip-path"><rect class="cls-1" width="24" height="24"/></clipPath></defs><title>module-app-icon</title><g class="cls-2"><path d="M9.17,14.18Zm3.95-2.92Zm2.23,4.81A7.35,7.35,0,0,0,8,9.2a9.08,9.08,0,0,0-.91.05l-.39.05.06.39a8.17,8.17,0,0,0,8,6.78h.54ZM9.69,13.64h0a7.35,7.35,0,0,1-2-3.67L8,10A6.59,6.59,0,0,1,12.6,11.8h0a6.53,6.53,0,0,1,2,3.91A7.4,7.4,0,0,1,9.69,13.64Z"/></g></svg>