<?xml version="1.0" encoding="UTF-8"?><svg id="Layer_1" xmlns="http://www.w3.org/2000/svg" width="24" height="24" viewBox="0 0 24 24"><g id="TU_TruEmpower_Icon_Black"><path d="m18.8896737,12.550579h4.1103263v-1.1011574h-4.1103263c0,.1818732.0264548.3637458.0264548.5489259s-.0132274.3703589-.0264548.5522315Z"/><path d="m22.7685265,9.6836016l-.2744633-1.0614764-3.9681347,1.0614764c.123762.3465505.2188756.7026735.2843832,1.0647826l3.9582148-1.0647826Z"/><path d="m21.7996401,6.9753495l-.5489253-.9523524-3.5547874,2.0535097c.2061779.3040477.3885929.6235487.545619.9556589l3.5580936-2.0568163Z"/><path d="m17.262739,7.5143548l2.9165789-2.9033522-.79032-.7770932-2.906659,2.9033515c.2802961.2379623.5412494.4978106.7804.7770938Z"/><path d="m17.9770032,2.7492861l-.9523527-.5522321-2.0568157,3.5614011c.3323367.1515057.651924.3295458.9556589.5323913l2.0535094-3.5415603Z"/><path d="m15.3778748,1.5158575l-1.0614757-.284383-1.0647832,3.9681347c.3608565.0677647.715788.1639615,1.0614757.2876897l1.0647832-3.9714414Z"/><path d="m12.550579,5.1103263V1h-1.1011574v4.1103263c.1818732,0,.3637458-.0297611.5489259-.0297611s.3703589.0132271.5522315.0297611Z"/><path d="m9.6836016,1.2314745l-1.0614764.284383,1.0647826,3.9681346c.3456884-.1237286.7006205-.2199248,1.0614764-.2876897l-1.0647826-3.9648278Z"/><path d="m6.9753495,2.1970539l-.9523524.5522321,2.0535097,3.5415603c.3032864-.2073968.6228864-.3898673.9556589-.5456184l-2.0568163-3.548174Z"/><path d="m7.5143548,6.7372616l-2.9033522-2.9033522-.7770932.7770932,2.9033515,2.9033522c.2388144-.2784885.4986053-.5382794.7770938-.7770932Z"/><path d="m2.7492861,6.0229971l-.5522321.9523524,3.5614011,2.0568163c.1515057-.3323367.3295458-.6519234.5323913-.9556589l-3.5415603-2.0535097Z"/><path d="m1.5158575,8.6221252l-.284383,1.0614764,3.9681347,1.0647826c.068179-.3618417.1643651-.7178404.2876897-1.0647826l-3.9714414-1.0614764Z"/><path d="m1.2314745,14.316399l.284383,1.0614757,3.9681346-1.0647832c-.1237286-.3456877-.2199248-.7006193-.2876897-1.0614757l-3.9648278,1.0647832Z"/><path d="m2.1970539,17.0246505l.5522321.9523527,3.5415603-2.0535094c-.2073968-.3032871-.3898673-.6228858-.5456184-.9556589l-3.548174,2.0568157Z"/><path d="m6.7372616,16.482339l-2.9033522,2.906659.7770932.79032,2.9033522-2.9033515c-.2798061-.2433689-.5396682-.5087599-.7770932-.7936275Z"/><path d="m6.0229971,21.2507149l.9523524.5489253,2.0568163-3.5580949c-.3321103-.1570261-.6516112-.3394411-.9556589-.545619l-2.0535097,3.5547886Z"/><path d="m8.6221252,22.4940632l1.0614757.2843832,1.0647826-3.9681347c-.3611214-.0650939-.7161797-.1602188-1.0614751-.2843832l-1.0647832,3.9681347Z"/><path d="m11.4494216,18.8896737v4.1103263h1.1011574v-4.1103263c-.1818726,0-.3637452.0264548-.5522315.0264548s-.3670527-.0132274-.5489259-.0264548Z"/><path d="m14.316399,22.765219l1.0614757-.2711558-1.0647832-3.9681347c-.3452954.1241644-.7003543.2192893-1.0614757.2843832l1.0647832,3.9549073Z"/><path d="m17.0246505,21.7996401l.9523527-.5489253-2.0535094-3.5547874c-.3040477.2061779-.6235493.3885929-.9556589.545619l2.0568157,3.5580936Z"/><path d="m16.482339,17.262739l2.906659,2.9165789.79032-.79032-2.9033515-2.906659c-.2424051.2817279-.5078655.5427644-.7936275.7804Z"/><path d="m21.2507149,17.9770032l.5489253-.9523527-3.5580949-2.0568157c-.1570261.3321096-.3394411.6516112-.545619.9556589l3.5547886,2.0535094Z"/><path d="m22.4940632,15.3778748l.2876907-1.0614757-3.9681347-1.0647832c-.0661712.3612198-.1624023.7162787-.2876907,1.0614757l3.9681347,1.0647832Z"/><path d="m17.0610253,11.4494216h-2.2386895c.0405325.1836266.0626871.3708313.0661358.5588458-.0007329.1820227-.0184447.3635799-.0529084.5423115h2.235382l-.0099199-1.1011574Z"/><path d="m14.716519,11.0658353l1.9410789-1.1209979-.5489253-.9523521-1.9476926,1.1243047c.243881.2781176.4324342.6002298.555539.9490452Z"/><path d="m12.9308591,9.2900947c.3550236.1172517.6832304.3038352.9655789.5489253l1.1243054-1.9476926-.9523527-.5522321-1.1375315,1.9509995Z"/><path d="m11.9983463,9.1313695c.1854954.0001861.3705027.0190187.5522315.0562153v-2.2353827h-1.1011561v2.2519163c.1800744-.0425817.3639741-.0669539.5489246-.0727489Z"/><path d="m10.1167895,9.83902c.2784317-.2435883.6020115-.4300961.9523527-.5489253l-1.1243047-1.9509995-.9523521.5522321,1.1243041,1.9476926Z"/><path d="m9.283481,11.0658353c.1218232-.349409.3105132-.6717557.555539-.9490458l-1.9476926-1.1243047-.5522321.9523521,1.9443857,1.1209985Z"/><path d="m9.1214489,12.0082675c.0001867-.187684.0190174-.3748849.0562153-.5588458h-2.2254621v1.1011574h2.2353827c-.0389071-.1783128-.0610491-.3598738-.0661358-.5423115Z"/><path d="m9.8257932,13.8964379c-.2462456-.2819675-.4359725-.6086568-.5588458-.9622726l-1.9377727,1.1209979.5522321.9523527,1.9443864-1.1110779Z"/><path d="m10.1101758,14.1742074l-1.1176916,1.9344652.9523527.5489253,1.1143842-1.931159c-.3489031-.1213653-.6711332-.3088639-.9490452-.5522315Z"/><path d="m11.9983463,14.8884716c-.1842832.000748-.3681779-.0169764-.5489253-.0529084v2.2287696h1.101158v-2.2320758c-.1817288.037196-.366736.0560292-.5522327.0562146Z"/><path d="m12.9374715,14.7264389l1.1176916,1.931159.9523527-.5489253-1.1110779-1.9344652c-.2806115.2448145-.6063761.4324102-.9589664.5522315Z"/><path d="m14.1742074,13.8964379l1.9344652,1.1176916.5489253-.9523527-1.9377727-1.1209979c-.1189131.3505909-.3041499.6750386-.5456178.9556589Z"/><path d="m5.0805653,11.9983463c0-.1851801,0-.3670527.0297611-.5489253H1v1.101158h4.1103263c0-.1818726-.0297611-.3637452-.0297611-.5522327Z"/></g></svg>