<?xml version="1.0" encoding="UTF-8"?><svg id="Layer_1" xmlns="http://www.w3.org/2000/svg" width="24" height="24" viewBox="0 0 24 24"><g id="TU_TruValidate_Icon_Black"><path d="m16.1557641,12.804243l-1.304285-2.2824987c-.8788104-1.5226115-2.8255482-2.0445153-4.3481603-1.1657043-1.5226115.878811-2.0445153,2.8255488-1.1657043,4.3481603l1.304285,2.2824987c1.4380724,2.4968847,3.5276492,4.5560316,6.0453611,5.9573205l.5314965-.958649c-2.3418633-1.3048559-4.285826-3.2206451-5.6247289-5.5432111l-1.304285-2.2824987c-.5499828-1.0128491-.1747553-2.2797759.8380944-2.8297586.9753199-.5296046,2.1945445-.2031757,2.7747743.7429028l1.304285,2.2824993c1.275303,2.2136695,3.3058435,3.893437,5.7192899,4.7312932l.3586779-1.0369066c-2.1640394-.7533108-3.984683-2.2602908-5.1291005-4.2454477Z"/><path d="m18.4382628,11.4869161l-1.304285-2.2824987c-1.6063509-2.7823009-5.1640555-3.7355963-7.9463564-2.1292454-2.7823003,1.6063509-3.735596,5.1640561-2.1292454,7.9463564h.0000006l1.304285,2.2824987c1.2721802,2.2190181,2.9922662,4.1489787,5.0508435,5.6671173l.6521425-.8836528c-1.9358515-1.4297286-3.5545626-3.2449502-4.7541187-5.3312643l-1.304285-2.2824987c-1.1765608-2.3270974-.2438674-5.1673729,2.08323-6.3439337,2.1462111-1.0851063,4.7650939-.3836434,6.0815936,1.6289432l1.304285,2.2824993c1.0021842,1.7366456,2.6214763,3.0323118,4.5356522,3.629172l.3260712-1.0466884c-1.6476297-.5189521-3.0397576-1.6387063-3.899813-3.136805Z"/><path d="m20.7175013,10.1630664l-1.304285-2.2824987c-2.3480926-4.0378911-7.5199309-5.4157842-11.5657473-3.0813732-4.0339885,2.3478982-5.4113607,7.5148656-3.0813732,11.5592255l1.304285,2.2824987c.8754255,1.5049412,1.9321818,2.8967929,3.1465877,4.1443652l.7890924-.7630055c-1.1490521-1.1896406-2.1477728-2.5157927-2.97377-3.9487242l-1.304285-2.2824987c-1.9033969-3.5871954-.5384083-8.0382002,3.0487874-9.9415974,3.4064938-1.8075147,7.630664-.6761752,9.6777728,2.5919519l1.304285,2.2824987c.5973217,1.0385479,1.5297501,1.8433572,2.644438,2.2824993l.4043276-1.0206033c-.8852101-.3497606-1.6231903-.9933354-2.0901154-1.8227383Z"/><path d="m3.435725,17.1149052C.6746376,12.3438793,2.3040149,6.2378942,7.0750412,3.4768067c2.2976682-1.329706,5.0303987-1.6892939,7.5938376-.9992395,2.5611365.6765468,4.7450926,2.3497396,6.0649246,4.6465154l1.304285,2.2824987.9619117-.5477998-1.304285-2.2824987C18.6355892,1.2729757,11.8556871-.5454815,6.5523793,2.5146446c-.0030655.0017692-.006131.0035399-.0091953.0053119C1.2421574,5.581887-.5737592,12.3609203,2.4868578,17.662705c.4682854.8115062,1.0368578,1.5608379,1.6923098,2.2303273l.7630068-.7890931c-.5828525-.5978354-1.0889045-1.2659989-1.5064493-1.9890341Z"/><path d="m13.8765268,14.1215711h0l-1.304285-2.2824987c-.1512712-.2620222-.4863107-.3518043-.7483329-.2005331-.2620235.1512699-.3518055.4863107-.2005344.7483329l1.304285,2.2824987h0c1.4353832,2.4664847,3.6223594,4.4089386,6.2410034,5.5432111l.4369355-1.0075602c-2.4039308-1.0385995-4.411792-2.8201908-5.7290716-5.0834507Z"/></g></svg>