<?xml version="1.0" encoding="UTF-8"?><svg id="Layer_1" xmlns="http://www.w3.org/2000/svg" width="24" height="24" viewBox="0 0 24 24"><g id="TU_TruIQ_Icon_Black"><circle cx="11.9978423" cy="12.0000011" r=".8476583"/><circle cx="11.9978423" cy="15.3841144" r=".8476582"/><circle cx="11.9978423" cy="18.7682287" r=".8476582"/><circle cx="11.9978423" cy="22.1523419" r=".8476582"/><circle cx="11.9978423" cy="1.8476586" r=".8476584"/><path d="m8.8158629,3.2528157c.4399745-.1599554.6669748-.6462949.5070193-1.0862695-.1599549-.4399746-.6462949-.6669749-1.0862694-.5070195-.4399745.1599555-.6669748.6462949-.5070193,1.0862696.000204.0005617.0004092.0011232.0006144.0016844.1585751.4385598.6426485.6655322,1.0812083.5069569.0014837-.0005365.0029662-.0010772.0044468-.0016219Z"/><path d="m6.0153292,4.8698876c.3572009-.2998139.4037219-.8324296.1039077-1.1896302-.2998139-.3572008-.8324296-.4037219-1.1896305-.1039078-.3570367.2996766-.4037045.8319799-.1042593,1.1892109.2995823.3573949.8321678.4042614,1.1895627.1046791.0001399-.0001172.0002795-.0002347.0004194-.000352Z"/><path d="m3.6288443,6.190279c-.4041144-.2327492-.9203946-.0938305-1.153144.3102838-.2327493.4041149-.0938304.9203952.3102841,1.1531444.4037334.2325297.9195131.094114,1.1525812-.3093088.2332881-.403804.095058-.9202684-.3087458-1.1535567-.0003251-.0001878-.0006501-.0003753-.0009755-.0005628Z"/><path d="m1.8520214,11.0675759c.4606906.0832325.9016271-.2227582.9848593-.6834486.0832323-.460691-.2227582-.9016275-.6834487-.9848594-.4606906-.0832325-.9016271.2227582-.9848594.6834486-.0004087.0022622-.0008082.0045264-.0011985.0067917-.080912.4591209.2255639.8969438.6846473.9780676Z"/><path d="m2.8333492,13.6138119c-.0809384-.4592714-.5188646-.7659697-.9781354-.6850311-.4592709.0809385-.76597.5188647-.6850316.9781348.0809384.4592714.5188646.7659697.9781355.6850324.0001281-.0000236.0002561-.000046.0003842-.0000684.4590834-.0811238.7655593-.5189467.6846473-.9780676Z"/><path d="m2.7844458,16.3426215c-.403352.2340688-.5405835.7507993-.3065153,1.1541512.2340683.4033519.7507994.5405842,1.1541515.3065155s.5405835-.7507993.3065153-1.1541512c-.0000106-.0000187-.0000211-.0000361-.0000317-.0000547-.234086-.4033134-.7507892-.5405171-1.1541198-.3064607Z"/><path d="m4.825347,19.2311802c-.2995823.3573955-.2527162.8899805.1046791,1.1895624.3573949.2995832.8899801.2527165,1.1895627-.1046791.2994449-.3572301.2527771-.889534-.1042596-1.1892105-.3579453-.2981032-.8893689-.2515126-1.1899822.1043271Z"/><path d="m8.8158629,20.7439258c-.439635-.1608858-.9264538.0650854-1.0873396.5047203-.1608865.439635.0650847.9264525.5047197,1.0873396s.9264538-.0650841,1.0873396-.5047203c.0002058-.0005609.0004104-.001123.000615-.0016852.1597161-.4393166-.066357-.9250086-.5053347-1.0856544Z"/><path d="m15.1733026,20.7439258c-.4405491.1583661-.6693048.6438816-.5109387,1.0844319.1583661.4405491.6438816.6693036,1.0844319.5109387.4405491-.1583649.6693036-.6438828.5109387-1.0844319-.0006728-.0018705-.0013519-.0037385-.0020371-.005604-.1591571-.438349-.6435309-.6646784-1.0818799-.5055212l-.0005149.0001866Z"/><path d="m17.9803569,19.1268531c-.3588507.300649-.406032.8352786-.1053842,1.1941292.300649.3588507.8352786.406032,1.1941292.1053842.3588507-.300649.4060333-.8352798.1053842-1.1941292-.0002948-.0003532-.0005907-.0007052-.0008867-.0010571-.3008853-.357949-.8348047-.4046304-1.1932425-.1043271Z"/><path d="m21.2144999,16.3426215c-.4041143-.2327492-.9203946-.0938292-1.1531438.3102851s-.0938292.9203946.3102851,1.1531438c.4037337.2325291.9195128.094114,1.1525804-.3093088.2315852-.4044364.0932348-.9199705-.3097217-1.1541201Z"/><path d="m22.1436637,12.929165c-.4595388-.0794038-.8964376.228757-.9758415.6882958s.228757.8964376.6882958.9758415c.4586682.0792533.8949726-.2276141.9754534-.6860696.0788889-.4597688-.2285406-.8968717-.6879078-.9780676Z"/><path d="m21.1623364,10.3829291c.0791688.4614061.5173921.7712708.9787977.6921015.4614068-.0791688.7712715-.5173915.6921015-.9787983-.0791675-.4614061-.5173921-.7712702-.9787977-.6921015-.0013979.00024-.0027958.0004838-.0041937.0007307-.4593671.081196-.7667955.5182988-.6879078.9780676Z"/><path d="m21.2144999,7.6541201c.4045819-.2319365.5445379-.7479363.312602-1.1525176-.2319371-.4045819-.7479363-.5445385-1.1525183-.312602s-.5445379.7479363-.312602,1.1525176c.0005509.0009614.0011044.0019215.0016591.0028804.2328773.4025423.7474028.5410127,1.1508592.3097217Z"/><path d="m19.1735994,4.7655605c.3012323-.358361.2549203-.8930666-.1034404-1.194299s-.8930673-.2549204-1.1942996.1034404c-.3012323.358361-.2549203.8930666.1034404,1.194299.000352.000296.0007052.0005914.0010571.0008867.3584378.300303.8923571.2536216,1.1932425-.1043271Z"/><path d="m15.7601429,1.6520451c-.439635-.1608859-.9264538.065085-1.0873396.5047202-.1608858.4396352.0650854.9264537.5047203,1.0873397s.9264538-.0650851,1.0873396-.5047202c.0002052-.0005614.0004104-.0011229.0006144-.0016847.1610313-.437664-.0632248-.9230022-.5008886-1.0840332-.00148-.0005448-.0029624-.0010854-.0044461-.0016218Z"/><circle cx="11.9978423" cy="5.2317725" r=".8476585"/><path d="m8.1931599,5.4045647c-.4060003.2294439-.5491277.7445734-.3196835,1.1505738s.7445734.5491271,1.1505738.3196835c.4035329-.22805.5478001-.7387549.3232299-1.1442347-.223477-.4072623-.7347925-.5562499-1.1420546-.3327729-.0040401.0022172-.0080621.0044673-.0120655.0067504Z"/><circle cx="5.2296149" cy="12.0000011" r=".8476585"/><path d="m9.0375584,17.1283357c-.4036653-.2335278-.9202124-.0956027-1.1537395.3080626s-.0956033.9202118.3080626,1.1537395c.4036653.2335265.9202118.0956027,1.1537395-.3080626.0005547-.0009589.0011075-.001919.0016584-.0028804.231291-.4034564.0928212-.9179819-.309721-1.1508592Z"/><path d="m15.8057859,18.6052175c.4059997-.2294435.5491271-.7445734.3196835-1.1505731-.2294435-.4060009-.7445734-.5491283-1.1505731-.3196835-.4035335.2280494-.5478001.7387543-.3232305,1.1442341.2259426.4079585.7398226.5555121,1.1477811.3295695.002118-.001174.004231-.0023555.006339-.003547Z"/><circle cx="18.7660712" cy="12.0000011" r=".8476582"/><path d="m16.1155075,6.5586842c.2327492-.4041146.0938292-.9203946-.3102851-1.1531438-.4041143-.2327489-.9203946-.0938295-1.1531438.3102851-.2325291.4037331-.094114.9195122.3093088,1.1525804.4038034.2332884.920269.0950586,1.1535567-.3087454.0001878-.0003252.0003756-.0006504.0005634-.0009763Z"/><circle cx="11.9978423" cy="8.6158869" r=".8476585"/><path d="m15.6623364,14.1126272c.2251653-.4083888.0766342-.9219853-.3317547-1.1471505-.4083888-.2251665-.9219865-.0766342-1.1471518.3317547-.2229578.4043842-.0797222.9128666.3215267,1.1414184.4052224.2308141.9208324.0894291,1.1516477-.3157933.0019339-.0033965.0038455-.0068066.0057321-.0102292Z"/><path d="m18.5932796,15.8046838c.227629-.4090828.0805318-.9252387-.3285509-1.1528677s-.92524-.0805318-1.1528677.3285509c-.2266478.4073192-.0818887.9212104.3240389,1.1503393.4052224.2308141.9208324.0894291,1.1516477-.3157933.0019339-.0033965.0038455-.0068066.0057321-.0102292Z"/><path d="m6.5597869,7.8823361c-.4079591-.2259432-.9218382-.0783902-1.1477811.3295689s-.0783899.9218385.3295692,1.1477811c.4054795.2245702.9161851.080303,1.1442344-.3232299.2294442-.4060003.0863168-.9211296-.3196835-1.1505738-.002108-.0011908-.004221-.0023736-.006339-.0035463Z"/><path d="m9.4907295,9.5743927c-.4041149-.2327492-.9203946-.0938299-1.1531438.3102851-.2327492.4041143-.0938299.9203946.3102851,1.1531438.4037331.2325291.9195122.094114,1.1525804-.3093088.2332884-.4038034.0950586-.9202684-.3087454-1.1535567-.0003252-.0001884-.0006504-.0003756-.0009763-.0005634Z"/><path d="m15.3526147,11.0382345c.4030211-.2346384.5395209-.7515635.3048825-1.154584s-.7515629-.5395209-1.154584-.3048825c-.4011357.2335415-.5385595.7470726-.3076783,1.1497449.2319657.4045645.7479761.5444838,1.1525406.3125175.0016155-.0009265.0032286-.0018587.0048391-.0027958Z"/><path d="m18.283558,9.3461773c.4052224-.2308147.5466086-.7464247.3157933-1.1516471-.2308141-.405223-.746424-.5466086-1.1516464-.3157939-.4012501.2285512-.5444844.7370343-.3215267,1.1414184.2251653.4083888.738763.5569206,1.1471505.3317553.0034238-.0018873.0068328-.0037982.0102292-.0057327Z"/><path d="m5.7186487,14.6505636c-.4060003.2294435-.5491274.7445734-.3196835,1.1505731.2294439.4060009.7445734.5491283,1.1505738.3196835.4035329-.2280494.5478001-.7387543.3232299-1.1442341-.2259432-.4079585-.739822-.5555121-1.1477811-.3295695-.002118.001174-.004231.0023555-.006339.003547Z"/><path d="m8.6528517,12.9585071c-.4060003.2294435-.5491277.7445734-.3196835,1.1505731.2294442.4060009.7445734.5491283,1.1505738.3196835.4035329-.2280494.5478001-.7387543.3232299-1.1442341-.223477-.407262-.7347925-.5562496-1.1420546-.3327732-.0040401.0022175-.0080621.0044673-.0120655.0067507Z"/></g></svg>