<?xml version="1.0" encoding="UTF-8"?><svg id="Layer_1" xmlns="http://www.w3.org/2000/svg" width="24" height="24" viewBox="0 0 24 24"><g id="TU_TruContact_Icon_Black"><path d="m22.9999672,12c0-4.5551572-2.7832489-8.4721184-6.7383858-10.1404792l-.4058583.9657835c3.5783905,1.5095311,6.0966814,5.0534511,6.0966814,9.1746956s-2.5182556,7.6652302-6.0966814,9.1747272l.4058583.9657495c3.9551369-1.6683936,6.7384186-5.5853194,6.7384186-10.1404792l-.0000328.0000025Z"/><path d="m2.047564,12c0-4.1212798,2.5182228-7.6651974,6.0966133-9.1747285l-.4058583-.9657507C3.7832477,3.5279144,1,7.4448428,1,12s2.7832818,8.4721184,6.7383517,10.1404792l.4058583-.9657495c-3.5783905-1.509497-6.0966461-5.0533843-6.0966461-9.17476v.0000303Z"/><path d="m20.4390356,12c0-3.4946261-2.1352901-6.4996927-5.1695695-7.7796966l-.4058583.9657179c2.657634,1.1211074,4.5278323,3.753134,4.5278323,6.8139787s-1.8701983,5.6929054-4.5278323,6.8140455l.4058583.9657823c3.0342794-1.2800039,5.1695695-4.2850376,5.1695695-7.7798278Z"/><path d="m4.6083972,12c0-3.0608118,1.8702639-5.6928726,4.5278979-6.8139799l-.4058583-.9657179c-3.0342794,1.2800026-5.1696036,4.2851045-5.1696036,7.7796978s2.1353241,6.4998264,5.1696036,7.7798278l.4058583-.9657495c-2.657634-1.1211402-4.5278979-3.7532337-4.5278979-6.8140455v-.0000328Z"/><path d="m7.1692303,12c0-2.0003792,1.2223075-3.720515,2.9591826-4.4532301l-.4058583-.9657179c-2.113523.8915802-3.600887,2.9847874-3.600887,5.418948s1.4873665,4.5274007,3.6009198,5.4189796l.4058583-.9657167c-1.7369078-.7326823-2.9592154-2.4527853-2.9592154-4.4532629Z"/><path d="m17.8783009,12c0-2.4341606-1.4874321-4.5273351-3.6009526-5.4189468l-.4058583.9657167c1.736875.7326823,2.9592154,2.4528509,2.9592154,4.4531973s-1.2223404,3.7205806-2.9592482,4.4532301l.4058583.9657167c2.1135558-.8915789,3.6009879-2.984723,3.6009879-5.4189796l-.0000025.0000656Z"/><path d="m15.3173365,12c0-1.3737255-.8394076-2.5549118-2.0321716-3.0580657l-.4058583.9656838c.8161186.3442599,1.3904344,1.1524682,1.3904344,2.0923819s-.5743158,1.7481573-1.3904319,2.0924803l.4058255.9656838c1.1927968-.503222,2.0321716-1.6844387,2.0321716-3.0581667l.0000303.0000025Z"/><path d="m9.7300963,12c0-.9399465.5743815-1.7481245,1.3905-2.0924147l-.4058583-.9656838c-1.192764.5031892-2.0322372,1.6843731-2.0322372,3.0580985s.8394404,2.5549774,2.0322372,3.0581995l.4058255-.9656838c-.8161186-.3443255-1.3905-1.1525691-1.3905-2.0924803l.0000328-.0000353Z"/><path d="m12.7566018,12c0-.31326-.1915169-.582587-.4635547-.6973513-.0902157-.0380444-.1892326-.0592183-.2931133-.0592183s-.2028623.0211411-.2930805.0591855c-.272005.1147642-.4635219.3840913-.4635219.6973841s.1915169.5826855.4635219.6974169c.0901829.0380444.189167.0591855.2930477.0591855s.2028951-.0211411.2930805-.0591855c.2720732-.1147314.4635875-.3840231.4635875-.6973841l.0000328-.0000328Zm-.7633516.7223945c-.4024509,0-.7286793-.3262283-.7286793-.7286793s.3262283-.7286793.7286793-.7286793.7286793.3262283.7286793.7286793-.3262283.7286793-.7286793.7286793Z"/><path d="m11.9932527,11.2650334c-.4024509,0-.7286793.3262283-.7286793.7286793s.3262283.7286793.7286793.7286793.7286793-.3262283.7286793-.7286793-.3262283-.7286793-.7286793-.7286793Z"/></g></svg>