<svg id="Layer_1" data-name="Layer 1" xmlns="http://www.w3.org/2000/svg" viewBox="0 0 24 24"><path d="M12,5.77936l1.818,3.68371.2909.5893.65039.09448,4.06506.5907-2.94165,2.86731-.47058.45874.11108.6477.69446,4.04877-3.636-1.91156L12,16.54266l-.58167.30585-3.636,1.91156.69446-4.04877.11108-.6477-.47058-.45874L5.17566,10.73755l4.06506-.5907.65039-.09448.2909-.5893L12,5.77936M12,2.9549l-2.939,5.955-6.57166.9549L7.24475,14.5,6.12219,21.0451,12,17.9549l5.87781,3.0902L16.75525,14.5l4.75537-4.63525L14.939,8.90985Z"/></svg>