<?xml version="1.0" encoding="UTF-8"?><svg id="Layer_1" xmlns="http://www.w3.org/2000/svg" width="24" height="24" viewBox="0 0 24 24"><path d="M5.6660461,17.99823h11.3339233v-.6626587H5.6660461v.6626587ZM18.3252869,4.5300903h.008606l-2.5301514-2.5300903H4.3321838V20.993103h13.993103V4.5300903Zm-2.3236084-.197937v-1.1876221l1.196228,1.196228h-1.196228v-.008606Zm.3356323,.6712646v7.3321533h-1.3338623v-.99823c0-.5593872-.4561157-1.006897-1.006897-1.006897h-1.6695557v-.395874c.395874-.1376953,.6626587-.5163574,.6626587-.9380493v-.6626587h.3356323v-.998291h-.3356323v-.3355713h.6626587v-.6626587c0-.9208374-.7487183-1.6609497-1.6695557-1.6695557h-1.3339233c-.9207764,0-1.6608887,.7487183-1.6694946,1.6695557v1.996521h.6626587v.6626587c0,.4216919,.2667847,.800354,.6626587,.9380493v.395874h-1.6695557c-.5507812,0-.998291,.4475098-.998291,.998291v.998291h-1.2994995V4.005127H15.3390808v.998291h.99823Zm-3.0206299,6.996582l.0430298-.998291h.6368408c.1807251,0,.3356323,.1463013,.3356323,.3356323v.99823h-5.998291v-.99823c0-.1807251,.1463013-.3356323,.3356323-.3356323h.6626587v.998291h3.9844971Zm-2.994812-3.6661377h.008606v-.3012085c.7486572-.3700562,1.40271-.9207764,1.9104614-1.5834351,.0602417,.0602417,.0860596,.1376953,.0860596,.2237549v2.3321533c0,.1807251-.1463013,.3356323-.3356323,.3356323h-1.3339233c-.1806641,0-.3355713-.1463013-.3355713-.3356323v-.6712646Zm-.4475098-.8347778c-.0688477,.0258179-.1376953,.0516357-.2151489,.0688477v-1.2305908c0-.5507812,.4475098-.998291,.99823-.998291h1.3425293c.5507812,0,.998291,.4475098,.998291,.998291h-.0602417c-.0258179-.0688477-.0602417-.1376953-.1032715-.197937-.008606-.0172119-.0172119-.0344238-.0258179-.0430298-.0430298-.0602417-.0860596-.1204834-.1463013-.1635132-.0516357-.0516357-.1118774-.0946655-.1807251-.1290894l-.0516357-.0258179c-.0688477-.0344238-.1376953-.0602417-.2151489-.0774536l-.206543-.0516357-.1290894,.1721191c-.4991455,.7315063-1.196228,1.3167114-2.005127,1.6781006Zm1.789978,2.5043335v.3356323h-.6626587v-.3356323h.6626587Zm1.0327148,.998291l-.0172119,.3356323h-2.6763916v-.3356323h2.6936035Zm4.9655762,9.3287354H5.0034485V2.6712036H15.3304749v.6626587H5.6660461V12.99823h11.3339233V5.003418h.6626587v15.3270264Zm0-17.6592407v.6626587h1.3339233V21.3287354H5.3390808v.6712646h14.3287354V2.6712036h-2.005188ZM5.6660461,16.3287354h11.3339233v-.6626587H5.6660461v.6626587Zm0-1.6695557h11.3339233v-.6626587H5.6660461v.6626587Z"/></svg>