<svg id="Layer_1" data-name="Layer 1" xmlns="http://www.w3.org/2000/svg" viewBox="0 0 24 24"><path d="M15.45081,6.023,15.0874,9.36487l-.09887.90973.83728.36914L18.90173,12l-3.07592,1.35626-.83728.36914.09887.90973.36341,3.34192L12.7384,15.99139,12,15.45087l-.7384.54052L8.54919,17.977l.36341-3.34192.09887-.90973-.83728-.36914L5.09827,12l3.07592-1.35626.83728-.36914L8.9126,9.36487,8.54919,6.023,11.2616,8.00861,12,8.54913l.7384-.54052L15.45081,6.023M17,3.33972,12,7,7,3.33972,7.66992,9.5,2,12l5.66992,2.5L7,20.66028,12,17l5,3.66028L16.33008,14.5,22,12,16.33008,9.5Z"/></svg>