<?xml version="1.0" encoding="UTF-8"?><svg id="Layer_1" xmlns="http://www.w3.org/2000/svg" width="24" height="24" viewBox="0 0 24 24"><path d="m4.6391602,6.1392212h14.7216797c.8283691,0,1.5-.6715698,1.5-1.5s-.6716309-1.5-1.5-1.5H4.6391602c-.8283691,0-1.5.6715698-1.5,1.5s.6716309,1.5,1.5,1.5Zm14.7216797,11.7214966H4.6391602c-.8283691,0-1.5.6715698-1.5,1.5s.6716309,1.5,1.5,1.5h14.7216797c.8283691,0,1.5-.6715698,1.5-1.5s-.6716309-1.5-1.5-1.5Zm0-7.3607178H4.6391602c-.8283691,0-1.5.6715698-1.5,1.5s.6716309,1.5,1.5,1.5h14.7216797c.8283691,0,1.5-.6715698,1.5-1.5s-.6716309-1.5-1.5-1.5Z"/></svg>