<?xml version="1.0" encoding="UTF-8"?><svg id="Layer_1" xmlns="http://www.w3.org/2000/svg" width="24" height="24" viewBox="0 0 24 24"><path d="M20.4594727,13.0211182c-1.1764526-1.1765137-2.7696533-1.6557617-4.303894-1.4845581v-3.9679565c0-.553894-.2077026-1.1077881-.6231689-1.4539795-.4154053-.3462524-.9000854-.6231689-1.4540405-.6231689h-.0692139c-.2769775-1.177124-1.3848267-2.0772095-2.7003784-2.0772095H5.7695923c-1.5232544,0-2.7695923,1.2463379-2.7695923,2.7695923v5.5391846c0,1.3155518,.9001465,2.354187,2.0772095,2.7003784v.0692139c0,.5539551,.2077026,1.1078491,.6231689,1.4540405,.4154053,.3461914,.9000854,.6231689,1.4540405,.6231689h4.3425293c-.0454102,1.4025879,.4536133,2.8190308,1.5241699,3.8896484,2.0540161,2.0540161,5.3843384,2.0540161,7.4383545,0,2.0540161-2.0540771,2.0540161-5.3843384,0-7.4383545ZM5.0772095,7.5686035v6.0931396c-.8308716-.2769775-1.3848267-1.0385742-1.3848267-1.9387207V6.1838379c0-1.177063,.9001465-2.0772095,2.0772095-2.0772095h5.5391846c.9001465,0,1.6617432,.5539551,1.9387207,1.3848267H7.1544189c-.5539551,0-1.1078491,.2077026-1.4540405,.6231689-.3462524,.4154053-.6231689,.9000854-.6231689,1.4539795Zm6.486084,8.3088379H7.1544189c-.7616577,0-1.3848267-.6231689-1.3848267-1.3848267V7.5686035c0-.7615967,.6231689-1.3847656,1.3848267-1.3847656h6.9239502c.7616577,0,1.3848267,.6231689,1.3848267,1.3847656v4.0159302l.1225586,.0367432c-.9389038,.2108154-1.8338623,.6690674-2.5646362,1.3998413-.8064575,.8064575-1.2846069,1.8108521-1.4578247,2.8563232Zm8.7522583,3.6469727l-.7050171,.7050171-2.7949829-2.7949829-2.7949829,2.7950439-.7050781-.7050781,2.7950439-2.7949829-2.7949829-2.7949829,.7050171-.7050171,2.7949219,2.7949829,2.7949829-2.7949829,.7050781,.7050171-2.7949829,2.7949829,2.7949829,2.7949829Z"/></svg>