<?xml version="1.0" encoding="UTF-8"?><svg id="Layer_1" xmlns="http://www.w3.org/2000/svg" width="24" height="24" viewBox="0 0 24 24"><path d="M5.6056519,10.4741821c-.8394775,0-1.5200195,.680542-1.5200195,1.5200806,0,.8394775,.680542,1.5200195,1.5200195,1.5200195,.8395386,0,1.5200806-.680542,1.5200806-1.5200195,0-.8395386-.680542-1.5200806-1.5200806-1.5200806Zm0-6.0006714c-.8394775,0-1.5200195,.680542-1.5200195,1.5200806,0,.8394775,.680542,1.5200195,1.5200195,1.5200195,.8395386,0,1.5200806-.680542,1.5200806-1.5200195,0-.8395386-.680542-1.5200806-1.5200806-1.5200806Zm0,12.0013428c-.8394775,0-1.5200195,.680542-1.5200195,1.5200806,0,.8394775,.680542,1.5200195,1.5200195,1.5200195,.8395386,0,1.5200806-.680542,1.5200806-1.5200195,0-.8395386-.680542-1.5200806-1.5200806-1.5200806Zm3.1565552,3h11v-3H8.762207v3Zm0-5.9748535h11v-3H8.762207v3Zm0-8.9749146v3h11v-3H8.762207Z"/></svg>