<?xml version="1.0" encoding="UTF-8"?><svg id="Layer_1" xmlns="http://www.w3.org/2000/svg" width="24" height="24" viewBox="0 0 24 24"><path d="M6.043457,3.328125h-.1923828l-1.3613281,.8271484v.5517578l1.0498047-.6240234v2.9863281h-1.0800781v.4560547h2.6630859v-.4560547h-1.0791016V3.328125Zm.6054688,8.0009766c.2216797-.2822266,.3359375-.5576172,.3359375-.9111328,0-.3300781-.0839844-.59375-.2646484-.7978516-.1972656-.2216797-.4970703-.3662109-.9111328-.3662109-.6357422,0-1.1816406,.4863281-1.2470703,1.1455078l.5097656,.0966797c.0654297-.4501953,.3359375-.7617188,.7373047-.7617188,.234375,0,.3955078,.078125,.5039062,.203125,.1015625,.1201172,.15625,.2763672,.15625,.4804688,0,.2636719-.0664062,.4550781-.3417969,.796875l-1.6552734,2.0517578v.2333984h2.5898438v-.4794922h-1.7685547l1.3554688-1.6914062Zm-.8339844,5.5371094c-.0419922,0-.1318359,.0058594-.1679688,.0175781l1.0673828-1.4453125v-.1611328h-2.2783203v.4794922h1.5107422l-.953125,1.3066406,.2099609,.2822266c.1259766-.0595703,.2460938-.078125,.3720703-.078125,.4970703,0,.8388672,.3125,.8388672,.8876953,0,.5761719-.3535156,.8876953-.8388672,.8876953-.4863281,0-.7617188-.2880859-.8339844-.7861328l-.5039062,.0664062c.0722656,.7314453,.6416016,1.1992188,1.3378906,1.1992188,.796875,0,1.3544922-.5634766,1.3544922-1.3671875,0-.7734375-.4736328-1.2890625-1.1152344-1.2890625Zm2.9472656-3.3662109h11v-3H8.762207v3Zm0,5.9748535h11v-3H8.762207v3Zm0-14.9497681v3h11v-3H8.762207Z"/></svg>