<svg id="Layer_1" data-name="Layer 1" xmlns="http://www.w3.org/2000/svg" viewBox="0 0 24 24"><path d="M14.39917,6.208l-.11206,2.19281-.07056,1.38275,1.38269-.07068,2.19287-.112L16.16235,11.0722,15.13464,12l1.02771.9278,1.62976,1.47137-2.19287-.112-1.38269-.07068.07056,1.38275.11206,2.19281-1.47131-1.6297L12,15.13464l-.92786,1.02771-1.47131,1.6297.11206-2.19281.07056-1.38275-1.38269.07068-2.19287.112L7.83765,12.9278,8.86536,12l-1.02771-.9278L6.20789,9.60083l2.19287.112,1.38269.07068L9.71289,8.40076,9.60083,6.208l1.47131,1.6297L12,8.86536l.92786-1.02771L14.39917,6.208m1.42761-3.44672L12,7,8.17322,2.76123l.29126,5.70325L2.76123,8.17316,7,12,2.76123,15.82684l5.70325-.29132-.29126,5.70325L12,17l3.82678,4.23877-.29126-5.70325,5.70325.29132L17,12l4.23877-3.82684-5.70325.29132Z"/></svg>