<?xml version="1.0" encoding="UTF-8"?><svg id="Layer_1" xmlns="http://www.w3.org/2000/svg" width="24" height="24" viewBox="0 0 24 24"><g id="TU_TruLookup_Icon_Black"><path d="m17.8484791,17.0805974h0l-.7715331-.7715331h0l.7715331.7715331Z"/><path d="m19.3882487,18.6203658h0l-.7682365-.7748297h0l.7682365.7748297Z"/><path d="m19.3882487,18.6203658l-.7715331-.7715331h0l-.7682353-.7682353h0l-.7715331-.7715331h0l-.7649399-.7715331h0l-.7748297-.7748297c.6152963-.7794558.9498386-1.7435889.9495795-2.7366342-.0018212-2.4601238-1.9976218-4.4529723-4.4577455-4.4511511-2.4601238.0018206-4.4529723,1.9976218-4.4511511,4.4577455.0018187,2.4575479,1.9936007,4.4493311,4.4511486,4.4511511.9930453.0002591,1.9571784-.3342832,2.7366342-.9495795l.1088066.1088066h0l4.5203922,4.5072033c.2670696-.2439896.5242469-.4978691.7649387-.7649387l-.7682365-.7715331-.0032953.0065945Zm-7.3592397-3.2246122c-1.8592056,0-3.3663897-1.5071848-3.3663891-3.366391.0000006-1.8592056,1.5071848-3.3663897,3.3663904-3.3663891s3.3663897,1.5071842,3.3663897,3.3663891c-.0018175,1.8584528-1.5079382,3.3645735-3.366391,3.366391Z"/><path d="m12.029009,21.9109212c-5.4628949.004416-9.8950262-4.420556-9.899442-9.8834503-.0044158-5.4628955,4.4205559-9.8950268,9.8834508-9.8994426,5.4628955-.0044158,9.8950268,4.4205559,9.8994415,9.8834514.0016678,2.0619614-.6410931,4.0728978-1.8384053,5.7516276l.7715344.7748297c3.610607-4.885283,2.5772794-11.7725642-2.3080049-15.3831717C13.6523004-.4558424,6.7650192.5774866,3.1544117,5.4627701-.456196,10.3480537.577133,17.2353349,5.4624165,20.845942c3.8853867,2.8716059,9.1897802,2.8716059,13.075167,0l-.7781276-.7781276c-1.6701745,1.1989725-3.6744762,1.8436238-5.7304469,1.8431068Z"/><path d="m12.029009,3.2358644c-4.8583323-.0061464-8.8017716,3.9273275-8.8079179,8.7856598-.0061462,4.858333,3.9273276,8.8017717,8.7856606,8.8079184,1.7804325.0022514,3.5196406-.535802,4.9877656-1.5430524l-.7649387-.784722c-3.5821829,2.3075069-8.3567211,1.2741779-10.6642283-2.3080049-2.3075075-3.5821829-1.2741786-8.3567211,2.3080046-10.6642283,3.5821835-2.3075075,8.3567205-1.2741786,10.6642286,2.3080046,1.6389518,2.5443153,1.6389518,5.8119078,0,8.3562237l.784722.784722c2.7369146-4.0118623,1.7033656-9.4828264-2.3084955-12.2197417-1.4576327-.9944052-3.180715-1.527289-4.9452343-1.5293736l-.0395667.0065945Z"/><path d="m12.029009,5.405389c-3.6583121-.0075019-6.6300419,2.9520644-6.6375439,6.6103759-.0075022,3.6583127,2.9520641,6.6300429,6.6103762,6.6375442,1.2045092.0024702,2.3868943-.3235406,3.4199352-.9429561l-.7946131-.7913165c-2.7072101,1.432534-6.0631346.3992051-7.495668-2.3080049-1.4325337-2.7072101-.3992051-6.0631346,2.3080049-7.495668,2.7072088-1.4325337,6.0631339-.3992051,7.495668,2.3080049.8586257,1.6226355.8586257,3.565027,0,5.1876631l.7946131.7946131c1.8683187-3.1410276.8365834-7.2019055-2.3044455-9.0702239-1.0273319-.6110687-2.2009982-.9324589-3.396327-.9300317Z"/></g></svg>