<svg id="Layer_1" data-name="Layer 1" xmlns="http://www.w3.org/2000/svg" viewBox="0 0 24 24"><path d="M12,6.37335l.52039,1.61347.4934,1.52942,1.361-.8545,1.43579-.90143-.63843,1.57044-.60523,1.48871,1.5918.22027,1.67944.23236-1.49853.79279-1.42053.7514,1.07788,1.1919L17.134,15.26562l-1.65759-.35595-1.571-.33747.05944,1.60584.06275,1.69421-1.0409-1.33819L12,15.26556l-.98669,1.2685-1.0409,1.33819.06275-1.69421.05944-1.60584-1.571.33747-1.65759.356,1.13708-1.25744,1.07788-1.1919-1.42053-.7514-1.49853-.79279,1.67944-.23236,1.5918-.22027L8.82788,9.33075,8.18945,7.76031l1.43579.90143,1.361.8545.4934-1.52942L12,6.37335m0-4.07184L10.28992,7.60309l-4.71778-2.962,2.09778,5.1604L2.152,10.56506,7.07593,13.1698,3.33972,17.30151,8.786,16.13177l-.20618,5.56672L12,17.30151l3.42017,4.397L15.214,16.13177l5.44629,1.16974L16.92407,13.1698l4.924-2.60474-5.51794-.76355,2.09778-5.1604-4.71778,2.962Z"/></svg>