<svg id="Layer_1" data-name="Layer 1" xmlns="http://www.w3.org/2000/svg" viewBox="0 0 24 24"><path d="M12,5.89923l1.00671,2.55.4242,1.07452,1.10461-.33831L17.157,8.38263l-1.36609,2.37714-.57568,1.00152.95325.65265,2.26208,1.54895-2.7102.41406-1.14185.17444.084,1.1521.19946,2.73438-2.01355-1.86072L12,15.79315l-.84839.784L9.13806,18.43787l.19946-2.73438.084-1.1521L8.27966,14.377l-2.7102-.41406,2.26208-1.54895.95325-.65265-.57568-1.00152L6.843,8.38263l2.62146.80286,1.10461.33831.4242-1.07452L12,5.89923m0-3.404L9.83057,7.9903,4.18164,6.26025l2.94373,5.12232L2.25073,14.72034l5.84009.89227-.42969,5.89221L12,17.49518l4.33887,4.00964-.42969-5.89221,5.84009-.89227-4.87464-3.33777,2.94373-5.12232L14.16943,7.9903Z"/></svg>