<?xml version="1.0" encoding="UTF-8"?><svg id="Layer_1" xmlns="http://www.w3.org/2000/svg" width="24" height="24" viewBox="0 0 24 24"><path d="m14.1213379,12l6.7077637-6.7078247c.5858154-.5857544.5858154-1.5355225,0-2.1212769-.5856934-.5858154-1.5355225-.5858154-2.1213379,0l-6.7077637,6.7077637L5.2922363,3.1708984c-.5858154-.5858154-1.5356445-.5858154-2.1213379,0-.5858154.5857544-.5858154,1.5355225,0,2.1212769l6.7077637,6.7077637-6.7077637,6.7078247c-.5858154.5858154-.5858154,1.5355225,0,2.1213379.5856934.5857544,1.5355225.5857544,2.1213379,0l6.7077637-6.7078247,6.7077637,6.7078247c.5858154.5857544,1.5356445.5857544,2.1213379,0,.5858154-.5858154.5858154-1.5355225,0-2.1213379l-6.7077637-6.7077637Z"/></svg>