<?xml version="1.0" encoding="UTF-8"?><svg id="Layer_1" xmlns="http://www.w3.org/2000/svg" width="24" height="24" viewBox="0 0 24 24"><g id="TU_TruVision_Icon_Black"><path d="m23,10.8636429l-.4141114-.9977766-6.8018367,2.8172525,5.9442713-5.9442719-.7630058-.7630058-5.2171334,5.2171334,3.2281018-7.7735289-.9977772-.41411-2.8205133,6.798577V1.4010671h-1.0792937v7.3659402l-3.2150587-7.7670073-.9977766.41411,2.8172525,6.8018381L6.7388469,2.2716763l-.7630058.7630057,5.2171334,5.2171334-7.7735289-3.2248404-.41411.9945158,6.798577,2.8205126H1.4010671v1.0792943h7.3659402l-7.7670073,3.2150593.41411.9977772,6.8018381-2.8172519-5.9442717,5.94427.7630057.7630058,5.2171334-5.2171334-3.2248404,7.7767903.9945161.4108487,2.8205123-6.8018379v8.4061059h1.0792943v-7.3659391l3.2150581,7.7670073.9977772-.4141089-2.8172519-6.8018392,5.9442713,5.9442713.7630058-.7630058-5.2171334-5.2171334,7.7670073,3.2183188.4108487-.9977772-6.792055-2.8107303h8.4061059v-1.0792937h-7.3626789l7.7637472-3.2150587Zm-10.9983693,4.2389209c-1.7179998.0017999-3.1121733-1.3894543-3.1139732-3.1074547-.0018005-1.7179998,1.3894543-3.1121733,3.1074541-3.1139732,1.7180004-.0018005,3.1121739,1.3894543,3.1139738,3.1074541.0000025.002173.0000025.0043461,0,.0065191.0018011,1.7180004-1.3894518,3.1121752-3.1074522,3.1139763h-.0000025v-.0065216Z"/></g></svg>