<?xml version="1.0" encoding="UTF-8"?><svg id="Layer_1" xmlns="http://www.w3.org/2000/svg" width="24" height="24" viewBox="0 0 24 24"><g id="TU_TruAudience_Icon_Black"><path d="m19.7831847,4.2185868c-4.2975551-4.2966473-11.2645337-4.2959109-15.5611807.0016447-4.2966474,4.2975551-4.2959112,11.2645337.0016444,15.5611807,4.2969135,4.2960063,11.2626232,4.2960063,15.5595364,0,4.289087-4.3010602,4.289087-11.2617659,0-15.5628254Zm-.7703708,14.7924546c-3.8720908,3.8750876-10.1524197,3.8775142-14.0275063.0054234-3.8750865-3.8720908-3.8775147-10.1524197-.0054234-14.027506,3.8720911-3.8750866,10.15242-3.8775148,14.0275063-.0054237.0018086.0018074.003616.0036151.0054234.0054237,3.8720908,3.8310772,3.9053401,10.0757289.0742617,13.9478209-.0246223.0248846-.0493758.0496394-.0742617.0742617Z"/><path d="m17.6241613,6.3776109c-.0628195-.0628202-.1289461-.1190272-.1950726-.178541.1100108-.5887469-.2780812-1.1552024-.8668281-1.2652135-.2435945-.0455173-.4954302-.0062344-.7135902.1113096-3.8159168-2.1551759-8.6564447-.8088792-10.8116206,3.0070382-1.7637885,3.1229331-1.2135076,7.0407446,1.3423341,9.5569591.0628202.0628195.1289461.1157205.1950726.1785413-.113454.5862333.2698092,1.1534429.8560424,1.266897.247249.0478496.5034467.0078867.7243764-.1129924,3.8159162,2.1551766,8.6564447.8088821,10.8116212-3.0070348,1.7637902-3.1229344,1.2135104-7.0407477-1.3423354-9.5569635Zm-.770372,10.4744059c-2.1491213,2.1466479-5.4536013,2.6254408-8.1236156,1.1770487.00686-.3012719-.1131022-.5915785-.3306315-.8001277-.2933115-.2888674-.7245669-.3874046-1.1142285-.2545864l-.1322525-.1223333c-2.6891874-2.6692406-2.705358-7.0131047-.0361174-9.7022921,2.1512591-2.1673351,5.4760599-2.6518888,8.1564273-1.1887109-.0236234.5948161.4394189,1.096161,1.034235,1.1197843.1409053.0055962.2815395-.0165111.4139314-.0650696l.1322531.1223339c2.5354248,2.6531261,2.4153176,6.946048-.0000013,9.7139531Z"/><path d="m15.4684437,8.5333285c-1.9161238-1.9135641-5.0206987-1.9114893-6.9342628.0046339-.674727.6756294-1.1375038,1.5335637-1.3315252,2.4684897-.1220804.0543672-.2339163.1292974-.3306315.2215231-.4250929.4193296-.429764,1.1038704-.0104338,1.5289627.0976309.0989735.2134341.1781869.3410653.2333039.5440927,2.6527761,3.1356668,4.362201,5.7884429,3.8181089s4.362201-3.1356668,3.8181089-5.7884423c-.1932993-.9424456-.6595767-1.8072034-1.3407639-2.48658Zm-.770372,6.1629707c-1.4904135,1.486013-3.9021863,1.486013-5.3925999,0-.5025348-.5021489-.8532096-1.1358849-1.0117323-1.8283919.0434258-.028285.0833755-.0615759.1190275-.0991892.4254643-.4241413.4265364-1.1128834.0023945-1.5383483-.0007965-.000799-.0015949-.0015974-.0023945-.0023945-.0366787-.0355126-.07652-.0676066-.1190275-.0958834.4805284-2.0498394,2.5317967-3.3220178,4.5816361-2.8414895.6899151.1617319,1.3210983.5125574,1.822696,1.0130969,1.4878317,1.4896606,1.4878317,3.9029393,0,5.3925999Z"/><path d="m13.3887711,10.6130004c-.7660182-.7679214-2.0095226-.7694646-2.7774446-.0034464-.7679214.7660188-.7694639,2.0095232-.0034458,2.7774446s2.0095232.7694639,2.7774446.0034458c.0011503-.0011465.002298-.0022955.0034458-.0034458.7628612-.7673236.7628612-2.0066747,0-2.7739982Zm-.770372,2.0036274c-.345025.3295834-.8882304.3295834-1.2332554,0-.3396476-.3421001-.3376593-.894765.0044409-1.2344126.1624161-.161252.3816684-.2522619.6105339-.2534292.4820709.0006388.8723486.391952.8717092.8740236-.000304.2300045-.0913795.4505937-.2534286.6138182Z"/></g></svg>