<?xml version="1.0" encoding="UTF-8"?><svg id="Layer_1" xmlns="http://www.w3.org/2000/svg" width="24" height="24" viewBox="0 0 24 24"><path d="M16.7402954,11.4805908c-.2003174,0-.3902588,.0371704-.5847168,.05896v-3.9709473c0-.553894-.2077026-1.1077881-.6231689-1.4539795-.4154053-.3462524-.9000854-.6231689-1.4540405-.6231689h-.0692139c-.2769775-1.177124-1.3848267-2.0772095-2.7003784-2.0772095H5.7695923c-1.5232544,0-2.7695923,1.2463379-2.7695923,2.7695923v5.5391846c0,1.3155518,.9001465,2.354187,2.0772095,2.7003784v.0692139c0,.5539551,.2077026,1.1078491,.6231689,1.4540405,.4154053,.3461914,.9000854,.6231689,1.4540405,.6231689h4.3433838c-.0018921,.0579224-.0172119,.1120605-.0172119,.1704712,0,2.9048462,2.3548584,5.2597046,5.2597046,5.2597046s5.2597046-2.3548584,5.2597046-5.2597046-2.3548584-5.2597046-5.2597046-5.2597046ZM5.0772095,7.5686035v6.0931396c-.8308716-.2769775-1.3848267-1.0385742-1.3848267-1.9387207V6.1838379c0-1.177063,.9001465-2.0772095,2.0772095-2.0772095h5.5391846c.9001465,0,1.6617432,.5539551,1.9387207,1.3848267H7.1544189c-.5539551,0-1.1078491,.2077026-1.4540405,.6231689-.3462524,.4154053-.6231689,.9000854-.6231689,1.4539795Zm2.0772095,8.3088379c-.7616577,0-1.3848267-.6231689-1.3848267-1.3848267V7.5686035c0-.7615967,.6231689-1.3847656,1.3848267-1.3847656h6.9239502c.7616577,0,1.3848267,.6231689,1.3848267,1.3847656v4.0159302l.1151733,.0345459c-2.0672607,.4677124-3.6606445,2.1489868-4.0108032,4.2583618H7.1544189Zm10.1452637,1.4069214v3.9526978h-.9970093v-3.9526978h-3.9527588v-.9970703h3.9527588v-3.9526978h.9970093v3.9526978h3.9526978v.9970703h-3.9526978Z"/></svg>