<?xml version="1.0" encoding="UTF-8"?><svg id="Layer_1" xmlns="http://www.w3.org/2000/svg" width="24" height="24" viewBox="0 0 24 24"><path d="m20.9942337,10.7114876l-.6382643-.1597427-.7563356.7286181,1.1784031.2949337c.3076104.0770113.3315235.3445127.3315235.4246762,0,.0802178-.0239132.3477193-.3315235.4247306l-1.3995185.3502736c-.4747308.118805-.8338089.4720134-.9604944.9447334s.0077174.958103.3594585,1.298431l1.0368535,1.0031033c.2278817.220436.1148376.4640786.074783.5335355-.0401089.0694026-.194675.2891864-.4994592.202012l-1.3871271-.3964152c-.4706004-.1343486-.9581574-.0080979-1.3042462.337991-.3460345.3460888-.4723395.8335915-.3378823,1.3041375l.3964152,1.3871271c.08712.304893-.1326094.4594047-.2020663.4994592-.0694026.0401089-.3132082.1530443-.5335355-.0747287l-1.0031033-1.0369078c-.3402736-.3516867-.825711-.4861439-1.2983223-.3594041-.4727743.1266311-.8259827.4857092-.9448421.9604944l-.3502736,1.3994641c-.0769569.3076104-.3445127.3315235-.4246762.3315235s-.3477193-.0239132-.4246762-.3315235l-.350328-1.3994641c-.118805-.4747852-.4720134-.8338089-.9447334-.9604944-.1171202-.0314132-.2350013-.0467394-.3513063-.0467394-.352991,0-.6910907.1415769-.9470704.4061435l-1.0031033,1.0369078c-.2203273.227773-.4640786.1148376-.5335355.0747287-.0694569-.0400546-.2891864-.1945663-.2020663-.4994592l.3964152-1.3871271c.1344573-.4706004.0080979-.958103-.3379366-1.3041919-.3461432-.3460345-.8336458-.4723395-1.3041919-.3379366l-1.3871271.3964152c-.3047843.08712-.4594047-.1326094-.4994592-.2020663-.0401089-.0694026-.153153-.3130452.074783-.5334812l1.0368535-1.0031576c.351741-.3403279.4860896-.825711.3594041-1.298431s-.4857092-.8258741-.96044-.944679l-1.3995185-.3502736c-.3076104-.0770113-.3315235-.3445127-.3315235-.4247306,0-.0801635.0239132-.3476649.3315235-.4246762l1.3995185-.3502736c.4747308-.118805.8338089-.4719591.96044-.944679.1266855-.4727743-.0076631-.9581574-.3594041-1.2984853l-1.0368535-1.0031033c-.227936-.220436-.1148376-.464133-.074783-.5335355.0401089-.0694569.194675-.289132.4994592-.2020663l1.3871271.3964152c.4704917.1343486.9580487.0080979,1.3041375-.3378823.3460888-.3460888.4724482-.8335915.337991-1.3041919l-.3964152-1.3871815c-.08712-.3048386.1326094-.4593503.202012-.4994049.0695656-.0401089.3132626-.1530443.5335899.0747287l1.0031033,1.0368535c.3402192.3516867.8252762.4860353,1.2983766.3594585.47272-.1266855.8258741-.4857092.9447334-.9604944l.350328-1.3995185c.0769569-.307556.3445127-.3314692.4246762-.3314692s.3477193.0239132.4246762.3314692l.3502736,1.3995728c.1188593.4747308.4720678.8338089.9448421.96044.4728287.1265224.9580487-.0077718,1.2983223-.3594585l1.0031033-1.0368535c.2203273-.227773.4641873-.1148376.5335899-.0747287.0694026.0400546.289132.1945663.202012.4994049l-.3964152,1.3871815c-.1344573.470546-.0081522.9580487.3379366,1.3041375.3460345.3460345.8338089.4722852,1.3041919.3379366l1.3871271-.3964152c.3047299-.08712.4593503.1325551.4994049.2020663.0401089.0694026.153153.3130995-.0747287.5335355l-1.0368535,1.0031033c-.351741.3402736-.4861439.8256567-.3594585,1.2983766.0196468.0732884.046685.1425008.0770385.2096207l1.9384073-1.8710971c.4457089-.431198.5367964-1.0816907.2267404-1.6187588-.3100017-.5371225-.9191898-.7833195-1.5152256-.6130468l-1.3871271.3964152c-.2236969.0641308-.3750564-.0565764-.4298936-.1113593-.0547829-.0547829-.1752727-.2063055-.1113593-.4298393l.3964152-1.3871815c.1703814-.5962532-.0759787-1.2051696-.6129925-1.5152256s-1.1875065-.2190229-1.6188131.2267404l-1.0031033,1.0368535c-.161577.1670661-.3530997.1385334-.4278828.1184789-.0748374-.0200545-.2550014-.0910331-.3114691-.3165778l-.3502736-1.3995185c-.1505443-.601525-.6683732-1.005712-1.2884853-1.005712s-1.137941.404187-1.2884853,1.005712l-.350328,1.3995185c-.0564677.2255447-.2365774.2965234-.3113604.3165778-.0748917.0200545-.2662514.0485872-.4279371-.1184789l-1.0031033-1.0368535c-.431361-.4457089-1.0819081-.5366877-1.6188131-.2267404-.5370138.310056-.7833738.9189724-.6129925,1.5152256l.3964152,1.3871815c.0639134.2235338-.0566307.3750564-.1114136.4298393-.0547286.0547286-.2060881.1752183-.4298393.1113593l-1.3871271-.3964152c-.5961989-.1704901-1.2052239.0759243-1.51528.6130468-.310056.5370681-.2189142,1.1876152.2267947,1.6187588l1.0368535,1.0031033c.1671205.1616313.1385334.3531541.1184789.4279915-.0200545.074783-.0910331.254947-.3165778.3113604l-1.3995185.3502736c-.6015794.1505986-1.0057663.6683732-1.0057663,1.2884853,0,.6201664.404187,1.137941,1.0057663,1.2885396l1.3995185.3502736c.2255447.0564134.2965234.236523.3165778.3113604s.0486416.2663058-.1184789.4279915l-1.0368535,1.0031033c-.4457089.4311436-.5368507,1.0816363-.2267947,1.6187044s.9190811.7834282,1.51528.6130468l1.3870728-.3964152c.2238599-.0639134.3751651.0566307.429948.1113593.0547286.0547829.1752727.2063598.1113593.4298936l-.3964152,1.3871271c-.1703814.5962532.0759787,1.2052239.6130468,1.51528.5368507.310056,1.1875065.2189686,1.6187588-.2267404l1.0031033-1.0369078c.161577-.1670661.3531541-.138479.4278828-.1184246.0748374.0200545.254947.0910331.3114147.3165778l.350328,1.3994641c.1505443.6015794.6683732,1.0057663,1.2884853,1.0057663s1.137941-.404187,1.2884853-1.0057663l.3502736-1.3994098c.0564677-.2255991.2366317-.2965777.3114691-.3166322.0747287-.0200545.2663058-.0486416.4278828.1184246l1.0031033,1.0369078c.431198.4457089,1.081745.536742,1.6187588.2267404.5370681-.310056.7834282-.9190267.6130468-1.51528l-.3964152-1.3871271c-.0639134-.2235338.0565764-.3750564.1113593-.4298393.0548373-.0547286.2064685-.1753814.4298936-.1114136l1.3871271.3964152c.5961445.170327,1.2051152-.0759787,1.51528-.6130468.3100017-.5370138.2189142-1.1875065-.2267947-1.6187044l-1.0368535-1.0031033c-.1671205-.1616857-.1385334-.3531541-.1184789-.4279915.0200545-.074783.0910331-.2548927.3165778-.3113604l1.3995185-.3502736c.6015794-.1505986,1.0057663-.6683732,1.0057663-1.2885396,0-.6201121-.404187-1.1378866-1.0057663-1.2884853Zm-10.0103805,2.9063201l-1.8121838-1.8122381-.6296773.6296773,2.1270224,2.1270224c.0835331.0834787.1967402.1303811.3148387.1303811s.2313056-.0469024.3148387-.1303811l5.2263328-5.2263871-.6296773-.6296773-4.9114941,4.9116028Z"/></svg>