<?xml version="1.0" encoding="UTF-8"?><svg id="Layer_1" xmlns="http://www.w3.org/2000/svg" width="24" height="24" viewBox="0 0 24 24"><path d="m16.7021719,11.0824307h-.7775624v-3.3423783c0-3.1650895-2.5749629-5.7400524-5.7400524-5.7400524s-5.7400524,2.5749629-5.7400524,5.7400524v3.3423783h-.7775624c-.7724889,0-1.4009805.6284916-1.4009805,1.4009805v8.1156083c0,.7724889.6284916,1.4009805,1.4009805,1.4009805h13.0352297c.7724889,0,1.4009805-.6284916,1.4009805-1.4009805v-.7599476h-.933987v.7599476c0,.2574963-.2094972.4669935-.4669935.4669935H3.6669422c-.2574963,0-.4669935-.2094972-.4669935-.4669935v-8.1156083c0-.2574963.2094972-.4669935.4669935-.4669935h13.0352297c.2574963,0,.4669935.2094972.4669935.4669935v2.0139665h.933987v-2.0139665c0-.7724889-.6284916-1.4009805-1.4009805-1.4009805Zm-1.7115494,0H5.3784916v-3.3423783c0-2.6500969,2.1559685-4.8060654,4.8060654-4.8060654s4.8060654,2.1559685,4.8060654,4.8060654v3.3423783Zm1.9778817,5.1396648l-1.0133394.3292669v-1.0654999h-.933987v1.0654999l-1.0133964-.3292669-.2885646.8882682,1.0133679.3292527-.6262969.8620026.7555581.5489682.6262826-.8619884.6262541.8619884.7556721-.5489682-.6262613-.8620026,1.0133323-.3292527-.2886216-.8882682Zm4.7655341.8882682l-.2886216-.8882682-1.0133394.3292669v-1.0654999h-.933987v1.0654999l-1.0133394-.3292669-.2886216.8882682,1.0133608.3292669-.6262898.8619884.7555581.5489682.6263254-.8620454.6263254.8620454.7555581-.5489682-.6262898-.8619884,1.0133608-.3292669Zm-13.7194733-.8882682l-1.0132824.3292384v-1.0654714h-.933987v1.0654714l-1.0132824-.3292384-.2886216.8882682,1.0133109.3292527-.6262969.8620026.7555581.5489682.6263254-.8620454.6263254.8620454.7555581-.5489682-.6262969-.8620026,1.0133109-.3292527-.2886216-.8882682Zm4.4770266,0l-1.0133964.3292669v-1.0654999h-.933987v1.0654714l-1.0132824-.3292384-.2886216.8882682,1.0132824.3292384-.6262684.8620169.7556721.5489682.6262541-.8619884.6262826.8619884.7555581-.5489682-.6262969-.8620026,1.0133679-.3292527-.2885646-.8882682Z"/></svg>