<?xml version="1.0" encoding="UTF-8"?><svg id="Layer_1" xmlns="http://www.w3.org/2000/svg" width="24" height="24" viewBox="0 0 24 24"><path d="m17.2599304,2.0762679v18.6166476c0,.2402385-.1954032.4356949-.4356949.4356949H7.1757645c-.2402917,0-.4356949-.1954564-.4356949-.4356949V3.3070846c0-.2402385.1954032-.4356949.4356949-.4356949h8.7770813v-.8713897H7.1757645c-.7207686,0-1.3070846.5863691-1.3070846,1.3070846v17.3858309c0,.7207155.5863159,1.3070846,1.3070846,1.3070846h9.6484711c.7207686,0,1.3070846-.5863691,1.3070846-1.3070846V3.3070846c0-.5677808-.3645328-1.0508107-.8713897-1.2308167Zm-4.0430483,1.6889558h-2.4337642v.8713897h2.4337642v-.8713897Zm-.7817191,16.486705v-.8702994h-.870326v.8702994h.870326Z"/></svg>