<?xml version="1.0" encoding="UTF-8"?><svg id="Layer_1" xmlns="http://www.w3.org/2000/svg" width="24" height="24" viewBox="0 0 24 24"><path d="m4.1553235,19.460866c-.2200883,0-.3991431-.1790549-.3991431-.399198v-1.2743944c0-2.6925155,1.5944879-5.0184184,3.8881346-6.0867407-.3022374-.1659713-.5878255-.3583292-.854954-.5728494-2.3423327,1.2990255-3.9319657,3.7967146-3.9319657,6.65959v1.2743944c0,.7157257.5822574,1.2979832,1.2979283,1.2979832h8.013473c-.1963898-.2809252-.3660366-.5816129-.5052649-.8987852h-7.5082081Z"/><path d="m20.0004169,20.2364961l-.4544121-.4544052c.5303623-.667746.8483437-1.5113994.8483437-2.428411,0-2.0790167-1.6303647-3.7838231-3.679539-3.9047564-.9682073-1.3902809-2.3872884-2.4434762-4.0439573-2.9459023,1.3912958-.7760415,2.3348447-2.262227,2.3348447-3.9652642,0-2.5021052-2.0356519-4.537757-4.5377022-4.537757-2.50216,0-4.5378119,2.0356519-4.5378119,4.537757s2.0356519,4.537757,4.5378119,4.537757c2.0861756,0,3.9519064.9576336,5.1837589,2.4554214-1.759609.3818904-3.0819489,1.9504445-3.0819489,3.8227445,0,2.1572161,1.7550009,3.9122719,3.912217,3.9122719.9170253,0,1.7607061-.3179677,2.428459-.8483369l.4685653.4685653v1.1138197h.8987852v-.8647187h.8647735v-.8987852h-1.1421879ZM6.828968,6.537757c0-2.0065226,1.6324493-3.6389719,3.6390267-3.6389719,2.0064677,0,3.638917,1.6324493,3.638917,3.6389719s-1.6324493,3.6389719-3.638917,3.6389719c-2.0065774,0-3.6390267-1.6324493-3.6390267-3.6389719Zm9.6530538,13.8294097c-1.6616335,0-3.0134319-1.3518532-3.0134319-3.0134867s1.3517984-3.0134867,3.0134319-3.0134867,3.0135416,1.3518532,3.0135416,3.0134867c0,.669042-.2194574,1.2876425-.5897729,1.7882172l-.6256497-.6256497c.21751-.335289.3452731-.7339933.3452731-1.1625674,0-1.1818498-.9615422-2.143392-2.143392-2.143392s-2.1432823.9615422-2.1432823,2.143392.9614324,2.143392,2.1432823,2.143392c.4285742,0,.8273059-.1277631,1.1625949-.3453005l.6256497.6256497c-.5005746.3703018-1.1192026.5897455-1.7882446.5897455Zm.3177346-3.3312762l-.6354692.6355789.8200372.8200235c-.1538204.0681742-.3235221.1067938-.5023026.1067938-.6862672,0-1.2444971-.5583396-1.2444971-1.2446068s.5582299-1.2446068,1.2444971-1.2446068,1.2446068.5583396,1.2446068,1.2446068c0,.1787806-.0386197.3484822-.1067801.5022752l-.8200921-.8200647Z"/></svg>