<?xml version="1.0" encoding="UTF-8"?><svg id="Layer_1" xmlns="http://www.w3.org/2000/svg" width="24" height="24" viewBox="0 0 24 24"><path d="m21.9320829,10.2610133l-.5452224-1.6781579c-.2342019-.7204964-1.0107189-1.1164424-1.731439-.8821287l-4.7996569,1.5595195c-.140946.0457893-.2907257.022084-.4107059-.0650219-.1199802-.0871618-.1888039-.2222374-.1888039-.3705634V3.7779431c0-.7576199-.6163943-1.3740142-1.3740142-1.3740142h-1.7644811c-.7576199,0-1.3740142.6163943-1.3740142,1.3740142v5.0467178c0,.148326-.0688237.2834016-.1888039.3705634-.1199802.0871059-.269704.1108112-.4107618.0650219l-4.7997128-1.5595195c-.3490385-.1133271-.7212792-.0840868-1.0483455.0825214-.3270105.1666082-.5695986.4505689-.6829817.7996633l-.5452224,1.678102c-.113383.3490385-.0840868.7213351.0825214,1.0483455s.4505689.5695986.7996633.6829817l4.821685,1.5666758c.1411138.0458452.2482909.1530223.2941361.2940802.0457893.1410579.022084.2907257-.0650778.4107059l-2.988492,4.1132648c-.4452575.612872-.308896,1.4738672.3040319,1.9191807l1.427463,1.0371638c.2373328.1723668.5169326.2626594.8046951.2626594.0722901,0,.1451392-.0057027.2178765-.0172199.3625125-.0574183.6809689-.25254.8966091-.5494715l2.966408-4.0828504c.0872177-.1199802.2222374-.1888039.3705634-.1888039s.2833457.0688237.3705634.1888039l2.9663521,4.0828504c.2156961.2969315.5341525.4920532.896665.5494715.3625125.0573624.7255841-.0297435,1.0225716-.2454955l.6863082-.4986085-.5384295-.7410848-.6862803.4986224c-.2043466.148326-.4913264.102984-.6397642-.1013067l-2.966408-4.0828504c-.2615413-.3599407-.6666563-.5664118-1.1115784-.5664118s-.8500371.2064711-1.1115784.5664118l-2.9664639,4.0828504c-.1483819.2044584-.4354176.2498004-.6397083.1013626l-1.427407-1.0371079c-.2043466-.1484937-.2498004-.4354735-.1013626-.6397642l2.9883802-4.1132648c.2615413-.3598848.3327131-.809.1952335-1.2321177-.1374797-.4231736-.4590111-.7447049-.8822405-.8822405l-4.8217409-1.5666758c-.1163462-.0377943-.2109997-.1186384-.2665172-.2276606-.0555174-.1089662-.0653015-.2330837-.0275071-.3494858l.5452224-1.678102c.0377943-.1163462.1186384-.2109997.2276606-.2665172.0653574-.0333216.1361379-.0501502.2074216-.0501502.0476343,0,.0954363.0074918.1420642.0226431l4.7996569,1.5595195c.4231176.1374797.872177.0664755,1.2322295-.1951216.3599407-.2615413.5664118-.6667122.5664118-1.1116343V3.7779431c0-.25254.2054648-.4580047.4580047-.4580047h1.7644811c.25254,0,.4580047.2054648.4580047.4580047v5.0467178c0,.4449221.2064711.850093.5664118,1.1116343.3599407.2615972.8092796.3326013,1.2321736.1951216l4.7996569-1.5595195c.24024-.0779368.4990977.0538961.5772022.2940243l.5452224,1.678102c.0377943.1164021.0280103.2405196-.0275071.3494858-.0555174.1090221-.150171.1898662-.2665172.2276606l-4.8217968,1.5666758c-.4231736.1375356-.7447049.459067-.8821846.8822405-.1374797.4231176-.0663078.8722329.1951775,1.2321177l3.7488793,5.1601008c.3198541-.4662792.3314832-1.1023674-.0193724-1.5852375l-2.9884361-4.1132648c-.0871618-.1199802-.1108671-.269648-.0650778-.4107059.0458452-.1410579.1530223-.248235.2940802-.2940802l4.8217409-1.5666758c.3490944-.113383.6330551-.3559712.7996633-.6829817s.1959044-.699307.0825214-1.0483455Z"/></svg>