<?xml version="1.0" encoding="UTF-8"?><svg id="Layer_1" xmlns="http://www.w3.org/2000/svg" width="24" height="24" viewBox="0 0 24 24"><path d="m22,12.2938603l-.5948572-.5948572-.5352932.5352996v-6.2259768c0-.6957457-.5660539-1.2617996-1.2617996-1.2617996H3.2617996c-.6957457,0-1.2617996.5660539-1.2617996,1.2617996v10.2715807c0,.6957457.5660539,1.2617996,1.2617996,1.2617996h9.5827214c-.1382917-.2685932-.2534599-.5502147-.3461785-.8411997H3.2617996c-.2319152,0-.4205999-.1886846-.4205999-.4205999v-5.3217282h11.2396613c.0162628-.0144209.0316849-.0295413.0481467-.0437954.3729281-.322978.7814239-.5889207,1.2142305-.7974044H2.8411997v-1.8889h17.1874502v3.3133984c-.6654984-.4418301-1.4629862-.7000007-2.3199225-.7000007-2.3192037,0-4.2059987,1.886795-4.2059987,4.2059987s1.886795,4.2059987,4.2059987,4.2059987,4.2059987-1.886795,4.2059987-4.2059987c0-.7656874-.2069498-1.4832987-.5661758-2.102165l.6514497-.6514497ZM2.8411997,7.3868789v-1.378553c0-.2319152.1886846-.4205999.4205999-.4205999h16.3462504c.2319152,0,.4205999.1886846.4205999.4205999v1.378553H2.8411997Zm14.8675277,11.0253951c-1.8553732,0-3.364799-1.5094257-3.364799-3.364799s1.5094257-3.364799,3.364799-3.364799c1.0160732,0,1.9276767.4533245,2.5451503,1.1676049l-2.5778621,2.5779006-1.1966456-1.196697-.5948572.5948572,1.4940742,1.4940742c.0821484.0820971.1897628.1231713.2974286.1231713s.2152802-.0410742.2974286-.1231713l2.7551165-2.7551165c.22053.4474906.3449656.9504892.3449656,1.4821756,0,1.8553732-1.5094257,3.364799-3.364799,3.364799Z"/></svg>