<?xml version="1.0" encoding="UTF-8"?><svg id="Layer_1" xmlns="http://www.w3.org/2000/svg" width="24" height="24" viewBox="0 0 24 24"><path d="m14.0289846,11.964466l-.5154708-.8483336c-.4527031.2751237-.973869.4205316-1.5069099.4205316-.8296729,0-1.6219033-.3560069-2.1734837-.9767166-.5590931-.6291312-.8119816-1.441234-.7118925-2.2866594.1572828-1.3296335,1.2393595-2.39517,2.5731129-2.5335498,1.4870375-.1539505,2.8526594.857361,3.1696485,2.3539711.0456823.2155671.0481058.4691826.0072704.7538185-.0430165.2990555-.3102034.5245588-.6214973.5245588-.3474036,0-.6301006-.2826365-.6301006-.6301006v-1.2522644c0-.2740938-.2222316-.4963254-.4963254-.4963254h-1.2743785c-.9188564,0-1.6663738.7475175-1.6663738,1.6663738v.1043301c0,.9188564.7475175,1.6664344,1.6663738,1.6664344h.1043301c.4666986,0,.8885631-.1934227,1.1913749-.5036261.2900583.2707009.6779943.4378291,1.1050996.4378291.8018031,0,1.4913997-.5916281,1.6039696-1.3761034.0575573-.4003562.0512563-.7706615-.0186607-1.1006162-.4224098-1.9946926-2.2448547-3.3422598-4.2432431-3.1355989-1.7914246.1858191-3.2450183,1.617541-3.4564655,3.4043004-.1318364,1.1144905.2165365,2.2307986.955693,3.062592.7398836.8325205,1.8025725,1.3100035,2.9155483,1.3100035.7149219,0,1.4142124-.1953312,2.0223807-.5648489Zm-1.4019739-3.6528267v.4524607c0,.371517-.302206.6737836-.673723.6737836h-.1043301c-.371517,0-.673723-.3022665-.673723-.6737836v-.1043301c0-.371517.302206-.673723.673723-.673723h.7780531v.3255924Zm8.7507649,1.3375098l-2.0720617-1.4835235V3.9011772c0-.821009-.6679067-1.4889763-1.4889763-1.4889763H6.1833835c-.8210696,0-1.4889763.6679673-1.4889763,1.4889763v4.2643878l-2.072304,1.4836446c-.3895718.2790013-.6221032.7315832-.6221032,1.2106414v9.2389717c0,.821009.6679067,1.4889763,1.4889763,1.4889763h17.0220475c.8210696,0,1.4889763-.6679673,1.4889763-1.4889763v-9.2389717c0-.4791794-.2325314-.9317613-.6222244-1.210702Zm-2.0720617-.2627338l1.3454466.9632966-1.3454466.9632966v-1.9265933Zm-14.6113067-.0000606v1.9267144l-1.3455678-.9633875,1.3455678-.9633269Zm-1.6992118,10.7375813c-.0004241-.0085124-.0025446-.0165098-.0025446-.0251131v-8.7833605l4.8739193,3.4895761.8525443-.61041-3.0320564-2.1708482V3.9011772c0-.2736697.2225952-.4963254.4963254-.4963254h11.6333541c.2737303,0,.4963254.2226558.4963254.4963254v8.1225425l-4.3108577,3.0864631-1.1353929-.8128904c-.5181366-.3711535-1.2151248-.3712747-1.7335038,0l-8.1381132,5.8266436Zm1.0469364.4712123l7.6690518-5.4907817c.1726718-.1236572.4047185-.123839.577875.0000606l7.6689306,5.4907212H4.0421319Zm16.9652172-.4963254c0,.008573-.0020902.0165704-.0025446.0250223l-6.1500548-4.4032523,6.1525995-4.4051305v8.7833605Z"/></svg>