<?xml version="1.0" encoding="UTF-8"?><svg id="Layer_1" xmlns="http://www.w3.org/2000/svg" width="24" height="24" viewBox="0 0 24 24"><path d="m4.5253421,9.7300578h2.9576818l-2.4586683,5.4164079h1.0705361l2.8216187-6.1966184v-.1542626h-4.3911683v.9344731Zm8.4011289,1.8417913c.4354596-.263113.743927-.6804887.743927-1.2248565,0-.9254022-.7802105-1.6511874-1.9596548-1.6511874-1.1975861,0-1.9778544.7529979-1.9506417,1.669387,0,.5443101.2903257.9526148.7167144,1.206657-.6804309.3175383-1.1249614.9072605-1.1249614,1.6784001,0,1.1159483.9344731,1.9959961,2.3588887,1.9959961,1.4334865,0,2.3498179-.8800478,2.3498179-2.0141378-.0090709-.7620687-.4536591-1.34272-1.13409-1.6602583Zm-1.2157279-2.0413505c.5534387,0,1.0161109.3266091,1.0161109.8619061,0,.5352392-.4445305.8619061-1.0251818.8619061-.5534387,0-1.0161687-.3357378-1.0161687-.8528352,0-.535297.4445882-.870977,1.0252396-.870977Zm0,4.8266279c-.725843,0-1.3246361-.4445305-1.3246361-1.13409,0-.7167144.5897222-1.1885152,1.3155652-1.1885152.7348561,0,1.3336492.4536591,1.3336492,1.1703735,0,.6986304-.5987931,1.1522318-1.3245783,1.1522318Zm8.8693477-8.890436H3.4199091c-.782926,0-1.4199091.6369832-1.4199091,1.4199091v10.2268007c0,.782926.6369832,1.4199091,1.4199091,1.4199091h17.1601818c.782926,0,1.4199091-.6369832,1.4199091-1.4199091V6.8865997c0-.782926-.6369832-1.4199091-1.4199091-1.4199091Zm.473303,11.6467098c0,.2609753-.2123277.473303-.473303.473303H3.4199091c-.2609753,0-.473303-.2123277-.473303-.473303V6.8865997c0-.2609753.2123277-.473303.473303-.473303h17.1601818c.2609753,0,.473303.2123277.473303.473303v10.2268007Zm-3.6180643-6.0314938c-.1996169,0-.3901052.0453544-.5715804.1451917l1.5514079-2.467797h-1.1703735l-1.9233714,3.0484483c-.2449713.3719635-.4083048.8527774-.4083048,1.3155074,0,1.4153448,1.0433813,2.1139174,2.3498179,2.1139174,1.3155652,0,2.3589465-.6985726,2.3589465-2.1139174,0-1.3155074-.9345308-2.0685631-2.1865422-2.0413505Zm-.1724043,3.2570783c-.7620687,0-1.3155074-.4263887-1.3155074-1.2157279s.5443678-1.2247987,1.3155074-1.2247987c.7621265,0,1.3155652.4354596,1.3155652,1.2247987s-.5443678,1.2157279-1.3155652,1.2157279Z"/></svg>