<?xml version="1.0" encoding="UTF-8"?><svg id="Layer_1" xmlns="http://www.w3.org/2000/svg" width="24" height="24" viewBox="0 0 24 24"><path d="m8.4715959,16.7225602h7.0568082v-.8938304h-7.0568082v.8938304Zm0-2.3431405h7.0568082v-.8938304h-7.0568082v.8938304ZM18.1833814,3.5265056h-4.2473445c-.2107053-.8743542-.9978533-1.5265056-1.9359823-1.5265056s-1.725277.6521514-1.9359823,1.5265056h-4.2474536c-.7393304,0-1.3407455.6014697-1.3407455,1.3407455v15.7920033c0,.7392758.6014152,1.3407455,1.3407455,1.3407455h12.3667629c.7393304,0,1.3407455-.6014697,1.3407455-1.3407455V4.8672511c0-.7392758-.6014152-1.3407455-1.3407455-1.3407455Zm-8.8935139,2.0774573c0-.641895.5223103-1.1641508,1.1642053-1.1641508.2468072,0,.4469152-.200108.4469152-.4469152,0-.6060523.4930688-1.0990666,1.0990666-1.0990666s1.0990666.4930142,1.0990666,1.0990666c0,.2468072.200108.4469152.4469152.4469152.641895,0,1.1640962.5222557,1.1640962,1.1641508v.553734h-5.420265v-.553734Zm9.3404291,15.0552916c0,.2464253-.2004353.4469152-.4469152.4469152H5.8166186c-.2464798,0-.4469152-.2004899-.4469152-.4469152V4.8672511c0-.2464253.2004353-.4469152.4469152-.4469152h2.9553303c-.1779314.2520922-.2996301.5459122-.3495071.8634432h-.8181625c-.7393304,0-1.3407455.6014697-1.3407455,1.3407455v12.2471236c0,.7392758.6014152,1.3407455,1.3407455,1.3407455h8.7914414c.5824573,0,1.0778992-.3739682,1.2625408-.8938576l-10.0539822.0000273c-.2464798,0-.4469152-.2004899-.4469152-.4469152V6.6245247c0-.2464253.2004353-.4469152.4469152-.4469152h.7917578v.4270026c0,.2468072.200108.4469152.4469152.4469152h6.3140954c.2468072,0,.4469152-.200108.4469152-.4469152v-.4270026h.7917578c.2464798,0,.4469152.2004899.4469152.4469152v11.3532455l.8938304.0000273V6.6245247c0-.7392758-.6014152-1.3407455-1.3407455-1.3407455h-.8181625c-.049877-.317531-.1715757-.611351-.3494935-.8634432h2.9553167c.2464798,0,.4469152.2004899.4469152.4469152v15.7920033Zm-10.1587007-8.6230299h7.0568082v-.8938304h-7.0568082v.8938304Z"/></svg>