<?xml version="1.0" encoding="UTF-8"?><svg id="Layer_1" xmlns="http://www.w3.org/2000/svg" width="24" height="24" viewBox="0 0 24 24"><path d="m13.5836822,13.0870174h2.7352108c.2391222,0,.4329993-.1938771.4329993-.4329993v-2.7352636c0-.2391222-.1938771-.4329993-.4329993-.4329993h-2.7352108c-.2391222,0-.4329993.1938771-.4329993.4329993v2.7352636c0,.2391222.1938771.4329993.4329993.4329993Zm.4329993-2.7352636h1.8692122v1.8692651h-1.8692122v-1.8692651Z"/><path d="m7.681107,13.0870174h2.7352108c.2391222,0,.4329993-.1938771.4329993-.4329993v-2.7352636c0-.2391222-.1938771-.4329993-.4329993-.4329993h-2.7352108c-.2391222,0-.4329993.1938771-.4329993.4329993v2.7352636c0,.2391222.1938771.4329993.4329993.4329993Zm.4329993-2.7352636h1.8692122v1.8692651h-1.8692122v-1.8692651Z"/><path d="m7.2481077,18.5116654c0,.2391222.1938771.4329993.4329993.4329993h2.7352108c.2391222,0,.4329993-.1938771.4329993-.4329993v-2.7352636c0-.2391222-.1938771-.4329993-.4329993-.4329993h-2.7352108c-.2391222,0-.4329993.1938771-.4329993.4329993v2.7352636Zm.8659986-2.3022644h1.8692122v1.8692651h-1.8692122v-1.8692651Z"/><path d="m19.9192566,8.9146092v-.0042483h-.0053385l-7.1046873-5.6586431c-.4763415-.3794029-1.1420145-.3793501-1.6185674.0000529l-3.9479471,3.1444181v-1.8189921c0-.2391222-.1938771-.4329993-.4329993-.4329993h-2.2959745c-.2391222,0-.4329993.1938771-.4329993.4329993v4.3374059l-2.0807434,1.657245.5395577.6774071L11.7301154,3.9291778c.1589919-.126591.3808829-.1263796.5396634,0l6.7834792,5.4028315v10.4018008c0,.2387522-.1941943.4329993-.4329993.4329993h-1.8683665v-4.3904076c0-.2391222-.1938771-.4329993-.4329993-.4329993h-2.7352108c-.2391222,0-.4329993.1938771-.4329993.4329993v4.3904076h-7.7709417c-.238805,0-.4329993-.1942471-.4329993-.4329993v-8.7418271l-.8659986.689749v8.052078c0,.7162565.5826885,1.2989978,1.2989978,1.2989978h13.2405176c.7163094,0,1.2989978-.5827413,1.2989978-1.2989978v-9.712065l1.5411857,1.2275096.5395577-.6774071-2.0807434-1.6572384Zm-13.5425388-1.828678l-1.4299759,1.138929v-3.2146642h1.4299759v2.0757352Zm9.5091759,13.0808782h-1.8692122v-3.9574083h1.8692122v3.9574083Z"/></svg>