<?xml version="1.0" encoding="UTF-8"?><svg id="Layer_1" xmlns="http://www.w3.org/2000/svg" width="24" height="24" viewBox="0 0 24 24"><path d="m17.4010861,10.0451802h-4.31684c-1.9917161,0-3.6912072,1.2730142-4.3290424,3.0479021h-2.1562899c-2.0606698,0-3.7371764-1.6765066-3.7371764-3.7371764v-1.1971966c0-2.0606698,1.6765066-3.7371238,3.7371764-3.7371238h4.31684c2.0606698,0,3.7371238,1.676454,3.7371238,3.7371238v.5938646h.8617375v-.5938646c0-2.5358246-2.0630366-4.5988613-4.5988613-4.5988613h-4.31684c-2.5358246,0-4.5989139,2.0630366-4.5989139,4.5988613v1.1971966c0,2.5358246,2.0630892,4.5989139,4.5989139,4.5989139h4.31684c1.9917424,0,3.6912072-1.2730142,4.3290424-3.0479021h2.1562899c2.0606698,0,3.7371764,1.6765066,3.7371764,3.7371764v1.1971966c0,2.0606698-1.6765066,3.7371238-3.7371764,3.7371238h-4.31684c-2.0606698,0-3.7371238-1.676454-3.7371238-3.7371238v-.5938646h-.8617375v.5938646c0,2.5358246,2.0630366,4.5988613,4.5988613,4.5988613h4.31684c2.5358246,0,4.5989139-2.0630366,4.5989139-4.5988613v-1.1971966c0-2.5358246-2.0630892-4.5989139-4.5989139-4.5989139Zm-6.4853322,3.0479021h-1.2302271c.5903407-1.2884512,1.8912572-2.1861645,3.3987193-2.1861645h1.2302271c-.5903144,1.2884512-1.8912309,2.1861645-3.3987193,2.1861645Z"/></svg>