<?xml version="1.0" encoding="UTF-8"?><svg id="Layer_1" xmlns="http://www.w3.org/2000/svg" width="24" height="24" viewBox="0 0 24 24"><path d="m17.7705507,17.387071h.9328184v-.9328184h-.9328184v.9328184Zm1.9628321-3.2093832h-1.0304982v-1.6942766c0-.7724889-.6284916-1.4009805-1.4009805-1.4009805h-.7775624v-3.3423783c0-3.1650895-2.57502-5.7400524-5.7401095-5.7400524s-5.7400524,2.5749629-5.7400524,5.7400524v3.3423783h-.7775624c-.7724889,0-1.4009805.6284916-1.4009805,1.4009805v8.1156083c0,.7724889.6284916,1.4009805,1.4009805,1.4009805h13.0352867c.608568,0,1.1263254-.3907622,1.3192623-.9340084h-1.3190343c-.0000855,0-.0001425.0000214-.000228.0000214H4.2666173c-.2574963,0-.4669935-.2094972-.4669935-.4669935v-8.1156083c0-.2574963.2094972-.4669935.4669935-.4669935h13.0352867c.2574963,0,.4669935.2094972.4669935.4669935v1.6942766h-7.5667256c-.7724889,0-1.4009805.6284916-1.4009805,1.4009805v2.6840155c0,.7724889.6284916,1.4009805,1.4009805,1.4009805h9.5312108c.7724889,0,1.4009805-.6284916,1.4009805-1.4009805v-2.6840155c0-.7724889-.6284916-1.4009805-1.4009805-1.4009805Zm-4.1430282-3.0952571H5.9781667v-3.3423783c0-2.6500969,2.1560255-4.8060654,4.8061224-4.8060654s4.8060654,2.1559685,4.8060654,4.8060654v3.3423783Zm4.6100217,7.1802531c0,.2574963-.2094972.4669935-.4669935.4669935h-9.5312108c-.2574963,0-.4669935-.2094972-.4669935-.4669935v-2.6840155c0-.2574963.2094972-.4669935.4669935-.4669935h9.5312108c.2574963,0,.4669935.2094972.4669935.4669935v2.6840155Zm-8.966908-.8756128h.9328184v-.9328184h-.9328184v.9328184Zm4.358055,0h.9328184v-.9328184h-.9328184v.9328184Zm-2.1790275,0h.9328184v-.9328184h-.9328184v.9328184Z"/></svg>