<?xml version="1.0" encoding="UTF-8"?><svg id="Layer_1" xmlns="http://www.w3.org/2000/svg" width="24" height="24" viewBox="0 0 24 24"><path d="m7.6749986,13.0155723c0,1.6078267,1.3080376,2.9159254,2.9158644,2.9159254s2.9159254-1.3080986,2.9159254-2.9159254v-3.1732363c0-.9151137-.7445292-1.6595819-1.6596429-1.6595819s-1.6595819.7444682-1.6595819,1.6595819v3.3675011h.9999481v-3.3675011c0-.3637507.2958831-.6596337.6596337-.6596337s.6596948.2958831.6596948.6596337v3.1732363c0,1.0564637-.8595135,1.9159773-1.9159773,1.9159773s-1.9159162-.8595135-1.9159162-1.9159773v-.4415054h-.9999481v.4415054Zm.9999481-3.1732363c0-1.4907979,1.034004-2.7439983,2.4222986-3.0819019v-1.0214924c-1.943701.3544433-3.4222468,2.0589447-3.4222468,4.1033943v1.2318087h.9999481v-1.2318087Zm5.6597406,5.5428948v1.5642041c1.0367352-.9892523,1.684666-2.3826126,1.684666-3.9253182v-3.1817807c0-2.0444191-1.4785305-3.74889-3.4221857-4.1033638v1.0214619c1.3882794.3379036,2.4222376,1.591104,2.4222376,3.0819019v3.1817807c0,.8676308-.2517951,1.6771286-.6847179,2.3611141Zm7.1653387-13.3847121h-3.4349414v.9999481h2.9349674v2.9349674h.9999481v-3.4349414c0-.2761087-.2238653-.4999741-.4999741-.4999741ZM6.8477481,7.1383137c.9632603-1.7738338,2.8430303-2.9808024,4.9994583-2.9808024,3.134603,0,5.6847637,2.5502217,5.6847637,5.6848247v3.1699405c0,.0997263-.0033644.1986896-.0075451.2974089h.9999481c.0036619-.0988566.0075451-.1976674.0075451-.2974089v-3.1699405c0-3.685966-2.9987458-6.6847728-6.6847118-6.6847728-2.7238119,0-5.0707819,1.6384343-6.1112934,3.9807505h1.111835ZM2.9999481,3.0315322h2.9349674v-.9999481h-3.4349414c-.2761087,0-.4999741.2238653-.4999741.4999741v3.4350025h.9999481v-2.9350284Zm0,15.0330336h-.9999481v3.4349414c0,.2761087.2238653.4999741.4999741.4999741h3.4349414v-.9999481h-2.9349674v-2.9349674Zm18.0001038,2.9349674h-2.9349674v.9999481h3.4349414c.2761087,0,.4999741-.2238653.4999741-.4999741v-3.4349414h-.9999481v2.9349674Zm-3.7049241-6.1899254c-.7943542,2.9652697-3.5036711,5.1555553-6.7160441,5.1555553h-.9148695v.9999481h.9148695c3.766986,0,6.9283286-2.6334998,7.7454859-6.1555034h-1.0294418Zm-4.4603628,3.1555675v-1.1253689c-.6585504.3887738-1.4253716.6128527-2.2439021.6128527-2.4418899,0-4.4284812-1.9866523-4.4284812-4.4285422v-3.1817807c0-.4131561.0454383-.8157536.129548-1.2041001h-1.0187612c-.0714379.3909099-.1107349.7928971-.1107349,1.2041001v3.1817807c0,2.9932529,2.4352374,5.4284903,5.4284903,5.4284903.800015,0,1.5593979-.1753602,2.2438411-.487432Z"/></svg>