<?xml version="1.0" encoding="UTF-8"?><svg id="Layer_1" xmlns="http://www.w3.org/2000/svg" width="24" height="24" viewBox="0 0 24 24"><path d="m20.6843026,14.3186796c-1.2093797-1.2092626-2.9703775-1.6271037-4.5960761-1.0904147-.1615863.0531595-.3477033.0059131-.4743963-.1207214h.0000585l-1.339-1.339,3.5774385-3.5775702,2.3352732-1.1781163c.0922681-.0465439.167031-.1216581.2131651-.2141604l1.1892985-2.3851542c.0920339-.1845948.0557941-.4073614-.0900434-.5531989l-1.3604278-1.3604278c-.145896-.145896-.3686626-.1819602-.5531989-.0900434l-2.3851542,1.1892985c-.0924438.0461341-.167558.1208384-.2141604.2131066l-1.1810436,2.3404837-3.5734867,3.5735159-1.3401417-1.3401709c-.1266345-.126693-.1740565-.3128685-.1207214-.4743377.5366304-1.6256986.1188479-3.3868135-1.0904147-4.5961347-1.2221427-1.2220841-3.0649875-1.6371736-4.6944915-1.0573364-.1550292.0551501-.2708912.1858828-.3070725.3463567s.0124117.3283246.1286836.444655l1.6759308,1.6758138c.1869951.1870537.1869951.491316,0,.6783111l-1.0808132,1.0808718c-.1869951.1869366-.491316.1871122-.6783111,0l-1.6758723-1.6759308c-.1163304-.1162719-.2842982-.1646892-.444655-.1286836-.1604739.0361813-.2912066.1520433-.3463567.3070725-.5798372,1.6295626-.1648063,3.4722903,1.0573949,4.6945501,1.2093212,1.2092187,2.9705532,1.6270012,4.5960761,1.0903708.1615863-.0533937.3476447-.0058546.4742792.1207214l.9852373.9852519-6.3971485,6.3049829c-.3725267.3656768-.578959.8545924-.5813594,1.3765864s.1995825,1.0127245.5686549,1.3818555c.3773274.3773274.8749663.566196,1.3729566.566196.4920185,0,.9844469-.1845948,1.3610132-.5542527l5.396865-5.3189991-.6783111-.6782819-5.3911861,5.313408c-.3830649.3760979-1.0035328.3732292-1.3830264-.0063815-.186761-.186761-.2889819-.4350535-.2877524-.6991534s.1056751-.5115143.2947779-.6971629l6.4027982-6.3105008,3.057962,3.0579913c.1266345.1266345.1740565.31281.1207214.4742792-.536689,1.6256986-.1188479,3.386755,1.0904147,4.5960761.8557048.8556462,2.0154377,1.3156988,3.1933783,1.3156988.5045473-.0000585,1.0124318-.084423,1.5011132-.2583039.1549706-.0551501.2708912-.1858828.3070725-.3463567s-.0123532-.3283246-.1286836-.444655l-1.6759308-1.6758723c-.1869951-.1870537-.1869951-.491316,0-.6783111l1.0808132-1.0808718c.1871122-.1869951.4914331-.1869951.6783111,0l1.6759308,1.6759308c.1164475.1163304.2843567.1649234.444655.1286836.1604739-.0361813.2912066-.1521019.3463567-.3070725.5798372-1.6296212.1647478-3.4722903-1.0573949-4.6944915Zm-4.1455665-7.5419962c.0360056-.0360642.0660396-.0775731.0890481-.1230632l1.1439841-2.2670674,1.9337078-.9641901.8720976.8720976-.9641901,1.9337078-2.2617982,1.1410568c-.0454901.0229499-.0870575.0530425-.1231217.0890481l-3.6318861,3.6319592-.6856879-.6856733,3.6278464-3.6278757Zm4.4806824,11.1270456l-1.0663524-1.066411c-.561044-.5609269-1.4738309-.5609269-2.0348749,0l-1.0808718,1.0809303c-.5609269.5609854-.5609269,1.4737723,0,2.0348163l1.066411,1.0663524c-1.0574535.1183795-2.1382081-.2448384-2.9067383-1.0134271-.9515442-.9515442-1.2802786-2.3374979-.857871-3.617074.1684361-.5100506.0330198-1.0669379-.3532651-1.4532813l-4.7215397-4.7215397c-.2765702-.2765262-.640432-.4244128-1.012022-.4244128-.1474768,0-.2963001.0233012-.4412008.0711331-1.2795761.4223052-2.6656469.0937318-3.6171325-.8577539-.7685887-.7686472-1.1315139-1.8491677-1.0133685-2.9068554l1.0663524,1.066411c.561044.5609269,1.4737723.5608684,2.0348163,0l1.0808718-1.0809303c.5609269-.5609854.5609269-1.4737723,0-2.0348163l-1.066411-1.0663524c1.0577462-.1177355,2.1382081.2447798,2.9067968,1.0133685.9515442.9516027,1.2802201,2.337615.8578124,3.6171325-.1684361.5100506-.0330784,1.0668793.3532651,1.4533399l4.7214811,4.7214958h.0000585c.386402.3863435.9432892.5214671,1.4532813.3532651,1.2795175-.4224076,2.6655298-.0937903,3.617074.857871.7685887.7685302,1.1315139,1.8490507,1.0134271,2.9067383Z"/></svg>