<?xml version="1.0" encoding="UTF-8"?><svg id="Layer_1" xmlns="http://www.w3.org/2000/svg" width="24" height="24" viewBox="0 0 24 24"><path d="m12.0000589,9.3368285c-.7671291,0-1.3911627.624089-1.3911627,1.3911627s.6240336,1.3911072,1.3911627,1.3911072c.7670182,0,1.3910449-.6240336,1.3910449-1.3911072s-.6240267-1.3911627-1.3910449-1.3911627Zm0,1.8742622c-.2664612,0-.483155-.2166937-.483155-.4830996s.2166937-.483155.483155-.483155c.2663504,0,.4830441.2167492.4830441.483155s-.2166937.4830996-.4830441.4830996Zm3.7888635,5.8339938c-.7671291,0-1.3911627.6240336-1.3911627,1.3911072s.6240336,1.3911072,1.3911627,1.3911072,1.3911627-.6240336,1.3911627-1.3911072-.6240336-1.3911072-1.3911627-1.3911072Zm0,1.8742068c-.2664612,0-.483155-.2166937-.483155-.4830996s.2166937-.4830996.483155-.4830996.483155.2166937.483155.4830996-.2166937.4830996-.483155.4830996Zm2.1108519-16.9192913H6.1002257c-.7510571,0-1.3620115.6110098-1.3620115,1.3620115v17.2759769c0,.7510017.6109544,1.3620115,1.3620115,1.3620115h10.8915409v-.9080077H6.1002257c-.2503893,0-.4540038-.2036699-.4540038-.4540038V3.3620115c0-.2503339.2036145-.4540038.4540038-.4540038h11.7995486c.2503893,0,.4540038.2036699.4540038.4540038v18.5585295c.5281563-.1875703.9080077-.6909122.9080077-1.2825526V3.3620115c0-.7510017-.6109544-1.3620115-1.3620115-1.3620115Zm-2.1108519,11.1909842c-.7671291,0-1.3911627.6240336-1.3911627,1.3911072s.6240336,1.3911072,1.3911627,1.3911072,1.3911627-.6240336,1.3911627-1.3911072-.6240336-1.3911072-1.3911627-1.3911072Zm0,1.8742068c-.2664612,0-.483155-.2166937-.483155-.4830996s.2166937-.4830996.483155-.4830996.483155.2166937.483155.4830996-.2166937.4830996-.483155.4830996Zm0-5.7283625c-.7671291,0-1.3911627.624089-1.3911627,1.3911627s.6240336,1.3911072,1.3911627,1.3911072,1.3911627-.6240336,1.3911627-1.3911072-.6240336-1.3911627-1.3911627-1.3911627Zm0,1.8742622c-.2664612,0-.483155-.2166937-.483155-.4830996s.2166937-.483155.483155-.483155.483155.2167492.483155.483155-.2166937.4830996-.483155.4830996Zm-7.5778449.9080077c.7671291,0,1.3911627-.6240336,1.3911627-1.3911072s-.6240336-1.3911627-1.3911627-1.3911627-1.3911627.624089-1.3911627,1.3911627.6240336,1.3911072,1.3911627,1.3911072Zm0-1.8742622c.2664612,0,.483155.2167492.483155.483155s-.2166937.4830996-.483155.4830996-.483155-.2166937-.483155-.4830996.2166937-.483155.483155-.483155Zm-.0007759,9.5824628h3.7905331c.7665749,0,1.390269-.6237011,1.390269-1.3902759s-.6236942-1.3902759-1.390269-1.3902759h-3.7905331c-.7666857,0-1.3903868.6237011-1.3903868,1.3902759s.6237011,1.3902759,1.3903868,1.3902759Zm0-1.8725442h3.7905331c.265907,0,.4822682.2163612.4822682.4822682s-.2163612.4822682-.4822682.4822682h-3.7905331c-.2660179,0-.4823791-.2163612-.4823791-.4822682s.2163612-.4822682.4823791-.4822682Zm.0007759-1.9815561c.7671291,0,1.3911627-.6240336,1.3911627-1.3911072s-.6240336-1.3911072-1.3911627-1.3911072-1.3911627.6240336-1.3911627,1.3911072.6240336,1.3911072,1.3911627,1.3911072Zm0-1.8742068c.2664612,0,.483155.2166937.483155.4830996s-.2166937.4830996-.483155.4830996-.483155-.2166937-.483155-.4830996.2166937-.4830996.483155-.4830996Zm8.5150037-10.0266572H7.2739187c-.2507219,0-.4540038.203282-.4540038.4540038v3.2044624c0,.2507219.203282.4540038.4540038.4540038h9.4521625c.2507219,0,.4540038-.203282.4540038-.4540038v-3.2044624c0-.2507219-.203282-.4540038-.4540038-.4540038Zm-.4540038,3.2044624H7.7279226v-2.2964548h8.5441548v2.2964548Zm-4.2720185,5.9141871c-.7671291,0-1.3911627.6240336-1.3911627,1.3911072s.6240336,1.3911072,1.3911627,1.3911072c.7670182,0,1.3910449-.6240336,1.3910449-1.3911072s-.6240267-1.3911072-1.3910449-1.3911072Zm0,1.8742068c-.2664612,0-.483155-.2166937-.483155-.4830996s.2166937-.4830996.483155-.4830996c.2663504,0,.4830441.2166937.4830441.4830996s-.2166937.4830996-.4830441.4830996Z"/></svg>