<?xml version="1.0" encoding="UTF-8"?><svg id="Layer_1" xmlns="http://www.w3.org/2000/svg" width="24" height="24" viewBox="0 0 24 24"><path d="m20.2221374,19.0739781V7.8949305h-1.0081159v11.1790476h1.0081159Zm-3.6460519,0v-7.606217h-1.0081159v7.606217h1.0081159Zm-7.8111752-3.1317799c.1336443,0,.2618739-.0531008.3563847-.1476117l11.6905508-11.6906123v1.9807902h1.0081159v-3.2517029c0-.278364-.2256939-.5040579-.5040579-.5040579h-3.2516413v1.0081159h2.0887762l-11.3881283,11.3881898-3.5600322-3.5600938-.7127694.7128925,3.916417,3.9164785c.0945109.0945109.2227404.1476117.3563847.1476117Zm-5.2527366,4.7206823c-.2779948,0-.5040579-.2261246-.5040579-.5040579V6.0847644h-1.0081159v14.0740581c0,.8337999.6783123,1.5121738,1.5121738,1.5121738h18.4878262v-1.0081159H3.5121738Zm2.1258791-1.5889024v-3.6358378h-1.0081159v3.6358378h1.0081159Zm7.2919807,0v-3.6358378h-1.0081159v3.6358378h1.0081159Zm-4.6540447,0h1.0081159v-1.5121123h-1.0081159v1.5121123Z"/></svg>