<?xml version="1.0" encoding="UTF-8"?><svg id="Layer_1" xmlns="http://www.w3.org/2000/svg" width="24" height="24" viewBox="0 0 24 24"><path d="m5.3463121,19.507294c-.236443,0-.4287165-.1923258-.4287165-.4287165v-8.6553613l-.8574329.6829267v7.9724346c0,.709172.5769251,1.2861494,1.2861494,1.2861494h7.4666635c-.18373-.2697075-.3433343-.5568094-.4781455-.8574329h-6.988518Z"/><path d="m22,14.3211959l-.6062319-.6063365-.7251599.7251599c-.2682749-.3111818-.5801959-.583336-.9264871-.80716v-4.1702646l1.5259417,1.2153486.5342209-.6707068-2.0601627-1.640827v-.0042259h-.0053119l-7.034493-5.6026732c-.47163-.3756502-1.1308234-.3757026-1.6024534.0000523l-3.9090024,3.1133623v-1.8010461c0-.236757-.1919595-.4287165-.4287165-.4287165h-2.2732649c-.236757,0-.4287165.1919595-.4287165.4287165v4.2945241l-2.0601627,1.6408335.5342209.6707068L11.6340838,3.4302695c.15721-.1252865.3769062-.1251819.5341162,0l6.7164882,5.3494115v4.4254692c-.4566888-.1662833-.9492522-.257239-1.4627228-.257239-2.3639066,0-4.2871647,1.9232057-4.2871647,4.2871647s1.9232581,4.2871647,4.2871647,4.2871647,4.2871647-1.9232057,4.2871647-4.2871647c0-.7551797-.1969966-1.4649143-.5412074-2.0818026l.8320773-.8320773ZM4.9175956,4.5005953h1.4158319v2.0552433l-1.4158319,1.1276507v-3.182894Zm15.9341016,12.7344805c0,1.8911776-1.5386065,3.4297317-3.4297317,3.4297317s-3.4297317-1.5385541-3.4297317-3.4297317,1.5386065-3.4297317,3.4297317-3.4297317c1.060304,0,2.0096215.4837975,2.6392465,1.2420715l-2.5757136,2.5757136-1.2197905-1.2197905-.6062319.6063365,1.5229064,1.5229064c.083629.0836814.1934248.1255482.3031159.1255482s.2194869-.0418668.3031159-.1255482l2.7426707-2.7426707c.2051083.4395103.3204122.9290122.3204122,1.4451649Z"/></svg>