<?xml version="1.0" encoding="UTF-8"?><svg id="Layer_1" xmlns="http://www.w3.org/2000/svg" width="24" height="24" viewBox="0 0 24 24"><path d="m15.6502805,9.9132298h.8572378c0-2.0157959-1.6400742-3.6557655-3.6559159-3.6557655v.8572378c1.543168,0,2.7986781,1.2554055,2.7986781,2.7985277Zm-3.8253072,1.6328015l.6207832-.6207963c.1807059.0876388.3770428.1327923.5738965.1327923.3363235,0,.672647-.1280311.9286045-.3840409q0-.0000523.0001046-.0000523c.5119149-.5120196.5119149-1.3452417-.0001046-1.8573136-.5119149-.5119673-1.3451829-.5121766-1.8573071,0-.2481092.2480569-.3847734.5778402-.3847734.9286568,0,.2025371.0468802.397409.1331063.57423l-.6203973.62043-5.8869499-5.8869172c-.0918768-.0918768-.2201695-.1366641-.3496132-.1230082-.1291298.0141268-.2449699.0860691-.314767.1955783-1.1047192,1.7318464-1.5963333,3.8171254-1.3842214,5.8717963.2152512,2.0848081,1.1513901,4.0506369,2.6361736,5.5353681.5161334.516153,1.0914491.9642617,1.7086679,1.3405851l.9467601,2.6989596c.0465663.1328446.026684.2748979-.0548331.3897439-.0814125.114846-.208868.180719-.3496132.180719h-2.3011058c-.1407452,0-.2682007-.0658729-.3496132-.1806666-.0814125-.1148983-.1013993-.2569516-.0548331-.3897962l.7382387-2.1045334c-.2432237-.1794632-.4792597-.3713267-.7075717-.5726081l-.8395596,2.3934012c-.1377106.3927262-.076285.8298736.1644992,1.1693887.2406796.3394105.6327779.5420522,1.0488396.5420522h2.3011058c.4161663,0,.8082647-.202694,1.0489443-.5422092.2406796-.3394628.3022098-.7766101.1643946-1.1692841l-.6442495-1.8365943c.8588859.3747538,1.7746651.6198807,2.7152447.7169635.3127788.0322825.6260808.0482929.9389642.0482929,1.7423041,0,3.464628-.4959045,4.9328779-1.4325142.1095615-.0698494.1814515-.1856372.1955783-.3148193.0141268-.1291298-.0311837-.2577364-.1230605-.3496132l-5.5742104-5.5741908Zm.872071-2.1232122c.0889468-.0889468.2057287-.1334202.3226087-.1334202.1167819,0,.2335638.0444734.322406.1333679.1778936.1778413.1778936.4672323.0001046.6450212-.1779982.1779459-.4673304.1777366-.6451193,0-.0861214-.0861214-.1336295-.2006535-.1336295-.3225106,0-.1218048.0475081-.2363369.1336295-.3224583Zm-1.1542154,8.8933711c-1.8894391-.1950551-3.671305-1.0437121-5.0172269-2.389634-1.3458173-1.3458696-2.1944743-3.1276831-2.3895294-5.0171746-.1738125-1.6832395.17308-3.3889251.9799844-4.8598957l11.2867134,11.2866153c-1.4709706.8069044-3.1764469,1.1538492-4.8599415.980089Zm1.3087736-16.3161901v.8572378c3.8907354,0,7.0560901,3.1653024,7.0560901,7.055992h.8572378c0-4.3633633-3.5499188-7.9132298-7.9133279-7.9132298Zm0,2.128706v.8572378c2.7169517,0,4.9273318,2.2103801,4.9273318,4.927286h.8572378c0-3.1895796-2.5949442-5.7845238-5.7845696-5.7845238Z"/></svg>