<?xml version="1.0" encoding="UTF-8"?><svg id="Layer_1" xmlns="http://www.w3.org/2000/svg" width="24" height="24" viewBox="0 0 24 24"><path d="m22.5754395,9.8573608c-.0760498-.1151733-.2311401-.1469116-.3463745-.0708618l-.9060669.5982056c-.2892456-.4013672-.7576294-.6655273-1.2890015-.6655273-.4974365,0-.9367065.2340088-1.2288208.5925293l-2.7954102-1.6160889c.3117065-.612915.5041504-1.2958374.5041504-2.0292358,0-2.4889526-2.0249023-4.513855-4.513916-4.513855-2.4889526,0-4.513855,2.0249023-4.513855,4.513855,0,.7333984.1924438,1.4163818.5041504,2.0292358l-2.7954712,1.6160889c-.2921143-.3585205-.7313843-.5925293-1.2287598-.5925293-.5313721,0-.9998169.2641602-1.2890625.6655273l-.9060669-.5982056c-.1152344-.0760498-.2703247-.0443115-.3463745.0708618-.0761108.1152344-.0443726.2703247.0708618.3463745l.9591064.6331787c-.0474243.1506958-.0802002.3078003-.0802002.473938,0,.8776855.7140503,1.5917358,1.5917358,1.5917358.8776245,0,1.5916748-.7140503,1.5916748-1.5917358,0-.2007446-.0413818-.3910522-.1094971-.5681152l2.7808838-1.607666c.5979004.9101562,1.5186768,1.5776367,2.5952759,1.8703003v1.5484619h-.1994019l-.1767578.0732422-.0732422.1767578v7.425354c.0001831.897583.727417,1.6248169,1.625,1.625.897583-.0001831,1.6248169-.727417,1.625-1.625v-7.425354l-.0732422-.1767578-.1767578-.0732422h-.1994019v-1.5484619c1.0766602-.2926636,1.9973755-.960083,2.5952759-1.8702393l2.7808838,1.607605c-.0681152.177063-.1094971.3673706-.1094971.5681152,0,.8776855.7140503,1.5917358,1.5917358,1.5917358.8776245,0,1.5916748-.7140503,1.5916748-1.5917358,0-.1661377-.0327759-.3232422-.0802002-.473938l.9591064-.6331787c.1152344-.0760498.1469727-.2311401.0708618-.3463745ZM3.9660645,12.4025879c-.6029663,0-1.0917358-.4887695-1.0917358-1.0917358,0-.6029053.4887695-1.0916748,1.0917358-1.0916748.6029053,0,1.0916748.4887695,1.0916748,1.0916748,0,.6029663-.4887695,1.0917358-1.0916748,1.0917358Zm9.1589355,7.8265991c-.0010986.6212158-.5037842,1.1238403-1.125,1.125-.6212158-.0011597-1.1239014-.5037842-1.125-1.125v-7.175354h2.25v7.175354Zm-.4493408-7.675354h-1.3513184v-1.4418335c.2221069.0337524.4442749.0682983.6756592.0682983s.4535522-.0345459.6756592-.0682983v1.4418335Zm-.6756592-1.8735352c-2.2167969,0-4.013855-1.7971191-4.013855-4.013916s1.7970581-4.013855,4.013855-4.013855,4.013916,1.7970581,4.013916,4.013855-1.7971191,4.013916-4.013916,4.013916Zm8.0339966,1.72229c-.6029663,0-1.0917358-.4887695-1.0917358-1.0917358,0-.6029053.4887695-1.0916748,1.0917358-1.0916748.6029053,0,1.0916748.4887695,1.0916748,1.0916748,0,.6029663-.4887695,1.0917358-1.0916748,1.0917358Z"/><path d="m12,3.4351807c-1.7816772,0-3.2312012,1.4495239-3.2312012,3.2312012s1.4495239,3.2312012,3.2312012,3.2312012,3.2312012-1.4495239,3.2312012-3.2312012-1.4495239-3.2312012-3.2312012-3.2312012Zm0,.5c1.5084229,0,2.7312012,1.2227783,2.7312012,2.7312012,0,.4089966-.0960693.7932739-.2571411,1.1415405l-.9918213-.5733643c.0681152-.177063.1094971-.3674316.1094971-.5681763,0-.8776855-.7140503-1.5916748-1.5917358-1.5916748-.8776245,0-1.5916748.7139893-1.5916748,1.5916748,0,.2007446.0413818.3910522.1094971.5681152l-.9918823.5734253c-.1610718-.3482666-.2571411-.7325439-.2571411-1.1415405,0-1.5084229,1.2227783-2.7312012,2.7312012-2.7312012Zm-1.0916748,2.7312012c0-.6029053.4887695-1.0916748,1.0916748-1.0916748.6029663,0,1.0917358.4887695,1.0917358,1.0916748s-.4887695,1.0916748-1.0917358,1.0916748c-.6029053,0-1.0916748-.4887695-1.0916748-1.0916748Zm1.0916748,2.7312012c-.9203491,0-1.7302856-.4585571-2.2250977-1.1560669l.9962769-.5759888c.2921143.3584595.7314453.5925293,1.2288208.5925293.4974365,0,.9367065-.2340088,1.2288208-.5925293l.9962769.5759888c-.494812.6975098-1.3047485,1.1560669-2.2250977,1.1560669Z"/></svg>