<?xml version="1.0" encoding="UTF-8"?><svg id="Layer_1" xmlns="http://www.w3.org/2000/svg" width="24" height="24" viewBox="0 0 24 24"><g><polygon points="4.0224206 17.6582403 4.6473829 18.9245523 6.0448411 19.1276149 5.0336309 20.1133013 5.2723452 21.5051129 4.0224206 20.8479886 2.7724959 21.5051129 3.0112103 20.1133013 2 19.1276149 3.3974582 18.9245523 4.0224206 17.6582403"/><polygon points="9.3408069 17.6582403 9.9657692 18.9245523 11.3632274 19.1276149 10.3520171 20.1133013 10.5907315 21.5051129 9.3408069 20.8479886 8.0908822 21.5051129 8.3295966 20.1133013 7.3183863 19.1276149 8.7158445 18.9245523 9.3408069 17.6582403"/><polygon points="14.6591931 17.6582403 15.2841555 18.9245523 16.6816137 19.1276149 15.6704034 20.1133013 15.9091178 21.5051129 14.6591931 20.8479886 13.4092685 21.5051129 13.6479829 20.1133013 12.6367726 19.1276149 14.0342308 18.9245523 14.6591931 17.6582403"/><polygon points="19.9775794 17.6582403 20.6025418 18.9245523 22 19.1276149 20.9887897 20.1133013 21.2275041 21.5051129 19.9775794 20.8479886 18.7276548 21.5051129 18.9663691 20.1133013 17.9551589 19.1276149 19.3526171 18.9245523 19.9775794 17.6582403"/></g><path d="m13.0975723,7.9646398h-1.235035l-.756604,2.3654897c-.2739711.8112159-.014002,1.7717955.8102901,2.1344504.8126118.357997,1.7773792.0382739,2.4299016-.5003526.3930091.5923125,1.2686226.7696659,1.930019.6035084.1978933-.3113191.365461-.6357143.4970907-.9806495-.4807527.053686-1.4427282.1082979-1.5645581-.5367605-.0013959-.002336-.003732-.0167938-.003732-.0177339-.014002-.0928858-.007934-.2030354.0364079-.330919l.8872937-2.7370329h-1.2345507l-.75847,2.3682958c-.0004701.0027918-.0004701.0032619-.0028061.006068-.1694336.4872908-.5983805.9082895-1.093591,1.0581232-.2221795.0676737-.4872908.0863478-.6856684-.0569479-.2016253-.1456175-.2184333-.4214688-.1446916-.6394463l.8887038-2.7360928Zm-7.248639,2.8317705l-1.1426192.2333754c.5629127,2.9419343,2.9904783,5.2854882,5.9510724,5.742439,2.9209385.4504128,5.8866605-.9806353,7.3503988-3.5477645,1.46559-2.5713313,1.169213-5.8763905-.7243981-8.1490087-1.9449468-2.3337539-5.2458183-3.2037695-8.0873887-2.1162464-1.4595363.5586965-2.715097,1.6000259-3.5389047,2.9269923-.4373509.7043282-.7281301,1.5962939-.3075872,2.3771699.3295231.6118982,1.0366431.8294056,1.6891655.8620816.0602098.0028061.1213598.0046721.1820396.0046721h.9148275l-.3323292,1.0394492c-.2520494.7491401-.0886838,1.6625717.5885806,2.1330545.6646441.4616087,1.6401515.374335,2.3435538.0499398-.2142456-.3075872-.3500631-.6665243-.3976811-1.0380533-.3220592.1241516-.776674.2179775-1.1103991.0882137-.361729-.1400195-.4098028-.5400224-.3159912-.8746876l.4536889-1.3979163h1.4109924l.3729249-1.165481h-1.4049244l.6217124-1.9080831h-1.2382826l-.6193763,1.9080831h-1.2872966c-.3155354,0-.76874-.0732859-.8378239-.4494869-.0732717-.3995329.1787635-.8541476.3724691-1.1827449l.0135319-.0228618c.8970936-1.3297725,2.31649-2.2665502,3.8945657-2.5573293,1.4833382-.2735153,3.0432242.024742,4.3169889.8326818,1.1995387.760336,2.1092383,1.9430809,2.5307213,3.2994613.4368809,1.4067904.3379271,2.9591982-.2767914,4.2973747-.5913724,1.2882367-1.6410916,2.3449497-2.9251263,2.9456663-1.3493724.6315123-2.9213943.735594-4.3435826.2917192-2.0966465-.6548584-3.7097342-2.4639877-4.116731-4.62271"/></svg>