<?xml version="1.0" encoding="UTF-8"?>
<svg id="Layer_1" xmlns="http://www.w3.org/2000/svg" width="24" height="24" viewBox="0 0 24 24">
    <path
        d="m12.9665453,11.3614265c-.6993387,0-1.2682609-.5689222-1.2682609-1.2682609h-.8415693c0,1.0192932.7266265,1.871906,1.6890455,2.0674795v1.1988407h.8415693v-1.1988407c.962419-.1955734,1.6890455-1.0481862,1.6890455-2.0674795,0-1.1633729-.9464572-2.1098302-2.1098302-2.1098302-.6993387,0-1.2682609-.5689222-1.2682609-1.2682609s.5689222-1.2683123,1.2682609-1.2683123,1.2682609.5689736,1.2682609,1.2683123h.8415693c0-1.0192932-.7266265-1.8719446-1.6890455-2.0675308v-1.1988407h-.8415693v1.1988407c-.962419.1955863-1.6890455,1.0482376-1.6890455,2.0675308,0,1.1633729.9464572,2.1098302,2.1098302,2.1098302.6993387,0,1.2682609.5689222,1.2682609,1.2682609s-.5689222,1.2682609-1.2682609,1.2682609Zm-3.1262277-5.908449H2v.8415693h7.6215207c.0367455-.2938738.1112059-.5760363.218797-.8415693Zm11.8818559.4727663c-.2408519-.3004357-.5998441-.4727663-.9849298-.4727663h-4.6444707c.1075911.265533.1820515.5476955.218797.8415693h4.4256737c.1283619,0,.2480431.0574264.3283271.1575888s.1103327.2294488.08239.3547288l-1.7118004,7.6822473c-.0431982.1938527-.212036.3292516-.4106657.3292516H6.4341105l-1.6135128-7.2410193h-.862231l2.1471085,9.6353105c.1295433.5816094.6362621.9878063,1.2321511.9878063h.190103c-.12119.2248773-.1902571.4818066-.1902571.7546592,0,.8801446.7160838,1.596177,1.5962284,1.596177s1.596177-.7160324,1.596177-1.596177c0-.2728525-.0690671-.5297818-.1902507-.7546592h5.8412504c-.1211836.2248773-.1902507.4818066-.1902507.7546592,0,.8801446.7160324,1.596177,1.596177,1.596177s1.5962284-.7160324,1.5962284-1.596177-.7160838-1.5962284-1.5962284-1.5962284H7.3376263c-.1986297,0-.3675188-.135399-.410717-.3292516l-.305187-1.3697074h12.4037724c.595889,0,1.1025564-.4061969,1.2320997-.9878063l1.7118004-7.682196c.0837768-.37584-.0063179-.7637508-.2472212-1.0641865Zm-4.1353698,12.2747171c.4161104,0,.7546592.3385488.7546592.7546592s-.3385488.7546078-.7546592.7546078-.7546078-.3384974-.7546078-.7546078.3384974-.7546592.7546078-.7546592Zm-8.6531031,0c.4161104,0,.7546078.3385488.7546078.7546592s-.3384974.7546078-.7546078.7546078-.7546592-.3384974-.7546592-.7546078.3385488-.7546592.7546592-.7546592Z" />
</svg>