<?xml version="1.0" encoding="UTF-8"?><svg id="Layer_1" xmlns="http://www.w3.org/2000/svg" width="24" height="24" viewBox="0 0 24 24"><path d="m21.9946334,15.2849112c-.2313794-2.4780049-1.3737451-4.7721359-3.2164475-6.4597725-.1309321-.1199067-.2652937-.2350121-.401586-.3472723l-.4226459.7320662c.0883296.0749925.1763036.1504931.2620928.2290676.5809888.532137,1.0839874,1.131188,1.5053123,1.7789639l-2.0174563,1.1647975.4162187.7208631,2.0230198-1.1679984c.557668,1.0558906.9097162,2.2169029,1.0227131,3.426767.0108729.1158929-.026725.2275688-.1057821.3143995-.0804798.0882534-.1904282.1368766-.3096236.1368766h-7.2290555c-.074459-.2717717-.2185758-.5148115-.4137545-.7072465l4.2519134-7.3643317c-1.5931592-1.0076485-3.4442958-1.5508362-5.3595519-1.5508362-2.5165173,0-4.923696.9353742-6.7781859,2.6338837-1.8427024,1.6876366-2.9850682,3.9817676-3.2164475,6.4597217-.0325171.3469674.0838331.6940873.3191755.9524457.2366634.259781.5738249.4088007.9250094.4088007h7.2290555c.1832896.6689628.7949919,1.1626381,1.521393,1.1626381s1.3381034-.4936754,1.521393-1.1626381h7.2290555c.3511845,0,.688346-.1490197.9250094-.4088007.2353424-.2583584.3516926-.6054782.3191755-.9523949Zm-11.5160264.5287582H3.2495515c-.1191954,0-.2291438-.0486232-.3096236-.1368766-.0790572-.0868308-.116655-.1985066-.1057821-.3144503.1131747-1.2119472.4662645-2.3749156,1.0256345-3.4322543l2.0326987,1.1735872.4162187-.7208631-2.0266526-1.1700815c.4206389-.6457689.922469-1.2430417,1.5019082-1.7737306.4044058-.3703645.8382294-.6998286,1.2945101-.9889258l1.1576844,2.005237.7208631-.4162187-1.1558299-2.0020361c1.1682778-.5993813,2.4572499-.9450277,3.788799-1.0038379v2.300355h.8324373v-2.2990594c1.3355375.0609695,2.6278121.4103757,3.7981731,1.0153459l-3.8391751,6.6496418c-.1223963-.0305356-.2496956-.0485216-.3814152-.0485216-.7264011,0-1.3381034.4937008-1.521393,1.1626889Zm1.521393,1.1626381c-.4116459,0-.7464703-.3348243-.7464703-.7464195s.3348243-.7464703.7464703-.7464703.7464703.3348751.7464703.7464703-.3348243.7464195-.7464703.7464195Z"/></svg>