<?xml version="1.0" encoding="UTF-8"?><svg id="Layer_1" xmlns="http://www.w3.org/2000/svg" width="24" height="24" viewBox="0 0 24 24"><path d="m6.6752632,7.7824082l1.9739174,1.4340652-.7539675,2.3203897c-.1888722.5812666.0085646,1.1890159.5030018,1.5482224.2473031.1796878.5305551.2695035.8139761.2694472.2833083,0,.5667293-.0898157.8139197-.2693908l1.9739174-1.4341215,1.973861,1.4341215c.4944936.3591502,1.1334023.3591502,1.6278958,0,.4944372-.3592629.6919304-.9669558.5030582-1.5482224l-.7539675-2.320446,1.973861-1.4340652c.4944372-.3592629.6919304-.9669558.5030582-1.5482224s-.7057915-.9568699-1.3169779-.9568699h-2.4398435l-.7539675-2.320446v-.0000563c-.1888722-.5812103-.7058479-.9568135-1.3170343-.9568135-.6111864.0000563-1.1281057.3756033-1.3169216.9568699l-.7539675,2.320446h-2.4398435c-.6111864,0-1.1281621.3756033-1.3170343.9568699-.1888159.5812666.008621,1.1889595.5030582,1.5482224Zm.3749834-1.262942c.0242852-.0748277.127793-.3189754.4389926-.3189754h2.7752156c.1999724,0,.3771809-.1287509.4389926-.3189754l.857588-2.6394214c.0961265-.2958735.3602771-.3188627.4389363-.3189191.0787155,0,.3428662.0230456.439049.3189754v-.0000563l.857588,2.6394214c.0618117.1902245.2390203.3189754.4389926.3189754h2.7752156c.3111996,0,.4147075.2441478.4389926.3189754s.0840684.3331746-.1676861.5160741l-2.2451676,1.6312203c-.1617697.117538-.2294978.3258496-.1676861.5160178l.857588,2.6393651c.0961265.2959862-.1040713.4698703-.1676861.5161305-.0636148.0461475-.290915.1828432-.5426695,0l-2.2451676-1.6312203c-.080913-.0588254-.1760816-.0881817-.2713066-.0881817s-.1904499.0294127-.2713066.0881253l-2.245224,1.6312766c-.2519235.1828432-.4789984.0461475-.5426132,0-.0636711-.0462602-.2638689-.2201443-.1676861-.5160741l.857588-2.6394214c.0618117-.1901682-.0059163-.3984798-.1676861-.5160178l-2.245224-1.6312203c-.2517545-.1828995-.1919712-.4412465-.1676297-.5160741Zm14.011365,5.7944099c-.0786028-.0465982-.1608682-.0820118-.2444295-.1119597v3.7115191c0,.1687566-.0919569.3239339-.2399781.4049596l-8.5771759,4.6938574-8.5772322-4.6939701c-.1480213-.0809694-.2399781-.2360903-.2399781-.4048469v-2.4082896c0-.2373862.1582199-.3567837.226286-.3970711.0422596-.025074.1281311-.066094.2371608-.066094.0662067,0,.1410343.0151571.2196935.0582055l7.9124607,4.3301432c.1381607.0756165.3051706.0756165.4432186,0l7.2107824-3.9461162v-1.0523765l-7.4323917,4.0674294-7.6908514-4.2088863c-.433358-.2371608-.945826-.2283708-1.3707885.0234963-.4250188.2519235-.6787454.6972269-.6787454,1.1912697v2.4082896c0,.5062699.275927.9717452.7199908,1.2147097l8.7987852,4.8151706c.069024.0378082.1453167.0566842.2216093.0566842s.1525853-.018876.2216093-.0566842l8.7988415-4.8151143c.4440074-.2430772.7198781-.7085525.7198781-1.2147661v-2.4082896c0-.4940428-.2537266-.9394026-.6787454-1.1912697Z"/></svg>