<?xml version="1.0" encoding="UTF-8"?><svg id="Layer_1" xmlns="http://www.w3.org/2000/svg" width="24" height="24" viewBox="0 0 24 24"><path d="m19.2751047,7.0222773c.0705748-.1703703.031614-.3665104-.0988493-.4969179l-4.3918906-4.3918349c-.0854913-.0854913-.2014833-.1335244-.3223733-.1335244H6.0580231c-.7542822,0-1.3678601.6136335-1.3678601,1.3678601v17.2642799c0,.7542266.6135779,1.3678601,1.3678601,1.3678601h11.8189433c.7542822,0,1.3678601-.6136335,1.3678601-1.3678601v-11.9563638h-.9119067v11.9563638c0,.2514089-.2044888.4559534-.4559534.4559534H6.0580231c-.2514645,0-.4559534-.2045445-.4559534-.4559534V3.3678601c0-.2514089.2044888-.4559534.4559534-.4559534h7.9480151v3.0239748c0,.7542266.6135779,1.3678601,1.3678601,1.3678601h3.4799839c.1844518,0,.3506477-.1110941.4212225-.2814644Zm-3.9012064-.6304423c-.2514645,0-.4559534-.2045445-.4559534-.4559534v-2.3791309l1.4518486,1.4518068,1.3832774,1.3832774h-2.3791726Zm-1.8417911,8.9285764h1.0982509l.6823716-1.1674899h.0319479l.6877148,1.1674899h1.0875645v-.1385893l-1.2048924-1.8392308,1.0768781-1.609974v-.1439325h-1.0501621l-.6024462,1.0182142h-.0212615l-.6024462-1.0182142h-1.0555053v.1439325l1.0822213,1.609974-1.2102356,1.8392308v.1385893Zm-2.7608777-.4638012h1.3968024l.2185148.4638012h1.0076391v-.1333018l-1.6952426-3.635716h-.4478272l-1.7112722,3.635716v.1333018h1.0182142l.2131716-.4638012Zm.6984012-1.7166154l.3891633.9009977h-.7729834l.3838201-.9009977Zm-2.7290411,2.1804166v-2.8787622h.9116841v-.8529645h-2.772232v.8529645h.9170273v2.8787622h.9435207Z"/></svg>