<?xml version="1.0" encoding="UTF-8"?><svg id="Layer_1" xmlns="http://www.w3.org/2000/svg" width="24" height="24" viewBox="0 0 24 24"><path d="m22,11.9999723c0-1.0729084-.5014765-2.0808424-1.3276522-2.7052944.0364651-.2027269.0548948-.4086084.0548948-.6152648,0-1.6822513-1.20119-3.0781502-2.7579201-3.3080513v-.0125632c0-1.842363-1.4406173-3.3412026-3.2113644-3.3412026-1.1707644,0-2.196803.6555002-2.7579754,1.6319985-.5611586-.9764983-1.5871695-1.6319985-2.7579339-1.6319985-1.7707472,0-3.2113644,1.4988397-3.2113644,3.3412026v.0125632c-1.5567854.229901-2.7579823,1.6257999-2.7579823,3.3080513,0,.206601.0184297.4124825.0549571.6153201-.8261827.6243966-1.3276591,1.6323306-1.3276591,2.705239,0,1.0729638.5014765,2.0808977,1.3276591,2.7052944-.0365274.2028376-.0549571.4087191-.0549571.6153201,0,1.682196,1.201197,3.0780949,2.7579823,3.3079959v.0125632c0,1.842363,1.4406173,3.341258,3.2113644,3.341258,1.0821371,0,2.0418591-.563739,2.6241593-1.4233221.0349431-.0515811.1167631-.1839374.1244767-.1972201.2897838-.4983495.4588059-1.0806843.4622787-1.7033099l.0008993.0000277c-.0000069-.0007748-.0001107-.001522-.0001176-.0022691l-.0000761-2.7220637h1.0609748v1.7440158h.9067642v-1.7440158h.1526955c.7499733,0,1.3601464-.6101731,1.3601464-1.3601464v-.1433422h1.8972094v-.9067642h-1.8972094v-1.0706393h1.8972094v-.9067642h-1.8972094v-1.070584h1.8972094v-.9067642h-1.8972094v-.1433422c0-.7499733-.6101731-1.3601464-1.3601464-1.3601464h-.1526955v-1.6629361h-.9067642v1.6629361h-1.06121l-.0000761-2.7069547c0-1.3423808,1.0338352-2.4344384,2.3046002-2.4344384s2.3046002,1.0920576,2.3046002,2.4344384c0,.1230862-.0089105.2472239-.0263993.3689264-.0188725.1310004.0204221.2637165.107645.3633366.0871676.0995648.2136851.1528615.3459031.1546879l.0262333-.0008302c1.2707097,0,2.3045449,1.092113,2.3045449,2.4344937,0,.234716-.0321552.4680484-.0955246.6935772-.0552892.1965283.0276722.4057305.2025055.5110511.719091.433126,1.1657696,1.2439229,1.1657696,2.1159308,0,.8720632-.4466785,1.6828048-1.1657696,2.1159308-.1748333.1053206-.2577393.3145228-.2025055.5109957.0633694.2256395.0955246.4590273.0955246.6936879,0,1.3423808-1.0338352,2.4344384-2.3055964,2.4343277l-.0227466-.0006641c-.1330482-.0021031-.2597871.0541269-.3475634.153747-.087721.0996754-.1273477.232779-.1084199.3641668.0174889.1218132.0263993.2459509.0263993.3689818,0,1.3423808-1.0338352,2.4344937-2.3046002,2.4344937-.5099373,0-.9807944-.1789841-1.3634394-.4774846-.1258257.2805689-.277947.5460011-.4527733.7936954.5173327.3716383,1.1428985.5905535,1.8162127.5905535,1.7707472,0,3.2113644-1.498895,3.2113644-3.341258v-.0125632c1.55673-.229901,2.7579201-1.6257999,2.7579201-3.3079959,0-.2066564-.0184297-.4125379-.0549502-.6153201.8262311-.6243413,1.3277076-1.6323306,1.3277076-2.7052944Zm-10.4537384,6.6540689c-.006586,1.3352967-1.0402552,2.4215985-2.3042128,2.4215985-1.270765,0-2.3046002-1.092113-2.3046002-2.4344937,0-.1229755.0088551-.2471685.0263993-.3691478.0188725-.1313878-.0208095-.2644914-.1085859-.3641114-.086116-.0977937-.2100877-.1536917-.3402026-.1536917-.0023798,0-.0048703,0-.0072501.0000553l-.0237428.0007748c-1.270765,0-2.3046002-1.0920576-2.3046002-2.4344384,0-.23455.0321552-.4679377.0955799-.6936879.0552338-.196473-.0276722-.4056752-.2025055-.5109957-.719091-.433126-1.1657765-1.2438676-1.1657765-2.1159308,0-.8720079.4466854-1.6828048,1.1657765-2.1159308.1748333-.1053206.2577393-.3145228.2025055-.5110511-.0634248-.2256395-.0955799-.4590273-.0955799-.6935772,0-1.3423808,1.0338352-2.4344937,2.3042681-2.434383l.0264547.0007195c.137199-.0008855.2587355-.0550678.3459031-.1546325.0872229-.0995648.1265729-.2322255.1077557-.3632259-.0175442-.1218686-.0263993-.2460616-.0263993-.3690925,0-1.3423808,1.0338352-2.4344384,2.3046002-2.4344384,1.2707097,0,2.3045449,1.0920576,2.3045449,2.4344384l-.0000623,2.7069547h-1.0798749v-1.6629361h-.9067642v1.6629361h-.133989c-.7499733,0-1.3601464.6101731-1.3601464,1.3601464v.1433422h-1.6629361v.9067642h1.6629361v1.070584h-1.6629361v.9067642h1.6629361v1.0706393h-1.6629361v.9067642h1.6629361v.1433422c0,.7499733.6101731,1.3601464,1.3601464,1.3601464h.133989v1.7440158h.9067642v-1.7440158h1.0796674l-.0000623,2.7197946Zm3.0278421-9.6815236c.2499911,0,.4533821.203391.4533821.4533821v5.1482005c0,.2499911-.203391.4533821-.4533821.4533821h-5.1482005c-.2499911,0-.4533821-.203391-.4533821-.4533821v-5.1482005c0-.2499911.203391-.4533821.4533821-.4533821h5.1482005Z"/></svg>