<?xml version="1.0" encoding="UTF-8"?><svg id="Layer_1" xmlns="http://www.w3.org/2000/svg" width="24" height="24" viewBox="0 0 24 24"><path d="m16.78302,16.2289429l-.6797485-.0038452-2.9216919,2.9326172c.7519531.6716309,1.730896,1.0921631,2.8184204,1.0922852,1.1743774-.0001221,2.2352905-.4753418,3.005188-1.244812.7137451-.7141113,1.1566772-1.6835938,1.2197876-2.7567139l-3.4419556-.0195312Zm3.4415894-.4805298c-.0638428-1.0718994-.5064087-2.0402832-1.2194214-2.7536621-.7137451-.7133179-1.6827393-1.1560669-2.755188-1.2195435v3.9492798h.3519287l-.0033569.0033569,3.6260376.0205688Zm-8.0578003-6.2975464l2.7145996.9048462c.1675415.0559082.3500366-.0118408.4405518-.1635132l2.0498047-3.4331055c.1972656.0704956.4066772.1158447.6282349.1159058,1.0357056-.0002441,1.8747559-.8393555,1.875-1.875-.0002441-1.0357056-.8392944-1.8747559-1.875-1.875-1.0357056.0002441-1.8747559.8392944-1.875,1.875.0001221.5437012.2350464,1.0291138.6046753,1.371521l-1.8970947,3.1773682-2.7139893-.9046631c-.1665039-.055481-.3498535.0123291-.4401245.1628418l-2.0587158,3.4311523c-.1948853-.0686646-.4013062-.1131592-.619751-.1132202-.2869873.000061-.5557251.0696411-.7988281.1848145l-1.9011841-2.5348511c-.0752563-.1002808-.1940918-.1559448-.3193359-.1494751-.1251831.0064697-.2377319.0740356-.3021851.1815796l-3,5c-.1065674.1775513-.0490112.4078979.1286011.5144653s.407959.0490112.5145264-.1286011h-.000061l2.7130737-4.5217896,1.567688,2.09021c-.293396.3308716-.4771729.7614746-.4772949,1.2386475.0002441,1.0356445.8392944,1.8747559,1.875,1.875,1.0357056-.0002441,1.8747559-.8393555,1.875-1.875-.0001221-.546875-.2380981-1.0344238-.6114502-1.3771362l1.9032593-3.1719971Zm5.8331909-5.5758667c.6211548.0010986,1.1239014.5037842,1.125,1.125-.0010986.6211548-.5038452,1.1238403-1.125,1.125-.6211548-.0011597-1.1239014-.5038452-1.125-1.125.0010986-.6212158.5038452-1.1239014,1.125-1.125Zm-9,11.25c-.6211548-.0011597-1.1239014-.5038452-1.125-1.125.0010986-.6212158.5038452-1.1239014,1.125-1.125.6211548.0010986,1.1239014.5037842,1.125,1.125-.0010986.6211548-.5038452,1.1238403-1.125,1.125Zm2.772583,1.0994873c.0526733.9898682.4400024,1.8821411,1.0562744,2.5787964l2.5691528-2.5787964h-3.6254272Zm.0066528-.5h3.9707642v-3.9494019c-2.1350708.1263428-3.8317261,1.8173218-3.9707642,3.9494019Z"/></svg>