<?xml version="1.0" encoding="UTF-8"?><svg id="Layer_1" xmlns="http://www.w3.org/2000/svg" width="24" height="24" viewBox="0 0 24 24"><path d="m21.5563883,10.439859h-.8867902v-1.1332893h1.3241203v-.8872234h-2.0135813l-7.5302438-5.9974224c-.4880162-.3888101-1.1701125-.3888101-1.6581287,0l-3.6831902,2.9335056v-1.4435183c0-.2449828-.1986289-.4436117-.4436117-.4436117h-2.1667226c-.2449828,0-.4436117.1986289-.4436117.4436117v3.8758556l-2.0546284,1.6364206.5527818.6940097,1.5600056-1.2424797v9.2913354c0,.7338113.5969697,1.3308351,1.3308351,1.3308351h6.3012141v-.8872234h-6.3012141c-.2446579,0-.4436117-.1990079-.4436117-.4436117v-9.9979693l2.0753144-1.6529031h.0332492v-.0264802l4.235972-3.3737667c.1626721-.1296395.3900014-.1295312.5526735,0l6.6587244,5.3034126h-4.5930491v-1.2636327h-.8872234v1.2636327h-1.2574053v.8872234h1.2574053v12.5631139h.8872234v-2.3717956h3.8352485c.7338655,0,1.3308351-.5970238,1.3308351-1.3308351v-1.1431449h-.8872234v1.1431449c0,.2446038-.1989538.4436117-.4436117.4436117h-3.8352485v-9.304095h2.3602612v1.1332893h-.8694616c-.2449828,0-.4436117.1986289-.4436117.4436117v4.3659905c0,.2449828.1986289.4436117.4436117.4436117h6.1026935c.2449828,0,.4436117-.1986289.4436117-.4436117v-4.3659905c0-.2449828-.1986289-.4436117-.4436117-.4436117ZM6.221351,6.0620634l-1.2794992,1.0190628v-2.7256033h1.2794992v1.7065405Zm10.9890288,3.2445063h2.5719948v1.1332893h-2.5719948v-1.1332893Zm3.9023968,5.4992798h-5.2154701v-3.4787671h5.2154701v3.4787671Z"/></svg>