<?xml version="1.0" encoding="UTF-8"?><svg id="Layer_1" xmlns="http://www.w3.org/2000/svg" width="24" height="24" viewBox="0 0 24 24"><path d="m20.6412941,3.4400314H3.3587059c-.7492343,0-1.3587059.6095269-1.3587059,1.3587059v11.7397915c0,.749179.6094716,1.3587059,1.3587059,1.3587059h6.7957408v1.7569301h-3.3487765v.9058039h10.3886598v-.9058039h-3.3487765v-1.7569301h6.7957408c.7492343,0,1.3587059-.6095269,1.3587059-1.3587059V4.7987373c0-.749179-.6094716-1.3587059-1.3587059-1.3587059Zm-7.7015447,16.2141333h-1.8794989v-1.7569301h1.8794989v1.7569301Zm8.1544466-3.115636c0,.2497263-.2031203.452902-.452902.452902H3.3587059c-.2497816,0-.452902-.2031756-.452902-.452902v-.602395h16.8236049v-.9058039H2.9058039V4.7987373c0-.2497263.2031203-.452902.452902-.452902h17.2825883c.2497816,0,.452902.2031756.452902.452902v11.7397915Z"/></svg>