<?xml version="1.0" encoding="UTF-8"?><svg id="Layer_1" xmlns="http://www.w3.org/2000/svg" width="24" height="24" viewBox="0 0 24 24"><defs><style>.cls-1{fill:#036;}</style></defs><path class="cls-1" d="m15.5897142,7.3736132c-.9020203,0-1.760626.1882006-2.5399921.5259109.2541982.2010976.4941196.4202139.7207989.6519618.5702543-.198842,1.1820125-.3083073,1.8191932-.3083073,3.0551556,0,5.5407202,2.4855647,5.5407202,5.5407202s-2.4855647,5.5407202-5.5407202,5.5407202c-1.0499377,0-2.0326306-.2935792-2.8702522-.802931,1.28899-1.1732288,2.1011028-2.861621,2.1011028-4.7377892,0-3.1508481-2.2857475-5.7761303-5.2857325-6.3094981l1.6078125-1.6078258c.169837-.169837.169837-.4450791,0-.6149161l-1.318466-1.318519c-.0815218-.0815218-.1921281-.1273247-.307405-.1273247h-2.2128701c-.1152769,0-.2258832.0458029-.307405.1273247l-1.3185721,1.318519c-.0815218.0815748-.1273778.1921281-.1273778.3074581s.045856.2258832.1273778.3074581l1.6078125,1.6078258c-2.9999851.5333678-5.2857392,3.15865-5.2857392,6.3094981,0,3.5346267,2.8756591,6.4102858,6.4102858,6.4102858.9025311,0,1.7615813-.1884395,2.5412858-.5265213-.2550143-.2014426-.4968595-.4185686-.7235986-.6508207-.5698164.198497-1.1810771.3077765-1.8176873.3077765-3.0551556,0-5.5407202-2.4855647-5.5407202-5.5407202s2.4855647-5.5407202,5.5407202-5.5407202c1.0499377,0,2.0325974.2935527,2.8702256.8029045-1.2889435,1.1732553-2.1010762,2.8616475-2.1010762,4.7378158,0,3.5346267,2.8756591,6.4102858,6.4102791,6.4102858,3.5346267,0,6.4102858-2.8756591,6.4102858-6.4102858s-2.8756591-6.4102858-6.4102858-6.4102858Zm-8.9894665-1.8144962l.8837894-.8837363h1.8526034l.8836832.8837363-1.810038,1.8101441-1.810038-1.8101441Zm5.3989262,12.4396324c-1.1921231-1.0170849-1.9501734-2.5286874-1.9501734-4.2148505,0-1.6866142.7589127-3.198031,1.9516263-4.2150362,1.1922359,1.0170849,1.9503724,2.528767,1.9503724,4.2150362,0,1.6866142-.7591184,3.1978187-1.9518253,4.2148505Z"/></svg>