<?xml version="1.0" encoding="UTF-8"?><svg id="Layer_1" xmlns="http://www.w3.org/2000/svg" width="24" height="24" viewBox="0 0 24 24"><path d="m5.877889,12.9146812l-1.2427506.2536552c.6906475,3.6098185,3.8633683,6.3384273,7.6743847,6.3384273,4.3157427,0,7.815355-3.4991729,7.815355-7.815355,0-4.3158305-3.4996124-7.8152495-7.815355-7.8152495-2.895632,0-5.4220057,1.5754611-6.7710423,3.9156498-.5136391.9336495-.5608577,1.7445587-.1795575,2.411175.445325.7808657,1.4509979.8988948,2.0109942.8988948h.9951955l-.3615409,1.1306635c-.2295361.6828246-.1320224,1.4103892.2250709,1.9133926.3500439.4808708.9066122.7453375,1.5723671.7453375.4647328,0,.9459376-.0780356,1.392458-.2840327-.1186268-.169959-.2170019-.3578668-.2923654-.5576055-.0667847-.1824053-.1150229-.3744267-.1400914-.571423-.280675.1083251-.5957004.1537331-.9047136.1537331-.1782038,0-.4396644-.0673824-.5744291-.2569953-.1241292-.1706446-.1589718-.4440417-.0726211-.7519474l.4933875-1.5211227h1.5351336l.4056655-1.2673972h-1.5284358l.6762323-2.0757221h-1.3469622l-.6736481,2.0757221h-1.4007028c-.4465204,0-.7282501-.113476-.8611163-.3466862-.150393-.2624977-.0175092-.7974432.3550189-1.4289356l.0151008-.0251563c1.1763175-1.7434512,3.1679215-2.890323,5.4306021-2.890323,3.6160065,0,6.54787,2.9323029,6.54787,6.5480282,0,3.6176238-2.9318634,6.5481337-6.54787,6.5481337-3.1976134,0-5.8602989-2.2934975-6.431634-5.3248612Z"/><path d="m13.7627535,9.8344816h-1.3433584l-.8230039,2.5729068c-.2137321.6331272-.137683,1.2968253.2036063,1.777784.3311634.4550289.8602725.7060999,1.4891104.7060999.621806,0,1.2868753-.2561515,1.8321224-.7060999.1857455.2799894.4171626.4594765.7217281.563354.4231748.1427459.7107233.1427459,1.0154471.1427459.1452422,0,.2939124-.0326276.3622441-.0497853.0265978-.0418921.0556217-.0832743.0810241-.1249906.0487481-.081112.0959667-.1629975.1409528-.2459202.0441071-.0801627.0872121-.1660915.1285768-.2499635.0387981-.0847158.0787915-.1721037.1158843-.2594741.0254024-.0602627.0502951-.1234436.0743263-.1864486-.0837665.0093523-.2653984.0278987-.4793062.0278987-.3035284,0-.7167531-.0378488-.9615658-.2166503-.0957909-.0706522-.2236821-.197682-.261109-.3952936-.001547-.0024787-.0042894-.0182827-.0042894-.0189683-.0149426-.1007659-.0084206-.2211155.0396594-.3600818l.9653279-2.9771132h-1.3430243l-.8249025,2.5759129c-.0006856.0031643-.0006856.0037796-.0029182.0069439-.2314171.6655967-.9261782,1.2070466-1.5502168,1.2070466-.1644742,0-.3763077-.0660112-.482242-.2136442-.0817097-.1127903-.1589718-.3085913-.0605967-.5999195l.9665233-2.9763397Z"/><path d="m6.347421,18.5198833c-.3090132-.2700394-.5993218-.5604358-.8693611-.869449l-2.2449955,2.2450834V2.5978627h-1.2295484v18.7872752c0,.339584.2752077.6148621.6147742.6148621h18.7385271v-1.2297066H4.0970988l2.2503221-2.25041Z"/><path d="m21.3817098,2h-3.1495509l-.0001758,1.2296363h1.6654156l-1.6317683,1.6317683c.309189.2699515.5996558.56026.8697127.8691853l1.6314168-1.6315046.0001758,1.6654156,1.2295484-.0000879v-3.1496388c.0001582-.3395665-.2752077-.6148621-.6147742-.6147742Z"/></svg>