<?xml version="1.0" encoding="UTF-8"?><svg id="Layer_1" xmlns="http://www.w3.org/2000/svg" width="24" height="24" viewBox="0 0 24 24"><path d="m5.8081499,13.7242709c.9508168,0,1.7242987-.7735374,1.7242987-1.7242987s-.7734819-1.7242432-1.7242987-1.7242432c-.7931796,0-1.4612094.5391346-1.661377,1.2696977h-2.1467729v.9090909h2.1467729c.2001676.7305908.8681974,1.2697532,1.661377,1.2697532Zm0-2.5394509c.4495517,0,.8152077.3656561.8152077.8151523s-.3656561.8152077-.8152077.8152077c-.4494407,0-.8150968-.3657116-.8150968-.8152077s.3656561-.8151523.8150968-.8151523Zm3.087935.8151523c0,.1544189-.0117354.3061468-.0337358.4545455h13.1376509v-.9090909h-13.1376509c.0220004.1483987.0337358.3001265.0337358.4545455Zm9.1290838-6.5567294c-.2001676-.7305631-.8681974-1.2696977-1.6614879-1.2696977s-1.4613204.5391346-1.6614879,1.2696977H2v.9090909h12.7021928c.2001676.7305908.8681974,1.2697532,1.6614879,1.2697532s1.4613204-.5391624,1.6614879-1.2697532h3.9748313v-.9090909h-3.9748313Zm-1.6614879,1.2697532c-.4495517,0-.8152077-.3657116-.8152077-.8152077s.3656561-.8151523.8152077-.8151523.8152077.3656561.8152077.8151523-.3656561.8152077-.8152077.8152077Zm-1.0590154,11.3891602c0,.1538918-.0116799.3050648-.0335138.4529918h6.7288485v-.9090909h-6.7292647c.0221669.148898.03393.3011253.03393.4560991Zm-3.087935-1.7242432c-.7926247,0-1.4602939.5383578-1.6609885,1.2681441H2v.9090909h8.5549372c.1996682.7313676.8680586,1.2713068,1.6617931,1.2713068.9508168,0,1.7242987-.7735374,1.7242987-1.7242987s-.7734819-1.7242432-1.7242987-1.7242432Zm0,2.5394509c-.4494407,0-.8150968-.3657116-.8150968-.8152077s.3656561-.8151523.8150968-.8151523c.4495517,0,.8152077.3656561.8152077.8151523s-.3656561.8152077-.8152077.8152077Z"/></svg>