<?xml version="1.0" encoding="UTF-8"?><svg id="Layer_1" xmlns="http://www.w3.org/2000/svg" width="24" height="24" viewBox="0 0 24 24"><path d="m4.1696919,11.5763291c0,1.0041356.8408433,1.7960069,2.1225394,1.7960069,1.289858,0,2.1143774-.7918713,2.1143774-1.8123309-.008162-.6857131-.4082046-1.2081859-1.0204596-1.4939084.3918286-.2367504.6693891-.612307.6693891-1.1021317,0-.8326813-.7020371-1.4857464-1.7633068-1.4857464-1.0775937,0-1.7796828.6775511-1.7551968,1.5021224,0,.4897728.2612364.8571674.644903,1.0857557-.612255.2857225-1.0122456.8163573-1.0122456,1.5102324Zm2.1225394-3.3470493c.4979868,0,.9143015.2938845.9143015.7755472,0,.4816108-.3999906.7755472-.9224635.7755472-.4979868,0-.9143534-.3020985-.9143534-.7673852,0-.4816628.4000426-.7837092.9225155-.7837092Zm-.008162,2.2531316c.6612271,0,1.2000239.4082046,1.2000239,1.0531077,0,.628631-.5387969,1.0367836-1.1918619,1.0367836-.653117,0-1.1919139-.3999906-1.1919139-1.0204596,0-.644903.5306348-1.0694317,1.1837519-1.0694317Z"/><path d="m11.4922136,9.7803743l1.4449363-2.0572433v-.1469682h-3.6164997v.7673852h2.3021557l-1.289858,1.9184371v.1632923c.7837092-.1959403,1.7551968.0897821,1.7551968,1.0449457,0,.6776031-.4408527,1.0857557-1.1020798,1.0857557-.5878209,0-.9959736-.3020465-1.0531077-.8816534h-.8408953c.0653481,1.0775937.8653814,1.7061727,1.910327,1.7061727,1.25721,0,1.9837332-.8571674,1.9837332-1.9184371,0-.8408433-.5469589-1.6408766-1.4939084-1.6816867Z"/><path d="m19.9960958,11.5580946v-5.7077817c0-.7044805-.5731605-1.277641-1.277641-1.277641H3.277641c-.7044805,0-1.277641.5731605-1.277641,1.277641v9.2021242c0,.7044805.5731605,1.277641,1.277641,1.277641h9.0507111c-.0593695-.2769431-.0983341-.5613009-.1144501-.8517607H3.277641c-.2348268,0-.4258803-.1910535-.4258803-.4258803V5.8503128c0-.2348268.1910535-.4258803.4258803-.4258803h15.4408137c.2348268,0,.4258803.1910535.4258803.4258803v5.2980175c-.4083606-.1429457-.8448204-.2249557-1.2987479-.2359641-.2214921-.8395632-.9585427-1.3075013-1.8962385-1.2871222-.1796163,0-.3510186.0408101-.5143108.1306442l1.3959642-2.2205355h-1.0531077l-1.7306588,2.7430084c-.2204263.3346945-.3673946.7673332-.3673946,1.1836999,0,.5815824.1965122,1.0278093.5214851,1.341618-.4537456.6769727-.718933,1.4904447-.718933,2.3648459,0,2.3483204,1.910483,4.2588034,4.2588034,4.2588034s4.2588034-1.910483,4.2588034-4.2588034c0-1.5206104-.8016189-2.8568216-2.0039042-3.6104302Zm-4.2018773-1.1981134c.5162863,0,.9259206.2222654,1.096985.6351229-.8047121.1636497-1.5269463.5556083-2.0978194,1.1040878-.1156978-.1683935-.1828655-.3804304-.1828655-.6371309,0-.7102511.4898248-1.1020798,1.1836999-1.1020798Zm1.9469781,8.2155863c-1.8786667,0-3.4070427-1.528376-3.4070427-3.4070427s1.528376-3.4070427,3.4070427-3.4070427,3.4070427,1.528376,3.4070427,3.4070427-1.528376,3.4070427-3.4070427,3.4070427Z"/><rect x="16.3530825" y="13.713282" width=".7952244" height=".7952309"/><rect x="18.3341123" y="13.713282" width=".7952244" height=".7952309"/><path d="m17.7411966,16.5732229c-.5277755,0-1.0031998-.3332389-1.1829721-.8293021l-.8008131.2902973c.3015266.8318495,1.0987526,1.3907655,1.9837851,1.3907655.8850846,0,1.6823105-.558916,1.9838371-1.3907655l-.8008131-.2902973c-.1797722.4960633-.6551965.8293021-1.1830241.8293021Z"/></svg>