<?xml version="1.0" encoding="UTF-8"?><svg id="Layer_1" xmlns="http://www.w3.org/2000/svg" width="24" height="24" viewBox="0 0 24 24"><path d="m18.6932478,10.3416845c.8022584-.5494577,1.3298707-1.4719676,1.3298707-2.515633,0-1.6803137-1.3670435-3.0473572-3.0473572-3.0473572-1.4761814,0-2.7102302,1.0551991-2.9883644,2.4508606-.5340411-.4607648-1.2285747-.7403503-1.9876006-.7403503-.7588604,0-1.4532539.2794582-1.9872568.7400448-.2782488-1.3955087-1.5122212-2.450555-2.9883007-2.450555-1.6803137,0-3.0473572,1.3670435-3.0473572,3.0473572,0,1.0436653.5276123,1.9661753,1.329877,2.515633-1.9271183.7031775-3.3067586,2.5542316-3.3067586,4.7216621v2.0302984h.8343008v-2.0302984c0-2.3103167,1.8796211-4.1899379,4.1899379-4.1899379.7588604,0,1.4532539-.2794582,1.9872568-.7400448.1582391.7936144.6255538,1.4768943,1.2708206,1.9188308-1.9271183.7031775-3.3067586,2.5542316-3.3067586,4.7216621v1.1959976c0,.6900397.5613606,1.2514513,1.2514513,1.2514513h7.5456767c.6900906,0,1.2514513-.5614115,1.2514513-1.2514513v-1.1959976c0-1.6823251-.8319839-3.1730319-2.1052042-4.0853702-.2156279.1998421-.4513571.3782081-.7043742.5309349,1.1849476.7409996,1.9752775,2.0568541,1.9752775,3.5544353v1.1959976c0,.2300132-.1870863.4171504-.4171504.4171504h-7.5456767c-.2300642,0-.4171504-.1871372-.4171504-.4171504v-1.1959976c0-2.3103167,1.8796211-4.1899379,4.1899379-4.1899379,1.4761814,0,2.7102302-1.0551991,2.9883644-2.4508606.5340411.4607648,1.2285747.7403503,1.9876006.7403503,2.3103167,0,4.1899379,1.8796211,4.1899379,4.1899379v2.0302984h.8343008v-2.0302984c0-2.1674305-1.3796466-4.0184846-3.3067522-4.7216621Zm-11.6690091-.3025766c-1.2202872,0-2.2130563-.9927691-2.2130563-2.2130563s.9927691-2.2130563,2.2130563-2.2130563,2.2130563.9927691,2.2130563,2.2130563-.9927691,2.2130563-2.2130563,2.2130563Zm4.9755576,1.7105102c-1.2202872,0-2.2130563-.9927691-2.2130563-2.2130563s.9927691-2.2130563,2.2130563-2.2130563,2.2130563.9927691,2.2130563,2.2130563-.9927691,2.2130563-2.2130563,2.2130563Zm2.7629086-3.9235666c0-1.2202872.9927691-2.2130563,2.2130563-2.2130563s2.2130563.9927691,2.2130563,2.2130563-.9927691,2.2130563-2.2130563,2.2130563-2.2130563-.9927691-2.2130563-2.2130563Z"/></svg>