<?xml version="1.0" encoding="UTF-8"?><svg id="Layer_1" xmlns="http://www.w3.org/2000/svg" width="24" height="24" viewBox="0 0 24 24"><path d="m21.0698743,4.2554412c-.1590174,4.0706842-1.0126386,7.4110736-2.5989636,10.1744816-1.4889985,2.5937304-3.6065351,4.6315784-6.4680172,6.2234135-2.8615929-1.5917797-4.9790187-3.6296831-6.4680172-6.2234135-1.7110635-2.9806551-2.5711916-6.6311049-2.6249081-11.1470544h17.2078786l.90731-.90731H2.453655c-.2505292,0-.453655.2031258-.453655.453655,0,4.888919.8988926,8.8313206,2.7479576,12.0524262,1.6126018,2.8090393,3.9149895,4.9967396,7.0389624,6.6880886.0673394.036494.1416564.0547133.2159735.0547133s.148634-.0182193.2159735-.0547133c3.1238622-1.6914044,5.4263607-3.8790493,7.0388517-6.6880886,1.7858789-3.1108207,2.6827779-6.8971399,2.7422814-11.5563241l-.9301257.9301257Zm-11.6255463,6.2779883l-.6414965.6416073,2.1672659,2.1673213c.0850603.0850603.2004677.1328514.3207483.1328514s.235688-.047791.3207483-.1328514l5.8477858-5.8478412-.6414965-.6416073-5.5270375,5.5270929-1.8465176-1.846573Z"/></svg>