<?xml version="1.0" encoding="UTF-8"?><svg id="Layer_1" xmlns="http://www.w3.org/2000/svg" width="24" height="24" viewBox="0 0 24 24"><path d="m18.4871677,18.3861468c-3.521388,3.5714756-9.2917274,3.6121892-12.863203.0909121-3.5714202-3.521388-3.6121892-9.2917828-.0909121-12.863203,1.7772512-1.8024892,4.1265442-2.7054533,6.4777232-2.7054533,2.3073592,0,4.6166043.8704598,6.3855908,2.6145412h-.0000555c1.5825862,1.5604267,2.52019,3.5995979,2.6821012,5.7954664h.9114507c-.163492-2.441259-1.1984146-4.7101234-2.9554477-6.4425564-3.9284124-3.8732772-10.2753975-3.8282926-14.1484528.0998979-3.8731663,3.9283015-3.8283481,10.2752311.0999534,14.1483973,1.9459295,1.9186392,4.4853115,2.8758511,7.0235286,2.8758511,2.5857532,0,5.1702862-.9934325,7.1248132-2.975749,1.6990136-1.7231699,2.6953026-3.9526797,2.8549119-6.3426585h-.9105355c-.1581116,2.1494972-1.061464,4.1528084-2.5914665,5.7045543Zm-6.9314517-12.8109521v6.4248067c0,.2509374.2034567.4543941.4543941.4543941h8.0039261v-.9087882h-7.549532v-5.9704126h-.9087882Z"/></svg>