<?xml version="1.0" encoding="UTF-8"?><svg id="Layer_1" xmlns="http://www.w3.org/2000/svg" width="24" height="24" viewBox="0 0 24 24"><path d="m19.9707507,7.1811053l1.90682-1.90682c.1632391-.1632901.1632391-.4279221,0-.5912122l-1.90682-1.90682-.5912122.5912122,1.1932296,1.1931913h-7.6648241l.0004656.0005868c-.2229165-.0014288-.4461136.0559524-.6449002.173164h-.000051l-6.1179184,3.6071291c-.4934422.2909625-.7236813.8577322-.5728931,1.4103671s.6369844.9239668,1.2098265.9239668h.4950751v6.2107896h-.5105367c-.7037803,0-1.2763672.5725869-1.2763672,1.2763672,0,.1549087.0291307.3027883.0799037.4402709h-2.1433164l1.1932296-1.1931913-.5912122-.5912122-1.90682,1.90682c-.1632391.1632901-.1632391.4279221,0,.5912122l1.90682,1.90682.5912122-.5912122-1.1932296-1.1931913h15.2827661c.7037803,0,1.2763162-.5725869,1.2763162-1.2763672s-.5725359-1.2763162-1.2763162-1.2763162h-.186712v-6.2107896h.4950751c.5728421,0,1.0590383-.3713319,1.2098265-.9239668.1507882-.5526859-.0794508-1.1194556-.5728931-1.4103671l-2.8677121-1.6907924h-1.6461427l4.0892495,2.4110037c.2551408.150431.2106442.3978155.1909474.4700714s-.1070571.3080059-.4032755.3080059H6.7824734c-.2962184,0-.3835276-.2357501-.4032755-.3079549-.0196969-.0722559-.0641934-.3196914.1909984-.4701224l6.1179184-3.6071291c.0632111-.0372888.1338724-.0561565.204776-.0574449v-.0004975l7.6798774.0000255-1.1932296,1.1931913.5912122.5912122Zm-11.8571569,3.4947651h.8993712v6.2107896h-.8993712v-6.2107896Zm6.0725544,6.2107896v-6.2107896h1.7657272v6.2107896h-1.7657272Zm-.8360453,0h-.8993202v-6.2107896h.8993202v6.2107896Zm-1.7353654,0h-1.7657272v-6.2107896h1.7657272v6.2107896Zm7.5355315,1.2763672c0,.242792-.197479.4402709-.4402709.4402709H6.7670118c-.242792,0-.4403219-.19753-.4403219-.4403219,0-.2427409.19753-.4402709.4403219-.4402709h11.9429862c.242792,0,.4402709.19753.4402709.4403219Zm-1.4630282-1.2763672h-.8993202v-6.2107896h.8993202v6.2107896Z"/></svg>