<?xml version="1.0" encoding="UTF-8"?><svg id="Layer_1" xmlns="http://www.w3.org/2000/svg" width="24" height="24" viewBox="0 0 24 24"><path d="m4.9065605,19.8196471V3.3082117c0-.2404457.1955717-.4360706.4360706-.4360706h7.6014255v2.8921082c0,.721337.5868215,1.3082117,1.3082117,1.3082117h3.328232c.1764084,0,.335357-.1062496.4028543-.2691905s.0302354-.3505279-.0945387-.4752488l-4.2003732-4.2003199c-.0817632-.0817632-.1926972-.1277018-.3083155-.1277018H5.3426311c-.7213902,0-1.3082117.5868748-1.3082117,1.3082117v16.5114354c0,.721337.5868215,1.3082117,1.3082117,1.3082117h5.5529798v-.8721411h-5.5529798c-.2404989,0-.4360706-.1956249-.4360706-.4360706ZM13.8161977,3.4888653l1.3885377,1.3884978,1.3229568,1.3229568h-2.2754239c-.2404989,0-.4360706-.1956249-.4360706-.4360706v-2.275384Zm-7.3752991,8.6411254h9.1078705v-.8721411H6.4408987v.8721411Zm13.0886114,3.6986485h-1.0072421v-.7739295c0-.5938214-.2136703-1.1385038-.5678712-1.5618122v-5.1082325h-.8721411v4.446814c-.304749-.1372768-.6422087-.2143357-.997554-.2143357-.7738762,0-1.4641527.3629308-1.9110026.9270426h-7.7328003v.8721411h7.2916195c-.0553073.203603-.085383.4174995-.085383.6383827v.7739295l-7.2062366.0018298v.8721411h5.7629239v4.8613192c0,.2408183.1952523.4360706.4360706.4360706h6.889617c.2408183,0,.4360706-.1952523.4360706-.4360706v-5.2992196c0-.2408183-.1952523-.4360706-.4360706-.4360706Zm-5.0102337-.7739295c0-.8631983.7022269-1.5654252,1.5654252-1.5654252s1.5654252.7022269,1.5654252,1.5654252v.7739295h-3.1308504v-.7739295Zm4.5741631,6.0731491h-6.0174758v-4.4270785h6.0174758v4.4270785Z"/></svg>