<?xml version="1.0" encoding="UTF-8"?><svg id="Layer_1" xmlns="http://www.w3.org/2000/svg" width="24" height="24" viewBox="0 0 24 24"><path d="m20.633376,4.4166991h-2.8890619v-1.0711227h-.9110827v1.0711227H7.1667686v-1.0711227h-.9110827v1.0711227h-2.8890619c-.7536006,0-1.366624.613079-1.366624,1.366624v13.5044764c0,.753545.6130234,1.366624,1.366624,1.366624h16.3556692v-.9110827H3.366624c-.2512373,0-.4555413-.2043597-.4555413-.4555413v-10.8970695h18.1778346v12.1839654c.5299449-.1882055.9110827-.693245.9110827-1.286896V5.7833231c0-.753545-.6130234-1.366624-1.366624-1.366624Zm.4555413,3.0629483H2.9110827v-1.6963243c0-.2511817.2043041-.4555413.4555413-.4555413h2.8890619v1.0711227h.9110827v-1.0711227h9.6664628v1.0711227h.9110827v-1.0711227h2.8890619c.2512373,0,.4555413.2043597.4555413.4555413v1.6963243Zm-12.5632542,7.1628204l-.6441639.6442751,2.1762776,2.1763332c.085414.085414.2013012.1334038.322082.1334038s.236668-.0479898.322082-.1334038l5.8721014-5.8721014-.6441639-.6442751-5.5500195,5.5500195-1.8541956-1.8542512Z"/></svg>