<?xml version="1.0" encoding="UTF-8"?><svg id="Layer_1" xmlns="http://www.w3.org/2000/svg" width="24" height="24" viewBox="0 0 24 24"><path d="m21.5490975,12.9431873h-.6244701v-4.0394015c.6232774-.2025301,1.0753725-.7882366,1.0753725-1.4781511,0-.8571555-.6973301-1.5545374-1.5544856-1.5545374h-1.3336756l-1.3086283-2.0288795c-.2356931-.3654929-.6360862-.5837099-1.0710165-.5837099H7.2678578c-.4349303,0-.8353234.2182171-1.0710165.5837099l-1.3086283,2.0288795h-1.3336756c-.8571555,0-1.5545374.697382-1.5545374,1.5545374,0,.6896552.4525619,1.2732355,1.0754244,1.4759471v8.6359358c0,.7027233.5717308,1.2744541,1.2744541,1.2744541h1.3858444c.7027233,0,1.2744541-.5717308,1.2744541-1.2744541v-1.1237557h5.9829751c-.0723415-.2751438-.1340521-.5585071-.1856505-.8496361H4.3498785c-.2342411,0-.424818-.1905769-.424818-.424818v-1.3464844h2.8294064c.2346041,0,.424818-.1902139.424818-.424818v-.8496361c0-1.2823884-1.0432726-2.325661-2.325661-2.325661h-.9285635v-.7877699c0-.2342411.1905769-.424818.424818-.424818h14.2397017l-.54798-.8496361H4.4419259l2.4688919-3.8277703c.0786162-.1218137.212046-.19457.3570401-.19457h9.4643362c.144994,0,.2784238.0727563.3570401.19457l2.9179793,4.5241151c.0443383.0687114.067778.1483129.067778.2301443v1.1357349h-.9286153c-1.2823884,0-2.325661,1.0432726-2.325661,2.325661v.424818h-2.5070591c-.2346041,0-.424818.1902139-.424818.424818,0,3.528033,1.2561484,5.9231832,3.8403199,7.3222513.0630589.0341742.1326519.0512354.2022449.0512354s.139186-.0170612.2022449-.0512354c2.5841196-1.3990681,3.840268-3.7942184,3.840268-7.3222513,0-.2346041-.1902139-.424818-.424818-.424818Zm-17.199219,3.4705747h1.8106625v1.1237557c0,.2342411-.1905769.424818-.424818.424818h-1.3858444c-.2342411,0-.424818-.1905769-.424818-.424818v-1.1981196c.1331186.0472812.2757272.0743639.424818.0743639Zm.5037454-5.3714176c.8139062,0,1.4760249.6621187,1.4760249,1.4760249v.424818h-2.4045884v-1.9008429h.9285635Zm-1.4159219-2.9223743c-.3331337-.0559155-.588066-.3455406-.588066-.6943353,0-.3886732.3162281-.7049013.7049013-.7049013h.7856956l-.9025309,1.3992367Zm16.2221168-1.3992367h.7856956c.3886732,0,.7048495.3162281.7048495.7049013,0,.3487947-.2548805.6384328-.588066.6943483l-.9024791-1.3992496Zm-1.9894677,5.7976358c0-.8139062.6621187-1.4760249,1.4760249-1.4760249h.9286153v1.9008429h-2.4046402v-.424818Zm.2610515,7.3112575c-2.0770035-1.2071947-3.0973031-3.1381151-3.1864983-6.0368034h6.044219l-2.8577207,2.8577726-1.2086467-1.2086986-.600823.600823,1.5090582,1.5090582c.0829723.0829204.191666.1244066.3004115.1244066s.2174392-.0414861.3004115-.1244066l2.8199683-2.8199942c-.2660817,2.3833138-1.2765284,4.0261259-3.1203798,5.0978425Zm-2.7981362-8.8754405h-6.266481v.8496361h6.266481v-.8496361Z"/></svg>