<?xml version="1.0" encoding="UTF-8"?><svg id="Layer_1" xmlns="http://www.w3.org/2000/svg" width="24" height="24" viewBox="0 0 24 24"><path d="m21.5758561,16.1768233H4.1209266V6.2453739c0-.2338694.1902227-.4241439.4241439-.4241439h14.9098591c.2339212,0,.4241439.1902745.4241439.4241439v8.6590177h.8482878V6.2453739c0-.7016081-.5707718-1.2724317-1.2724317-1.2724317H4.5450705c-.7016599,0-1.2724317.5708235-1.2724317,1.2724317v9.9314494h-.8484949c-.2342318,0-.4241439.1899121-.4241439.4241439,0,1.3377722,1.0883184,2.4260906,2.4260906,2.4260906h15.1478187c1.3377722,0,2.4260906-1.0883184,2.4260906-2.4260906,0-.2342318-.1899121-.4241439-.4241439-.4241439Zm-10,2.0019468h-7.1497655c-.7230949,0-1.3341479-.4889667-1.519918-1.153659h8.6696834v1.153659Zm7.9980532,0h-7.1497655v-1.153659h8.6696834c-.1857701.6646923-.7968231,1.153659-1.519918,1.153659Zm-6.3892887-10.6292779v-.8482878h-2.3692413v.8482878h2.3692413Z"/></svg>