<?xml version="1.0" encoding="UTF-8"?><svg id="Layer_1" xmlns="http://www.w3.org/2000/svg" width="24" height="24" viewBox="0 0 24 24"><path d="m11.9999447,5.4557462c-2.3334089,0-4.231826,1.8984172-4.231826,4.2318813,0,2.3335195,1.8984172,4.2319366,4.231826,4.2319366,2.3335195,0,4.2319366-1.8984172,4.2319366-4.2319366,0-2.3334642-1.8984172-4.2318813-4.2319366-4.2318813Zm-3.2943658,4.6848134h1.3516644c.0445607,1.0853646.2484008,1.9427567.5410583,2.5623766-1.0044671-.4688545-1.7370644-1.4247527-1.8927227-2.5623766Zm1.3516644-.9058089h-1.3516644c.1556306-1.1376516.8882556-2.0935498,1.8927503-2.5623766-.2926851.61962-.4965253,1.477012-.5410859,2.5623766Zm1.9427014,3.7557014c-.329174,0-.9466654-1.0020069-1.0353445-2.8498925h2.0707995c-.0887067,1.8478856-.7062811,2.8498925-1.035455,2.8498925Zm-1.0353445-3.7557014c.088679-1.8478856.7061705-2.8498925,1.0353445-2.8498925s.9467483,1.0020069,1.035455,2.8498925h-2.0707995Zm2.4370429,3.4681856c.2926851-.61962.4965529-1.477012.5411136-2.5623766h1.3516644c-.1556583,1.1376377-.8882556,2.0935498-1.892778,2.5623766Zm.5411136-3.4681856c-.0445607-1.0853785-.2484285-1.9427567-.5411412-2.5623905,1.0045501.4688407,1.737175,1.4247389,1.8928056,2.5623905h-1.3516644Zm6.6985299-5.7947666H3.3587134c-.7492384,0-1.3587134.6095302-1.3587134,1.3587134v11.7399117c0,.7491831.6094749,1.3587134,1.3587134,1.3587134h6.7956678v1.7568845h-3.348795v.9058089h10.3888278v-.9058089h-3.348795v-1.7568845h6.7956678c.7492384,0,1.3587134-.6095302,1.3587134-1.3587134V4.7986975c0-.7491831-.6094749-1.3587134-1.3587134-1.3587134Zm-7.7014767,16.2142229h-1.8796199v-1.7568845h1.8796199v1.7568845Zm8.1543812-3.1155979c0,.2497277-.2031215.4529045-.4529045.4529045H3.3587134c-.249783,0-.4529045-.2031767-.4529045-.4529045v-.6023983h16.8235873v-.9058089H2.9058089V4.7986975c0-.2497277.2031215-.4529045.4529045-.4529045h17.2825732c.249783,0,.4529045.2031767.4529045.4529045v11.7399117Z"/></svg>