<?xml version="1.0" encoding="UTF-8"?><svg id="Layer_1" xmlns="http://www.w3.org/2000/svg" width="24" height="24" viewBox="0 0 24 24"><path d="m3.7209463,19.0244004c-.2145868,0-.3891658-.1745791-.3891658-.3891658v-1.2425387c0-2.6252581,1.5546308-4.8930342,3.7909437-5.9346585-.2946824-.1618226-.573105-.3493654-.8335829-.55853-2.2837819,1.2665607-3.8336792,3.7018423-3.8336792,6.4931885v1.2425387c0,.6977814.5677029,1.2654843,1.2654843,1.2654843h8.2247385c-.1234997-.2811972-.2257119-.5737134-.302839-.8763184H3.7209463Z"/><path d="m17.1629458,13.2368156c-.3646156,0-.7186945.04549-1.0575833.1298178-.9446471-1.4566173-2.3855127-2.5622981-4.0815879-3.0762607,1.3564376-.7566697,2.2763206-2.2056452,2.2763206-3.8660451,0-2.4395606-1.9847136-4.4243277-4.4242742-4.4243277s-4.4243277,1.9847671-4.4243277,4.4243277,1.9847671,4.4243277,4.4243277,4.4243277c2.2277818,0,4.1971182,1.1203761,5.3792709,2.8259852-1.4628485.7105312-2.4737383,2.2112145-2.4737383,3.9437672,0,2.4160266,1.9655656,4.3815922,4.3815922,4.3815922s4.3815922-1.9655656,4.3815922-4.3815922-1.9655656-4.3815922-4.3815922-4.3815922ZM6.3278118,6.4243277c0-1.9563659,1.5916433-3.5480092,3.5480092-3.5480092s3.5479558,1.5916433,3.5479558,3.5480092-1.5915898,3.5480092-3.5479558,3.5480092-3.5480092-1.5916433-3.5480092-3.5480092Zm10.835134,14.6993539c-1.932832,0-3.5052737-1.5724418-3.5052737-3.5052737s1.5724418-3.5052737,3.5052737-3.5052737,3.5052737,1.5724418,3.5052737,3.5052737-1.5724418,3.5052737-3.5052737,3.5052737Z"/><polygon points="17.601105 15.4837188 16.7247866 15.4837188 16.7247866 17.1802486 15.0283103 17.1802486 15.0283103 18.056567 16.7247866 18.056567 16.7247866 19.7530969 17.601105 19.7530969 17.601105 18.056567 19.2976348 18.056567 19.2976348 17.1802486 17.601105 17.1802486 17.601105 15.4837188"/></svg>