<?xml version="1.0" encoding="UTF-8"?><svg id="Layer_1" xmlns="http://www.w3.org/2000/svg" width="24" height="24" viewBox="0 0 24 24"><path d="m2.9099695,17.8871425V4.7479034h-.9099695v13.1392391c0,.7526243.6122744,1.3649542,1.3649542,1.3649542l18.6284643-.0406831v-.9099695l-18.6284643.0406831c-.2509303,0-.4549847-.20411-.4549847-.4549847ZM21.5450153,4.7479034h-2.9350736v.9099695h1.8330464l-6.9415162,6.9415162-2.3596779-2.3596779c-.1775062-.1776173-.4658706-.1776173-.6433768,0l-6.3512358,6.3512358.6433768.6434879,6.0295473-6.0295473,2.3596779,2.3596779c.1775062.1776173.4658706.1776173.6433768,0l7.2668703-7.2668703v1.8402666h.9099695v-2.9350736c0-.2512635-.2037212-.4549847-.4549847-.4549847Z"/></svg>