<?xml version="1.0" encoding="UTF-8"?><svg id="Layer_1" xmlns="http://www.w3.org/2000/svg" width="24" height="24" viewBox="0 0 24 24"><path d="m7.1306131,12.1945581h.8841022v-.8841022h-.8841022v.8841022Zm13.6347176-6.81745c-.8914231-.8913691-2.1344124-1.3263559-3.5000474-1.2240251-.3448126.0257178-.6917322.086014-1.0346538.1795921l-.8932061-.8932061-.625952.625952,1.0797949,1.0797949c.117783.117621.29154.1594393.4497367.1079498.360589-.1171347.7273913-.1902358,1.0901955-.2173583,1.1051615-.0827723,2.101887.2609597,2.808153.9672797,1.5047594,1.5047594,1.246231,4.2117163-.5763265,6.0342197-.8928819.8929359-2.0203574,1.4397086-3.1746312,1.539554-1.1256385.0977383-2.141112-.244751-2.8596426-.9632276-.952854-.9528-1.233156-2.410122-.7498674-3.8983485.0514355-.1582507.0097252-.3320077-.1079498-.4496827l-1.3928655-1.3928655c-.1725684-.1725684-.1725684-.4533026,0-.625871l3.3790428-3.3790496c-.1764112-.0843662-.3702467-.1302907-.5715922-.1302907-.3546998,0-.6881123.1380979-.9389145.3889002l-.9082329.9082261-.3978082-.3978149c-.5211629-.5211629-1.2140838-.8081646-1.9511463-.8081646-1.5215084,0-2.7593649,1.2378565-2.7593649,2.7593649v3.9511348h-1.3343049c-.7321459,0-1.3278147.5956688-1.3278147,1.3278147v1.7060171c-1.5291264.8749443-2.4679329,2.3646296-2.4679329,3.9449215,0,2.6161343,2.4940289,4.7445495,5.5596297,4.7445495s5.5596297-2.1284152,5.5596297-4.7445495c0-1.2606027-.5715719-2.4469697-1.6093594-3.3405-.2619322-.2255167-.5498523-.4282332-.8585735-.6045836v-1.2632501h-.8852098v1.5271274c0,.1664091.093362.3187706.2416173.3943571.3378969.1721902.6489954.3798773.9245969.6171723.8394473.7227448,1.3017187,1.6708443,1.3017187,2.6696769,0,2.128037-2.0969163,3.8593397-4.6744199,3.8593397s-4.6744199-1.7313027-4.6744199-3.8593397c0-1.3475353.8322615-2.5762609,2.2263156-3.2867952.1482554-.0755865.2416173-.227948.2416173-.3943571v-1.9697863c0-.2440486.1985563-.4426049.4426049-.4426049h4.7781082c-.1828676-.5148416-.6735583-.8852098-1.250344-.8852098h-1.3082495v-3.9511348c0-1.0334111.840744-1.8741551,1.8741551-1.8741551.5005779,0,.9712238.1949363,1.3251673.5489338l.3978014.3978149-.9602965.960256c-.2507482.2508022-.3888461.5842147-.3888461.9389145s.1380979.6881123.3888461.9389145l1.2063577,1.2063577c-.4625956,1.6999119-.0731011,3.417113,1.044379,4.5345391.807192.807192,1.8984681,1.2389371,3.1095804,1.2388831.1490118,0,.2999686-.0065375.4522761-.0197206,1.3616368-.117783,2.6842647-.7554864,3.7243214-1.795489,2.1676942-2.1676942,2.4262226-5.4362817.5763265-7.2861778Zm-7.9131227.5216492l.6251551.6251416.6251551-.6251416-.6251551-.6251686-.6251551.6251686Zm3.2773874,6.5320422c.9051465,0,1.8844206-.4000841,2.6556294-1.1712389,1.3599079-1.3599619,1.5658121-3.3668661.4589216-4.4738106-1.1070525-1.1068904-3.1138487-.9009862-4.4737565.4589216-1.3599079,1.3599619-1.5658121,3.3668661-.4588676,4.4738106.4791825.4791825,1.1270432.7123173,1.8180731.7123173Zm-.7332265-4.5601488c.601558-.601612,1.3543429-.9188698,2.0264086-.9188698.4616231,0,.8852638.1497682,1.1953898.4599482.7617537.7617537.5559035,2.2070813-.4589216,3.2218525-1.0147171,1.0148252-2.4601528,1.2207294-3.2217984.4589216-.7617537-.7617537-.5559035-2.2070813.4589216-3.2218525Zm-11.3116024,8.5650964c0,1.5653799,1.5646775,2.8388955,3.4878909,2.8388955,1.9232674,0,3.4879449-1.2735156,3.4879449-2.8388955s-1.5646775-2.8388955-3.4879449-2.8388955c-1.9232134,0-3.4878909,1.2735156-3.4878909,2.8388955Zm6.0906259,0c0,1.0772826-1.1675649,1.9536857-2.6027351,1.9536857-1.4351161,0-2.6026811-.8764031-2.6026811-1.9536857s1.1675649-1.9536857,2.6026811-1.9536857c1.4351702,0,2.6027351.8764031,2.6027351,1.9536857Z"/></svg>