<?xml version="1.0" encoding="UTF-8"?><svg id="Layer_1" xmlns="http://www.w3.org/2000/svg" width="24" height="24" viewBox="0 0 24 24"><path d="m8.8687744,7.3008423c.300354,0,.5447388.2443848.5447388.5447388h.8505249c0-.6210327-.4080811-1.1481323-.9700317-1.3284302v-.5473633h-.8505249v.5473633c-.5618286.1802979-.9699707.7073975-.9699707,1.3284302,0,.7694092.6259155,1.3952637,1.3952637,1.3952637.300354,0,.5447388.2443848.5447388.5447388,0,.300415-.2443848.5447998-.5447388.5447998s-.5447388-.2443848-.5447388-.5447998h-.8505249c0,.6210938.4081421,1.1481934.9699707,1.3284912v.5473633h.8505249v-.5473633c.5619507-.1802979.9700317-.7073975.9700317-1.3284912,0-.7693481-.6259766-1.3952637-1.3952637-1.3952637-.300354,0-.5447388-.2443848-.5447388-.5447388s.2443848-.5447388.5447388-.5447388Zm6.8012085,1.09198c-.2192383-3.5618286-3.1851807-6.3928223-6.8012085-6.3928223-3.7581177,0-6.8156128,3.0574341-6.8156128,6.8155518,0,3.7581787,3.0574951,6.8156738,6.8156128,6.8156738.6026001,0,1.1868896-.0795288,1.7437134-.2270508.0492554,1.0231323.4402466,1.9577637,1.0606079,2.6930542l-1.0206299,1.0206909c-.5622559-.6397705-.9904785-1.4002075-1.2392578-2.2372437-.1798706.0126343-.3613892.0193481-.5444336.0193481-.112915,0-.2248535-.0039673-.3365479-.0085449.7596436,2.9346313,3.4301758,5.1085205,6.598999,5.1085205,3.7581177,0,6.8156128-3.0575562,6.8156128-6.8156738,0-3.5765381-2.7699585-6.515686-6.2768555-6.7915039Zm5.4095459,6.366272h-1.444397c-.0856934-.9147949-.4450073-1.7508545-.9949951-2.4260254l1.022522-1.022522c.8064575.9420166,1.3239746,2.1373901,1.4168701,3.4485474Zm-5.4100342-5.5145264c1.2948608.116394,2.4716187.647644,3.395874,1.4603271l-1.0216675,1.0216675c-.7173462-.6047974-1.6246948-.9902954-2.6184082-1.0545044.1299438-.458313.213501-.93573.2442017-1.4274902Zm-.852417-.854248h-1.4446411c-.0856934-.9147339-.4445801-1.7509766-.9944458-2.4263306l1.0217285-1.0217285c.8064575.9420166,1.3244629,2.1369019,1.4173584,3.4480591Zm0,.8505249c-.095459,1.34729-.6395874,2.5720215-1.484436,3.5255127l-1.0206909-1.0206299c.5869141-.6885986.9714355-1.5541992,1.0604858-2.5048828h1.4446411Zm-5.5230713-6.3735352c1.3392944.0949097,2.557251.6332397,3.5083008,1.4694824l-1.0206299,1.0206299c-.685791-.5785522-1.5449829-.9572144-2.4876709-1.0455322v-1.4445801Zm-.8505249,0v1.4445801c-.9506836.0890503-1.8162231.4736328-2.5048828,1.0604858l-1.0205688-1.0206299c.9534912-.8449097,2.1782227-1.3889771,3.5254517-1.484436Zm-4.1205444,2.0921631l1.0223999,1.022522c-.541687.6722412-.8953247,1.5016479-.9802856,2.4083252h-1.4445801c.0923462-1.3031006.6044312-2.4915161,1.4024658-3.4308472Zm-1.4024658,4.2813721h1.4445801c.0883179.942688.467041,1.8018188,1.0455933,2.4876099l-1.0206909,1.0206299c-.8362427-.9510498-1.3745728-2.1690063-1.4694824-3.5082397Zm5.5230103,5.5230103c-1.3111572-.0928955-2.5060425-.6108398-3.4480591-1.4173584l1.0217285-1.0216675c.675354.5498657,1.5115967.9088135,2.4263306.9945068v1.444519Zm-3.2485352-5.9483032c0-2.0257568,1.6480713-3.6737671,3.6738281-3.6737671s3.6737671,1.6480103,3.6737671,3.6737671-1.6480103,3.6738892-3.6737671,3.6738892-3.6738281-1.6481323-3.6738281-3.6738892Zm4.0990601,5.9483032v-1.444519c.9067383-.0849609,1.736145-.4385986,2.4083862-.9803467l1.0224609,1.022522c-.93927.7979736-2.1276855,1.3100586-3.4308472,1.4023438Zm5.4119873,6.3695068c-1.3113403-.0928955-2.5061646-.6115112-3.447937-1.4182739l1.0215454-1.0215454c.675354.5498657,1.5115967.9088135,2.4263916.9945068v1.4453125Zm-3.2485352-5.9490356c0-.0222168.0018311-.0439453.0022583-.0661011,1.6425171-.6777344,2.9639893-1.9788208,3.6680298-3.607605.0011597,0,.0023193-.000061.003479-.000061,2.0257568,0,3.6738281,1.6480103,3.6738281,3.6737671s-1.6480713,3.6738281-3.6738281,3.6738281-3.6737671-1.6480713-3.6737671-3.6738281Zm4.0990601,5.9483032v-1.4445801c.9066772-.0849609,1.736084-.4385986,2.4083862-.9803467l1.0223999,1.022522c-.9393311.7980347-2.1276855,1.3101196-3.4307861,1.4024048Zm4.0385132-1.9974976l-1.0206299-1.0206299c.5869141-.6885986.9714355-1.5542603,1.0605469-2.5048828h1.4445801c-.095459,1.34729-.6395874,2.5720215-1.4844971,3.5255127Z"/></svg>