<?xml version="1.0" encoding="UTF-8"?><svg id="Layer_1" xmlns="http://www.w3.org/2000/svg" width="24" height="24" viewBox="0 0 24 24"><path d="m18.9324891,13.3066737l-1.1564719,1.1564525-1.1564719-1.1564525-.5974043.5974043,1.1564654,1.1564461-1.1564654,1.1564461.5974043.5974043,1.1564719-1.1564525,1.1564719,1.1564525.5974043-.5974043-1.1564654-1.1564461,1.1564654-1.1564461-.5974043-.5974043Zm2.0181603-1.0279328v-6.2960712c0-.6987249-.5684777-1.2672026-1.2672026-1.2672026H3.2672026c-.6987249,0-1.2672026.5684777-1.2672026,1.2672026v10.3155631c0,.6987249.5684777,1.2672026,1.2672026,1.2672026h9.6237541c-.1388839-.2697433-.2545452-.5525707-.3476609-.8448017H3.2672026c-.2329083,0-.4224009-.1894926-.4224009-.4224009v-5.3445155h11.2877889c.0163325-.0144826.0318206-.0296678.0483528-.0439829.374525-.324361.78477-.5914424,1.2194298-.8008188H2.8448017v-1.8969882h17.261046v3.3275863c-.668348-.443722-1.4692506-.7029981-2.3298563-.7029981-2.3291344,0-4.2240086,1.8948742-4.2240086,4.2240086s1.8948742,4.2240086,4.2240086,4.2240086,4.2240086-1.8948742,4.2240086-4.2240086c0-1.0647871-.396858-2.0380635-1.0493506-2.7817832ZM2.8448017,7.3671257v-1.3844559c0-.2329083.1894926-.4224009.4224009-.4224009h16.4162443c.2329083,0,.4224009.1894926.4224009.4224009v1.3844559H2.8448017Zm14.9311897,11.0726053c-1.8633178,0-3.3792069-1.515889-3.3792069-3.3792069s1.515889-3.3792069,3.3792069-3.3792069,3.3792069,1.515889,3.3792069,3.3792069-1.515889,3.3792069-3.3792069,3.3792069Z"/></svg>