<?xml version="1.0" encoding="UTF-8"?><svg id="Layer_1" xmlns="http://www.w3.org/2000/svg" width="24" height="24" viewBox="0 0 24 24"><rect x="15.9159911" y="17.9753077" width=".9790874" height="4.0047329"/><path d="m10.958883,11.8863687c1.8749907,0,3.6529929.7177624,4.9940391,1.9718895l.6929028-.6928878c-.936091-.8824575-2.0626331-1.5319007-3.2877474-1.9023751,1.5158704-.8453025,2.5439302-2.4644211,2.5439302-4.3198109,0-2.7256565-2.2175278-4.9431844-4.9431246-4.9431844-2.7257163,0-4.9432441,2.2175278-4.9432441,4.9431844s2.2175278,4.9431844,4.9432441,4.9431844Zm0-8.9072813c2.1857362,0,3.9640372,1.778301,3.9640372,3.9640969s-1.778301,3.9640969-3.9640372,3.9640969c-2.1858557,0-3.9641567-1.778301-3.9641567-3.9640969s1.778301-3.9640969,3.9641567-3.9640969Z"/><path d="m21.331688,15.7235381l-2.2330651-2.2330651c-.190989-.1911085-.5012564-.1911085-.6922454,0l-.7803298.7803149c-.0012251-.0016882-.0023904-.0034511-.0036453-.0051243l-.7009702.7009403c.0012251.0017181.0024202.003466.0036453.0051691l-.7517651.7517651.6922454.6923649,1.3973987-1.3973987v6.9615363h.9790874v-6.9615363l1.3973987,1.3973987.6922454-.6923649Z"/><path d="m13.5690258,20.5860481c0,.2398119-.1950526.4348645-.4349242.4348645H4.0822041c-.2397521,0-.4348047-.1950526-.4348047-.4348645v-1.3882556c0-2.9330792,1.7369479-5.4667906,4.2355212-6.6305624-.3292409-.1808001-.6403449-.3903442-.9313402-.6240308-2.5516092,1.4150873-4.2832684,4.1359332-4.2832684,7.2545932v1.3882556c0,.7796725.6342794,1.4139519,1.4138921,1.4139519h9.0518975c.7797322,0,1.4140116-.6342794,1.4140116-1.4139519v-.8399093h-.9790874v.8399093Z"/></svg>