<?xml version="1.0" encoding="UTF-8"?><svg id="Layer_1" xmlns="http://www.w3.org/2000/svg" width="24" height="24" viewBox="0 0 24 24"><path d="m16.4619751,5.5h-2.8239136v-1.2752686c0-.1316528-.0533447-.260437-.1464233-.3535156-.0931396-.0931396-.2219238-.1464844-.3535767-.1464844h-2.276123c-.1316528,0-.260437.0533447-.3535767.1464844-.0930786.0930786-.1464233.2218628-.1464233.3535156v1.2752686h-2.8239136c-1.1257324.0003052-2.0377197.9122314-2.0380249,2.0380249v10.9239502c.0003052,1.1257324.9122314,2.0376587,2.0380249,2.0380249h8.9239502c1.1257324-.0003662,2.0377197-.9122925,2.0380249-2.0380249V7.5380249c-.0003052-1.1257935-.9122925-2.0377197-2.0380249-2.0380249Zm-5.1000366-.7752686h1.276123v2.8521118h-1.276123v-2.8521118Zm6.1380615,13.7372437c-.0010376.5730591-.4649048,1.0369873-1.0380249,1.0380249H7.5380249c-.5731201-.0010376-1.0369873-.4649658-1.0380249-1.0380249V7.5380249c.0010376-.5731201.4649048-1.0369873,1.0380249-1.0380249h2.8239136v1.5768433c0,.1316528.0533447.260437.1464233.3535156.0931396.0931396.2219238.1464844.3535767.1464844h2.276123c.1316528,0,.260437-.0533447.3535767-.1464844.0930786-.0930786.1464233-.2218628.1464233-.3535156v-1.5768433h2.8239136c.5731201.0010376,1.0369873.4649048,1.0380249,1.0380249v10.9239502Zm-4.0195312-4.3487549h-2.9609375c-1.0844727.0002441-1.9630737.8789062-1.9633179,1.9633179v1.1616821c0,.2071533.1679077.375.375.375s.375-.1678467.375-.375v-1.1616821c.0012207-.6699219.543335-1.2120972,1.2133179-1.2133179h2.9609375c.6699829.0012207,1.2120972.543396,1.2133179,1.2133179v1.1616821c0,.2071533.1679077.375.375.375s.375-.1678467.375-.375v-1.1616821c-.0002441-1.0844116-.8788452-1.9630737-1.9633179-1.9633179Zm-1.4804688-.4584351c1.0357056-.0002441,1.8747559-.8392944,1.875-1.875-.0002441-1.0356445-.8392944-1.8747559-1.875-1.875-1.0357056.0002441-1.8747559.8393555-1.875,1.875.0002441,1.0357056.8392944,1.8747559,1.875,1.875Zm0-3c.6211548.0011597,1.1239014.5038452,1.125,1.125-.0010986.6212158-.5038452,1.1239014-1.125,1.125-.6211548-.0010986-1.1239014-.5037842-1.125-1.125.0010986-.6211548.5038452-1.1238403,1.125-1.125Z"/></svg>