<?xml version="1.0" encoding="UTF-8"?><svg id="Layer_1" xmlns="http://www.w3.org/2000/svg" width="24" height="24" viewBox="0 0 24 24"><path d="m12.4963254,5.7922364h-.9926508v4.2269453h.9926508v-4.2269453Zm-.992045,6.4677407h.9914088v-.9914088h-.9914088v.9914088Zm9.8736164-2.6107977l-2.0721829-1.4836446V3.9012075c0-.821009-.6679067-1.4889763-1.4889763-1.4889763H6.1833835c-.8210696,0-1.4889763.6679673-1.4889763,1.4889763v4.2643878l-2.072304,1.4835841c-.3895718.2789407-.6221032.7315226-.6221032,1.2106414v9.2389717c0,.821009.6679067,1.4889763,1.4889763,1.4889763h17.0220475c.8210696,0,1.4889763-.6679673,1.4889763-1.4889763v-9.2389717c0-.47924-.2326525-.9318219-.6221032-1.2106414Zm-2.0721829-.2627035l1.3453557.9632361-1.3453557.9632663v-1.9265024Zm-14.6113067-.0000909v1.9266842l-1.3455072-.9633572,1.3455072-.9633269Zm-1.6992118,10.737551c-.0004241-.0084821-.0025446-.0165401-.0025446-.0251434v-8.7833605l4.8760095,3.4910907.852514-.6103797-3.0341163-2.1723628V3.9012075c0-.2736697.2225952-.4963254.4963254-.4963254h11.6333541c.2737303,0,.4963254.2226558.4963254.4963254v8.1224819l-4.3108577,3.0864631-1.1353929-.8128904c-.5186213-.3711535-1.2153672-.3711535-1.7335038,0l-8.1381132,5.8266739Zm1.046997.471182l7.6689912-5.4907817c.1726718-.1236572.4047185-.1237178.577875.0000606l7.66887,5.4907212H4.0421925Zm16.9651566-.4963254c0,.008573-.0021205.0166007-.0025446.0250829l-6.1500851-4.4033129,6.1526298-4.4051305v8.7833605Z"/></svg>