<?xml version="1.0" encoding="UTF-8"?><svg id="Layer_1" xmlns="http://www.w3.org/2000/svg" width="24" height="24" viewBox="0 0 24 24"><path d="m8.9312134,11.7498779c.2070923,0,.375-.1679077.375-.375v-1.1616821c.0012207-.6699829.543335-1.2121582,1.2133179-1.2133789h2.9609375c.6699829.0012207,1.2120972.543396,1.2133179,1.2133789v1.1616821c0,.2070923.1679077.375.375.375s.375-.1679077.375-.375v-1.1616821c-.0002441-1.0844727-.8788452-1.9631348-1.9633179-1.9633179h-2.9609375c-1.0844727.0002441-1.9630737.8788452-1.9633179,1.9633179v1.1616821c0,.2070923.1679077.375.375.375Zm9.2064209.2502441c1.0356445-.0002441,1.8746948-.8392944,1.874939-1.875-.0002441-1.0357056-.8392944-1.8747559-1.874939-1.875-1.0357056.0002441-1.8748169.8392944-1.875,1.875.0001831,1.0357056.8392944,1.8747559,1.875,1.875Zm0-3c.6211548.0010986,1.1238403.5038452,1.125,1.125-.0011597.6211548-.5038452,1.1239014-1.125,1.125-.6212158-.0010986-1.1239014-.5038452-1.125061-1.125.0011597-.6211548.5038452-1.1239014,1.125061-1.125Zm-6.1376343-1.2087402c1.0357056-.0002441,1.8747559-.8392944,1.875-1.875-.0002441-1.0356445-.8392944-1.8747559-1.875-1.875-1.0357056.0002441-1.8747559.8393555-1.875,1.875.0002441,1.0357056.8392944,1.8747559,1.875,1.875Zm0-3c.6211548.0011597,1.1239014.5038452,1.125,1.125-.0010986.6212158-.5038452,1.1239014-1.125,1.125-.6211548-.0010986-1.1239014-.5037842-1.125-1.125.0010986-.6211548.5038452-1.1238403,1.125-1.125Zm1.4804688,11.6671753h-2.9609375c-1.0844727.0002441-1.9630737.8788452-1.9633179,1.9633179v1.1616821c0,.2070923.1679077.375.375.375s.375-.1679077.375-.375v-1.1616821c.0012207-.6699219.543335-1.2120972,1.2133179-1.2133179h2.9609375c.6699829.0012207,1.2120972.543396,1.2133179,1.2133179v1.1616821c0,.2070923.1679077.375.375.375s.375-.1679077.375-.375v-1.1616821c-.0002441-1.0844727-.8788452-1.9630737-1.9633179-1.9633179Zm6.1376343-4h-2.9609985c-1.0844116.0002441-1.9630737.8788452-1.9633179,1.9633179v1.1616821c0,.2070923.1679077.375.375.375s.375-.1679077.375-.375v-1.1616821c.0012207-.6699219.543396-1.2120972,1.2133179-1.2133179h2.9609985c.6699219.0012207,1.2120972.543396,1.2133179,1.2133179v1.1616821c0,.2070923.1679077.375.375.375s.375-.1679077.375-.375v-1.1616821c-.0002441-1.0844727-.8789062-1.9630737-1.9633179-1.9633179Zm-7.618103-.2084351c-1.0357056.0002441-1.8747559.8392944-1.875,1.875.0002441,1.0357056.8392944,1.8747559,1.875,1.875,1.0357056-.0002441,1.8747559-.8392944,1.875-1.875-.0002441-1.0357056-.8392944-1.8747559-1.875-1.875Zm0,3c-.6211548-.0010986-1.1239014-.5038452-1.125-1.125.0010986-.6211548.5038452-1.1239014,1.125-1.125.6211548.0010986,1.1239014.5038452,1.125,1.125-.0010986.6211548-.5038452,1.1239014-1.125,1.125Zm-3.4437866.3334351c0,.2070923.1679077.375.375.375s.375-.1679077.375-.375v-1.1616821c-.0002441-1.0844727-.8789062-1.9630737-1.9633179-1.9633179h-2.9609985c-1.0844116.0002441-1.9630737.8788452-1.9633179,1.9633179v1.1616821c0,.2070923.1679077.375.375.375s.375-.1679077.375-.375v-1.1616821c.0012207-.6699219.543396-1.2120972,1.2133179-1.2133179h2.9609985c.6699219.0012207,1.2120972.543396,1.2133179,1.2133179v1.1616821Zm-2.6937866-3.5834351c1.0356445-.0002441,1.8747559-.8392944,1.874939-1.875-.0001831-1.0357056-.8392944-1.8747559-1.874939-1.875-1.0357056.0002441-1.8747559.8392944-1.875,1.875.0002441,1.0357056.8392944,1.8747559,1.875,1.875Zm0-3c.6211548.0010986,1.1238403.5038452,1.125,1.125-.0011597.6211548-.5038452,1.1239014-1.125,1.125-.6212158-.0010986-1.1239014-.5038452-1.125061-1.125.0011597-.6211548.5038452-1.1239014,1.125061-1.125Z"/></svg>