<?xml version="1.0" encoding="UTF-8"?><svg id="Layer_1" xmlns="http://www.w3.org/2000/svg" width="24" height="24" viewBox="0 0 24 24"><path d="m21.5735421,11.8964049h-.8429207v-6.3418951c0-.7054359-.5739378-1.2793736-1.2793736-1.2793736H3.2793736c-.7054359,0-1.2793736.5739378-1.2793736,1.2793736v11.0253313c0,.7054359.5739378,1.2793736,1.2793736,1.2793736h10.6969765c-.16652-.2723667-.3180084-.5566676-.4543023-.8529158H3.2793736c-.2351453,0-.4264579-.1913126-.4264579-.4264579V5.5545098c0-.2351453.1913126-.4264579.4264579-.4264579h16.1718742c.2351453,0,.4264579.1913126.4264579.4264579v6.3418951h-5.5675346c-.2355097,0-.4264579.1909482-.4264579.4264579,0,3.5416515,1.2609972,5.9460472,3.8551438,7.350568.0633023.0343061.133164.0514332.2030256.0514332s.1397233-.017127.2030256-.0514332c2.5940946-1.4045728,3.8550918-3.8089685,3.8550918-7.350568,0-.2355097-.1909482-.4264579-.4264579-.4264579Zm-3.6316595,6.9130738c-2.0850209-1.2119067-3.109259-3.1502806-3.1987985-6.060158h6.0675568l-2.8687583,2.8688038-1.2133122-1.2133643-.6031422.6031422,1.5148833,1.5148833c.0832926.0832405.1924058.1248868.3015711.1248868s.2182786-.0416463.3015711-.1248868l2.8308732-2.8308732c-.2671413,2.3925071-1.2814429,4.0416541-3.1324443,5.1175661Zm-13.5976137-4.5240872v.6206857c0,.4630545.3766906.8397972.8397451.8397972h6.149177c.4630545,0,.8397972-.3767426.8397972-.8397972v-.6206857c0-1.1484482-.4972305-2.1828831-1.2876248-2.8995635-.2025311.2062011-.4291258.3884752-.6751122.5427811.6775068.561997,1.1098212,1.4098046,1.1098212,2.3567824v.6075671h-6.1228878v-.6075671c0-1.6880798,1.3733381-3.0614178,3.0614178-3.0614178,1.3331494,0,2.4177226-1.0845732,2.4177226-2.4177226s-1.0845732-2.4177226-2.4177226-2.4177226c-1.3330973,0-2.4176705,1.0845732-2.4176705,2.4177226,0,.7552878.3483191,1.4305496.8925318,1.8742452-1.4028288.59575-2.3891949,1.9872758-2.3891949,3.6048953Zm2.3495789-5.4791404c0-.8628588.701948-1.5648068,1.5647548-1.5648068.8628588,0,1.5648068.701948,1.5648068,1.5648068s-.701948,1.5648068-1.5648068,1.5648068c-.8628068,0-1.5647548-.701948-1.5647548-1.5648068Zm11.5141545-2.0280696h-5.0937041v.8529158h5.0937041v-.8529158Zm-5.0937041,3.139869h5.0937041v-.8529158h-5.0937041v.8529158Z"/></svg>