<?xml version="1.0" encoding="UTF-8"?><svg id="Layer_1" xmlns="http://www.w3.org/2000/svg" width="24" height="24" viewBox="0 0 24 24"><path d="m10.2591194,15.4707867h.9209301v-.9209301h-.9209301v.9209301Zm-.0005769-2.1051921h.9220838v-7.4370584h-.9220838v7.4370584Zm.4610419-11.3655946C5.9225425,2,2.0198948,5.9026477,2.0198948,10.6996896s3.9026477,8.6996896,8.6996896,8.6996896,8.6996896-3.9026477,8.6996896-8.6996896S15.5166264,2,10.7195844,2Zm0,16.4772954c-4.2886127,0-7.7776058-3.4889931-7.7776058-7.7776058s3.4889931-7.7776058,7.7776058-7.7776058,7.7776058,3.4889931,7.7776058,7.7776058-3.4889931,7.7776058-7.7776058,7.7776058Zm7.4255563-.9643216c-.207981.226497-.4258531.4437641-.6535038.6505069l3.8365263,3.8365192.6519421-.6520546-3.8349645-3.8349715Z"/></svg>