<?xml version="1.0" encoding="UTF-8"?><svg id="Layer_1" xmlns="http://www.w3.org/2000/svg" width="24" height="24" viewBox="0 0 24 24"><path d="m21.7221586,4.9235605c-.2408518-.3004355-.5998437-.4727146-.9848777-.4727146H2v.8415686h5.3942461l.4992769,2.2802072h-2.8506378l-.2264566-1.0163133h-.8622303l1.7318251,7.7722335c.0000963.0004366.0002954.0007962.0003917.0012328l.4190572,1.8807908c.1296459.5815576.636313.9877542,1.2321502.9877542h.1901478c-.1211835.2248772-.1902505.4818063-.1902505.7546586,0,.8801439.7160319,1.5961758,1.5961758,1.5961758s1.5961758-.7160319,1.5961758-1.5961758c0-.2728523-.069067-.5297814-.1902505-.7546586h5.8412524c-.1211899.2248772-.190257.4818063-.190257.7546586,0,.8801439.7160833,1.5961758,1.5962272,1.5961758s1.5961758-.7160319,1.5961758-1.5961758-.7160319-1.5962272-1.5961758-1.5962272H7.3376223c-.1986295,0-.3675185-.1353989-.4107167-.3292514l-.3051868-1.3697064h12.403763c.5958372,0,1.1025042-.4061966,1.2321502-.9878056l1.7117991-7.6822415c.0837254-.3758397-.0064207-.7637502-.2472724-1.0641857Zm-12.033856,13.0294177c0,.4161101-.3384971.7546072-.7546072.7546072s-.7546072-.3384971-.7546072-.7546072.3384971-.7546586.7546072-.7546586.7546072.3385485.7546072.7546586Zm8.6531479,0c0,.4161101-.3384971.7546072-.7546072.7546072s-.7546586-.3384971-.7546586-.7546072.3385485-.7546586.7546586-.7546586.7546072.3385485.7546072.7546586Zm-12.4154294-6.4169607h2.8353245l.4992769,2.2802072h-2.8265154l-.508086-2.2802072Zm3.6967843,0h2.9399491v2.2802072h-2.4406723l-.4992769-2.2802072Zm-.1842665-.8415686l-.4992897-2.2802585h3.6235054v2.2802585h-3.1242156Zm3.9657843.8415686h2.9398978l-.4992769,2.2802072h-2.4406209v-2.2802072Zm0-.8415686v-2.2802585h3.623454l-.4992897,2.2802585h-3.1241643Zm0-3.1218272v-2.2802072h4.3069973l-.4992769,2.2802072h-3.8077205Zm-5.1486173-2.2802072h4.3070487v2.2802072h-3.8077718l-.4992769-2.2802072Zm-3.025299,3.1217758h2.8473825l.4992897,2.2802585h-2.8385734l-.5080989-2.2802585Zm13.7950749,5.4020343h-2.3190778l.4992769-2.2802072h2.6652348l-.4347171,1.9509044c-.0431982.1939039-.2120872.3293028-.4107167.3293028Zm1.0268945-3.0945779v-.0271979h-2.662429l.4992897-2.2802585h2.6773057l-.5141664,2.3074564Zm1.0956213-4.916915l-.3939331,1.7678899h-2.6805609l.4992769-2.2802072h2.1645005c.1283618,0,.2479915.0574264.3282755.1575887s.1103326.2294487.0824413.3547286Z"/></svg>