<?xml version="1.0" encoding="UTF-8"?><svg id="Layer_1" xmlns="http://www.w3.org/2000/svg" width="24" height="24" viewBox="0 0 24 24"><path d="m12.435163,20.2519286v-.8702994h-.870326v.8702994h.870326Zm3.1057087-11.6234845l-5.3082227,5.3082759-1.7735206-1.7734674-.6160998.6162061,2.0815705,2.0815173c.0850967.0850435.1965733.1275918.3080499.1275918s.2230596-.0425483.3080499-.1275918l5.6162726-5.6163258-.6160998-.6162061Zm-4.7577538-4.8632204v.8713897h2.4337642v-.8713897h-2.4337642Zm6.4768125-1.6889824v18.6166742c0,.2402385-.1954032.4356949-.4356949.4356949H7.1757645c-.2402917,0-.4356949-.1954564-.4356949-.4356949V3.3070846c0-.2402385.1954032-.4356949.4356949-.4356949h8.7770813v-.8713897H7.1757645c-.7207686,0-1.3070846.5863691-1.3070846,1.3070846v17.3858309c0,.7207155.5863159,1.3070846,1.3070846,1.3070846h9.6484711c.7207686,0,1.3070846-.5863691,1.3070846-1.3070846V3.3070846c0-.5677808-.3645328-1.0508373-.8713897-1.2308433Z"/></svg>