<?xml version="1.0" encoding="UTF-8"?><svg id="Layer_1" xmlns="http://www.w3.org/2000/svg" width="24" height="24" viewBox="0 0 24 24"><path d="m12,7.1254883c-1.5203857.0002441-2.7524414,1.2322998-2.7526245,2.7526855.0001831,1.5203857,1.2322388,2.7524414,2.7526245,2.7526245,1.5203857-.0001831,2.7524414-1.2322388,2.7526245-2.7526245-.0001831-1.5203857-1.2322388-2.7524414-2.7526245-2.7526855Zm0,4.8052979c-1.1335449-.0020142-2.0505981-.9191284-2.0526733-2.0526123.0020752-1.1335449.9191284-2.0505981,2.0526733-2.0526733,1.1335449.0020752,2.0505981.9191284,2.0526733,2.0526733-.0020752,1.1334839-.9191284,2.0505981-2.0526733,2.0526123Zm7.1884766-6.9553833c-.0651245-.0651855-.1552734-.1025391-.2474365-.1025391-.986084-.00177-1.7839355-.7996216-1.7857056-1.7857056,0-.0921631-.0373535-.182251-.1025391-.2474365-.0651245-.0651855-.1552734-.1025391-.2474365-.1025391H7.1947021c-.0922241,0-.182373.0373535-.2474976.1025391-.0651855.0651245-.1025391.1552734-.1025391.2474365-.00177.986084-.7996216,1.7839355-1.7856445,1.7857056-.0922241,0-.182373.0373535-.2474976.1025391-.0651855.0651855-.1025391.1553345-.1025391.2474976v7.3222046c0,2.0181885.9373779,3.921814,2.5369873,5.1522827l4.5406494,3.4927979c.1256104.0966797.3010864.0966797.4267578,0l4.5406494-3.4927368c1.5996094-1.2305298,2.5369873-3.1341553,2.5369873-5.1523438v-7.3222046c0-.0921631-.0373535-.182312-.1025391-.2474976Zm-2.8612671,12.1671753l-4.3272095,3.3286133-4.3272095-3.3286133c-.0958862-.0737305-.1820068-.1567993-.2724609-.2358398.020813-.0447388.0341797-.0935059.0341797-.1461182.0021362-1.2116699.9824219-2.1919556,2.1940918-2.1941528h4.7427979c1.2116699.0021973,2.1919556.9824829,2.1941528,2.1941528,0,.0526123.0133667.1013184.0341797.1460571-.0904541.0790405-.1766357.1621704-.272522.2359009Zm2.2637939-4.5974731c0,1.3834839-.4974365,2.7037354-1.3734131,3.7405396-.2277832-1.3711548-1.4104004-2.4189453-2.8461914-2.4191895h-4.7427979c-1.435791.0002441-2.6184082,1.0480347-2.8461914,2.4191895-.8759766-1.0368042-1.3734131-2.3570557-1.3734131-3.7405396v-7.0075073c1.090271-.1552124,1.9451294-1.0101318,2.1003418-2.1004028h8.9813232c.1552124,1.090271,1.0100708,1.9451294,2.1003418,2.1003418v7.0075684Z"/></svg>