<?xml version="1.0" encoding="UTF-8"?><svg id="Layer_1" xmlns="http://www.w3.org/2000/svg" width="24" height="24" viewBox="0 0 24 24"><path d="m19.3143589,10.979362h-1.9504168l-.626108.9016571h2.5765248c.0674152.195614.1775358.3754061.3281605.5260033.2692204.2692754.6229711.4039406.9768319.4039406.3537507,0,.7075014-.1346652.9767218-.4039406q0-.000055.0001101-.000055c.5384407-.5385508.5384407-1.4149479-.0001101-1.9535537-.5384407-.5384958-1.4148928-.5387159-1.9535537,0-.1506247.1505697-.2607178.3303618-.3281605.5259483Zm.9656602.1116615c.0935557-.0935557.2163889-.1403336.3393321-.1403336.1228332,0,.2456663.0467779.339112.1402786.1871115.1870564.1871115.4914427.0001101.6784441-.1873316.1871665-.4916629.1870014-.6785542,0-.090584-.090584-.1405537-.2110507-.1405537-.339167,0-.1281714.0499698-.2486381.1405537-.3392221Zm-6.0034162,6.0213568h7.5888006v-.9016571h-7.5888006v.9016571Zm3.1894799,2.4176452h4.3993206v-.9016571h-4.3993206v.9016571Zm-6.3734841-1.8906237l3.9985169-5.7583827h.0000275l.626108-.9016571h-.000055l2.9607637-4.2639125c.1141105.0300204.2323484.0469705.3534756.0469705.3689398,0,.7158664-.1436906.9767218-.404601.0005503-.0001101.0001101-.000055.0001101-.000055.2608554-.2609104.404601-.607782.404601-.9767218,0-.3690498-.1437456-.7159215-.404601-.9767769-.2608554-.2609655-.607782-.404656-.9768319-.404656s-.7159765.1436906-.9767218.404601c-.2609655.2609104-.4047111.607782-.4047111.9768319,0,.3043313.0991691.5928131.2797867.8311876l-3.3102219,4.7671322h-3.3677311c-.0674152-.1955865-.1774807-.3753511-.3280504-.5258933-.2608554-.2609655-.607782-.404656-.9768319-.404656-.145259,0-.2867758.0230312-.4212759.0659293l-1.6666403-2.3583198c.1414343-.2201586.2181224-.475951.2181224-.7438781,0-.3690498-.1437456-.7159215-.4047111-.9768319-.5384407-.5385508-1.4150029-.5386058-1.9536638.000055-.3795886.3796712-.4902871.9268896-.3346543,1.4056473l-1.3820658,1.3820658c-.1903034-.0959772-.401299-.1478456-.6206322-.1478456-.3690498,0-.7158664.1436906-.9767218.404546-.2609655.2609655-.4047111.6078371-.4047111.9768319s.1437456.7158664.404601.9767218c.2608554.2609655.607782.404656.9768319.404656.3689398,0,.7158664-.1436906.9767218-.404601.2609655-.2609104.4047111-.607782.4047111-.9767769,0-.2066206-.0465853-.4056191-.1320512-.5871448l1.3041394-1.3041669c.2298169.1516703.495295.2275055.7607732.2275055.1538166,0,.307193-.0270211.454103-.0779815l1.6537076,2.3400489c-.1545045.2269002-.2380168.494387-.2380168.7749716,0,.3689948.1437456.7158664.404601.9767218.2608554.2609655.607782.404656.9768319.404656.3689398,0,.7158664-.1436906.9767218-.404601.0002201.0001101.0001101-.000055.0001101-.000055.1505697-.1505972.2606353-.3303618.3280504-.5259483h2.7416507l-3.6214598,5.2153467c-.1356283-.043696-.2784384-.0673051-.4250732-.0673051-.2505918,0-.490177.0676903-.7002922.1918718l-1.2505925-1.2505649c.1714821-.4862421.0646635-1.0495302-.3236203-1.437814-.5386609-.5385508-1.4150029-.5384958-1.9536638.000055-.3746357.3747457-.4878931.9128012-.3411482,1.3870462l-1.4368509,1.4368509c-.1740137-.0771835-.3633264-.1188708-.5593532-.1188708-.3690498,0-.7159765.1436906-.9767218.404601-.2609655.2609104-.4047111.607782-.4047111.9767769s.1437456.7158664.404601.9767769c.2609655.2609104.607782.404601.9768319.404601.3689398,0,.7157564-.1436356.9767218-.404546.2609655-.2609655.4047111-.6078371.4047111-.9768319,0-.2298994-.0558858-.4511587-.1610534-.6484238l1.3186405-1.3186405c.2331739.1583018.5040453.2381544.7752743.2381544.255187,0,.5099888-.0712124.733532-.2114359l1.2311659,1.2311934c-.1917067.4949373-.0890155,1.0785875.309697,1.477355.2609655.2609104.607782.404601.9768319.404601s.7158664-.1436906.9768319-.404601l-.0001101.000055c.4745477-.4745752.530461-1.2109413.1689231-1.7478687Zm7.5997246-12.5976368c.090584-.090584.2109957-.1404987.339112-.1404987s.248528.0499147.3392221.1405537c.090584.090584.1405537.2110507.1405537.3392221,0,.1281163-.0499698.2485831-.1405537.339167l-.0001101.000055c-.090584.090584-.2109957.1404987-.339112.1404987s-.248528-.0499147-.3392221-.1405537c-.090584-.090584-.1405537-.2110507-.1405537-.339167,0-.1281714.0499698-.2486381.1406638-.3392771ZM3.720655,10.3961796c-.090694.090639-.2111058.1405537-.3392221.1405537s-.248528-.0499147-.3392221-.1405537c-.090584-.090584-.1405537-.2110507-.1405537-.339167s.0499698-.2486381.1406638-.3392771c.0904739-.090584.2109957-.1404437.339112-.1404437s.2486381.0499147.3392221.1404987.1405537.2111058.1405537.3392221-.0499698.2485831-.1405537.339167Zm3.3142943-3.0444686c-.1871115.1870014-.4915528.1871115-.6784441.000055-.1871115-.1870564-.1871115-.4914427-.0001101-.6784441.0935557-.0935557.2163889-.1403336.3392221-.1403336.1229432,0,.2457764.0467779.3393321.1403336.090584.090584.1405537.2110507.1405537.3392221,0,.1281163-.0499698.2485831-.1405537.339167Zm3.2512267,4.4177016l-.0001101.000055c-.090584.090584-.2109957.1404987-.339112.1404987s-.248528-.0499147-.3392221-.1405537c-.090584-.090584-.1405537-.2110507-.1405537-.339167,0-.1281714.0499698-.2486381.1406638-.3392771.090584-.090584.2109957-.1404987.339112-.1404987s.248528.0499147.3392221.1405537c.090584.090584.1405537.2110507.1405537.3392221,0,.1281163-.0499698.2485831-.1405537.339167Zm-6.565521,7.1888223c-.090694.090584-.2111058.1404987-.3392221.1404987s-.2486381-.0498597-.3392221-.1404987c-.090584-.090584-.1405537-.2111058-.1405537-.3392221s.0499698-.2485831.1406638-.3392221c.090584-.090584.2109957-.1404987.339112-.1404987s.248528.0499147.3392221.1405537c.090584.090584.1405537.2110507.1405537.339167s-.0499698.2485831-.1405537.3392221Zm3.3142943-3.1096274c-.1871115.1870014-.4915528.1870564-.6784441.000055-.1871115-.1870564-.1871115-.4914978-.0001101-.6784992.0935557-.0935557.2163889-.1402786.3393321-.1402786.1228332,0,.2456663.0467779.3392221.1402786.1870014.1870564.1870014.4913877,0,.6784441Zm3.2512267,2.9010531q0,.000055-.0001101.000055c-.0904739.090584-.2109957.1404437-.339112.1404437s-.2486381-.0498597-.3392221-.1404987c-.1870014-.1870564-.1870014-.4913877.0001101-.6784992.0904739-.090584.2109957-.1404437.339112-.1404437s.2486381.0498597.3392221.1404987c.1870014.1870564.1870014.4913877,0,.6784441Z"/></svg>