<?xml version="1.0" encoding="UTF-8"?>
<svg id="Layer_1" xmlns="http://www.w3.org/2000/svg" width="24" height="24" viewBox="0 0 24 24">
    <path
        d="m20.2855861,11.173627v-3.1386424c0-.230614-.1869788-.4175927-.4175927-.4175927h-1.7641661c-.230614,0-.4175927.1869788-.4175927.4175927v1.0683482l-2.7900006-2.2221316c-.4595967-.3660053-1.1015843-.3660053-1.5609771,0l-7.103868,5.6578921.5203597.6533042,1.1940542-.9510149v7.2698066c0,.6907714.5619558,1.2527782,1.2527782,1.2527782h9.8342271c.6908223,0,1.2527782-.5620068,1.2527782-1.2527782v-7.269813l1.1940542.9510213.5203597-.6533042-1.7144139-1.3654663Zm-3.218808,8.7551549h-1.2665416v-2.871001h1.2665416v2.871001Zm2.3836225-.4175927c0,.2302571-.1872846.4175927-.4175927.4175927h-1.1308444v-3.2885937c0-.230614-.1869788-.4175927-.4175927-.4175927h-2.1017271c-.230614,0-.4175927.1869788-.4175927.4175927v3.2885937h-5.7664702c-.2303081,0-.4175927-.1873356-.4175927-.4175927v-7.9350009l5.0746284-4.0417338c.1531309-.1219338.3671268-.1219848.5202577.000051l5.0745264,4.0416764v7.9350073Zm0-9.0027565l-.9289807-.7398992v-1.3159562h.9289807v2.0558553Zm-6.5014375,1.2133166h-2.1017271c-.230614,0-.4175927.1869788-.4175927.4175927v2.1016761c0,.230614.1869788.4175927.4175927.4175927h2.1017271c.230614,0,.4175927-.1869788.4175927-.4175927v-2.1016761c0-.230614-.1869788-.4175927-.4175927-.4175927Zm-.4175927,2.1016761h-1.2665416v-1.2664906h1.2665416v1.2664906Zm-7.956793,2.3786779v-8.0164792l5.0495484-4.0217832c.1531309-.1220358.3671268-.1220358.5202577,0l2.2959189,1.8286121.1145169-.0912082c.1999266-.1593117.4177457-.2818126.6447148-.3717911l-2.5348928-2.0189171c-.4593928-.3660053-1.1014824-.3660053-1.5608752,0l-2.7650225,2.2022383v-.9868763c0-.230614-.1869788-.4175927-.4175927-.4175927h-1.7641661c-.230614,0-.4175927.1869788-.4175927.4175927v3.0571705l-1.739392,1.3853595.5203597.6533042,1.2190323-.9709146v7.3512848c0,.6907714.5619558,1.2527782,1.2527782,1.2527782h1.7008544v-.8351854h-1.7008544c-.2303081,0-.4175927-.1873356-.4175927-.4175927Zm0-11.0586118h.9289807v1.2344779l-.9289807.7398992v-1.9743771Zm10.8080664,9.5151194h2.1017271c.230614,0,.4175927-.1869788.4175927-.4175927v-2.1016761c0-.230614-.1869788-.4175927-.4175927-.4175927h-2.1017271c-.230614,0-.4175927.1869788-.4175927.4175927v2.1016761c0,.230614.1869788.4175927.4175927.4175927Zm.4175927-2.1016761h1.2665416v1.2664906h-1.2665416v-1.2664906Zm-2.8512734,3.6656607h-2.1017271c-.230614,0-.4175927.1869788-.4175927.4175927v2.1016761c0,.230614.1869788.4175927.4175927.4175927h2.1017271c.230614,0,.4175927-.1869788.4175927-.4175927v-2.1016761c0-.230614-.1869788-.4175927-.4175927-.4175927Zm-.4175927,2.1016761h-1.2665416v-1.2664906h1.2665416v1.2664906Z" />
</svg>