<?xml version="1.0" encoding="UTF-8"?><svg id="Layer_1" xmlns="http://www.w3.org/2000/svg" width="24" height="24" viewBox="0 0 24 24"><path d="m19.3917637,19.2662927h-.5797616v-4.0942224h.5797616c.7536928,0,1.3668537-.6131609,1.3668537-1.3668537s-.6131609-1.3668537-1.3668537-1.3668537h-.4916989c-.0028171-3.1686436-2.1530925-5.8425003-5.0705774-6.6458993v-1.6655245c0-.245091-.1987166-.4438076-.4438076-.4438076h-.9418722v-1.6831316h-.8876152v1.6831316h-.9418722c-.245091,0-.4438076.1987166-.4438076.4438076v1.6640075c-2.4980971.6878828-4.4329291,2.7484431-4.9394722,5.3159935h.9082019c.6099916-2.6733556,3.0052361-4.6749321,5.8607846-4.6749321,3.3132522,0,6.0090365,2.6938882,6.0124225,6.0063548H4.6082363c-.7536928,0-1.3668537.6131609-1.3668537,1.3668537s.6131609,1.3668537,1.3668537,1.3668537h.5797616v4.0942224h-.5797616c-.7536928,0-1.3668537.6131609-1.3668537,1.3668537s.6131609,1.3668537,1.3668537,1.3668537h14.7835273c.7536928,0,1.3668537-.6131609,1.3668537-1.3668537s-.6131609-1.3668537-1.3668537-1.3668537ZM11.0581278,5.6088079v-1.0380612h1.8837443v1.0395916c-.3081786-.0422706-.6222353-.0659454-.9418451-.0659454-.3194878,0-.633856.0221579-.9418992.0644149Zm6.8662591,13.6574848h-2.2965092v-4.0942224h2.2965092v4.0942224Zm-6.3681945-4.0942224v4.0942224h-2.2965092v-4.0942224h2.2965092Zm.8876152,0h2.296455v4.0942224h-2.296455v-4.0942224Zm-8.3148097-1.3668537c0-.2642692.2149693-.4792385.4792385-.4792385h14.7835273c.2642692,0,.4792385.2149693.4792385.4792385s-.2149693.4792385-.4792385.4792385H4.6082363c-.2642692,0-.4792385-.2149693-.4792385-.4792385Zm1.9466152,1.3668537h2.296455v4.0942224h-2.296455v-4.0942224Zm13.3161506,5.9403146H4.6082363c-.2642692,0-.4792385-.2149693-.4792385-.4792385s.2149693-.4792385.4792385-.4792385h14.7835273c.2642692,0,.4792385.2149693.4792385.4792385s-.2149693.4792385-.4792385.4792385Z"/></svg>