<?xml version="1.0" encoding="UTF-8"?><svg id="Layer_1" xmlns="http://www.w3.org/2000/svg" width="24" height="24" viewBox="0 0 24 24"><path d="m15.2894908,18.7794749H3.370804c-.7558716,0-1.370804.6149323-1.370804,1.370804s.6149323,1.370804,1.370804,1.370804h11.0184938v-.9083988H3.370804c-.2549882,0-.4624052-.207417-.4624052-.4624052s.207417-.4624052.4624052-.4624052h11.9186868c.2549882,0,.4624052.207417.4624052.4624052v1.2888296c.5286888-.1903402.9083988-.6954097.9083988-1.2888296,0-.7558716-.6149323-1.370804-1.370804-1.370804Zm6.3098343-2.8003788l-6.8585246-6.8663284.9158422-.9158283c.2171475.1378344.4686565.2127396.732086.2127396.3661539,0,.7104073-.1426026.969332-.4015274.5344272-.5344827.5344272-1.404126.0003881-1.9381651l-3.1810591-3.1894867c-.2589247-.2589802-.6031227-.4015828-.969332-.4015828-.3661539,0-.7103519.1426026-.9692212.4015274-.2589802.2589247-.4015828.6031227-.4015828.969332,0,.2655226.0759171.518986.2158861.7372701l-2.8382888,2.8383304.6423772.6423772,2.8145448-2.8146003,2.3188731,2.3250274-3.7296801,3.7296801-2.7518096-2.7591837c-.5344827-.5344827-1.4041814-.5344827-1.9386641.0000554-.5343164.5343718-.5344272,1.4036824-.0003881,1.9381651l3.1810591,3.1895421c.2672413.2672413.618259.4008066.9692766.4008066.3510731,0,.7020907-.1336207.969332-.4008066.461324-.461324.5235047-1.1719531.1887323-1.7013626l.9237014-.9237014,6.858289,6.8661621c.2672413.2672413.6183144.400862.969332.400862s.7020907-.1336207.969332-.400862c.5344272-.5344827.5344272-1.404126.0001663-1.9384423ZM12.8815465,4.1771195l-.0004436-.0004436c-.0873247-.0873247-.1354503-.203425-.1354503-.3268994,0-.1235298.0481256-.2396301.1355058-.3270103.0873247-.0873247.203425-.1354503.3268994-.1354503.1235298,0,.2396301.0481256.3265667.1350622l3.1810591,3.1895421c.1803047.1802493.1803047.4736049,0,.6539096-.0873247.0873247-.203425.1354503-.3269548.1354503s-.2396301-.0481256-.3265667-.1350622l-3.1806156-3.1890985Zm-1.8341517,8.8569438c-.1801939.1803047-.4736603.1803047-.6535215.0004436l-3.1806156-3.1890985-.0003881-.0004436c-.1803047-.1802493-.1803047-.4736603,0-.6539096.0902078-.0902078.2086922-.135284.3271212-.135284.1182626,0,.2365252.0449653.3264004.1348404l3.1810037,3.1895421c.1803047.1802493.1803047.4736603,0,.6539096Zm9.9093867,4.241098c-.1802493.1803602-.4736049.1802493-.6537433.0002218l-6.8584969-6.8663284.6539374-.6539651,6.8583028,6.8661066c.1803047.1803602.1803047.4737158,0,.6539651Z"/></svg>