<?xml version="1.0" encoding="UTF-8"?><svg id="Layer_1" xmlns="http://www.w3.org/2000/svg" width="24" height="24" viewBox="0 0 24 24"><path d="m22.1646729,10.3651733c-.4628296-.4630127-1.072876-.6960449-1.6793823-.6956177-.6065674-.0004272-1.2166138.232605-1.6793823.6956177-.355896.3556519-.572876.798584-.6554565,1.2598267h-1.8132935c-.0679932-.7866821-.3276367-1.5160522-.7565308-2.1282349l.3536377-.4465942c.2571411-.3247681.2023315-.7964478-.1224365-1.0535889-.324707-.2571411-.7963867-.2023315-1.0535278.1224365l-.2446289.30896c-.614502-.4333496-1.347229-.6967773-2.1386719-.7651367v-1.8047485c.493042-.0691528.97052-.2854004,1.348938-.6640015.4630737-.4627686.6960449-1.0728149.6956177-1.6793823.0004272-.6065674-.2325439-1.2166138-.6956177-1.6793823-.4627686-.4630127-1.0728149-.6960449-1.6793823-.6956177-.6065674-.0004272-1.2165527.232605-1.6793213.6956177-.4630737.4627686-.696106,1.0728149-.6956787,1.6793823-.0004272.6065674.232605,1.2166138.6956787,1.6793823h-.000061c.3556519.355835.798584.572876,1.2598267.6554565v1.8132935c-.9234619.0797729-1.7581787.4399414-2.4279785,1.0038452l-1.2591553-1.2591553c.2747803-.3875122.4398193-.8580933.4399414-1.3693848-.0002441-1.3118286-1.0631714-2.3747559-2.375-2.375-1.3118286.0002441-2.3747559,1.0631714-2.375,2.375.0002441,1.3118286,1.0631714,2.3747559,2.375,2.375.5293579-.0001221,1.0133057-.1791992,1.4081421-.4719238l1.2557373,1.2557983c-.5639038.6697998-.9240723,1.5045166-1.0038452,2.4279785h-1.7824097c-.079834-.4682007-.2965088-.9187012-.6573486-1.2794189-.4628296-.4630127-1.0728149-.6960449-1.6793823-.6956177-.6065674-.0004272-1.2166138.232605-1.6793823.6956177-.4630737.4627686-.6960449,1.0728149-.6956177,1.6793823-.0004272.6065674.2325439,1.2166138.6956177,1.6793823.4627075.4630737,1.0727539.6960449,1.6793823.6956177.6065674.0004272,1.2166138-.2325439,1.6793823-.6956177.3735962-.3734131.5897827-.8433228.6621094-1.3293457h1.7776489c.0797729.9234619.4399414,1.7581787,1.0038452,2.4279785l-1.2591553,1.2591553c-.3875122-.2747803-.8580933-.4398193-1.3693848-.4399414-1.3118286.0002441-2.3747559,1.0631714-2.375,2.375.0002441,1.3117676,1.0631714,2.3747559,2.375,2.375,1.3118286-.0002441,2.3747559-1.0631714,2.375-2.375-.0001221-.5293579-.1791992-1.0133057-.4719238-1.4081421l1.2557983-1.2557373c.6697998.5639038,1.5045166.9240723,2.4279785,1.0038452v1.7824097c-.4682007.079834-.9187012.2964478-1.2794189.6573486l.000061.000061c-.4630737.4627686-.6960449,1.0727539-.6956177,1.6793213-.0004272.6065674.2325439,1.2166138.6956177,1.6793823.4627075.4630127,1.0727539.6960449,1.6793213.6956177.6065674.0004272,1.2166138-.232605,1.6793823-.6956177.4630737-.4627686.6960449-1.0728149.6956177-1.6793823.0004272-.6065674-.2325439-1.2166138-.6956177-1.6793823-.3734131-.3736572-.8433228-.5897827-1.3293457-.6621094v-1.7776489c.9234619-.0797729,1.7581787-.4399414,2.4279785-1.0038452l1.2749023,1.2749023c-.2998657.397583-.484314.8868408-.484375,1.4232788.0001831,1.3118286,1.0631714,2.3747559,2.375,2.375,1.3117676-.0002441,2.3746948-1.0631714,2.374939-2.375-.0002441-1.3118286-1.0631714-2.3747559-2.374939-2.375-.5042114.0001221-.9697876.1595459-1.354248.4274292l-1.2809448-1.2809448c.5639038-.6697998.9240723-1.5045166,1.0038452-2.4279785h1.8047485c.0691528.493042.2853394.97052.6640015,1.348938.4627686.4630737,1.0728149.6960449,1.6793823.6956177.6065063.0004272,1.2165527-.2325439,1.6793823-.6956177.4630127-.4627686.6959839-1.0728149.6955566-1.6793823.0004272-.6065674-.2325439-1.2166138-.6955566-1.6793823ZM6.0028076,7.663147c-.8973389-.0016479-1.6233521-.7276611-1.625-1.625.0016479-.8973389.7276611-1.6233521,1.625-1.625.8973389.0016479,1.6234131.7276611,1.625,1.625-.0015869.8973389-.7276611,1.6233521-1.625,1.625Zm-1.3100586,5.5108643c-.3182983.3180542-.7319336.4755249-1.1490479.4759521-.4171753-.0004272-.8308105-.157959-1.1490479-.4758911-.3179932-.3182983-.4755249-.7319946-.4759521-1.1491089.0004272-.4171143.1578979-.8307495.4759521-1.1490479.3182373-.3179932.7319336-.4755249,1.1490479-.4759521.4171143.0004272.8307495.157959,1.1490479.4759521.3179932.3182983.4755249.7319336.4759521,1.1490479-.0004272.4171143-.157959.8308105-.4759521,1.1490479Zm1.3453979,6.4481812c-.8972778-.0016479-1.6233521-.7277222-1.625-1.625.0016479-.8973389.7277222-1.6234131,1.625-1.625.8973389.0015869,1.6234131.7276611,1.625,1.625-.0015869.8972778-.7276611,1.6233521-1.625,1.625Zm11.9303589-3.2156982c.8972778.0016479,1.6233521.7277222,1.625,1.625-.0016479.8973389-.7277222,1.6234131-1.625,1.625-.8973389-.0015869-1.6234131-.7276611-1.625061-1.625.0016479-.8972778.7277222-1.6233521,1.625061-1.625Zm-7.072937-11.7427368h-.000061c-.3179932-.3182983-.4755249-.7319336-.4759521-1.1490479.0004272-.4171143.157959-.8307495.4759521-1.1490479.3182983-.3179932.7319336-.4755249,1.1490479-.4759521.4171143.0004272.8308105.157959,1.1491089.4759521.3179932.3182373.4754639.7319336.4758911,1.1490479-.0004272.4171143-.157959.8307495-.4759521,1.1490479-.3182373.3179932-.7319336.4755249-1.1490479.4759521-.4171143-.0004272-.8308105-.157959-1.1489868-.4759521Zm2.2785034,14.6434937c.3179932.3182373.4754639.7318726.4758911,1.1490479-.0004272.4171143-.157959.8307495-.4759521,1.1490479-.3182373.3179932-.7319336.4755249-1.1490479.4759521-.4171143-.0004272-.8308105-.157959-1.1489868-.4759521-.3180542-.3182983-.4755859-.7319336-.4760132-1.1490479.0004272-.4171753.157959-.8308105.4759521-1.1490479l-.2651367-.2651978.2651978.2651978c.3182373-.3180542.7318726-.4755249,1.1489868-.4759521.4171143.0004272.8308105.1578979,1.1491089.4759521Zm-1.1740723-3.682251c-2.0018921-.0036621-3.6213989-1.6231079-3.625-3.625.0036011-2.0018921,1.6231079-3.6213989,3.625-3.625.7615356.0013428,1.4660034.2387695,2.0489502.6398926l-2.2106323,2.7919312-1.303772-1.3604126c-.2865601-.2990723-.7613525-.3092041-1.0604248-.022583-.2990112.2865601-.3091431.7613525-.022522,1.0604248l2.4943848,2.6029053,3.1389771-3.9643555c.3349609.5487671.5388184,1.1868896.5400391,1.8771973-.0036011,2.0018921-1.6231079,3.6213379-3.625,3.625Zm9.6343384-2.4313965c-.3182983.3179932-.7319336.4755249-1.1490479.4759521-.4171753-.0004272-.8308105-.157959-1.1490479-.4759521-.3179932-.3182373-.4755249-.7319336-.4759521-1.1490479.0004272-.4171143.1578979-.8307495.4759521-1.1490479.3182373-.3179932.7319336-.4755249,1.1490479-.4759521.4171143.0004272.8307495.157959,1.1490479.4759521.3179932.3182983.4755249.7319336.4759521,1.1490479-.0004272.4171143-.157959.8308105-.4759521,1.1490479Zm-3.6027832-4.7871094c1.3117676-.0002441,2.3746948-1.0631714,2.374939-2.375-.0002441-1.3118286-1.0631714-2.3747559-2.374939-2.375-1.3118286.0002441-2.3748169,1.0631714-2.375,2.375.0002441,1.3118286,1.0631714,2.3747559,2.375,2.375Zm0-4c.8972778.0016479,1.6233521.7277222,1.625,1.625-.0016479.8973389-.7277222,1.6234131-1.625,1.625-.8973389-.0015869-1.6234131-.7276611-1.625061-1.625.0016479-.8972778.7277222-1.6233521,1.625061-1.625Z"/></svg>