<?xml version="1.0" encoding="UTF-8"?><svg id="Layer_1" xmlns="http://www.w3.org/2000/svg" width="24" height="24" viewBox="0 0 24 24"><path d="m20.6290775,10.4073046c.6254861,0,1.1563637-.4054572,1.3210092-1.0088791.1646456-.6034776-.0867523-1.2223333-.6255418-1.5400352L12.655272,2.747078c-.4289143-.2528466-.9619648-.2527352-1.3908792,0h-.0000557L2.59512,7.8583903c-.1251557.073798-.2340558.1643949-.3265889.2667203h1.6716681l7.78782-4.591634c.1429157-.0843008.3205992-.0844122.4636264,0l8.6692172,5.1113123c.2786439.1642556.2300581.4344303.2085511.5133265-.0215627.0788962-.1168956.3363116-.4403364.3363116H2c.1924905.5498773.6989776.9128776,1.2905874.9128776h.6423128v6.2799896h-.4203338c-.2520665,0-.4564388.2043723-.4564388.4564388v1.631245c-.5434697.1816395-.9367248.6944088-.9367248,1.2982207,0,.7550296.6142868,1.3693164,1.3693164,1.3693164h16.9422263c.7550296,0,1.3693164-.6142868,1.3693164-1.3693721,0-.6037562-.393255-1.1165255-.9367248-1.298165v-1.631245c0-.2520665-.2043723-.4564388-.4564388-.4564388h-.4203338v-6.2799896h.6423128Zm-3.1664885,0h1.6112981v6.2799896h-1.6112981v-6.2799896Zm-.8767726,7.1928672h3.3648433v1.1036548h-3.3648433v-1.1036548Zm-2.9074573-7.1928672h2.8713522v6.2799896h-.4203338c-.2520665,0-.4564388.2043723-.4564388.4564388v1.5600936h-1.1178071v-1.5600936c0-.2520665-.2043723-.4564388-.4564388-.4564388h-.4203338v-6.2799896Zm-2.5241757,0h1.6112981v6.2799896h-1.6112981v-6.2799896Zm-.8767726,7.1928672h3.3648433v1.1036548h-3.3648433v-1.1036548Zm-2.9074573-7.1928672h2.8713522v6.2799896h-.4203338c-.2520665,0-.4564388.2043723-.4564388.4564388v1.5600936h-1.1178071v-1.5600936c0-.2520665-.2043723-.4564388-.4564388-.4564388h-.4203338v-6.2799896Zm-2.5241757,0h1.6112981v6.2799896h-1.6112981v-6.2799896Zm-.8767726,7.1928672h3.3648433v1.1036548h-3.3648433v-1.1036548Zm16.4619404,2.0165324c.2516765,0,.4564388.2047623.4564388.4564945,0,.2516765-.2047623.4564388-.4564388.4564388H3.4887193c-.2516765,0-.4564388-.2047623-.4564388-.4564945,0-.2516765.2047623-.4564388.4564388-.4564388h16.9422263Z"/></svg>