<?xml version="1.0" encoding="UTF-8"?><svg id="Layer_1" xmlns="http://www.w3.org/2000/svg" width="24" height="24" viewBox="0 0 24 24"><path d="m16.0665894,7.6604004l-.3526611-.9553833c.322937.2897339.6757202.4901733.9979858.7558594.3828735.3138428.7260132.6762085,1.0184326,1.0755615.2924805.399353.5341797.8357544.717041,1.2955322.1569824.3842773.2359009.7794189.4112549,1.1724854l-.7948608-.6221313-.1539917.1972046,1.1824951.9251709.836731-1.24646-.2075806-.1396484-.5291138.7885742c.020752-.4379272-.124939-.8600464-.2803345-1.2600098-.1985474-.4992676-.4609375-.9729004-.7783203-1.406189-.3173218-.4334106-.6895142-.826416-1.1049194-1.1668701-.3335571-.2720337-.694519-.5358887-1.119812-.6478271l.9151611-.2637329-.069519-.2403564-1.4425049.4160156.5197144,1.4086304.2348022-.0864258Zm2.0710449,4.5897217c-1.0357056.0002441-1.8748169.8392944-1.875,1.875.0001831,1.0357056.8392944,1.8747559,1.875,1.875,1.0356445-.0002441,1.8747559-.8392944,1.874939-1.875-.0001831-1.0357056-.8392944-1.8747559-1.874939-1.875Zm0,3c-.6212158-.0010986-1.1239014-.5038452-1.125061-1.125.0011597-.6211548.5038452-1.1239014,1.125061-1.125.6211548.0010986,1.1238403.5038452,1.125,1.125-.0011597.6211548-.5038452,1.1239014-1.125,1.125Zm-6.1376343-8.25c1.0357056-.0002441,1.8747559-.8392944,1.875-1.875-.0002441-1.0357056-.8392944-1.8747559-1.875-1.875-1.0357056.0002441-1.8747559.8392944-1.875,1.875.0002441,1.0357056.8392944,1.8747559,1.875,1.875Zm0-3c.6211548.0010986,1.1239014.5038452,1.125,1.125-.0010986.6211548-.5038452,1.1239014-1.125,1.125-.6211548-.0010986-1.1239014-.5038452-1.125-1.125.0010986-.6211548.5038452-1.1239014,1.125-1.125Zm2.6937866,6.5834351c0,.2070923.1679077.375.375.375s.375-.1679077.375-.375v-1.1616821c-.0002441-1.0844727-.8788452-1.9630737-1.9633179-1.9633179h-2.9609375c-1.0844727.0002441-1.9630737.8788452-1.9633179,1.9633179v1.1616821c0,.2070923.1679077.375.375.375s.375-.1679077.375-.375v-1.1616821c.0012207-.6699219.543335-1.2120972,1.2133179-1.2133179h2.9609375c.6699829.0012207,1.2120972.543396,1.2133179,1.2133179v1.1616821Zm-8.6035156-.0040283l-.1540527-.1972046-.7989502.6253662c.177002-.3944092.260437-.789856.4154663-1.1759644.1829224-.4598999.4246826-.8963013.7172852-1.2956543.2924805-.3994751.6356812-.7618408,1.0186768-1.0756836.3197632-.2667847.6733398-.4625854.9954224-.749939l-.350708.9498901.2348022.0864868.5197754-1.4086304-1.4424438-.4160156-.0695801.2403564.909668.262146c-.4228516.1132812-.7801514.380127-1.1137085.6488647-.4155884.3404541-.7878418.7335205-1.1052246,1.1669312-.3175049.4333496-.5799561.9071045-.7785645,1.4064331-.1583862.4006958-.3000488.8251953-.2775879,1.2645264l-.5319214-.7928467-.2076416.1396484.836731,1.24646,1.1825562-.9251709Zm13.527832,5.8790283h-2.9609375c-1.0844727.0002441-1.9631348.8788452-1.9633789,1.9633179v1.1616821c0,.2070923.1679077.375.375.375s.375-.1679077.375-.375v-1.1616821c.0012207-.6699219.543396-1.2120972,1.2133789-1.2133179h2.9609375c.6699219.0012207,1.2120972.543396,1.2133179,1.2133179v1.1616821c0,.2070923.1679077.375.375.375s.375-.1679077.375-.375v-1.1616821c-.0002441-1.0844727-.8789062-1.9630737-1.9633179-1.9633179Zm-13.7556763-.4584351c1.0356445-.0002441,1.8747559-.8392944,1.874939-1.875-.0001831-1.0357056-.8392944-1.8747559-1.874939-1.875-1.0357056.0002441-1.8748169.8392944-1.875,1.875.0001831,1.0357056.8392944,1.8747559,1.875,1.875Zm0-3c.6211548.0010986,1.1238403.5038452,1.125,1.125-.0011597.6211548-.5038452,1.1239014-1.125,1.125-.6212158-.0010986-1.1239014-.5038452-1.125061-1.125.0011597-.6211548.5038452-1.1239014,1.125061-1.125Zm1.4804688,3.4584351h-2.9609375c-1.0844727.0002441-1.9631348.8788452-1.9633789,1.9633179v1.1616821c0,.2070923.1679077.375.375.375s.375-.1679077.375-.375v-1.1616821c.0012207-.6699219.543396-1.2120972,1.2133789-1.2133179h2.9609375c.6699219.0012207,1.2120972.543396,1.2133179,1.2133179v1.1616821c0,.2070923.1679077.375.375.375s.375-.1679077.375-.375v-1.1616821c-.0002441-1.0844727-.8789062-1.9630737-1.9633179-1.9633179Z"/></svg>