<?xml version="1.0" encoding="UTF-8"?>
<svg id="Layer_1" xmlns="http://www.w3.org/2000/svg" width="24" height="24" viewBox="0 0 24 24">
    <path
        d="m10.3424648,13.4460103h.9058089v-5.06134h-.9058089v5.06134Zm-2.1828093,0h.9058089v-3.2054932h-.9058089v3.2054932ZM20.6412866,3.4399841H3.3587134c-.7492384,0-1.3587134.6095302-1.3587134,1.3587134v11.7399117c0,.7491831.6094749,1.3587134,1.3587134,1.3587134h6.7956678v1.7568845h-3.348795v.9058089h10.3888278v-.9058089h-3.348795v-1.7568845h6.7956678c.7492384,0,1.3587134-.6095302,1.3587134-1.3587134V4.7986975c0-.7491831-.6094749-1.3587134-1.3587134-1.3587134Zm-7.7014767,16.2142229h-1.8796199v-1.7568845h1.8796199v1.7568845Zm8.1543812-3.1155979c0,.2497277-.2031215.4529045-.4529045.4529045H3.3587134c-.249783,0-.4529045-.2031767-.4529045-.4529045v-.6023983h16.8235873v-.9058089H2.9058089V4.7986975c0-.2497277.2031215-.4529045.4529045-.4529045h17.2825732c.249783,0,.4529045.2031767.4529045.4529045v11.7399117Zm-8.4556909-3.0925988h.9058089v-7.4233319h-.9058089v7.4233319Zm2.2960354,0h.9058089v-5.06134h-.9058089v5.06134Z" />
</svg>