<?xml version="1.0" encoding="UTF-8"?><svg id="Layer_1" xmlns="http://www.w3.org/2000/svg" width="24" height="24" viewBox="0 0 24 24"><path d="m21.2946777,11.8110962c-.6520386-1.0167236-1.3146362-1.7300415-2.0007324-2.1939087-.5584106-.3786011-1.1348877-.5778809-1.7088623-.640625-1.074707-1.9812012-3.1726074-3.326416-5.585083-3.3265991-3.5071411.0002441-6.3497925,2.8428955-6.3499756,6.3500366.000061.7932129.1520386,1.5492554.4176636,2.2492676-.3192749-.0853271-.6401367-.2247314-.9699097-.4465332-.5818481-.3926392-1.1871948-1.0303345-1.8031006-1.9916382-.1043701-.1627197-.3208008-.210083-.4835815-.1057739-.1627197.1043091-.210083.3208008-.1057129.4835205h-.000061c.6520386,1.0167847,1.3145752,1.7300415,2.0006714,2.1939087.5584717.3786011,1.1348877.5779419,1.7088623.640686,1.074707,1.9812012,3.1726685,3.326355,5.585144,3.3265381,3.5071411-.0002441,6.3497925-2.8428345,6.3499756-6.3499756-.000061-.7932129-.1520386-1.5492554-.4176636-2.2493286.3192749.0853882.6400757.2247925.9697876.4465942.5819092.3926392,1.1873169,1.0303345,1.8032227,1.9915771.1043091.1627808.3208008.210144.4835815.105835.1627197-.1043091.210083-.3208618.1057739-.4835815Zm-14.9447021.1889038c.0001831-1.5613403.631897-2.9716187,1.6548462-3.9951782,1.0235596-1.0230103,2.4338379-1.6546631,3.9951782-1.6548462,1.5613403.0001831,2.9716187.6318359,3.9951782,1.6548462.2962036.2963867.5549316.6283569.7796631.9838257-1.7568359.1990967-3.3826294,1.4924927-4.9901733,2.7353516-1.7057495,1.3422852-3.3922729,2.6049805-4.9197998,2.6224976-.3274536-.7150879-.5147705-1.5076294-.5148926-2.3464966Zm9.6452026,3.9951172c-1.0235596,1.0230103-2.4338379,1.6546631-3.9951782,1.6548462-1.5613403-.0001831-2.9716187-.6318359-3.9951782-1.6548462-.2962036-.2963257-.5548706-.6282959-.7796021-.9837646,1.7567749-.1992188,3.3823853-1.4925537,4.9899292-2.7354126,1.7058105-1.3423462,3.392334-2.6051025,4.9199829-2.6224976.3274536.7151489.5147705,1.5076294.5148926,2.3465576-.0001831,1.5612793-.631897,2.9715576-1.6548462,3.9951172Z"/></svg>