<?xml version="1.0" encoding="UTF-8"?><svg id="Layer_1" xmlns="http://www.w3.org/2000/svg" width="24" height="24" viewBox="0 0 24 24"><path d="m16.7477467,14.3475002c-.1930735,0-.3824739.0398892-.5578777.1163144l-3.147055,1.3263038c-.1717446-.1356676-.3804426-.2299574-.5950398-.2725596v.0000696l-.0001391-.0000696c-.0065253-.0012939-.0130506-.0024487-.0196315-.0034644l-4.3182544-.674192c-.1546313-.0243203-.310807.0273116-.4207352.1382416l-1.8892876,1.9062756c-.0902828.0911036-.1409546.2142077-.1409546.3425291v4.2901358c0,.4211944.5256825.6436943.8275155.3472179l1.7319432-1.7002907,4.0931945.0037287c.1005368,0,.2000023-.0315134.2820623-.0897402l4.7921798-3.4007205c.4608748-.2976173.7228326-.8481071.5842432-1.3906385-.142666-.5587681-.6487865-.9391411-1.2221635-.9391411Zm.1054342,1.515106c-.0071931.0046192-4.6961787,3.3317667-4.6961787,3.3317667l-4.1370628-.0038122c-.1268467,0-.2508272.0504771-.3413882.1394103l-1.0465371,1.0274482v-2.9301899l1.5732492-1.587385,4.0559488.6332316c.1511669.0311099.3097218.1513617.2905633.3224802-.0198402.1765029-.1879117.2597177-.3509466.2505489l-2.8621961.000473.0002644.9732563,2.8321018-.0008904c.7646139.0260873,1.4286215-.586831,1.3487319-1.3736504l3.0534191-1.2869016c.130311-.0567937.3115583-.0588389.4047629.0658234.1182066.1579566.0237777.3444352-.1247319.4383911Zm-3.5369864-9.1534399h-1.0631912l-.6514439,2.0363084c-.2358705.6985819-.0119514,1.5254156.6976358,1.8377253.6998758.30808,1.5304522.0328073,2.0921421-.430711.3381882.5097797,1.0918664.6625049,1.6615702.5194355.1701028-.2681491.3146749-.5472201.4279979-.8443087-.4141404.0464701-1.2421428.0935524-1.3470345-.4621687-.0012244-.0019618-.0033948-.0144697-.0033948-.0150819-.0118262-.0797505-.0066505-.1750003.0313882-.2849841l.7638626-2.3562147h-1.0627738l-.6530022,2.0387432c-.0005426.0024487-.0005426.0029218-.0023096.0054401-.1457964.4195665-.5150946.7820054-.9414507.9110226-.1914457.0579485-.4195665.0742548-.590365-.049058-.1734976-.125344-.1880369-.3627728-.1247319-.5505454l.7651009-2.3556025Zm-6.2404328,2.4378713l-.9837051.200684c.484722,2.5329123,2.5746241,4.5507301,5.123634,4.943945,2.5146304.3879001,5.0677864-.8440305,6.3277243-3.0543931,1.2619692-2.2137435,1.006801-5.0590907-.6235201-7.0154956-1.6743286-2.0092612-4.5161419-2.7583897-6.9626393-1.8219616-1.2564039.4808403-2.3373901,1.3771844-3.046713,2.5197922-.376366.6063234-.6269706,1.3744713-.26481,2.0467016.2837041.5265034.8923371.7139977,1.4542357.7420606.0521745.0025739.104349.0038679.1565792.0038679h.7877238l-.2861528.8949111c-.2167816.6449882-.0760217,1.4316128.5068023,1.8364314.5724309.3975697,1.4119674.3225637,2.0177482.0429361-.1846421-.2644621-.3014295-.5737805-.3422509-.8935476-.2773179.1071317-.6686267.1878421-.9561987.0762861-.3115444-.1209196-.3525884-.4652157-.2718779-.7531355l.3903627-1.2038815h1.2150956l.3209915-1.0030723h-1.209586l.5351852-1.6428152h-1.0660434l-.5331539,1.6428152h-1.1086457c-.2713909,0-.6616145-.0630407-.720996-.3870235-.0629712-.3438926.1536017-.7353406.3205184-1.0182933l.0119654-.0198959c.7721549-1.1445139,1.9939705-1.9511179,3.3526086-2.2015277,1.2769954-.2353279,2.620009.0212037,3.7167589.7167943,1.0324848.6548249,1.8157842,1.6729095,2.178557,2.8409924.3760878,1.2107547.2910364,2.5473125-.238041,3.6995761-.5093902,1.10891-1.4129274,2.0186943-2.5182339,2.5357506-1.161975.5436305-2.5152565.6335098-3.7397156.2510916-1.804918-.5636516-3.193859-2.121012-3.5442073-3.9795932Z"/></svg>