<?xml version="1.0" encoding="UTF-8"?><svg id="Layer_1" xmlns="http://www.w3.org/2000/svg" width="24" height="24" viewBox="0 0 24 24"><path d="m5.3797234,19.5822507c-.2388038,0-.432997-.1942461-.432997-.432997v-8.7417809l-.865994.6897454v8.0520355c0,.7162527.5826854,1.298991,1.298991,1.298991h7.5412145c-.1855513-.2724004-.3467623-.5623689-.4829196-.865994h-7.058295Z"/><path d="m19.9192676,13.6491559v-4.2119027l1.5411775,1.2274899.5395548-.6774035-2.0807324-1.6572164v-.0042615h-.0053517l-7.1047422-5.6586132c-.476339-.3794009-1.1421141-.3794538-1.6184531.0000529l-3.9480319,3.1444477v-1.8190287c0-.2391209-.1938761-.432997-.432997-.432997h-2.2959623c-.2391209,0-.432997.1938761-.432997.432997v4.3374028l-2.0807324,1.6572164.5395548.6774035L11.7302754,3.3447049c.1587797-.1265375.3806695-.1264317.5394491,0l6.7835491,5.4028162v4.4696619c-.4612486-.167937-.95873-.2598074-1.4773274-.2598074-2.3875091,0-4.3299699,1.942408-4.3299699,4.3299699s1.9424609,4.3299699,4.3299699,4.3299699,4.3299699-1.942408,4.3299699-4.3299699c0-1.5244618-.7926165-2.866438-1.9866486-3.6381896ZM4.9467264,4.4257174h1.4299683v2.0757639l-1.4299683,1.1389097v-3.2146736Zm12.6292199,16.325604c-1.9100072,0-3.4639759-1.5539158-3.4639759-3.4639759s1.5539687-3.4639759,3.4639759-3.4639759,3.4639759,1.5539158,3.4639759,3.4639759-1.5539687,3.4639759-3.4639759,3.4639759Z"/><polygon points="18.7614552 15.4894988 17.5759463 16.6750078 16.3904373 15.4894988 15.7781525 16.1018893 16.9636086 17.2873455 15.7781525 18.4728016 16.3904373 19.0851921 17.5759463 17.8996831 18.7614552 19.0851921 19.37374 18.4728016 18.1882839 17.2873455 19.37374 16.1018893 18.7614552 15.4894988"/></svg>