<?xml version="1.0" encoding="UTF-8"?>
<svg id="Layer_1" data-name="Layer 1" xmlns="http://www.w3.org/2000/svg" viewBox="0 0 24 24">
  <path d="m12,1.5c-5.7991943.0003052-10.4996948,4.7008057-10.5,10.5.0003052,5.7991943,4.7008057,10.4996338,10.5,10.5,5.7991943-.0003662,10.4996948-4.7008057,10.5-10.5-.0003052-5.7991943-4.7008057-10.4996948-10.5-10.5Zm6.7175293,17.2175293c-1.7207642,1.7199097-4.0925903,2.7822266-6.7175293,2.7824707-2.624939-.0002441-4.9967651-1.062561-6.7175293-2.7824707-1.7199097-1.7207642-2.7822266-4.0925903-2.7824707-6.7175293.0002441-2.624939,1.062561-4.9967651,2.7824707-6.7175293,1.7207642-1.7199707,4.0925903-2.7822266,6.7175293-2.7824707,2.624939.0002441,4.9967651,1.0625,6.7175293,2.7824707,1.7199097,1.7207642,2.7822266,4.0925903,2.7824707,6.7175293-.0002441,2.624939-1.062561,4.9967651-2.7824707,6.7175293Zm1.5269775-7.4625854c-1.1077271-.6224976-2.2357788-.862854-3.3370361-.8615723-1.750061.0026855-3.4317627.5819702-5.067688,1.1329956-1.6357422.555542-3.225647,1.0828857-4.7472534,1.0802002-.9604492-.0012817-1.894104-.2003784-2.8480225-.7337646-.2409058-.1350098-.5456543-.0491943-.6806641.1916504-.1350098.2409058-.0492554.5456543.1916504.6806641,1.1077271.6224365,2.2357788.862793,3.3370361.8614502,1.75-.0026245,3.4317017-.5819092,5.067627-1.1329346,1.6357422-.555603,3.225708-1.0828857,4.7473145-1.0802612.9603882.0013428,1.894043.2004395,2.8480225.7338257.2409058.1350098.5455933.0492554.6806641-.1916504.1350098-.2408447.0492554-.5455933-.1916504-.680603Z"/>
</svg>