<?xml version="1.0" encoding="UTF-8"?><svg id="Layer_1" xmlns="http://www.w3.org/2000/svg" width="24" height="24" viewBox="0 0 24 24"><path d="m21.7627937,15.6175192c-.4940726-.8709997-1.6044615-1.1772737-2.4704739-.6861935l-4.2384071,2.3367595c-.0973073.0553033-.1976069.1046773-.3002339.1480112.1082793-.2402204.1685699-.5066516.1685699-.7867702,0-1.059297-.8618009-1.921098-1.921098-1.921098h-4.0089925c-.9817587,0-1.866515.4227546-2.4822494,1.0955933-.1199994-.6291169-.6734205-1.106399-1.337005-1.106399h-1.8110454c-.5916154,0-1.094859.3798363-1.2824082.9079055h3.0934537c.2503612,0,.4539528.203647.4539528.4539528v4.0176925c0,.2503057-.2035916.4539528-.4539528.4539528h-1.8110454c-.2503612,0-.4539528-.203647-.4539528-.4539528v-3.109787h-.9079055v3.109787c0,.7509172.6108857,1.3618583,1.3618583,1.3618583h1.8110454c.6603428,0,1.2119491-.4725165,1.3355643-1.0970895.6158175.6737253,1.5011972,1.0970895,2.4836902,1.0970895h5.7025599c.2351777,0,.4674738-.0613435.6681839-.1751641l5.7164135-3.1709088c.4218126-.2392783.7252605-.6285628.8543755-1.096092s.0683811-.957335-.1708973-1.3791475Zm-.7042031,1.1374864c-.0646129.2337369-.216226.4283514-.423475.5458848l-5.7164135,3.1709642c-.0681594.0386237-.1456284.0590715-.223984.0590715h-5.7025599c-1.3549869,0-2.4573962-1.1024092-2.4573962-2.4573962s1.1024092-2.4573962,2.4573962-2.4573962h4.0089925c.5586855,0,1.0131924.4545069,1.0131924,1.0131924,0,.5586301-.4545069,1.013137-1.0131924,1.013137h-2.5964857v.9079055h3.2324185c.6527788,0,1.2976887-.1704539,1.8602532-.4900274l4.2381855-2.3365933c.4355553-.2469255.9906943-.0935945,1.2375089.3417945.1196946.2109063.1500615.455726.0855595.6894629Zm-9.0589122-5.6573974c-.7544083,0-1.3681755-.6137672-1.3681755-1.3682309h-.9079055c0,1.0996662.7839164,2.0194858,1.8221837,2.2304752v1.293311h.9079055v-1.2933387c1.038295-.2110171,1.8221837-1.130809,1.8221837-2.2304475,0-1.2550752-1.0210612-2.2761364-2.2761919-2.2761364-.7544083,0-1.3681755-.6137672-1.3681755-1.3682309s.6137672-1.3682863,1.3681755-1.3682863c.7545191,0,1.3682863.6138226,1.3682863,1.3682863h.9079055c0-1.0996385-.7838886-2.0194581-1.8221837-2.2305029v-1.2933387h-.9079055v1.293311c-1.0382673.2110171-1.8221837,1.1308644-1.8221837,2.2305306,0,1.2550752,1.0210612,2.2761364,2.276081,2.2761364.7545191,0,1.3682863.6137672,1.3682863,1.3682309s-.6137672,1.3682309-1.3682863,1.3682309Z"/></svg>