<?xml version="1.0" encoding="UTF-8"?><svg id="Layer_1" xmlns="http://www.w3.org/2000/svg" width="24" height="24" viewBox="0 0 24 24"><path d="m9.197937,6.7965698v-.8603516h-.8604126v.8603516h.8604126Zm10.7148438-1.1668701c-.1481934-.3004761-.4046021-.5252686-.7218628-.6328735l-1.5039673-.5103149c-.2034912-.4185181-.6317749-.708374-1.1275024-.708374h-.9599609l-5.0442505-1.7116089c-.6549683-.2221069-1.3687134.1298218-1.5909424.7848511l-.3144531.9267578h-1.2097778c-.6916504,0-1.2543335.5626831-1.2543335,1.2543335v6.0076294l-2.1619873,6.371521c-.222229.6549072.1297607,1.3686523.7848511,1.5909424l1.5039673.5103149c.2035522.418457.6317749.708313,1.1275024.708313h.9598999l5.0443115,1.7116089c.1322632.0447998.2684937.0671997.4041748.0671997.1898193-.0001221.3786011-.0436401.553833-.130127.3004761-.1482544.5252686-.4046021.6328735-.7219238l.3145142-.9267578h1.2097778c.5543213,0,1.0250854-.3618774,1.1904297-.8615723l-10.3098145.000061c-.2166138,0-.3928833-.1762085-.3928833-.3928833V5.0324707c0-.2166748.1762695-.3928223.3928833-.3928223h9.1193848c.2166138,0,.3928833.1761475.3928833.3928223v13.0349731h.8614502v-5.1083374l2.1619263-6.3713989c.107666-.3173218.0853271-.6574707-.0629272-.9580078Zm-13.7270508,12.9303589l-1.1003418-.373291c-.2051392-.0696411-.3154907-.2932129-.2457886-.4984131l1.3461304-3.9671021v4.8388062Zm8.2541504,1.6611328l-.2205811.6500244c-.0336914.0993652-.1040039.1795654-.1981201.2260742-.0941772.0463867-.2007446.0535278-.3000488.0196533h-.000061l-2.6399536-.895752h3.3587646ZM9.5595093,3.7781372l.22052-.6499634c.055481-.1634521.2086792-.2666626.3724365-.2666626.041748,0,.0842285.0066528.1259766.020874l2.6398315.895752h-3.3587646Zm9.6004028,2.5327759l-1.3461304,3.9671021v-4.8387451l1.1003418.3733521c.0993652.0337524.1796875.104126.2261353.1981812.0463867.0941162.0534058.2007446.0196533.3001099Zm-7.1601562,2.6687622c-.1333618,0-.2591553.0617676-.3407593.1672363l-2.0024414,2.5892334c-.1200562.1552124-.1200562.3718262,0,.5270386l2.0024414,2.5892334c.081604.1054688.2073975.1672363.3407593.1672363s.2591553-.0617676.3406982-.1672363l2.0025024-2.5892334c.1200562-.1552124.1200562-.3718262,0-.5270386l-2.0025024-2.5892334c-.081543-.1054688-.2073364-.1672363-.3406982-.1672363Zm0,4.9050903l-1.4579468-1.8850708,1.4579468-1.8851318,1.4579468,1.8851318-1.4579468,1.8850708Zm3.6544189,4.1807251v-.8603516h-.8603516v.8603516h.8603516Z"/></svg>