<?xml version="1.0" encoding="UTF-8"?><svg id="Layer_1" xmlns="http://www.w3.org/2000/svg" width="24" height="24" viewBox="0 0 24 24"><polygon points="5.9812689 13.2380452 8.5293749 7.6420941 8.5293749 7.5027849 4.5638631 7.5027849 4.5638631 8.3466751 7.234843 8.3466751 5.0145049 13.2380452 5.9812689 13.2380452"/><path d="m10.9298236,7.4290606c-1.1879891,0-2.1302306.6308567-2.1302306,1.9090055,0,1.1880413.8520818,1.8680476,1.9991652,1.8434728.1884066,0,.3850569-.0491495.5407492-.139257l-1.4420328,2.1957633h1.0405405l1.7287906-2.687363c.2539914-.385109.3850569-.7537827.3850569-1.2126161,0-1.2781488-.9421893-1.9090055-2.122039-1.9090055Zm0,3.0150788c-.6881979,0-1.1879891-.3932485-1.1879891-1.1060733s.4915997-1.0978817,1.1879891-1.0978817c.68825,0,1.1798497.3850569,1.1798497,1.0978817s-.4915997,1.1060733-1.1798497,1.1060733Z"/><path d="m22,12.439424l-.604508-.604508-.509209.5092286c-.2418084-.2804706-.5188354-.5296358-.8249765-.7396822v-5.727284c0-.7070333-.5752374-1.2822707-1.2822707-1.2822707H3.2822707c-.7070333,0-1.2822707.5752374-1.2822707,1.2822707v9.2354691c0,.7070333.5752374,1.2822707,1.2822707,1.2822707h8.9575029c-.0648805-.2776401-.1087603-.563087-.1301002-.8548471H3.2822707c-.2356778,0-.4274236-.1917458-.4274236-.4274236V5.8771783c0-.2356778.1917458-.4274236.4274236-.4274236h15.4967651c.2356778,0,.4274236.1917458.4274236.4274236v5.2743269c-.4356412-.1710581-.9056402-.2726117-1.3968747-.290821-.1687102-.3718825-.4794689-.6626317-.8825785-.8507513.3932485-.2376083.6718147-.6145257.6718147-1.1061254,0-.8356986-.704581-1.4911301-1.7696963-1.4911301-1.0814985,0-1.7861317.6800063-1.7615569,1.5075655,0,.4915475.262183.8602734.6472399,1.0896901-.6144735.2867578-1.0159136.8193155-1.0159136,1.5157049,0,.4416023.1630231.8415293.4535114,1.1522031-.4889127.694909-.7771575,1.540684-.7771575,2.4530158,0,2.3568298,1.9174058,4.2742356,4.2742356,4.2742356s4.2742356-1.9174058,4.2742356-4.2742356c0-.7529153-.1964155-1.4605225-.5396014-2.075557l.6158823-.6158758Zm-6.1708755-4.2729638c.4997913,0,.9176145.2949494.9176145.7783575,0,.4833559-.4014401.7783575-.9258061.7783575-.4997913,0-.9176667-.3031932-.9176667-.7701659,0-.4834081.4014922-.7865491.9258583-.7865491Zm-.0081916,2.261296c.4454242,0,.8340812.1853869,1.0420015.5026414-.8009235.1496596-1.524053.5226051-2.1013774,1.0526975-.0813941-.1391461-.1286653-.3006952-.1286653-.482032,0-.6472399.5325577-1.0733069,1.1880413-1.0733069Zm5.2479391,4.7031005c0,1.8854743-1.5339142,3.4193885-3.4193885,3.4193885s-3.4193885-1.5339142-3.4193885-3.4193885,1.5339142-3.4193885,3.4193885-3.4193885c1.0571063,0,2.0035219.4822994,2.631222,1.2382474l-2.5679328,2.5680241-1.2160597-1.2161119-.604508.604508,1.5183137,1.5183137c.0801941.0801419.1888761.1251696.302254.1251696s.2220599-.0450277.302254-.1251696l2.7343995-2.7344321c.2044767.4381913.3194459.92623.3194459,1.4408392Z"/></svg>