<?xml version="1.0" encoding="UTF-8"?><svg id="Layer_1" xmlns="http://www.w3.org/2000/svg" width="24" height="24" viewBox="0 0 24 24"><path d="m22,17.6594628v-8.4708826c0-.7434901-.6048984-1.3483886-1.3483886-1.3483886h-.3086217v-.533408c0-.7434901-.6048984-1.3483886-1.3483886-1.3483886h-.5168384v-.5167835c0-.7434901-.6048984-1.3483886-1.3483886-1.3483886H3.3483886c-.7434901,0-1.3483886.6048984-1.3483886,1.3483886v9.3697534c0,.7434901.6048984,1.3483886,1.3483886,1.3483886h.5168384v.5168384c0,.7434901.6048984,1.3483886,1.3483886,1.3483886h.533408v.533408c0,.7434901.6048984,1.3483886,1.3483886,1.3483886h13.5561993c.5857228,0,1.0840164-.3760863,1.2697175-.8989257H7.0954121c-.24783,0-.4494629-.2016328-.4494629-.4494629v-9.3698083c0-.24783.2016328-.4494629.4494629-.4494629h13.5561993c.24783,0,.4494629.2016328.4494629.4494629v8.4708826h.8989257ZM3.865227,7.3067836v7.9540442h-.5168384c-.24783,0-.4494629-.2016328-.4494629-.4494629V5.4416115c0-.24783.2016328-.4494629.4494629-.4494629h13.7809856c.24783,0,.4494629.2016328.4494629.4494629v.5167835H5.2136156c-.7434901,0-1.3483886.6048984-1.3483886,1.3483886Zm15.5788371.533408H7.0954121c-.7434901,0-1.3483886.6048984-1.3483886,1.3483886v7.9374746h-.533408c-.24783,0-.4494629-.2016328-.4494629-.4494629V7.3067836c0-.24783.2016328-.4494629.4494629-.4494629h13.7809856c.24783,0,.4494629.2016328.4494629.4494629v.533408Zm-11.2898465,8.7101535v.2765799c0,.4319057.3513623.783268.783268.783268h4.9662574c.4319057,0,.783268-.3513623.783268-.783268v-.2765799c0-.8026632-.2915652-1.5381566-.7736322-2.1074675-.2046024.2199101-.4377764.4126957-.6936923.5725823.3535158.413745.5683988.9492996.5683988,1.5348852v.1609222h-4.734942v-.1609222c0-1.3054284,1.0620426-2.367471,2.367471-2.367471,1.1345755,0,2.0576423-.9230668,2.0576423-2.0576423s-.9230668-2.0576423-2.0576423-2.0576423-2.0576423.9230668-2.0576423,2.0576423c0,.5834047.2451965,1.10968.6365836,1.4844907-1.0911764.5294576-1.845338,1.6485677-1.845338,2.9406226Zm3.2663967-5.5838299c.6389154,0,1.1587166.5198012,1.1587166,1.1587166s-.5198012,1.1587166-1.1587166,1.1587166-1.1587166-.5198012-1.1587166-1.1587166.5198012-1.1587166,1.1587166-1.1587166Zm3.9939757,2.820994h4.263807v-.8989257h-4.263807v.8989257Zm4.263807-3.3092471h-4.263807v.8989257h4.263807v-.8989257Z"/></svg>