<?xml version="1.0" encoding="UTF-8"?><svg id="Layer_1" xmlns="http://www.w3.org/2000/svg" width="24" height="24" viewBox="0 0 24 24"><path d="m18.5176149,11.0824307h-.7775624v-3.3423783c0-3.1650895-2.5749629-5.7400524-5.7400524-5.7400524s-5.7400524,2.5749629-5.7400524,5.7400524v3.3423783h-.7775624c-.7724889,0-1.4009805.6284916-1.4009805,1.4009805v8.1156083c0,.608568.3907479,1.1262969.933987,1.319241v-9.4348492c0-.2574963.2094972-.4669935.4669935-.4669935h13.0352297c.2574963,0,.4669935.2094972.4669935.4669935v8.1156083c0,.2574963-.2094972.4669935-.4669935.4669935H6.4163721v.933987h12.1012427c.7724889,0,1.4009805-.6284916,1.4009805-1.4009805v-8.1156083c0-.7724889-.6284916-1.4009805-1.4009805-1.4009805Zm-11.3236803-3.3423783c0-2.6500969,2.1559685-4.8060654,4.8060654-4.8060654s4.8060654,2.1559685,4.8060654,4.8060654v3.3423783H7.1939346v-3.3423783Z"/></svg>