<?xml version="1.0" encoding="UTF-8"?><svg id="Layer_1" xmlns="http://www.w3.org/2000/svg" width="24" height="24" viewBox="0 0 24 24"><path d="m4.1484044,19.4510057c-.219964,0-.3989177-.1789537-.3989177-.3989726v-1.2736748c0-2.690995,1.5935875-5.0155981,3.8859389-6.0833171-.3020941-.1658776-.5875209-.3581268-.8545261-.5725396-2.3409825,1.2982919-3.9296905,3.7945705-3.9296905,6.6558567v1.2736748c0,.7153215.5819286,1.2972502,1.2971953,1.2972502h8.051027c-.1987187-.2804513-.3705176-.5809966-.5117781-.8982776h-7.5392489Z"/><path d="m21.1487909,21.36478l-1.6225907-1.6225907c.5269651-.664141.842848-1.5029593.842848-2.4146694,0-2.0702492-1.6247564-3.7676781-3.6661394-3.8854729-.967688-1.3895506-2.3865708-2.4423842-4.0427153-2.944458,1.3899344-.7757678,2.332457-2.2607576,2.332457-3.9623945,0-2.5006922-2.0345023-4.5351945-4.5351397-4.5351945-2.500747,0-4.5352493,2.0345023-4.5352493,4.5351945s2.0345023,4.5351945,4.5352493,4.5351945c2.0857651,0,3.9504423.9582852,5.1815169,2.4562416-1.745128.3842105-3.055235,1.9420237-3.055235,3.8008893,0,2.1464032,1.7462245,3.8926278,3.8925729,3.8926278.9117101,0,1.750501-.3158693,2.4146694-.8428l1.6226455,1.6226524.6351104-.63522ZM6.8205391,6.5351945c0-2.0053894,1.6315274-3.6369169,3.6369717-3.6369169,2.0053346,0,3.6368621,1.6315274,3.6368621,3.6369169s-1.6315274,3.6369169-3.6368621,3.6369169c-2.0054443,0-3.6369717-1.6315274-3.6369717-3.6369169Zm6.6615312,10.7923254c0-1.6510457,1.3432496-2.9942953,2.9942953-2.9942953,1.6511553,0,2.994405,1.3432496,2.994405,2.9942953,0,1.6511005-1.3432496,2.9943501-2.994405,2.9943501-1.6510457,0-2.9942953-1.3432496-2.9942953-2.9943501Z"/></svg>