<?xml version="1.0" encoding="UTF-8"?><svg id="Layer_1" xmlns="http://www.w3.org/2000/svg" width="24" height="24" viewBox="0 0 24 24"><path d="m11.9999723,2.0000277C6.4859829,2.0000277,2,6.4860106,2,12s4.4859829,9.9999723,9.9999723,9.9999723c5.5140449,0,10.0000277-4.4859829,10.0000277-9.9999723S17.5140171,2.0000277,11.9999723,2.0000277Zm-2.6578089,1.3056049c-.7460283.797922-1.3732719,1.9265005-1.8300521,3.2883513-.6702113-.2850553-1.3064158-.6395241-1.894448-1.0611055,1.0316657-1.0182765,2.3044697-1.7922753,3.7245001-2.2272459Zm-4.3438433,2.9015599c.6938642.5081819,1.4531501.9259377,2.2539274,1.2561783-.3249736,1.2292612-.5205177,2.6092971-.5539008,4.0824479h-3.7784591c.1000175-2.0227479.8641614-3.8735145,2.0784325-5.3386262Zm-2.0784325,6.2469888h3.7784591c.033383,1.4731231.2289272,2.8531589.5538938,4.0824202-.8007773.3302406-1.5600631.7479965-2.2539204,1.256206-1.2142641-1.4651117-1.978415-3.3158783-2.0784325-5.3386262Zm2.6977757,6.0129402c.5880323-.4215814,1.2242368-.7760501,1.894448-1.0611055.4567801,1.3618509,1.0840238,2.4904293,1.8300521,3.2883513-1.4200304-.4349706-2.6928344-1.2089694-3.7245001-2.2272459Zm5.9281277,2.5733152c-1.2988895-.290156-2.4497071-1.8060803-3.1682777-3.959117,1.016135-.3323474,2.0887239-.5188545,3.1682777-.5597152v4.5188323Zm0-5.4161896c-1.1660157.0407222-2.324817.2383454-3.4239487.592731-.2977515-1.1410529-.4813895-2.4184933-.5152507-3.7627967h3.9391995v3.1700657Zm0-4.0784283h-3.9391995c.0338612-1.3443035.217513-2.6217993.5152646-3.7628244,1.0991179.3543302,2.2579123.5519534,3.4239349.5926756v3.1701489Zm0-4.0674231c-1.0795538-.0408608-2.1521427-.2273679-3.1682777-.5597152.7185706-2.1530367,1.8693882-3.668961,3.1682777-3.959117v4.5188323Zm9.5343214,4.0674231h-3.7785145c-.033383-1.4731508-.2289272-2.8531867-.5539008-4.0824479.8007912-.3302406,1.560077-.7479965,2.2539551-1.2561783,1.2142849,1.4651117,1.9784427,3.3158783,2.0784602,5.3386262Zm-2.6978034-6.0129679c-.5880392.4215814-1.2242506.7760779-1.8944758,1.0611332-.4567871-1.3618786-1.0840238-2.4904293-1.830059-3.2883513,1.4200512.4349706,2.6928621,1.2089694,3.7245348,2.2272182Zm-5.9281554-2.5732875c1.2988895.290156,2.4497071,1.8060803,3.1682777,3.959117-1.016135.3323474-2.0887239.5188545-3.1682777.5597152V2.9595633Zm0,5.4161065c1.1660226-.0407222,2.324817-.2383454,3.4239349-.5926756.2977515,1.1410252.4814033,2.418521.5152646,3.7628244h-3.9391995v-3.1701489Zm0,12.6647669v-4.5188323c1.0795538.0408608,2.1521427.2273679,3.1682777.5597152-.7185706,2.1530367-1.8693882,3.668961-3.1682777,3.959117Zm2.2036206-.3460693c.7460352-.797922,1.3732719-1.9264727,1.830059-3.2883513.6702251.2850553,1.3064365.6395518,1.8944758,1.0611332-1.0316727,1.0182488-2.3044836,1.7922475-3.7245348,2.2272182Zm4.3438779-2.9015599c-.6938712-.5081819-1.453157-.9259655-2.2539482-1.256206.2225028-.8416658.382564-1.7553509.4732049-2.7198763h-.915674c-.0870787.8453527-.2320042,1.6524504-.4271325,2.4002251-1.0991318-.3543579-2.2579331-.5519811-3.4239487-.5927033v-3.1700657h8.6259588c-.1000175,2.0227479-.8641753,3.8735145-2.0784602,5.3386262Z"/></svg>