<?xml version="1.0" encoding="UTF-8"?><svg id="Layer_1" xmlns="http://www.w3.org/2000/svg" width="24" height="24" viewBox="0 0 24 24"><path d="m21.716224,9.7106679c-.2557426-.328103-.6409923-.5162837-1.0569965-.5162837H5.4978383c-.6150363,0-1.1494237.4165495-1.299543,1.0129368l-1.3048868,5.1822084V4.8980729c0-.246309.2003953-.4467043.4467043-.4467043h4.7351633c.1236725,0,.2429282.0519665.327176.1425397l1.7282526,1.8586867c.2526344.2717742.6104013.427619.9814189.427619h8.3602731c.246309,0,.4467043.2003953.4467043.4467043v.5266988h.8934085v-.5266988c0-.7389269-.6011859-1.3401128-1.3401128-1.3401128h-8.3602731c-.1236725,0-.2429282-.0519665-.327176-.1425397l-1.7282526-1.8586867c-.2526344-.2717742-.6104013-.427619-.9814189-.427619H3.3401128c-.7389269,0-1.3401128.6011859-1.3401128,1.3401128v14.2029817h.0009202c-.0008452.2957262.095624.5847112.2826869.8247016.2557426.328103.6409377.5162837,1.056942.5162837h15.1613892c.6150363,0,1.1494237-.416495,1.299543-1.0128823l2.1573438-8.5674301c.1015881-.403408.0131416-.8229566-.242601-1.1510596Zm-.623761.9329423l-2.1573438,8.5674301c-.0500579.1987594-.2281507.3375911-.433181.3375911H3.340549c-.1386681,0-.2670847-.0627087-.352314-.1720946s-.1147297-.249199-.080867-.3836684l2.1572893-8.5674301c.0500579-.1988139.2282052-.3376456.433181-.3376456h15.1613892c.1386681,0,.2670847.0627087.3523685.1720946.0852293.1093858.1147297.2492536.080867.3837229Z"/></svg>