<?xml version="1.0" encoding="UTF-8"?><svg id="Layer_1" xmlns="http://www.w3.org/2000/svg" width="24" height="24" viewBox="0 0 24 24"><path d="m21.5479787,4.114033l-.4873275-.8441379-2.1996365,1.2699248v-2.5398199h-.974655v2.5398199l-2.1996365-1.2699248-.4873275.8441379,2.199577,1.2698951-2.199577,1.2698951.4873275.8441379,2.1996365-1.2699248v2.5398794h.974655v-2.5398794l2.1996365,1.2699248.4873275-.8441379-2.199577-1.2698951,2.199577-1.2698951Zm-4.0015943,11.8723026c-.2393509.2359898-.5043114.4458047-.7899292.6259053,1.0700147.7491054,1.7716634,1.9900298,1.7716634,3.3924051v.5333714c0,.2687083-.2185597.4873275-.4873275.4873275h-7.5147903c-.2687678,0-.4873275-.2186192-.4873275-.4873275v-.5333714c0-2.2825036,1.8569844-4.139488,4.1395475-4.139488h.1051752c1.7583529,0,3.1888067-1.4305133,3.1888067-3.1888662,0-1.7582934-1.4304538-3.1888067-3.1888067-3.1888067-.2876256,0-.566194.038935-.8314371.1106481.0995982-.3574201.1539853-.7334898.1539853-1.1222453,0-2.3085595-1.8781622-4.1867216-4.1866621-4.1867216-2.308619,0-4.1867811,1.8781622-4.1867811,4.1867216,0,1.5063013.7998935,2.8289029,1.9969304,3.566542-2.7718537.9203274-4.7774099,3.5358759-4.7774099,6.6126662v1.9209937h.974655v-1.9209937c0-3.3042733,2.6882728-5.9925461,5.9926056-5.9925461.6043706,0,1.1786996-.1297587,1.6980913-.3612422-.0144854.1231109-.022784.2480659-.022784.374984,0,1.0394972.5001026,1.964197,1.2721556,2.5467206-1.9282959.7329841-3.3027266,2.5993974-3.3027266,4.7816336v.5333714c0,.8061249.6557982,1.4619826,1.4619826,1.4619826h7.5147903c.8061844,0,1.4619826-.6558577,1.4619826-1.4619826v-.5333714c0-1.6288024-.7663422-3.0810735-1.9563892-4.0183105Zm-8.1271025-4.2984405c-1.7712023,0-3.2121261-1.4409237-3.2121261-3.2120071,0-1.7711429,1.4409237-3.2120666,3.2121261-3.2120666,1.7710834,0,3.2120071,1.4409237,3.2120071,3.2120666,0,1.7710834-1.4409237,3.2120071-3.2120071,3.2120071Zm2.6499624.9883968c0-1.2208768.9932154-2.2141517,2.2141517-2.2141517s2.2141517.9932749,2.2141517,2.2141517c0,1.2209363-.9932154,2.2142111-2.2141517,2.2142111s-2.2141517-.9932749-2.2141517-2.2142111Z"/></svg>