<?xml version="1.0" encoding="UTF-8"?><svg id="Layer_1" xmlns="http://www.w3.org/2000/svg" width="24" height="24" viewBox="0 0 24 24"><path d="m12.0051874,5.9392107c-3.3419269,0-6.0607633,2.7188363-6.0607633,6.0607893s2.7188363,6.0607893,6.0607633,6.0607893c2.7487879,0,5.0745269-1.8399979,5.8140347-4.3525885h-.8973724c-.1897451.5447578-.4671811,1.0487201-.8161983,1.4945519-.3484438-.2419321-.7215474-.4485168-1.1129242-.6187634.1648246-.6594025.2673479-1.3862155.2952401-2.1569001l2.7612742-.0001564c.0098796-.1412074.0167092-.283249.0167092-.4269329,0-3.341953-2.7188363-6.0607893-6.0607633-6.0607893Zm-2.0373547,1.26972c-.2720922.389891-.5093061.8567332-.7014754,1.3862937-.2703196-.1242115-.5306553-.2675304-.7771493-.4314165.4323289-.3965904.9314686-.7213128,1.4786247-.9548772Zm-2.0630833,1.5882905c.3484177.2419582.7215213.4485428,1.1128982.6187634-.1648246.6594025-.2673479,1.3862416-.2952401,2.1569261h-1.9048277c.0850321-1.0416558.477608-1.9970283,1.0871696-2.7756895Zm-1.0871696,3.6298681h1.9048277c.0278922.7706845.1304155,1.4974975.2952401,2.156874-.3913769.1702466-.7644805.3768573-1.1129242.6187894-.6095355-.7786351-1.0021115-1.7340076-1.0871435-2.7756634Zm1.6716282,3.4091028c.2464939-.1638861.5068297-.307205.7771493-.4314165.1921693.5295605.4293832.9964027.7014754,1.3862937-.547156-.2335645-1.0462958-.5582868-1.4786247-.9548772Zm3.08889,1.2803034c-.5777592-.239951-1.1360461-.952844-1.5171785-2.0116522.4904072-.1479589,1.0013555-.2379699,1.5171785-.2699286v2.2815807Zm0-3.1268182c-.596997.0325061-1.188963.1331787-1.7569991.302174-.132136-.5589385-.2184453-1.1845837-.2442261-1.864762h2.0012252v1.562588Zm0-2.4167666h-2.0012252c.0257807-.6801783.1120901-1.3058495.2442521-1.8648141.56801.1689954,1.159976.2696679,1.756973.302174v1.5626401Zm0-2.4078255c-.5158229-.0319848-1.0267713-.1219697-1.5171785-.2699286.3811324-1.0588082.9393931-1.7717012,1.5171785-2.0116522v2.2815807Zm.8541786-2.2815807c.5777853.239951,1.1360722.952844,1.5172045,2.0116522-.4904332.1479589-1.0013555.2379699-1.5172045.2699286v-2.2815807Zm0,3.1267661c.596997-.0325061,1.188963-.1331526,1.756973-.302148.132162.5589385.2184714,1.1846098.2442521,1.8647881h-2.0012252v-1.5626401Zm0,2.4168187h2.0012252c-.0257807.6801783-.1120901,1.3058235-.2442261,1.864762-.5680361-.1689954-1.1600021-.2696679-1.7569991-.302174v-1.562588Zm0,4.6894062v-2.2815807c.515849.0319587,1.0267713.1219436,1.5172045.2699025-.3811584,1.0588343-.9394192,1.7717272-1.5172045,2.0116782Zm3.08889-1.2803034c-.4323289.3965643-.9314686.7213128-1.4786247.9548772.2720922-.389891.5093061-.8567332.7015015-1.3862937.2702935.1242115.5306293.2675304.7771232.4314165Zm-.7771493-7.2409676c-.1921693-.5295605-.4293832-.9964027-.7014754-1.3862937.547156.2335645,1.0462958.5582868,1.4786247.9548772-.2464939.1638861-.5068297.307205-.7771493.4314165Zm.5439497,2.9776863c-.0278922-.7706845-.1304155-1.4975236-.2952401-2.1569001.3913769-.1702466.7644805-.3768312,1.1129242-.6187894.6095355.7786612,1.0021115,1.7340337,1.0871435,2.7756895h-1.9048277Zm5.3754497-1.166545c-.6577081-3.5814608-3.4870445-6.4095459-7.0690788-7.0654293-.132918-.7605182-.796361-1.3409363-1.5943381-1.3409363-.7986549,0-1.4624889.5814087-1.5945988,1.3428393-3.576508.6594547-6.4005526,3.4847505-7.0581565,7.0618842-.7635942.1303373-1.3472447.7951097-1.3472447,1.5952766s.5836505,1.4649393,1.3472447,1.5952505c.6576039,3.5771336,3.4816485,6.4024556,7.0581565,7.0618842.1321099.7614566.7959439,1.3428653,1.5945988,1.3428653.7979772,0,1.4614202-.5804181,1.5943381-1.3409363,3.5820604-.6558834,6.4113967-3.4839685,7.0690788-7.0654293.7583807-.1346384,1.3365831-.7971691,1.3365831-1.5936343s-.5782024-1.4589959-1.3365831-1.5936343ZM12,2.8541786c.422345,0,.7659403.3435692.7659403.7659142s-.3435952.7659663-.7659403.7659663c-.422319,0-.7659142-.3436213-.7659142-.7659663s.3435952-.7659142.7659142-.7659142ZM3.6201189,12.7659142c-.422345,0-.7659403-.3435692-.7659403-.7659142s.3435952-.7659142.7659403-.7659142.7659403.3435692.7659403.7659142-.3435952.7659142-.7659403.7659142Zm8.3798811,8.3799072c-.422319,0-.7659142-.3435692-.7659142-.7659142s.3435952-.7659663.7659142-.7659663c.422345,0,.7659403.3436213.7659403.7659663s-.3435952.7659142-.7659403.7659142Zm1.5130337-1.3402325c-.2324957-.6102914-.8221417-1.0458266-1.5130337-1.0458266-.6902403,0-1.2793911.4346749-1.512356,1.0440279-3.1716542-.6156613-5.6744174-3.1202753-6.2874524-6.292894.6072741-.2340076,1.0400461-.8221678,1.0400461-1.5108962,0-.6887545-.432772-1.2769147-1.0400657-1.5108962.6130546-3.1726187,3.1158177-5.6772327,6.287472-6.2929201.2329649.6093791.8221156,1.044054,1.512356,1.044054.690892,0,1.280538-.4355352,1.5130337-1.0458266,3.1750691.6122204,5.6816641,3.1169647,6.2965174,6.2911214-.6123247.231453-1.0497367.8220635-1.0497367,1.5144674,0,.6923779.437412,1.2830144,1.0497367,1.5144414-.6148532,3.1741567-3.1214483,5.6789271-6.2965174,6.2911475Zm6.8668735-7.0396747c-.422345,0-.7659142-.3435692-.7659142-.7659142s.3435692-.7659142.7659142-.7659142.7659142.3435692.7659142.7659142-.3435692.7659142-.7659142.7659142Z"/></svg>