<?xml version="1.0" encoding="UTF-8"?><svg id="Layer_1" xmlns="http://www.w3.org/2000/svg" width="24" height="24" viewBox="0 0 24 24"><path d="m20.6379658,2.4578909H3.3620342c-.7510696,0-1.3620342.61102-1.3620342,1.3620342v11.8342792c0,.7510142.6109646,1.3620342,1.3620342,1.3620342h3.0768804l.9080505-.9080228h-3.9849309c-.2503935,0-.4540114-.2036733-.4540114-.4540114V3.8199251c0-.2503381.2036179-.4540114.4540114-.4540114h17.2759316c.2503935,0,.4540114.2036733.4540114.4540114v11.8342792c0,.2503381-.2036179.4540114-.4540114.4540114h-10.8006163c-.3638963,0-.7059567.1417123-.9631116.3989226l-4.3929149,4.3928595.6420005.6421113,4.3930258-4.3929149c.0856813-.0857368.1996276-.1329557.3210002-.1329557h10.8006163c.7510696,0,1.3620342-.61102,1.3620342-1.3620342V3.8199251c0-.7510142-.6109646-1.3620342-1.3620342-1.3620342Z"/></svg>