<?xml version="1.0" encoding="UTF-8"?><svg id="Layer_1" xmlns="http://www.w3.org/2000/svg" width="24" height="24" viewBox="0 0 24 24"><path d="m20.8902016,12.3362342v-2.5307702c0-.8073337-.6430305-1.4657341-1.4435966-1.4940226v-.7452452c0-.825269-.6714332-1.4967022-1.4967022-1.4967022h-1.6889057v-2.4626525c0-.825269-.6714332-1.4967022-1.4967022-1.4967022H6.7570356c-.825269,0-1.4967022.6714332-1.4967022,1.4967022v2.4626525h-1.6418292c-.8924428,0-1.6185042.7260614-1.6185042,1.6185042v12.7051601c0,.825269.6714332,1.4967022,1.4967022,1.4967022h15.8967972c.825269,0,1.4967022-.6714332,1.4967022-1.4967022v-1.6697828h-.9978015v1.6697828c0,.2750897-.2238111.4989007-.4989007.4989007H3.4967022c-.2750897,0-.4989007-.2238111-.4989007-.4989007v-11.2108026c.1912899.0797498.4008502.1242075.6207027.1242075h15.7749953c.2750897,0,.4989007.2238111.4989007.4989007v2.4782431h-2.4642968c-1.361563,0-2.4692298,1.1076668-2.4692298,2.4692298,0,1.3615021,1.1076668,2.4691689,2.4692298,2.4691689h3.0751944c.825269,0,1.4967022-.6714332,1.4967022-1.4967022v-1.9449942c0-.6912869-.471777-1.2729825-1.1097984-1.4441751Zm-15.6298683-4.0274724h-1.6418292c-.3422634,0-.6207027-.2785001-.6207027-.6207636s.2784392-.6207027.6207027-.6207027h1.6418292v1.2414663Zm5.1550234,0h-4.1572219V3.6068416c0-.2750897.2238111-.4989007.4989007-.4989007h3.6583212v5.2008209Zm2.1842133,0h-1.1864118V3.1079409h1.1864118v5.2008209Zm2.6636257,0h-1.6658242V3.1079409h1.1669235c.2750897,0,.4989007.2238111.4989007.4989007v4.7019202Zm3.1856079,0h-2.1878064v-1.2414663h1.6889057c.2750897,0,.4989007.2238111.4989007.4989007v.7425655Zm2.5533949,7.4166418c0,.2750897-.2238111.4989007-.4989007.4989007h-3.0751944c-.8113227,0-1.4714283-.6600447-1.4714283-1.4713674s.6601056-1.4714283,1.4714283-1.4714283h3.0751944c.2750897,0,.4989007.2238111.4989007.4989007v1.9449942Zm-3.8343783-.4742054h.996553v-.996553h-.996553v.996553Z"/></svg>