<?xml version="1.0" encoding="UTF-8"?><svg id="Layer_1" xmlns="http://www.w3.org/2000/svg" width="24" height="24" viewBox="0 0 24 24"><path d="m21.1670609,18.8372378c-1.6813557,0-3.0492243-1.3678687-3.0492243-3.0491697v-5.1757622c0-3.0064289-2.1035951-5.5291187-4.9157627-6.178133v-.8960522c0-.8481431-.6899777-1.5381208-1.5381208-1.5381208-.8480884,0-1.5380661.6899777-1.5380661,1.5381208v.9514538c-2.6991493.7282064-4.6917496,3.1966157-4.6917496,6.1227314v5.1757622c0,1.681301-1.3678687,3.0491697-3.0492243,3.0491697v.8960522c2.1754313,0,3.9452765-1.7697905,3.9452765-3.9452218v-5.1757622c0-3.002792,2.4429781-5.4457701,5.4457701-5.4457701,3.0028467,0,5.4458248,2.4429781,5.4458248,5.4457701v5.1757622c0,1.2269855.56315,2.3250103,1.4444356,3.0491697l-11.9633682.0000273c-.2323807.3281168-.5005838.6289155-.7998512.8960522h3.4818277c.0071645,1.2509947,1.0264894,2.2666827,2.2791248,2.2666827,1.2526901,0,2.2720151-1.015688,2.2791795-2.2666827l7.2239283-.0000273c.2474207,0,.4480261-.2006054.4480261-.4480261s-.2006054-.4480261-.4480261-.4480261ZM12.3060217,4.2943288c-.1749555-.0145477-.3513876-.0238451-.5300621-.0238451-.2552688,0-.5065451.0168994-.7540204.0463777v-.7787406c0-.3540128.2880011-.6420686.6420139-.6420686s.6420686.2880558.6420686.6420686v.7562081Zm-.6420686,16.809619c-.7585598,0-1.3759356-.6137115-1.3830727-1.3706306h2.7662001c-.0071371.7569191-.6245129,1.3706306-1.3831274,1.3706306Z"/></svg>