<?xml version="1.0" encoding="UTF-8"?><svg id="Layer_1" xmlns="http://www.w3.org/2000/svg" width="24" height="24" viewBox="0 0 24 24"><path d="m3.8245205,7.1260205h.9099456v-.9099456h-.9099456v.9099456Zm1.8198911,0h.9099525v-.9099456h-.9099525v.9099456Zm13.6356221,0h.9099456v-.9099456h-.9099456v.9099456Zm-7.6572975,10.1808137l1.6919227-6.9896232h-.9373882l-1.6919157,6.9896232h.9373813Zm9.0106424-12.9132362H3.3666283c-.7535474,0-1.3666283.6130809-1.3666283,1.3666283v12.4795475c0,.7535474.6130809,1.3666283,1.3666283,1.3666283h16.3556648v-.9110855H3.3666283c-.2511825,0-.4555428-.2043603-.4555428-.4555428v-9.3016473h18.1778289v10.5885334c.5299119-.1882061.9110855-.6932402.9110855-1.2868861V5.7602263c0-.7535474-.6130809-1.3666283-1.3666214-1.3666283Zm.4555358,3.6334429H2.9110855v-2.2668146c0-.2511825.2043603-.4555428.4555428-.4555428h17.2667503c.2511755,0,.4555358.2043603.4555358.4555428v2.2668146Zm-12.4035796,2.2901701l-3.172673,3.172673c-.1778908.1779464-.1778908.4663308,0,.6442772l3.172673,3.172673.6442772-.6442772-2.85059-2.8505344,2.85059-2.8505344-.6442772-.6442772Zm6.6293373,6.9896232l3.172673-3.172673c.1778908-.1779464.1778908-.4663308,0-.6442772l-3.172673-3.172673-.6442772.6442772,2.85059,2.8505344-2.85059,2.8505344.6442772.6442772Z"/></svg>