<?xml version="1.0" encoding="UTF-8"?><svg id="Layer_1" xmlns="http://www.w3.org/2000/svg" width="24" height="24" viewBox="0 0 24 24"><path d="m21.1873805,6.5951596l-8.7245797-3.3975053c-.2984137-.1161478-.6271359-.1160959-.9256535,0L2.8126195,6.5951596c-.4936023.1922303-.8126195.6587418-.8126195,1.188517s.3190173.9962867.8126195,1.188517l1.7033456.6633089v5.979848c0,.4780848.2509789.8971095.6713531,1.1208939.4106173.2185945.9042715.1961486,1.2981257-.0538183v1.0852399c-.553285.1731838-.95591.6904775-.95591,1.3001497v1.3964725c0,.2347867.190362.4251488.4251488.4251488h1.9117681c.2347867,0,.4251488-.190362.4251488-.4251488v-1.3964725c0-.6096463-.4025731-1.1269141-.9558581-1.3001497v-7.0340788l4.2014059,1.6361117h.0000519c.1492069.0580739.3059909.0871368.4627748.0871368.1568359,0,.3136199-.0290629.4628786-.0871368l6.1709366-2.4030869v5.6487385c0,.2282476-.1542929.3350538-.2206186.3703444-.1451588.0773281-.3149173.0674675-.4543673-.0263642-.6828744-.459661-1.4805473-.7025957-2.3067122-.7025957-1.243996,0-2.4810378.6583267-3.3091229,1.7610562-.082466.1098682-.2074884.1728724-.3429423.1728724-.1355058,0-.2605282-.0630042-.3429942-.1728724-.7695442-1.0249085-1.8924621-1.6650708-3.0459479-1.7504431v.8538785c.8887021.0855539,1.7577348.5970091,2.3659798,1.4071375.2446474.325764.6175348.512597,1.0230142.512597.4054794-.0000519.778263-.1868848,1.0228585-.512597.6682911-.8899995,1.6511881-1.4213317,2.6291548-1.4213317.6564064,0,1.2898739.1928531,1.831949.5576963.398577.2682091.9075929.295715,1.3286936.0715155.4203741-.2237844.6713531-.6428091.6713531-1.1208939v-5.979848l1.7032937-.6633089c.4936023-.1922303.8126195-.6587418.8126195-1.188517s-.3190173-.9962867-.8126195-1.188517ZM6.0412486,15.9593307c-.1393981.0938317-.3091566.1036923-.4543673.0263642-.0663257-.0352907-.2206186-.1420968-.2206186-.3703444v-5.6487125l1.1191813.4358138v5.29879c-.1525283.0764199-.3011643.1617921-.4441953.258089Zm1.4000535,3.1084851v.9713237h-1.0614706v-.9713237c0-.2821696.2295969-.5117666.5117666-.5117666h.0379375c.2821696,0,.5117666.2295969.5117666.5117666Zm13.4374927-10.8880014l-8.7244759,3.3975053c-.0995923.0388197-.209201.0388197-.3085858,0l-3.8604877-1.5033565,3.0425746-1.1848063c.2756824.1403323.6092311.2216046.972206.2216046.9730364,0,1.7352629-.5829188,1.7352629-1.3270848s-.7622265-1.3270848-1.7352629-1.3270848c-.9730883,0-1.7353148.5829188-1.7353148,1.3270848,0,.1592232.0367438.3103762.1011493.4507085l-3.5522652,1.3833163-3.6923899-1.4378871c-.2513422-.0978278-.2709078-.3279437-.2709078-.3961377s.0195656-.2983099.2709078-.3961377l8.7244759-3.3975053c.0994885-.0388197.2090972-.0388197.3085858,0l8.7245278,3.3975053c.2513422.0978278.2709078.3279437.2709078.3961377s-.0195656.2983099-.2709078.3961377Zm-9.7637861-.3961377c0-.2250818.3784924-.4767873.8850173-.4767873s.8849654.2517055.8849654.4767873-.3784405.4767873-.8849654.4767873-.8850173-.2517055-.8850173-.4767873Z"/></svg>