<?xml version="1.0" encoding="UTF-8"?><svg id="Layer_1" xmlns="http://www.w3.org/2000/svg" width="24" height="24" viewBox="0 0 24 24"><path d="m14.2219917,10.5767722c1.4033908-.7827725,2.3551236-2.2818346,2.3551236-3.9996569,0-2.5238072-2.0533081-4.5771153-4.5770599-4.5771153-2.5238625,0-4.5771706,2.0533081-4.5771706,4.5771153,0,1.7178085.9517328,3.2168844,2.3551513,3.9996569-3.1526701.9552603-5.4546461,3.8870813-5.4546461,7.3474876v1.2854479c0,.7219336.5873076,1.3092412,1.3091859,1.3092412h3.1116958c-.0532583-.2064693-.071795-.4226427-.049219-.6398743l.0277773-.2667065h-3.0902541c-.2219972,0-.4026051-.1806079-.4026051-.4026604v-1.2854479c0-3.1329991,2.1396004-5.7748184,5.0340576-6.5434117v.6373013c0,.4183751.2005555.7898829.5096474,1.0264189l-.7260559,6.9752743c-.014276.1370053.034528.2730698.1326893.3697371l1.5015244,1.4799444c.0882013.0869839.2031839.1304759.3181665.1304759s.2299652-.043492.3181665-.1304759l1.5015244-1.4799444c.0981613-.0966673.1469652-.2327319.1326893-.3697371l-.7260559-6.9752743c.3090918-.236536.5096474-.6080438.5096474-1.0264189v-.6373013c2.8944573.7685934,5.0340576,3.4104126,5.0340576,6.5434117v1.2854479c0,.2220525-.1806079.4026604-.4027158.4026604h-3.0901435l.0277773.2667065c.022576.2172316.0040393.433405-.049219.6398743h3.1115851c.7219889,0,1.3092965-.5873076,1.3092965-1.3092412v-1.2854479c0-3.4603924-2.301976-6.3922135-5.4546184-7.3474876Zm-5.8925261-3.9996569c0-2.0239261,1.6466083-3.6705345,3.6705898-3.6705345,2.0238708,0,3.6704791,1.6466083,3.6704791,3.6705345s-1.6466083,3.6705345-3.6704791,3.6705345c-2.0239815,0-3.6705898-1.6466083-3.6705898-3.6705345Zm3.6705345,14.3331507l-1.0280927-1.0133741.6854689-6.5854927h.6852476l.6854689,6.5854927-1.0280927,1.0133741Zm.8293908-8.8921167c0,.2131992-.1734146.3866691-.3866691.3866691h-.8854435c-.2132545,0-.3866691-.1734699-.3866691-.3866691v-.8112968c.2720738-.0333936.548436-.052622.8293908-.052622s.557317.0192283.8293908.052622v.8112968Z"/></svg>