<?xml version="1.0" encoding="UTF-8"?><svg id="Layer_1" xmlns="http://www.w3.org/2000/svg" width="24" height="24" viewBox="0 0 24 24"><path d="m8.3973753,14.0861091v3.4163377h-.863371v.9110827h8.9319913v-.9110827h-.863371v-3.4163377c0-.2515709-.2039704-.4555413-.4555413-.4555413h-2.7187344c-.0020019-.2333384-.0034477-.4630693-.0040316-.6606934.1206417-.0413098.2365289-.0987599.3441862-.1734277.6300395-.4371351.7871879-1.3055108.3499972-1.9358839l-.768726-1.1080465c-.0850804-.1226714-.2248791-.1958516-.3742423-.1958516s-.289162.0731802-.3743536.1959072l-.7691709,1.108825c-.3278652.4749486-.3276428,1.1119391.0005561,1.5848857.1687149.2432923.4055219.4211825.6795307.5174609.0006395.1747762.0022799.3930448.0049213.6668242h-2.6640994c-.2515709,0-.4555413.2039704-.4555413.4555413Zm3.1838959-2.7062225l.3942612-.5684813.3943725.5684257c.1508091.2175388.0966468.5172107-.1206695.6680198-.1053217.073069-.2333315.1006506-.3591169.0779625-.1261191-.0228549-.2358895-.0934216-.3089585-.1987989-.113218-.1632097-.1129956-.3834177.0001112-.5471278Zm-2.2728132,3.1617639h5.383084v2.9607963h-5.383084v-2.9607963Zm11.324918-10.1249513h-2.8890619v-1.0711227h-.9110827v1.0711227H7.1667686v-1.0711227h-.9110827v1.0711227h-2.8890619c-.7536006,0-1.366624.613079-1.366624,1.366624v13.5044764c0,.753545.6130234,1.366624,1.366624,1.366624h16.3556692v-.9110827H3.366624c-.2512373,0-.4555413-.2043597-.4555413-.4555413v-10.8970695h18.1778346v12.1839654c.5299449-.1882055.9110827-.693245.9110827-1.286896V5.7833231c0-.753545-.6130234-1.366624-1.366624-1.366624Zm.4555413,3.0629483H2.9110827v-1.6963243c0-.2511817.2043041-.4555413.4555413-.4555413h2.8890619v1.0711227h.9110827v-1.0711227h9.6664628v1.0711227h.9110827v-1.0711227h2.8890619c.2512373,0,.4555413.2043597.4555413.4555413v1.6963243Z"/></svg>