<?xml version="1.0" encoding="UTF-8"?><svg id="Layer_1" xmlns="http://www.w3.org/2000/svg" width="24" height="24" viewBox="0 0 24 24"><path d="m9.2029575,8.5410496h2.6692181l-2.2188736,4.8881438h.9661264l2.5464253-5.5922601v-.1392173h-3.9628962v.8433336Zm11.2538682,8.6116267c.5011171-.6316138.8015163-1.4293238.8015163-2.2963491,0-1.0818215-.4665865-2.0566359-1.2089485-2.734121v-6.1406955c0-.7065669-.574858-1.2814249-1.2814249-1.2814249H3.2814249c-.7065669,0-1.2814249.574858-1.2814249,1.2814249v9.2293775c0,.7065669.574858,1.2814249,1.2814249,1.2814249h9.5687913c-.0958097-.2748043-.1688727-.560115-.2154218-.8542833H3.2814249c-.2355223,0-.4271416-.1916193-.4271416-.4271416V5.9815107c0-.2355223.1916193-.4271416.4271416-.4271416h15.4865436c.2355223,0,.4271416.1916193.4271416.4271416v5.5565564c-.4943648-.2451424-1.0505693-.3836688-1.6387493-.3836688-.0598452,0-.1192993.0017011-.1784536.0045233-.157193-.6614191-.6650103-1.2086748-1.4447576-1.2422798l1.4492157-2.0633361v-.1474035h-3.6272105v.7696579h2.3089738l-1.2936781,1.9241187v.1637759c.6963994-.1741064,1.5391594.0320734,1.7226447.7473089-.7036992.211433-1.3198791.6266604-1.7794266,1.1773443-.1921407-.1483225-.3149335-.3731363-.3443934-.671906h-.8433857c.0370464.6108616.3108665,1.0759947.7302912,1.3661611-.2562485.5031246-.4017488,1.071706-.4017488,1.6739643,0,2.0412803,1.6607008,3.7019811,3.701929,3.7019811.8670318,0,1.6647418-.3003991,2.2963556-.8015228l1.5431743,1.5431287.6041093-.6041093-1.5431743-1.5431287Zm-2.9004648.5513488c-1.5701835,0-2.8476457-1.2774622-2.8476457-2.8476978,0-1.5701835,1.2774622-2.8476457,2.8476457-2.8476457,1.5702357,0,2.8476978,1.2774622,2.8476978,2.8476457,0,1.5702357-1.2774622,2.8476978-2.8476978,2.8476978ZM6.722178,7.6649712l-1.7357843,2.7511321c-.2210792.3356858-.3684827.7696058-.3684827,1.1872056,0,1.2773058.94162,1.9077464,2.1206394,1.9077464,1.1872577,0,2.1288777-.6304406,2.1288777-1.9077464,0-1.1872056-.8433857-1.8668154-1.973288-1.8422569-.1801482,0-.3520581.0409309-.515834.1310311l1.4000985-2.2271119h-1.0562266Zm.0163724,2.832994c.6877961,0,1.1872577.3929891,1.1872577,1.1053437s-.4912755,1.0971575-1.1872577,1.0971575c-.6877439,0-1.1872056-.3848029-1.1872056-1.0971575s.4912755-1.1053437,1.1872056-1.1053437Z"/></svg>