<?xml version="1.0" encoding="UTF-8"?><svg id="Layer_1" xmlns="http://www.w3.org/2000/svg" width="24" height="24" viewBox="0 0 24 24"><path d="m7.3063517,13.721136h-3.0371025v.911103h3.0371025v-.911103Zm0-2.2088575h-3.0371025v.911103h3.0371025v-.911103Zm0-2.2088575h-3.0371025v.911103h3.0371025v-.911103Zm13.3269939-.0214096h-1.5212483v-2.0777863c0-.2515765-.203975-.4555515-.4555515-.4555515h-.9668235v-1.7188282h-.911103v1.7188282h-.9668235c-.2515765,0-.4555515.203975-.4555515.4555515v2.0777863h-1.3955713c-.7535618,0-1.3666544.6130927-1.3666544,1.3666544v8.4198614h.911103v-8.4198614c0-.2511873.2043642-.4555515.4555515-.4555515h6.6726725c.2511873,0,.4555515.2043642.4555515.4555515v9.35521c0,.1217844-.0474904.236284-.1336292.3223672-.0860832.0859164-.2003603.1331843-.3219223.1331843h-.0006673l-10.5594297-.0155706c-.2508536-.0003337-.4548842-.2046979-.4548842-.4555515V3.996124c0-.7535618-.6130927-1.3666544-1.3666544-1.3666544H3.3666544c-.7535618,0-1.3666544.6130927-1.3666544,1.3666544v15.9908467c0,.7535618.6130927,1.3666544,1.3666544,1.3666544h4.3412799c-.1605163-.2769066-.2737924-.5841897-.3288179-.911103H3.3666544c-.2511873,0-.4555515-.2043642-.4555515-.4555515V3.996124c0-.2511873.2043642-.4555515.4555515-.4555515h4.8850556c.2511873,0,.4555515.2043642.4555515.4555515v15.9921813c0,.7525052.6122029,1.3655979,1.3646525,1.3666544l10.5594297.0155706h.0020575c.3646303,0,.7075173-.1418594.9656001-.3996085.2585833-.258194.4009987-.6016371.4009987-.9670459v-9.35521c0-.7535618-.6130927-1.3666544-1.3666544-1.3666544Zm-2.4323513,0h-1.933647v-1.6222348h1.933647v1.6222348Zm-13.9317451,9.7679423h3.0371025v-.911103h-3.0371025v.911103Zm3.0371025-3.1199604h-3.0371025v.911103h3.0371025v-.911103Zm7.5127623.911103h4.9158631v-.911103h-4.9158631v.911103ZM7.3063517,7.0945636h-3.0371025v.911103h3.0371025v-.911103Zm7.5127623,11.9553902h4.9158631v-.911103h-4.9158631v.911103Zm4.9158631-7.5376753h-4.9158631v.911103h4.9158631v-.911103ZM7.3063517,4.8857062h-3.0371025v.911103h3.0371025v-.911103Zm7.5127623,9.7465328h4.9158631v-.911103h-4.9158631v.911103Z"/></svg>