<?xml version="1.0" encoding="UTF-8"?><svg id="Layer_1" xmlns="http://www.w3.org/2000/svg" width="24" height="24" viewBox="0 0 24 24"><path d="m20.1086901,14.164116c.5686534-.5061092.9183784-1.1523029.9183784-1.9485515,0-.2444758-.1982178-.4426936-.4426936-.4426936-.6878178,0-1.2473453-.5595815-1.2473453-1.2473993v-1.3963329c0-2.1977422-1.7880669-3.9857551-3.9858092-3.9857551-1.0695883,0-2.0413512.424293-2.7579722,1.1124081-.277109-1.9290161-1.9399997-3.4166086-3.9444688-3.4166086-2.1977422,0-3.9857551,1.7880129-3.9857551,3.9857551,0,1.4524126.7811917,2.7253862,1.9451402,3.4220936-2.6706845.863447-4.6081646,3.3727013-4.6081646,6.3270539v1.839837h.8853871v-1.839837c0-3.177915,2.5854233-5.7633384,5.7633924-5.7633384,1.049114,0,2.0042327-.4080946,2.7166859-1.0730401v.7877643c0,.6878178-.5595815,1.2473993-1.2473993,1.2473993-.2444758,0-.4426936.1982178-.4426936.4426936,0,.7512064.3144032,1.4115991.9169463,1.9501186-1.167407,1.1790931-1.8898238,2.7995558-1.8898238,4.585934v1.0811191c0,.7322925.5957881,1.3280807,1.3280807,1.3280807h9.7559565v-.8853871h-9.7559565c-.2440975,0-.4426936-.198596-.4426936-.4426936v-1.0811191c0-3.1080957,2.5286276-5.6367232,5.6367232-5.6367232h.2532843c3.1080957,0,5.6367232,2.5286276,5.6367232,5.6367232v2.3317202c.514992-.1828975.8853871-.6736932.8853871-1.2506012v-1.0811191c0-1.7871483-.7230112-3.4082865-1.8913099-4.5875011Zm-4.7574696-1.9346092c-1.7095472,0-3.100368-1.3908208-3.100368-3.100368,0-.4626612.1025877-.901572.2850731-1.2963053.6322177.7865214,1.4837151,1.3658274,2.4693324,1.6655589.4870061.1480689.9847662.2214549,1.4799864.2214549.6694173,0,1.3333698-.1363693,1.9600619-.4012721-.0982983,1.6215975-1.4481975,2.9109317-3.0940859,2.9109317Zm0-6.200736c1.4526963,0,2.674724,1.0045042,3.0093043,2.355241-.9656294.4863577-2.0611162.5824673-3.0976593.2673076-.9057263-.2754541-1.6739823-.8372377-2.2081989-1.6027377.5676537-.6259964,1.3869502-1.019811,2.2965539-1.019811Zm-6.702441,3.8965896c-1.7095472,0-3.100368-1.3908208-3.100368-3.1004221,0-1.7095472,1.3908208-3.100368,3.100368-3.100368s3.100368,1.3908208,3.100368,3.100368c0,1.7096012-1.3908208,3.1004221-3.100368,3.1004221Zm2.6158747,3.6488444c-.3302706-.2751433-.5620876-.5995304-.6564478-.9727964.6546644-.1545266,1.1930016-.6120001,1.4602686-1.2152997.3168823.4594594.7272398.8495723,1.2038906,1.1421569-.7334679.2305876-1.410775.5882766-2.0077115,1.0459392Zm7.3693522-2.1881096c.2672603.6032997.8055974,1.0607866,1.4602281,1.2153132-.0943601.3732525-.3261704.697626-.6564275.9727694-.5969365-.4576626-1.2742436-.8153246-2.0077047-1.0459122.4766575-.2925982.8870218-.6827111,1.2039041-1.1421705Z"/></svg>