<?xml version="1.0" encoding="UTF-8"?><svg id="Layer_1" xmlns="http://www.w3.org/2000/svg" width="24" height="24" viewBox="0 0 24 24"><path d="m16.8523142,20.5495075v-.9269223H7.1476858v.9269223h9.7046283Zm3.7573024-17.099015H3.3903834c-.7667023,0-1.3903834.6237377-1.3903834,1.3903834v12.4647397c0,.7666457.6236811,1.3903834,1.3903834,1.3903834h16.2923109v-.9269223H3.3903834c-.2556052,0-.4634611-.2079126-.4634611-.4634611V4.8408759c0-.2555486.207856-.4634611.4634611-.4634611h17.2192332c.2556052,0,.4634611.2079126.4634611.4634611v13.774009c.5391583-.1914776.9269223-.7053045.9269223-1.3092692V4.8408759c0-.7666457-.6236811-1.3903834-1.3903834-1.3903834Z"/><path d="m10.6324326,13.3764785c-.0739999,0-.1478866-.0202538-.2129477-.0604219-.1197124-.0738302-.1925808-.2044615-.1925808-.3451066v-3.9092653c0-.1406451.0728684-.2712764.1925808-.3451066.1197124-.0739433.2692963-.0803929.3948924-.0173119l3.8938203,1.9546609c.1370243.068795.2235838.2090441.2235838.3624185s-.0865595.2936234-.2235838.3624185l-3.8938203,1.9546043c-.0573669.0287966-.1197124.04311-.1819447.04311Zm.4055285-3.6574506v2.594579l2.584339-1.2972612-2.584339-1.2973178Z"/></svg>