<?xml version="1.0" encoding="UTF-8"?><svg id="Layer_1" xmlns="http://www.w3.org/2000/svg" width="24" height="24" viewBox="0 0 24 24"><path d="m3.7229873,19.0202583c-.214588,0-.3891246-.1745366-.3891246-.3890711v-1.2422364c0-2.624626,1.5542793-4.8918571,3.7900748-5.9332213-.2946107-.1617765-.5729923-.3492737-.8333801-.5583874-2.283253,1.2662458-3.8327999,3.7009417-3.8327999,6.4916087v1.2422364c0,.6976116.5675647,1.2651764,1.2652298,1.2651764h8.2205182c-.1231488-.2811221-.2248816-.5736139-.3016692-.8761052H3.7229873Z"/><path d="m17.1617164,13.2389478c-.3640189,0-.7175037.0453787-1.0558822.129452-.9442568-1.4582347-2.3854938-2.5653844-4.0822525-3.0799371,1.3562413-.7564589,2.2759806-2.2051353,2.2759806-3.8652114,0-2.438967-1.9842842-4.4232512-4.4232512-4.4232512s-4.4231978,1.9842842-4.4231978,4.4232512,1.9842307,4.4232512,4.4231978,4.4232512h.0000535c2.2288173,0,4.1995995,1.1212666,5.3813309,2.8284258-1.4643106.7096832-2.4765052,2.2110641-2.4765052,3.9445456,0,2.4154388,1.9650873,4.3805261,4.3805261,4.3805261s4.3805261-1.9650873,4.3805261-4.3805261-1.9650873-4.3805261-4.3805261-4.3805261ZM6.3292186,6.4232512c0-1.9558899,1.5912026-3.547146,3.5470925-3.547146s3.547146,1.5912561,3.547146,3.547146-1.5912561,3.547146-3.547146,3.547146-3.5470925-1.5912561-3.5470925-3.547146Zm10.8324978,14.7006436c-1.9323617,0-3.5044209-1.5720592-3.5044209-3.5044209s1.5720592-3.5044209,3.5044209-3.5044209,3.5044209,1.5720592,3.5044209,3.5044209-1.5720592,3.5044209-3.5044209,3.5044209Z"/><rect x="16.7236638" y="15.3751494" width=".8761052" height="2.8593735"/><rect x="16.7527532" y="19.0748946" width=".8179531" height=".8179531"/></svg>