<?xml version="1.0" encoding="UTF-8"?><svg id="Layer_1" xmlns="http://www.w3.org/2000/svg" width="24" height="24" viewBox="0 0 24 24"><path d="m15.85068,7.9037344c0-2.1232605-1.7273652-3.8506257-3.8506257-3.8506257s-3.8506257,1.7273652-3.8506257,3.8506257,1.7273652,3.8506257,3.8506257,3.8506257,3.8506257-1.7273652,3.8506257-3.8506257Zm-6.8102694,0c0-1.6319261,1.3276632-2.9596437,2.9596437-2.9596437s2.9596437,1.3277176,2.9596437,2.9596437-1.3276632,2.9596437-2.9596437,2.9596437-2.9596437-1.3277176-2.9596437-2.9596437Zm9.9556793,11.5446443l-3.2133865-7.0162654c1.2953607-1.083845,2.1210852-2.7112575,2.1210852-4.5283788,0-3.2553144-2.6483656-5.9037344-5.9037344-5.9037344s-5.9037344,2.64842-5.9037344,5.9037344c0,1.8170942.8257245,3.4445067,2.1210309,4.5283245l-3.2134409,7.0163198c-.0750461.1637962-.04394.3566864.0786352.4887241.122684.1319832.312692.1772284.4816001.1143637l2.6396646-.9813092.9812548,2.6395558c.0627559.1689081.2211141.2833806.4011159.2899607.0055469.0002175.010985.0003263.0165319.0003263.1736936,0,.3321605-.1012035.4049226-.2599966l1.2576202-2.7459255-.4899748-1.0698418-1.1298243,2.4669498-.7617722-2.0490301c-.0411122-.1107746-.1246418-.2006123-.2319903-.2498273-.1075661-.0492694-.2301413-.0536199-.3407527-.0125621l-2.0490845.7617722,2.6937195-5.8816284c.3986687.2409632.8278997.4361918,1.2805147.5782084l3.756383,8.2018849c.0727621.1588476.231229.2599966.4049226.2599966.0054381,0,.010985-.0001088.0165319-.0003263.1800018-.0065801.33836-.1210526.4011159-.2899607l.9812548-2.6395558,2.6395558.9813092c.1689081.0628647.3589161.0176195.4816001-.1143637.1225753-.1320376.1536813-.3249278.0786352-.4887241ZM6.987302,7.9037344c0-2.7640344,2.2486636-5.0127524,5.0127524-5.0127524s5.0127524,2.248718,5.0127524,5.0127524-2.2486636,5.0127524-5.0127524,5.0127524-5.0127524-2.248718-5.0127524-5.0127524Zm8.7018658,10.176032c-.1107202-.0410578-.2331867-.0367073-.3407527.0125621-.1073485.049215-.1908781.1390528-.2319903.2498273l-.7617722,2.0489757-3.0336565-6.6239049c.222963.0256679.4492977.0402421.6790583.0402421,1.1130205,0,2.1549104-.3099186,3.044424-.8475314l2.6936651,5.8816012-2.0489757-.7617722Z"/></svg>