<?xml version="1.0" encoding="UTF-8"?><svg id="Layer_1" xmlns="http://www.w3.org/2000/svg" width="24" height="24" viewBox="0 0 24 24"><path d="m19.4979293,10.057525v-.5764297c0-4.1250754-3.3560199-7.4810953-7.4811489-7.4810953-4.1250754,0-7.4810953,3.3560199-7.4810953,7.4810953v.577636c-1.23971.0337216-2.2383831,1.0503813-2.2383831,2.2980794,0,1.2656579,1.027114,2.2954524,2.2915388,2.3007867.3705888,3.1541998,2.7100294,5.7134471,5.7531463,6.4123521.1758186.5391162.6826339.9300505,1.2796236.9300505h.7903392c.742357,0,1.3462894-.6039324,1.3462894-1.3462894,0-.7423034-.6039324-1.3462358-1.3462894-1.3462358h-.7903392c-.5717119,0-1.0600582.3588747-1.2549088.862661-2.8443527-.734905-4.9526477-3.3196714-4.9526477-6.390425v-4.2986155c0-3.64075,2.9619761-6.6027261,6.6027261-6.6027261,3.6408036,0,6.6027798,2.9619761,6.6027798,6.6027261v1.0136307c0,.242538.1966466.4391846.4391846.4391846h.3426841c.7846028,0,1.4229001.6382973,1.4229001,1.4229001,0,.7521679-.5866159,1.3698784-1.3263996,1.4196834v-1.5155406h-.8783691v1.9579419c0,.242538.1966466.4391846.4391846.4391846h.3426841c1.2689282,0,2.3012692-1.0323411,2.3012692-2.3012692,0-1.2366005-.9803916-2.2485692-2.2047687-2.2992856Zm-14.9622442,3.7189959c-.755331-.0332391-1.3600139-.6563375-1.3600139-1.4197102s.604683-1.3864712,1.3600139-1.4197102v2.8394205Zm7.0859257,6.409323h.7903392c.2580317,0,.4679203.2098886.4679203.4678667,0,.2580317-.2098886.4679203-.4679203.4679203h-.7903392c-.257978,0-.4678667-.2098886-.4678667-.4679203,0-.257978.2098886-.4678667.4678667-.4678667Z"/></svg>