<?xml version="1.0" encoding="UTF-8"?><svg id="Layer_1" xmlns="http://www.w3.org/2000/svg" width="24" height="24" viewBox="0 0 24 24"><path d="m20.6626289,6.4311846h-9.5691473c-.1234195,0-.2424312-.0518601-.3265066-.1422481l-1.7246624-1.8548297c-.2521175-.2712182-.6090981-.4267986-.9794655-.4267986H3.3373711c-.7374152,0-1.3373711.5999559-1.3373711,1.3373711v13.3106411c0,.7374152.5999559,1.3373711,1.3373711,1.3373711h16.433677v-.8915808H3.3373711c-.2458051,0-.4457904-.1999853-.4457904-.4457904V5.3446794c0-.2458051.1999853-.4457904.4457904-.4457904h4.725476c.1234739,0,.2424312.0518057.3265066.1422481l1.7247168,1.8548841c.2521175.2712182.6091525.4267442.979411.4267442h9.5691473c.2458051,0,.4457904.1999853.4457904.4457904v12.1461076c.5185673-.1841837.8915808-.6784059.8915808-1.2593429V7.7685558c0-.7374152-.5999559-1.3373711-1.3373711-1.3373711Z"/></svg>