<?xml version="1.0" encoding="UTF-8"?><svg id="Layer_1" xmlns="http://www.w3.org/2000/svg" width="24" height="24" viewBox="0 0 24 24"><path d="m17.014055,16.8666932c.2720911.2720911.6295408.4081088.9869905.4081088s.7148994-.1360177.9869905-.4081088h.0000556c.5442377-.5442377.5442377-1.4297988,0-1.9740365-.5442933-.5441821-1.4297988-.5441821-1.9740921,0-.5442377.5442377-.5442377,1.4297988.0000556,1.9740365Zm.6442213-1.3297596c.0944784-.094534.2186516-.141801.3427691-.141801s.2482907.047267.3427691.141801c.0915868.0915311.1419678.2132576.1419678.3427691,0,.129456-.0503811.2511824-.1419122.3427135-.1889568.189068-.4965259.1890124-.6855939,0-.0915868-.0915311-.1419678-.2132576-.1419678-.3427135,0-.1295116.0503811-.251238.1419678-.3427691Zm-12.0104321-5.1379223h-.9110852v2.888069h.9110852v-2.888069Zm14.985528-6.0054107H3.3666278c-.7535471,0-1.3666278.6130807-1.3666278,1.3666278v12.4795431c0,.7535471.6130807,1.3666278,1.3666278,1.3666278h16.3556591v-.9110852H3.3666278c-.2511824,0-.4555426-.2043602-.4555426-.4555426v-9.3016441h18.1778296v10.5885297c.5299117-.1882061.9110852-.69324.9110852-1.2868856V5.7602284c0-.7535471-.6130807-1.3666278-1.3666278-1.3666278Zm.4555426,3.6334417H2.9110852v-2.2668138c0-.2511824.2043602-.4555426.4555426-.4555426h17.2667443c.2511824,0,.4555426.2043602.4555426.4555426v2.2668138Zm-15.4444974-.9010201h.9099453v-.9099453h-.9099453v.9099453Zm-1.8198905,0h.9099453v-.9099453h-.9099453v.9099453Zm15.4555079,0h.9099453v-.9099453h-.9099453v.9099453Zm-4.1994222,3.7299776c-.5442933-.5441821-1.4297988-.5441821-1.9739809,0-.5442377.5442933-.5442377,1.4297988,0,1.9740921.2721467.2720911.6295408.4081088.9869905.4081088.3573941,0,.7148994-.1360733.9869905-.4081088l.0000556-.0000556c.5441821-.5442377.5441821-1.4297432-.0000556-1.9740365Zm-.6442213,1.3298152c-.1889568.189068-.4965259.1889568-.6854826,0-.1890124-.1890124-.1890124-.4965259,0-.6855382.0944784-.094534.2185959-.1417454.3427135-.1417454s.2482907.0472114.3427691.1416898c.1890124.1890124.1890124.4965815,0,.6855939Zm-9.424427,4.6808783c.2721467.2720911.6295408.4081088.9869905.4081088s.7148994-.1360177.9869348-.4081088c.2636942-.2636386.4088873-.6141373.4088873-.9869905,0-.3729088-.1451931-.7234074-.4088317-.9869905-.2636386-.2636942-.6141373-.4088873-.9869905-.4088873s-.7233518.1451931-.9870461.4088317c-.5442377.5442377-.5442377,1.4297988.0000556,1.9740365Zm.6442213-1.3297596c.0915311-.0915868.2133132-.1420234.3427691-.1420234s.2511824.0504367.3427691.1420234c.0915311.0915311.1419678.2132576.1419678.3427691,0,.129456-.0504367.2511824-.1419678.3427135h-.0000556c-.1890124.1891236-.4965815.1890124-.6854826,0-.0915868-.0915311-.1419678-.2132576-.1419678-.3427135,0-.1295116.0503811-.251238.1419678-.3427691Zm2.8877353,1.7868036h.9110852v-2.8881246h-.9110852v2.8881246Zm3.0381556-6.9247259h-.9110852v2.888069h.9110852v-2.888069Zm-.5690946,6.4676819c.2721467.2720911.6295964.4081644.9869905.4081644.3574497,0,.7148994-.1360733.9870461-.4081644.5442377-.5442377.5442377-1.4297988,0-1.9739809-.2636386-.2636942-.6141373-.4088873-.9869905-.4088873-.3729088,0-.7234074.1451931-.9869905.4088317-.2636942.2636386-.4088873.6141373-.4088873.9870461,0,.3728532.1451931.7233518.4088317.9869905Zm.6442769-1.3298152c.0915311-.0915311.2132576-.1419678.3427691-.1419678.129456,0,.2511824.0504367.3427135.1420234.0915868.0915311.1419678.2132576.1419678.3427691,0,.129456-.0503811.2511824-.1419678.3427135-.0915311.0915868-.2132576.1419678-.3427135.1419678-.1295116,0-.251238-.0503811-.3428247-.1419678-.0915311-.0915311-.1419678-.2132576-.1419678-.3427135,0-.1295116.0504367-.251238.1420234-.3428247Zm2.8877353,1.7868592h.9110852v-2.8881246h-.9110852v2.8881246Zm3.4560514-4.0855366c.3574497,0,.7148994-.1360177.9869905-.4081088l.0000556-.0000556c.5441821-.5442377.5441821-1.4297432-.0000556-1.9740365-.5441821-.5441821-1.4297432-.5441265-1.9740365.0000556-.5441821.5442377-.5441821,1.4297432.0000556,1.9740365.2720911.2720911.6295408.4081088.9869905.4081088Zm-.3428247-1.737924c.094534-.094534.2187072-.1417454.3428247-.1417454.1241732,0,.2482907.0472114.3427691.1416898.1890124.1890124.1890124.4965815,0,.6855939-.1890124.1891236-.4966371.1889568-.6855382.0000556-.1890124-.1890124-.1890124-.4966371-.0000556-.6855939Zm-8.5118404-.6442769c-.5442933-.5441821-1.4297988-.5441821-1.9739809,0-.5442377.5442933-.5442377,1.4297988,0,1.9740921.2721467.2720911.6295408.4081088.9869905.4081088.3573941,0,.7148994-.1360733.9869905-.4081088l.0000556-.0000556c.5441821-.5442377.5441821-1.4297432-.0000556-1.9740365Zm-.6442213,1.3298152c-.1889568.189068-.4965259.1889568-.6854826,0-.1890124-.1890124-.1890124-.4965259,0-.6855382.0944784-.094534.2185959-.1417454.3427135-.1417454s.2482907.0472114.3427691.1416898c.1890124.1890124.1890124.4965815,0,.6855939Z"/></svg>