<?xml version="1.0" encoding="UTF-8"?><svg id="Layer_1" xmlns="http://www.w3.org/2000/svg" width="24" height="24" viewBox="0 0 24 24"><path d="m21.8674135,12.5639702c.2349791-.4693719.1578487-1.0564117-.2331883-1.4475252l-2.2292678-2.2292168c-1.9778213-1.9778723-4.6075069-3.0671168-7.4046195-3.0671168-2.7971636,0-5.4268492,1.0892445-7.4047215,3.0671168l-2.2292678,2.2292678c-.4884649.4885668-.4884649,1.2834375,0,1.7719533l2.2292678,2.2292678c2.0414986,2.0414477,4.7230846,3.0621715,7.4046705,3.0621715,2.6816369,0,5.3632228-1.0207238,7.4046705-3.0621715l1.5949925-1.5949925-.5906341-.5906341-1.5949415,1.5949415c-3.757422,3.7572691-9.8708547,3.75732-13.6280728,0l-2.2292678-2.2292678c-.1628386-.1628386-.1628386-.4277955,0-.5906341l2.2292678-2.2292168c1.8200809-1.8201319,4.2400239-2.822502,6.8140364-2.822502,2.5739615,0,4.9939554,1.0023701,6.8140364,2.822502l3.0530392,3.0860569Zm-13.1809803-.5639702c0,1.8271166,1.4864504,3.313567,3.313567,3.313567s3.313567-1.4864504,3.313567-3.313567-1.4864504-3.313567-3.313567-3.313567-3.313567,1.4864504-3.313567,3.313567Zm5.7918341,0c0,1.3665392-1.1117279,2.4782671-2.4782671,2.4782671s-2.4782671-1.1117279-2.4782671-2.4782671,1.1117279-2.4782671,2.4782671-2.4782671,2.4782671,1.1117279,2.4782671,2.4782671Z"/></svg>