<?xml version="1.0" encoding="UTF-8"?><svg id="Layer_1" xmlns="http://www.w3.org/2000/svg" width="24" height="24" viewBox="0 0 24 24"><path d="m14.2565918,10.710083c1.4251709-.7949219,2.3916626-2.3173218,2.3916626-4.0618286,0-2.5630493-2.0852051-4.6482544-4.6481934-4.6482544-2.5631104,0-4.6483154,2.0852051-4.6483154,4.6482544,0,1.7445068.9664917,3.2668457,2.3917236,4.0618286-3.2016602.9700928-5.5394287,3.9475098-5.5394287,7.461731v1.3054199c0,.7331543.5964355,1.3295898,1.3295288,1.3295898h3.4683228c-.0227661-.1495972-.034668-.3027344-.034668-.4586182,0-.1570435.0120239-.3113403.0351562-.4620361h-3.468811c-.2254639,0-.4088745-.1834106-.4088745-.4089355v-1.3054199c0-2.725647,1.5942993-5.0858765,3.899292-6.1972046v1.9232788c0,1.484375,1.0925293,2.7182617,2.515686,2.9401855v1.9249878c-.6872559.1999512-1.1914062.8342285-1.1914062,1.585144,0,.9108276.7409668,1.6517944,1.6517334,1.6517944s1.6517334-.7409668,1.6517334-1.6517944c0-.7509155-.5041504-1.3851929-1.1914062-1.585144v-1.9249878c1.4231567-.2219238,2.515686-1.4558105,2.515686-2.9401855v-1.9232788c2.3049927,1.1113281,3.899292,3.4715576,3.899292,6.1972046v1.3054199c0,.2255249-.1834106.4089355-.4089966.4089355h-3.468689c.0231323.1506958.0351562.3049927.0351562.4620361,0,.1558838-.0119019.309021-.034668.4586182h3.4682007c.7332153,0,1.3296509-.5964355,1.3296509-1.3295898v-1.3054199c0-3.5142212-2.3377075-6.4916382-5.5393677-7.461731Zm-1.5255127,9.6381226c0,.4031372-.3279419.7310791-.7310791.7310791s-.7310791-.3279419-.7310791-.7310791.3279419-.7310791.7310791-.7310791.7310791.3279419.7310791.7310791Zm1.3242798-6.4503174c0,1.1333008-.9220581,2.0552368-2.0553589,2.0552368s-2.0553589-.921936-2.0553589-2.0552368v-2.2873535c.649353-.2037964,1.3396606-.3140259,2.0553589-.3140259s1.4060059.1102295,2.0553589.3140259v2.2873535Zm-2.0552979-3.5220947c-2.055481,0-3.7276611-1.6721191-3.7276611-3.7275391,0-2.0553589,1.6721802-3.7276001,3.7276611-3.7276001,2.0553589,0,3.7275391,1.6722412,3.7275391,3.7276001,0,2.0554199-1.6721802,3.7275391-3.7275391,3.7275391Z"/></svg>