<?xml version="1.0" encoding="UTF-8"?><svg id="Layer_1" xmlns="http://www.w3.org/2000/svg" width="24" height="24" viewBox="0 0 24 24"><path d="m11.4875404,12.3402061c-.2162705.2201754-.4582078.4148022-.7208508.5795655.7234077.6000837,1.1850063,1.5053404,1.1850063,2.5164881v.6487421h-6.5378373v-.6487421c0-1.8024814,1.4664095-3.2688908,3.2688908-3.2688908h.0000556c1.4234694-.0000278,2.5815166-1.1580958,2.5815166-2.5815722,0-1.4234417-1.158075-2.5815166-2.5815722-2.5815166-1.4234417,0-2.5815166,1.158075-2.5815166,2.5815166,0,.8064738.3719247,1.5274983.9530189,2.0012632-1.4978989.6361241-2.5511112,2.1219539-2.5511112,3.8491998v.6627497c0,.4944359.402219.8967104.8966548.8967104h6.5659081c.4944359,0,.8967104-.4022746.8967104-.8967104v-.6627497c0-1.2262718-.5309279-2.3308037-1.3748735-3.0960537Zm-4.4755895-2.7544093c0-.9212794.7495192-1.6707985,1.6707985-1.6707985.9213349,0,1.6708541.7495192,1.6708541,1.6707985,0,.9213349-.7495192,1.6708541-1.6708541,1.6708541-.9212794,0-1.6707985-.7495192-1.6707985-1.6708541Zm6.8555658,3.6290869h5.4389056v-.9107181h-5.4389056v.9107181Zm6.7664062-8.467221H3.3660771c-.7532434,0-1.3660771.6128337-1.3660771,1.3660771v11.7725206c0,.7532434.6128337,1.3660771,1.3660771,1.3660771h17.2678458c.7532434,0,1.3660771-.6128337,1.3660771-1.3660771V6.1137397c0-.7532434-.6128337-1.3660771-1.3660771-1.3660771Zm.455359,13.1385977c0,.2510811-.2042779.455359-.455359.455359H3.3660771c-.2510811,0-.455359-.2042779-.455359-.455359V6.1137397c0-.2510811.2042779-.455359.455359-.455359h17.2678458c.2510811,0,.455359.2042779.455359.455359v11.7725206Zm-7.2217652-7.1133173h5.4389056v-.9107181h-5.4389056v.9107181Zm0-2.4419406h5.4389056v-.9107181h-5.4389056v.9107181Z"/></svg>