<?xml version="1.0" encoding="UTF-8"?>
<svg id="Layer_1" data-name="Layer 1" xmlns="http://www.w3.org/2000/svg" viewBox="0 0 24 24">
  <path d="m12,19.020752c3.8776855-.0004272,7.0203857-3.1430664,7.020752-7.020752-.0004883-2.8262939-1.6740112-5.2573853-4.0792847-6.3691406-.288208-.1333618-.6299438-.0078125-.7633057.2803955s-.0078125.6299438.2803955.7633057c2.0136719.9326782,3.4126587,2.9627686,3.4121704,5.3254395-.0003052,1.6229858-.656189,3.0870361-1.7194824,4.1512451-1.064209,1.0632935-2.5282593,1.7191772-4.1512451,1.7194824-1.6229858-.0003052-3.0870361-.656189-4.1512451-1.7194824-1.0632935-1.064209-1.7192383-2.5282593-1.7194824-4.1512451-.0004883-2.3626709,1.3984985-4.3927612,3.4121704-5.3254395.288208-.1333618.4137573-.4750977.2803955-.7633057s-.4750977-.4137573-.7633057-.2803955c-2.4052734,1.1117554-4.0787964,3.5428467-4.0792847,6.3691406.0003662,3.8776855,3.1430664,7.0203247,7.020752,7.020752ZM2.4229736,9.0697632c.2597046.0938721.5463867-.0405273.6402588-.3002319.3253784-.9000244.78302-1.7370605,1.3496704-2.4876709.1663818-.2203979.1225586-.5338745-.0978394-.7002563-.2203369-.1663818-.5338745-.1226196-.7002563.0977783-.6260376.8292236-1.1320801,1.7545776-1.4920044,2.7501221-.0938721.2597046.0405273.5463257.3001709.6402588ZM7.2282715,3.7835083h-.000061c.8088989-.4708862,1.6932373-.8255005,2.6307373-1.0413818.269104-.0619507.4370117-.3303223.375061-.5994263s-.3303223-.4370117-.5994263-.375061c-1.0369873.2387695-2.0153809.6311646-2.9094849,1.1516113-.2386475.138916-.319519.4450684-.180542.6837158s.4450684.319458.6837158.180542Zm4.7717285,4.9263306c.3175659,0,.5750122-.2574463.5750122-.5750122V3.8999634c0-.3175659-.2574463-.5750122-.5750122-.5750122s-.5750122.2574463-.5750122.5750122v4.2348633c0,.3175659.2574463.5750122.5750122.5750122Zm1.6213379-6.0721436h.000061c.9508667.1635132,1.8530884.4682007,2.6849976.8920288.2460327.1253052.5471191.0274658.6724854-.2186279.1253052-.2460327.0274048-.5471191-.2186279-.6724243-.9196167-.4685669-1.9180298-.8057861-2.9694824-.9865112-.2721558-.0467529-.5307007.1359253-.5775146.4080811-.0467529.2721558.1359253.5307007.4080811.5774536Zm-6.3600464,17.5979614h-.000061c-.8242188-.4753418-1.5707397-1.071106-2.21521-1.7631836-.1881714-.2020874-.5045776-.2133789-.706665-.0252075-.2020264.1881714-.2133179.5045776-.0251465.706665.711853.7644653,1.5363159,1.4225464,2.4474487,1.947998.2391968.1379395.5449829.0559082.6829224-.1833496.1380005-.2391968.0559082-.5449829-.1832886-.6829224Zm15.2386475-8.2783203c-.0010986-.276123-.2258301-.4990845-.5020142-.4979858-.276123.0010986-.4990845.2258301-.4979858.5019531l.000061.0386963c0,.9752197-.1466675,1.9145508-.4189453,2.7990112-.0812378.2639771.0668945.5437622.3308105.625s.5437622-.0668335.625-.3308105c.3011475-.9782104.4631348-2.0175781.4631348-3.0932007l-.000061-.0426636Zm-1.1013184-3.4174194c.2539673-.1083374.3720703-.4020386.2637329-.6560669-.4143066-.9714355-.9707031-1.8674316-1.6428833-2.6619263-.1783447-.2108154-.4938354-.2371216-.7046509-.0587769s-.2371216.4938354-.0587769.7046509c.6085205.7192993,1.1118774,1.5300293,1.4865112,2.4083862.1083374.2540283.4020996.3720703.6560669.2637329Zm-2.1179199,9.5629883c-.6087036.7254028-1.3239136,1.3585815-2.1212158,1.8753052-.2317505.1502075-.2977905.4598389-.147644.6915894.1502075.2316895.4598389.2977905.6915894.147583.8810425-.5710449,1.6708374-1.2703247,2.3432617-2.0716553.1774902-.2114868.1499634-.5268555-.0615845-.7044067-.2115479-.1774902-.5269165-.1499023-.7044067.0615845Zm-5.62146,3.2527466h-.000061c-.5384521.0948486-1.0927734.1443481-1.6591797.1443481-.3968506,0-.7877197-.024292-1.1713867-.0714722-.2740479-.0336914-.5235596.1611328-.557251.4352417-.0337524.2740479.1611328.5235596.4351807.557251.4240723.0521851.8557739.0789795,1.293457.0789795.6246948,0,1.2372437-.0546265,1.8325806-.1594849.2719727-.0478516.4536133-.3071289.4057617-.5791016s-.3071289-.4536133-.5791016-.4057617ZM2.5125732,12.4932251c-.0140991-.2757568-.2490845-.487915-.5248413-.4738159s-.487915.2490845-.4738159.5248413c.0546875,1.0715332.2703247,2.1018066.62323,3.0656738.0949707.2592773.3821411.3925781.6414185.2976074.2593384-.0949097.3926392-.3821411.2976685-.6414185-.3190308-.87146-.5140381-1.8023682-.5636597-2.7728882Z"/>
</svg>