<?xml version="1.0" encoding="UTF-8"?><svg id="Layer_1" xmlns="http://www.w3.org/2000/svg" width="24" height="24" viewBox="0 0 24 24"><path d="m21.932418,9.6410705c-.1807696-.5562763-.6755669-.9157661-1.2604794-.9157661h-5.6618299l-1.7496142-5.3846894v-.0000539c-.1807696-.5563302-.6755669-.91582-1.2605333-.9157661-.5849664,0-1.0797098.3594898-1.2604255.91582l-1.7496142,5.3846894H3.3280916c-.5849664,0-1.0797638.3594898-1.2605333.91582-.1807156.5563302.0082511,1.137953.4815308,1.4817495l4.5805022,3.3279503-1.7496142,5.3846894c-.1807696.5563302.0081972,1.1380069.481423,1.4818035.2366938.1719792.5077942.2579418.7790564.2578878.2711543,0,.5424165-.0859626.7790025-.2578878l4.5805561-3.3278964,4.5805022,3.3278964c.0774419.0562815.1588475.1023974.2424911.1402555l-.4486073-1.3821025-4.1147186-2.9895197c-.1547758-.1124956-.3645591-.1124956-.519335,0l-4.8402236,3.5165935c-.241116.175107-.4584493.0441677-.519335,0-.0609396-.0442756-.2525489-.2107001-.1604923-.4939884l1.8487894-5.6899808c.05916-.1820099-.0056625-.3813849-.1604923-.4938806l-4.8401697-3.5166474c-.2409542-.1750531-.1837896-.422317-.1604923-.4938806.0232433-.0716175.1223107-.3052913.4201598-.3052913h5.9828145c.1913935,0,.3609998-.1232275.4201598-.3052913l1.8487894-5.6899808c.0920026-.2832344.3448212-.3052374.4201059-.3052374.0753386,0,.3281572.022003.4202137.3052913v-.0000539l1.8487894,5.6899808c.05916.1820639.2287663.3052913.4201598.3052913h5.9828145c.2977952,0,.3968625.2336738.4201598.3052374.0232433.0716175.0804619.3188814-.1604923.4939884l-4.8401697,3.5165935c-.152403.110716-.2169558.3055475-.1625686.485198l2.2355133,6.8871342c.4537305-.3460818.633017-.9156582.455672-1.4614588l-1.7496142-5.3847434,4.5805022-3.3279503c.4732258-.3437965.6622465-.9254733.4814769-1.4818035Z"/></svg>