<?xml version="1.0" encoding="UTF-8"?><svg id="Layer_1" xmlns="http://www.w3.org/2000/svg" width="24" height="24" viewBox="0 0 24 24"><path d="m14.3996725,11.2627114c1.5156015-.8453772,2.5434521-2.4643464,2.5434521-4.3195271,0-2.7256565-2.2175278-4.9431844-4.9431246-4.9431844-2.7257163,0-4.9432441,2.2175278-4.9432441,4.9431844s2.2175278,4.9431844,4.9432441,4.9431844c4.0315646,0,7.3114835,3.279919,7.3114835,7.3114238v1.3882556c0,.2398119-.1950526.4348645-.4349242.4348645H5.1233212c-.2397521,0-.4348047-.1950526-.4348047-.4348645v-1.3882556c0-2.9330792,1.7369479-5.4667906,4.2355212-6.6305624-.3292409-.1808001-.6403449-.3903442-.9313402-.6240308-2.5516092,1.4150873-4.2832684,4.1359332-4.2832684,7.2545932v1.3882556c0,.7796725.6342794,1.4139519,1.4138921,1.4139519h13.7532382c.7797322,0,1.4140116-.6342794,1.4140116-1.4139519v-1.3882556c0-3.7371631-2.4860837-6.9034209-5.8908984-7.9350811Zm-6.3638292-4.3195271c0-2.1857959,1.778301-3.9640969,3.9641567-3.9640969,2.1857362,0,3.9640372,1.778301,3.9640372,3.9640969s-1.778301,3.9640969-3.9640372,3.9640969c-2.1858557,0-3.9641567-1.778301-3.9641567-3.9640969Z"/></svg>