<?xml version="1.0" encoding="UTF-8"?><svg id="Layer_1" xmlns="http://www.w3.org/2000/svg" width="24" height="24" viewBox="0 0 24 24"><path d="m5.3797234,19.5822507c-.2388038,0-.432997-.1942461-.432997-.432997v-8.7417809l-.865994.6897454v8.0520355c0,.7162527.5826854,1.298991,1.298991,1.298991h7.5412145c-.1855513-.2724004-.3467623-.5623689-.4829196-.865994h-7.058295Z"/><path d="m19.9192676,13.6491625v-4.2119027l1.5411775,1.2274833.5395548-.6774035-2.0807324-1.6572098v-.0042681h-.0053649l-7.104729-5.6586132c-.476339-.3794009-1.1421141-.3794538-1.6184531.0000529l-3.9480319,3.1444477v-1.8190287c0-.2391209-.1938761-.432997-.432997-.432997h-2.2959623c-.2391209,0-.432997.1938761-.432997.432997v4.3374028l-2.0807324,1.6572164.5395548.6774035L11.7302754,3.3447049c.1587797-.1265375.3806695-.1264317.5394491,0l6.7835491,5.4028228v4.4696553c-.4612486-.1679436-.95873-.2598074-1.4773274-.2598074-2.3875091,0-4.3299699,1.942408-4.3299699,4.3299699s1.9424609,4.3299699,4.3299699,4.3299699,4.3299699-1.942408,4.3299699-4.3299699c0-1.5244618-.7926297-2.8664314-1.9866486-3.638183ZM4.9467264,4.4257174h1.4299683v2.0757639l-1.4299683,1.1389097v-3.2146736Zm12.6292199,16.325604c-1.9100072,0-3.4639759-1.5539158-3.4639759-3.4639759s1.5539687-3.4639759,3.4639759-3.4639759,3.4639759,1.5539158,3.4639759,3.4639759-1.5539687,3.4639759-3.4639759,3.4639759Z"/><rect x="17.1429493" y="15.068923" width=".865994" height="2.8264259"/><rect x="17.1717294" y="18.7259954" width=".808513" height=".808513"/></svg>