<?xml version="1.0" encoding="UTF-8"?><svg id="Layer_1" xmlns="http://www.w3.org/2000/svg" width="24" height="24" viewBox="0 0 24 24"><path d="m20.633376,4.7353056H3.366624c-.7536006,0-1.366624.613079-1.366624,1.366624v11.7961408c0,.753545.6130234,1.366624,1.366624,1.366624h16.3556692v-.9110827h-2.4831229v-2.4935217h3.849747v3.3248624c.5299449-.1882055.9110827-.6932381.9110827-1.2868821V6.1019296c0-.753545-.6130234-1.366624-1.366624-1.366624Zm-13.9209253,13.6183062h-3.3458266c-.2512373,0-.4555413-.2043597-.4555413-.4555413v-2.0379803h3.801368v2.4935217Zm0-3.4046043h-3.801368v-2.4934661h3.801368v2.4934661Zm0-3.4045487h-3.801368v-2.4935217h3.801368v2.4935217Zm0-3.4046043h-3.801368v-2.0379247c0-.2511817.2043041-.4555413.4555413-.4555413h3.3458266v2.4934661Zm4.8078741,10.2137574h-3.8967914v-2.4935217h3.8967914v2.4935217Zm0-3.4046043h-3.8967914v-2.4934661h3.8967914v2.4934661Zm0-3.4045487h-3.8967914v-2.4935217h3.8967914v2.4935217Zm0-3.4046043h-3.8967914v-2.4934661h3.8967914v2.4934661Zm4.8077629,10.2137574h-3.8966802v-2.4935217h3.8966802v2.4935217Zm0-3.4046043h-3.8966802v-2.4934661h3.8966802v2.4934661Zm0-3.4045487h-3.8966802v-2.4935217h3.8966802v2.4935217Zm0-3.4046043h-3.8966802v-2.4934661h3.8966802v2.4934661Zm4.7608297,6.8091531h-3.849747v-2.4934661h3.849747v2.4934661Zm0-3.4045487h-3.849747v-2.4935217h3.849747v2.4935217Zm0-3.4046043h-3.849747v-2.4934661h3.3942056c.2512373,0,.4555413.2043597.4555413.4555413v2.0379247Z"/></svg>