<?xml version="1.0" encoding="UTF-8"?><svg id="Layer_1" xmlns="http://www.w3.org/2000/svg" width="24" height="24" viewBox="0 0 24 24"><path d="m20.5775349,7.3208447h-2.0367482v-3.5933797c0-.7843353-.6381298-1.4224651-1.4224651-1.4224651H6.8816783c-.7843353,0-1.4224651.6381298-1.4224651,1.4224651v3.5933797h-2.0367482c-.7843353,0-1.4224651.6381298-1.4224651,1.4224651v11.5292252c0,.7843353.6381298,1.4224651,1.4224651,1.4224651h17.1550699c.7843353,0,1.4224651-.6381298,1.4224651-1.4224651v-11.5292252c0-.7843353-.6381298-1.4224651-1.4224651-1.4224651Zm-15.1183217,13.4258453h-2.0367482c-.2614451,0-.474155-.2127099-.474155-.474155v-11.5292252c0-.2614451.2127099-.474155.474155-.474155h2.0367482v12.4775352Zm7.5811553,0h-2.0806793v-2.0755279h2.0806793v2.0755279Zm8.0113214-.474155c0,.2614451-.2127099.474155-.474155.474155h-6.5888563v-2.549683c0-.2618503-.2123048-.474155-.474155-.474155h-3.0289893c-.2618503,0-.474155.2123048-.474155.474155v2.549683h-3.603856V3.727465c0-.2614451.2127099-.474155.474155-.474155h10.2366434c.2614451,0,.474155.2127099.474155.474155v15.5984963h.94831v-11.0568066h2.0367482c.2614451,0,.474155.2127099.474155.474155v11.5292252Zm-12.4277582-4.527046h6.7521365v-.94831h-6.7521365v.94831Zm2.9019422-5.8004694h.94831v-1.7246579h1.7246v-.94831h-1.7246v-1.7246579h-.94831v1.7246579h-1.7246579v.94831h1.7246579v1.7246579Zm-2.9019422,2.8816841h6.7521365v-.94831h-6.7521365v.94831Z"/></svg>