<?xml version="1.0" encoding="UTF-8"?><svg id="Layer_1" xmlns="http://www.w3.org/2000/svg" width="24" height="24" viewBox="0 0 24 24"><path d="m12.8592173,9.9520234h4.9768001v-.8333408h-4.9768001v.8333408Zm9.1407827,2.8189338l-.5892997-.5892997-.4608322.460845c-.1949709-.2209619-.4119274-.4221254-.6491274-.5977938v-6.3560797c0-.6892456-.5607655-1.2500111-1.2500111-1.2500111H3.2500111c-.6892456,0-1.2500111.5607655-1.2500111,1.2500111v10.7722923c0,.6892456.5607655,1.2500111,1.2500111,1.2500111h9.6809995c-.1266109-.2665035-.2311727-.5452077-.3133166-.8333408H3.2500111c-.2297485,0-.4166704-.1869218-.4166704-.4166704V5.6886289c0-.2297485.1869218-.4166704.4166704-.4166704h15.8007184c.2297485,0,.4166704.1869218.4166704.4166704v5.8766888c-.5039133-.2167785-1.0586006-.337343-1.6410465-.337343-2.2975363,0-4.1667038,1.8691674-4.1667038,4.1667038s1.8691674,4.1667038,4.1667038,4.1667038,4.1667038-1.8691674,4.1667038-4.1667038c0-.7515847-.2011635-1.4565597-.5508472-2.0659313l.55779-.55779Zm-4.1736466,5.9570843c-1.8380392,0-3.333363-1.4953238-3.333363-3.333363s1.4953238-3.333363,3.333363-3.333363c1.0133452,0,1.921887.4550911,2.5337445,1.1709699l-2.5395174,2.5395429-1.1854659-1.1855167-.5892997.5892997,1.4801157,1.4801157c.0813809.0813301.18799.1220205.2946498.1220205s.2132689-.0406905.2946498-.1220205l2.7117653-2.7117653c.21304.4388403.3327209.931036.3327209,1.4507169,0,1.8380392-1.4953238,3.333363-3.333363,3.333363Zm.009664-11.8438249h-4.9768001v.8333408h4.9768001v-.8333408Zm-13.5455511,7.3349143v.6064405c0,.4524271.3680453.8205233.8204724.8205233h6.0080491c.4524271,0,.8205233-.3680961.8205233-.8205233v-.6064405c0-1.1220905-.4858187-2.1327844-1.2580729-2.8330165-.1978828.2014687-.4192771.3795594-.6596179.5303239.6619576.5490988,1.0843501,1.3774486,1.0843501,2.3026926v.593623h-5.9823632v-.593623c0-1.6493372,1.341819-2.9911562,2.9911562-2.9911562,1.3025527,0,2.3622342-1.0596815,2.3622342-2.3622342s-1.0596815-2.3622342-2.3622342-2.3622342c-1.3025018,0-2.3621833,1.0596815-2.3621833,2.3622342,0,.7379534.3403249,1.3977175.8720476,1.8312299-1.3706329.5820771-2.3343612,1.9416664-2.3343612,3.5221604Zm2.2956544-5.3533903c0-.8430556.6858378-1.5288934,1.5288425-1.5288934.8430556,0,1.5288934.6858378,1.5288934,1.5288934s-.6858378,1.5288934-1.5288934,1.5288934c-.8430047,0-1.5288425-.6858378-1.5288425-1.5288934Z"/></svg>