<?xml version="1.0" encoding="UTF-8"?>
<svg id="Layer_1" data-name="Layer 1" xmlns="http://www.w3.org/2000/svg" viewBox="0 0 24 24">
  <path d="m12,8.7098389c.3175659,0,.5750122-.2574463.5750122-.5750122V3.8999634c0-.3175659-.2574463-.5750122-.5750122-.5750122s-.5750122.2574463-.5750122.5750122v4.2348633c0,.3175659.2574463.5750122.5750122.5750122Zm2.9414673-3.0789795c-.288208-.1333618-.6299438-.0078125-.7633057.2803955s-.0078125.6299438.2803955.7633057c2.0136719.9326782,3.4126587,2.9627686,3.4121704,5.3254395-.0003052,1.6229858-.656189,3.0870361-1.7194824,4.1512451-1.064209,1.0632935-2.5282593,1.7191772-4.1512451,1.7194824-1.6229858-.0003052-3.0870361-.656189-4.1512451-1.7194824-1.0632935-1.064209-1.7192383-2.5282593-1.7194824-4.1512451-.0004883-2.3626709,1.3984985-4.3927612,3.4121704-5.3254395.288208-.1333618.4137573-.4750977.2803955-.7633057s-.4750977-.4137573-.7633057-.2803955c-2.4052734,1.1117554-4.0787964,3.5428467-4.0792847,6.3691406.0003662,3.8776855,3.1430664,7.0203247,7.020752,7.020752,3.8776855-.0004272,7.0203857-3.1430664,7.020752-7.020752-.0004883-2.8262939-1.6740112-5.2573853-4.0792847-6.3691406Z"/>
</svg>