<?xml version="1.0" encoding="UTF-8"?><svg id="Layer_1" xmlns="http://www.w3.org/2000/svg" width="24" height="24" viewBox="0 0 24 24"><path d="m19.181328,13.2943759h.9269223v-2.5887518h-.9269223v2.5887518Zm-14.3845505-.8314947v-.9257625h-.9257625v.9257625h.9257625Zm15.8128391-8.0856345H3.3903834c-.7667023,0-1.3903834.6237377-1.3903834,1.3903834v12.4647397c0,.7666457.6236811,1.3903834,1.3903834,1.3903834h16.2923109v-.9269223H3.3903834c-.2556052,0-.4634611-.2079126-.4634611-.4634611V5.7676301c0-.2555486.207856-.4634611.4634611-.4634611h17.2192332c.2556052,0,.4634611.2079126.4634611.4634611v13.774009c.5391583-.1914776.9269223-.7053045.9269223-1.3092692V5.7676301c0-.7666457-.6236811-1.3903834-1.3903834-1.3903834Z"/></svg>