<?xml version="1.0" encoding="UTF-8"?><svg id="Layer_1" xmlns="http://www.w3.org/2000/svg" width="24" height="24" viewBox="0 0 24 24"><path d="m15,3.0249634c-1.0853882.000061-2.1064453.2735596-3,.7536011-.8935547-.4800415-1.9146118-.75354-3-.7536011-3.5071411.0002441-6.3497925,2.8428955-6.3499756,6.3500366.0001221,2.2788696,1.2043457,4.2713013,3.0071411,5.3915405.0761108,3.44104,2.8834839,6.2081909,6.3428345,6.2084351,3.4593506-.0002441,6.2667236-2.767395,6.3428345-6.2084351,1.8027954-1.1202393,3.007019-3.1126709,3.0071411-5.3915405-.0001831-3.5071411-2.8428345-6.3497925-6.3499756-6.3500366Zm-2.0048218,2.3548584c.9061279.9066772,1.5029907,2.1174927,1.6281738,3.4672852-.800415-.3640747-1.6867065-.5720825-2.6233521-.5721436-.9366455.000061-1.822937.2080688-2.6233521.5721436.1251831-1.3497925.7220459-2.5606079,1.6281738-3.4672852.2994995-.2993164.635376-.5602417.9951782-.7865601.3598022.2263184.6956787.4872437.9951782.7865601Zm1.6419678,4.25c-.0652466,1.4588013-.675415,2.7731323-1.6419678,3.7402954-.2994995.2993164-.635376.5602417-.9951782.7865601-.3598022-.2263184-.6956787-.4872437-.9951782-.7865601-.9665527-.9671631-1.5767212-2.2814941-1.6419678-3.7402954.7872925-.416687,1.6833496-.6547241,2.637146-.6548462.9537964.0001221,1.8498535.2381592,2.637146.6548462Zm-9.6323242,3.7402954c-1.0229492-1.0235596-1.6546631-2.4338379-1.6548462-3.9951172.0001831-1.5613403.631897-2.9716187,1.6548462-3.9951782,1.0235596-1.0230103,2.4338379-1.6546631,3.9951782-1.6548462.8217773.0001221,1.5995483.1790161,2.3032837.4939575-1.5683594,1.1265869-2.6002808,2.9468994-2.6461182,5.0144653-1.6210327,1.0072632-2.7573853,2.7190552-2.9696655,4.711853-.241333-.175293-.4720459-.364563-.6826782-.5751343Zm3-2.7402954c.2106323-.2105103.4413452-.3997803.6826782-.5750732.1964722,1.8443604,1.1847534,3.4483643,2.6157837,4.4762573-.7037354.3149414-1.4815063.4938354-2.3032837.4939575-.9537964-.0001221-1.8498535-.2381592-2.637146-.6548462.0653076-1.4588623.675415-2.7731323,1.6419678-3.7402954Zm7.9903564,7.9902954c-1.0235596,1.0230103-2.4338379,1.6546631-3.9951782,1.6548462-1.5613403-.0001831-2.9716187-.6318359-3.9951782-1.6548462-.906189-.9066772-1.5029907-2.1174927-1.6281738-3.4672852.800415.3640747,1.6867065.5720825,2.6233521.5721436,1.0853882-.000061,2.1064453-.2736206,3-.7536011.8935547.4799805,1.9146118.75354,3,.7536011.9366455-.000061,1.822937-.2080688,2.6233521-.5721436-.1251831,1.3497925-.7219849,2.5606079-1.6281738,3.4672852Zm-.9951782-3.5951538c-.8217773-.0001221-1.5995483-.1790161-2.3032837-.4939575,1.4310303-1.0278931,2.4193115-2.631897,2.6157837-4.4762573.241333.175293.4720459.364563.6826782.5750732.9665527.9671631,1.5766602,2.2814331,1.6419678,3.7402954-.7872925.416687-1.6833496.6547241-2.637146.6548462Zm3.9951782-1.6548462c-.2106323.2105713-.4413452.3998413-.6826782.5751343-.2122803-1.9927979-1.3486328-3.7045898-2.9696655-4.711853-.0458374-2.0675659-1.0777588-3.8878784-2.6461182-5.0144653.7037354-.3149414,1.4815063-.4938354,2.3032837-.4939575,1.5613403.0001831,2.9716187.6318359,3.9951782,1.6548462,1.0229492,1.0235596,1.6546631,2.4338379,1.6548462,3.9951782-.0001831,1.5612793-.631897,2.9715576-1.6548462,3.9951172Z"/></svg>