<?xml version="1.0" encoding="UTF-8"?><svg id="Layer_1" xmlns="http://www.w3.org/2000/svg" width="24" height="24" viewBox="0 0 24 24"><defs><style>.cls-1{fill:#004364;}</style></defs><path class="cls-1" d="m11.5439379,16.5942749h.907446v-.9074391h-.907446v.9074391Zm7.4763143-11.7041813c-1.9024417-1.8757678-4.4177175-2.899413-7.0932584-2.8796156-2.671659.0188547-5.1760656,1.076993-7.0518334,2.9794902-3.8722614,3.9273837-3.8274537,10.2728304.0998746,14.1450918,1.7234189,1.6992266,3.9531218,2.6956156,6.3435335,2.8546331v-.9095186c-2.1482047-.1551356-4.153779-1.0619924-5.7055784-2.5920533-3.5705858-3.5205653-3.6113453-9.289612-.0908909-12.8601978,1.7054653-1.7296992,3.9823397-2.6917338,6.4113273-2.7089249.0220711-.0001109.0439759-.0002218.066047-.0002218,2.4043656,0,4.6689289.9283734,6.3828234,2.6182558,1.7296992,1.7054099,2.6917338,3.9823397,2.7089249,6.4112719.0171356,2.4289876-.9126241,4.7192822-2.618034,6.4489259-1.5594452,1.5816619-3.5972805,2.5188803-5.7917555,2.6812805v.9112932c2.4397875-.1640084,4.7072692-1.1985782,6.4386944-2.9546186,1.8758233-1.9025526,2.8985257-4.4216548,2.8796156-7.0933138-.0188547-2.6716036-1.076993-5.1760101-2.9794902-7.051778Zm-6.5731452,2.3017183h-.9085759v7.3281106h.9085759v-7.3281106Z"/></svg>