<?xml version="1.0" encoding="UTF-8"?><svg id="Layer_1" xmlns="http://www.w3.org/2000/svg" width="24" height="24" viewBox="0 0 24 24"><path d="m3.572308,19.0244004c-.2145868,0-.3891658-.1745791-.3891658-.3891658v-1.2425387c0-2.6252581,1.5546308-4.8930409,3.7909437-5.9346585-.2946824-.1618159-.5731317-.3493654-.8335829-.55853-2.2837819,1.2665607-3.8336792,3.701849-3.8336792,6.4931885v1.2425387c0,.6977814.5677029,1.2654843,1.2654843,1.2654843h8.2247385c-.1234997-.2811972-.2257119-.5737134-.302839-.8763184H3.572308Z"/><path d="m21.6931762,14.6403479l-.6196915-.6196915-.7410518.7410718c-.8041388-.932713-1.992897-1.5249126-3.3181254-1.5249126-.3648028,0-.7190422.0455235-1.0580914.1299314-.9445936-1.4565772-2.3852453-2.5623382-4.08116-3.0763409,1.3564911-.756663,2.2764008-2.2056519,2.2764008-3.8660785,0-2.4395606-1.9847671-4.4243277-4.4243277-4.4243277s-4.4242742,1.9847671-4.4242742,4.4243277,1.9847136,4.4243277,4.4242742,4.4243277h.0000535c2.2277818,0,4.1971984,1.120336,5.3793778,2.8259317-1.4629019.7105111-2.4738452,2.2112278-2.4738452,3.9438207,0,2.4160266,1.9655656,4.3815922,4.3815922,4.3815922s4.3815922-1.9655656,4.3815922-4.3815922c0-.771813-.2013222-1.4971866-.5531279-2.1276623l.8504044-.8503977ZM6.1791735,6.4243277c0-1.9563659,1.5915898-3.5480092,3.5479558-3.5480092s3.5480092,1.5916433,3.5480092,3.5480092-1.5916433,3.5480092-3.5480092,3.5480092-3.5479558-1.5916433-3.5479558-3.5480092Zm14.3404078,11.1940801c0,1.932832-1.5724418,3.5052737-3.5052737,3.5052737s-3.5052737-1.5724418-3.5052737-3.5052737,1.5724418-3.5052737,3.5052737-3.5052737c1.0836578,0,2.0538713.49442,2.6973375,1.2693687l-2.6324587,2.6325055-1.2466036-1.2466571-.6196915.6196915,1.5564494,1.5564494c.085578.0855245.1976851.1283135.3098457.1283135s.2242678-.042789.3098457-.1283135l2.8030797-2.8030864c.2096393.4491908.3274695.9494809.3274695,1.4770023Z"/></svg>