<?xml version="1.0" encoding="UTF-8"?><svg id="Layer_1" xmlns="http://www.w3.org/2000/svg" width="24" height="24" viewBox="0 0 24 24"><path d="m22,16.9870155V6.1019018c0-.753545-.613079-1.366624-1.366624-1.366624H3.366624c-.753545,0-1.366624.613079-1.366624,1.366624v11.7961964c0,.753545.613079,1.366624,1.366624,1.366624h17.2667519c.593644,0,1.0986765-.3811655,1.2868821-.9110827H3.366624c-.2511817,0-.4555413-.2043597-.4555413-.4555413V6.1019018c0-.2511817.2043597-.4555413.4555413-.4555413h17.2667519c.2511817,0,.4555413.2043597.4555413.4555413v10.8851137h.9110827Zm-6.8123506-7.6688817h-.3570594v5.3409887h1.1320136v-3.0389813l3.0085636,3.0541623h.3418784v-5.333426h-1.1395763v3.0162376l-2.9858199-3.0389813Zm-8.3429906,4.421676c-.5166546,0-1.0484346-.2050826-1.0712339-.6913196h-1.0864706c0,1.1623756,1.1016516,1.6865929,2.1652672,1.6865929,1.0484902-.0227993,2.1349052-.4026581,2.1349052-1.6562309,0-1.2459545-.9648557-1.4663293-2.0893066-1.5650893-.5546349-.0607796-1.0180726-.1291219-1.0180726-.6001779,0-.4102764.440694-.6609576.9041317-.6609576.4558194,0,.9040761.1899016.9648557.6229773h1.0636712c0-1.1927932-1.0332536-1.6106879-2.0285269-1.6106879-1.0560529,0-2.0209642.4938553-2.0209642,1.6714675,0,1.101596.972474,1.3903131,1.9373853,1.473892.5090363.0379803,1.1624312.0835789,1.1624312.6685759,0,.5546349-.5470722.6609576-1.0180726.6609576Zm4.9236501,0c-.5166546,0-1.0484346-.2050826-1.0712339-.6913196h-1.0864706c0,1.1623756,1.1016516,1.6865929,2.1652672,1.6865929,1.0484902-.0227993,2.1349052-.4026581,2.1349052-1.6562309,0-1.2459545-.9648557-1.4663293-2.0893066-1.5650893-.5546349-.0607796-1.0180726-.1291219-1.0180726-.6001779,0-.4102764.440694-.6609576.9041317-.6609576.4558194,0,.9040761.1899016.9648557.6229773h1.0636712c0-1.1927932-1.0332536-1.6106879-2.0285269-1.6106879-1.0560529,0-2.0209642.4938553-2.0209642,1.6714675,0,1.101596.972474,1.3903131,1.9373853,1.473892.5090363.0379803,1.1624312.0835789,1.1624312.6685759,0,.5546349-.5470722.6609576-1.0180726.6609576Z"/></svg>