<?xml version="1.0" encoding="UTF-8"?><svg id="Layer_1" xmlns="http://www.w3.org/2000/svg" width="24" height="24" viewBox="0 0 24 24"><path d="m5.3797412,19.5822709c-.238805,0-.4329993-.1942471-.4329993-.4329993v-8.7418271l-.8659986.689749v8.052078c0,.7162565.5826885,1.2989978,1.2989978,1.2989978h7.5412544c-.1855522-.2724018-.3467641-.5623718-.4829221-.8659986h-7.0583323Z"/><path d="m19.9192566,13.6490853v-4.2118787l1.5411857,1.2275096.5395577-.6774071-2.0807434-1.6572384v-.0042483h-.0053385l-7.1046873-5.6586431c-.4763415-.3794029-1.1420145-.3793501-1.6185674.0000529l-3.9479471,3.1444181v-1.8189921c0-.2391222-.1938771-.4329993-.4329993-.4329993h-2.2959745c-.2391222,0-.4329993.1938771-.4329993.4329993v4.3374059l-2.0807434,1.657245.5395577.6774071L11.7301154,3.3446393c.1589919-.126591.3808829-.1263796.5396634,0l6.7834792,5.4028315v4.4696657c-.4612246-.167918-.9586822-.2597758-1.4772295-.2597758-2.3875217,0-4.3299928,1.9424183-4.3299928,4.3299928s1.9424711,4.3299928,4.3299928,4.3299928,4.3299928-1.9424183,4.3299928-4.3299928c0-1.5245161-.7926604-2.8665258-1.9867648-3.6382683ZM4.9467419,4.4256575h1.4299759v2.0757352l-1.4299759,1.138929v-3.2146642Zm12.6292867,16.3256903c-1.9100173,0-3.4639942-1.5539241-3.4639942-3.4639942s1.5539769-3.4639942,3.4639942-3.4639942,3.4639942,1.5539241,3.4639942,3.4639942-1.5539769,3.4639942-3.4639942,3.4639942Z"/><path d="m17.5760286,15.7450051c.3058269,0,.5546746.2488477.5546746.5546746h.8659986c0-.6323669-.4155303-1.1690571-.9876739-1.3526603v-.5573571h-.8659986v.5573571c-.5721436.1836032-.9876739.7202934-.9876739,1.3526603,0,.7833841.637342,1.4206732,1.4206732,1.4206732.3058269,0,.5546746.2488477.5546746.5546746,0,.3058797-.2488477.5547275-.5546746.5547275s-.5546746-.2488477-.5546746-.5547275h-.8659986c0,.6323669.4155303,1.1690901.9876739,1.3527065v.5573108h.8659986v-.5573108c.5721436-.1836164.9876739-.7203397.9876739-1.3527065,0-.7833841-.637342-1.4206732-1.4206732-1.4206732-.3058269,0-.5546746-.2488477-.5546746-.5546746s.2488477-.5546746.5546746-.5546746Z"/></svg>