<?xml version="1.0" encoding="UTF-8"?><svg id="Layer_1" xmlns="http://www.w3.org/2000/svg" width="24" height="24" viewBox="0 0 24 24"><path d="m17.4300888,12.5328521c1.1428797-.7015169,1.9069409-1.9626693,1.9069409-3.3991402,0-2.1977422-1.7880129-3.9857551-3.9858092-3.9857551-1.0690682,0-2.040419.4239012-2.7569387,1.1114218-.2736032-1.9330015-1.9382231-3.4247956-3.9455023-3.4247956-2.1977422,0-3.9857551,1.7880129-3.9857551,3.9858092,0,1.4523721.7811917,2.7253322,1.9451402,3.4220396-2.6706845.863447-4.6081646,3.3727013-4.6081646,6.3270539v1.3373215c0,.7322925.5957881,1.3280807,1.3280807,1.3280807h5.6852915l-1.2636518,1.2636113.6261044.6261044,2.019357-2.019357c.1728731-.1729272.1728731-.4531773,0-.6261044l-2.019357-2.019357-.6261044.6261044,1.2636518,1.2636113H3.3280807c-.2440975,0-.4426936-.198596-.4426936-.4426936v-1.3373215c0-3.177915,2.5854233-5.7633384,5.7633924-5.7633384,1.0690682,0,2.040419-.4238877,2.7569387-1.1114218.1700833,1.2015871.8773014,2.2326384,1.8708423,2.8408151-1.6092089.5082708-2.9931734,1.631041-3.8060933,3.1496928l.6583864.6583797c.0007363-.0015536.0013375-.0031478.0020738-.0047015.9299159-1.9557523,2.9293322-3.2194176,5.0936779-3.2194176h.2532843c3.1080957,0,5.6367232,2.5286276,5.6367232,5.6367773v1.081065c0,.2440975-.198596.4426936-.4426936.4426936h-9.5732482l-.8853871.8853871h10.4586353c.7322925,0,1.3280807-.5957881,1.3280807-1.3280807v-1.081065c0-2.9165113-1.9243619-5.3917206-4.5699112-6.2234192Zm-8.7813093-2.6120919c-1.7095472,0-3.100368-1.3908208-3.100368-3.100368,0-1.7096012,1.3908208-3.1004221,3.100368-3.1004221s3.100368,1.3908208,3.100368,3.1004221c0,1.7095472-1.3908208,3.100368-3.100368,3.100368Zm6.702441,2.3133197c-1.7095472,0-3.100368-1.3908208-3.100368-3.100368s1.3908208-3.100368,3.100368-3.100368c1.7096012,0,3.1004221,1.3908208,3.1004221,3.100368s-1.3908208,3.100368-3.1004221,3.100368Z"/></svg>