<?xml version="1.0" encoding="UTF-8"?><svg id="Layer_1" xmlns="http://www.w3.org/2000/svg" width="24" height="24" viewBox="0 0 24 24"><path d="m15.3738983,7.3037416h3.4799839c.1844518,0,.3506477-.1110941.4212225-.2814644s.031614-.3665104-.0988493-.4969179l-4.3918906-4.3918349c-.0854913-.0854913-.2014833-.1335244-.3223733-.1335244H6.0580231c-.7542822,0-1.3678601.6136335-1.3678601,1.3678601v17.2642799c0,.7542266.6135779,1.3678601,1.3678601,1.3678601h11.8189433c.7542822,0,1.3678601-.6136335,1.3678601-1.3678601v-11.9563638h-.9119067v11.9563638c0,.2514089-.2044888.4559534-.4559534.4559534H6.0580231c-.2514645,0-.4559534-.2045445-.4559534-.4559534V3.3678601c0-.2514089.2044888-.4559534.4559534-.4559534h7.9480151v3.0239748c0,.7542266.6135779,1.3678601,1.3678601,1.3678601Zm0-.9119067c-.2514645,0-.4559534-.2045445-.4559534-.4559534v-2.3791309l1.4518486,1.4518068,1.3832774,1.3832774h-2.3791726Z"/></svg>