<?xml version="1.0" encoding="UTF-8"?><svg id="Layer_1" xmlns="http://www.w3.org/2000/svg" width="24" height="24" viewBox="0 0 24 24"><path d="m10.8146648,18.6820797h5.8389022v-.9067388h-5.8389022v.9067388Zm8.4214255,1.0510732V3.3601083c0-.7499523-.6101006-1.3601083-1.3601083-1.3601083H6.124018c-.7500076,0-1.3601083.610156-1.3601083,1.3601083v17.2797835c0,.7499523.6101006,1.3601083,1.3601083,1.3601083h11.751964c.5908551,0,1.0934521-.3793482,1.2807603-.9067388H6.124018c-.2500394,0-.4533694-.2033853-.4533694-.4533694V3.3601083c0-.2499841.20333-.4533694.4533694-.4533694h11.751964c.2500394,0,.4533694.2033853.4533694.4533694v16.3730447h.9067388Zm-2.5825233-6.0795333h-5.8389022v.9067388h5.8389022v-.9067388Zm0-4.1216659h-5.8389022v.9067388h5.8389022v-.9067388Zm-8.2047025,3.1858721c-.7660571,0-1.3892186.6231616-1.3892186,1.3891633s.6231616,1.3891633,1.3892186,1.3891633,1.3892186-.6231616,1.3892186-1.3891633-.6231616-1.3891633-1.3892186-1.3891633Zm0,1.8715878c-.2660889,0-.4824798-.2163909-.4824798-.4824245s.2163909-.4824245.4824798-.4824245.4824798.2163909.4824798.4824245-.2163909.4824245-.4824798.4824245Zm8.2047025-9.1791811h-5.8389022v.9067388h5.8389022v-.9067388Zm-8.2047025-.9357939c-.7660571,0-1.3892186.6231616-1.3892186,1.3891633s.6231616,1.3891633,1.3892186,1.3891633,1.3892186-.6231616,1.3892186-1.3891633-.6231616-1.3891633-1.3892186-1.3891633Zm0,1.8715878c-.2660889,0-.4824798-.2163909-.4824798-.4824245s.2163909-.4824245.4824798-.4824245.4824798.2163909.4824798.4824245-.2163909.4824245-.4824798.4824245Zm0,2.2500782c-.7660571,0-1.3892186.6232169-1.3892186,1.3892186s.6231616,1.3891633,1.3892186,1.3891633,1.3892186-.6231616,1.3892186-1.3891633-.6231616-1.3892186-1.3892186-1.3892186Zm0,1.8716431c-.2660889,0-.4824798-.2163909-.4824798-.4824245s.2163909-.4824798.4824798-.4824798.4824798.2164463.4824798.4824798-.2163909.4824245-.4824798.4824245Zm0,6.3717994c-.7660571,0-1.3892186.6231616-1.3892186,1.3891633s.6231616,1.3891633,1.3892186,1.3891633,1.3892186-.6231616,1.3892186-1.3891633-.6231616-1.3891633-1.3892186-1.3891633Zm0,1.8715878c-.2660889,0-.4824798-.2163909-.4824798-.4824245s.2163909-.4824245.4824798-.4824245.4824798.2163909.4824798.4824245-.2163909.4824245-.4824798.4824245Z"/></svg>