<?xml version="1.0" encoding="UTF-8"?><svg id="Layer_1" xmlns="http://www.w3.org/2000/svg" width="24" height="24" viewBox="0 0 24 24"><path d="m21.4604452,10.6807057l.5395548-.6774035-2.0807324-1.6572098v-.0042681h-.0053649l-7.104729-5.6586132c-.476339-.3794009-1.1421141-.3794538-1.6184531.0000529l-3.9480319,3.1444477v-1.8190287c0-.2391209-.1938761-.432997-.432997-.432997h-2.2959623c-.2391209,0-.432997.1938761-.432997.432997v4.3374028l-2.0807324,1.6572164.5395548.6774035L11.7302754,3.3606674c.1587797-.1265375.3806695-.1264317.5394491,0l6.7835491,5.4028228v6.9970546h-.9193786v-1.4757946c0-.2391209-.1938761-.432997-.432997-.432997h-2.2937424c-.2391209,0-.432997.1938761-.432997.432997v1.4757946h-2.2557917c-.2391209,0-.432997.1938761-.432997.432997v4.9748141c0,.2391209.1938761.432997.432997.432997h7.6714255c.2391209,0,.432997-.1938761.432997-.432997v-4.9748141c0-.2391209-.1938761-.432997-.432997-.432997h-.4705248v-6.3073224l1.5411775,1.2274833ZM4.9467264,4.4416799h1.4299683v2.0757639l-1.4299683,1.1389097v-3.2146736Zm10.8934263,10.2760673h1.4277484v1.0427976h-1.4277484v-1.0427976Zm4.1166428,6.0176116h-6.8054315v-4.1088201h6.8054315v4.1088201Z"/><path d="m4.9467264,19.1652162v-8.7417809l-.865994.6897454v8.0520355c0,.7162527.5826854,1.298991,1.298991,1.298991h5.6607803v-.865994h-5.6607803c-.2388038,0-.432997-.1942461-.432997-.432997Z"/></svg>