<?xml version="1.0" encoding="UTF-8"?><svg id="Layer_1" xmlns="http://www.w3.org/2000/svg" width="24" height="24" viewBox="0 0 24 24"><path d="m19.0203067,4.8775363c-3.9274405-3.8723736-10.2730557-3.8275104-14.145152.0998746-3.8722627,3.927385-3.827455,10.2728339.0999301,14.1450966,1.9454755,1.9181916,4.4842651,2.8751801,7.0218901,2.8751801,2.58515-.0000555,5.16908-.9932007,7.1231511-2.9750548,1.8758239-1.9024978,2.8985267-4.4216008,2.8796165-7.0932608-.0188547-2.6716599-1.0769933-5.1760673-2.9794357-7.0518358Zm-.5471199,13.5071412c-1.7768366,1.8021241-4.1255261,2.7050439-6.4761565,2.7048221-2.1760023-.000208-4.3531554-.7752345-6.0775384-2.3265629l1.3035967-1.3036106c1.0014358.8766064,2.1868577,1.4297986,3.4215722,1.6620723.1457152.612751.6962664,1.0703942,1.3529795,1.0703942.6568378,0,1.2075208-.4578095,1.353125-1.0707546,1.4008233-.2636751,2.7380674-.9383279,3.8124058-2.027965,2.8083013-2.8482844,2.7758046-7.4502806-.0724243-10.2585819-2.5050105-2.4698866-6.3645601-2.7387606-9.1691944-.8309668-.2134051-.1331477-.4644364-.2114225-.7339759-.2114225-.7675539,0-1.3919783.6244243-1.3919783,1.3919783,0,.2680976.0774777.5178396.2093291.7305099-1.5916235,2.3326768-1.66872,5.390124-.2415277,7.7920504l.6657245-.6657384c-1.115597-2.0460849-1.0239575-4.5832801.2830151-6.5502445.1486196.0542628.3082679.0854008.4754373.0854008.7675539,0,1.3920337-.6244243,1.3920337-1.3919783,0-.1661712-.0307845-.3249114-.0844373-.4727824,1.0570295-.7008137,2.2790171-1.0538408,3.502911-1.0538408,1.6096949,0,3.2206654.6072887,4.4547075,1.8239734,2.4915418,2.4566051,2.5199903,6.4822011.0634406,8.9736875-.919993.9330319-2.0602537,1.51861-3.2573697,1.7593405-.2216401-.4755274-.702921-.8066775-1.2612221-.8066775-.5585645,0-1.0400117.3314551-1.2614994.807343-1.0332323-.2077764-2.0241316-.6741121-2.8691425-1.3997004l1.2991534-1.2991603c.8238478.6644768,1.8275641.9960289,2.8312112.9960289,1.1666642,0,2.3331066-.4483544,3.2150089-1.3427341.5160512-.5234129.8749011-1.1426799,1.0828993-1.7996009.6538363-.1138493,1.1529945-.6840386,1.1529945-1.3699349,0-.6860627-.499387-1.2563906-1.1534382-1.3700735-.21423-.6765521-.5880943-1.3126775-1.1275961-1.8446027-1.772622-1.7477781-4.6364893-1.7274816-6.384212.045085-1.2941277,1.3125111-1.6178052,3.2230776-.9795795,4.8361415l.7173324-.7173393c-.3250985-1.1987589-.023915-2.5344779.9091862-3.4808468.7045569-.7145943,1.6359252-1.0725569,2.5679589-1.0725569.9147317,0,1.8301289.3450416,2.5313586,1.0364557.3972248.3916516.6826452.8538836.8590132,1.3470042-.4310732.2368348-.7240355.6951296-.7240355,1.2207329,0,.5257559.2931148.9841338.7243821,1.2208993-.1707948.4775792-.4443409.926405-.8232586,1.3107365-1.2868007,1.3050524-3.3305496,1.419789-4.7513507.3367372l1.3569861-1.3569861c.2455829.1348529.5272185.21188.8266275.21188.950223,0,1.7233224-.773044,1.7233224-1.723267s-.7730994-1.7233224-1.7233224-1.7233224-1.723267.7730994-1.723267,1.7233224c0,.3213623.0900383.621402.243836.879185l-5.2436948,5.2436948c-3.2305086-3.5430813-3.1577654-9.0537092.2475793-12.5075354,1.7768366-1.8021241,4.1255815-2.7048775,6.476212-2.7048775,2.3068209,0,4.6155273.8702568,6.3840456,2.6139866,1.7296998,1.7054104,2.6917347,3.982341,2.7088703,6.4113295s-.9126244,4.7192283-2.6180349,6.4488726Zm-6.9589485.4151368c0-.2665726.2168294-.4834575.483402-.4834575s.4834575.2168849.4834575.4834575-.2168849.483402-.4834575.483402-.483402-.2168294-.483402-.483402Zm-3.8432042-11.6157344c0,.2665726-.2168849.483402-.4834575.483402s-.483402-.2168294-.483402-.483402.2168294-.483402.483402-.483402.4834575.2168294.4834575.483402Zm7.901796,4.815942c0-.2665726.2168294-.4834575.483402-.4834575s.4834575.2168849.4834575.4834575-.2168849.483402-.4834575.483402-.483402-.2168294-.483402-.483402Zm-4.3898805,0c0-.4492417.3654491-.8147462.8146907-.8147462s.8147462.3655045.8147462.8147462-.3655045.8146907-.8147462.8146907-.8146907-.3654491-.8146907-.8146907Z"/></svg>