<?xml version="1.0" encoding="UTF-8"?><svg id="Layer_1" xmlns="http://www.w3.org/2000/svg" width="24" height="24" viewBox="0 0 24 24"><path d="m20.1303101,14.2396851c-.192749-.0149536-.361084.1291504-.3760376.3218384h-.000061c-.0504761.6503296-.2130127,1.2932739-.4874268,1.8974609-.0799561.1760254-.0020752.3834839.1739502.4634399.1760254.079895.3834839.0020142.4634399-.1740112.3086548-.6796875.491272-1.4023438.5479736-2.1326904.0149536-.192688-.1291504-.3610229-.3218384-.3760376Zm-10.0041504,3.87677c-.2329712-.2329712-.4411621-.480957-.6246948-.7408447-.1115723-.1578979-.3299561-.1954956-.487854-.0839844s-.1954956.329895-.0839233.487793c.2064209.2922363.4403076.5708008.7015381.8320312.2692871.2692871.5571289.5096436.859314.7207031.1584473.1106567.3766479.0718994.4873047-.0865479.1107178-.1585083.0719604-.3766479-.0864868-.4873657-.2687988-.1876831-.5249634-.4015503-.7651978-.6417847Zm3.7823486-10.0015869c-.0180054-.1924438-.1885986-.3338623-.3810425-.315918-.7289429.0681152-1.4487305.2619019-2.1240234.581604-.1746826.0827026-.2492676.2913818-.1665649.4661255.0827026.1746826.2914429.2492676.4661255.1665039.6002197-.2841187,1.2405396-.456604,1.8895874-.5172729.1924438-.0179443.3338623-.1885376.315918-.3810425Zm5.6582031,4.4957886c.0514526.1863403.2442627.2956543.430542.2441406.1863403-.0514526.2956543-.2442627.2442017-.430603-.1936035-.7005005-.5096436-1.3747559-.9478149-1.9882202-.1123657-.1572876-.3309937-.1937256-.4882812-.0813599-.1572876.1123047-.1937256.3309326-.0813599.4882202.3896484.5455933.6704712,1.1445923.8427124,1.7678223Zm-9.4615479-2.4633789c.1359863-.1373901.1348267-.3590088-.0025024-.4949951-.1373901-.1359863-.3590088-.1348267-.4949951.0025635-.5350952.5405273-.9539795,1.154541-1.2553711,1.809021-.0808716.1755371-.0040894.3834229.1715088.4642944.1755371.0808716.3834229.0040894.4642944-.1715088.2680054-.5818481.6399536-1.1272583,1.1170654-1.609375Zm4.5153809,9.6020508c-.1660767.0146484-.3326416.0219727-.4992065.0219727-.4890137,0-.9779663-.0630493-1.4534912-.1890869-.1868286-.0495605-.378479.0617676-.4279785.2485962-.0495605.1868286.0617676.378479.2485962.4279785.5345459.1417236,1.0836792.2125244,1.6328735.2125244.1870728,0,.3741455-.0082397.5606689-.0246582.1925049-.0169678.3348389-.1868286.3178711-.3793945s-.1868286-.3348999-.3793335-.3179321Zm3.5377197-1.6751099l-.0418091.0422363c-.4798584.4798584-1.0233765.8545532-1.6036377,1.1255493-.1751709.0817871-.2508545.2900391-.1690674.46521.0817871.1751099.2900391.2507935.46521.1690674.65271-.3047485,1.2644653-.7268066,1.8024902-1.2648315l.046814-.0473633c.1352539-.1380615.1329956-.3596191-.0050659-.4949341-.1380615-.1352539-.3596802-.1329956-.4949341.0050659Zm-.3444214-8.6958618c.1098633-.1590576.0699463-.3770142-.0891113-.4868774-.5592651-.3861694-1.1705322-.6581421-1.8010864-.8446655-.288147-.9659424-.7858887-1.8895874-1.5548096-2.6582642-1.2390747-1.2392578-2.866272-1.8602905-4.4901733-1.8598633-1.6239624-.0004272-3.2511597.6206055-4.4901123,1.8598633-1.2392578,1.2390137-1.8602295,2.8661499-1.8598633,4.4901123-.0003662,1.6239014.6206055,3.2510986,1.8598633,4.4901123.7785034.7786865,1.7156372,1.2807007,2.6950073,1.5669556.0858154.0873413.2115479.1311646.3380737.0968628.1207275-.0326538.2036133-.1268311.2375488-.2382202.0078125-.017395.0200195-.0317383.0250244-.0507812.0256348-.0971069.0064087-.1943359-.0427856-.2733765-.1085205-.4428711-.170166-.8952637-.170166-1.348938,0-.1567383.0065308-.3134766.0194702-.4697876.0159302-.192627-.1272583-.3617554-.3198853-.3776855-.192627-.0159912-.3617554.1271973-.3776855.3198242-.0145874.1755981-.0218506.3516235-.0218506.5276489,0,.3366699.0355225.6720581.0887451,1.0053711-.7224121-.2697144-1.3990479-.6755981-1.9765015-1.2528687-1.1038818-1.104126-1.65448-2.5480347-1.6548462-3.9951172.0003662-1.4471436.5509033-2.8909912,1.6548462-3.9951172,1.1040649-1.1038818,2.5479736-1.65448,3.9951172-1.6548462,1.4471436.0003662,2.8910522.5509033,3.9951782,1.6548462.706604.7068481,1.1608887,1.560791,1.4144897,2.4681396.0068359.0626831.0323486.1188965.0693359.1685791.0618286.1048584.1705322.1679077.2922974.1694946.5883789.164917,1.1570435.4187012,1.677002.77771.1590576.1098633.3770142.0699463.4868774-.0891113Z"/></svg>