<?xml version="1.0" encoding="UTF-8"?><svg id="Layer_1" xmlns="http://www.w3.org/2000/svg" width="24" height="24" viewBox="0 0 24 24"><path d="m16.7295066,14.070547H7.2063596v.9119067h9.5231469v-.9119067Zm-9.5231469,3.3024337h9.5231469v-.9119067H7.2063596v.9119067Zm12.0687381-10.3507034c.0705748-.1703703.031614-.3665104-.0988493-.4969179l-4.3918906-4.3918349c-.0854913-.0854913-.2014833-.1335244-.3223733-.1335244H6.0580162c-.7542822,0-1.3678462.6136335-1.3678462,1.3678601v17.2642799c0,.7542266.6135639,1.3678601,1.3678462,1.3678601h11.8189433c.7542822,0,1.3678601-.6136335,1.3678601-1.3678601v-11.9563638h-.9119067v11.9563638c0,.2514089-.2044888.4559534-.4559534.4559534H6.0580162c-.2514645,0-.4559534-.2045445-.4559534-.4559534V3.3678601c0-.2514089.2044888-.4559534.4559534-.4559534h7.9480151v3.0239748c0,.7542266.6135779,1.3678601,1.3678601,1.3678601h3.4799839c.1844518,0,.3506477-.1110941.4212225-.2814644Zm-3.9012064-.6304423c-.2514645,0-.4559534-.2045445-.4559534-.4559534v-2.3791309l1.4518486,1.4518068,1.3832774,1.3832774h-2.3791726Zm1.3556152,5.2881295H7.2063596v.9119067h9.5231469v-.9119067Z"/></svg>