<?xml version="1.0" encoding="UTF-8"?><svg id="Layer_1" xmlns="http://www.w3.org/2000/svg" width="24" height="24" viewBox="0 0 24 24"><path d="m17.7135593,18.0574504c.2447324,0,.4431582-.1984258.4431582-.4431582v-3.7023072c0-.2447324-.1984258-.4431582-.4431582-.4431582h-5.8081199c-.2447324,0-.4431582.1984258-.4431582.4431582v3.7023072c0,.2447324.1984258.4431582.4431582.4431582h5.8081199Zm-5.3649617-3.7023072h4.9218036v2.8159909h-4.9218036v-2.8159909Z"/><path d="m22,10.1041898c0-.0925049-.0289416-.1826296-.0827676-.2578778l-2.5729896-3.59617v-1.4712613c0-.733061-.5964134-1.3294745-1.3294745-1.3294745H5.9852317c-.733061,0-1.3294745.5964134-1.3294745,1.3294745v1.4712613l-2.5729896,3.59617c-.053826.0752482-.0827676.1653729-.0827676.2578778,0,1.1226637.9133104,2.0359741,2.0359741,2.0359741.6448297,0,1.2194693-.3022234,1.5927619-.7714831v.0022856c.3733196.4685294.9485813.7691975,1.592816.7691975s1.2194964-.3007222,1.592816-.7691975c.3733196.4684753.9485813.7691975,1.592816.7691975s1.2194964-.3007222,1.592816-.7691975c.3733196.4684753.9485813.7691975,1.592816.7691975s1.2194964-.3006681,1.592816-.7691975c.3733196.4685294.9485272.7691975,1.5927619.7691975s1.2194964-.3007222,1.592816-.7691975v-.0022856c.2914446.3663682.7059587.6301425,1.1804928.7285305v7.1239079c0,.2443537-.1988045.4431582-.4431582.4431582h-8.9195315v-5.7522923c0-.2447324-.1984258-.4431582-.4431582-.4431582h-3.4147305c-.2447324,0-.4431582.1984258-.4431582.4431582v5.7522923h-.9965108c-.2443537,0-.4431582-.1988045-.4431582-.4431582v-5.761651h-.8863163v5.761651c0,.733061.5964134,1.3294745,1.3294745,1.3294745h14.2170891c.733061,0,1.3294745-.5964134,1.3294745-1.3294745v-7.1389332c.8944037-.2144654,1.561981-1.0187715,1.561981-1.9779963Zm-15.2257175,4.2509535h2.5284142v5.3091342h-2.5284142v-5.3091342Zm-.7890509-10.0194206h12.0295367c.2443537,0,.4431582.1988045.4431582.4431582v1.1703227H5.5420735v-1.1703227c0-.2443537.1988045-.4431582.4431582-.4431582Zm-.6584891,2.4997971h13.3465148l1.8165589,2.538963H3.5101837l1.8165589-2.538963Zm-1.2907684,4.4183279c-.5806984,0-1.0613995-.4330692-1.1381082-.9930486h2.2757567c-.0767899.5598848-.5570041.9930486-1.1376484.9930486Zm3.1855779,0c-.5806443,0-1.0609126-.4331638-1.1377025-.9930486h2.275405c-.0767899.5598848-.5570582.9930486-1.1377025.9930486Zm3.185632,0c-.5806443,0-1.0609126-.4331638-1.1377025-.9930486h2.275405c-.0767899.5598848-.5570582.9930486-1.1377025.9930486Zm3.185632,0c-.5806443,0-1.0609126-.4331638-1.1377025-.9930486h2.275405c-.0767899.5598848-.5570582.9930486-1.1377025.9930486Zm3.1855779,0c-.5806443,0-1.0608585-.4331638-1.1376484-.9930486h2.275351c-.0767899.5598848-.5570582.9930486-1.1377025.9930486Zm3.185632,0c-.5806443,0-1.0609126-.4331638-1.1377025-.9930486h2.2758108c-.0767088.5599794-.5574099.9930486-1.1381082.9930486Z"/></svg>