<?xml version="1.0" encoding="UTF-8"?><svg id="Layer_1" xmlns="http://www.w3.org/2000/svg" width="24" height="24" viewBox="0 0 24 24"><path d="m20.4753136,14.9972237h-.5560459v-5.5384779l1.5411775,1.2274833.5395548-.6774035-2.0807324-1.6572098v-.0042681h-.0053649l-7.104729-5.6586132c-.476339-.3794009-1.1421141-.3794538-1.6184531.0000529l-3.9480319,3.1444477v-1.8190287c0-.2391209-.1938761-.432997-.432997-.432997h-2.2959623c-.2391209,0-.432997.1938761-.432997.432997v4.3374028l-2.0807324,1.6572164.5395548.6774035L11.7302754,3.3661909c.1587797-.1265375.3806695-.1264317.5394491,0l6.7835491,5.4028228v6.2282101h-5.4916408c-.7163056,0-1.298991.5827383-1.298991,1.298991v4.0006237c0,.7162527.5826854,1.298991,1.298991,1.298991h6.9136807c.7163056,0,1.298991-.5827383,1.298991-1.298991v-4.0006237c0-.7162527-.5826854-1.298991-1.298991-1.298991ZM4.9467264,4.4472034h1.4299683v2.0757639l-1.4299683,1.1389097v-3.2146736Zm8.6149065,11.4160143h6.9136807c.2388038,0,.432997.1942461.432997.432997v.900509h-7.7796747v-.900509c0-.2387509.1941932-.432997.432997-.432997Zm6.9136807,4.8666177h-6.9136807c-.2388038,0-.432997-.1942461-.432997-.432997v-2.2341207h7.7796747v2.2341207c0,.2387509-.1941932.432997-.432997.432997Z"/><path d="m10.9636509,19.6037367h-5.5839275c-.2388038,0-.432997-.1942461-.432997-.432997v-8.7417809l-.865994.6897454v8.0520355c0,.7162527.5826854,1.298991,1.298991,1.298991h5.5903231c-.0037792-.0572167-.0063956-.1147373-.0063956-.1728922v-.6931018Z"/></svg>