<?xml version="1.0" encoding="UTF-8"?>
<svg id="Layer_1" data-name="Layer 1" xmlns="http://www.w3.org/2000/svg" viewBox="0 0 24 24">
  <path d="m12.000061,10.5c-.8271484,0-1.500061.6729126-1.500061,1.500061,0,.8270874.6729126,1.499939,1.500061,1.499939.8270874,0,1.499939-.6728516,1.499939-1.499939,0-.8271484-.6728516-1.500061-1.499939-1.500061Zm-5.2657471,0c-.8270874,0-1.500061.6729126-1.500061,1.500061,0,.8270874.6729736,1.499939,1.500061,1.499939s1.499939-.6728516,1.499939-1.499939c0-.8271484-.6728516-1.500061-1.499939-1.500061Zm10.583313,0c-.8270874,0-1.500061.6729126-1.500061,1.500061,0,.8270874.6729736,1.499939,1.500061,1.499939s1.499939-.6728516,1.499939-1.499939c0-.8271484-.6728516-1.500061-1.499939-1.500061ZM12,1.5c-5.7991943.0003052-10.4996948,4.7008057-10.5,10.5.0003052,5.7991943,4.7008057,10.4996338,10.5,10.5,5.7991943-.0003662,10.4996948-4.7008057,10.5-10.5-.0003052-5.7991943-4.7008057-10.4996948-10.5-10.5Zm6.7175293,17.2175293c-1.7207642,1.7199097-4.0925903,2.7822266-6.7175293,2.7824707-2.624939-.0002441-4.9967651-1.062561-6.7175293-2.7824707-1.7199097-1.7207642-2.7822266-4.0925903-2.7824707-6.7175293.0002441-2.624939,1.062561-4.9967651,2.7824707-6.7175293,1.7207642-1.7199707,4.0925903-2.7822266,6.7175293-2.7824707,2.624939.0002441,4.9967651,1.0625,6.7175293,2.7824707,1.7199097,1.7207642,2.7822266,4.0925903,2.7824707,6.7175293-.0002441,2.624939-1.062561,4.9967651-2.7824707,6.7175293Z"/>
</svg>