<?xml version="1.0" encoding="UTF-8"?><svg id="Layer_1" xmlns="http://www.w3.org/2000/svg" width="24" height="24" viewBox="0 0 24 24"><path d="m13.6103139,19.510947h-.530034v-2.6501699h-1.2777398v.6767295h.449572v1.9734404h-.5158056v.6625563h1.8740073v-.6625563Zm1.3818605-8.1060564h4.4029604v-.903556h-4.4029604v.903556Zm.1514934,8.0871404c-.2224146,0-.3691653-.1136063-.3691653-.3265353h-.7571914c.0142284.6578135.4969448,1.0695535,1.1405299,1.0695535.766677,0,1.1689314-.5820943,1.1689314-1.1452727,0-.430656-.1561811-.8518265-.6767295-.9890916l.6057531-1.1168711v-.1230367h-2.1107055v.7003882h1.0174932l-.492202.9749184v.1088635c.3833385-.0378871.8282229-.0568031.8423961.449572-.0047428.2224146-.1372099.3975117-.3691101.3975117Zm-.1514934-5.3061028h4.4029604v-.903556h-4.4029604v.903556Zm5.4690947-9.1310222h-2.6412909c-.7473198,0-1.355334.6080142-1.355334,1.355334v1.2916924h-2.6412909c-.7473198,0-1.355334.6080142-1.355334,1.355334v6.0101584h-.9360386V3.355334c0-.7473198-.6080142-1.355334-1.355334-1.355334H3.5387309c-.7473198,0-1.355334.6080142-1.355334,1.355334v15.138368c0,.7473198.6080142,1.355334,1.355334,1.355334h2.0658144v-.903556h-2.0658144c-.2491066,0-.451778-.2026714-.451778-.451778V3.355334c0-.2491066.2026714-.451778.451778-.451778h6.6379158c.2491066,0,.451778.2026714.451778.451778v11.7120908h-2.3132114c-.6227665,0-1.1473959.4227767-1.3054382.9959852h-2.3022782v.903556h2.2523824v3.6777001c0,.7473198.6080142,1.355334,1.355334,1.355334h8.4148615c.7473198,0,1.355334-.6080142,1.355334-1.355334v-3.6777001h1.309726v-.903556h-1.3596218c-.1580423-.5732085-.6826717-.9959852-1.3054382-.9959852h-3.3584995v-6.0101584c0-.2491066.2026714-.451778.451778-.451778h3.0930689c.2494926,0,.451778-.2022854.451778-.451778v-1.7434704c0-.2491066.2026714-.451778.451778-.451778h2.6412909c.2491066,0,.451778.2026714.451778.451778v12.083462c0,.2491066-.2026714.451778-.451778.451778h-1.0205263v.903556h1.0205263c.7473198,0,1.355334-.6080142,1.355334-1.355334V6.41024c0-.7473198-.6080142-1.355334-1.355334-1.355334Zm-3.7311943,10.9160747c.2491066,0,.451778.2026714.451778.451778v4.2219073c0,.2491066-.2026714.451778-.451778.451778h-8.4148615c-.2491066,0-.451778-.2026714-.451778-.451778v-4.2219073c0-.2491066.2026714-.451778.451778-.451778h8.4148615Zm-12.0225779-4.5660902h4.4030155v-.903556h-4.4030155v.903556Zm5.2636658,8.8254158c.7287898,0,1.2730521-.3596797,1.2730521-1.1357871,0-.7098738-.473286-1.1310443-1.1689314-1.0648107l.705131-1.197333h-.941774l-.9180601,1.5333539c-.1183491.2034986-.217727.487404-.217727.7287898,0,.7761074.5490051,1.1357871,1.2683094,1.1357871Zm.0094856-1.5475271c.2081863,0,.4069973.1277795.4069973.4117401,0,.274475-.2082414.4069973-.4164828.4069973s-.4211705-.1325223-.4211705-.4069973c0-.2792178.2176718-.4117401.430656-.4117401Zm-5.2731514-4.496851h4.4030155v-.903556h-4.4030155v.903556Zm4.4030155-9.246669h-4.4030155v.903556h4.4030155v-.903556Zm-4.4030155,3.6845937h4.4030155v-.903556h-4.4030155v.903556Z"/></svg>