<?xml version="1.0" encoding="UTF-8"?><svg id="Layer_1" xmlns="http://www.w3.org/2000/svg" width="24" height="24" viewBox="0 0 24 24"><path d="m20.6626252,5.219228H3.3373748c-.7374172,0-1.3373748.5999576-1.3373748,1.3373748v10.8867944c0,.7374172.5999576,1.3373748,1.3373748,1.3373748h16.4336673v-.8915832H3.3373748c-.2458057,0-.4457916-.1999859-.4457916-.4457916v-5.6404717h18.2168336v6.899818c.5185688-.1841842.8915832-.6784078.8915832-1.2593463V6.5566028c0-.7374172-.5999576-1.3373748-1.3373748-1.3373748Zm.4457916,5.6921143H2.8915832v-2.0020352h18.2168336v2.0020352Zm0-2.8936184H2.8915832v-1.4611211c0-.2458057.1999859-.4457916.4457916-.4457916h17.3252505c.2458057,0,.4457916.1999859.4457916.4457916v1.4611211Z"/></svg>