<?xml version="1.0" encoding="UTF-8"?><svg id="Layer_1" xmlns="http://www.w3.org/2000/svg" width="24" height="24" viewBox="0 0 24 24"><path d="m15.0809222,16.1647417c-.2279538.2176502-.4783153.4119511-.7482869.5776123,1.1027925.7454478,1.829198,2.0073649,1.829198,3.4357602v.4555199c0,.250223-.2035243.4538026-.4538026.4538026h-7.3808297c-.2502784,0-.4538026-.2035797-.4538026-.4538026v-.4555199c0-2.2851334,1.8590841-4.1442175,4.1441621-4.1442175,1.6976606,0,3.0789003-1.3811843,3.0789003-3.0788449s-1.3812396-3.0787895-3.0789003-3.0787895c-.7440768,0-1.4272736.2653737-1.9600984.7063799-.3050371-1.3788161-1.5364865-2.4135687-3.0056947-2.4135687-1.6976606,0-3.0787895,1.3811843-3.0787895,3.0788449,0,1.0292961.5082291,1.9415823,1.2863743,2.5009002-1.9031238.7248544-3.2593522,2.567666-3.2593522,4.7221622v1.3630698h.9076053v-1.3630698c0-2.2851334,1.8590841-4.1442175,4.1441621-4.1442175.7441045,0,1.4273567-.2654153,1.9602092-.7064492.1662429.7515691.60772,1.4004482,1.2131687,1.8356378-1.9031238.7248544-3.2593522,2.567666-3.2593522,4.7221622v.4555199c0,.7506689.6106836,1.3614079,1.3614079,1.3614079h7.3808297c.7507243,0,1.3614079-.610739,1.3614079-1.3614079v-.4555199c0-1.6345094-.7808873-3.0894116-1.9885164-4.0133726Zm-8.0291548-2.7455836c-1.1972147,0-2.1711842-.9740249-2.1711842-2.1712396s.9739695-2.1712396,2.1711842-2.1712396,2.171295.9740249,2.171295,2.1712396-.9740803,2.1712396-2.171295,2.1712396Zm2.7946089-.4641063c0-1.1972147.9739695-2.1711842,2.1711842-2.1711842s2.171295.9739695,2.171295,2.1711842-.9740803,2.1712396-2.171295,2.1712396-2.1711842-.9740249-2.1711842-2.1712396ZM20.6385921,2.0049579h-6.420266c-.7507243,0-1.3614079.610739-1.3614079,1.3614079v4.0729231c0,.7506689.6106836,1.3614079,1.3614079,1.3614079h.5443194l.9076053-.9076053h-1.4519247c-.2502784,0-.4538026-.2035797-.4538026-.4538026V3.3663659c0-.250223.2035243-.4538026.4538026-.4538026h6.420266c.2502784,0,.4538026.2035797.4538026.4538026v4.0729231c0,.250223-.2035243.4538026-.4538026.4538026h-2.4788526c-.363729,0-.7056321.1416471-.9626687.3987392l-1.9677707,1.9677153.6417053.6418161,1.9678815-1.9677707c.085642-.0856974.1995358-.1328946.3208527-.1328946h2.4788526c.7507243,0,1.3614079-.610739,1.3614079-1.3614079V3.3663659c0-.7506689-.6106836-1.3614079-1.3614079-1.3614079Z"/></svg>