<?xml version="1.0" encoding="UTF-8"?><svg id="Layer_1" xmlns="http://www.w3.org/2000/svg" width="24" height="24" viewBox="0 0 24 24"><path d="m5.3797234,19.7047975c-.2388038,0-.432997-.1942461-.432997-.432997v-8.7417809l-.865994.6897454v8.0520355c0,.7162527.5826854,1.298991,1.298991,1.298991h8.9964216c-.2300032-.2738209-.4421675-.561979-.6343787-.865994H5.3797234Z"/><path d="m21.3921551,13.5463244h-1.4728875v-3.9865177l1.5411775,1.2274833.5395548-.6774035-2.0807324-1.6572098v-.0042681h-.0053649l-7.104729-5.6586132c-.476339-.3794009-1.1421141-.3794538-1.6184531.0000529l-3.9480319,3.1444477v-1.8190287c0-.2391209-.1938761-.432997-.432997-.432997h-2.2959623c-.2391209,0-.432997.1938761-.432997.432997v4.3374028l-2.0807324,1.6572164.5395548.6774035L11.7302754,3.4672517c.1587797-.1265375.3806695-.1264317.5394491,0l6.7835491,5.4028228v4.6762499h-5.0359157c-.2391209,0-.432997.1938761-.432997.432997,0,3.5960104,1.2803856,6.0372213,3.9143097,7.4632254.064273.0348322.1352058.0522218.2061387.0522218s.1418657-.0173896.2061387-.0522218c2.6338184-1.4260041,3.914204-3.8672678,3.914204-7.4632254,0-.2391209-.1938761-.432997-.432997-.432997ZM4.9467264,4.5482642h1.4299683v2.0757639l-1.4299683,1.1389097v-3.2146736Zm12.758083,16.0170831c-2.1169916-1.2304366-3.1569878-3.1985327-3.2479003-6.1530289h6.1606402l-2.9127399,2.9127928-1.2319695-1.2319695-.6122848.6123905,1.5381119,1.5381119c.0811869.0811869.191339.1268017.3061424.1268017s.2249555-.0456148.3061424-.1268017l2.87434-2.8743862c-.2712045,2.4292521-1.3010259,4.1037129-3.1804824,5.1960894Z"/></svg>