<?xml version="1.0" encoding="UTF-8"?><svg id="Layer_1" xmlns="http://www.w3.org/2000/svg" width="24" height="24" viewBox="0 0 24 24"><path d="m20.9163208,10.9642334L11.984314,3.6303101,3.0523682,10.9641724c-.2133789.175293-.2443848.4903564-.0690918.7037354.1752319.2134399.4902954.2443848.7036743.0691528l1.9900513-1.6340332v9.5595093c0,.1316528.0533447.260437.1464844.3535767.0930786.0930786.2218628.1464233.3535156.1464233h11.6146851c.1316528,0,.260437-.0533447.3535156-.1464233.0931396-.0931396.1464844-.2219238.1464844-.3535767v-9.5594482l1.9900513,1.6339722c.2133789.1752319.5284424.1442871.7036743-.0691528.1752319-.2133789.1442871-.5284424-.0690918-.7036743Zm-7.2026367,8.1983032h-3.4586792v-4.8623657h3.4586792v4.8623657Zm3.5780029,0h-2.5780029v-5.3623657c0-.1316528-.0533447-.260437-.1464233-.3535767-.0931396-.0930786-.2219238-.1464233-.3535767-.1464233h-4.4586792c-.1317139,0-.260498.0533447-.3535767.1464233-.0930786.0931396-.1464233.2219238-.1464233.3535767v5.3623657h-2.5780029v-9.8805542l5.307312-4.3577881,5.307373,4.3577881v9.8805542Z"/></svg>