<?xml version="1.0" encoding="UTF-8"?><svg id="Layer_1" xmlns="http://www.w3.org/2000/svg" width="24" height="24" viewBox="0 0 24 24"><path d="m11.5413118,15.8397012h.9077022v-7.3210085h-.9077022v7.3210085Zm.0054086,2.0723577h.9065665v-.9065388h-.9065665v.9065388Zm10.261754.7065385L13.3199641,4.2464424l-.5271199.8924667,8.2340223,13.9412956c.1209974.2048203.0427147.3869812.0034349.4557902s-.1563437.2288646-.3941834.2288646H3.3639031c-.2378397,0-.3549036-.1600556-.3941834-.2288646s-.1175625-.2509699.0034349-.4557902L12.2648309,3.3556377c-.0862744-.0167867-.1742593-.0281995-.2647926-.0281995-.4866489,0-.9249322.2501389-1.1724118.6691423L2.1915467,18.6185974c-.2517455.426261-.2555683.9373976-.0101385,1.3673705.2453743.4299176.6874249.6865939,1.1824949.6865939h17.2722148c.4950146,0,.9371206-.2566763,1.1824949-.6866493.2453743-.4299176.241607-.9410541-.0101385-1.3673151Z"/></svg>