<?xml version="1.0" encoding="UTF-8"?><svg id="Layer_1" xmlns="http://www.w3.org/2000/svg" width="24" height="24" viewBox="0 0 24 24"><path d="m20.6626289,6.4311846h-9.5691473c-.1234195,0-.2424312-.0518601-.3265066-.1422481l-1.7247168-1.8548841c-.2521175-.2712182-.6091525-.4267442-.979411-.4267442H3.3373711c-.7374152,0-1.3373711.5999559-1.3373711,1.3373711v13.3106411c0,.7374152.5999559,1.3373711,1.3373711,1.3373711h16.433677v-.8915808H3.3373711c-.2458051,0-.4457904-.1999853-.4457904-.4457904V5.3446794c0-.2458051.1999853-.4457904.4457904-.4457904h4.725476c.1234195,0,.2424312.0518601.3265066.1422481l1.7247168,1.8548841c.2521175.2712182.6091525.4267442.979411.4267442h9.5691473c.2458595,0,.4457904.1999853.4457904.4457904v12.1461144c.5185946-.1841769.8915808-.6784059.8915808-1.2593497V7.7685558c0-.7374152-.5999015-1.3373711-1.3373711-1.3373711Zm-11.4302351,7.2666226l-.6304843.6304843,2.1297483,2.1296939c.0870684.087014.2011825.1305482.3152421.1305482.1141141,0,.2281737-.0435342.3152421-.1305482l5.7463533-5.7464077-.6303755-.6304843-5.43122,5.43122-1.8145061-1.8145061Z"/></svg>