<?xml version="1.0" encoding="UTF-8"?><svg id="Layer_1" xmlns="http://www.w3.org/2000/svg" width="24" height="24" viewBox="0 0 24 24"><path d="m18.9730281,13.6651996l-1.1411788,1.1411597-1.1411788-1.1411597-.5895043.5895043,1.1411788,1.1411534-1.1411788,1.1411534.5895043.5895043,1.1411788-1.1411597,1.1411788,1.1411597.5895043-.5895043-1.1411788-1.1411534,1.1411788-1.1411534-.5895043-.5895043Zm1.3340677-1.6204754v-6.3582869c0-.689485-.5609602-1.2504452-1.2504452-1.2504452H3.2504452c-.689485,0-1.2504452.5609602-1.2504452,1.2504452v10.7760331c0,.689485.5609602,1.2504452,1.2504452,1.2504452h9.6843613c-.1266549-.266596-.231253-.5453971-.3134254-.8336301H3.2504452c-.2298283,0-.4168151-.1869867-.4168151-.4168151V5.6864372c0-.2298283.1869867-.4168151.4168151-.4168151h15.8062054c.2298283,0,.4168151.1869867.4168151.4168151v5.8787296c-.5040883-.2168537-1.0589682-.3374602-1.6416164-.3374602-2.2983342,0-4.1681507,1.8698165-4.1681507,4.1681507s1.8698165,4.1681507,4.1681507,4.1681507,4.1681507-1.8698165,4.1681507-4.1681507c0-1.3721265-.6667159-2.5911592-1.6929042-3.3511331Zm-2.4752465,6.6856537c-1.8386775,0-3.3345206-1.495843-3.3345206-3.3345206s1.495843-3.3345206,3.3345206-3.3345206,3.3345206,1.495843,3.3345206,3.3345206-1.495843,3.3345206-3.3345206,3.3345206Zm-4.968861-8.7790656h4.9785283v-.8336301h-4.9785283v.8336301Zm-8.5717266,4.2685893v.6066511c0,.4525842.3681731.8208082.8207573.8208082h6.0101354c.4525842,0,.8208082-.368224.8208082-.8208082v-.6066511c0-1.1224801-.4859874-2.1335251-1.2585098-2.8339986-.1979515.201537-.4194227.3796896-.659847.5305064.6621875.5492895,1.0847266,1.3779269,1.0847266,2.3034922v.5938292h-5.9844407v-.5938292c0-1.6499099,1.342285-2.9921949,2.9921949-2.9921949,1.303005,0,2.3630545-1.0600495,2.3630545-2.3630545s-1.0600495-2.3630545-2.3630545-2.3630545c-1.3029541,0-2.3630036,1.0600495-2.3630036,2.3630545,0,.7382097.3404431,1.3982029.8723504,1.8318658-1.3711089.5822793-2.3351718,1.9423407-2.3351718,3.5233835Zm2.2964516-5.3552494c0-.8433484.686076-1.5294243,1.5293735-1.5294243.8433484,0,1.5294243.686076,1.5294243,1.5294243s-.686076,1.5294243-1.5294243,1.5294243c-.8432975,0-1.5293735-.686076-1.5293735-1.5294243Zm11.2538033-1.9822121h-4.9785283v.8336301h4.9785283v-.8336301Z"/></svg>