<?xml version="1.0" encoding="UTF-8"?><svg id="Layer_1" xmlns="http://www.w3.org/2000/svg" width="24" height="24" viewBox="0 0 24 24"><path d="m12.0000277,2.0000277C7.1062686,2.0000277,3.0227673,5.5336824,2.1658549,10.1832748h.9260763c.8441607-4.1454578,4.5170027-7.2748845,8.9080965-7.2748845,5.0131259,0,9.0916097,4.0784838,9.0916097,9.0916097s-4.0784838,9.0916097-9.0916097,9.0916097c-4.860882,0-8.8426471-3.8344833-9.0801332-8.6374284h10.1679063l-2.2930279,2.2929724.6423516.6423516,3.0683296-3.0683296c.1773591-.1774146.1773591-.4649371,0-.6423516l-3.0683296-3.0683296-.6423516.6423516,2.2930279,2.2929724H2.0107558c-.0067639.1506083-.0107558.3019374-.0107558.4541813,0,5.5139894,4.4859829,9.9999723,10.0000277,9.9999723,5.5139894,0,9.9999723-4.4859829,9.9999723-9.9999723S17.5140171,2.0000277,12.0000277,2.0000277Z"/></svg>