<?xml version="1.0" encoding="UTF-8"?><svg id="Layer_1" xmlns="http://www.w3.org/2000/svg" width="24" height="24" viewBox="0 0 24 24"><path d="m11.9999841,5.0596622c-2.3459011,0-4.254408,1.908507-4.254408,4.254408,0,2.3458475,1.908507,4.2543544,4.254408,4.2543544s4.254408-1.908507,4.254408-4.2543544c0-2.3459011-1.908507-4.254408-4.254408-4.254408Zm0,7.6305438c-1.8616586,0-3.3761893-1.5145307-3.3761893-3.3761357,0-1.8616586,1.5145307-3.3761893,3.3761893-3.3761893s3.3761893,1.5145307,3.3761893,3.3761893c0,1.861605-1.5145307,3.3761357-3.3761893,3.3761357Zm5.0848136-8.5960805c-1.3769874-1.3658917-3.2069671-2.1101585-5.1444729-2.0938634-1.8650356.0151158-3.6320327.7396034-4.9756259,2.0400468-1.3475062,1.3042492-2.1220046,3.0469109-2.1808598,4.9070151-.1605386,5.0759692,4.2576778,10.2761348,6.9056274,12.9240844.0857635.0857099.1981138.1285917.3105176.1285917s.2247541-.0428818.3105176-.1285917c.0961356-.0961356.1949781-.1961841.2956698-.2991004-.3088426-.3116433-.898534-.9391109-.898534-.9391109-2.5609934-2.6808077-6.1847847-7.2702296-6.0460086-11.6581072.0515653-1.6306867.7312415-3.1591003,1.9138672-4.3037221,1.1808033-1.1429065,2.7334451-1.7796472,4.3719041-1.792887,1.7028889-.015491,3.3093473.6393137,4.518935,1.8391457,1.2096413,1.1999393,1.8758632,2.7990542,1.8758632,4.5028543,0,3.977767-3.0124313,8.09029-5.4420054,10.7604041.1990518.2115948.4027537.4228947.6108911.6334174,2.5330532-2.7780958,5.7093331-7.1151852,5.7093331-11.3938215,0-1.9397035-.7584178-3.7602492-2.1356196-5.1263553Z"/></svg>