<?xml version="1.0" encoding="UTF-8"?><svg id="Layer_1" xmlns="http://www.w3.org/2000/svg" width="24" height="24" viewBox="0 0 24 24"><path d="m20.1090883,8.4681156c.467057,1.0844136.7268817,2.2782123.7268817,3.5318844,0,4.9400846-4.0190766,8.9591612-8.9591612,8.9591612S2.9176475,16.9400846,2.9176475,12,6.9367241,3.0408388,11.8768087,3.0408388c2.8409603,0,5.3748806,1.3309922,7.0170855,3.4004038l-7.0089082,7.0089362-2.7016385-2.7016945-.6489175.6489175,3.0260973,3.0260973c.089614.089558.2070084.134365.3244587.134365s.2348447-.044807.3244587-.134365l9.7905552-9.7905552-.6489175-.6489175-1.8034541,1.8034541c-1.8121354-2.2336293-4.5770919-3.6642891-7.6708197-3.6642891C6.430741,2.1231913,2,6.5539322,2,12s4.430741,9.8768087,9.8768087,9.8768087,9.8768087-4.430741,9.8768087-9.8768087c0-1.5110043-.3421575-2.9432603-.9513648-4.2250208l-.6931644.6931364Z"/></svg>