<?xml version="1.0" encoding="UTF-8"?><svg id="Layer_1" xmlns="http://www.w3.org/2000/svg" width="24" height="24" viewBox="0 0 24 24"><path d="m20.1374757,20.014291l-2.3438275-5.1176502c.3971154-.5557929.6317566-1.2352212.6317566-1.968834,0-1.8721721-1.5230712-3.3952961-3.3952434-3.3952961H6.3685573v.8639983h6.4018879c-.4217951.3769182-.7488794.8573011-.9414386,1.4009914h-5.4604493v.8639983h5.2776987c-.0068818.0879871-.0114433.1765807-.0114433.2663081,0,.397801.0693719.7795971.1956441,1.1346306h-5.4618995v.8639983h5.8843537l-1.045536,2.2829194h-6.0880926c-.2382534,0-.4319992-.1937984-.4319992-.4319992V3.2959975c0-.2382007.1937457-.4319992.4319992-.4319992h12.0594843c.2382534,0,.4319992.1937984.4319992.4319992v5.7168433c.316933.2096187.6070242.4564151.8639983.7345357V3.2959975c0-.7146021-.5813426-1.2959975-1.2959975-1.2959975H5.1192824c-.7146549,0-1.2959975.5813953-1.2959975,1.2959975v13.4813584c0,.7146021.5813426,1.2959975,1.2959975,1.2959975h5.692401l-.8889416,1.9409376c-.0727733.1588356-.0426093.3458841.0762538.4739229.1189685.1279861.3032221.1719137.4670147.1109002l1.7818911-.6624479.6624479,1.7818911c.0608553.1637399.2144175.2747456.388968.2811264.0053789.0002109.0106523.0003164.0160312.0003164.1684333,0,.3221009-.0981385.3926594-.2521226l1.3220746-2.8868059,1.3221273,2.8868059c.0705585.1540368.2242261.2521226.3926594.2521226.0052734,0,.0106523-.0001055.0160312-.0003164.1745504-.0063808.3281126-.1173865.388968-.2811264l.6624479-1.7818911,1.7818911.6624479c.1637926.0610136.3480462.0170859.4670147-.1109002.118863-.1280388.1490271-.3150873.0762538-.4739229Zm-5.1073142-9.617782c1.3957707,0,2.5312451,1.1355271,2.5312451,2.5312978s-1.1354743,2.5312978-2.5312451,2.5312978-2.5313505-1.1355271-2.5313505-2.5312978,1.1355798-2.5312978,2.5313505-2.5312978Zm-1.6734694,10.0434003l-.4495069-1.2092496c-.0830037-.2234878-.332015-.3372357-.5553974-.2543901l-1.2091969.4495597,1.7639614-3.8516058c.2547593.2048726.5394716.373596.8466487.4987607l.8017455,1.7505933-1.1982545,2.6163318Zm4.3517376-1.4636397c-.2233824-.0828983-.4723936.0307968-.5553974.2543901l-.4496124,1.2092496-1.8888625-4.1243738c.0713758.0044824.1431208.0075674.2156041.0075674.803143,0,1.541581-.2809155,2.1235564-.748853l1.7639087,3.8515794-1.2091969-.4495597Zm-1.5309814-10.8446976v-.8639983H6.3685573v.8639983h9.808891Z"/></svg>