<?xml version="1.0" encoding="UTF-8"?><svg id="Layer_1" xmlns="http://www.w3.org/2000/svg" width="24" height="24" viewBox="0 0 24 24"><path d="m17.5714493,17.0226817h.8420925v-.8420668h-.8420925v.8420668Zm.8381171-4.1790453h-.8431475l-.0034479,2.5831234h.8431475l.0034479-2.5831234Zm3.1688598-1.6007657h-.6648844v-4.9598213c0-.6973567-.5673131-1.2647212-1.2647212-1.2647212H3.2647212c-.6973567,0-1.2647212.5673646-1.2647212,1.2647212v10.2953641c0,.6973567.5673646,1.2647212,1.2647212,1.2647212h11.2900725c-.2070816-.2674397-.3977534-.5480086-.5700663-.8431475H3.2647212c-.2324522,0-.4215737-.1891215-.4215737-.4215737v-5.3340504h9.9236374c.0852076-.3316445.2680058-.6233291.5169708-.8431475H2.8431475v-1.8932737h17.2272469v2.7349288h-5.6722048c-.2328125,0-.4215737.1887613-.4215737.4215737,0,3.5010382,1.2465553,5.877897,3.8109402,7.2663835.0625774.0339132.1316389.0508441.2007004.0508441s.138123-.0169309.2007004-.0508441c2.5644364-1.3884865,3.8110432-3.7653452,3.8110432-7.2663835,0-.2328125-.1887613-.4215737-.4215737-.4215737ZM2.8431475,7.6647943v-1.381745c0-.2324522.1891215-.4215737.4215737-.4215737h16.3840994c.2325037,0,.4215737.1891215.4215737.4215737v1.381745H2.8431475Zm15.145109,10.4119762c-2.0611416-1.198027-3.0735979-3.1142011-3.1621119-5.9907523h6.3243267c-.088514,2.8764998-1.1010732,4.7926739-3.1622148,5.9907523Z"/></svg>