<?xml version="1.0" encoding="UTF-8"?><svg id="Layer_1" xmlns="http://www.w3.org/2000/svg" width="24" height="24" viewBox="0 0 24 24"><path d="m18.1809815,6.9276545c-1.3444192-1.3254896-3.0385128-2.166549-4.8710226-2.4382304.1583915-.2507125.2514707-.5466311.2514707-.86446,0-.896018-.7289461-1.624964-1.6250163-1.624964-.8959657,0-1.6249118.7289461-1.6249118,1.624964,0,.3258295.0973148.6289121.2630272.8835203-1.8312024.2964938-3.5161451,1.1610845-4.8433603,2.5071247-1.650953,1.6744843-2.551102,3.8916516-2.5344733,6.243104.0300154,4.2463984,3.077627,7.7777603,7.089811,8.5728031v-.8771407c-3.4215494-.7556671-6.0285513-3.7226711-6.221403-7.329516h2.0049154v-.8567469h-2.0039219c.0957984-1.8177373.8006903-3.5237274,2.0202369-4.87952l1.4176275,1.4176537.6057469-.6058514-1.4168432-1.4168954c1.3530473-1.2175857,3.0577039-1.9254844,4.8787617-2.0218318v2.0047847h.8567469v-2.0047063c1.9411719.1021779,3.7551703.8997046,5.1510445,2.2759955,1.4228044,1.402829,2.250634,3.2482286,2.3554266,5.230371h-2.0047585v.8567469h2.0038173c-.0956938,1.8177635-.8005857,3.5237274-2.0201846,4.8795461l-1.4175752-1.4176275-.6057469.6058514,1.4167386,1.4167909c-1.3530473,1.2175595-3.0577039,1.9256412-4.8787617,2.0219364v-2.0047847h-.8567469v2.8626297c.1416582.0068241.2841007.0107982.4274322.0107982.0209167,0,.0421471-.0000523.0631684-.0002092,2.3514524-.0165765,4.5556514-.9478913,6.2066044-2.6223756,1.6510576-1.6744843,2.551102-3.8916516,2.5344733-6.243104s-.9479436-4.5556514-2.6223233-6.2066567Zm-6.2445682-2.534421c-.4235626,0-.7681648-.3446545-.7681648-.7682694s.3446022-.7682171.7681648-.7682171c.4236672,0,.7682694.3446022.7682694.7682171s-.3446022.7682694-.7682694.7682694Zm1.7157947,10.3098805l3.4149607-5.9756321c.0959029-.1677517.0675609-.3788532-.069025-.5154914-.1366905-.1366382-.3479489-.1647711-.5153868-.0689727l-5.9755798,3.4150652c-.0664104.0379115-.1214213.0929746-.159385.1593328l-3.4149607,5.9755798c-.0959029.1677517-.0675609.3788532.069025.5154914.0825163.082464.1921196.1254477.302978.1254477.07279,0,.1459984-.0185113.2124088-.056475l5.9755798-3.4150129c.0664104-.0379115.1214213-.0929746.159385-.1593328Zm-5.19612,2.0510367l2.3572568-4.1247157,1.7675112,1.7674589-4.124768,2.3572568Zm2.9630559-4.7305148l4.1246634-2.3573091-2.3571522,4.124768-1.7675112-1.7674589Z"/></svg>