<?xml version="1.0" encoding="UTF-8"?><svg id="Layer_1" xmlns="http://www.w3.org/2000/svg" width="24" height="24" viewBox="0 0 24 24"><path d="m16.2019568,7.1644062h3.3464753c.1838625,0,.3495274-.1107392.4198767-.2805651s.0315129-.3653394-.0985334-.4953303l-4.2554685-4.255413c-.0852459-.0853152-.1989255-.1304902-.314963-.1321546l-6.236845-.0009432c-.7518723,0-1.3634898.611673-1.3634898,1.3634898v.4827917h-.485538c-.7518723,0-1.3634898.611673-1.3634898,1.3634898v.4881039h-.4894216c-.7518723,0-1.3634898.611673-1.3634898,1.3634898v13.5751453c0,.7518168.6116175,1.3634898,1.3634898,1.3634898h9.5138032c.7518723,0,1.3634898-.611673,1.3634898-1.3634898v-.4880485h.4894216c.7518723,0,1.3634898-.611673,1.3634898-1.3634898v-.4827917h.4856489c.7518723,0,1.3634898-.611673,1.3634898-1.3634898v-8.4122925h-.9089932v8.4122925c0,.2506056-.2038355.4544966-.4544966.4544966h-9.5139142c-.2506611,0-.4544966-.203891-.4544966-.4544966V3.3634898c0-.2506056.2038355-.4544966.4544966-.4544966h5.7759682v2.8919232c0,.7518168.6116175,1.3634898,1.3634898,1.3634898Zm-.4544966-3.6126709l2.7036777,2.7036777h-2.2491811c-.2506611,0-.4544966-.203891-.4544966-.4544966v-2.2491811Zm-.4186007,17.084775c0,.2506056-.2038355.4544966-.4544966.4544966H5.3605597c-.2506611,0-.4544966-.203891-.4544966-.4544966V7.0613649c0-.2506056.2038355-.4544966.4544966-.4544966h.4894216v12.1781036c0,.7518168.6116175,1.3634898,1.3634898,1.3634898h8.1153884v.4880485Zm-6.2663607-2.3343299h8.1192721v.4827917c0,.2506056-.2038355.4544966-.4544966.4544966H7.2134711c-.2506611,0-.4544966-.203891-.4544966-.4544966V5.2097712c0-.2506056.2038355-.4544966.4544966-.4544966h.485538v12.1834159c0,.7518168.6116175,1.3634898,1.3634898,1.3634898Z"/></svg>