<?xml version="1.0" encoding="UTF-8"?><svg id="Layer_1" xmlns="http://www.w3.org/2000/svg" width="24" height="24" viewBox="0 0 24 24"><path d="m8.8667854,12.7543735h6.266481v-.8496361h-6.266481v.8496361Zm11.578729-5.918516h-1.3337015l-1.3086024-2.0288795c-.2356931-.3654929-.6360862-.5837099-1.0710165-.5837099H7.2678578c-.4349303,0-.8353234.2182171-1.0710165.5837099l-1.3086283,2.0288795h-1.3336756c-.8571555,0-1.5545374.697382-1.5545374,1.5545374,0,.6896552.452536,1.2732355,1.0754244,1.4759471v8.6359358c0,.7027233.5717308,1.2744541,1.2744541,1.2744541h1.3858444c.7027233,0,1.2744541-.5717308,1.2744541-1.2744541v-1.1237557h9.9796977v1.1237557c0,.7027233.5717308,1.2744541,1.2744541,1.2744541h1.3858444c.7027233,0,1.2744541-.5717308,1.2744541-1.2744541v-8.6337319c.6232774-.2025301,1.0753725-.7882366,1.0753725-1.4781511,0-.8571555-.6973301-1.5545374-1.5544856-1.5545374ZM3.4377021,9.0847302c-.3331596-.0559155-.588066-.3455406-.588066-.6943353,0-.3886732.3162281-.7049013.7049013-.7049013h.7856697l-.902505,1.3992367Zm.4873584,2.9223743h.9285635c.8139062,0,1.4760249.6621187,1.4760249,1.4760249v.424818h-2.4045884v-1.9008429Zm2.2354805,6.4951733c0,.2342411-.1905769.424818-.424818.424818h-1.3858444c-.2342411,0-.424818-.1905769-.424818-.424818v-1.1981196c.1331186.0472812.2757013.0743639.424818.0743639h1.8106625v1.1237557Zm13.9144504,0c0,.2342411-.1905769.424818-.424818.424818h-1.3858444c-.2342411,0-.424818-.1905769-.424818-.424818v-1.1237557h1.8106625c.1491167,0,.2916994-.0270827.424818-.0743639v1.1981196Zm0-4.5943304h-2.4046402v-.424818c0-.8139062.6621187-1.4760249,1.4760249-1.4760249h.9286153v1.9008429Zm0-2.750479h-.9286153c-1.2823884,0-2.325661,1.0432726-2.325661,2.325661v.8496361c0,.2346041.1902139.424818.424818.424818h2.8294583v1.3464844c0,.2342411-.1905769.424818-.424818.424818H4.3498785c-.2342411,0-.424818-.1905769-.424818-.424818v-1.3464844h2.8294064c.2346041,0,.424818-.1902139.424818-.424818v-.8496361c0-1.2823884-1.0432726-2.325661-2.325661-2.325661h-.9285635v-.7877699c0-.2342411.1905769-.424818.424818-.424818h14.2397017l-.54798-.8496361H4.4419259l2.4688919-3.8277703c.0786162-.1218137.212046-.19457.3570401-.19457h9.4643362c.144994,0,.2784238.0727563.3570401.19457l2.9179793,4.5241151c.0443383.0687114.067778.1483129.067778.2301443v1.1357349Zm.4873065-2.0727252l-.9024791-1.3992496h.7856956c.3886732,0,.7048495.3162281.7048495.7049013,0,.3487947-.2549064.6384328-.588066.6943483Z"/></svg>