<?xml version="1.0" encoding="UTF-8"?><svg id="Layer_1" xmlns="http://www.w3.org/2000/svg" width="24" height="24" viewBox="0 0 24 24"><path d="m17.3815752,17.4624058h.7887253v-.7887318h-.7887253v.7887318Zm.4514488-4.8028187c-.4050232-.0142312-.7887511.1307624-1.0802853.4113654-.2916373.2807577-.4522544.6582981-.4522544,1.0630119h.8447995c0-.1729921.0686812-.3343826.1933593-.4544201.1245749-.1199343.2886983-.1820671.4623091-.1757765.321492.0122203.5929684.2836967.6051887.6052403.0092297.2424983-.1175109.4648357-.3307733.5802841-.4452419.2409514-.721823.6928449-.721823,1.1792337v.0652781h.8447995v-.0652781c0-.1786124.1043624-.3417045.2791077-.4362701.4982482-.2696717.794423-.7889574.7728699-1.3553196-.0290297-.7657027-.651595-1.3883196-1.4172977-1.4173492Zm4.1663573,2.3765723c-.000348-.0611144-.0016951-.1219904-.0046277-.1824667-.0013213-.0271541-.0038285-.0539859-.005659-.0810046-.0028102-.0413982-.0054527-.0828287-.0094553-.1238917-.0030422-.0312855-.0071672-.0622359-.0108926-.0933216-.0043248-.0360357-.0085143-.0721037-.0137414-.1078558-.0049049-.0335994-.010725-.066883-.0164226-.1002246-.0055623-.0324779-.0111053-.0649429-.0174023-.0971695-.0068707-.0352107-.0144697-.070125-.0222105-.1050134-.0065549-.029468-.0132258-.0588779-.0203865-.0881074-.0090105-.0368285-.0185754-.0734056-.0285463-.1098474-.0071414-.0260455-.0145277-.0519685-.0221461-.0778078-.0114211-.0387814-.0232547-.0773566-.0357521-.1156675-.0072252-.022101-.014792-.0440279-.0223652-.0659677-.0142119-.0412242-.0287332-.0822615-.0441761-.1228992-.0064131-.016848-.0132258-.0334963-.0198451-.0502476-.0177955-.0450785-.0359133-.0899572-.0552041-.1342622-.0035385-.0081275-.007367-.0161004-.0109635-.0242021-.1747194-.3945238-.4080074-.7572658-.6889842-1.0775203v-6.2959969c0-.6987231-.5684763-1.2671993-1.2671993-1.2671993H3.2671993c-.6987231,0-1.2671993.5684763-1.2671993,1.2671993v10.3155365c0,.6987231.5684763,1.2671993,1.2671993,1.2671993h9.6237293c-.1388835-.2697426-.2545446-.5525692-.34766-.8447995H3.2671993c-.2329077,0-.4223998-.1894921-.4223998-.4223998v-5.3445018h11.2877598c.0163324-.0144826.0318205-.0296678.0483527-.0439828.374524-.3243602.7847679-.5914409,1.2194267-.8008167H2.8447995v-1.8969833h17.2610015v3.3275454c-.0727031-.0482689-.1472431-.0938953-.2230012-.1376911-.0160359-.0092748-.032001-.0186527-.0481722-.0277277-.0325617-.0182531-.0653877-.0360422-.0984714-.0534509-.0190846-.0100482-.038356-.0197807-.0576146-.0295453-.0651298-.0330064-.1311491-.0644338-.1981546-.094108-.0127488-.0056525-.0252721-.0117111-.0380918-.0172412-.0296935-.0127939-.059806-.0247307-.0898412-.0368607-.026458-.0106992-.0529482-.0212889-.079664-.031466-.0290232-.0110344-.0581496-.0218174-.0874693-.0322265-.0313758-.0111504-.0630222-.0216949-.0947267-.0321234-.0253365-.0083209-.0504668-.0170414-.0760031-.0248918-.0536636-.0165129-.1078365-.0318012-.1623767-.0462129-.02339-.0061682-.0470121-.0117176-.0705568-.0174861-.0382336-.0093973-.0766283-.0183305-.1152615-.0266707-.0234416-.0050467-.0468767-.0100547-.0704601-.0147146-.0482496-.0095519-.096815-.0181951-.1456382-.0260777-.0128197-.0020625-.0254783-.0045891-.0383367-.0065355-.0610822-.0092812-.12268-.0168996-.1845872-.0235254-.0190523-.0020303-.0382142-.0036223-.0573439-.0054012-.0469347-.0043699-.0940693-.0079793-.1414294-.0107894-.0194004-.0011537-.038775-.0023977-.0582463-.0032871-.0644144-.0029455-.1290673-.0049242-.1942036-.0049242-.0000516,0-.0000967-.0000064-.0001482-.0000064h-.0000516c-2.3291284,0-4.2239977,1.8948693-4.2239977,4.2239977s1.8948693,4.2239977,4.2239977,4.2239977h.0000516c2.3291284,0,4.2239977-1.8948693,4.2239977-4.2239977,0-.0081662-.0005736-.0161971-.0006187-.0243568ZM2.8447995,7.3671377v-1.3844524c0-.2329077.1894921-.4223998.4223998-.4223998h16.416202c.2329077,0,.4223998.1894921.4223998.4223998v1.3844524H2.8447995Zm14.931177,11.0725768c-1.8633066-.0000129-3.3791724-1.5158916-3.3791724-3.3791982s1.5158658-3.3791853,3.3791724-3.3791982c1.8633066.0000129,3.3791724,1.5158916,3.3791724,3.3791982s-1.5158658,3.3791853-3.3791724,3.3791982Z"/></svg>