<?xml version="1.0" encoding="UTF-8"?><svg id="Layer_1" xmlns="http://www.w3.org/2000/svg" width="24" height="24" viewBox="0 0 24 24"><path d="m19.7168535,19.0983547l-.9186329-.9186329c3.4817386-3.8102849,3.3560857-9.7427918-.3501672-13.3970688-1.8383374-1.8125638-4.2674848-2.7999977-6.8538457-2.7824224-2.5815384.0182183-5.0013623,1.0406422-6.8138725,2.878926-3.7415107,3.7948261-3.6982153,9.9261004.0965572,13.6676647,1.8798109,1.8534479,4.3329636,2.7781357,6.7849375,2.7781357,1.9171585,0,3.8326024-.5676084,5.4738067-1.6963416l-.6312654-.6312654c-1.4617269.965813-3.1514509,1.4502332-4.8425413,1.4501261-2.22896-.0002143-4.4597418-.840937-6.1685147-2.5257582-3.4501244-3.4017387-3.4894546-8.9760677-.0877695-12.4261386,1.647795-1.6713181,3.84782-2.600882,6.1948777-2.6174928.0213262-.0001608.042438-.0002143.0637642-.0002143,2.3232667,0,4.5113962.8970388,6.1674431,2.5298841,3.3601044,3.3129779,3.4836944,8.6858335.3456126,12.1509881l-1.6738901-1.6738901c.9874339-1.1300995,1.5892284-2.6049275,1.5892284-4.2201171,0-3.54561-2.8844987-6.4301622-6.4301086-6.4301622s-6.4301086,2.8845522-6.4301086,6.4301622c0,3.5455564,2.8844987,6.4301086,6.4301086,6.4301086,1.1340379,0,2.1997035-.2962087,3.1257309-.8136363l-.6492694-.6492694c-.7461213.3735027-1.586844.5849962-2.4764615.5849962-3.061538,0-5.5521991-2.4907146-5.5521991-5.5521991,0-3.061538,2.4906611-5.5522527,5.5521991-5.5522527s5.5521991,2.4907146,5.5521991,5.5522527c0,1.3730732-.5033084,2.6290936-1.3324571,3.598979l-1.7410301-1.7410301c.389283-.5180706.6203344-1.1614994.6203344-1.8579489,0-1.7088265-1.3902735-3.0991-3.0990464-3.0991-1.7088801,0-3.0991535,1.3902735-3.0991535,3.0991s1.3902735,3.0991,3.0991535,3.0991c.6964495,0,1.3398783-.2310514,1.8579489-.620388l5.5756686,5.5756686v2.2808823h.8779095v-2.0237358h2.0237358v-.8779095h-2.2808823Zm-6.2053533-6.2053533l-1.5386726-1.5386726-.6207095.6208166,1.5386458,1.5386458c-.352123.2346951-.7743329.3721363-1.228291.3721363-1.2248081,0-2.221244-.9964359-2.221244-2.2211904s.9964359-2.2211904,2.221244-2.2211904c1.2247009,0,2.2211368.9964359,2.2211368,2.2211904,0,.4539581-.1374413.8761681-.3721095,1.2282642Z"/></svg>