<?xml version="1.0" encoding="UTF-8"?>
<svg id="Layer_1" data-name="Layer 1" xmlns="http://www.w3.org/2000/svg" viewBox="0 0 24 24">
  <path d="m16.649231,7.350769c-.2245483-.2245483-.588623-.2245483-.8131714,0l-3.8360596,3.8360596-3.8360596-3.8360596c-.2245483-.2245483-.588623-.2245483-.8131714,0s-.2245483.588623,0,.8131714l3.8360596,3.8360596-3.8360596,3.8360596c-.2245483.2245483-.2245483.588623,0,.8131714s.588623.2245483.8131714,0l3.8360596-3.8360596,3.8360596,3.8360596c.2245483.2245483.588623.2245483.8131714,0s.2245483-.588623,0-.8131714l-3.8360596-3.8360596,3.8360596-3.8360596c.2245483-.2245483.2245483-.588623,0-.8131714ZM12,1.5c-5.7991943.0003052-10.4996948,4.7008057-10.5,10.5.0003052,5.7991943,4.7008057,10.4996338,10.5,10.5,5.7991943-.0003662,10.4996948-4.7008057,10.5-10.5-.0003052-5.7991943-4.7008057-10.4996948-10.5-10.5Zm6.7175293,17.2175293c-1.7207642,1.7199097-4.0925903,2.7822266-6.7175293,2.7824707-2.624939-.0002441-4.9967651-1.062561-6.7175293-2.7824707-1.7199097-1.7207642-2.7822266-4.0925903-2.7824707-6.7175293.0002441-2.624939,1.062561-4.9967651,2.7824707-6.7175293,1.7207642-1.7199707,4.0925903-2.7822266,6.7175293-2.7824707,2.624939.0002441,4.9967651,1.0625,6.7175293,2.7824707,1.7199097,1.7207642,2.7822266,4.0925903,2.7824707,6.7175293-.0002441,2.624939-1.062561,4.9967651-2.7824707,6.7175293Z"/>
</svg>